
<svg xmlns="http://www.w3.org/2000/svg" version="1.1" xmlns:xlink="http://www.w3.org/1999/xlink" preserveAspectRatio="none" x="0px" y="0px" width="1024px" height="1024px" viewBox="0 0 1024 1024">
<defs>
<g id="Layer0_0_MEMBER_0_FILL">
<path fill="#CCC0BC" stroke="none" d="
M 2.85 17.4
Q 6.7 19.45 13.5 18.5 20.3 17.6 26.05 14.25 31.8 10.95 33.15 7.15 34.45 3.4 30.6 1.35 26.7 -0.65 19.9 0.3 13.15 1.2 7.35 4.5 1.6 7.85 0.3 11.6 -1 15.4 2.85 17.4 Z"/>
</g>

<g id="Layer0_0_MEMBER_1_MEMBER_0_FILL">
<path fill="#FBC7AC" stroke="none" d="
M 199.1 271.95
L 199 271.55 199 271.5 198.3 270.15 198.25 270.15 195.85 266
Q 195.35 265.9 194.75 265.8 193.65 265.6 193.45 265.8 193.2 266.05 192.45 268.05 192 269.5 192.15 269.6 192.5 269.8 193.75 272.15
L 195.4 274.35
Q 195.7 274.75 197.05 273.85 198.3 273.05 198.9 272.3 199.1 272.1 199.1 271.95 Z"/>
</g>

<g id="Layer0_0_MEMBER_1_MEMBER_1_FILL">
<path fill="#FBC7AC" stroke="none" d="
M 199.1 271.9
L 199 271.55 199 271.5 198.75 271.25
Q 198.3 270.6 197.65 270.85
L 196.15 271.45 195.95 271.6
Q 195 272.35 194.55 273.25
L 194.5 273.5
Q 194.45 273.7 194.4 275.75 194.35 277.8 194.25 278.05 194.1 278.45 194 279.5 193.9 280.55 194.05 280.6 194.25 280.65 195.5 280 196.85 279.25 197.2 278.7 198.35 276.9 198.8 275.6 199.45 273.3 199.1 271.9 Z"/>
</g>

<g id="Layer0_0_MEMBER_1_MEMBER_2_FILL">
<path fill="#F5A480" stroke="none" d="
M 7 3.95
L 6.9 3.6 6.9 3.55 6.2 2.2 6.85 3.8 6.8 4.35 6.8 6.1 6.35 7.6
Q 5.4 9.45 4.9 10.25 4.4 11.05 2.85 11.15
L 3 5.1
Q 3 4.8 3.5 4.15 3.75 3.85 4.05 3.5
L 2.7 4.3
Q 2.25 3.65 1.65 2.5 1.05 1.3 0.8 0
L 0.35 0.1
Q -0.1 1.55 0.05 1.65 0.4 1.85 1.65 4.2
L 2.45 5.3 2.4 5.55
Q 2.35 5.75 2.3 7.8 2.25 9.85 2.15 10.1 2 10.5 1.9 11.55 1.8 12.6 1.95 12.65 2.15 12.7 3.4 12.05 4.75 11.3 5.1 10.75 6.25 8.95 6.7 7.65 7.35 5.35 7 3.95 Z"/>
</g>

<g id="Layer0_0_MEMBER_1_MEMBER_3_FILL">
<path fill="#FD8839" stroke="none" d="
M 190.95 257.3
L 189.95 258.3
Q 188.9 259.3 188.9 259.5 188.85 259.7 190.5 264.6 191.35 267.1 192.15 269.5 194.25 268.4 195.1 267.6 195.65 267.1 196 266.55
L 196.25 266.1 195.3 264.25
Q 193.35 260.2 192.85 259.5
L 190.95 257.3 Z"/>
</g>

<g id="Layer0_0_MEMBER_1_MEMBER_4_FILL">
<path fill="#2F2720" stroke="none" d="
M 193.85 330.05
Q 195.1 330.15 195.25 330.15 196.2 330.15 196.5 329.65 197.05 328.8 196.55 327.4 196.4 326.9 190.85 323.85
L 187.5 323.25 186.5 324.45
Q 185.6 325.8 185.95 326.25 186.6 327 188.95 327.2 193.3 330.05 193.85 330.05 Z"/>
</g>

<g id="Layer0_0_MEMBER_1_MEMBER_5_FILL">
<path fill="#3761A1" stroke="none" d="
M 194.75 295.9
Q 194.9 293.9 194.65 291.15
L 194.35 288.8
Q 193.15 288.7 191.45 288.75 188.05 288.95 185.5 290.05 182.35 291.4 183.55 298.45 183.8 299.95 184.1 301.1 184.15 301.2 184.2 304.25 184.35 307.45 184.6 308.45 185.05 310.1 185.15 317.1
L 184.85 323.6 185.45 324.5
Q 186.05 325.4 186.3 325.45
L 186.75 325.55
Q 188.5 325.95 189.65 325.9 191.1 325.85 192.35 324.95 192.4 320.15 192.65 318.9 193.45 314.8 194.3 309.5 194.7 307.15 194.7 302.4 194.7 296.5 194.75 295.9 Z"/>
</g>

<g id="Layer0_0_MEMBER_1_MEMBER_6_FILL">
<path fill="#17377A" stroke="none" d="
M 3.75 9.6
Q 3.7 9.3 3.85 7.8
L 4.05 6.3 5.35 1.15 4.55 0
Q 2.35 1.55 0 4.15 0.25 5.65 0.55 6.8 0.6 6.9 0.65 9.95 0.8 13.15 1.05 14.15 1.5 15.8 1.6 22.8
L 1.3 29.3
Q 2.35 31.05 2.75 31.15
L 3.2 31.25 3.65 29.15
Q 3.6 25 3.55 24.75
L 3.95 14.25
Q 4 14.2 3.9 12.05 3.8 10 3.75 9.6 Z"/>
</g>

<g id="Layer0_0_MEMBER_1_MEMBER_7_FILL">
<path fill="#2F2720" stroke="none" d="
M 174.45 329.25
Q 174.5 329.95 174.7 330.6
L 175.6 331.85
Q 175.65 331.95 176.65 334.45 177.05 335.1 178 335.7 179.2 336.4 180.6 336.45 182.75 336.5 183.1 335 183.2 334.75 182.5 333.75 181.55 332.4 181.5 332.35
L 179.8 329.45
Q 178.85 328.8 177.75 328.25 175.55 327.15 174.95 327.5 174.35 327.85 174.45 329.25 Z"/>
</g>

<g id="Layer0_0_MEMBER_1_MEMBER_8_FILL">
<path fill="#3761A1" stroke="none" d="
M 189 293.75
Q 189.05 290.5 188.45 289.8 187.95 289.25 183.5 289.8 179.95 290.2 176.4 290.95
L 174.65 291.35
Q 174.45 291.55 174.45 293.7 174.4 295.7 174.5 297.25 175.1 304.85 175.3 305.45 175.4 305.9 175.1 310.2 174.9 312.2 174.35 323.55 174.2 325.05 174.25 328.8
L 175.25 330.1 176.35 330.45
Q 177.7 330.85 178.8 330.8 180.6 330.7 181.05 329.8
L 181.9 327.4 183.3 318.35 183.75 309.6
Q 184.1 307.75 184.5 306 185.35 302.55 186 302.15 186.7 301.75 187.75 299.9 188.7 298.15 188.8 297.45 189 294.4 189 293.75 Z"/>
</g>

<g id="Layer0_0_MEMBER_1_MEMBER_9_FILL">
<path fill="#17377A" stroke="none" d="
M 0.2 2.75
Q 0.15 4.75 0.25 6.3 0.85 13.9 1.05 14.5 1.15 14.95 0.85 19.25 0.65 21.25 0.1 32.6 -0.05 34.1 0 37.85
L 0.55 38.6
Q 1 34.7 0.95 33.4 0.9 32.3 1.1 28.45
L 2.25 17.05
Q 2.35 16.4 2.05 14.05 1.75 11.65 1.75 11.55 1.2 6.35 1.3 5.05 1.4 3.75 2.15 0
L 0.4 0.4
Q 0.2 0.6 0.2 2.75 Z"/>
</g>

<g id="Layer0_0_MEMBER_1_MEMBER_10_FILL">
<path fill="#F6562A" stroke="none" d="
M 192.55 270.1
Q 192.7 268.8 191.9 263 191.15 257.35 190.95 257.3
L 184.35 255.95
Q 183.25 255.85 181.25 256.05 178.65 256.3 177.2 257.1 177 257.2 176.5 257.55 175 258.9 173.4 260.65 171.7 262.5 171.65 262.95
L 171.65 263.1
Q 171.9 264.4 175.1 273.75
L 175.15 285.1 175.05 285.9 174.35 289.25 174.3 289.35
Q 173.9 291.25 174 291.55 174.05 291.9 175.75 292.35 177.5 292.8 181.2 293.35 182.5 293.6 185.45 293.1 188.05 292.7 190.6 291.95 192.5 291.4 193.75 289.95
L 194.6 288.6
Q 194.6 288.25 194.2 287.15
L 193.65 286 192.55 272.25
Q 192.45 270.75 192.55 270.1 Z"/>
</g>

<g id="Layer0_0_MEMBER_1_MEMBER_11_FILL">
<path fill="#C5FD4B" stroke="none" d="
M 496.45 273.6
L 497.5 275
Q 515 293.9 512.9 303.35 511.85 308.25 509.4 315.6 507.65 321.55 508.35 324.35 509.4 328.2 525.15 437.4
L 526.9 447.55
Q 530.4 473.1 532.5 476.95 534.25 482.55 544.4 479.4 554.2 476.6 559.45 469.95 560.15 469.25 558.4 457.7 556.65 446.15 557 445.8 558.75 442.65 556.3 429.35
L 552.1 413.25
Q 553.15 409.05 553.15 407.3
L 553.15 406.95
Q 551.05 396.45 551.05 392.25
L 550.7 390.5 550.7 388.75
Q 549.65 361.8 538.45 304.05 536 290.75 528.3 281.3
L 526.55 279.55
Q 523.75 276.4 519.9 275.35 515.35 274.65 513.25 273.95 509.05 272.9 506.6 273.6
L 505.9 273.6 503.45 273.95 496.45 273.6 Z"/>
</g>

<g id="Layer0_0_MEMBER_1_MEMBER_12_MEMBER_0_FILL">
<path fill="#9AC2D5" stroke="none" d="
M 507.65 276.05
Q 518.15 284.1 519.55 294.6 519.9 298.8 517.8 311.05 516.05 319.1 517.1 328.9
L 531.1 429.35 531.1 429.7
Q 532.5 437.05 538.8 438.45
L 542.3 438.8
Q 546.85 437.75 550.35 432.85
L 555.25 425.5
Q 554.2 413.25 553.15 407.3
L 553.15 406.95
Q 550.35 411.85 542.65 422.35
L 529.35 327.15
Q 528.3 320.85 530.05 313.5 531.45 305.45 531.45 301.25 531.1 292.5 527.25 283.75 520.95 276.4 513.25 273.95 511.15 273.6 506.6 273.6
L 503.45 273.95 507.65 276.05 Z"/>
</g>

<g id="Layer0_0_MEMBER_1_MEMBER_13_FILL">
<path fill="#B79D20" stroke="none" d="
M 531.1 429.7
L 531.1 429.55 518.85 444.75 540.55 452.1 556.3 429.35 555.25 425.5 550.35 432.85
Q 546.85 437.75 542.3 438.8
L 538.8 438.45
Q 532.5 437.05 531.1 429.7
M 550.7 390.5
L 550.7 388.75 541.15 411.55 542.65 422.35
Q 550.35 411.85 553.15 406.95 551.05 396.45 551.05 392.25
L 550.7 390.5 Z"/>

<path fill="#8F785B" stroke="none" d="
M 553.15 407.3
L 553.15 406.95
Q 550.35 411.85 542.65 422.35
L 541.15 411.55 536.35 423.05 531.1 429.55 531.1 429.7
Q 532.5 437.05 538.8 438.45
L 542.3 438.8
Q 546.85 437.75 550.35 432.85
L 555.25 425.5
Q 554.2 413.25 553.15 407.3 Z"/>
</g>

<g id="Layer0_0_MEMBER_1_MEMBER_14_FILL">
<path fill="#C5FD4B" stroke="none" d="
M 443.6 282.35
L 444.3 281.65
Q 444.3 281.3 443.25 281.3 441.5 281.3 438.35 284.45
L 419.45 301.6
Q 405.8 314.55 404.75 316.3 402.65 320.15 402.65 328.2
L 407.2 319.45 414.9 317.35
Q 425.4 317.35 438 328.55 452.35 341.15 462.5 367.05 470.9 388.75 474.75 415.7 475.8 426.55 469.85 431.8 459 442.65 429.25 437.75
L 427.5 437.75 424.7 448.95
Q 424.35 451.75 424.35 458.4 424.7 465.05 424 467.5 421.55 478.7 421.9 479.75 421.9 481.15 428.55 483.95 434.85 487.1 442.2 489.55 456.9 493.4 483.15 494.8 497.15 495.5 503.45 492 510.45 487.8 511.85 474.85 512.9 466.45 511.5 441.6
L 509.75 419.55
Q 501 335.55 496.8 332.4 494.7 329.25 492.6 327.15 489.1 322.95 481.75 319.8 451.65 308.25 443.6 299.5 436.95 291.45 443.6 282.35 Z"/>
</g>

<g id="Layer0_0_MEMBER_1_MEMBER_15_MEMBER_0_FILL">
<path fill="#9AC2D5" stroke="none" d="
M 431.7 295.65
L 429.95 292.15 419.45 301.6
Q 422.95 308.6 433.1 316.65 443.95 324.7 469.85 337.3
L 478.25 341.5
Q 481.75 359 487 402.05 492.6 451.75 490.15 458.75 488.75 460.5 482.8 462.25 475.45 464.35 466 464.7 455.15 465.4 445.35 462.6 433.8 459.45 428.55 453.15
L 425.05 448.95
Q 424.35 451.75 424.35 458.4 424.35 465.05 424 467.5 440.8 482.55 473.35 478.7
L 480.7 477.65
Q 498.2 474.5 503.1 465.4 511.15 449.65 491.55 334.85 490.5 332.05 487 329.6 484.2 327.85 475.8 324 454.1 314.2 442.2 305.1 436.6 300.9 434.15 297.4 432.75 294.95 432.4 294.6 432.4 295.65 431.7 295.65 Z"/>
</g>

<g id="Layer0_0_MEMBER_1_MEMBER_16_FILL">
<path fill="#FBC7AC" stroke="none" d="
M 184.55 259.9
Q 184.75 259.6 184.85 258.5 184.9 257.4 184.8 257.1 184.2 255.4 184.2 254.8
L 184.5 252.4
Q 181.5 250.35 179.7 249.3
L 178.45 248.65 178.15 248.7
Q 177.55 248.85 176.4 249.55 175.8 249.95 175.35 250.25
L 175.75 251.15 175.75 251.2 176.15 252.05 176.15 252.1
Q 176.6 253 176.8 253.7 177.35 255.55 177.35 255.7 177.35 256.25 176.85 258.05
L 177.1 258.3
Q 179.75 260.15 181.5 260.3 183 260.4 183.65 260.3 184.3 260.25 184.55 259.9 Z"/>
</g>

<g id="Layer0_0_MEMBER_1_MEMBER_17_FILL">
<path fill="#B79D20" stroke="none" d="
M 532.5 476.95
Q 534.25 482.55 544.4 479.4 552.2658203125 477.1525390625 557.2 472.4
L 555.6 459.8 529.35 445.8 526.45 445.1 526.9 447.55
Q 530.4 473.1 532.5 476.95
M 511.5 441.5
L 505.25 440
Q 506.0900390625 459.5498046875 503.1 465.4 498.2 474.5 480.7 477.65
L 473.35 478.7
Q 440.8 482.55 424 467.5 421.55 478.7 421.9 479.75 421.9 481.15 428.55 483.95 434.85 487.1 442.2 489.55 445.35 486.4 448.5 485 452.7 483.6 472.65 483.25 491.2 482.55 499.25 483.25 502.6564453125 483.512109375 509.8 483.9 511.2818359375 480.1064453125 511.85 474.85 512.9 466.45 511.5 441.6
L 511.5 441.5
M 490.15 458.75
Q 491.5634765625 454.7115234375 490.3 436.45
L 470.05 431.6
Q 469.9515625 431.7103515625 469.85 431.8 459 442.65 429.25 437.75
L 427.5 437.75 424.7 448.95
Q 424.4416015625 451.0171875 424.35 455.15 424.533203125 451.0171875 425.05 448.95
L 428.55 453.15
Q 433.8 459.45 445.35 462.6 455.15 465.4 466 464.7 475.45 464.35 482.8 462.25 488.75 460.5 490.15 458.75 Z"/>

<path fill="#E43513" stroke="none" d="
M 526.45 445.1
L 511.5 441.5 511.5 441.6
Q 512.9 466.45 511.85 474.85 511.2818359375 480.1064453125 509.8 483.9 521.7140625 484.605078125 544.05 485.7
L 562.6 492.7 558.75 484.65 557.2 472.4
Q 552.2658203125 477.1525390625 544.4 479.4 534.25 482.55 532.5 476.95 530.4 473.1 526.9 447.55
L 526.45 445.1
M 454.1 390.5
Q 454.1 391.2 451.3 394
L 434.15 420.25
Q 431 425.5 430.65 425.85
L 428.9 426.9 429.25 437.75
Q 459 442.65 469.85 431.8 469.9515625 431.7103515625 470.05 431.6
L 464.95 430.4 454.1 390.5
M 442.2 489.55
Q 434.85 487.1 428.55 483.95
L 427.15 490.95
Q 427.5 491.65 426.45 494.45
L 423.65 506.7 423.65 507.4 423.3 508.1
Q 420.5 520.7 421.2 523.5 421.55 525.95 433.45 529.1 433.8 517.9 436.25 504.25
L 439.05 493.05
Q 440.1 491.3 442.2 489.55 Z"/>

<path fill="#8F785B" stroke="none" d="
M 505.25 440
L 490.3 436.45
Q 491.5634765625 454.7115234375 490.15 458.75 488.75 460.5 482.8 462.25 475.45 464.35 466 464.7 455.15 465.4 445.35 462.6 433.8 459.45 428.55 453.15
L 425.05 448.95
Q 424.533203125 451.0171875 424.35 455.15 424.3625 456.6875 424.35 458.2 424.35 458.29609375 424.35 458.4 424.7 465.05 424 467.5 440.8 482.55 473.35 478.7
L 480.7 477.65
Q 498.2 474.5 503.1 465.4 506.0900390625 459.5498046875 505.25 440 Z"/>
</g>

<g id="Layer0_0_MEMBER_1_MEMBER_18_FILL">
<path fill="#AB723A" stroke="none" d="
M 188.8 283.5
L 198.2 284.2 205.35 280.45 205.35 279.85 200 281.8 188.75 282.9 188.8 283.5 Z"/>
</g>

<g id="Layer0_0_MEMBER_1_MEMBER_19_FILL">
<path fill="#B58D5D" stroke="none" d="
M 197.55 279.75
L 188.75 282.9 198.05 283.55 205.35 279.85 197.55 279.75 Z"/>
</g>

<g id="Layer0_0_MEMBER_1_MEMBER_20_FILL">
<path fill="#FFFFFF" stroke="none" d="
M 196.7 279.75
L 190.15 282.65 197.4 283.05 203.75 279.75 196.7 279.75 Z"/>
</g>

<g id="Layer0_0_MEMBER_1_MEMBER_21_FILL">
<path fill="#B6BAA2" stroke="none" d="
M 201.25 282.6
L 201.8 282.6 203.3 281.8 203.15 280.85 200.35 281 199.55 281.4 199.5 281.55 201.55 281.7 201.55 282.45 201.25 282.6 Z"/>
</g>

<g id="Layer0_0_MEMBER_1_MEMBER_22_FILL">
<path fill="#D0D3C4" stroke="none" d="
M 199.55 281.4
L 201.7 281.5 201.8 282.6 203.3 281.8 203.15 280.85 200.35 281 199.55 281.4 Z"/>
</g>

<g id="Layer0_0_MEMBER_1_MEMBER_23_FILL">
<path fill="#F5A480" stroke="none" d="
M 1.7 4.3
Q 1.35 2.1 1.2 1.8
L 0 0
Q 0.45 0.9 0.65 1.6 1.2 3.45 1.2 3.6 1.2 4.15 0.7 5.95
L 0.95 6.2 1.7 4.3 Z"/>
</g>

<g id="Layer0_0_MEMBER_1_MEMBER_24_FILL">
<path fill="#F5A480" stroke="none" d="
M 8.85 6.1
L 9.15 3.7
Q 6.15 1.65 4.35 0.6
L 2.8 0
Q 1.85 0.25 0 1.55
L 0.4 2.45
Q 0.1 1.7 0.35 1.6 0.75 1.45 2 1.5
L 3.05 4.65
Q 3.65 5.95 4.7 6.15 5.8 6.3 7.65 6.85
L 7.75 8.3
Q 7.8 8.5 8.15 9.65 8.4 10.75 8.35 11.25
L 8.3 11.6
Q 8.95 11.55 9.2 11.2 9.4 10.9 9.5 9.8 9.55 8.7 9.45 8.4 8.85 6.7 8.85 6.1 Z"/>
</g>

<g id="Layer0_0_MEMBER_1_MEMBER_25_FILL">
<path fill="#492728" stroke="none" d="
M 196.2 277.75
Q 198.9 278.75 197.05 277.35
L 193.75 274.9 193.25 275.4 193.95 276.15 196.2 277.75 Z"/>
</g>

<g id="Layer0_0_MEMBER_1_MEMBER_26_FILL">
<path fill="#FBC7AC" stroke="none" d="
M 174.15 271
Q 173.65 271.05 173.15 271.65 172.65 272.2 172.35 273 172 273.75 172.1 274.15 172.6 275.8 173.65 278.25 173.9 278.75 175.05 281.3 176.2 283.65 176.75 283.85 177.45 284.1 180.3 284.25 183.25 284.4 184.95 284.25 186.1 284.15 188.95 283.55 191.5 283 192.15 283
L 194.3 282.95
Q 194.7 283 195.9 282.6 197.4 282.4 197.65 282.25 197.9 282.1 198.35 281.5 198.7 281.55 198.85 281.45 198.95 281.4 199.2 280.65
L 199.45 280.5 199.5 279.9 199.8 279.8 199.8 278.75 199.65 278.45 199.65 278.4
Q 199.2 277.85 198.6 277.55 198.25 277.45 197 277.35 195.75 277.25 195.45 277.3 195.15 277.35 194.1 278.25 193.5 278.75 192.85 279.35 192.7 279.45 189.9 279.6 187.3 279.7 185.75 279.7 185.1 279.7 179.65 278.9
L 179.3 278.8
Q 179.45 278 179.2 276.55
L 178.6 272.9
Q 175.35 270.95 174.15 271 Z"/>
</g>

<g id="Layer0_0_MEMBER_1_MEMBER_27_FILL">
<path fill="#F5A480" stroke="none" d="
M 23.65 10.65
Q 22.6 11.1 20.55 11.05 11.65 11.7 10.35 11.65 8.35 11.75 7.1 11.8 4.75 11.9 4.45 11.65 3.7 11 2.05 6.55 1 3.9 0.4 1.95
L 1.05 0
Q 0.55 0.55 0.25 1.35 -0.1 2.1 0 2.5 0.5 4.15 1.55 6.6 1.8 7.1 2.95 9.65 4.1 12 4.65 12.2 5.35 12.45 8.2 12.6 11.15 12.75 12.85 12.6 14 12.5 16.85 11.9 19.4 11.35 20.05 11.35
L 22.2 11.3
Q 22.6 11.35 23.8 10.95 24.1 10.85 25.55 10.6 25.8 10.45 26.25 9.85
L 26.75 9.8
Q 26.85 9.75 27.1 9
L 27.35 8.85 27.4 8.25 27.7 8.15 27.7 7.1 27.65 7
Q 27.6890625 7.2349609375 27.5 7.55
L 26.6 6.75 24.65 6.9 26.3 6.95 27 7.3 27.35 7.75 27.15 8.35 26.7 8.25 25.1 8.2 26.85 8.6 26.85 8.9 26.55 9.6 25.8 9.3 24.7 9.45 25.45 9.6 26.15 9.9 25.45 10.45 23.65 10.65 Z"/>
</g>

<g id="Layer0_0_MEMBER_1_MEMBER_28_FILL">
<path fill="#FD8839" stroke="none" d="
M 171.15 264.55
Q 170.75 266.2 170.7 267.7 170.65 269.8 171.95 274.45
L 175.85 273.65
Q 177.1 273.4 178.95 273.25 177.5 269.2 177.15 268.5 177 268.25 176 265.55 175.05 263.15 174.85 263.05 172.3 261.95 171.8 262.6 171.5 263.1 171.15 264.55 Z"/>
</g>

<g id="Layer0_0_MEMBER_1_MEMBER_29_FILL">
<path fill="#FD8839" stroke="none" d="
M 184.1 260.2
L 183.25 258.95 179.5 258.4 177.2 257.25 177.3 256.1
Q 177.2 256.1 177.1 256.15 176.85 256.25 176.8 256.45
L 176.5 257.55 176.75 258.2
Q 177.35 259 179.35 259.8 180.65 260.3 183.35 260.85
L 184.05 262 184.1 260.2 Z"/>
</g>

<g id="Layer0_0_MEMBER_1_MEMBER_30_FILL">
<path fill="#FD8839" stroke="none" d="
M 184.25 255.25
L 184.35 255.95 184.7 257.15 184.85 258.7 184.55 259.9 184.55 262.15
Q 185.1 260.35 185.1 260.15
L 185.7 259.5
Q 186.05 258.65 186.1 258.25 186.15 258 185.8 257.2 185.5 256.5 185.3 256.2
L 184.25 255.25 Z"/>
</g>

<g id="Layer0_0_MEMBER_1_MEMBER_31_FILL">
<path fill="#FBC7AC" stroke="none" d="
M 184.65 247.2
Q 184.4 246.8 184.15 245.75 183.85 244.7 183.8 244.55 183.55 244 182.95 243.35 182.1 242.4 181.2 242.1 180.25 241.75 178.45 242.1 176.7 242.4 176.25 242.8 175.9 243.15 175.35 244.2 174.85 245.1 174.7 245.5 174.6 245.85 175.1 248.1 175.6 250.3 175.85 250.55 176 250.7 177.3 252.25 178.65 253.8 179.35 253.9 183.95 254.55 184.25 254.5 184.75 254.45 185.9 253.45 186.2 252.6 185.75 250.5 185.35 248.4 184.65 247.2 Z"/>
</g>

<g id="Layer0_0_MEMBER_1_MEMBER_32_FILL">
<path fill="#492728" stroke="none" d="
M 176.9 244.95
Q 176.85 244.8 177.25 244.3
L 177.6 243.8 181.15 242.75 183.45 244
Q 183.35 243.15 182.75 242.7 182.05 242.1 181.65 241.8 180.85 241.2 180.2 240.95 177.7 240.1 175.6 241.3 174.35 242 173.4 243.55 172.5 244.95 172.5 246 172.55 247 172.95 248.25 173.4 249.45 173.95 250.25 174.7 251.3 176.8 253.7
L 176.4 252.65 175.65 251.55
Q 175.5 251.15 175.4 250.65 175.2 249.7 175.4 249.5 175.6 249.3 176.4 249.65 176.85 249.85 177.2 250.1
L 177.55 249.55 177.3 249.05 177.65 247.6 176.9 244.95 Z"/>
</g>

<g id="Layer0_0_MEMBER_1_MEMBER_33_FILL">
<path fill="#FED6C1" stroke="none" d="
M 177.65 252
Q 177.3 250.8 176.85 250.3 176.1 249.35 175.4 249.5 175.05 249.55 174.9 249.95 174.7 250.35 174.8 250.7 174.9 251.15 176.3 252.45 176.9 252.85 177.35 252.65 177.75 252.45 177.65 252 Z"/>
</g>

<g id="Layer0_0_MEMBER_1_MEMBER_34_FILL">
<path fill="#FED6C1" stroke="none" d="
M 183.4 245.2
Q 183.05 244.2 182.1 243.5 181.3 242.95 181 243.05 180.05 243.35 179.2 243.65 177.6 244.25 177.5 244.6 177.3 245.15 177.9 247.5
L 177.45 249.1
Q 177.85 250.25 178 250.25 178.1 250.25 178.9 250.95 179.9 251.6 180.55 251.55 181.3 251.5 181.85 250.95 182.3 250.55 182.35 250.2 182.4 249.9 182.2 249.65 182 249.3 181.7 249.45 181.2 249.7 179.85 249.85 178.7 249.15 178.6 248.95 178.55 248.85 178.55 248.45 178.6 248.05 178.7 247.8
L 179.8 246.7
Q 180.15 246.45 181.95 246.1 182.65 245.95 183.4 245.2 Z"/>
</g>

<g id="Layer0_0_MEMBER_1_MEMBER_35_FILL">
<path fill="#FED6C1" stroke="none" d="
M 184.25 248.45
L 184.15 248.4 183.2 247.65
Q 183 247.5 183.05 247.75
L 183.05 248.2
Q 182.85 249.1 182.9 249.15 183.05 249.3 183.65 248.75 184.3 248.85 184.3 248.65 184.35 248.55 184.25 248.45 Z"/>
</g>

<g id="Layer0_0_MEMBER_2_FILL">
<path fill="#17377A" stroke="none" d="
M 1.6 3.3
Q 2.35 2.9 3.65 0
L 1.15 1.9 0 3.8
Q 0.85 3.75 1.6 3.3 Z"/>
</g>

<g id="Layer0_0_MEMBER_3_MEMBER_0_FILL">
<path fill="#FECA3A" stroke="none" d="
M 177.45 245.7
Q 179.75 244.3 180.6 243.95 182.25 243.3 184.05 243.5
L 183.45 242.45 182.25 240.9
Q 181.35 240.2 179.75 239.8 177.7 239.35 175.75 240.05 174.5 240.55 173.7 241.3 172.9 241.95 172.35 242.9
L 172.3 243 172 243.9
Q 171.65 244.9 171.65 245.2 171.65 248.25 172.35 249.25 172.7 249.75 173.25 249.9
L 173.95 249.05
Q 176.1 246.55 177.45 245.7 Z"/>
</g>

<g id="Layer0_0_MEMBER_3_MEMBER_1_FILL">
<path fill="#FEDB52" stroke="none" d="
M 179.7 239.9
L 179.75 239.8
Q 177.7 239.35 175.75 240.05 174.5 240.55 173.7 241.3 172.9 241.95 172.35 242.9 172.65 242.9 173.4 242.75 174.25 242.55 174.55 242.3 175.2 241.75 175.7 241.3 176.6 240.55 177.4 240.25 178.65 239.9 179.7 239.9 Z"/>
</g>

<g id="Layer0_0_MEMBER_3_MEMBER_2_FILL">
<path fill="#FDB72B" stroke="none" d="
M 172.75 247.05
Q 172.45 245.8 172.5 244.9 172.55 243.8 173.15 242.45
L 173.7 241.3
Q 172.8 241.95 172.3 243
L 172 243.9
Q 171.65 244.9 171.65 245.2 171.65 248.25 172.35 249.25 172.7 249.75 173.25 249.9 173.1 249.65 173.5 249.2 173.05 248.4 172.75 247.05 Z"/>
</g>

<g id="Layer0_0_MEMBER_3_MEMBER_3_FILL">
<path fill="#FDA529" stroke="none" d="
M 184.05 243.5
L 183.45 242.45
Q 182.75 242.2 181.6 242.3 179.25 242.6 176.8 244.55 173.25 247.4 172.35 249.25 172.7 249.75 173.25 249.9 173.9 249.1 174.75 248.15 176.5 246.3 177.45 245.7 179.75 244.3 180.6 243.95 182.25 243.3 184.05 243.5 Z"/>
</g>

<g id="Layer0_0_MEMBER_4_FILL">
<path fill="#FDBD3A" stroke="none" d="
M 177.3 245.75
L 178.1 245.35
Q 178.95 244.95 179.25 244.95 179.8 244.95 182.15 244.25 184.55 243.6 184.6 243.4 184.7 243.3 184.25 243.1
L 183.75 242.95
Q 182.6 242.75 181.15 243.3 180.25 243.65 178.7 244.75 177.9 245.3 177.3 245.75 Z"/>
</g>

<g id="Layer0_0_MEMBER_5_FILL">
<path fill="#FDA529" stroke="none" d="
M 176.45 240.9
Q 175.1 240.5 174.2 240.85 173.75 241.05 173.2 241.6 172.8 241.95 172.75 242.35
L 173 242
Q 173.75 241 175.2 240.85 175.9 240.8 176.45 240.9 Z"/>
</g>
</defs>

<g transform="matrix( 7, 0, 0, 7, 383.75,732.45) ">
<use xlink:href="#Layer0_0_MEMBER_0_FILL"/>
</g>

<g transform="matrix( 7, 0, 0, 7, -796.8,-1517.35) ">
<use xlink:href="#Layer0_0_MEMBER_1_MEMBER_0_FILL"/>
</g>

<g transform="matrix( 7, 0, 0, 7, -796.8,-1517.35) ">
<use xlink:href="#Layer0_0_MEMBER_1_MEMBER_1_FILL"/>
</g>

<g transform="matrix( 7, 0, 0, 7, 547.9,358.3) ">
<use xlink:href="#Layer0_0_MEMBER_1_MEMBER_2_FILL"/>
</g>

<g transform="matrix( 7, 0, 0, 7, -796.8,-1517.35) ">
<use xlink:href="#Layer0_0_MEMBER_1_MEMBER_3_FILL"/>
</g>

<g transform="matrix( 7, 0, 0, 7, -796.8,-1517.35) ">
<use xlink:href="#Layer0_0_MEMBER_1_MEMBER_4_FILL"/>
</g>

<g transform="matrix( 7, 0, 0, 7, -796.8,-1517.35) ">
<use xlink:href="#Layer0_0_MEMBER_1_MEMBER_5_FILL"/>
</g>

<g transform="matrix( 7, 0, 0, 7, 488.05,542.75) ">
<use xlink:href="#Layer0_0_MEMBER_1_MEMBER_6_FILL"/>
</g>

<g transform="matrix( 7, 0, 0, 7, -796.8,-1517.35) ">
<use xlink:href="#Layer0_0_MEMBER_1_MEMBER_7_FILL"/>
</g>

<g transform="matrix( 7, 0, 0, 7, -796.8,-1517.35) ">
<use xlink:href="#Layer0_0_MEMBER_1_MEMBER_8_FILL"/>
</g>

<g transform="matrix( 7, 0, 0, 7, 422.95,519.3) ">
<use xlink:href="#Layer0_0_MEMBER_1_MEMBER_9_FILL"/>
</g>

<g transform="matrix( 7, 0, 0, 7, -796.8,-1517.35) ">
<use xlink:href="#Layer0_0_MEMBER_1_MEMBER_10_FILL"/>
</g>

<g transform="matrix( 1, 0, 0, 1, 0,0) ">
<use xlink:href="#Layer0_0_MEMBER_1_MEMBER_11_FILL"/>
</g>

<g transform="matrix( 1, 0, 0, 1, 0,0) ">
<use xlink:href="#Layer0_0_MEMBER_1_MEMBER_12_MEMBER_0_FILL"/>
</g>

<g transform="matrix( 1, 0, 0, 1, 0,0) ">
<use xlink:href="#Layer0_0_MEMBER_1_MEMBER_13_FILL"/>
</g>

<g transform="matrix( 1, 0, 0, 1, 0,0) ">
<use xlink:href="#Layer0_0_MEMBER_1_MEMBER_14_FILL"/>
</g>

<g transform="matrix( 1, 0, 0, 1, 0,0) ">
<use xlink:href="#Layer0_0_MEMBER_1_MEMBER_15_MEMBER_0_FILL"/>
</g>

<g transform="matrix( 7, 0, 0, 7, -796.8,-1517.35) ">
<use xlink:href="#Layer0_0_MEMBER_1_MEMBER_16_FILL"/>
</g>

<g transform="matrix( 1, 0, 0, 1, 0,0) ">
<use xlink:href="#Layer0_0_MEMBER_1_MEMBER_17_FILL"/>
</g>

<g transform="matrix( 7, 0, 0, 7, -796.8,-1517.35) ">
<use xlink:href="#Layer0_0_MEMBER_1_MEMBER_18_FILL"/>
</g>

<g transform="matrix( 7, 0, 0, 7, -796.8,-1517.35) ">
<use xlink:href="#Layer0_0_MEMBER_1_MEMBER_19_FILL"/>
</g>

<g transform="matrix( 7, 0, 0, 7, -796.8,-1517.35) ">
<use xlink:href="#Layer0_0_MEMBER_1_MEMBER_20_FILL"/>
</g>

<g transform="matrix( 7, 0, 0, 7, -796.8,-1517.35) ">
<use xlink:href="#Layer0_0_MEMBER_1_MEMBER_21_FILL"/>
</g>

<g transform="matrix( 7, 0, 0, 7, -796.8,-1517.35) ">
<use xlink:href="#Layer0_0_MEMBER_1_MEMBER_22_FILL"/>
</g>

<g transform="matrix( 7, 0, 0, 7, 436.25,247.35) ">
<use xlink:href="#Layer0_0_MEMBER_1_MEMBER_23_FILL"/>
</g>

<g transform="matrix( 7, 0, 0, 7, 430.65,223.55) ">
<use xlink:href="#Layer0_0_MEMBER_1_MEMBER_24_FILL"/>
</g>

<g transform="matrix( 7, 0, 0, 7, -796.8,-1517.35) ">
<use xlink:href="#Layer0_0_MEMBER_1_MEMBER_25_FILL"/>
</g>

<g transform="matrix( 7, 0, 0, 7, -796.8,-1517.35) ">
<use xlink:href="#Layer0_0_MEMBER_1_MEMBER_26_FILL"/>
</g>

<g transform="matrix( 7, 0, 0, 7, 407.9,384.2) ">
<use xlink:href="#Layer0_0_MEMBER_1_MEMBER_27_FILL"/>
</g>

<g transform="matrix( 7, 0, 0, 7, -796.8,-1517.35) ">
<use xlink:href="#Layer0_0_MEMBER_1_MEMBER_28_FILL"/>
</g>

<g transform="matrix( 7, 0, 0, 7, -796.8,-1517.35) ">
<use xlink:href="#Layer0_0_MEMBER_1_MEMBER_29_FILL"/>
</g>

<g transform="matrix( 7, 0, 0, 7, -796.8,-1517.35) ">
<use xlink:href="#Layer0_0_MEMBER_1_MEMBER_30_FILL"/>
</g>

<g transform="matrix( 7, 0, 0, 7, -796.8,-1517.35) ">
<use xlink:href="#Layer0_0_MEMBER_1_MEMBER_31_FILL"/>
</g>

<g transform="matrix( 7, 0, 0, 7, -796.8,-1517.35) ">
<use xlink:href="#Layer0_0_MEMBER_1_MEMBER_32_FILL"/>
</g>

<g transform="matrix( 7, 0, 0, 7, -796.8,-1517.35) ">
<use xlink:href="#Layer0_0_MEMBER_1_MEMBER_33_FILL"/>
</g>

<g transform="matrix( 7, 0, 0, 7, -796.8,-1517.35) ">
<use xlink:href="#Layer0_0_MEMBER_1_MEMBER_34_FILL"/>
</g>

<g transform="matrix( 7, 0, 0, 7, -796.8,-1517.35) ">
<use xlink:href="#Layer0_0_MEMBER_1_MEMBER_35_FILL"/>
</g>

<g transform="matrix( 7, 0, 0, 7, 440.1,546.95) ">
<use xlink:href="#Layer0_0_MEMBER_2_FILL"/>
</g>

<g transform="matrix( 7, 0, 0, 7, -796.8,-1517.35) ">
<use xlink:href="#Layer0_0_MEMBER_3_MEMBER_0_FILL"/>
</g>

<g transform="matrix( 7, 0, 0, 7, -796.8,-1517.35) ">
<use xlink:href="#Layer0_0_MEMBER_3_MEMBER_1_FILL"/>
</g>

<g transform="matrix( 7, 0, 0, 7, -796.8,-1517.35) ">
<use xlink:href="#Layer0_0_MEMBER_3_MEMBER_2_FILL"/>
</g>

<g transform="matrix( 7, 0, 0, 7, -796.8,-1517.35) ">
<use xlink:href="#Layer0_0_MEMBER_3_MEMBER_3_FILL"/>
</g>

<g transform="matrix( 7, 0, 0, 7, -796.8,-1517.35) ">
<use xlink:href="#Layer0_0_MEMBER_4_FILL"/>
</g>

<g transform="matrix( 7, 0, 0, 7, -796.8,-1517.35) ">
<use xlink:href="#Layer0_0_MEMBER_5_FILL"/>
</g>
</svg>
