
<svg xmlns="http://www.w3.org/2000/svg" version="1.1" xmlns:xlink="http://www.w3.org/1999/xlink" preserveAspectRatio="none" x="0px" y="0px" width="1024px" height="1024px" viewBox="0 0 1024 1024">
<defs>
<linearGradient id="Gradient_1" gradientUnits="userSpaceOnUse" x1="403.825" y1="302.4875" x2="406.97499999999997" y2="298.71250000000003" spreadMethod="pad">
<stop  offset="16.07843137254902%" stop-color="#030303"/>

<stop  offset="16.470588235294116%" stop-color="#2B2924"/>

<stop  offset="56.07843137254902%" stop-color="#2B2924"/>

<stop  offset="56.07843137254902%" stop-color="#434038"/>

<stop  offset="87.45098039215686%" stop-color="#434038"/>

<stop  offset="87.45098039215686%" stop-color="#434038"/>
</linearGradient>

<linearGradient id="Gradient_2" gradientUnits="userSpaceOnUse" x1="413.3125" y1="301.71250000000003" x2="414.6875" y2="303.4875" spreadMethod="pad">
<stop  offset="16.07843137254902%" stop-color="#424242"/>

<stop  offset="16.470588235294116%" stop-color="#4F4F4F"/>

<stop  offset="56.07843137254902%" stop-color="#4F4F4F"/>

<stop  offset="56.07843137254902%" stop-color="#737373"/>

<stop  offset="87.45098039215686%" stop-color="#737373"/>

<stop  offset="87.45098039215686%" stop-color="#636363"/>
</linearGradient>

<linearGradient id="Gradient_3" gradientUnits="userSpaceOnUse" x1="413.33750000000003" y1="301.5125" x2="414.8625" y2="303.4875" spreadMethod="pad">
<stop  offset="16.07843137254902%" stop-color="#383838"/>

<stop  offset="16.470588235294116%" stop-color="#4F4F4F"/>

<stop  offset="56.07843137254902%" stop-color="#4F4F4F"/>

<stop  offset="56.07843137254902%" stop-color="#919191"/>

<stop  offset="87.45098039215686%" stop-color="#919191"/>

<stop  offset="87.45098039215686%" stop-color="#828282"/>
</linearGradient>

<linearGradient id="Gradient_4" gradientUnits="userSpaceOnUse" x1="416.16249999999997" y1="299.96250000000003" x2="417.1375" y2="301.2375" spreadMethod="pad">
<stop  offset="16.07843137254902%" stop-color="#525252"/>

<stop  offset="16.470588235294116%" stop-color="#7A7A7A"/>

<stop  offset="56.07843137254902%" stop-color="#7A7A7A"/>

<stop  offset="56.07843137254902%" stop-color="#A5A5A5"/>

<stop  offset="87.45098039215686%" stop-color="#A5A5A5"/>

<stop  offset="87.45098039215686%" stop-color="#969696"/>
</linearGradient>

<linearGradient id="Gradient_5" gradientUnits="userSpaceOnUse" x1="418.3625" y1="297.925" x2="419.6375" y2="299.575" spreadMethod="pad">
<stop  offset="16.07843137254902%" stop-color="#383838"/>

<stop  offset="16.470588235294116%" stop-color="#4F4F4F"/>

<stop  offset="56.07843137254902%" stop-color="#4F4F4F"/>

<stop  offset="56.07843137254902%" stop-color="#919191"/>

<stop  offset="87.45098039215686%" stop-color="#919191"/>

<stop  offset="87.45098039215686%" stop-color="#828282"/>
</linearGradient>

<g id="Layer0_0_MEMBER_0_FILL">
<path fill="#CCC0BC" stroke="none" d="
M 43.2 8.35
L 43.2 8.3
Q 43.1 4.9 38.95 2.45 34.7 0 28.75 0 22.8 0 18.55 2.4 15.45 4.25 14.65 6.7 8.5 6.6 4.15 9.1 -0.1 11.6 0 15
L 0 15.05
Q 0.1 18.45 4.25 20.85 8.5 23.3 14.45 23.35 20.4 23.35 24.6 20.9 26.85 19.6 27.95 17.8
L 36.5 21.4 41.5 18 35.9 15.55
Q 37.6 15 39 14.2 43.2 11.8 43.2 8.35 Z"/>
</g>

<g id="Layer0_0_MEMBER_1_FILL">
<path fill="#757575" stroke="none" d="
M 432.9 312.2
L 421.8 318.65 421.8 322.45 432.9 316 432.9 312.2 Z"/>
</g>

<g id="Layer0_0_MEMBER_2_FILL">
<path fill="#4A4343" stroke="none" d="
M 421.8 318.65
L 416.75 315.75 416.75 319.5 421.8 322.45 421.8 318.65 Z"/>
</g>

<g id="Layer0_0_MEMBER_3_FILL">
<path fill="#9A9A9A" stroke="none" d="
M 416.75 315.75
L 421.8 318.65 432.9 312.2 427.8 309.25 416.75 315.75 Z"/>
</g>

<g id="Layer0_0_MEMBER_4_FILL">
<path fill="#9A9A9A" stroke="none" d="
M 405.65 324
L 410.7 326.95 421.8 320.5 416.75 317.55 405.65 324 Z"/>
</g>

<g id="Layer0_0_MEMBER_5_MEMBER_0_FILL">
<path fill="#2F2720" stroke="none" d="
M 404.3 302.1
L 403.7 303.45 403.7 305.2 404.1 305.6
Q 404.6 306 405.1 306.15 405.95 306.4 407.4 306.4
L 411.9 307.75
Q 413 308.15 414.9 307.9 415.45 306.7 415.05 306.25 413.6 304.95 411.55 304.35 410.6 304.1 410.1 303.85
L 409.8 303.6 404.3 302.1 Z"/>
</g>

<g id="Layer0_0_MEMBER_5_MEMBER_1_FILL">
<path fill="#3761A1" stroke="none" d="
M 411.85 294
Q 412 289.4 411.45 288.55
L 406.25 281.95
Q 405.55 281.2 404.5 279.6
L 403.65 278.1
Q 402.8 277.55 401.5 277 399 275.95 396.95 276.15 394.6 276.4 393.4 278.3 392.2 280.15 393 281.95
L 393.75 282.95
Q 394.65 284.05 395.5 284.75 396.05 285.2 398.65 288.05 401 290.65 401.7 291.1 402.95 291.95 404.25 292.95 404.65 296.35 404.6 296.55
L 404 302.6
Q 404 302.75 404.95 303.55 405.9 304.4 406.45 304.5 406.9 304.55 408.15 304.7 409.25 304.8 409.65 304.55 410.15 304.25 410.35 302.8
L 410.35 302.75 411.85 294 Z"/>
</g>

<g id="Layer0_0_MEMBER_5_MEMBER_2_FILL">
<path fill="#17377A" stroke="none" d="
M 13.55 5.8
Q 12.85 5.05 11.8 3.45
L 10.95 1.95
Q 10.1 1.4 8.8 0.85 6.3 -0.2 4.25 0 1.9 0.25 0.7 2.15 -0.5 4 0.3 5.8 1.45 7.5 2.8 8.6 3.35 9.05 5.95 11.9 8.3 14.5 9 14.95
L 11.55 16.8
Q 11.95 20.2 11.9 20.4
L 11.3 26.45
Q 11.3 26.6 12.25 27.4 13.2 28.25 13.75 28.35 14.2 28.4 15.45 28.55
L 15.45 26.35 14.2 22.75
Q 13.6 20 13.05 17.15 11.85 11.5 11.85 11.05 11.85 10.2 12.9 10.2 13.05 10.2 13.45 9.8 13.75 9.4 13.9 9.15 14.35 8.6 14.9 7.35
L 13.55 5.8 Z"/>
</g>

<g id="Layer0_0_MEMBER_5_MEMBER_3_FILL">
<path fill="#17377A" stroke="none" d="
M 1.1 16.5
L 2.6 7.75
Q 2.75 3.15 2.2 2.3
L 0.55 0 0 1.55 1.5 10.05 1.1 16.5 Z"/>
</g>

<g id="Layer0_0_MEMBER_5_MEMBER_4_MEMBER_0_MEMBER_0_MEMBER_0_FILL">
<path fill="#909090" stroke="none" d="
M 415.95 309.05
L 415.9 309.05 414.75 308.65 414.2 308.85 415.25 309.9 415.15 310.15 413.65 310.65 415 311 415.05 311.85 414.5 312.8 415.3 312.95
Q 415.3 313.05 415.1 314.2 414.9 315.35 414.95 315.5
L 415.5 315.3 416.15 314.95 416.2 315.05 416.25 315.05 416.25 315.1 416.5 315.5 416.6 317.7 417.15 317.5 417.15 317.45 417.2 317.35 417.2 317.3 417.25 317.25 417.25 317.15 417.3 317.1 417.3 317.05 417.35 316.95 417.35 316.9 417.4 316.85 417.4 316.8 417.45 316.75 417.5 316.8 417.55 316.8 417.55 316.85 417.6 316.85 417.6 316.9 417.8 317.1
Q 417.9 317.2 418.5 319.2
L 419.05 319 419.05 318.9 419 318.8 419 318.1 419.05 318.1 419.1 318.15 419.15 318.15 419.2 318.2 419.25 318.2 419.3 318.25 419.35 318.25 419.4 318.3 419.45 318.3 419.45 318.35 419.5 318.35 419.55 318.4
Q 419.6 318.4 419.95 319.1 420.25 319.75 420.35 319.75
L 420.9 319.55 420.85 319.45 420.8 319.4 420.8 319.3 420.75 319.2 420.75 319.15 420.65 318.95 420.65 318.9 420.6 318.8 420.6 318.7 420.65 318.7 420.7 318.75 421.2 318.75 421.35 318.7 421.4 318.7 421.95 319.4 422.5 319.2 422 318.45 422.1 318.35 422.15 318.35 422.15 318.3 422.3 318.15 422.3 318.1 422.35 318.1 422.4 318.05 422.6 317.65 422.9 317.8 423.45 317.6 422.8 317 422.8 316.75 422.85 316.7 422.85 316.4 423.55 316.05 422.8 315.65 422.8 315.5 422.75 315.5 422.75 315.25 422.7 315.1 422.7 315 422.65 314.95 422.65 314.8 422.6 314.75 422.6 314.65 422.55 314.6 422.55 314.45 423 313.55 422.2 313.6 422.2 313.5 422.15 313.5 422.15 313.45 422.1 313.3 421.75 312.6 421.6 312.45 421.5 312.25 421.45 310.8 420.9 311.05 420.85 311.3 420.65 311.1 420.6 311 420.5 310.9 420.45 310.8 420.4 310.8 420.4 310.75 420.35 310.7 420.25 310.65 419.6 308.9 419.05 309.1 419.1 309.6 419.05 309.6 419.05 309.55 418.75 309.4 417.75 307.95 417.2 308.15 417.35 308.8 417.25 308.8 416 307.75 415.45 308 416.1 308.95 416.05 308.95 416.05 309 415.95 309 415.95 309.05 Z"/>
</g>

<g id="Layer0_0_MEMBER_5_MEMBER_4_MEMBER_0_MEMBER_0_MEMBER_1_FILL">
<path fill="#E3E3E3" stroke="none" d="
M 415.4 309.25
L 415.35 309.25 414.2 308.85 414.9 309.75 414.7 310.05 414.6 310.35 413.65 310.65 414.45 311.2 414.5 312.05 413.95 313 414.75 313.15 415.05 314 414.95 315.3 414.95 315.5 415.1 315.4 415.6 315.15 415.65 315.25 415.65 315.3 415.7 315.3 415.95 315.7 416.05 315.9 416.6 317.7 416.6 317.65 416.65 317.55 416.65 317.5 416.7 317.45 416.7 317.4 416.75 317.3 416.75 317.25 416.8 317.2 416.8 317.15 416.85 317.05 416.85 317 416.9 316.95 416.95 317 416.95 317.05 417 317.05 417.1 317.15 417.1 317.2 417.15 317.2 417.15 317.25 417.2 317.25 417.2 317.3 417.25 317.3 417.55 317.6 418.45 319.1 418.45 318.3 418.5 318.35 418.55 318.35 418.6 318.4 418.65 318.4 418.7 318.45 418.75 318.45 418.8 318.5 418.85 318.5 418.85 318.55 418.9 318.55 418.95 318.6 419 318.6 419.35 318.75 420.3 319.7 420.25 319.6 420.25 319.5 420.2 319.45 420.2 319.35 420.15 319.25 420.1 319.2 420.1 319.1 420.05 319 420.05 318.95 420.6 318.95 420.8 318.9 420.95 318.9 421 318.85 421.95 319.4 421.45 318.65 421.55 318.55 421.6 318.55 421.6 318.5 421.65 318.5 421.65 318.45 421.7 318.45 421.7 318.4 421.8 318.3 421.8 318.25 422.1 317.8 422.9 317.8 422.25 317.25 422.25 316.9 422.3 316.9 422.3 316.6 423 316.25 422.25 315.85 422.25 315.75 422.2 315.7 422.2 315.5 422.15 315.45 422.15 315.25 422.1 315.2 422.1 315.05 422.05 315 422.05 314.85 422 314.8 422 314.7 422.45 313.8 421.65 313.8 421.65 313.75 421.6 313.7 421.6 313.65 421.55 313.55 421.55 313.5 421.5 313.45 421.45 313.3 421.3 313 421.15 312.85 421 312.55 420.95 312.5 420.9 311.05 420.45 311.7 420.35 311.6 420.3 311.5 420.1 311.3 420.05 311.2 419.85 311 419.85 310.95 419.8 310.95 419.7 310.85 419.05 309.1 418.9 310.1 418.9 310.05 418.75 310 418.65 309.9 418.55 309.85 418.45 309.75 418.4 309.75 418.4 309.7 418.2 309.6 417.2 308.15 417.35 309.2 417.15 309.1 417 309.1 416.95 309.05 416.8 309.05 416.75 309 416.65 309 415.45 308 415.95 309.05 415.9 309.05 415.75 309.1 415.65 309.1 415.65 309.15 415.55 309.15 415.5 309.2 415.45 309.2 415.4 309.25 Z"/>
</g>

<g id="Layer0_0_MEMBER_5_MEMBER_4_MEMBER_0_MEMBER_0_MEMBER_2_FILL">
<path fill="#CFCFCF" stroke="none" d="
M 421.9 316.4
Q 421.95 314.85 420.95 313.05 419.95 311.25 418.5 310.25 417.05 309.25 416 309.6 414.9 310 414.9 311.55 414.85 313.1 415.85 314.9 416.85 316.7 418.25 317.7 419.7 318.75 420.8 318.35 421.85 317.95 421.9 316.4 Z"/>
</g>

<g id="Layer0_0_MEMBER_5_MEMBER_4_MEMBER_0_MEMBER_0_MEMBER_3_FILL">
<path fill="#BABABA" stroke="none" d="
M 415.85 312.05
Q 415.8 312.9 416.2 313.95
L 418.05 316.5
Q 419.25 317.45 420.1 317.15 420.45 317 420.55 316.8
L 419.7 315.6
Q 419.6 315.8 419.4 315.85 418.95 316 418.35 315.55 417.7 315.15 417.3 314.35 416.9 313.6 416.9 312.95 416.9 312.3 417.35 312.1
L 416.5 310.9
Q 415.95 311.2 415.85 312.05 Z"/>
</g>

<g id="Layer0_0_MEMBER_5_MEMBER_4_MEMBER_0_MEMBER_1_FILL">
<path fill="#BABABA" stroke="none" d="
M 420.55 316.8
Q 420.95 316.3 420.9 315.35 420.8 314.4 420.25 313.3 419.5 312 418.45 311.25 417.4 310.55 416.65 310.8
L 416.5 310.9 420.55 316.8 Z"/>
</g>

<g id="Layer0_0_MEMBER_5_MEMBER_4_MEMBER_0_MEMBER_2_FILL">
<path fill="#CFCFCF" stroke="none" d="
M 419.7 315.6
Q 420.2 314.9 419.45 313.6 419.05 312.8 418.4 312.4 417.8 311.95 417.35 312.1
L 419.7 315.6 Z"/>
</g>

<g id="Layer0_0_MEMBER_5_MEMBER_4_MEMBER_0_MEMBER_3_MEMBER_0_FILL">
<path fill="#6E6E6E" stroke="none" d="
M 418.35 313.15
Q 417.55 312.6 417.45 313.45 417.35 314.25 418.2 314.9 419 315.45 419.1 314.6 419.2 313.8 418.35 313.15 Z"/>
</g>

<g id="Layer0_0_MEMBER_5_MEMBER_4_MEMBER_0_MEMBER_3_MEMBER_1_FILL">
<path fill="#595959" stroke="none" d="
M 418.1 313.05
L 417.75 313.7
Q 418.1 314.55 418.2 314.65
L 419 314.9 419.1 314.6
Q 419.2 313.8 418.35 313.15
L 418.1 313.05 Z"/>
</g>

<g id="Layer0_0_MEMBER_5_MEMBER_4_MEMBER_0_MEMBER_3_MEMBER_2_FILL">
<path fill="#7F7F7F" stroke="none" d="
M 418 314.3
Q 418.55 314.25 419.05 314.3 418.95 313.85 418.8 313.65 418.35 313.9 417.85 313.95
L 418 314.3 Z"/>
</g>

<g id="Layer0_0_MEMBER_5_MEMBER_4_MEMBER_0_MEMBER_3_MEMBER_3_FILL">
<path fill="#595959" stroke="none" d="
M 417.65 313.5
Q 417.45 313.55 417.45 313.8 417.35 314.4 417.95 314.8 418.2 315 418.35 314.95 418.55 314.85 418.6 314.6 418.6 313.9 418.05 313.6 417.85 313.4 417.65 313.5 Z"/>
</g>

<g id="Layer0_0_MEMBER_5_MEMBER_4_MEMBER_0_MEMBER_3_MEMBER_4_FILL">
<path fill="#818181" stroke="none" d="
M 417.95 313.9
Q 417.6 313.75 417.6 314 417.5 314.35 417.9 314.55 418.2 314.85 418.2 314.45 418.3 314.25 417.95 313.9 Z"/>
</g>

<g id="Layer0_0_MEMBER_5_MEMBER_4_MEMBER_1_FILL">
<path fill="#424242" stroke="none" d="
M 402.25 296.85
L 402.25 296.9 404 298.75 404.1 299.15
Q 404.65 300.75 405.8 301.5
L 415 308.25 411.5 303 410.7 300.15 404.8 296.1
Q 404.2 295.75 403.75 296.05
L 402.25 296.85
M 407.8 302.55
L 405.65 301.1
Q 404.85 300.6 404.5 299.45
L 407.75 301.7 407.8 302.55 Z"/>
</g>

<g id="Layer0_0_MEMBER_5_MEMBER_4_MEMBER_2_FILL">
<path fill="#34312C" stroke="none" d="
M 402.25 296.85
L 402.25 296.9
Q 401.5 297.25 401.75 298.35
L 402.1 299.8
Q 402.6 301.65 403.95 302.55
L 413.1 309.25 412.85 308.1 409.9 304.3 409.1 301.05 403.2 297
Q 402.75 296.65 402.25 296.85
M 407.8 302.55
L 405.65 301.1
Q 404.85 300.6 404.5 299.45
L 407.75 301.7 407.8 302.55 Z"/>
</g>

<g id="Layer0_0_MEMBER_5_MEMBER_4_MEMBER_3_FILL">
<path fill="#FFFEFE" stroke="none" d="
M 402.8 298.5
L 402.75 298.65 403.1 300.1
Q 403.45 301.35 404.35 301.95
L 409.25 305.3 408.45 302.15 407.75 301.7 407.8 302.55 405.65 301.1
Q 404.85 300.6 404.5 299.45
L 403 298.4 402.95 298.4
Q 402.9 298.35 402.8 298.45
L 402.8 298.5 Z"/>
</g>

<g id="Layer0_0_MEMBER_5_MEMBER_4_MEMBER_4_FILL">
<path fill="url(#Gradient_1)" stroke="none" d="
M 402.8 298.5
L 402.75 298.65 403.1 300.1
Q 403.45 301.35 404.35 301.95
L 409.25 305.3 408.7 303.2 405.65 301.1
Q 404.85 300.6 404.5 299.45
L 403 298.4 402.95 298.4
Q 402.9 298.35 402.8 298.45
L 402.8 298.5 Z"/>
</g>

<g id="Layer0_0_MEMBER_5_MEMBER_4_MEMBER_5_FILL">
<path fill="#0A0A09" stroke="none" d="
M 402.8 298.45
L 402.8 298.5 403.6 299.8
Q 404.5 301.1 404.85 301.35
L 408.95 304.15 408.7 303.2 405.65 301.1
Q 404.85 300.6 404.5 299.45
L 403 298.4 402.95 298.4
Q 402.9 298.35 402.8 298.45 Z"/>
</g>

<g id="Layer0_0_MEMBER_5_MEMBER_4_MEMBER_6_FILL">
<path fill="#B9731A" stroke="none" d="
M 420.65 311
L 417.25 307.2 416.5 311.3 416.65 313.45 420.65 311 Z"/>
</g>

<g id="Layer0_0_MEMBER_5_MEMBER_4_MEMBER_7_FILL">
<path fill="#E4A22B" stroke="none" d="
M 408.2 300.85
L 409.25 301 411.95 299.45 411.85 299.35
Q 411.35 298.95 410.85 299.35
L 408.2 300.85 Z"/>
</g>

<g id="Layer0_0_MEMBER_5_MEMBER_4_MEMBER_8_FILL">
<path fill="#FAA83D" stroke="none" d="
M 407.8 303.4
L 407.85 303.75 416.5 311.3 417.25 307.2 409.3 301.05 409.25 301
Q 409.1 300.9 408.7 300.75
L 408.3 300.85 408.2 300.85
Q 407.8 301.15 407.75 301.7
L 407.8 303.4 Z"/>
</g>

<g id="Layer0_0_MEMBER_5_MEMBER_4_MEMBER_9_FILL">
<path fill="#EE9124" stroke="none" d="
M 416.65 313.45
L 416.5 311.3 407.85 303.55 407.9 304.6
Q 408 305.95 408.9 306.7
L 416.65 313.45 Z"/>
</g>

<g id="Layer0_0_MEMBER_5_MEMBER_4_MEMBER_10_MEMBER_0_FILL">
<path fill="#14181A" stroke="none" d="
M 423.5 314.35
L 423.35 312.2 420.6 313.65 420.75 315.85 423.5 314.35 Z"/>
</g>

<g id="Layer0_0_MEMBER_5_MEMBER_4_MEMBER_10_MEMBER_1_FILL">
<path fill="#383D3F" stroke="none" d="
M 420.75 315.85
L 420.6 313.65 416.9 311.1 417.05 313.25 420.75 315.85 Z"/>
</g>

<g id="Layer0_0_MEMBER_5_MEMBER_4_MEMBER_11_FILL">
<path fill="#292E30" stroke="none" d="
M 423.35 312.2
L 421.25 307.9 419.1 309 420.6 313.65 423.35 312.2 Z"/>
</g>

<g id="Layer0_0_MEMBER_5_MEMBER_4_MEMBER_12_FILL">
<path fill="#65696B" stroke="none" d="
M 421.25 307.9
L 419.9 305.65 417.25 307.2 419.1 309 421.25 307.9 Z"/>
</g>

<g id="Layer0_0_MEMBER_5_MEMBER_4_MEMBER_13_FILL">
<path fill="#FDCB58" stroke="none" d="
M 419.9 305.65
L 411.95 299.45 409.25 301 417.25 307.2 419.9 305.65 Z"/>
</g>

<g id="Layer0_0_MEMBER_5_MEMBER_4_MEMBER_14_FILL">
<path fill="#464A4D" stroke="none" d="
M 420.6 313.65
L 419.1 309 417.25 307.2 416.9 311.1 420.6 313.65 Z"/>
</g>

<g id="Layer0_0_MEMBER_5_MEMBER_5_FILL">
<path fill="#FBC7AC" stroke="none" d="
M 413.85 284.2
L 414.2 279.1
Q 414.2 278.8 413.6 278.15
L 413 277.55
Q 411.15 276.25 410.1 277
L 409.4 280.45
Q 409.25 281.15 409.15 283.8 409.05 286 409.05 286.7 409.05 287.15 409.5 288.85 410.05 290.75 410.55 291.75 411.3 293.25 413.95 298.5 413.95 298.6 414.05 299.3 414.1 299.9 414.25 300.2 414.35 300.45 415.1 301.1
L 415.95 301.65
Q 417.85 301.2 418.2 300.8 418.5 300.45 418.3 299.05
L 416.4 297.3 415.2 293.7
Q 415 293.05 414.85 291.35 414.65 289.45 414.55 288.65 414.5 288 414.15 286.2 413.8 284.75 413.85 284.2 Z"/>
</g>

<g id="Layer0_0_MEMBER_5_MEMBER_6_FILL">
<path fill="#F9D3BF" stroke="none" d="
M 6.6 19.25
Q 7 20.2 7.35 20.55
L 6.15 16.95 6.6 19.25 Z"/>

<path fill="#F5A480" stroke="none" d="
M 1.05 0.25
L 0.35 3.7
Q 0.2 4.4 0.1 7.05 0 9.25 0 9.95 0 10.4 0.45 12.1 1 14 1.5 15 2.25 16.5 4.9 21.75 4.9 21.85 5 22.55 5.05 23.15 5.2 23.45 5.3 23.7 6.05 24.35
L 7.9 23.35 6.15 22.8 5.8 21.8
Q 5.45 22.05 5.3 21.8
L 3.65 18.25
Q 2.35 15.9 1.5 13.8 1.25 13.2 1.15 12.1 1 10.95 1.2 10.65 1.35 10.4 2.2 9.9 3.1 9.4 3.15 9.35
L 1.5 9.95
Q 1.1 10.15 0.8 9.55 0.5 9 0.6 8.3 0.95 5.35 0.85 4.5 0.85 4.2 1.35 3.6 1.55 3.3 1.8 3.05
L 2.35 4.3 4 6.05 5.95 15.9
Q 5.8662109375 15.3509765625 5.8 14.6 5.6 12.7 5.5 11.9 5.45 11.25 5.1 9.45 4.75 8 4.8 7.45
L 5.15 2.35
Q 5.15 1.9 3.95 0.8 2.1 -0.5 1.05 0.25 Z"/>
</g>

<g id="Layer0_0_MEMBER_5_MEMBER_7_FILL">
<path fill="#492728" stroke="none" d="
M 420.5 298.3
Q 420.5 297.4 419.65 297.4
L 414.8 301.1 414.65 301.75
Q 414.5 302.4 414.65 302.55 414.95 302.9 415.6 302.75
L 420.3 299.2
Q 420.5 298.75 420.5 298.3 Z"/>
</g>

<g id="Layer0_0_MEMBER_5_MEMBER_8_MEMBER_0_MEMBER_0_FILL">
<path fill="url(#Gradient_2)" stroke="none" d="
M 413.15 301.8
Q 412.7 302.25 413.35 303.05 413.6 303.4 413.95 303.5 414.25 303.65 414.45 303.5
L 415.3 302.95
Q 414.5 302.05 413.95 301.25
L 413.15 301.8 Z"/>
</g>

<g id="Layer0_0_MEMBER_5_MEMBER_8_MEMBER_0_MEMBER_1_FILL">
<path fill="#6D6D6D" stroke="none" d="
M 414.75 301.95
Q 414.25 301.25 413.85 301.55 413.45 301.85 414 302.55 414.5 303.25 414.9 302.95 415.3 302.65 414.75 301.95 Z"/>
</g>

<g id="Layer0_0_MEMBER_5_MEMBER_8_MEMBER_1_MEMBER_0_FILL">
<path fill="url(#Gradient_3)" stroke="none" d="
M 413.45 301.45
Q 412.9 301.9 413.65 302.85 414.4 303.8 414.9 303.35
L 415.3 303.05 413.75 301.2 413.45 301.45 Z"/>
</g>

<g id="Layer0_0_MEMBER_5_MEMBER_8_MEMBER_1_MEMBER_1_FILL">
<path fill="#6D6D6D" stroke="none" d="
M 415.05 301.7
Q 414.35 300.8 413.8 301.15 413.55 301.35 413.6 301.75 413.65 302.2 414 302.55 414.7 303.55 415.25 303.1 415.8 302.65 415.05 301.7 Z"/>
</g>

<g id="Layer0_0_MEMBER_5_MEMBER_8_MEMBER_2_MEMBER_0_FILL">
<path fill="url(#Gradient_4)" stroke="none" d="
M 414.1 301.55
Q 413.7 301.85 414.25 302.45 414.7 303 415.05 302.75
L 419.45 299.3 418.5 298.1 414.1 301.55 Z"/>
</g>

<g id="Layer0_0_MEMBER_5_MEMBER_8_MEMBER_3_MEMBER_0_FILL">
<path fill="url(#Gradient_5)" stroke="none" d="
M 418.45 297.85
Q 418 298.2 418.6 299 419.2 299.8 419.65 299.45
L 420 299.25 418.7 297.65 418.45 297.85 Z"/>
</g>

<g id="Layer0_0_MEMBER_5_MEMBER_8_MEMBER_3_MEMBER_1_FILL">
<path fill="#6D6D6D" stroke="none" d="
M 419.8 298.1
Q 419.15 297.3 418.7 297.65 418.25 298 418.9 298.8 419.5 299.6 419.95 299.25 420.4 298.9 419.8 298.1 Z"/>
</g>

<g id="Layer0_0_MEMBER_5_MEMBER_9_FILL">
<path fill="#FBC7AC" stroke="none" d="
M 417.6 300.35
Q 417.15 300.35 417.15 300.6
L 417.1 301 417.1 301.1 416.95 301.15 416.8 301.15
Q 416.35 300.9 416.1 300.9 415.75 300.9 415.75 301.2
L 415.75 301.25 415.8 301.4 415.8 301.45 415.3 301.65 415.3 301.8 415.35 302.1 414.95 302.45
Q 414.95 302.55 415.5 302.8
L 415.55 302.8 416.3 302.55
Q 417.1 302.65 417.25 302.4
L 417.35 302.1
Q 417.95 302.05 418.05 301.9
L 418.2 301.65 419.1 301.25
Q 419.25 301.1 419.45 300.4
L 419.65 299.7 419.1 300.15 419.05 300.15 418.65 300.5
Q 418 300.35 417.6 300.35 Z"/>
</g>

<g id="Layer0_0_MEMBER_5_MEMBER_10_FILL">
<path fill="#F6562A" stroke="none" d="
M 414.2 279.8
Q 415.45 278.15 415.5 275.55 415.55 274.35 414.1 272.6
L 412.65 271.1 409.7 274.95 409.65 276.2
Q 409.65 277.5 409.85 277.75 411.45 279.9 412.25 279.95 413.05 280.05 414.2 279.8 Z"/>
</g>

<g id="Layer0_0_MEMBER_5_MEMBER_11_FILL">
<path fill="#F5A480" stroke="none" d="
M 4.15 0.7
L 4.35 0 3.8 0.45 3.6 1.05 2.8 1.55 1.8 1.3 1.8 1.4 1.65 1.45 2.5 1.95 2.05 2.25
Q 1.95 2.3 1.4 2.05
L 0.45 1.55 0.5 1.7 0.5 1.75 1.75 2.55 1.25 2.7 0 2.1 0.75 2.85 0.25 3.05 0.2 3.1 0.25 3.1 1 2.85
Q 1.8 2.95 1.95 2.7
L 2.05 2.4
Q 2.65 2.35 2.75 2.2
L 2.9 1.95 3.8 1.55
Q 3.95 1.4 4.15 0.7 Z"/>
</g>

<g id="Layer0_0_MEMBER_5_MEMBER_12_FILL">
<path fill="#FED6C1" stroke="none" d="
M 418.55 298.3
Q 418.6 298.25 417.9 297.75
L 417.35 297.4
Q 416.6 297.25 416.15 297.4 416 297.4 415.45 297.65 414.9 297.95 414.85 298.2 414.8 298.5 415.15 298.9 415.5 299.4 415.85 299.3 416.4 299.15 416.8 298.3
L 417.6 298.65 418.25 298.7
Q 418.65 298.6 418.55 298.3 Z"/>
</g>

<g id="Layer0_0_MEMBER_5_MEMBER_13_FILL">
<path fill="#2F2720" stroke="none" d="
M 385.65 317.25
Q 385.2 316.7 384.8 315.55
L 384.55 314.5
Q 384.35 312.9 381.85 312.85
L 379.4 313.1 379.4 314.7 380.15 316.35
Q 380.15 316.45 381.25 319.2 381.5 319.6 382.1 320 382.85 320.45 383.75 320.55 384.6 320.6 385.5 320.4 386.25 320.25 386.5 320 386.75 319.8 386.45 318.9 386.2 317.95 385.65 317.25 Z"/>
</g>

<g id="Layer0_0_MEMBER_5_MEMBER_14_FILL">
<path fill="#3761A1" stroke="none" d="
M 381.05 282.55
Q 381.35 283.8 382.95 293.5 383 293.6 381 301.35 380.45 303.7 380.05 309.35 380 309.6 379.35 310.95 378.7 312.15 378.7 312.7 378.7 313.3 379.15 314.2
L 379.4 314.7 380.15 315.15
Q 381.05 315.55 381.6 315.55
L 384.4 315.35 385.3 315.2
Q 386.95 311.3 387.05 310.35 389.3 298.3 389.5 296.9
L 389.6 296.3
Q 390.85 288.95 391.1 288
L 392.5 284.2 394.55 282.3
Q 394.95 281.85 395.5 278.4 394 275.95 389.5 274.05 385 272.1 382.8 273.05 382.4 273.25 382 273.7 380.8 275.45 380.7 278.7 380.7 280.8 381.05 282.55 Z"/>
</g>

<g id="Layer0_0_MEMBER_5_MEMBER_15_FILL">
<path fill="#17377A" stroke="none" d="
M 3.75 11.95
Q 3.2 8.1 3.25 6.95 3.3 5.15 4.55 0.7
L 4.1 0
Q 3.7 0.2 3.3 0.65 2.1 2.4 2 5.65 2 7.75 2.35 9.5 2.65 10.75 4.25 20.45 4.3 20.55 2.3 28.3 1.75 30.65 1.35 36.3 1.3 36.55 0.65 37.9 0 39.1 0 39.65 0 40.25 0.45 41.15 0.55 40.4 0.7 40.05
L 1.75 39.2
Q 1.95 34.3 2.2 32.85 2.3 32.45 3.35 28.45 4.3 24.9 4.35 24.05
L 4.8 19.4 5.45 19.4
Q 4.75 17.55 4.55 16.45 4.25 15.15 3.75 11.95 Z"/>
</g>

<g id="Layer0_0_MEMBER_5_MEMBER_16_FILL">
<path fill="#17377A" stroke="none" d="
M 5.1 0.6
L 5.2 0
Q 4.6 0.7 4.35 0.85 3.45 1.5 1.45 1.1
L 2.2 4.95
Q 2.3 5.6 1.75 8
L 1.95 9.05
Q 2.15 8.8 2.35 8.6 2.75 8.25 2.7 8.45
L 1.1 12.95 1.1 14 2.4 11.7 1.1 16.55
Q 1.05 17 0.6 17.9 0.05 18.85 0 19.05
L 0.9 18.9
Q 2.55 15 2.65 14.05 4.9 2 5.1 0.6 Z"/>
</g>

<g id="Layer0_0_MEMBER_5_MEMBER_17_FILL">
<path fill="#D5A856" stroke="none" d="
M 408.95 306.05
L 408.95 305.8
Q 408.75 306 408.4 306 408.1 306 408.05 305.95 408.2 306.6 408.35 306.6 408.5 306.6 408.95 306.05 Z"/>
</g>

<g id="Layer0_0_MEMBER_5_MEMBER_18_FILL">
<path fill="#F6562A" stroke="none" d="
M 415.75 272.8
Q 416.65 271.7 415.05 269.75
L 413.25 268
Q 408.1 265 405.55 264.5 403.2 264.05 399.7 264.05 395.45 264.05 392.4 264.85 388.45 265.9 386.35 267.1 384.25 268.35 382.9 270.25 381.6 272.15 381.25 274 381.1 275 381.1 275.8 381.05 276.05 381.5 276.25 381.8 276.35 382.35 276.5 382.8 276.65 383.7 277.2
L 387.1 279.1 388.9 279.65
Q 390.8 280.15 391.25 280.2 391.45 280.25 392.7 280.5 393.7 280.75 394.15 280.75 394.9 280.75 397.45 281.15
L 398.6 281.2
Q 399.9 281.25 400.5 281.15
L 401.5 280.95 401.55 280.95
Q 404.45 280.25 405.4 279.85 406.35 279.4 409.35 277.6 410.35 277.1 412.7 275.45 415.15 273.65 415.75 272.8 Z"/>
</g>

<g id="Layer0_0_MEMBER_5_MEMBER_19_FILL">
<path fill="#3761A1" stroke="none" d="
M 474.55 284.15
L 451.45 282.4 461.6 286.95
Q 472.45 292.55 477 298.5 482.95 305.85 486.1 325.8 488.9 345.75 485.4 354.85 482.6 362.55 454.25 373.4
L 426.25 382.5 440.95 392.65 451.45 390.9
Q 463.7 388.45 472.45 384.25 491.35 374.8 499.4 357.65 502.9 349.95 500.45 329.3 497.65 309.35 492.75 300.95 488.9 294.3 481.2 288.7
L 474.55 284.15 Z"/>
</g>

<g id="Layer0_0_MEMBER_5_MEMBER_20_FILL">
<path fill="#3761A1" stroke="none" d="
M 411.7 268.1
Q 412.55 267.8 412.35 267.7 411.45 267.15 409.95 266.55 406.9 265.3 403.05 264.75 399.2 264.2 395.4 264.45
L 392.4 264.85 389.75 265.6
Q 392 265.35 395.4 265.15 399.9 264.9 401.55 265.1 404.05 265.4 411.7 268.1 Z"/>
</g>

<g id="Layer0_0_MEMBER_5_MEMBER_21_FILL">
<path fill="#3761A1" stroke="none" d="
M 341.2 323.7
Q 342.25 316.35 348.55 303.75 333.85 312.5 324.4 325.8 315.3 339.1 312.85 352.05 311.8 359.05 311.8 364.65 311.45 366.4 314.6 367.8 316.7 368.5 320.55 369.55 323.7 370.6 330 374.45
L 353.8 387.75 366.4 391.6
Q 379.7 395.1 382.85 395.45 384.25 395.8 393 397.55 400 399.3 403.15 399.3 408.4 399.3 426.25 402.1
L 434.3 402.45
Q 443.4 402.8 447.6 402.1
L 454.6 400.7 427.65 383.2
Q 422.4 380.05 410.15 376.9
L 362.9 362.9
Q 355.9 360.8 347.85 345.05 340.5 330.7 341.2 323.7 Z"/>
</g>

<g id="Layer0_0_MEMBER_5_MEMBER_22_FILL">
<path fill="#FBC7AC" stroke="none" d="
M 406.55 295.5
Q 406.25 291.8 406.25 291.1 405.4 287.25 405.6 286.35 405.75 285.45 404.8 280.8 400.95 279.2 399.55 279.8 399.05 280.05 399.05 280.55
L 399.1 280.65
Q 399.95 284.35 400.55 285.9 401.05 287.35 401.8 289.4 401.8 289.95 402.05 291.8 402.3 293.95 402.55 295.1 402.75 296.05 403.6 298.65 404.3 300.9 404.3 301.1 404.25 301.5 403.45 303.8 403.45 304.15 403.95 304.85
L 404.45 305.05 405.15 305.7 405.55 305.7 405.75 305.95
Q 406 306.2 406.3 306.15
L 406.8 306.15 407.4 306.4
Q 407.75 306.5 407.95 306.25
L 408 305.9 408.05 305.95
Q 408.2 306.6 408.35 306.6 408.5 306.6 408.95 306.05
L 408.95 305.8
Q 408.8 304.55 408.95 304.3 409 304.15 409 303.65 409 303.15 408.95 303.05
L 408.15 301.6
Q 407.25 300.75 407.05 299.95 406.9 299.4 406.55 295.5 Z"/>
</g>

<g id="Layer0_0_MEMBER_5_MEMBER_23_FILL">
<path fill="#E43513" stroke="none" d="
M 472.45 384.25
Q 463.7 388.45 451.45 390.9
L 441.95 392.45 454.6 400.7 447.6 402.1
Q 453.55 401.4 464.75 398.25 477.35 394.75 481.9 392.65 488.55 389.85 509.55 377.25 516.9 373.4 532.65 362.2 502.2 354.85 502.55 356.6 502.9 359.05 493.8 368.85 492.8564453125 370.5484375 488.95 372.55 482.1283203125 379.4107421875 472.45 384.25
M 426.25 369.55
Q 426.25 372.5537109375 427.3 382.15
L 454.25 373.4
Q 457.446875 372.1765625 460.3 371
L 430.1 345.4
Q 426.25 365.35 426.25 369.55 Z"/>

<path fill="#333C45" stroke="none" d="
M 344.7 382.5
L 353.8 387.75 361.65 390.1
Q 367.73203125 391.8923828125 372.15 393.05 380.2357421875 395.26328125 382.85 395.45 384.25 395.8 393 397.55 400 399.3 403.15 399.3 408.75 399.3 426.25 402.1
L 434.3 402.45
Q 443.4 402.8 447.6 402.1
L 454.6 400.7 441.95 392.45 451.45 390.9
Q 463.7 388.45 472.45 384.25 482.1283203125 379.4107421875 488.95 372.55 485.6333984375 374.2646484375 480.15 376.2 478.75 377.25 464.4 374.45
L 460.3 371
Q 457.446875 372.1765625 454.25 373.4
L 427.3 382.15
Q 427.3732421875 382.5935546875 427.4 383.05 427.440234375 383.190625 427.45 383.3 427.69765625 385.5591796875 428 388.1 428.35 390.55 417.15 395.45
L 383.2 386.7
Q 351.35 382.85 350.3 383.2
L 344.7 382.5 Z"/>
</g>

<g id="Layer0_0_MEMBER_5_MEMBER_24_FILL">
<path fill="#F5A480" stroke="none" d="
M 0.5 0
Q 0 0.25 0 0.75
L 0.05 0.85
Q 0.9 4.55 1.5 6.1 2 7.55 2.75 9.6 2.75 10.15 3 12 3.25 14.15 3.5 15.3 3.7 16.25 4.55 18.85 5.25 21.1 5.25 21.3 5.2 21.7 4.4 24 4.4 24.35 4.9 25.05
L 5.4 25.25 6.1 25.9 6.5 25.9 6.7 26.15
Q 6.95 26.4 7.25 26.35
L 7.75 26.35 8.35 26.6
Q 8.7 26.7 8.9 26.45
L 8.95 26.1 9 26.15 9.1 25.65
Q 9.3 25.45 9.3 24.3
L 8.9 25.4
Q 8.8 25.7 8.35 25.9 7.95 25.75 7.7 25.75 7.25 26 6.8 25.85 6.5 25.75 6.45 25.6 6.45 25.45 6.4 25.4
L 5.15 24.8
Q 5 24.75 4.85 24.45 4.65 24.15 4.65 23.9 4.65 23.7 5.05 23.1
L 5.4 22.55
Q 5.6 21.05 4.5 17.2 3.4 13.35 3.15 10.95 3.05 10.6 3.2 10.2
L 3.35 9.85 3.8 10.95
Q 3.9 11.35 4.3 11.35 4.3 10.2 3.35 9.25 2.75 8.65 2.1 6.65 1.5 4.5 1.25 3.95 0.8 2.85 0.9 0.3
L 0.5 0 Z"/>
</g>

<g id="Layer0_0_MEMBER_5_MEMBER_25_FILL">
<path fill="#FD8839" stroke="none" d="
M 399.6 270.65
Q 399.2 271.05 398.8 271.6 398 272.7 397.95 273.35 397.9 274.45 397.95 277.35 398 277.45 398.35 279.1 398.75 280.85 399 281.25 399.35 281.75 400.55 282.25 401.85 282.8 402.7 282.7 403.9 282.55 405.15 281.4
L 404.9 279.6
Q 405 278.45 405 277.35 404.95 275.3 404.2 273.55 403.4 271.8 401.45 271.05
L 399.6 270.65 Z"/>
</g>

<g id="Layer0_0_MEMBER_5_MEMBER_26_FILL">
<path fill="#FBC7AC" stroke="none" d="
M 415 269.5
L 412.6 266.35
Q 410.9 267.2 410.4 267.8 409.55 268.8 409.25 270.15 408.65 273.3 409 274.05 409.2 274.55 411.05 274.8
L 413.05 275.4
Q 415.3 275.7 416.25 274.3 417.2 272.95 415 269.5 Z"/>
</g>

<g id="Layer0_0_MEMBER_5_MEMBER_27_FILL">
<path fill="#FBC7AC" stroke="none" d="
M 417 266.3
L 414.45 264.75
Q 411.9 266.2 411.25 266.9 410.8 267.4 410.05 269.4 409.95 269.6 409.9 271.8 409.9 272.9 409.9 274.1 409.95 274.4 410.75 275.75 411.65 277.25 412.05 277.4 412.5 277.6 414.15 277.6 414.4 277.55 414.9 277.2
L 415.7 277.75
Q 416.3 277.75 416.5 277.1
L 416.95 275.85 418.35 275.55
Q 418.95 275.45 419.95 273.8 420.35 273.15 420.35 270.9 420.35 268.65 419.95 268.25 419.6 267.9 417 266.3 Z"/>
</g>

<g id="Layer0_0_MEMBER_5_MEMBER_28_FILL">
<path fill="#492728" stroke="none" d="
M 411.2 270.1
Q 411.3 270.15 411.7 270.8 412.1 271.5 412.15 271.75 412.15 272.15 411.55 272.55
L 411.7 273.2 412.4 273.05 413.5 273.7
Q 413.55 273.75 414.3 273.55 415.05 273.4 415.35 273.25 415.8 273.05 417.1 273.85
L 417.7 274.35 419 275.1 419.45 274.9
Q 419.9 274.6 420.05 274.4 422 272.1 422.15 270.3 422.5 267.5 421.15 265.7 420.5 264.85 418.7 264.1 416.9 263.3 416.05 263.5 415.25 263.65 413.65 264.7 412.05 265.7 411.5 266.35 410.25 268 410.25 268.4
L 410.25 270.1 411.2 270.1 Z"/>
</g>

<g id="Layer0_0_MEMBER_5_MEMBER_29_FILL">
<path fill="#FED6C1" stroke="none" d="
M 411.7 270.8
Q 411.7 270.35 411.25 270 411.1 269.85 410.75 270 410.4 270.15 410.3 270.35 410.2 270.5 410.2 271.2 410.2 271.85 410.25 272.05 410.35 272.3 410.8 272.55 411.45 271.85 411.55 271.6 411.7 271.35 411.7 270.8 Z"/>
</g>

<g id="Layer0_0_MEMBER_5_MEMBER_30_FILL">
<path fill="#FED6C1" stroke="none" d="
M 416.25 276.45
L 416.05 276.2
Q 415.5 276.55 415.2 276.65 415.05 276.7 415 276.9 415 277 415 277.05 415.65 277.65 415.9 277.35 416.2 277.05 416.25 276.45 Z"/>
</g>

<g id="Layer0_0_MEMBER_5_MEMBER_31_FILL">
<path fill="#FED6C1" stroke="none" d="
M 416.15 273.6
Q 416.05 273.5 415.5 273.6 415 273.65 414.95 273.75 414.9 273.85 413.8 273.95
L 413.05 273.8
Q 412.25 273.8 412.1 273.9 412.05 274 412 274.65 411.95 275.25 412 275.4 412.1 275.65 413.15 276.45
L 414.25 276.2 413.1 275.15 413.25 274.3 414.7 275.25
Q 414.95 275.35 415.85 275.5 416.8 275.6 417.1 275.55 417.5 275.45 417.9 274.7
L 416.15 273.6 Z"/>
</g>

<g id="Layer0_0_MEMBER_6_FILL">
<path fill="#757575" stroke="none" d="
M 420.7 319.3
L 409.6 325.8 409.6 329.55 420.7 323.1 420.7 319.3 Z"/>
</g>

<g id="Layer0_0_MEMBER_7_FILL">
<path fill="#757575" stroke="none" d="
M 421.8 320.5
L 412.7 325.8 412.7 327.75 421.8 322.45 421.8 320.5 Z"/>
</g>

<g id="Layer0_0_MEMBER_8_FILL">
<path fill="#ABABAB" stroke="none" d="
M 404.5 322.85
L 404.5 326.6 409.6 329.55 409.6 325.8 404.5 322.85 Z"/>
</g>

<g id="Layer0_0_MEMBER_9_FILL">
<path fill="#000000" stroke="none" d="
M 409 326.25
L 405.05 324 405.05 326.1 409 328.35 409 326.25 Z"/>
</g>

<g id="Layer0_0_MEMBER_10_FILL">
<path fill="#4A4343" stroke="none" d="
M 405.05 326.1
L 409 328.35 409 327.1 406.15 325.5 405.05 326.1 Z"/>
</g>

<g id="Layer0_0_MEMBER_11_FILL">
<path fill="#9A9A9A" stroke="none" d="
M 420.7 319.3
L 415.6 316.4 404.5 322.85 409.6 325.8 420.7 319.3 Z"/>
</g>

<g id="Layer0_0_MEMBER_12_MEMBER_0_FILL">
<path fill="#FDC12D" stroke="none" d="
M 422.95 319.75
Q 425.1357421875 321.389453125 427.55 322.4 425.1357421875 321.389453125 422.95 319.75 426.141015625 322.4990234375 430 323.9 430.05 323.9072265625 430.1 323.9
L 430.15 323.95 430.4 323.4 430.35 323.35 430.2 323.3 422.95 319.75 Z"/>
</g>

<g id="Layer0_0_MEMBER_12_MEMBER_1_FILL">
<path fill="#FDC12D" stroke="none" d="
M 433.5 322.45
Q 432.766015625 322.376953125 432.2 322.35 431.051171875 322.240625 430.4 322.15
L 430.05 322.1
Q 429.928125 322.087109375 429.8 322.05 429.90625 322.0970703125 430 322.1 430.630859375 322.292578125 432.15 322.7 433.65 323.15 434.9 323.35
L 435 322.7
Q 434.193359375 322.56171875 433.5 322.45 Z"/>
</g>

<g id="Layer0_0_MEMBER_12_MEMBER_2_FILL">
<path fill="#FDC12D" stroke="none" d="
M 428.45 324.45
Q 430.0357421875 325.7955078125 431.8 326.55 431.8494140625 326.6029296875 431.9 326.6
L 431.95 326.65 432.2 326.05 428.45 324.45 Z"/>
</g>

<g id="Layer0_0_MEMBER_12_MEMBER_3_FILL">
<path fill="#FDC12D" stroke="none" d="
M 423.85 322.3
Q 424.05 322.65 424.5 322.95
L 426.95 324.3 427.2 323.75
Q 427.030078125 323.662109375 426.85 323.55 424.7623046875 322.75625 423.85 322.3 Z"/>
</g>

<g id="Layer0_0_MEMBER_12_MEMBER_4_FILL">
<path fill="#FDC12D" stroke="none" d="
M 433.8 321.1
Q 435.8 321.6 438.85 321.85
L 438.9 321.2
Q 436.25 320.95 433.8 321.1 Z"/>
</g>

<g id="Layer0_0_MEMBER_12_MEMBER_5_FILL">
<path fill="#FDC12D" stroke="none" d="
M 433.45 319.3
L 433.55 319.3
Q 434.23125 319.309375 434.7 319.45
L 435.7 319.7 435.75 319.7 435.75 319.05 433.45 319.3 Z"/>
</g>

<g id="Layer0_0_MEMBER_12_MEMBER_6_FILL">
<path fill="#FDC12D" stroke="none" d="
M 442.75 329.35
L 442.7 329.35 432.6 325.65
Q 433.053515625 325.8470703125 433.55 326.05 435.838671875 327.0005859375 437.15 327.6
L 440.35 329
Q 438.8662109375 328.6421875 437.2 327.85 435.0703125 326.7388671875 433.55 326.05 432.8255859375 325.7712890625 432 325.45 433.8013671875 326.2095703125 437.1 328.15 439.8513671875 329.673046875 442.6 330 442.6513671875 329.9947265625 442.7 330
L 445.35 330.25 442.85 329.4 442.75 329.35 442.75 329.35 Z"/>
</g>

<g id="Layer0_0_MEMBER_12_MEMBER_7_FILL">
<path fill="#FDC12D" stroke="none" d="
M 432.45 323.6
Q 435.7 325.25 439.35 326.1
L 439.5 325.45 432.45 323.6 Z"/>
</g>

<g id="Layer0_0_MEMBER_12_MEMBER_8_FILL">
<path fill="#FDC12D" stroke="none" d="
M 445.65 324.95
L 445.7 324.95 445.7 324.3 441.05 324
Q 442.3 324.65 443.3 324.75 444.33046875 324.9462890625 445.65 324.95 Z"/>
</g>

<g id="Layer0_0_MEMBER_12_MEMBER_9_FILL">
<path fill="#FDC12D" stroke="none" d="
M 432 320.3
Q 430.875 320.4 429.6 320.35 426.85 320.15 425.1 319.3 426.05 319.95 427.25 320.35 428.25 320.7 429.55 320.85 429.95 320.9 431.95 320.9 433.1908203125 320.808203125 434.15 320.6 434.2150390625 320.5828125 434.25 320.55 434.2994140625 320.562109375 434.35 320.55
L 436.4 320.15 429.55 319.55
Q 427.8 319.5 425.1 319.3
L 432 320.3 Z"/>
</g>

<g id="Layer0_0_MEMBER_12_MEMBER_10_FILL">
<path fill="#FDC12D" stroke="none" d="
M 421.75 320.65
L 423.3 321.85 423.6 321.3 421.75 320.65 Z"/>
</g>

<g id="Layer0_0_MEMBER_13_FILL">
<path fill="#575757" stroke="none" d="
M 7.9 3.35
L 8.55 2.55 4.1 0 0 2.4 1.5 3.3 4.15 4.1 6.95 3.8 7.9 3.35 Z"/>
</g>

<g id="Layer0_0_MEMBER_14_FILL">
<path fill="#CCC0BC" stroke="none" d="
M 4.3 4.8
L 9.4 5.05 4.3 2.1 4.3 0 0 2.45 4.3 4.8 Z"/>
</g>
</defs>

<g transform="matrix( 7, 0, 0, 7, 260,537.2) ">
<use xlink:href="#Layer0_0_MEMBER_0_FILL"/>
</g>

<g transform="matrix( 7, 0, 0, 7, -2355.9,-1565.95) ">
<use xlink:href="#Layer0_0_MEMBER_1_FILL"/>
</g>

<g transform="matrix( 7, 0, 0, 7, -2355.9,-1565.95) ">
<use xlink:href="#Layer0_0_MEMBER_2_FILL"/>
</g>

<g transform="matrix( 7, 0, 0, 7, -2355.9,-1565.95) ">
<use xlink:href="#Layer0_0_MEMBER_3_FILL"/>
</g>

<g transform="matrix( 7, 0, 0, 7, -2355.9,-1565.95) ">
<use xlink:href="#Layer0_0_MEMBER_4_FILL"/>
</g>

<g transform="matrix( 7, 0, 0, 7, -2355.9,-1565.95) ">
<use xlink:href="#Layer0_0_MEMBER_5_MEMBER_0_FILL"/>
</g>

<g transform="matrix( 7, 0, 0, 7, -2355.9,-1565.95) ">
<use xlink:href="#Layer0_0_MEMBER_5_MEMBER_1_FILL"/>
</g>

<g transform="matrix( 7, 0, 0, 7, 393,367.1) ">
<use xlink:href="#Layer0_0_MEMBER_5_MEMBER_2_FILL"/>
</g>

<g transform="matrix( 7, 0, 0, 7, 508.85,437.8) ">
<use xlink:href="#Layer0_0_MEMBER_5_MEMBER_3_FILL"/>
</g>

<g transform="matrix( 7, 0, 0, 7, -2355.9,-1565.95) ">
<use xlink:href="#Layer0_0_MEMBER_5_MEMBER_4_MEMBER_0_MEMBER_0_MEMBER_0_FILL"/>
</g>

<g transform="matrix( 7, 0, 0, 7, -2355.9,-1565.95) ">
<use xlink:href="#Layer0_0_MEMBER_5_MEMBER_4_MEMBER_0_MEMBER_0_MEMBER_1_FILL"/>
</g>

<g transform="matrix( 7, 0, 0, 7, -2355.9,-1565.95) ">
<use xlink:href="#Layer0_0_MEMBER_5_MEMBER_4_MEMBER_0_MEMBER_0_MEMBER_2_FILL"/>
</g>

<g transform="matrix( 7, 0, 0, 7, -2355.9,-1565.95) ">
<use xlink:href="#Layer0_0_MEMBER_5_MEMBER_4_MEMBER_0_MEMBER_0_MEMBER_3_FILL"/>
</g>

<g transform="matrix( 7, 0, 0, 7, -2355.9,-1565.95) ">
<use xlink:href="#Layer0_0_MEMBER_5_MEMBER_4_MEMBER_0_MEMBER_1_FILL"/>
</g>

<g transform="matrix( 7, 0, 0, 7, -2355.9,-1565.95) ">
<use xlink:href="#Layer0_0_MEMBER_5_MEMBER_4_MEMBER_0_MEMBER_2_FILL"/>
</g>

<g transform="matrix( 7, 0, 0, 7, -2355.9,-1565.95) ">
<use xlink:href="#Layer0_0_MEMBER_5_MEMBER_4_MEMBER_0_MEMBER_3_MEMBER_0_FILL"/>
</g>

<g transform="matrix( 7, 0, 0, 7, -2355.9,-1565.95) ">
<use xlink:href="#Layer0_0_MEMBER_5_MEMBER_4_MEMBER_0_MEMBER_3_MEMBER_1_FILL"/>
</g>

<g transform="matrix( 7, 0, 0, 7, -2355.9,-1565.95) ">
<use xlink:href="#Layer0_0_MEMBER_5_MEMBER_4_MEMBER_0_MEMBER_3_MEMBER_2_FILL"/>
</g>

<g transform="matrix( 7, 0, 0, 7, -2355.9,-1565.95) ">
<use xlink:href="#Layer0_0_MEMBER_5_MEMBER_4_MEMBER_0_MEMBER_3_MEMBER_3_FILL"/>
</g>

<g transform="matrix( 7, 0, 0, 7, -2355.9,-1565.95) ">
<use xlink:href="#Layer0_0_MEMBER_5_MEMBER_4_MEMBER_0_MEMBER_3_MEMBER_4_FILL"/>
</g>

<g transform="matrix( 7, 0, 0, 7, -2355.9,-1565.95) ">
<use xlink:href="#Layer0_0_MEMBER_5_MEMBER_4_MEMBER_1_FILL"/>
</g>

<g transform="matrix( 7, 0, 0, 7, -2355.9,-1565.95) ">
<use xlink:href="#Layer0_0_MEMBER_5_MEMBER_4_MEMBER_2_FILL"/>
</g>

<g transform="matrix( 7, 0, 0, 7, -2355.9,-1565.95) ">
<use xlink:href="#Layer0_0_MEMBER_5_MEMBER_4_MEMBER_3_FILL"/>
</g>

<g transform="matrix( 7, 0, 0, 7, -2355.9,-1565.95) ">
<use xlink:href="#Layer0_0_MEMBER_5_MEMBER_4_MEMBER_4_FILL"/>
</g>

<g transform="matrix( 7, 0, 0, 7, -2355.9,-1565.95) ">
<use xlink:href="#Layer0_0_MEMBER_5_MEMBER_4_MEMBER_5_FILL"/>
</g>

<g transform="matrix( 7, 0, 0, 7, -2355.9,-1565.95) ">
<use xlink:href="#Layer0_0_MEMBER_5_MEMBER_4_MEMBER_6_FILL"/>
</g>

<g transform="matrix( 7, 0, 0, 7, -2355.9,-1565.95) ">
<use xlink:href="#Layer0_0_MEMBER_5_MEMBER_4_MEMBER_7_FILL"/>
</g>

<g transform="matrix( 7, 0, 0, 7, -2355.9,-1565.95) ">
<use xlink:href="#Layer0_0_MEMBER_5_MEMBER_4_MEMBER_8_FILL"/>
</g>

<g transform="matrix( 7, 0, 0, 7, -2355.9,-1565.95) ">
<use xlink:href="#Layer0_0_MEMBER_5_MEMBER_4_MEMBER_9_FILL"/>
</g>

<g transform="matrix( 7, 0, 0, 7, -2355.9,-1565.95) ">
<use xlink:href="#Layer0_0_MEMBER_5_MEMBER_4_MEMBER_10_MEMBER_0_FILL"/>
</g>

<g transform="matrix( 7, 0, 0, 7, -2355.9,-1565.95) ">
<use xlink:href="#Layer0_0_MEMBER_5_MEMBER_4_MEMBER_10_MEMBER_1_FILL"/>
</g>

<g transform="matrix( 7, 0, 0, 7, -2355.9,-1565.95) ">
<use xlink:href="#Layer0_0_MEMBER_5_MEMBER_4_MEMBER_11_FILL"/>
</g>

<g transform="matrix( 7, 0, 0, 7, -2355.9,-1565.95) ">
<use xlink:href="#Layer0_0_MEMBER_5_MEMBER_4_MEMBER_12_FILL"/>
</g>

<g transform="matrix( 7, 0, 0, 7, -2355.9,-1565.95) ">
<use xlink:href="#Layer0_0_MEMBER_5_MEMBER_4_MEMBER_13_FILL"/>
</g>

<g transform="matrix( 7, 0, 0, 7, -2355.9,-1565.95) ">
<use xlink:href="#Layer0_0_MEMBER_5_MEMBER_4_MEMBER_14_FILL"/>
</g>

<g transform="matrix( 7, 0, 0, 7, -2355.9,-1565.95) ">
<use xlink:href="#Layer0_0_MEMBER_5_MEMBER_5_FILL"/>
</g>

<g transform="matrix( 7, 0, 0, 7, 507.45,371.3) ">
<use xlink:href="#Layer0_0_MEMBER_5_MEMBER_6_FILL"/>
</g>

<g transform="matrix( 7, 0, 0, 7, -2355.9,-1565.95) ">
<use xlink:href="#Layer0_0_MEMBER_5_MEMBER_7_FILL"/>
</g>

<g transform="matrix( 7, 0, 0, 7, -2355.9,-1565.95) ">
<use xlink:href="#Layer0_0_MEMBER_5_MEMBER_8_MEMBER_0_MEMBER_0_FILL"/>
</g>

<g transform="matrix( 7, 0, 0, 7, -2355.9,-1565.95) ">
<use xlink:href="#Layer0_0_MEMBER_5_MEMBER_8_MEMBER_0_MEMBER_1_FILL"/>
</g>

<g transform="matrix( 7, 0, 0, 7, -2355.9,-1565.95) ">
<use xlink:href="#Layer0_0_MEMBER_5_MEMBER_8_MEMBER_1_MEMBER_0_FILL"/>
</g>

<g transform="matrix( 7, 0, 0, 7, -2355.9,-1565.95) ">
<use xlink:href="#Layer0_0_MEMBER_5_MEMBER_8_MEMBER_1_MEMBER_1_FILL"/>
</g>

<g transform="matrix( 7, 0, 0, 7, -2355.9,-1565.95) ">
<use xlink:href="#Layer0_0_MEMBER_5_MEMBER_8_MEMBER_2_MEMBER_0_FILL"/>
</g>

<g transform="matrix( 7, 0, 0, 7, -2355.9,-1565.95) ">
<use xlink:href="#Layer0_0_MEMBER_5_MEMBER_8_MEMBER_3_MEMBER_0_FILL"/>
</g>

<g transform="matrix( 7, 0, 0, 7, -2355.9,-1565.95) ">
<use xlink:href="#Layer0_0_MEMBER_5_MEMBER_8_MEMBER_3_MEMBER_1_FILL"/>
</g>

<g transform="matrix( 7, 0, 0, 7, -2355.9,-1565.95) ">
<use xlink:href="#Layer0_0_MEMBER_5_MEMBER_9_FILL"/>
</g>

<g transform="matrix( 7, 0, 0, 7, -2355.9,-1565.95) ">
<use xlink:href="#Layer0_0_MEMBER_5_MEMBER_10_FILL"/>
</g>

<g transform="matrix( 7, 0, 0, 7, 551.2,531.95) ">
<use xlink:href="#Layer0_0_MEMBER_5_MEMBER_11_FILL"/>
</g>

<g transform="matrix( 7, 0, 0, 7, -2355.9,-1565.95) ">
<use xlink:href="#Layer0_0_MEMBER_5_MEMBER_12_FILL"/>
</g>

<g transform="matrix( 7, 0, 0, 7, -2355.9,-1565.95) ">
<use xlink:href="#Layer0_0_MEMBER_5_MEMBER_13_FILL"/>
</g>

<g transform="matrix( 7, 0, 0, 7, -2355.9,-1565.95) ">
<use xlink:href="#Layer0_0_MEMBER_5_MEMBER_14_FILL"/>
</g>

<g transform="matrix( 7, 0, 0, 7, 295,345.4) ">
<use xlink:href="#Layer0_0_MEMBER_5_MEMBER_15_FILL"/>
</g>

<g transform="matrix( 7, 0, 0, 7, 334.9,508.15) ">
<use xlink:href="#Layer0_0_MEMBER_5_MEMBER_16_FILL"/>
</g>

<g transform="matrix( 7, 0, 0, 7, -2355.9,-1565.95) ">
<use xlink:href="#Layer0_0_MEMBER_5_MEMBER_17_FILL"/>
</g>

<g transform="matrix( 7, 0, 0, 7, -2355.9,-1565.95) ">
<use xlink:href="#Layer0_0_MEMBER_5_MEMBER_18_FILL"/>
</g>

<g transform="matrix( 1, 0, 0, 1, 0,0) ">
<use xlink:href="#Layer0_0_MEMBER_5_MEMBER_19_FILL"/>
</g>

<g transform="matrix( 7, 0, 0, 7, -2355.9,-1565.95) ">
<use xlink:href="#Layer0_0_MEMBER_5_MEMBER_20_FILL"/>
</g>

<g transform="matrix( 1, 0, 0, 1, 0,0) ">
<use xlink:href="#Layer0_0_MEMBER_5_MEMBER_21_FILL"/>
</g>

<g transform="matrix( 7, 0, 0, 7, -2355.9,-1565.95) ">
<use xlink:href="#Layer0_0_MEMBER_5_MEMBER_22_FILL"/>
</g>

<g transform="matrix( 1, 0, 0, 1, 0,0) ">
<use xlink:href="#Layer0_0_MEMBER_5_MEMBER_23_FILL"/>
</g>

<g transform="matrix( 7, 0, 0, 7, 437.45,392.65) ">
<use xlink:href="#Layer0_0_MEMBER_5_MEMBER_24_FILL"/>
</g>

<g transform="matrix( 7, 0, 0, 7, -2355.9,-1565.95) ">
<use xlink:href="#Layer0_0_MEMBER_5_MEMBER_25_FILL"/>
</g>

<g transform="matrix( 7, 0, 0, 7, -2355.9,-1565.95) ">
<use xlink:href="#Layer0_0_MEMBER_5_MEMBER_26_FILL"/>
</g>

<g transform="matrix( 7, 0, 0, 7, -2355.9,-1565.95) ">
<use xlink:href="#Layer0_0_MEMBER_5_MEMBER_27_FILL"/>
</g>

<g transform="matrix( 7, 0, 0, 7, -2355.9,-1565.95) ">
<use xlink:href="#Layer0_0_MEMBER_5_MEMBER_28_FILL"/>
</g>

<g transform="matrix( 7, 0, 0, 7, -2355.9,-1565.95) ">
<use xlink:href="#Layer0_0_MEMBER_5_MEMBER_29_FILL"/>
</g>

<g transform="matrix( 7, 0, 0, 7, -2355.9,-1565.95) ">
<use xlink:href="#Layer0_0_MEMBER_5_MEMBER_30_FILL"/>
</g>

<g transform="matrix( 7, 0, 0, 7, -2355.9,-1565.95) ">
<use xlink:href="#Layer0_0_MEMBER_5_MEMBER_31_FILL"/>
</g>

<g transform="matrix( 7, 0, 0, 7, -2355.9,-1565.95) ">
<use xlink:href="#Layer0_0_MEMBER_6_FILL"/>
</g>

<g transform="matrix( 7, 0, 0, 7, -2355.9,-1565.95) ">
<use xlink:href="#Layer0_0_MEMBER_7_FILL"/>
</g>

<g transform="matrix( 7, 0, 0, 7, -2355.9,-1565.95) ">
<use xlink:href="#Layer0_0_MEMBER_8_FILL"/>
</g>

<g transform="matrix( 7, 0, 0, 7, -2355.9,-1565.95) ">
<use xlink:href="#Layer0_0_MEMBER_9_FILL"/>
</g>

<g transform="matrix( 7, 0, 0, 7, -2355.9,-1565.95) ">
<use xlink:href="#Layer0_0_MEMBER_10_FILL"/>
</g>

<g transform="matrix( 7, 0, 0, 7, -2355.9,-1565.95) ">
<use xlink:href="#Layer0_0_MEMBER_11_FILL"/>
</g>

<g transform="matrix( 7, 0, 0, 7, -2355.9,-1565.95) ">
<use xlink:href="#Layer0_0_MEMBER_12_MEMBER_0_FILL"/>
</g>

<g transform="matrix( 7, 0, 0, 7, -2355.9,-1565.95) ">
<use xlink:href="#Layer0_0_MEMBER_12_MEMBER_1_FILL"/>
</g>

<g transform="matrix( 7, 0, 0, 7, -2355.9,-1565.95) ">
<use xlink:href="#Layer0_0_MEMBER_12_MEMBER_2_FILL"/>
</g>

<g transform="matrix( 7, 0, 0, 7, -2355.9,-1565.95) ">
<use xlink:href="#Layer0_0_MEMBER_12_MEMBER_3_FILL"/>
</g>

<g transform="matrix( 7, 0, 0, 7, -2355.9,-1565.95) ">
<use xlink:href="#Layer0_0_MEMBER_12_MEMBER_4_FILL"/>
</g>

<g transform="matrix( 7, 0, 0, 7, -2355.9,-1565.95) ">
<use xlink:href="#Layer0_0_MEMBER_12_MEMBER_5_FILL"/>
</g>

<g transform="matrix( 7, 0, 0, 7, -2355.9,-1565.95) ">
<use xlink:href="#Layer0_0_MEMBER_12_MEMBER_6_FILL"/>
</g>

<g transform="matrix( 7, 0, 0, 7, -2355.9,-1565.95) ">
<use xlink:href="#Layer0_0_MEMBER_12_MEMBER_7_FILL"/>
</g>

<g transform="matrix( 7, 0, 0, 7, -2355.9,-1565.95) ">
<use xlink:href="#Layer0_0_MEMBER_12_MEMBER_8_FILL"/>
</g>

<g transform="matrix( 7, 0, 0, 7, -2355.9,-1565.95) ">
<use xlink:href="#Layer0_0_MEMBER_12_MEMBER_9_FILL"/>
</g>

<g transform="matrix( 7, 0, 0, 7, -2355.9,-1565.95) ">
<use xlink:href="#Layer0_0_MEMBER_12_MEMBER_10_FILL"/>
</g>

<g transform="matrix( 7, 0, 0, 7, 524.6,648.85) ">
<use xlink:href="#Layer0_0_MEMBER_13_FILL"/>
</g>

<g transform="matrix( 7, 0, 0, 7, 445.5,705.55) ">
<use xlink:href="#Layer0_0_MEMBER_14_FILL"/>
</g>
</svg>
