
<svg xmlns="http://www.w3.org/2000/svg" version="1.1" xmlns:xlink="http://www.w3.org/1999/xlink" preserveAspectRatio="none" x="0px" y="0px" width="1024px" height="1024px" viewBox="0 0 1024 1024">
<defs>
<linearGradient id="Gradient_1" gradientUnits="userSpaceOnUse" x1="402.55" y1="375.1" x2="407.34999999999997" y2="375.1" spreadMethod="pad">
<stop  offset="1.5686274509803921%" stop-color="#292929"/>

<stop  offset="1.9607843137254901%" stop-color="#2B2B2B"/>

<stop  offset="52.94117647058823%" stop-color="#2B2B2B"/>

<stop  offset="53.333333333333336%" stop-color="#404040"/>

<stop  offset="62.745098039215684%" stop-color="#404040"/>

<stop  offset="63.13725490196079%" stop-color="#4F4F4F"/>

<stop  offset="89.80392156862744%" stop-color="#4F4F4F"/>

<stop  offset="90.19607843137256%" stop-color="#474747"/>
</linearGradient>

<linearGradient id="Gradient_2" gradientUnits="userSpaceOnUse" x1="398.9125" y1="359.8875" x2="399.1875" y2="359.41249999999997" spreadMethod="pad">
<stop  offset="16.07843137254902%" stop-color="#404040"/>

<stop  offset="16.470588235294116%" stop-color="#636363"/>

<stop  offset="56.07843137254902%" stop-color="#636363"/>

<stop  offset="56.07843137254902%" stop-color="#707070"/>

<stop  offset="87.45098039215686%" stop-color="#707070"/>

<stop  offset="87.45098039215686%" stop-color="#616161"/>
</linearGradient>

<linearGradient id="Gradient_3" gradientUnits="userSpaceOnUse" x1="399.6125" y1="361.16249999999997" x2="400.4875" y2="359.6375" spreadMethod="pad">
<stop  offset="16.07843137254902%" stop-color="#383838"/>

<stop  offset="16.470588235294116%" stop-color="#4F4F4F"/>

<stop  offset="56.07843137254902%" stop-color="#4F4F4F"/>

<stop  offset="56.07843137254902%" stop-color="#919191"/>

<stop  offset="87.45098039215686%" stop-color="#919191"/>

<stop  offset="87.45098039215686%" stop-color="#828282"/>
</linearGradient>

<linearGradient id="Gradient_4" gradientUnits="userSpaceOnUse" x1="400.55" y1="362.3" x2="401.95" y2="359.90000000000003" spreadMethod="pad">
<stop  offset="16.07843137254902%" stop-color="#383838"/>

<stop  offset="16.470588235294116%" stop-color="#4F4F4F"/>

<stop  offset="56.07843137254902%" stop-color="#4F4F4F"/>

<stop  offset="56.07843137254902%" stop-color="#919191"/>

<stop  offset="87.45098039215686%" stop-color="#919191"/>

<stop  offset="87.45098039215686%" stop-color="#828282"/>
</linearGradient>

<linearGradient id="Gradient_5" gradientUnits="userSpaceOnUse" x1="401.03749999999997" y1="363.08750000000003" x2="402.7625" y2="360.1125" spreadMethod="pad">
<stop  offset="16.07843137254902%" stop-color="#383838"/>

<stop  offset="16.470588235294116%" stop-color="#4F4F4F"/>

<stop  offset="56.07843137254902%" stop-color="#4F4F4F"/>

<stop  offset="56.07843137254902%" stop-color="#919191"/>

<stop  offset="87.45098039215686%" stop-color="#919191"/>

<stop  offset="87.45098039215686%" stop-color="#828282"/>
</linearGradient>

<g id="Layer0_0_MEMBER_0_FILL">
<path fill="#D7D3C3" stroke="none" d="
M 407.5 342.25
L 370.35 363.85 370.35 469 407.5 447.35 407.5 342.25 Z"/>
</g>

<g id="Layer0_0_MEMBER_1_FILL">
<path fill="#4577C6" stroke="none" d="
M 407.5 447.35
L 407.5 396.85 370.35 418.45 370.35 469 407.5 447.35 Z"/>
</g>

<g id="Layer0_0_MEMBER_2_MEMBER_0_FILL">
<path fill="#CCC0BC" stroke="none" d="
M 76.4 18.3
L 76.4 14.4 38.05 7.85 29.45 5.4 48.5 2.2 47.95 0 23.8 3.8 17.5 2 16.6 0.85 5.15 7.5 15.15 12.55 13.4 12.55 3.3 8.55 0 10.5 25.9 21.35 54.65 30.85 54.65 26.95 45.35 23.9 60.2 15.9 60.6 15.55 76.4 18.3
M 42.15 12.35
L 46.85 13.15 34.05 20.15 30.05 18.8 42.15 12.35
M 56.15 14.8
L 41.95 22.55 41.95 22.75 37.7 21.35 51.45 14 56.15 14.8
M 25.5 11.4
L 24 12.2 12.8 6.85 25.05 11.2 25.5 11.4
M 26.6 14.05
L 29 12.75 32.7 14.2 26.45 17.6 22.65 16.15 25.3 14.75 26.75 14.75 26.6 14.05 Z"/>
</g>

<g id="Layer0_0_MEMBER_2_MEMBER_1_MEMBER_0_MEMBER_0_FILL">
<path fill="#B6631F" stroke="none" d="
M 439.95 413.1
L 439.15 411.7 426.35 456.35 427.8 455.5 439.95 413.1 Z"/>
</g>

<g id="Layer0_0_MEMBER_2_MEMBER_1_MEMBER_0_MEMBER_1_FILL">
<path fill="#894813" stroke="none" d="
M 439.15 411.7
L 436.15 409.95 423.35 454.65 426.35 456.35 439.15 411.7 Z"/>
</g>

<g id="Layer0_0_MEMBER_2_MEMBER_1_MEMBER_0_MEMBER_2_FILL">
<path fill="#894813" stroke="none" d="
M 432 386.3
L 429 384.6 451.25 470.75 454.25 472.45 432 386.3 Z"/>
</g>

<g id="Layer0_0_MEMBER_2_MEMBER_1_MEMBER_0_MEMBER_3_FILL">
<path fill="#B6631F" stroke="none" d="
M 433.45 385.5
L 432 386.3 454.25 472.45 455.7 471.65 433.45 385.5 Z"/>
</g>

<g id="Layer0_0_MEMBER_2_MEMBER_1_MEMBER_0_MEMBER_4_FILL">
<path fill="#794010" stroke="none" d="
M 428.4 433.6
L 428.4 435.9 450.55 457.4 450.55 455.1 428.4 433.6 Z"/>
</g>

<g id="Layer0_0_MEMBER_2_MEMBER_1_MEMBER_0_MEMBER_5_FILL">
<path fill="#D48036" stroke="none" d="
M 429.15 433.15
L 428.4 433.6 450.55 455.1 451.3 454.65 429.15 433.15 Z"/>
</g>

<g id="Layer0_0_MEMBER_2_MEMBER_1_MEMBER_0_MEMBER_6_FILL">
<path fill="#B6631F" stroke="none" d="
M 451.3 456.95
L 451.3 454.65 450.55 455.1 450.55 457.4 451.3 456.95 Z"/>
</g>

<g id="Layer0_0_MEMBER_2_MEMBER_1_MEMBER_0_MEMBER_7_FILL">
<path fill="#FD9C2A" stroke="none" d="
M 433.45 385.5
L 433.45 383.25 410.3 396.6 410.3 398.85 433.45 385.5 Z"/>
</g>

<g id="Layer0_0_MEMBER_2_MEMBER_1_MEMBER_0_MEMBER_8_FILL">
<path fill="#D46B1C" stroke="none" d="
M 407.3 397.15
L 410.3 398.85 410.3 396.6 407.3 394.9 407.3 397.15 Z"/>
</g>

<g id="Layer0_0_MEMBER_2_MEMBER_1_MEMBER_0_MEMBER_9_FILL">
<path fill="#FED736" stroke="none" d="
M 430.45 381.5
L 407.3 394.9 410.3 396.6 433.45 383.25 430.45 381.5 Z"/>
</g>

<g id="Layer0_0_MEMBER_2_MEMBER_1_MEMBER_1_MEMBER_0_MEMBER_0_FILL">
<path fill="#BCBCBC" stroke="none" d="
M 433.15 472.65
L 433.15 473.65 452.55 462.35 452.55 461.4 433.15 472.65 Z"/>
</g>

<g id="Layer0_0_MEMBER_2_MEMBER_1_MEMBER_1_MEMBER_0_MEMBER_1_FILL">
<path fill="#8C8C8C" stroke="none" d="
M 433.15 472.65
L 429.2 470.4 429.2 471.35 433.15 473.65 433.15 472.65 Z"/>
</g>

<g id="Layer0_0_MEMBER_2_MEMBER_1_MEMBER_1_MEMBER_0_MEMBER_2_FILL">
<path fill="#DCDCDC" stroke="none" d="
M 429.2 470.4
L 433.15 472.65 452.55 461.4 448.6 459.1 429.2 470.4 Z"/>
</g>

<g id="Layer0_0_MEMBER_2_MEMBER_1_MEMBER_1_MEMBER_1_MEMBER_0_FILL">
<path fill="#BCBCBC" stroke="none" d="
M 430.1 461.5
L 430.1 462.5 449.45 451.2 449.45 450.25 430.1 461.5 Z"/>
</g>

<g id="Layer0_0_MEMBER_2_MEMBER_1_MEMBER_1_MEMBER_1_MEMBER_1_FILL">
<path fill="#8C8C8C" stroke="none" d="
M 430.1 461.5
L 426.15 459.25 426.15 460.2 430.1 462.5 430.1 461.5 Z"/>
</g>

<g id="Layer0_0_MEMBER_2_MEMBER_1_MEMBER_1_MEMBER_1_MEMBER_2_FILL">
<path fill="#DCDCDC" stroke="none" d="
M 426.15 459.25
L 430.1 461.5 449.45 450.25 445.5 447.95 426.15 459.25 Z"/>
</g>

<g id="Layer0_0_MEMBER_2_MEMBER_1_MEMBER_1_MEMBER_2_MEMBER_0_FILL">
<path fill="#BCBCBC" stroke="none" d="
M 446.4 440.05
L 446.4 439.1 427 450.35 427 451.35 446.4 440.05 Z"/>
</g>

<g id="Layer0_0_MEMBER_2_MEMBER_1_MEMBER_1_MEMBER_2_MEMBER_1_FILL">
<path fill="#8C8C8C" stroke="none" d="
M 427 450.35
L 423.05 448.1 423.05 449.05 427 451.35 427 450.35 Z"/>
</g>

<g id="Layer0_0_MEMBER_2_MEMBER_1_MEMBER_1_MEMBER_2_MEMBER_2_FILL">
<path fill="#DCDCDC" stroke="none" d="
M 423.05 448.1
L 427 450.35 446.4 439.1 442.45 436.8 423.05 448.1 Z"/>
</g>

<g id="Layer0_0_MEMBER_2_MEMBER_1_MEMBER_1_MEMBER_3_MEMBER_0_FILL">
<path fill="#BCBCBC" stroke="none" d="
M 443.3 427.95
L 423.9 439.25 423.9 440.2 443.3 428.95 443.3 427.95 Z"/>
</g>

<g id="Layer0_0_MEMBER_2_MEMBER_1_MEMBER_1_MEMBER_3_MEMBER_1_FILL">
<path fill="#8C8C8C" stroke="none" d="
M 423.9 439.25
L 420 436.95 420 437.9 423.9 440.2 423.9 439.25 Z"/>
</g>

<g id="Layer0_0_MEMBER_2_MEMBER_1_MEMBER_1_MEMBER_3_MEMBER_2_FILL">
<path fill="#DCDCDC" stroke="none" d="
M 420 436.95
L 423.9 439.25 443.3 427.95 439.35 425.65 420 436.95 Z"/>
</g>

<g id="Layer0_0_MEMBER_2_MEMBER_1_MEMBER_1_MEMBER_4_MEMBER_0_FILL">
<path fill="#BCBCBC" stroke="none" d="
M 440.2 416.8
L 420.85 428.1 420.85 429.05 440.2 417.8 440.2 416.8 Z"/>
</g>

<g id="Layer0_0_MEMBER_2_MEMBER_1_MEMBER_1_MEMBER_4_MEMBER_1_FILL">
<path fill="#8C8C8C" stroke="none" d="
M 420.85 428.1
L 416.9 425.8 416.9 426.8 420.85 429.05 420.85 428.1 Z"/>
</g>

<g id="Layer0_0_MEMBER_2_MEMBER_1_MEMBER_1_MEMBER_4_MEMBER_2_FILL">
<path fill="#DCDCDC" stroke="none" d="
M 416.9 425.8
L 420.85 428.1 440.2 416.8 436.25 414.55 416.9 425.8 Z"/>
</g>

<g id="Layer0_0_MEMBER_2_MEMBER_1_MEMBER_2_MEMBER_0_MEMBER_0_FILL">
<path fill="url(#Gradient_1)" stroke="none" d="
M 402.6 375.2
L 404.75 376.45
Q 405.4 376.85 406.1 376.45
L 406.8 376.05
Q 407.1 375.85 407.1 375.5
L 407.1 374.5 406.05 374.85 405.6 374.2
Q 405.2 373.95 404.45 373.75 403.6 373.5 403.3 373.65
L 403.1 373.75 402.3 373.65 402.3 374.65
Q 402.3 375.05 402.6 375.2 Z"/>
</g>

<g id="Layer0_0_MEMBER_2_MEMBER_1_MEMBER_2_MEMBER_0_MEMBER_1_FILL">
<path fill="#606060" stroke="none" d="
M 404.65 372.75
Q 404.1 372.45 403.5 372.65
L 402.6 373.15
Q 402.45 373.25 402.35 373.45 402.1 374 402.6 374.25
L 404.45 375.3
Q 405.35 375.8 406 375.5
L 406.8 375.05
Q 407.05 374.9 407.1 374.6 407.15 374.3 406.9 374.1
L 404.65 372.75 Z"/>
</g>

<g id="Layer0_0_MEMBER_2_MEMBER_1_MEMBER_2_MEMBER_0_MEMBER_2_FILL">
<path fill="#FBC7AC" stroke="none" d="
M 404.25 369.45
Q 404.05 369.9 404.9 371.95
L 405.75 373.5
Q 406.4 374.05 407.15 374.15 408.05 374.25 410.15 375.25
L 414.5 377
Q 419 378.8 420.05 379 420.45 379.1 420.8 378.95 422.1 378.55 422.4 377.15 422.7 375.5 420.95 374 417.9 373.55 415.4 373.05 413.7 372.75 411.6 372.2 409.8 371.7 409.35 371.5
L 408.6 371.05 405.85 368.75
Q 405.5 368.75 405.15 368.8 404.4 369 404.25 369.45 Z"/>
</g>

<g id="Layer0_0_MEMBER_2_MEMBER_1_MEMBER_2_MEMBER_0_MEMBER_3_FILL">
<path fill="#F5A480" stroke="none" d="
M 0 0.9
L 0.4 1.65 1.4 1.5
Q 1.5 1.55 2.2 1.5
L 1.25 0.3
Q 0.8 -0.1 0.55 0.05
L 0 0.9 Z"/>
</g>

<g id="Layer0_0_MEMBER_2_MEMBER_1_MEMBER_2_MEMBER_0_MEMBER_4_FILL">
<path fill="#F5A480" stroke="none" d="
M 14.55 6.65
Q 14.95 6.75 15.3 6.6 14.5 6.2 14.55 6
L 14.8 5.85 4.25 2 2.75 1.2 3.05 0 2.55 0.2 1.55 1.55 0.55 1.2 0 0.75 0.25 1.15
Q 0.9 1.7 1.65 1.8 2.55 1.9 4.65 2.9 6.7 3.75 9 4.65 13.5 6.45 14.55 6.65 Z"/>
</g>

<g id="Layer0_0_MEMBER_2_MEMBER_1_MEMBER_2_MEMBER_0_MEMBER_5_FILL">
<path fill="#492728" stroke="none" d="
M 402.85 366.9
L 403.35 374.4 404.55 374.85 406.3 374.45 405.9 367.05 402.85 366.9 Z"/>
</g>

<g id="Layer0_0_MEMBER_2_MEMBER_1_MEMBER_2_MEMBER_0_MEMBER_6_MEMBER_0_FILL">
<path fill="url(#Gradient_2)" stroke="none" d="
M 397.5 358.75
Q 397.3 358.95 397.5 359.05
L 400.45 360.8 400.75 360.35 397.75 358.55
Q 397.55 358.55 397.5 358.75 Z"/>
</g>

<g id="Layer0_0_MEMBER_2_MEMBER_1_MEMBER_2_MEMBER_0_MEMBER_6_MEMBER_1_FILL">
<path fill="#C4C4C4" stroke="none" d="
M 400.45 360.8
Q 400.6 360.9 400.75 360.65 400.95 360.4 400.75 360.3 400.55 360.3 400.5 360.5 400.35 360.7 400.45 360.8 Z"/>
</g>

<g id="Layer0_0_MEMBER_2_MEMBER_1_MEMBER_2_MEMBER_0_MEMBER_7_MEMBER_0_FILL">
<path fill="url(#Gradient_3)" stroke="none" d="
M 399.75 360.25
Q 399.3 360.95 399.7 361.25
L 399.9 361.35 400.8 359.85 400.6 359.75
Q 400.4 359.65 400.15 359.8 399.9 359.9 399.75 360.25 Z"/>
</g>

<g id="Layer0_0_MEMBER_2_MEMBER_1_MEMBER_2_MEMBER_0_MEMBER_7_MEMBER_1_FILL">
<path fill="#6D6D6D" stroke="none" d="
M 399.9 361.35
Q 400.35 361.65 400.75 360.85 401.15 360.1 400.8 359.85 400.35 359.6 399.9 360.35 399.5 361.1 399.9 361.35 Z"/>
</g>

<g id="Layer0_0_MEMBER_2_MEMBER_1_MEMBER_2_MEMBER_0_MEMBER_7_MEMBER_2_FILL">
<path fill="#454545" stroke="none" d="
M 400.15 360.95
Q 400.35 361.05 400.55 360.7 400.75 360.35 400.55 360.25 400.35 360.15 400.15 360.5 399.95 360.85 400.15 360.95 Z"/>
</g>

<g id="Layer0_0_MEMBER_2_MEMBER_1_MEMBER_2_MEMBER_0_MEMBER_8_MEMBER_0_FILL">
<path fill="url(#Gradient_4)" stroke="none" d="
M 399.9 360.4
Q 399.6 360.9 399.6 361.35 399.6 361.8 399.9 361.95
L 401.8 363 403.2 360.7 401.2 359.6
Q 400.95 359.45 400.55 359.7 400.15 359.9 399.9 360.4 Z"/>
</g>

<g id="Layer0_0_MEMBER_2_MEMBER_1_MEMBER_2_MEMBER_0_MEMBER_8_MEMBER_1_FILL">
<path fill="#4C4C4C" stroke="none" d="
M 401.8 363
Q 402.45 363.35 403.15 362.2 403.4 361.75 403.4 361.3 403.4 360.85 403.15 360.65 402.9 360.5 402.5 360.75 402.1 360.95 401.8 361.45 401.55 361.95 401.55 362.4 401.55 362.85 401.8 363 Z"/>
</g>

<g id="Layer0_0_MEMBER_2_MEMBER_1_MEMBER_2_MEMBER_0_MEMBER_9_MEMBER_0_FILL">
<path fill="url(#Gradient_5)" stroke="none" d="
M 401.2 361.25
Q 400.85 361.85 400.85 362.4 400.8 362.95 401.15 363.15
L 401.7 363.45
Q 402.7 361.65 403.45 360.6
L 402.85 360.25
Q 402.5 360.05 402.05 360.35 401.55 360.65 401.2 361.25 Z"/>
</g>

<g id="Layer0_0_MEMBER_2_MEMBER_1_MEMBER_2_MEMBER_0_MEMBER_9_MEMBER_1_FILL">
<path fill="#E2E2E2" stroke="none" d="
M 401.7 363.45
Q 402.05 363.65 402.55 363.35 403 363.1 403.35 362.45 403.7 361.85 403.7 361.3 403.7 360.75 403.35 360.55 403 360.35 402.55 360.65 402.1 360.95 401.7 361.55 401.35 362.15 401.35 362.7 401.35 363.25 401.7 363.45 Z"/>
</g>

<g id="Layer0_0_MEMBER_2_MEMBER_1_MEMBER_2_MEMBER_0_MEMBER_10_MEMBER_0_FILL">
<path fill="#6A6A6A" stroke="none" d="
M 403.85 360.25
L 403.8 360.2 403.75 360.2 403.45 360.15 403.35 360.15 403.05 360.25 402.2 360.75 401.8 361.05
Q 401.4 361.45 401.25 361.9
L 401.15 362.55 401.15 363.6 401.25 363.85 401.5 364.15 401.55 364.15 403.15 365.1 403.25 365 403.3 364.85 405.4 361.15 403.85 360.25 Z"/>
</g>

<g id="Layer0_0_MEMBER_2_MEMBER_1_MEMBER_2_MEMBER_0_MEMBER_10_MEMBER_1_FILL">
<path fill="#B3B3B3" stroke="none" d="
M 403.3 364.25
L 401.25 363.05 401.15 363.55 401.15 363.6 401.25 363.85 401.5 364.15 401.55 364.15 403.15 365.1 403.25 365 403.3 364.85 403.3 364.25 Z"/>
</g>

<g id="Layer0_0_MEMBER_2_MEMBER_1_MEMBER_2_MEMBER_0_MEMBER_10_MEMBER_2_FILL">
<path fill="#7E7E7E" stroke="none" d="
M 403.35 360.15
L 403.05 360.25 402.2 360.75 401.8 361.05 403.7 362.15 405.25 361.25 403.35 360.15 Z"/>
</g>

<g id="Layer0_0_MEMBER_2_MEMBER_1_MEMBER_2_MEMBER_0_MEMBER_10_MEMBER_3_FILL">
<path fill="#494949" stroke="none" d="
M 403.3 363.1
L 401.25 361.9 401.15 362.55 401.15 363.5 401.25 363.85 403.25 365 403.3 365 403.3 363.1 Z"/>
</g>

<g id="Layer0_0_MEMBER_2_MEMBER_1_MEMBER_2_MEMBER_0_MEMBER_10_MEMBER_4_FILL">
<path fill="#99A7AD" stroke="none" d="
M 403.85 361.7
Q 402.8 362.25 402.8 363.5
L 402.8 364.45
Q 402.8 364.85 403.15 365.1 403.55 365.3 403.9 365.1
L 404.8 364.6
Q 405.85 363.95 405.85 362.75
L 405.85 361.85
Q 405.85 361.4 405.45 361.2 405.1 361 404.7 361.2
L 403.85 361.7 Z"/>
</g>

<g id="Layer0_0_MEMBER_2_MEMBER_1_MEMBER_2_MEMBER_0_MEMBER_11_FILL">
<path fill="#FBC7AC" stroke="none" d="
M 404.55 369.5
Q 404.35 369.6 404.15 369.75 403.7 370 403.7 370.15
L 403.75 370.45
Q 403.95 370.7 404.35 370.65
L 405.8 370.65 406.3 370.75 406.2 371.1
Q 406.15 371.5 406.3 371.75 406.5 372.25 406.95 372.6
L 407.25 372.7
Q 408 372.95 408.35 371.95 408.6 371.15 407.85 370.4 407.1 369.6 406.7 369.45
L 405.6 369.3 404.55 369.5 Z"/>
</g>

<g id="Layer0_0_MEMBER_2_MEMBER_1_MEMBER_2_MEMBER_0_MEMBER_12_FILL">
<path fill="#FBC7AC" stroke="none" d="
M 402.3 369.5
L 402.45 370.4 402.2 371.1 402.45 371.7 402.45 372.1 402.75 373.2 403.05 373.45 403.3 373.55
Q 403.5 373.5 403.5 373.4 403.55 373.25 403.5 372.85 403.8 372.6 403.8 372.35 403.8 372.15 403.6 372
L 403.35 371.85 403.5 371.7
Q 403.7 371.5 403.7 371.2 403.7 370.9 403.15 370.55
L 403.1 370.5 403.3 370
Q 403.35 369.85 403.15 369.55
L 403 369.3 402.95 368.6 402.65 368.75 402.3 369.4 402.3 369.5 Z"/>
</g>

<g id="Layer0_0_MEMBER_2_MEMBER_1_MEMBER_2_MEMBER_0_MEMBER_13_FILL">
<path fill="#F5A480" stroke="none" d="
M 2.9 1.7
Q 2.8 1.55 2.7 1.2 2.6 0.8 2.65 0.7 2.65 0.5 2.9 0.1
L 0.6 0.15
Q 0 0.15 0.05 0
L 0 0.1
Q 0.2 0.35 0.6 0.3
L 2.05 0.3 2.55 0.4
Q 2.5 0.55 2.45 0.75 2.4 1.15 2.55 1.4 2.75 1.9 3.2 2.25
L 3.55 2.2
Q 3 1.9 2.9 1.7 Z"/>
</g>

<g id="Layer0_0_MEMBER_2_MEMBER_1_MEMBER_2_MEMBER_0_MEMBER_14_FILL">
<path fill="#F5A480" stroke="none" d="
M 0.1 0.1
L 0.25 1 0 1.7 0.25 2.3 0.25 2.7 0.55 3.8 0.85 4.05 0.65 3.65
Q 0.6 3.6 0.7 3.45
L 0.8 3.35 1.3 3.45 0.65 2.85 0.55 2.4 1.15 2.45 1.3 2.3 0.45 2 0.35 1.45 0.55 1.2 0.95 1.15
Q 0.6 1.15 0.45 0.9
L 0.1 0 0.1 0.1 Z"/>
</g>

<g id="Layer0_0_MEMBER_2_MEMBER_1_MEMBER_2_MEMBER_0_MEMBER_15_FILL">
<path fill="#2F2720" stroke="none" d="
M 431.55 420.05
L 425.85 418.25 425.45 419.05
Q 425.35 419.15 422.95 420.7 422.45 421.9 423.9 422.05 425.25 422.25 430.45 422
L 431.55 420.05 Z"/>
</g>

<g id="Layer0_0_MEMBER_2_MEMBER_1_MEMBER_2_MEMBER_0_MEMBER_16_FILL">
<path fill="#D5A856" stroke="none" d="
M 431.45 419.75
L 425.75 417.95 425.35 418.7
Q 425.3 418.75 424.25 419.45 423.15 420.1 423.1 420.25 422.55 421.35 423.8 421.5 425.15 421.7 430.2 421.5
L 431.45 419.75 Z"/>
</g>

<g id="Layer0_0_MEMBER_2_MEMBER_1_MEMBER_2_MEMBER_0_MEMBER_17_FILL">
<path fill="#3761A1" stroke="none" d="
M 435.95 394.45
L 427.75 391.15 420.1 395.9
Q 419 396.65 418.75 396.85 417.1 398 416.9 398.25 415.7 399.95 416 401.85 416.1 402.5 416.8 403.85 417.95 406.05 418.85 407.4
L 425.5 418.2 427.15 418.7 428.55 418.55
Q 430 418.2 430.4 417.1 430.6 416.65 430.6 415.3 430.65 413.15 430.35 409.1
L 430 405.45 435.2 402.55
Q 436.9 401.15 437.05 399.35 437.1 398.2 436.55 396.2
L 435.95 394.45 Z"/>
</g>

<g id="Layer0_0_MEMBER_2_MEMBER_1_MEMBER_2_MEMBER_0_MEMBER_18_MEMBER_0_FILL">
<path fill="#17377A" stroke="none" d="
M 10 2.8
Q 10.1 2 9.95 1.25 9.75 -0.25 8.7 0 5.55 0.85 4.05 2.25 3.65 2.6 3.65 3.3 3.7 4.35 3.7 4.45 3.7 4.6 3.3 5.5 3.15 6.05 3.15 7.15 2.95 7.95 2.6 8.35
L 2 9.3
Q 1.85 9.5 1.55 9.6 1 9.7 0.65 9.8 0.1 9.9 0 10.3 0.15 10.35 0.95 10.9 1.65 11.35 1.95 11.35
L 2.35 11.35 2.05 13.8 4.2 16.3 4.3 17.45 8.7 24.6 10.65 25.1 13.8 21.7
Q 12.4 15.3 10 2.8 Z"/>
</g>

<g id="Layer0_0_MEMBER_2_MEMBER_1_MEMBER_2_MEMBER_0_MEMBER_19_FILL">
<path fill="#2F2720" stroke="none" d="
M 432.15 437.8
L 428.35 436.65 428.1 436.1 427.95 437.6 428 438.25
Q 428.15 438.95 428.6 439.35 429.35 440.05 429.65 440.2 430.3 440.55 431.5 440.55 432.4 440.55 434.8 440.5 436.85 440.5 437.3 440.6 438.9 441.05 439.8 440.05 440.35 439.4 440.1 437.9
L 432.15 437.8 Z"/>
</g>

<g id="Layer0_0_MEMBER_2_MEMBER_1_MEMBER_2_MEMBER_0_MEMBER_20_FILL">
<path fill="#D5A856" stroke="none" d="
M 430.8 439.6
Q 432 439.8 435.25 439.8 435.7 439.8 437.25 439.9 438.65 440 439.05 439.8 439.5 439.6 439.8 438.95 440.15 438.35 440.1 437.9 440.1 437.4 439.95 436.6 439.75 435.75 439.5 435.6 439.15 435.4 433.9 435.2
L 429.55 435.75 428.1 436.1 428.2 437.95 428.85 438.7
Q 429.7 439.45 430.8 439.6 Z"/>
</g>

<g id="Layer0_0_MEMBER_2_MEMBER_1_MEMBER_2_MEMBER_0_MEMBER_21_FILL">
<path fill="#3761A1" stroke="none" d="
M 435.45 415.75
Q 435 414.15 434.25 410.75 433.3 406.6 433.4 406 433.5 405.6 434 404.75 434.75 403.45 434.85 403.2
L 434.9 403.2
Q 435.4 402.1 435.4 401.85
L 435.3 398
Q 432.9 398.15 430.1 398.5 424.5 399.3 422.5 400.6 421.9 401.05 421.65 401.4
L 421.75 403.85
Q 421.9 406.5 422.2 407.55 422.5 408.7 425.05 415.65 427.6 422.45 428.05 423.4 428.6 424.45 430.55 429.1 432.6 433.95 432.65 434.45 432.7 434.95 433.05 436.35 433.4 437.55 433.5 437.85
L 434.1 438.25
Q 435.8 438.95 437.15 438.85 438.15 438.8 439.05 437.75 439.5 437.2 439.95 436.55 440 436.5 439.9 435.85 439.8 434.7 439.15 431.3 438.5 428.05 438.5 428 438.5 427.75 437.15 422.25 435.75 416.75 435.45 415.75 Z"/>
</g>

<g id="Layer0_0_MEMBER_2_MEMBER_1_MEMBER_2_MEMBER_0_MEMBER_22_FILL">
<path fill="#17377A" stroke="none" d="
M 3.65 11.75
L 1.8 6.55
Q 0.75 3.25 0.8 2.45
L 0.85 0
Q 0.25 0.45 0 0.8 0.1 5.3 0.55 6.95 0.85 8.1 3.4 15.05 5.95 21.85 6.4 22.8 6.95 23.85 8.9 28.5 10.95 33.35 11 33.85 11.05 34.35 11.4 35.75 11.75 36.95 11.85 37.25
L 12.45 37.65 12.4 35.65
Q 12.35 35.45 13.05 32.9
L 12.2 28.75 11.15 30.65
Q 10.8 29.6 10.9 29.25 11 29.05 10.8 28.5
L 10.2 27.35 11.15 26.05
Q 10.15 23.05 9.55 22.6 9.2 22.3 8.4 21.2
L 7.65 20.1 3.65 11.75 Z"/>
</g>

<g id="Layer0_0_MEMBER_2_MEMBER_1_MEMBER_2_MEMBER_0_MEMBER_23_FILL">
<path fill="#17377A" stroke="none" d="
M 3.15 1.55
Q 3.9 0.25 4 0 2.8 1.2 2.7 1.4 2.55 1.6 1.3 2.25 -0.8 2.45 0.35 2.65 1.45 2.8 1.9 2.95 2.25 4.25 1.9 4.35 1.5 4.4 1.7 4.9 2.65 6.6 2.75 8 2.85 9.45 4.75 14.1
L 6.9 22.75
Q 7.9 26.55 7.9 27.5 7.9 28.6 8.2 29.8 8.45 30.75 8.7 31.15 8.85 31.5 9.05 32.65 8.95 31.5 8.3 28.1 7.65 24.85 7.65 24.8 7.65 24.55 6.3 19.05 4.9 13.55 4.6 12.55 4.15 10.95 3.4 7.55 2.45 3.4 2.55 2.8 2.65 2.4 3.15 1.55 Z"/>
</g>

<g id="Layer0_0_MEMBER_2_MEMBER_1_MEMBER_2_MEMBER_0_MEMBER_24_FILL">
<path fill="#F6562A" stroke="none" d="
M 434.5 370.4
Q 433.8 368.55 433.3 367.8
L 433.15 367.6
Q 432.8 367.2 432 366.8 431.15 366.4 430.55 366.4 429.75 366.4 428.2 366.55 426.35 366.7 426.05 366.85 422.9 368.6 422.6 369.4 422.5 369.65 420.55 372.75 419.9 373.9 419.9 374 419.8 374.35 419.05 376.1 418.35 378 418.35 379.25 418.35 381.35 419.65 393.65 419.85 396.25 420.05 401.45
L 420.6 401.85
Q 422.3 403.05 423.55 403.6 426.2 404.8 428.75 404.3 429.7 404.1 432.1 403.15 434.45 402.25 434.9 401.85 436 400.9 436.45 400.35 436.9 399.85 437.05 399.35 437.25 398.65 437.15 395.95 437.05 393.35 436.9 392.85 435.7 389.75 435.55 388.7 435.5 388.25 434.95 386.85 434.5 385.65 434.55 384.7 434.55 384.15 434.9 381.75 435.2 379.6 435.15 378.2 434.95 373.05 434.5 370.4 Z"/>
</g>

<g id="Layer0_0_MEMBER_2_MEMBER_1_MEMBER_2_MEMBER_0_MEMBER_25_FILL">
<path fill="#E43513" stroke="none" d="
M 6.4 4.1
Q 6.3 1.5 6.15 1
L 5.75 0
Q 5.65 0.75 5.1 1.3 4.65 2.4 4.45 2.6
L 3.55 3.65
Q 5.75 2.2 5.75 2.4
L 5.55 3.85 4.9 4.85 3.75 4.35
Q 3.25 4.35 2.75 4.4 1.7 4.45 1.65 4.55
L 0.9 4.8 0 5.35 3.65 5.25 4.15 6.4
Q 5.15 6.5 5.75 6.4
L 5.7 8.5
Q 6.15 8 6.3 7.5 6.5 6.8 6.4 4.1 Z"/>
</g>

<g id="Layer0_0_MEMBER_2_MEMBER_1_MEMBER_2_MEMBER_0_MEMBER_26_FILL">
<path fill="#C5FD4B" stroke="none" d="
M 658.15 194.4
Q 654.3 184.95 648 183.2
L 642.4 183.2
Q 643.1 184.6 642.05 186.7 639.95 191.25 630.85 194.4 623.15 197.2 613 197.55 600.75 197.55 592.7 199.65 581.85 202.45 574.5 208.75
L 568.9 214.35 558.05 234.65
Q 547.55 257.4 549.3 271.4 553.15 304.3 557.7 361
L 558.75 377.8
Q 560.5 400.9 588.5 406.5 610.9 411.05 636.1 397.05
L 642.4 393.2
Q 647.3 390.05 653.6 384.45 663.4 374.65 671.8 368.7 675.65 364.85 676.35 359.6 677.4 354.7 673.9 344.55
L 669.35 331.25
Q 663.75 316.9 664.1 310.6 665.85 296.95 666.55 287.15 667.95 268.6 667.25 251.45 665.85 213.65 658.15 194.4
M 612.65 212.6
Q 620 220.3 623.15 236.4 626.3 254.25 623.15 281.9 619.65 309.55 613 317.6 606.7 325.3 589.9 320.05 573.8 315.5 570.65 306.75 567.5 296.95 564.7 279.45 561.55 258.8 562.6 246.55 563.65 233.95 569.25 223.1 573.8 213.65 578 210.85
L 583.6 206.65
Q 590.6 203.15 597.25 204.55 607.05 206.65 612.65 212.6 Z"/>
</g>

<g id="Layer0_0_MEMBER_2_MEMBER_1_MEMBER_2_MEMBER_0_MEMBER_27_FILL">
<path fill="#9AC2D5" stroke="none" d="
M 673.9 344.55
L 669.35 331.25
Q 662.35 340.35 652.9 350.15 634 369.4 620 374.3 603.55 380.25 591.3 378.5 574.5 375.7 559.1 359.6
L 557.7 361 558.75 375.7
Q 576.95 391.1 597.6 391.1 609.15 391.1 624.2 385.85 646.95 377.8 673.9 344.55 Z"/>
</g>

<g id="Layer0_0_MEMBER_2_MEMBER_1_MEMBER_2_MEMBER_0_MEMBER_28_FILL">
<path fill="#FBC7AC" stroke="none" d="
M 428.15 367.35
Q 429.4 367.05 429.95 366.65 430.35 366.35 430.25 366.15 430.15 366 430 365.15 429.75 364.2 429.7 363.45 429.65 362.8 429.8 362.15 429.95 361.5 429.95 361.45 429.95 361.05 429.65 360.35 429.25 359.55 428.85 359.35 426.9 357.75 425.15 356.4 421.75 353.85 421.1 354.2 420 354.85 419.7 355.85 419.65 356.05 419.55 357.25 419.45 358.4 419.5 358.6 419.5 358.9 419.8 359.65 419.8 359.85 419.5 360.45 419.15 361.2 419.25 361.4 419.35 361.65 420 361.75
L 420 362.2
Q 420 364.25 420.5 365.4
L 420.75 365.75
Q 421.4 366.05 422.35 366.05 423.15 366.05 423.25 366.7
L 423.25 368.7 424.8 367.75 428.15 367.35 Z"/>
</g>

<g id="Layer0_0_MEMBER_2_MEMBER_1_MEMBER_2_MEMBER_0_MEMBER_29_FILL">
<path fill="#492728" stroke="none" d="
M 426.2 361.75
Q 426.35 361.85 427 362.75 427.65 363.5 427.95 363.4
L 429.7 362.95 430.05 361.15
Q 430.75 359.05 430.8 358.2 430.95 356.8 430.85 355.45 430.7 353.25 429.85 352.75 428.7 352 427.3 351.5 425.55 350.85 424.25 350.9 422.35 350.95 420.05 353.45 419.65 353.9 419.55 354.45 419.5 354.7 419.5 354.9
L 420.4 355.15 420.5 357.2
Q 420.6 358.25 420.7 358.35 420.9 358.5 421.55 359.95
L 422.2 360.1
Q 422.25 359.95 422.3 359.7 422.5 359.3 422.7 359.15 423.05 358.9 424.25 359.35 425.1 359.9 426.2 361.75 Z"/>
</g>

<g id="Layer0_0_MEMBER_2_MEMBER_1_MEMBER_2_MEMBER_0_MEMBER_30_FILL">
<path fill="#FED6C1" stroke="none" d="
M 424.25 360.55
Q 424.25 360.35 424 359.95 423.75 359.5 423.55 359.45 422.8 359.3 422.8 359.8 422.8 360.15 423.25 361.45 423.25 361.5 423.3 362.1 423.35 362.7 423.55 362.7 424 362.7 424.25 362 424.35 361.7 424.25 360.55 Z"/>
</g>

<g id="Layer0_0_MEMBER_2_MEMBER_1_MEMBER_2_MEMBER_0_MEMBER_31_FILL">
<path fill="#F5A480" stroke="none" d="
M 2.75 3.05
L 3.45 3.05 3.45 2.9
Q 3.25 1.85 3.2 1.8 3.1 1.5 3.15 0.95 3.15 0.65 3.2 0.4
L 2.3 0.35
Q 1.45 0.35 0 0
L 0.25 0.35
Q 0.9 0.65 1.85 0.65 2.65 0.65 2.75 1.3
L 2.75 3.05 Z"/>
</g>

<g id="Layer0_0_MEMBER_2_MEMBER_1_MEMBER_2_MEMBER_0_MEMBER_32_FILL">
<path fill="#8F785B" stroke="none" d="
M 585.25 377.05
Q 577.2193359375 374.5197265625 569.5 368.8 573.0892578125 379.7546875 578 379.55 581.1103515625 379.55 585.25 377.05
M 557.7 361
L 558.15 368 558.75 375.7
Q 561.1716796875 377.7490234375 563.6 379.5 563.2400390625 368.5720703125 563.05 363.5 561.0736328125 361.6634765625 559.1 359.6
L 557.7 361 Z"/>

<path fill="#E43513" stroke="none" d="
M 564.1 393.2
Q 559.8693359375 387.423828125 558.9 379.45 560.0556640625 397.0451171875 561.2 426.8
L 565.05 429.6 565.05 417.7
Q 564.528515625 403.7951171875 564.1 393.2 Z"/>

<path fill="#B79D20" stroke="none" d="
M 558.9 379.45
Q 559.8693359375 387.423828125 564.1 393.2 563.8458984375 385.4869140625 563.6 379.5 561.1716796875 377.7490234375 558.75 375.7
L 558.15 368 558.4 372.2 558.6 375
Q 558.7548828125 377.1171875 558.9 379.45
M 620.7 248.65
L 594.1 251.45 566.45 271.4 561.2 305
Q 555.95 272.8 556.3 268.6
L 564.7 225.9
Q 560.15 233.95 560.15 234.65 556.65 242.7 554.2 249.35 549.3 262.65 549.3 271.4 553.15 304.3 557.7 361
L 559.1 359.6
Q 561.0736328125 361.6634765625 563.05 363.5 562.95 359.8376953125 562.95 359.25
L 561.2 318.3 565.05 347.7
Q 566.9400390625 361.0755859375 569.5 368.8 577.2193359375 374.5197265625 585.25 377.05 592.3615234375 372.8107421875 602.5 361.35 606.7 346.65 610.9 331.25 618.95 300.8 618.95 298.7
L 620.7 248.65 Z"/>

<path fill="#EE9F6E" stroke="none" d="
M 558.15 368
L 557.7 361
Q 553.15 304.3 549.3 271.4 549.3 286.1 558.4 372.2
L 558.15 368 Z"/>
</g>

<g id="Layer0_0_MEMBER_2_MEMBER_1_MEMBER_2_MEMBER_0_MEMBER_33_FILL">
<path fill="#FBC7AC" stroke="none" d="
M 569.95 263.7
L 569.95 288.9
Q 569.95 291 565.75 287.5 561.9 284.35 558.75 280.5 538.8 254.6 537.75 253.2 536.7 251.45 531.8 239.9 526.55 227.65 525.15 223.1 523.75 218.9 516.75 214.7
L 509.75 211.2 512.2 224.15 505.2 223.45
Q 503.1 223.1 499.6 221.35
L 496.1 219.25
Q 492.95 218.2 491.9 218.9
L 490.15 225.9 491.2 229.05 490.15 231.85 490.15 237.8 490.85 239.2 491.55 245.85 495.4 254.95 508.35 261.95
Q 510.8 263.35 515.7 265.45 519.55 267.55 520.6 269.65 521.65 271.4 532.15 292.75 544.75 315.85 555.6 329.15 567.85 344.55 572.4 348.4 575.9 351.55 579.75 351.9 583.95 352.25 588.85 349.8 595.15 347 597.95 341.75 604.95 330.55 609.5 307.8
L 613 286.8 603.9 271.05
Q 603.2 270.35 569.95 263.7 Z"/>
</g>

<g id="Layer0_0_MEMBER_2_MEMBER_1_MEMBER_2_MEMBER_0_MEMBER_34_FILL">
<path fill="#F5A480" stroke="none" d="
M 0.2 0.45
L 0 0
Q 0.65 1.6 0.95 2.15 1.2 2.7 4.4 5.95
L 5.05 6.7 5.45 7.6 5.6 9 5.7 7.8 5.4 6.7
Q 4.85 5.85 4.8 5.55 4.8 5.85 4.2 5.35 3.65 4.9 3.2 4.35 0.35 0.65 0.2 0.45 Z"/>
</g>

<g id="Layer0_0_MEMBER_2_MEMBER_1_MEMBER_2_MEMBER_0_MEMBER_35_FILL">
<path fill="#F5A480" stroke="none" d="
M 16.95 9.8
Q 17.35 7.8 17.45 6.8
L 17.3 6.55 16.5 10.3
Q 15.25 13.85 14.55 14.45 13.45 15.45 12.65 15.45 12.1 15.45 10.55 13.25
L 7.8 9.5
Q 6.1 7.3 4.55 4.4 3.7 3.2 3.45 3.05 1.2 2.4 0.9 2.15 0.45 1.75 0.65 1.3 0.65 1.2 0.15 0.6
L 0 0
Q -0.05 0.6 0.1 0.95
L 0.3 1.45
Q 0.4 2 0.65 2.25
L 2.5 3.25
Q 2.85 3.45 3.55 3.75 4.1 4.05 4.25 4.35 6.75 9.8 9.25 12.85 11 15.05 11.65 15.6 12.15 16.05 12.7 16.1 13.3 16.15 14 15.8 14.9 15.4 15.3 14.65 16.3 13.05 16.95 9.8 Z"/>
</g>

<g id="Layer0_0_MEMBER_2_MEMBER_1_MEMBER_2_MEMBER_0_MEMBER_36_FILL">
<path fill="#F5A480" stroke="none" d="
M 0.1 0.9
L 0.25 0 0 1 0.15 1.45
Q 0 1.5 0 1.85
L 0 2.7 0.1 2.9 0.75 3.35 1.15 3.4 0.7 2.7 0.1 2.35 0.3 1.6
Q 0.7 1.8 0.9 1.8 1.1 1.85 0.1 0.9 Z"/>
</g>

<g id="Layer0_0_MEMBER_2_MEMBER_1_MEMBER_2_MEMBER_0_MEMBER_37_FILL">
<path fill="#F5A480" stroke="none" d="
M 0.25 1
L 0.7 0.8
Q 0.65 0.35 0 0
L 0.2 0.95 0.1 0.95 0.25 1 Z"/>
</g>

<g id="Layer0_0_MEMBER_2_MEMBER_1_MEMBER_2_MEMBER_0_MEMBER_38_FILL">
<path fill="#B79D20" stroke="none" d="
M 1.45 0.55
L 2.35 0
Q 1.45 0.3 0 0.6
L 1.45 0.55 Z"/>
</g>

<g id="Layer0_0_MEMBER_2_MEMBER_1_MEMBER_2_MEMBER_0_MEMBER_39_FILL">
<path fill="#98C558" stroke="none" d="
M 660.95 363.45
L 653.45 366.7
Q 646.894140625 372.7884765625 640.6 377.15 643.1111328125 377.5091796875 646.6 377.8
L 660.95 363.45 Z"/>

<path fill="#5B9549" stroke="none" d="
M 652.9 356.1
Q 653.5484375 355.4515625 656.3 346.5 654.658984375 348.3259765625 652.9 350.15 643.1185546875 360.1125 634.65 366.2
L 634 375
Q 634 376.2654296875 640.6 377.15 646.894140625 372.7884765625 653.45 366.7
L 644.85 370.45 640.65 366.95
Q 652.2 357.5 652.9 356.1
M 664.05 337.8
L 664.8 338.95 664.8 355.2
Q 668.32265625 351.3068359375 671.9 346.95 670.3697265625 341.736328125 669.7 337.55 669.5181640625 335.9138671875 668.4 332.45 666.333984375 335.1123046875 664.05 337.8 Z"/>

<path fill="#75C318" stroke="none" d="
M 671.8 368.7
Q 675.65 364.85 676.35 359.6 673.61171875 352.66328125 671.9 346.95 668.32265625 351.3068359375 664.8 355.2
L 664.8 355.75 673.2 364.5 671.8 368.7
M 659.55 214.7
Q 660.6 223.1 660.95 233.95
L 664.1 281.55
Q 664.1 285.05 660.6 305
L 652.9 295.55 657.1 313.05
Q 657.45 315.15 655 332.65
L 645.2 357.5 634.7 365.55 634.65 366.2
Q 643.1185546875 360.1125 652.9 350.15 654.658984375 348.3259765625 656.3 346.5 658.05703125 341 660.6 332.3
L 664.05 337.8
Q 666.333984375 335.1123046875 668.4 332.45 667.350390625 329.31015625 665.5 324.6 662.35 316.2 662.7 309.55 662.7 305.7 665.15 288.9 667.25 273.85 666.9 264.05 666.2 242.35 662.35 209.45 657.45 196.5 653.95 191.25 657.8 199.3 659.55 214.7 Z"/>
</g>

<g id="Layer0_0_MEMBER_2_MEMBER_1_MEMBER_2_MEMBER_0_MEMBER_40_FILL">
<path fill="#FD8839" stroke="none" d="
M 428.65 366.2
L 426.35 366.4 422.35 367.65 422.35 369.85 424.8 368.35
Q 425.05 368.2 426.85 368.05 428.9 367.9 429.5 367.75 430.75 367.45 431.4 366.55
L 430.9 365.6 430.05 365.4 430 365.9
Q 429.2 366.15 428.65 366.2 Z"/>
</g>

<g id="Layer0_0_MEMBER_2_MEMBER_1_MEMBER_2_MEMBER_0_MEMBER_41_FILL">
<path fill="#492728" stroke="none" d="
M 410.4 371.7
L 411.35 372.75 413.1 372.55 412.7 370.65 412.85 368.75 410.2 368.45 410.4 371.7 Z"/>
</g>

<g id="Layer0_0_MEMBER_2_MEMBER_1_MEMBER_2_MEMBER_0_MEMBER_42_FILL">
<path fill="#FD8839" stroke="none" d="
M 424.55 369.9
Q 423.15 370 422.35 370.7 421.7 371.25 421.15 372.45 420.75 373.35 420.6 375.6 420.55 377.25 420.6 378.1
L 421.15 381.6 421.3 381.6 422.1 380.9
Q 422.5 380.6 424.55 380.9 426.2 381.25 427.1 382.15 427.25 382.25 427.25 382.9
L 427.7 382.8
Q 428.85 377.25 428.45 374.6 428.15 372.6 427.1 371.25 425.95 369.85 424.55 369.9 Z"/>
</g>

<g id="Layer0_0_MEMBER_2_MEMBER_1_MEMBER_2_MEMBER_1_FILL">
<path fill="#EE8939" stroke="none" d="
M 401.35 364.45
L 402.1 366.65 410.7 371.7 410.7 367.1 402.1 362.05 401.35 364.45 Z"/>
</g>

<g id="Layer0_0_MEMBER_2_MEMBER_1_MEMBER_2_MEMBER_2_FILL">
<path fill="#D7621B" stroke="none" d="
M 413.6 365.4
L 410.7 367.1 409.9 369.65 410.7 371.7 413.6 370 414.4 367.45 413.6 365.4 Z"/>
</g>

<g id="Layer0_0_MEMBER_2_MEMBER_1_MEMBER_2_MEMBER_3_FILL">
<path fill="#FDAD65" stroke="none" d="
M 404.95 360.4
L 402.1 362.05 410.7 367.1 413.6 365.4 404.95 360.4 Z"/>
</g>

<g id="Layer0_0_MEMBER_2_MEMBER_1_MEMBER_3_MEMBER_0_FILL">
<path fill="#B6631F" stroke="none" d="
M 418.25 425.55
L 417.4 424.2 404.6 468.9 406.05 468.05 418.25 425.55 Z"/>
</g>

<g id="Layer0_0_MEMBER_2_MEMBER_1_MEMBER_3_MEMBER_1_FILL">
<path fill="#894813" stroke="none" d="
M 417.4 424.2
L 414.45 422.5 401.65 467.15 404.6 468.9 417.4 424.2 Z"/>
</g>

<g id="Layer0_0_MEMBER_2_MEMBER_1_MEMBER_3_MEMBER_2_FILL">
<path fill="#894813" stroke="none" d="
M 410.3 398.85
L 407.3 397.15 429.55 483.3 432.5 485 410.3 398.85 Z"/>
</g>

<g id="Layer0_0_MEMBER_2_MEMBER_1_MEMBER_3_MEMBER_3_FILL">
<path fill="#B6631F" stroke="none" d="
M 411.75 398
L 410.3 398.85 432.5 485 433.95 484.15 411.75 398 Z"/>
</g>

<g id="Layer0_0_MEMBER_2_MEMBER_1_MEMBER_3_MEMBER_4_FILL">
<path fill="#794010" stroke="none" d="
M 406.7 448.45
L 428.85 469.95 428.85 467.6 406.7 446.15 406.7 448.45 Z"/>
</g>

<g id="Layer0_0_MEMBER_2_MEMBER_1_MEMBER_3_MEMBER_5_FILL">
<path fill="#D48036" stroke="none" d="
M 429.6 467.15
L 407.45 445.7 406.7 446.15 428.85 467.6 429.6 467.15 Z"/>
</g>

<g id="Layer0_0_MEMBER_2_MEMBER_1_MEMBER_3_MEMBER_6_FILL">
<path fill="#B6631F" stroke="none" d="
M 429.6 469.5
L 429.6 467.15 428.85 467.6 428.85 469.95 429.6 469.5 Z"/>
</g>

<g id="Layer0_0_MEMBER_3_FILL">
<path fill="#000000" fill-opacity="0.2980392156862745" stroke="none" d="
M 22.2 0.05
L 21.05 2.3
Q 20.8 2.2 20.7 2.4 20.45 2.3 20.3 2.65
L 19.7 3.7
Q 19.5 3.8 19.4 3.95
L 19.35 4.05 19.25 4.05 19.1 4.1 19.05 4.15
Q 18.95 4.2 18.85 4.4
L 18.45 5.15 18.15 5.15 13.7 13.65 13.45 15.8 14.25 17.65 14.8 17.65 14.85 17.8 14.35 18.7
Q 13.8 19.7 13.75 20.3
L 13.7 21 11.1 23.9
Q 10.75 23.25 10.3 22.7
L 9.9 22.25
Q 9.65 21.95 9.1 21.85
L 9.05 21.75 8.75 19.8 8.2 20 8.1 19.4
Q 8.1 18.8 8.55 18.4 9.1 18 9.45 17.4
L 9.55 17
Q 9.7 15.7 9.45 13.95
L 9.4 13.6
Q 9.8 13.15 9.8 12.9 9.85 12.65 9.55 12.2 9.3 11.85 9.3 11.6 9.35 10.85 9.3 10.6 9.3 10.4 9.1 9.4 8.9 8.4 8.85 8.25 8.7 7.95 8.5 7.8
L 8.85 7.35
Q 8.8 6.65 8.35 6.35 6.65 5.3 5.5 6.15 3.95 7.35 2.45 10.45 1.8 11.85 2.55 15.7 2.7 16.45 3.4 17.85
L 3.8 19.2 3.85 19.75
Q 3.95 20.3 3.95 21.55
L 3.45 22.15 3.25 23.2 3.15 23.45 3.15 23.4 2.65 23.8
Q 2.15 24.45 2 25.9 1.7 28.7 2.25 33.65 2.6 36.6 3.55 40.75 3.7 41.35 3.5 43.7
L 3.35 45.7
Q 3.25 47.35 3.4 47.75
L 3.35 48.05 3.35 48.4 3.3 48.75 3.3 48.9
Q 3.3 49.65 3.5 51.45 3.75 53.4 3.95 54.15
L 4 54.45
Q 4.3 56 5.5 56.35
L 5.8 56.8
Q 6.95 58.35 7 58.5 7.1 58.9 7.1 62.85
L 4.15 66.45 5.05 71.05 1.3 73.2 0.05 74.5 0 77.1 2.15 75.8 2.15 98.95 5.45 97 4.95 74.2 5.6 73.75 7.3 95.95 18.75 89.3 17.55 87.75 17.2 66.95 18.65 66.05 18.7 63.3 14.35 65.8 14.1 63.75
Q 13.95 64.15 13.45 64.2
L 13.85 62.15 14.1 63.75
Q 14.25 63.3 13.9 62.05
L 16.6 48.65
Q 16.85 46.95 16.8 46.5 16.75 44.75 15.8 43.8 15.7 43.7 14.55 43.45
L 13.8 43.35 13.7 41.95 13.7 41.9 13.65 41.6 13.65 41.5 13.6 41.15 13.2 35.25
Q 13.85 32.85 14.45 29.25 14.95 26.05 15 25.75
L 15 25.55 15.9 24
Q 16.75 22.55 16.85 22.2
L 16.9 21.95 16.95 21.35 16.95 21.25 17 21.05 17 20.8 17.05 20.5 17 20.4
Q 18.4 18.3 18.6 18.1
L 18.7 18 18.65 18.4 18.65 18.45 18.8 19.25
Q 18.8 19.6 19.05 19.6
L 19.5 19.65
Q 20 19.65 20.3 19
L 21.4 16.9
Q 21.55 16.65 21.55 16.25
L 21.35 15.2 21.15 15.1 21.05 15.1 21.1 14.05 21.05 13.75 21.15 13.1 20.9 12.6 20.9 11.75 20.85 11.65 20.55 11.3 20.35 11.3 20.25 9.95 20.65 9.2 20.8 6.9 20.7 6.65 20.8 6.3 20.8 5.95 20.75 5.65
Q 20.9 5.3 20.85 4.95
L 21.35 4
Q 21.55 3.7 21.4 3.2 21.5 2.85 21.3 2.5
L 22.4 0.35
Q 22.5 0.2 22.4 0.05 22.25 0 22.2 0.05
M 18.45 13.3
L 18.25 13.85
Q 18.05 14.2 17.7 15.25
L 17.35 16.15 16.95 16.9 16.5 17.5 16.35 17.6 16.35 17.4 18.45 13.3 Z"/>
</g>
</defs>

<g transform="matrix( 7, 0, 0, 7, -2379.15,-2383.35) ">
<use xlink:href="#Layer0_0_MEMBER_0_FILL"/>
</g>

<g transform="matrix( 7, 0, 0, 7, -2379.15,-2383.35) ">
<use xlink:href="#Layer0_0_MEMBER_1_FILL"/>
</g>

<g transform="matrix( 7, 0, 0, 7, 265.8,795.7) ">
<use xlink:href="#Layer0_0_MEMBER_2_MEMBER_0_FILL"/>
</g>

<g transform="matrix( 7, 0, 0, 7, -2379.15,-2383.35) ">
<use xlink:href="#Layer0_0_MEMBER_2_MEMBER_1_MEMBER_0_MEMBER_0_FILL"/>
</g>

<g transform="matrix( 7, 0, 0, 7, -2379.15,-2383.35) ">
<use xlink:href="#Layer0_0_MEMBER_2_MEMBER_1_MEMBER_0_MEMBER_1_FILL"/>
</g>

<g transform="matrix( 7, 0, 0, 7, -2379.15,-2383.35) ">
<use xlink:href="#Layer0_0_MEMBER_2_MEMBER_1_MEMBER_0_MEMBER_2_FILL"/>
</g>

<g transform="matrix( 7, 0, 0, 7, -2379.15,-2383.35) ">
<use xlink:href="#Layer0_0_MEMBER_2_MEMBER_1_MEMBER_0_MEMBER_3_FILL"/>
</g>

<g transform="matrix( 7, 0, 0, 7, -2379.15,-2383.35) ">
<use xlink:href="#Layer0_0_MEMBER_2_MEMBER_1_MEMBER_0_MEMBER_4_FILL"/>
</g>

<g transform="matrix( 7, 0, 0, 7, -2379.15,-2383.35) ">
<use xlink:href="#Layer0_0_MEMBER_2_MEMBER_1_MEMBER_0_MEMBER_5_FILL"/>
</g>

<g transform="matrix( 7, 0, 0, 7, -2379.15,-2383.35) ">
<use xlink:href="#Layer0_0_MEMBER_2_MEMBER_1_MEMBER_0_MEMBER_6_FILL"/>
</g>

<g transform="matrix( 7, 0, 0, 7, -2379.15,-2383.35) ">
<use xlink:href="#Layer0_0_MEMBER_2_MEMBER_1_MEMBER_0_MEMBER_7_FILL"/>
</g>

<g transform="matrix( 7, 0, 0, 7, -2379.15,-2383.35) ">
<use xlink:href="#Layer0_0_MEMBER_2_MEMBER_1_MEMBER_0_MEMBER_8_FILL"/>
</g>

<g transform="matrix( 7, 0, 0, 7, -2379.15,-2383.35) ">
<use xlink:href="#Layer0_0_MEMBER_2_MEMBER_1_MEMBER_0_MEMBER_9_FILL"/>
</g>

<g transform="matrix( 7, 0, 0, 7, -2379.15,-2383.35) ">
<use xlink:href="#Layer0_0_MEMBER_2_MEMBER_1_MEMBER_1_MEMBER_0_MEMBER_0_FILL"/>
</g>

<g transform="matrix( 7, 0, 0, 7, -2379.15,-2383.35) ">
<use xlink:href="#Layer0_0_MEMBER_2_MEMBER_1_MEMBER_1_MEMBER_0_MEMBER_1_FILL"/>
</g>

<g transform="matrix( 7, 0, 0, 7, -2379.15,-2383.35) ">
<use xlink:href="#Layer0_0_MEMBER_2_MEMBER_1_MEMBER_1_MEMBER_0_MEMBER_2_FILL"/>
</g>

<g transform="matrix( 7, 0, 0, 7, -2379.15,-2383.35) ">
<use xlink:href="#Layer0_0_MEMBER_2_MEMBER_1_MEMBER_1_MEMBER_1_MEMBER_0_FILL"/>
</g>

<g transform="matrix( 7, 0, 0, 7, -2379.15,-2383.35) ">
<use xlink:href="#Layer0_0_MEMBER_2_MEMBER_1_MEMBER_1_MEMBER_1_MEMBER_1_FILL"/>
</g>

<g transform="matrix( 7, 0, 0, 7, -2379.15,-2383.35) ">
<use xlink:href="#Layer0_0_MEMBER_2_MEMBER_1_MEMBER_1_MEMBER_1_MEMBER_2_FILL"/>
</g>

<g transform="matrix( 7, 0, 0, 7, -2379.15,-2383.35) ">
<use xlink:href="#Layer0_0_MEMBER_2_MEMBER_1_MEMBER_1_MEMBER_2_MEMBER_0_FILL"/>
</g>

<g transform="matrix( 7, 0, 0, 7, -2379.15,-2383.35) ">
<use xlink:href="#Layer0_0_MEMBER_2_MEMBER_1_MEMBER_1_MEMBER_2_MEMBER_1_FILL"/>
</g>

<g transform="matrix( 7, 0, 0, 7, -2379.15,-2383.35) ">
<use xlink:href="#Layer0_0_MEMBER_2_MEMBER_1_MEMBER_1_MEMBER_2_MEMBER_2_FILL"/>
</g>

<g transform="matrix( 7, 0, 0, 7, -2379.15,-2383.35) ">
<use xlink:href="#Layer0_0_MEMBER_2_MEMBER_1_MEMBER_1_MEMBER_3_MEMBER_0_FILL"/>
</g>

<g transform="matrix( 7, 0, 0, 7, -2379.15,-2383.35) ">
<use xlink:href="#Layer0_0_MEMBER_2_MEMBER_1_MEMBER_1_MEMBER_3_MEMBER_1_FILL"/>
</g>

<g transform="matrix( 7, 0, 0, 7, -2379.15,-2383.35) ">
<use xlink:href="#Layer0_0_MEMBER_2_MEMBER_1_MEMBER_1_MEMBER_3_MEMBER_2_FILL"/>
</g>

<g transform="matrix( 7, 0, 0, 7, -2379.15,-2383.35) ">
<use xlink:href="#Layer0_0_MEMBER_2_MEMBER_1_MEMBER_1_MEMBER_4_MEMBER_0_FILL"/>
</g>

<g transform="matrix( 7, 0, 0, 7, -2379.15,-2383.35) ">
<use xlink:href="#Layer0_0_MEMBER_2_MEMBER_1_MEMBER_1_MEMBER_4_MEMBER_1_FILL"/>
</g>

<g transform="matrix( 7, 0, 0, 7, -2379.15,-2383.35) ">
<use xlink:href="#Layer0_0_MEMBER_2_MEMBER_1_MEMBER_1_MEMBER_4_MEMBER_2_FILL"/>
</g>

<g transform="matrix( 7, 0, 0, 7, -2379.15,-2383.35) ">
<use xlink:href="#Layer0_0_MEMBER_2_MEMBER_1_MEMBER_2_MEMBER_0_MEMBER_0_FILL"/>
</g>

<g transform="matrix( 7, 0, 0, 7, -2379.15,-2383.35) ">
<use xlink:href="#Layer0_0_MEMBER_2_MEMBER_1_MEMBER_2_MEMBER_0_MEMBER_1_FILL"/>
</g>

<g transform="matrix( 7, 0, 0, 7, -2379.15,-2383.35) ">
<use xlink:href="#Layer0_0_MEMBER_2_MEMBER_1_MEMBER_2_MEMBER_0_MEMBER_2_FILL"/>
</g>

<g transform="matrix( 7, 0, 0, 7, 455.15,214) ">
<use xlink:href="#Layer0_0_MEMBER_2_MEMBER_1_MEMBER_2_MEMBER_0_MEMBER_3_FILL"/>
</g>

<g transform="matrix( 7, 0, 0, 7, 459.35,223.1) ">
<use xlink:href="#Layer0_0_MEMBER_2_MEMBER_1_MEMBER_2_MEMBER_0_MEMBER_4_FILL"/>
</g>

<g transform="matrix( 7, 0, 0, 7, -2379.15,-2383.35) ">
<use xlink:href="#Layer0_0_MEMBER_2_MEMBER_1_MEMBER_2_MEMBER_0_MEMBER_5_FILL"/>
</g>

<g transform="matrix( 7, 0, 0, 7, -2379.15,-2383.35) ">
<use xlink:href="#Layer0_0_MEMBER_2_MEMBER_1_MEMBER_2_MEMBER_0_MEMBER_6_MEMBER_0_FILL"/>
</g>

<g transform="matrix( 7, 0, 0, 7, -2379.15,-2383.35) ">
<use xlink:href="#Layer0_0_MEMBER_2_MEMBER_1_MEMBER_2_MEMBER_0_MEMBER_6_MEMBER_1_FILL"/>
</g>

<g transform="matrix( 7, 0, 0, 7, -2379.15,-2383.35) ">
<use xlink:href="#Layer0_0_MEMBER_2_MEMBER_1_MEMBER_2_MEMBER_0_MEMBER_7_MEMBER_0_FILL"/>
</g>

<g transform="matrix( 7, 0, 0, 7, -2379.15,-2383.35) ">
<use xlink:href="#Layer0_0_MEMBER_2_MEMBER_1_MEMBER_2_MEMBER_0_MEMBER_7_MEMBER_1_FILL"/>
</g>

<g transform="matrix( 7, 0, 0, 7, -2379.15,-2383.35) ">
<use xlink:href="#Layer0_0_MEMBER_2_MEMBER_1_MEMBER_2_MEMBER_0_MEMBER_7_MEMBER_2_FILL"/>
</g>

<g transform="matrix( 7, 0, 0, 7, -2379.15,-2383.35) ">
<use xlink:href="#Layer0_0_MEMBER_2_MEMBER_1_MEMBER_2_MEMBER_0_MEMBER_8_MEMBER_0_FILL"/>
</g>

<g transform="matrix( 7, 0, 0, 7, -2379.15,-2383.35) ">
<use xlink:href="#Layer0_0_MEMBER_2_MEMBER_1_MEMBER_2_MEMBER_0_MEMBER_8_MEMBER_1_FILL"/>
</g>

<g transform="matrix( 7, 0, 0, 7, -2379.15,-2383.35) ">
<use xlink:href="#Layer0_0_MEMBER_2_MEMBER_1_MEMBER_2_MEMBER_0_MEMBER_9_MEMBER_0_FILL"/>
</g>

<g transform="matrix( 7, 0, 0, 7, -2379.15,-2383.35) ">
<use xlink:href="#Layer0_0_MEMBER_2_MEMBER_1_MEMBER_2_MEMBER_0_MEMBER_9_MEMBER_1_FILL"/>
</g>

<g transform="matrix( 7, 0, 0, 7, -2379.15,-2383.35) ">
<use xlink:href="#Layer0_0_MEMBER_2_MEMBER_1_MEMBER_2_MEMBER_0_MEMBER_10_MEMBER_0_FILL"/>
</g>

<g transform="matrix( 7, 0, 0, 7, -2379.15,-2383.35) ">
<use xlink:href="#Layer0_0_MEMBER_2_MEMBER_1_MEMBER_2_MEMBER_0_MEMBER_10_MEMBER_1_FILL"/>
</g>

<g transform="matrix( 7, 0, 0, 7, -2379.15,-2383.35) ">
<use xlink:href="#Layer0_0_MEMBER_2_MEMBER_1_MEMBER_2_MEMBER_0_MEMBER_10_MEMBER_2_FILL"/>
</g>

<g transform="matrix( 7, 0, 0, 7, -2379.15,-2383.35) ">
<use xlink:href="#Layer0_0_MEMBER_2_MEMBER_1_MEMBER_2_MEMBER_0_MEMBER_10_MEMBER_3_FILL"/>
</g>

<g transform="matrix( 7, 0, 0, 7, -2379.15,-2383.35) ">
<use xlink:href="#Layer0_0_MEMBER_2_MEMBER_1_MEMBER_2_MEMBER_0_MEMBER_10_MEMBER_4_FILL"/>
</g>

<g transform="matrix( 7, 0, 0, 7, -2379.15,-2383.35) ">
<use xlink:href="#Layer0_0_MEMBER_2_MEMBER_1_MEMBER_2_MEMBER_0_MEMBER_11_FILL"/>
</g>

<g transform="matrix( 7, 0, 0, 7, -2379.15,-2383.35) ">
<use xlink:href="#Layer0_0_MEMBER_2_MEMBER_1_MEMBER_2_MEMBER_0_MEMBER_12_FILL"/>
</g>

<g transform="matrix( 7, 0, 0, 7, 447.1,209.1) ">
<use xlink:href="#Layer0_0_MEMBER_2_MEMBER_1_MEMBER_2_MEMBER_0_MEMBER_13_FILL"/>
</g>

<g transform="matrix( 7, 0, 0, 7, 436.25,202.45) ">
<use xlink:href="#Layer0_0_MEMBER_2_MEMBER_1_MEMBER_2_MEMBER_0_MEMBER_14_FILL"/>
</g>

<g transform="matrix( 7, 0, 0, 7, -2379.15,-2383.35) ">
<use xlink:href="#Layer0_0_MEMBER_2_MEMBER_1_MEMBER_2_MEMBER_0_MEMBER_15_FILL"/>
</g>

<g transform="matrix( 7, 0, 0, 7, -2379.15,-2383.35) ">
<use xlink:href="#Layer0_0_MEMBER_2_MEMBER_1_MEMBER_2_MEMBER_0_MEMBER_16_FILL"/>
</g>

<g transform="matrix( 7, 0, 0, 7, -2379.15,-2383.35) ">
<use xlink:href="#Layer0_0_MEMBER_2_MEMBER_1_MEMBER_2_MEMBER_0_MEMBER_17_FILL"/>
</g>

<g transform="matrix( 7, 0, 0, 7, 538.45,371.85) ">
<use xlink:href="#Layer0_0_MEMBER_2_MEMBER_1_MEMBER_2_MEMBER_0_MEMBER_18_MEMBER_0_FILL"/>
</g>

<g transform="matrix( 7, 0, 0, 7, -2379.15,-2383.35) ">
<use xlink:href="#Layer0_0_MEMBER_2_MEMBER_1_MEMBER_2_MEMBER_0_MEMBER_19_FILL"/>
</g>

<g transform="matrix( 7, 0, 0, 7, -2379.15,-2383.35) ">
<use xlink:href="#Layer0_0_MEMBER_2_MEMBER_1_MEMBER_2_MEMBER_0_MEMBER_20_FILL"/>
</g>

<g transform="matrix( 7, 0, 0, 7, -2379.15,-2383.35) ">
<use xlink:href="#Layer0_0_MEMBER_2_MEMBER_1_MEMBER_2_MEMBER_0_MEMBER_21_FILL"/>
</g>

<g transform="matrix( 7, 0, 0, 7, 572.4,420.85) ">
<use xlink:href="#Layer0_0_MEMBER_2_MEMBER_1_MEMBER_2_MEMBER_0_MEMBER_22_FILL"/>
</g>

<g transform="matrix( 7, 0, 0, 7, 636.8,439.05) ">
<use xlink:href="#Layer0_0_MEMBER_2_MEMBER_1_MEMBER_2_MEMBER_0_MEMBER_23_FILL"/>
</g>

<g transform="matrix( 7, 0, 0, 7, -2379.15,-2383.35) ">
<use xlink:href="#Layer0_0_MEMBER_2_MEMBER_1_MEMBER_2_MEMBER_0_MEMBER_24_FILL"/>
</g>

<g transform="matrix( 7, 0, 0, 7, 636.1,359.6) ">
<use xlink:href="#Layer0_0_MEMBER_2_MEMBER_1_MEMBER_2_MEMBER_0_MEMBER_25_FILL"/>
</g>

<g transform="matrix( 1, 0, 0, 1, 0,0) ">
<use xlink:href="#Layer0_0_MEMBER_2_MEMBER_1_MEMBER_2_MEMBER_0_MEMBER_26_FILL"/>
</g>

<g transform="matrix( 1, 0, 0, 1, 0,0) ">
<use xlink:href="#Layer0_0_MEMBER_2_MEMBER_1_MEMBER_2_MEMBER_0_MEMBER_27_FILL"/>
</g>

<g transform="matrix( 7, 0, 0, 7, -2379.15,-2383.35) ">
<use xlink:href="#Layer0_0_MEMBER_2_MEMBER_1_MEMBER_2_MEMBER_0_MEMBER_28_FILL"/>
</g>

<g transform="matrix( 7, 0, 0, 7, -2379.15,-2383.35) ">
<use xlink:href="#Layer0_0_MEMBER_2_MEMBER_1_MEMBER_2_MEMBER_0_MEMBER_29_FILL"/>
</g>

<g transform="matrix( 7, 0, 0, 7, -2379.15,-2383.35) ">
<use xlink:href="#Layer0_0_MEMBER_2_MEMBER_1_MEMBER_2_MEMBER_0_MEMBER_30_FILL"/>
</g>

<g transform="matrix( 7, 0, 0, 7, 564.35,174.45) ">
<use xlink:href="#Layer0_0_MEMBER_2_MEMBER_1_MEMBER_2_MEMBER_0_MEMBER_31_FILL"/>
</g>

<g transform="matrix( 1, 0, 0, 1, 0,0) ">
<use xlink:href="#Layer0_0_MEMBER_2_MEMBER_1_MEMBER_2_MEMBER_0_MEMBER_32_FILL"/>
</g>

<g transform="matrix( 1, 0, 0, 1, 0,0) ">
<use xlink:href="#Layer0_0_MEMBER_2_MEMBER_1_MEMBER_2_MEMBER_0_MEMBER_33_FILL"/>
</g>

<g transform="matrix( 7, 0, 0, 7, 536.35,250.05) ">
<use xlink:href="#Layer0_0_MEMBER_2_MEMBER_1_MEMBER_2_MEMBER_0_MEMBER_34_FILL"/>
</g>

<g transform="matrix( 7, 0, 0, 7, 490.85,239.2) ">
<use xlink:href="#Layer0_0_MEMBER_2_MEMBER_1_MEMBER_2_MEMBER_0_MEMBER_35_FILL"/>
</g>

<g transform="matrix( 7, 0, 0, 7, 490.15,218.9) ">
<use xlink:href="#Layer0_0_MEMBER_2_MEMBER_1_MEMBER_2_MEMBER_0_MEMBER_36_FILL"/>
</g>

<g transform="matrix( 7, 0, 0, 7, 510.8,217.5) ">
<use xlink:href="#Layer0_0_MEMBER_2_MEMBER_1_MEMBER_2_MEMBER_0_MEMBER_37_FILL"/>
</g>

<g transform="matrix( 7, 0, 0, 7, 625.95,393.2) ">
<use xlink:href="#Layer0_0_MEMBER_2_MEMBER_1_MEMBER_2_MEMBER_0_MEMBER_38_FILL"/>
</g>

<g transform="matrix( 1, 0, 0, 1, 0,0) ">
<use xlink:href="#Layer0_0_MEMBER_2_MEMBER_1_MEMBER_2_MEMBER_0_MEMBER_39_FILL"/>
</g>

<g transform="matrix( 7, 0, 0, 7, -2379.15,-2383.35) ">
<use xlink:href="#Layer0_0_MEMBER_2_MEMBER_1_MEMBER_2_MEMBER_0_MEMBER_40_FILL"/>
</g>

<g transform="matrix( 7, 0, 0, 7, -2379.15,-2383.35) ">
<use xlink:href="#Layer0_0_MEMBER_2_MEMBER_1_MEMBER_2_MEMBER_0_MEMBER_41_FILL"/>
</g>

<g transform="matrix( 7, 0, 0, 7, -2379.15,-2383.35) ">
<use xlink:href="#Layer0_0_MEMBER_2_MEMBER_1_MEMBER_2_MEMBER_0_MEMBER_42_FILL"/>
</g>

<g transform="matrix( 7, 0, 0, 7, -2379.15,-2383.35) ">
<use xlink:href="#Layer0_0_MEMBER_2_MEMBER_1_MEMBER_2_MEMBER_1_FILL"/>
</g>

<g transform="matrix( 7, 0, 0, 7, -2379.15,-2383.35) ">
<use xlink:href="#Layer0_0_MEMBER_2_MEMBER_1_MEMBER_2_MEMBER_2_FILL"/>
</g>

<g transform="matrix( 7, 0, 0, 7, -2379.15,-2383.35) ">
<use xlink:href="#Layer0_0_MEMBER_2_MEMBER_1_MEMBER_2_MEMBER_3_FILL"/>
</g>

<g transform="matrix( 7, 0, 0, 7, -2379.15,-2383.35) ">
<use xlink:href="#Layer0_0_MEMBER_2_MEMBER_1_MEMBER_3_MEMBER_0_FILL"/>
</g>

<g transform="matrix( 7, 0, 0, 7, -2379.15,-2383.35) ">
<use xlink:href="#Layer0_0_MEMBER_2_MEMBER_1_MEMBER_3_MEMBER_1_FILL"/>
</g>

<g transform="matrix( 7, 0, 0, 7, -2379.15,-2383.35) ">
<use xlink:href="#Layer0_0_MEMBER_2_MEMBER_1_MEMBER_3_MEMBER_2_FILL"/>
</g>

<g transform="matrix( 7, 0, 0, 7, -2379.15,-2383.35) ">
<use xlink:href="#Layer0_0_MEMBER_2_MEMBER_1_MEMBER_3_MEMBER_3_FILL"/>
</g>

<g transform="matrix( 7, 0, 0, 7, -2379.15,-2383.35) ">
<use xlink:href="#Layer0_0_MEMBER_2_MEMBER_1_MEMBER_3_MEMBER_4_FILL"/>
</g>

<g transform="matrix( 7, 0, 0, 7, -2379.15,-2383.35) ">
<use xlink:href="#Layer0_0_MEMBER_2_MEMBER_1_MEMBER_3_MEMBER_5_FILL"/>
</g>

<g transform="matrix( 7, 0, 0, 7, -2379.15,-2383.35) ">
<use xlink:href="#Layer0_0_MEMBER_2_MEMBER_1_MEMBER_3_MEMBER_6_FILL"/>
</g>

<g transform="matrix( 7, 0, 0, 7, 250.75,176.55) ">
<use xlink:href="#Layer0_0_MEMBER_3_FILL"/>
</g>
</svg>
