
<svg xmlns="http://www.w3.org/2000/svg" version="1.1" xmlns:xlink="http://www.w3.org/1999/xlink" preserveAspectRatio="none" x="0px" y="0px" width="1024px" height="1024px" viewBox="0 0 1024 1024">
<defs>
<g id="Layer0_0_MEMBER_0_FILL">
<path fill="#CCC0BC" stroke="none" d="
M 233.6 530.05
Q 209.45 544.75 212.25 548.95 214.35 552.8 282.6 578.35 344.9 601.8 352.95 603.9 356.8 604.95 389 597.25
L 394.6 587.8 455.85 597.25 451.65 611.95 451.65 626.3
Q 450.95 636.1 465.3 649.75 524.1 665.5 528.3 661.3 532.5 656.75 530.75 647.65
L 562.6 627.35 576.25 624.55
Q 590.6 621.4 594.8 619.3 602.15 616.15 599 603.9
L 566.45 576.25 477.55 544.05
Q 351.55 499.6 333.35 496.45 322.5 494.7 294.5 504.85 265.45 515.35 263.7 515.35 257.05 515.35 233.6 530.05 Z"/>
</g>

<g id="Layer0_0_MEMBER_1_MEMBER_0_MEMBER_0_MEMBER_0_FILL">
<path fill="#3288B6" stroke="none" d="
M 599 603.9
L 587.6 594.2 568.55 605.3 593.75 619.75
Q 594.3380859375 619.5310546875 594.8 619.3 602.15 616.15 599 603.9 Z"/>

<path fill="#54BAF0" stroke="none" d="
M 587.6 594.2
L 599 603.9
Q 602.15 616.15 594.8 619.3 594.3380859375 619.5310546875 593.75 619.75
L 620.35 635.05 672.15 605.3 620.35 575.2 587.6 594.2 Z"/>
</g>

<g id="Layer0_0_MEMBER_1_MEMBER_0_MEMBER_1_MEMBER_0_FILL">
<path fill="#54BAF0" stroke="none" d="
M 340.55 305.75
L 333.15 310 340.55 314.3 347.95 310 340.55 305.75 Z"/>
</g>

<g id="Layer0_0_MEMBER_1_MEMBER_0_MEMBER_1_MEMBER_1_FILL">
<path fill="#3A9ED4" stroke="none" d="
M 332.65 310.3
L 325.2 314.6 332.65 318.85 340.05 314.6 332.65 310.3 Z"/>
</g>

<g id="Layer0_0_MEMBER_1_MEMBER_0_MEMBER_1_MEMBER_2_FILL">
<path fill="#3288B6" stroke="none" d="
M 324.7 323.45
L 332.15 319.15 324.7 314.9 317.3 319.15 324.7 323.45 Z"/>
</g>

<g id="Layer0_0_MEMBER_1_MEMBER_0_MEMBER_1_MEMBER_3_FILL">
<path fill="#54BAF0" stroke="none" d="
M 316.8 319.45
L 309.4 323.7 316.8 328 324.2 323.7 316.8 319.45 Z"/>
</g>

<g id="Layer0_0_MEMBER_1_MEMBER_0_MEMBER_1_MEMBER_4_FILL">
<path fill="#3288B6" stroke="none" d="
M 308.9 324
L 301.5 328.3 308.9 332.55 316.3 328.3 308.9 324 Z"/>
</g>

<g id="Layer0_0_MEMBER_1_MEMBER_0_MEMBER_1_MEMBER_5_FILL">
<path fill="#3A9ED4" stroke="none" d="
M 344.5 312.6
L 337.1 316.85 344.5 321.15 351.9 316.85 344.5 312.6 Z"/>
</g>

<g id="Layer0_0_MEMBER_1_MEMBER_0_MEMBER_1_MEMBER_6_FILL">
<path fill="#3288B6" stroke="none" d="
M 336.6 317.15
L 329.2 321.45 336.6 325.7 344 321.45 336.6 317.15 Z"/>
</g>

<g id="Layer0_0_MEMBER_1_MEMBER_0_MEMBER_1_MEMBER_7_FILL">
<path fill="#54BAF0" stroke="none" d="
M 328.65 330.3
L 336.1 326 328.65 321.75 321.25 326 328.65 330.3 Z"/>
</g>

<g id="Layer0_0_MEMBER_1_MEMBER_0_MEMBER_1_MEMBER_8_FILL">
<path fill="#3288B6" stroke="none" d="
M 320.75 326.3
L 313.35 330.55 320.75 334.85 328.15 330.55 320.75 326.3 Z"/>
</g>

<g id="Layer0_0_MEMBER_2_FILL">
<path fill="#2F2720" stroke="none" d="
M 311.85 304.75
L 306.65 304.35 299.1 302.9 298.55 302.85 298.45 304
Q 298.45 304.25 298.55 304.45 298.85 304.95 299.55 305.15 301.1 305.6 303.3 305.8 303.85 305.85 306.5 307 309.1 308.15 309.65 308.15 310.4 308.15 311.2 307.35 311.9 306.7 312 306.3 312.05 306.05 311.95 305.4
L 311.85 304.75 Z"/>
</g>

<g id="Layer0_0_MEMBER_3_FILL">
<path fill="#D5A856" stroke="none" d="
M 307.35 301.65
L 305.05 300.1 299 301.3 298.55 302.85
Q 298.55 303.2 298.85 304.15
L 300.05 304.6
Q 301.45 305.05 302.75 305.15 304.85 305.3 307.35 306.7 309.7 307.5 309.95 307.4 310.25 307.35 310.75 306.95 311.35 306.5 311.5 306
L 311.85 304.75 309.3 303.45 307.35 301.65 Z"/>
</g>

<g id="Layer0_0_MEMBER_4_FILL">
<path fill="#3761A1" stroke="none" d="
M 302.2 281.45
Q 299.9 280.65 297.35 280.35
L 296.65 280.25
Q 293.35 280 290.95 283.1 289.95 284.5 289.5 285.9 289.55 286.05 289.6 287.9 289.85 289.7 290.6 289.75 291.25 289.8 294.5 289.7 297.9 289.65 299.95 290 302.05 290.3 302.35 290.7 302.5 290.9 302.25 291.05
L 301.5 293.15
Q 300.75 295.35 300.7 295.9 300.55 296.7 299.8 298.5 299.75 298.7 298.75 300.15
L 298.7 300.3 298.6 302.25 300.05 303.55
Q 300.9 304.25 301.4 304.3
L 301.5 304.3
Q 302.25 304.4 303.35 304.3 304.4 304.25 304.65 304.15
L 305.55 303.3
Q 306 302.9 306.05 302.65
L 306.1 302.55
Q 307.15 300.1 309.1 294.15 311.05 287.85 310.45 286.35 310.15 285.6 309 284.85 307.75 284.05 307.25 283.75 305.15 282.4 302.2 281.45 Z"/>
</g>

<g id="Layer0_0_MEMBER_5_FILL">
<path fill="#17377A" stroke="none" d="
M 12.2 3.25
Q 12.5 2.75 12.7 1.1 10.4 0.3 7.85 0 4.1 1.35 1.45 2.75 0.45 4.15 0 5.55 0.05 5.7 0.1 7.55 0.35 9.35 1.1 9.4 7.1 9.1 10.45 9.65 12.55 9.95 12.85 10.35 13 10.55 12.75 10.7
L 12 12.8
Q 11.25 15 11.2 15.55 11.05 16.35 10.3 18.15 10.25 18.35 9.25 19.8
L 9.45 20.3 8.95 21.3 9.1 21.35 10 21.5 10.55 23.2 11.9 23.95 12 23.95
Q 12.75 24.05 13.85 23.95 14.9 23.9 15.15 23.8 15.4 23.7 15.9 23.15 16.4 22.6 16.55 22.3 15.55 20.7 15.7 20.3
L 17.55 15.8 14.75 19.25
Q 15.05 17.45 15.7 16.6 16.3 15.75 17.8 11.95
L 15.5 14.4
Q 14.15 14.75 14.45 14.4
L 18.2 9.3 13.75 13.2 14 11.6 15.7 10.05 12.75 8.6
Q 10.1 7.4 10.15 6.6 10.15 6.35 10.55 4.95 10.65 4.65 11.35 4.05 12.15 3.35 12.2 3.25 Z"/>
</g>

<g id="Layer0_0_MEMBER_6_FILL">
<path fill="#17377A" stroke="none" d="
M 3.65 3.65
L 2.4 9.5 0 16.5
Q 0 16.85 0.05 16.95 0.5 16.55 0.55 16.3
L 0.6 16.2
Q 1.65 13.75 3.6 7.8 5.55 1.5 4.95 0 4.4 1.45 3.9 2 3.45 2.6 2.4 3.65
L 3.15 3.9 3.65 3.65 Z"/>
</g>

<g id="Layer0_0_MEMBER_7_FILL">
<path fill="#FBC7AC" stroke="none" d="
M 313.5 282.1
L 310.6 276.5
Q 310.3 275.9 307.85 275.95
L 305.4 276.15 306.75 279.7
Q 307.45 281.35 309.3 285.9 309.95 287 312.25 290.25 315.45 294.75 315.7 295.55 315.95 296.25 315.95 297.5 316.2 298.3 317.45 300.35 317.55 300.6 317.8 300.8
L 318.4 302.15
Q 318.45 302.3 319 303 319.55 303.75 319.7 303.8 319.95 303.9 320.05 303.8
L 320.45 303.95 320.65 304 321.7 304 321.85 303.7
Q 322.1 303.1 322.05 303 321.5 300.45 321.45 300.3
L 321.25 299.7
Q 320.75 297.4 320.5 297.1
L 318.4 294.55
Q 318.15 294.2 317.1 291.85 316.35 290.05 316.05 289.35 314.25 283.45 313.5 282.1 Z"/>
</g>

<g id="Layer0_0_MEMBER_8_FILL">
<path fill="#FBC7AC" stroke="none" d="
M 319.9 296.4
Q 319.3 295.75 319 295.5 318.7 295.25 318.15 295.1 317.5 294.95 317.2 295.1 316.95 295.2 316.85 295.75 316.8 296.15 316.85 296.45 317 297.25 317.4 297.45 317.7 297.65 319.1 298.25
L 319.9 298.35 320.85 299.45
Q 321.05 299.65 321.7 299.85 322.35 299.85 322.5 299.7 322.65 299.6 322.65 299.35 322.7 299.2 322.45 299.15 322.2 299.15 322.15 299.1 321.75 298.95 321.4 298.5 321.05 298.1 320.55 297.1 320.55 297.05 319.9 296.4 Z"/>
</g>

<g id="Layer0_0_MEMBER_9_FILL">
<path fill="#F5A480" stroke="none" d="
M 4.1 2.5
Q 3.55 2 3.2 1.5
L 2.8 0.9
Q 2.4 1.05 1.95 0.95 1.5 0.8 0.75 0.4
L 0 0
Q 0.15 0.4 1 1.25 1.3 1.55 2.35 1.8
L 2.9 1.75 4.35 3.15 4.1 2.5 Z"/>
</g>

<g id="Layer0_0_MEMBER_10_FILL">
<path fill="#F5A480" stroke="none" d="
M 0.45 0.65
L 1.25 2.4 1.55 3.4 1.5 3.7
Q 1.75 3.8 1.85 3.7
L 2.25 3.85 1.95 3.65 1.55 2.3 0.75 0.9 0.55 0.35 0.55 0 0.2 0.4 0 0.4 0.45 0.65 Z"/>
</g>

<g id="Layer0_0_MEMBER_11_FILL">
<path fill="#F5A480" stroke="none" d="
M 0.55 1.1
L 1.1 2.15 1.45 3.6 1.85 3.6 1.4 2.1 0.7 0.75 0.55 0 0.1 0.1 0 0.15 0.3 0.35 0.55 1.1 Z"/>
</g>

<g id="Layer0_0_MEMBER_12_FILL">
<path fill="#F5A480" stroke="none" d="
M 0.3 0.55
L 1 1.8 1.35 3.1 1.8 4.15 1.95 3.85 1.45 2.85 0.9 1.3 0.4 0.35 0.35 0 0.1 0.25 0 0.45 0.3 0.55 Z"/>
</g>

<g id="Layer0_0_MEMBER_13_FILL">
<path fill="#F5A480" stroke="none" d="
M 5.25 0.65
L 5.2 0.55
Q 4.9 -0.05 2.45 0 1.2 0.05 0 0.2 0.6 2.1 1.35 3.75 2.05 5.4 3.9 9.95 4.55 11.05 6.85 14.3 10.05 18.8 10.3 19.6 10.55 20.3 10.55 21.55 10.8 22.35 12.05 24.4 12.15 24.65 12.4 24.85
L 12.6 24.85 11.3 22.65
Q 10.7 21.6 10.7 20.65 11.25 19.5 10.9 19.6 10.7 19.7 9.75 18.15 8.05 15.1 7.6 14.45 5.6 11.25 5.5 10.7 5.45 10.4 5.6 9.55
L 5.8 8.7 5.05 9.1
Q 4.7 9.2 3.9 8.05 2.7 4.85 2.4 4.3 2.15 3.95 2.15 3.35 2.15 2.85 2.3 2.6 2.4 2.5 3.2 2.35 4.1 2.2 4.35 2.1 4.7 1.95 5.25 0.65 Z"/>
</g>

<g id="Layer0_0_MEMBER_14_FILL">
<path fill="#FD8839" stroke="none" d="
M 307.35 269.2
Q 305 269.8 305 270.25 305 270.35 305 273.25 305 276.15 305.1 276.25 305.15 276.4 305.75 276.95 306.25 277.45 306.35 277.5 306.6 277.6 307.4 277.75 308.5 278 309.2 277.85 310.35 277.7 310.75 276.55
L 310.75 276.1
Q 310.2 272.85 309.9 270.25 309.75 268.55 307.35 269.2 Z"/>
</g>

<g id="Layer0_0_MEMBER_15_FILL">
<path fill="#2F2720" stroke="none" d="
M 271.35 295.5
Q 271.4 296.4 271.3 296.65 271.15 297 271.15 297.9 271.2 298.75 271.3 299.1 271.4 299.35 271.7 300.4 272.15 301.45 272.95 301.8 273.75 302.1 274.45 300.85
L 274.95 299.55 274.05 293.35
Q 273.85 292.9 273.55 292.65 273.2 292.45 272.05 292.9 271.9 292.95 271.65 293.45 271.4 293.95 271.3 294.35 271.25 294.55 271.35 295.5 Z"/>
</g>

<g id="Layer0_0_MEMBER_16_FILL">
<path fill="#D5A856" stroke="none" d="
M 272 293.9
Q 271.8 294.15 271.8 295.65 271.75 297.35 271.7 297.55 271.55 298.1 272 300.25
L 272.85 301.7
Q 273.1 302 274.85 302.2
L 275.75 301.8
Q 276.25 301.85 276.25 300.95
L 275.95 294.15 274.25 293.15
Q 274.05 293 273.55 292.95
L 273.1 292.9 272 293.9 Z"/>
</g>

<g id="Layer0_0_MEMBER_17_FILL">
<path fill="#3761A1" stroke="none" d="
M 279.8 295.9
Q 277.7 294.25 277.4 294.05 277.1 293.85 276.25 293.9 275.35 293.9 274.85 294.25 274.35 294.65 273.95 295.45 273.55 296.3 273.55 297.05 273.55 298.5 274.3 300
L 276.3 302.1 281 304.2
Q 281.1 304.25 283.2 305.7 285.15 307 285.95 307.35 286.35 307.5 286.7 307.3 287.4 306.95 288 305.75 288.5 304.65 288.55 304 288.55 303.3 286.3 300.3
L 285.55 299.35 279.8 295.9 Z"/>
</g>

<g id="Layer0_0_MEMBER_18_FILL">
<path fill="#17377A" stroke="none" d="
M 17.05 7.2
Q 18.3 6.65 18.65 5.7 17.5 7.5 15.2 7.3 13.8 7.2 11.35 6.15
L 10.3 5.7
Q 10 5.45 8.6 4.55 7 3.5 6.4 3.2
L 0 0 0.95 0.95 5.65 3.05
Q 5.75 3.1 7.85 4.55 9.8 5.85 10.6 6.2 11 6.5 12.65 7.05 14.35 7.6 15.15 7.6 16.05 7.6 17.05 7.2 Z"/>
</g>

<g id="Layer0_0_MEMBER_19_FILL">
<path fill="#17377A" stroke="none" d="
M 11.45 6.4
L 10.7 5.45
Q 5.5 2.4 4.95 2 2.85 0.35 2.55 0.15 2.25 -0.05 1.4 0 0.5 0 0 0.35
L 2.55 1.35 4.95 3.1 5.75 4
Q 6.6 5.05 6.7 5.5 6.9 6.25 9.45 8.5 10.6 7.4 11.45 6.4 Z"/>
</g>

<g id="Layer0_0_MEMBER_20_FILL">
<path fill="#3761A1" stroke="none" d="
M 280.85 284.8
L 280.75 284.8
Q 278.1 284.9 278 285.35 277.7 286.9 277.85 287.9 278 288.95 278.65 290.6
L 279.6 292.75 282.75 298.15
Q 283.35 299.15 284.3 302.4
L 285.65 306.85
Q 285.85 307.3 285.95 307.35 286.35 307.65 288 308.2 289.7 308.75 290.5 308.75 291.4 308.75 292.4 308.35 293.65 307.8 294 306.85 294.25 306.35 294.15 305.65 292.85 293.9 292.55 293.15 292.4 292.75 292.6 291.95 292.95 290.85 292.95 290.2
L 293.45 285.35 287.1 284.95
Q 282.75 284.75 280.85 284.8 Z"/>
</g>

<g id="Layer0_0_MEMBER_21_FILL">
<path fill="#F6562A" stroke="none" d="
M 331.25 371.5
L 324.6 378.5
Q 299.4 404.75 298.35 406.85 296.25 410.7 293.45 419.8 289.95 431 290.65 436.95 291.35 443.6 293.8 450.95 296.25 458.3 299.05 460.75
L 303.6 466.35 313.4 457.95
Q 317.25 469.15 317.95 469.85
L 333.35 470.9
Q 346.3 471.6 353.45 468.4 364.85 463.25546875 400 440 398.8 447.1 406.15 438.35 414.55 429.6 418.75 427.5 422.6 425.75 432.4 422.6 441.85 419.45 443.6 418.4 445.35 417 449.2 410.7 457.25 397.05 458.3 396 460.4 393.55 467.4 386.9 474.05 380.6 475.45 378.85 481.75 371.5 482.1 370.45 482.8 369.05 494 355.4 500.65 347 502.05 338.95 504.85 317.95 497.85 313.05 495.4 310.95 478.25 304.3
L 461.45 298
Q 451.3 296.6 440.8 298 431.7 299.05 413.85 305.7 394.6 312.7 383.75 320.4 372.55 328.45 331.25 371.5 Z"/>
</g>

<g id="Layer0_0_MEMBER_22_FILL">
<path fill="#3761A1" stroke="none" d="
M 306.3 267.75
Q 305.6 267.35 304.5 266.95 302.25 266.2 300.05 266.4 297.85 266.65 294.55 267.8
L 291.7 268.9 287.7 271.8 285.15 274.4 289.8 271.45
Q 294.75 268.4 296.35 268 297.65 267.7 299.5 267.05 301 266.65 302.3 267.05 304.4 267.75 306.3 267.75 Z"/>
</g>

<g id="Layer0_0_MEMBER_23_FILL">
<path fill="#3761A1" stroke="none" d="
M 368.7 333
L 399.85 334.4
Q 433.1 336.5 442.9 340.35 452.7 344.2 456.2 354 458.3 359.25 457.95 363.45
L 459 363.8 435.9 410.35
Q 468.1 372.9 468.45 364.5 469.15 358.55 460.4 345.95 452 333.35 443.95 327.75 436.25 322.15 414.55 318.65 392.85 314.8 386.55 318.3 381.65 321.1 374.65 327.4
L 368.7 333 Z"/>
</g>

<g id="Layer0_0_MEMBER_24_FILL">
<path fill="#3761A1" stroke="none" d="
M 281.4 280.65
Q 281.3 280.1 281.95 278.7
L 282.65 277.4 282.5 277.45 282.25 277.5
Q 278.55 281.5 278.5 281.55 277.9 282.75 277.6 284.15 277.35 285.25 277.4 285.85 277.45 286.65 277.85 287.9 278.3 288.95 278.6 289.25
L 279.25 290.05 280.65 288.85
Q 281.2 290.45 281.3 290.55
L 283.85 290.75
Q 284.4 290.75 285.4 290.95 285.45 290.95 286.05 291.1
L 286.35 291.2 286.5 291.2 286.55 291.25
Q 287.25 291.3 288.4 290.65
L 288.65 290.55 291.3 288.65 295.1 284.9 295.7 284.5 296.1 284.3 299.25 283.2 299.45 282.95 299.6 282.8 300.05 282.1 293.05 284.4 291.7 285.25 291.1 285.55
Q 290.15 286 289.5 285.9 288.8 285.85 287.1 284.95
L 285.35 283.9
Q 281.55 281.55 281.4 280.65 Z"/>
</g>

<g id="Layer0_0_MEMBER_25_FILL">
<path fill="#E43513" stroke="none" d="
M 467.4 386.9
Q 474.05 380.6 475.45 378.85 481.75 371.5 482.1 370.45 488.75 362.75 494 355.4
L 495.4 335.45
Q 483.15 342.1 478.6 346.3 476.15 349.1 468.8 348.05 463.5037109375 346.8986328125 460.75 346.5 469.1345703125 358.6818359375 468.45 364.5 468.1 372.9 435.9 410.35
L 449.7 382.5
Q 442.9927734375 391.6859375 439.05 395.3 434.5 398.8 389.7 365.9 385.15 406.15 385.85 408.95
L 389.7 429.6 386.55 434.85
Q 393.55 431.7 400.2 426.8
L 449.2 410.7
Q 457.25 397.05 458.3 396 460.4 393.55 467.4 386.9
M 459 363.8
L 457.95 363.45
Q 458.3 359.25 456.2 354 456.0326171875 353.53125 455.85 353.05 456.618359375 357.80859375 455.5 361.35
L 450.85 380.15 459 363.8 Z"/>

<path fill="#333C45" stroke="none" d="
M 458.65 346.3
Q 455.85 346.65 453.05 343.85 455.176953125 348.921875 455.85 353.05 456.0326171875 353.53125 456.2 354 458.3 359.25 457.95 363.45
L 459 363.8 450.85 380.15 450.6 381.3
Q 450.1498046875 381.921875 449.7 382.5
L 435.9 410.35
Q 468.1 372.9 468.45 364.5 469.1345703125 358.6818359375 460.75 346.5 459.368359375 346.3 458.65 346.3 Z"/>
</g>

<g id="Layer0_0_MEMBER_26_FILL">
<path fill="#17377A" stroke="none" d="
M 16.1 0.7
L 16.55 0 9.55 2.3
Q 8.6 3 7.6 3.45
L 6.45 5.2
Q 4.65 5.85 4.2 6.3 4.15 6.35 3.35 7.05 2.75 7.6 2.5 7.9 2.2 8.2 1.2 8.45 0.4 8.6 0 8.6
L 0.35 8.65
Q 0.9 8.65 1.9 8.85 1.95 8.85 2.55 9
L 2.85 9.1 3 9.1 3.05 9.15
Q 3.7 9.25 4.9 8.55
L 5.15 8.45 7.8 6.55 11.6 2.8 12.2 2.4 12.6 2.2 15.75 1.1 15.95 0.85 16.1 0.7 Z"/>
</g>

<g id="Layer0_0_MEMBER_27_FILL">
<path fill="#FBC7AC" stroke="none" d="
M 300.35 266.9
Q 300.25 267.25 300.25 267.55
L 302 270.75 302.9 274.15 303.7 274.6
Q 304.05 274.8 305 273.8 305.95 272.9 305.9 272.55 305.85 272.1 303.75 269.1 301.55 266.05 301.05 266.1 300.6 266.2 300.35 266.9 Z"/>
</g>

<g id="Layer0_0_MEMBER_28_FILL">
<path fill="#3288B6" stroke="none" d="
M 316.9 300.5
L 307.15 307.1 314.55 311.4 324.3 304.75 316.9 300.5 Z"/>
</g>

<g id="Layer0_0_MEMBER_29_FILL">
<path fill="#FBC7AC" stroke="none" d="
M 312.4 263.75
L 309.8 262.2
Q 308.5 261.95 307.05 261.75 304.2 261.4 303.7 261.7 303.2 262.05 302.05 264.45 301.45 265.65 300.95 266.8
L 300.25 267.55
Q 300.15 267.9 300.2 268.7 300.3 270.05 300.85 271.5 301.3 272.5 301.85 273.25
L 301.85 273.3
Q 302.45 274 302.9 274.15
L 303.35 273.45
Q 303.85 272.8 303.95 272.9 304.15 273.05 305.35 273.55 306.65 274.1 306.95 274.05
L 307 274
Q 307.55 273.85 309.35 272.15
L 309.6 272.15
Q 310.5 272.15 310.55 271.85 310.2 270.25 310.2 270.1 311.6 268.95 311.9 267.95 312.25 266.95 312.4 263.75 Z"/>
</g>

<g id="Layer0_0_MEMBER_30_FILL">
<path fill="#492728" stroke="none" d="
M 310.35 259.85
Q 308.3 258 305.8 258.35 303.6 258.7 302.15 260.7 301.2 262.05 300.85 263.7 300.45 265.55 300.6 266.75 300.65 267.1 301.2 268.05
L 301.45 267.7
Q 301.8 267.3 302 267.25 302.3 267.15 302.85 267.35 303.45 267.6 303.85 268.1 304.4 268.8 303.65 270.15
L 304.15 270.85 305.2 269.4
Q 305.4 269.3 306.7 269.4 307 269.35 307.55 268.4 308.1 267.4 308.2 267.35 308.45 267.3 309.85 267.5
L 310.25 267.7
Q 310.65 267.85 310.9 267.85
L 312.1 267.85
Q 312.85 267.1 312.65 264.4 312.35 261.7 310.35 259.85 Z"/>
</g>

<g id="Layer0_0_MEMBER_31_FILL">
<path fill="#FED6C1" stroke="none" d="
M 303.1 269.55
Q 303.4 268.9 303.45 268.3 303.35 267.55 302.5 267.6 301.95 267.65 301.8 268.05 301.75 268.3 301.7 269.25 301.7 270.25 302.75 270.2 303.1 269.8 303.1 269.55 Z"/>
</g>

<g id="Layer0_0_MEMBER_32_FILL">
<path fill="#FED6C1" stroke="none" d="
M 311.5 268
L 311.1 268.15
Q 309.95 268.1 309.75 268.15 308.75 268.5 308.55 268.7 307.8 269.8 307.9 269.9 307.95 269.95 310.2 269.6 310.5 269.5 311.2 268.7
L 311.5 268 Z"/>
</g>

<g id="Layer0_0_MEMBER_33_FILL">
<path fill="#FED6C1" stroke="none" d="
M 310.3 271.4
Q 310.05 270.7 309.9 270.85 309.4 271.65 309.25 271.65 309 271.65 309.3 271.95 309.5 272.2 310.4 271.9
L 310.3 271.4 Z"/>
</g>

<g id="Layer0_0_MEMBER_34_FILL">
<path fill="#F5A480" stroke="none" d="
M 5.1 2.4
L 5.15 2.35
Q 4.8 2.3 4.05 2 2.35 1.5 2.15 1.2 2.1 1.05 1.5 0.55 0.9 0.05 0.8 0 0.9 0.4 0.75 0.7 0.55 1.05 0 1.6
L 0 1.65
Q 0.6 2.35 1.05 2.5 1.25 2.15 1.5 1.8 2 1.15 2.1 1.25 2.3 1.4 3.5 1.9 4.8 2.45 5.1 2.4 Z"/>
</g>

<g id="Layer0_0_MEMBER_35_FILL">
<path fill="#FBC7AC" stroke="none" d="
M 297.4 281.85
L 293.95 284.25 296.95 289.55
Q 299.25 292.75 299.4 293.2 299.5 293.4 300 294.5 300.55 295.7 301.05 296.5 301.25 296.85 303.3 300.3 305.1 303.35 305.8 304.2 306.95 305.7 307.7 307.45
L 308.8 309.95
Q 308.9 310.1 309.3 310.3 309.7 310.5 309.8 310.45 309.9 310.45 311.4 312 311.55 312.2 312.25 312.3
L 313.35 313.45
Q 313.55 313.55 314.1 313.2
L 314.1 312.75
Q 314.35 312.6 314.4 312.35 314.4 312.2 313.9 311.1 313.35 309.95 313.25 309.85
L 312.55 308.2 312.45 307.55 312.65 308
Q 312.95 308.45 313.35 308.75 313.95 309.15 314.4 309 314.7 308.8 314.55 308.55
L 313.75 307.6
Q 313.1 306.25 312.75 305.85 312.55 305.6 309.95 304.15 309.05 303.55 308.75 303.05 308.5 302.65 307.15 299.5 305.85 296.5 305.5 295.65 305.2 294.9 304.65 293.85 304.05 292.8 303.8 292.55 303.6 292.35 303.1 290.7 302.65 289.3 302.6 288.9 302.55 288.45 302 287.1 301.35 285.35 300.65 284.15 299.95 282.95 298.6 282.3
L 297.4 281.85 Z"/>
</g>

<g id="Layer0_0_MEMBER_36_FILL">
<path fill="#F5A480" stroke="none" d="
M 0.6 0.55
L 0.25 0 0 0 1.85 3.2
Q 1.3 1.7 0.6 0.55 Z"/>
</g>

<g id="Layer0_0_MEMBER_37_FILL">
<path fill="#F5A480" stroke="none" d="
M 0.75 4.1
Q 0.75 4.2 1.8 5.65 1.55 5.25 1.15 3.75 0.75 2.45 0.7 2.1
L 0 0 0.75 4.1 Z"/>
</g>

<g id="Layer0_0_MEMBER_38_FILL">
<path fill="#F5A480" stroke="none" d="
M 0 0
L 0 1.15 0.85 2.65 0.55 1.9 0.45 1.25
Q 0.7 2 1.35 2.45 1.95 2.85 2.4 2.7 1.9 2.7 1.25 2.2
L 0 0 Z"/>
</g>

<g id="Layer0_0_MEMBER_39_FILL">
<path fill="#F5A480" stroke="none" d="
M 3.2 4.15
L 3.2 4 3.25 4
Q 2.75 3.4 1.9 2.2 1.15 1.2 1.1 1.05
L 0.4 0 0 0.2 0.5 0.7 3.2 4.15 Z"/>
</g>

<g id="Layer0_0_MEMBER_40_FILL">
<path fill="#F5A480" stroke="none" d="
M 0 0.35
Q 2.3 4.6 3 5.65 5.3 8.85 5.45 9.3 5.55 9.5 6.05 10.6 6.6 11.8 7.1 12.6 7.3 12.95 9.35 16.4 11.15 19.45 11.85 20.3 13 21.8 13.75 23.55
L 14.85 26.05
Q 14.95 26.2 15.35 26.4 15.75 26.6 15.85 26.55
L 16.5 27.15
Q 15.7 26.15 15.75 26.15 15.75 25.9 16.3 26.15 16.75 26.4 17.9 28.3
L 18.3 28.4 19.4 29.55 19.6 29.55
Q 19.3 29.4 19.2 29.15 19.1 28.9 17.7 27.15 16.35 25.45 16.35 25.4 16.3 25.3 16.05 25.35
L 15.75 25.4
Q 15.2 25.7 15 25.5 14.35 24.65 14.1 23.75
L 14.1 22.5
Q 13.75 22.65 12.7 21.05 11.9 19.8 10.05 16.75 8.15 13.6 8 13.25 5.75 9.95 5.85 9.65 5.9 9.45 6.1 9.55 6.4 9.7 6.45 9.7
L 8 10.85 8 10.5 6.55 9
Q 5.6 8.75 5.55 8.7 3.45 5.4 2.25 3.7 1.05 2 0.45 0
L 0 0.35 Z"/>
</g>

<g id="Layer0_0_MEMBER_41_FILL">
<path fill="#FD8839" stroke="none" d="
M 300.9 284.3
L 300.55 281.6 301.3 276.9
Q 301.4 275.85 300.85 274.75 300.05 273.3 298.25 272.55 296.4 271.75 294.3 272.5 292.45 273.15 291.95 274.3 291.55 275.15 291.45 276.7 291.35 278.05 291.55 278.65 292.95 283.55 293.45 284.4 293.8 284.95 295.25 285.45 296.85 286 298.3 285.9 299.65 285.8 300.4 285.05 300.8 284.65 300.9 284.3 Z"/>
</g>

<g id="Layer0_0_MEMBER_42_FILL">
<path fill="#17377A" stroke="none" d="
M 4.85 0.05
Q 1.15 4.05 1.1 4.1 0.5 5.3 0.2 6.7 -0.05 7.8 0 8.4 0.05 9.2 0.45 10.45 0.6 11.5 1.25 13.15
L 2.2 15.3 5.35 20.7
Q 5.95 21.7 6.9 24.95
L 7.55 27.2 8.35 25.4
Q 8.35 25.3 7.05 22.6 5.7 19.8 5.55 19.7 5.35 19.65 3.85 16.65 2.4 13.75 2.15 13.1 2.1 12.9 2.15 12.35 2.25 11.7 2 10.45
L 1.75 9.35
Q 1.75 8.3 2.05 6.8 2.6 3.85 3.95 1.9
L 5.1 0 4.85 0.05 Z"/>
</g>
</defs>

<g transform="matrix( 1, 0, 0, 1, -0.05,0) ">
<use xlink:href="#Layer0_0_MEMBER_0_FILL"/>
</g>

<g transform="matrix( 1, 0, 0, 1, -0.05,0) ">
<use xlink:href="#Layer0_0_MEMBER_1_MEMBER_0_MEMBER_0_MEMBER_0_FILL"/>
</g>

<g transform="matrix( 7, 0, 0, 7, -1651.2,-1564) ">
<use xlink:href="#Layer0_0_MEMBER_1_MEMBER_0_MEMBER_1_MEMBER_0_FILL"/>
</g>

<g transform="matrix( 7, 0, 0, 7, -1651.2,-1564) ">
<use xlink:href="#Layer0_0_MEMBER_1_MEMBER_0_MEMBER_1_MEMBER_1_FILL"/>
</g>

<g transform="matrix( 7, 0, 0, 7, -1651.2,-1564) ">
<use xlink:href="#Layer0_0_MEMBER_1_MEMBER_0_MEMBER_1_MEMBER_2_FILL"/>
</g>

<g transform="matrix( 7, 0, 0, 7, -1651.2,-1564) ">
<use xlink:href="#Layer0_0_MEMBER_1_MEMBER_0_MEMBER_1_MEMBER_3_FILL"/>
</g>

<g transform="matrix( 7, 0, 0, 7, -1651.2,-1564) ">
<use xlink:href="#Layer0_0_MEMBER_1_MEMBER_0_MEMBER_1_MEMBER_4_FILL"/>
</g>

<g transform="matrix( 7, 0, 0, 7, -1651.2,-1564) ">
<use xlink:href="#Layer0_0_MEMBER_1_MEMBER_0_MEMBER_1_MEMBER_5_FILL"/>
</g>

<g transform="matrix( 7, 0, 0, 7, -1651.2,-1564) ">
<use xlink:href="#Layer0_0_MEMBER_1_MEMBER_0_MEMBER_1_MEMBER_6_FILL"/>
</g>

<g transform="matrix( 7, 0, 0, 7, -1651.2,-1564) ">
<use xlink:href="#Layer0_0_MEMBER_1_MEMBER_0_MEMBER_1_MEMBER_7_FILL"/>
</g>

<g transform="matrix( 7, 0, 0, 7, -1651.2,-1564) ">
<use xlink:href="#Layer0_0_MEMBER_1_MEMBER_0_MEMBER_1_MEMBER_8_FILL"/>
</g>

<g transform="matrix( 7, 0, 0, 7, -1651.2,-1564) ">
<use xlink:href="#Layer0_0_MEMBER_2_FILL"/>
</g>

<g transform="matrix( 7, 0, 0, 7, -1651.2,-1564) ">
<use xlink:href="#Layer0_0_MEMBER_3_FILL"/>
</g>

<g transform="matrix( 7, 0, 0, 7, -1651.2,-1564) ">
<use xlink:href="#Layer0_0_MEMBER_4_FILL"/>
</g>

<g transform="matrix( 7, 0, 0, 7, 375.3,398.45) ">
<use xlink:href="#Layer0_0_MEMBER_5_FILL"/>
</g>

<g transform="matrix( 7, 0, 0, 7, 487.3,440.45) ">
<use xlink:href="#Layer0_0_MEMBER_6_FILL"/>
</g>

<g transform="matrix( 7, 0, 0, 7, -1651.2,-1564) ">
<use xlink:href="#Layer0_0_MEMBER_7_FILL"/>
</g>

<g transform="matrix( 7, 0, 0, 7, -1651.2,-1564) ">
<use xlink:href="#Layer0_0_MEMBER_8_FILL"/>
</g>

<g transform="matrix( 7, 0, 0, 7, 568.5,516.05) ">
<use xlink:href="#Layer0_0_MEMBER_9_FILL"/>
</g>

<g transform="matrix( 7, 0, 0, 7, 576.2,536.7) ">
<use xlink:href="#Layer0_0_MEMBER_10_FILL"/>
</g>

<g transform="matrix( 7, 0, 0, 7, 583.2,538.8) ">
<use xlink:href="#Layer0_0_MEMBER_11_FILL"/>
</g>

<g transform="matrix( 7, 0, 0, 7, 588.1,534.95) ">
<use xlink:href="#Layer0_0_MEMBER_12_FILL"/>
</g>

<g transform="matrix( 7, 0, 0, 7, 486.6,367.65) ">
<use xlink:href="#Layer0_0_MEMBER_13_FILL"/>
</g>

<g transform="matrix( 7, 0, 0, 7, -1651.2,-1564) ">
<use xlink:href="#Layer0_0_MEMBER_14_FILL"/>
</g>

<g transform="matrix( 7, 0, 0, 7, -1651.2,-1564) ">
<use xlink:href="#Layer0_0_MEMBER_15_FILL"/>
</g>

<g transform="matrix( 7, 0, 0, 7, -1651.2,-1564) ">
<use xlink:href="#Layer0_0_MEMBER_16_FILL"/>
</g>

<g transform="matrix( 7, 0, 0, 7, -1651.2,-1564) ">
<use xlink:href="#Layer0_0_MEMBER_17_FILL"/>
</g>

<g transform="matrix( 7, 0, 0, 7, 276.25,544.05) ">
<use xlink:href="#Layer0_0_MEMBER_18_FILL"/>
</g>

<g transform="matrix( 7, 0, 0, 7, 272.75,493.3) ">
<use xlink:href="#Layer0_0_MEMBER_19_FILL"/>
</g>

<g transform="matrix( 7, 0, 0, 7, -1651.2,-1564) ">
<use xlink:href="#Layer0_0_MEMBER_20_FILL"/>
</g>

<g transform="matrix( 1, 0, 0, 1, -0.05,0) ">
<use xlink:href="#Layer0_0_MEMBER_21_FILL"/>
</g>

<g transform="matrix( 7, 0, 0, 7, -1651.2,-1564) ">
<use xlink:href="#Layer0_0_MEMBER_22_FILL"/>
</g>

<g transform="matrix( 1, 0, 0, 1, -0.05,0) ">
<use xlink:href="#Layer0_0_MEMBER_23_FILL"/>
</g>

<g transform="matrix( 7, 0, 0, 7, -1651.2,-1564) ">
<use xlink:href="#Layer0_0_MEMBER_24_FILL"/>
</g>

<g transform="matrix( 1, 0, 0, 1, -0.05,0) ">
<use xlink:href="#Layer0_0_MEMBER_25_FILL"/>
</g>

<g transform="matrix( 7, 0, 0, 7, 333.3,410.7) ">
<use xlink:href="#Layer0_0_MEMBER_26_FILL"/>
</g>

<g transform="matrix( 7, 0, 0, 7, -1651.2,-1564) ">
<use xlink:href="#Layer0_0_MEMBER_27_FILL"/>
</g>

<g transform="matrix( 7, 0, 0, 7, -1651.2,-1564) ">
<use xlink:href="#Layer0_0_MEMBER_28_FILL"/>
</g>

<g transform="matrix( 7, 0, 0, 7, -1651.2,-1564) ">
<use xlink:href="#Layer0_0_MEMBER_29_FILL"/>
</g>

<g transform="matrix( 7, 0, 0, 7, -1651.2,-1564) ">
<use xlink:href="#Layer0_0_MEMBER_30_FILL"/>
</g>

<g transform="matrix( 7, 0, 0, 7, -1651.2,-1564) ">
<use xlink:href="#Layer0_0_MEMBER_31_FILL"/>
</g>

<g transform="matrix( 7, 0, 0, 7, -1651.2,-1564) ">
<use xlink:href="#Layer0_0_MEMBER_32_FILL"/>
</g>

<g transform="matrix( 7, 0, 0, 7, -1651.2,-1564) ">
<use xlink:href="#Layer0_0_MEMBER_33_FILL"/>
</g>

<g transform="matrix( 7, 0, 0, 7, 461.75,337.55) ">
<use xlink:href="#Layer0_0_MEMBER_34_FILL"/>
</g>

<g transform="matrix( 7, 0, 0, 7, -1651.2,-1564) ">
<use xlink:href="#Layer0_0_MEMBER_35_FILL"/>
</g>

<g transform="matrix( 7, 0, 0, 7, 449.15,421.2) ">
<use xlink:href="#Layer0_0_MEMBER_36_FILL"/>
</g>

<g transform="matrix( 7, 0, 0, 7, 462.1,443.6) ">
<use xlink:href="#Layer0_0_MEMBER_37_FILL"/>
</g>

<g transform="matrix( 7, 0, 0, 7, 532.8,580.1) ">
<use xlink:href="#Layer0_0_MEMBER_38_FILL"/>
</g>

<g transform="matrix( 7, 0, 0, 7, 525.1,597.25) ">
<use xlink:href="#Layer0_0_MEMBER_39_FILL"/>
</g>

<g transform="matrix( 7, 0, 0, 7, 406.45,423.3) ">
<use xlink:href="#Layer0_0_MEMBER_40_FILL"/>
</g>

<g transform="matrix( 7, 0, 0, 7, -1651.2,-1564) ">
<use xlink:href="#Layer0_0_MEMBER_41_FILL"/>
</g>

<g transform="matrix( 7, 0, 0, 7, 290.6,378.15) ">
<use xlink:href="#Layer0_0_MEMBER_42_FILL"/>
</g>
</svg>
