
<svg xmlns="http://www.w3.org/2000/svg" version="1.1" xmlns:xlink="http://www.w3.org/1999/xlink" preserveAspectRatio="none" x="0px" y="0px" width="1024px" height="1024px" viewBox="0 0 1024 1024">
<defs>
<g id="Layer0_0_MEMBER_0_FILL">
<path fill="#D7D3C3" stroke="none" d="
M 73.35 344.1
L 36.2 365.7 36.2 478.4 73.35 456.8 73.35 344.1 Z"/>
</g>

<g id="Layer0_0_MEMBER_1_FILL">
<path fill="#609E2E" stroke="none" d="
M 60.05 376.8
L 58.8 380.25 58.45 375.55 57.65 377.05 57.05 382.95 54.5 376.4 52.8 379.5 51.2 378.95 49.55 381.2 47.6 378.05 46.4 383.35 45.45 384.4 43.2 377.05 41.85 381.5 42.95 386.4 42.05 390.8 43.2 397.55 41.35 403.8 43.2 413.55 42.95 421.65 40.7 418.2 39.4 424.2 37.7 421.65 36.2 435.85 36.2 478.4 73.35 456.8 73.35 402.8 72.25 405.5 67.5 405.5 65.15 410.25 63.9 407.05 63.9 399.55 62.75 395.25 63.9 390.4 62.5 385.85 63.1 380.7 61.65 376 60.05 376.8 Z"/>
</g>

<g id="Layer0_0_MEMBER_2_FILL">
<path fill="#000000" fill-opacity="0.24705882352941178" stroke="none" d="
M 10.45 8.35
L 18.5 4.5
Q 19 1.4 18.1 0.15 17.55 -0.65 9.35 2.7 5.25 4.35 1.25 6.15 -0.05 7.05 0 8.8 0.1 10.45 0.75 11.35 1.6 12.5 3.15 11.8
L 9.35 8.9 12.4 23.3
Q 10.85 23.05 10.5 23.25 9.95 23.55 8.45 28.5 7.75 30.95 7.1 33.35
L 10.65 47.95
Q 9.5 66.35 9.5 67.75
L 10.25 95.9 27.6 85.8 27.6 65.9 22.95 45.55
Q 19.85 28.2 18.8 26.3 18 24.75 13.65 23.6
L 10.45 8.35 Z"/>
</g>

<g id="Layer0_0_MEMBER_3_FILL">
<path fill="#CCC0BC" stroke="none" d="
M 47.85 12.15
Q 46 10.3 42.75 9.2 39.65 8.15 36.1 8.05 34.4 7.2 32.85 6.8
L 17.35 0 0 10.1 14.65 17.85
Q 16.6 19.7 19.75 20.8 22.9 21.9 26.45 22 29.85 23.7 34.3 24.05 38.9 24.35 42.85 23.1 47.9 21.5 49.4 18.3 50.85 15.05 47.85 12.15 Z"/>
</g>

<g id="Layer0_0_MEMBER_4_MEMBER_0_FILL">
<path fill="#492728" stroke="none" d="
M 65.95 436.3
L 64.8 435.8 65.8 442.45 66.85 442.3
Q 66.9 442.2 65.95 436.3 Z"/>
</g>

<g id="Layer0_0_MEMBER_4_MEMBER_1_FILL">
<path fill="#2F2720" stroke="none" d="
M 94.6 478.95
L 94.6 477.65 87.95 471.15 87.5 471.35 87.25 472.25
Q 87.25 472.7 87.4 473.3 87.4 473.55 90.1 477.45 90.35 478 91 478.7 91.75 479.55 92.4 479.75 93.4 480.1 94.6 478.95 Z"/>
</g>

<g id="Layer0_0_MEMBER_4_MEMBER_2_FILL">
<path fill="#D5A856" stroke="none" d="
M 94.15 474.15
Q 93.3 473.15 92.4 472.2 90.6 470.2 90.45 470.2
L 87.75 470.8 87.5 471.4
Q 87.3 472 87.45 472.15
L 90.7 477.75 91.4 478.25
Q 92.3 478.75 93 478.65 94.6 478.5 94.6 477.65
L 94.15 474.15 Z"/>
</g>

<g id="Layer0_0_MEMBER_4_MEMBER_3_FILL">
<path fill="#3761A1" stroke="none" d="
M 92.9 441.1
Q 93 437.45 92.35 435.85
L 92.05 435.4
Q 90.5 435.4 88.75 435.6 85.25 436 84.4 436.85 83.75 437.55 83.45 440.8 83.15 443.55 83.25 446.4 83.25 448.3 83.45 448.8 84.1 450.2 85.7 455.9 86 456.8 86.25 462.9
L 88.4 474
Q 88.55 474.7 89.75 476.55 91.7 477.15 92.05 477.1
L 92.5 477 94.35 476.15
Q 94.8 474.8 94.8 474.2
L 94.45 462.8
Q 94.45 462.3 93.8 458.05 93.1 453.1 92.95 452.05 92.85 451.35 92.9 451.25 92.7 445.95 92.9 441.1 Z"/>
</g>

<g id="Layer0_0_MEMBER_4_MEMBER_4_FILL">
<path fill="#17377A" stroke="none" d="
M 1.4 10.3
L 2.15 9.2
Q 2.4 8.8 3.4 6.85 4.5 4.75 4.5 4.6
L 5.45 0
Q 4.65 1.7 2.6 3.95
L 0 6.9
Q 0 8.8 0.2 9.3 0.85 10.7 2.45 16.4 2.75 17.3 3 23.4
L 5.15 34.5
Q 5.3 35.2 6.5 37.05 8.45 37.65 8.8 37.6
L 9.25 37.5 9.2 36
Q 9.25 35.8 7.7 34.95
L 7.45 33.5 8.55 30.9
Q 6.8 33.85 6.95 33.5 7 33.3 6.7 32.45
L 6.35 31.65 7.75 28.25 6.1 31.65 5.75 29.35
Q 5.7 28.85 5.9 27.5 6.1 26.25 6.1 26.15
L 5.15 27.95 4.65 26.1
Q 4.65 24.35 4.5 23.55
L 3.45 19.95 4 20.1 5.5 20.9 4 18.85
Q 3.85 18 3.65 17.15 3.25 15.45 3.05 15.4 2.8 15.35 2 13.05
L 1.4 10.3 Z"/>
</g>

<g id="Layer0_0_MEMBER_4_MEMBER_5_FILL">
<path fill="#17377A" stroke="none" d="
M 2.6 5.25
Q 2.65 3.2 2.25 1.65 2.1 1.15 1.65 0 1.3 0.15 1.45 0.25 2.45 3.75 2.2 4.5 1.95 5.3 0 7.5
L 2.2 5.7 1.3 8
Q 1.15 8.4 0.5 9.05
L 2.2 7.45 1.75 11.4
Q 1.65 12.15 0.6 15.7 1.75 12.95 2.1 11.65
L 1.8 18.05
Q 1.8 21.35 1.95 21.35
L 2.15 19
Q 2.3 16.55 2.65 16.2 2.55 15.5 2.6 15.4 2.4 10.1 2.6 5.25 Z"/>
</g>

<g id="Layer0_0_MEMBER_4_MEMBER_6_FILL">
<path fill="#2F2720" stroke="none" d="
M 78.15 473.05
L 76.1 472.5 72.25 470.4 71.75 470.95 72 472.05 73.15 472.9
Q 74.5 473.8 75.2 474.15 77.8 475.55 78.25 475.65 78.65 475.7 79.35 475.3 80.05 474.95 80.1 474.75 80.45 474.55 80.35 474.05 80.25 473.7 78.15 473.05 Z"/>
</g>

<g id="Layer0_0_MEMBER_4_MEMBER_7_FILL">
<path fill="#D5A856" stroke="none" d="
M 76.8 468.85
Q 76.75 468.75 75.05 468.5 73.45 468.25 73 468.25 72.65 468.25 72.3 468.55 72.15 468.7 71.95 468.85 71.9 468.9 71.8 469.6 71.7 470.2 71.7 470.4 71.7 471.15 71.95 471.5 72.15 471.8 73.15 472.5 74.1 473.15 74.4 473.3 78.05 475.15 78.45 475.1 79.15 475.1 80.35 474.05 80.55 472.7 80.45 472.35
L 76.8 468.85 Z"/>
</g>

<g id="Layer0_0_MEMBER_4_MEMBER_8_FILL">
<path fill="#3761A1" stroke="none" d="
M 87.05 444.15
Q 87.8 442.45 88.2 440.8 88.65 438.75 88.2 437.65 87.85 436.65 84.75 436.65
L 72.45 438.15 72.3 440.85
Q 72.2 444.1 72.3 446.8 72.4 449.8 72.9 454.1 73.35 458.05 73.6 458.85 73.95 459.95 73.95 462.7
L 74.25 472.55 75.1 473.6
Q 75.6 474.1 76.1 474.3 76.7 474.55 78 474.35 79.3 474.15 79.85 473.75
L 80.45 473.3 81.6 472.1 81.9 470.6 81.4 465.8
Q 82.55 456 82.55 454.95 82.55 454.3 83.2 451.65 83.7 449.4 83.85 449 86.3 446 87.05 444.15 Z"/>
</g>

<g id="Layer0_0_MEMBER_4_MEMBER_9_FILL">
<path fill="#17377A" stroke="none" d="
M 0.7 4.45
L 1.35 0 0.2 0.15
Q -0.1 4.5 0.05 8.8 0.15 11.8 0.65 16.1 1.1 20.05 1.35 20.85 1.7 21.95 1.7 24.7
L 2 34.55 2.85 35.6
Q 3.15 34.4 3.15 34.15 3.2 33.85 3.1 32.05 2.95 30.25 2.85 29.65 2.75 26.85 2.75 26.65
L 2.3 21.25 1.85 19.55 1.05 12.65 0.7 4.45 Z"/>
</g>

<g id="Layer0_0_MEMBER_4_MEMBER_10_FILL">
<path fill="#17377A" stroke="none" d="
M 3.4 0
Q 2.85 0.7 2.25 3.1
L 0.05 17.55 0.55 21.65 0 24.3 1.15 23.1 1.45 21.6 0.95 16.8
Q 2.1 7 2.1 5.95 2.1 4.9 3.4 0 Z"/>
</g>

<g id="Layer0_0_MEMBER_4_MEMBER_11_FILL">
<path fill="#F6562A" stroke="none" d="
M 84.2 402.7
Q 82.85 403.25 81.4 403.9 78.5 405.25 78.05 405.9 76.4 408.3 75.8 408.85 75.6 409.05 74.75 409.75 74 410.4 73.85 410.85 73.7 411.3 73.5 416.9 73.3 423 73.25 423.4
L 72.25 438.8 72.3 438.85
Q 72.45 439.15 72.85 439.65 73.35 440.2 73.6 440.35
L 73.7 440.4
Q 73.8 440.35 74.9 441.15 76.1 441.95 76.9 442.05 78.25 442.15 81.25 441.6 84.85 440.95 86.95 439.9 91.6 437.6 92.45 436.75 92.5 436.7 92.8 436.1
L 92.5 435.9
Q 92 431.5 91.15 428.85
L 90.65 427.05
Q 89.4 422.75 89.85 420.9 90.35 418.8 89.95 409.55 89.8 407.2 89.5 406.25 89 404.5 87.55 403.25 87 402.9 86.6 402.8
L 86.3 402.7 84.2 402.7 Z"/>
</g>

<g id="Layer0_0_MEMBER_4_MEMBER_12_FILL">
<path fill="#E43513" stroke="none" d="
M 0 0
Q 2.6 2 2.65 4.25
L 2.95 16.4 2.6 18.05
Q 2.1 19.8 1.6 20.45
L 1.2 21.4
Q 1.5 21.4 1.8 21.75
L 1.9 21.55 1.85 21.8
Q 2.2 22.2 2.6 23.2
L 2.95 22.35 3.5 24.35 4 24.25
Q 2.8 19.9 3.25 18.1 3.75 16 3.35 6.75 3.2 4.4 2.9 3.45 2.4 1.7 0.95 0.45 0.45 0.15 0 0 Z"/>
</g>

<g id="Layer0_0_MEMBER_4_MEMBER_13_FILL">
<path fill="#3761A1" stroke="none" d="
M 87.1 426.45
L 88.75 425.1
Q 82.15 410.45 80.6 408.8 79.65 407.75 78.05 407.7
L 76.65 407.8 75.6 409.05 76.7 408.85
Q 78.05 408.85 79.35 410.1 81.45 412.1 87.1 426.45 Z"/>
</g>

<g id="Layer0_0_MEMBER_4_MEMBER_14_FILL">
<path fill="#3761A1" stroke="none" d="
M 86.6 402.8
L 85.25 402.8 85.5 405.65
Q 85.7 408.75 85.4 410.1 85 412.3 81.1 426.75
L 83.15 426.45 87.1 410.1
Q 87.45 408.8 87.25 406.1 87.1 403.35 86.6 402.8 Z"/>
</g>

<g id="Layer0_0_MEMBER_4_MEMBER_15_FILL">
<path fill="#3761A1" stroke="none" d="
M 87.8 424.2
L 87.75 424.2
Q 87.05 424.2 85.3 424.7 83.3 425.3 82.55 425.5 81.6 425.7 80.65 427.45 80.1 428.45 79.75 429.5 79.7 429.75 76.5 429.85
L 72.75 429.95 72.25 438.85 73.4 440.25 73.7 440.4
Q 73.8 440.35 74.9 441.15 76.1 441.95 76.9 442.05 78.25 442.15 81.25 441.6 84.85 440.95 86.95 439.9 91.6 437.6 92.45 436.75 92.5 436.7 92.8 436.1
L 92.5 435.9
Q 92.15 433 91.6 430.5
L 90.65 427.05 90.6 427.05 89.55 427.3
Q 89.45 426.65 89.2 426 88.8 425 88.45 424.6
L 88.4 424.55
Q 88.1 424.2 87.8 424.2 Z"/>
</g>

<g id="Layer0_0_MEMBER_4_MEMBER_16_FILL">
<path fill="#FBC7AC" stroke="none" d="
M 77.9 389.15
Q 76.55 390 75.2 392.55
L 75 393.75 73.9 394.45 73.45 395.1
Q 73.45 395.35 74.15 395.9
L 73.65 397.3 73.45 399.55
Q 73.45 400.1 73.85 400.3 74.5 400.65 76.2 401.15
L 76.7 401.4
Q 77.25 401.7 77.35 401.95 77.55 402.3 77.8 404.35
L 77.55 406.6 78.4 405.55 80.5 405.05
Q 82.7 404.45 83.35 404.2 84.35 403.75 85 403 85.1 402.9 84.6 402.4 84.4 402.2 84.4 401.25
L 84.45 400.4
Q 84.9 398.45 85.1 396.2 85.55 391.7 84.55 390.25 83.45 388.75 81.1 388.55 79.15 388.4 77.9 389.15 Z"/>
</g>

<g id="Layer0_0_MEMBER_4_MEMBER_17_FILL">
<path fill="#492728" stroke="none" d="
M 79.5 387.55
L 78 387.9 76.3 389.1 76.9 389.7
Q 77.1 389.8 77.6 390.65 77 392.7 76.85 392.95 76.45 393.8 76.85 394.95 77.15 395.85 76.85 396.95
L 77.6 397.8 77.85 396.95
Q 77.9 396.85 77.95 396.65 78.15 396.35 78.45 396.2 78.75 396 79.3 396.15 79.55 396.25 79.75 396.35 80.75 396.95 80.95 399.1 81.15 400.3 82.1 400.85 82.6 401.2 83.3 401.2 83.8 401.2 84 401.05 84.55 400.8 84.65 400.7
L 86.05 397.9
Q 86.8 396.85 87.15 396.15 87.9 394.9 87.95 394.05 88 392.75 87.8 392 87.5 390.85 86.5 389.75 85.4 388.65 84.5 388.15 83.65 387.7 82.3 387.45 81.25 387.25 79.5 387.55 Z"/>
</g>

<g id="Layer0_0_MEMBER_4_MEMBER_18_FILL">
<path fill="#FED6C1" stroke="none" d="
M 79.75 397.15
Q 79.45 396.7 79.05 396.55 78.6 396.4 78.5 396.65 78.35 396.95 78.1 398.55 78.05 398.8 78.15 399.3 78.2 399.8 78.3 399.9 78.4 400 78.8 399.75 79.25 399.45 79.6 398.75 79.9 398.15 79.85 397.6
L 79.75 397.15 Z"/>
</g>

<g id="Layer0_0_MEMBER_4_MEMBER_19_FILL">
<path fill="#FED6C1" stroke="none" d="
M 74.6 394.6
L 74.65 394.3 73.75 394.8 74.3 395.75
Q 74.45 395.95 74.65 395.85
L 74.6 394.6 Z"/>
</g>

<g id="Layer0_0_MEMBER_4_MEMBER_20_FILL">
<path fill="#F5A480" stroke="none" d="
M 4.45 2.25
L 4.45 1.45 3.8 1.45 1.4 0.7
Q 0.15 0.35 0 0 0 0.55 0.4 0.75 1.05 1.1 2.75 1.6
L 3.25 1.85
Q 3.8 2.15 3.9 2.4 4.1 2.75 4.35 4.8
L 4.2 6.25 4.6 6.35 4.8 4.2 4.45 2.25 Z"/>
</g>

<g id="Layer0_0_MEMBER_4_MEMBER_21_FILL">
<path fill="#E43513" stroke="none" d="
M 6.2 10.15
L 6.95 7.3
Q 7.1 7.1 6.95 0
L 1.3 8.7 0.3 11.1 0 14.55
Q 1.9 14.55 3.75 14.45
L 4.65 12.7 5.5 12.15 6.95 11.85 6.2 10.15 Z"/>
</g>

<g id="Layer0_0_MEMBER_4_MEMBER_22_FILL">
<path fill="#17377A" stroke="none" d="
M 4.25 0
Q 2.4 0.1 0.5 0.1
L 0 9 1.15 10.4 1.35 10.5 1.45 10.35 0.85 7.9 1.45 4.8
Q 3.05 2.35 3.25 1.9
L 4.25 0 Z"/>
</g>

<g id="Layer0_0_MEMBER_4_MEMBER_23_FILL">
<path fill="#FD8839" stroke="none" d="
M 85.05 402.15
L 84.5 402.05 84.55 402.25 84.95 402.7 84.55 403.3
Q 83.1 404.25 82.65 404.3 82.2 404.35 80.6 404.4 78.85 404.5 78.7 404.45 77.1 404.85 77.05 404.9
L 77.25 407.05
Q 79.15 406.4 79.35 406.25 79.4 406.25 81.35 405.8 83.45 405.35 84.45 404.75 85.75 404 85.85 403.05 85.75 402.5 85.65 402.35 85.6 402.25 85.05 402.15 Z"/>
</g>

<g id="Layer0_0_MEMBER_4_MEMBER_24_FILL">
<path fill="#FBC7AC" stroke="none" d="
M 73.95 420.4
L 72.45 420.15 71.65 424.15
Q 71.3 425.4 70.25 427.45 70.1 427.7 68.5 430.55
L 67.2 432.1 67 432.2
Q 66.5 431.5 66.35 431.4 65.85 431.05 65.8 431.05
L 64.95 431.35 63.85 431.95 62.9 432.65
Q 62.7 432.95 62.8 433.3
L 62.9 434.35 63.1 434.8 63.1 434.85 63.35 435.45
Q 63.35 435.6 63.6 436.1
L 64.5 436.8
Q 65.35 436.95 66.35 436.6 66.85 436.45 67.3 436.15 67.85 435.75 68.45 435.5 69.6 434.95 71.25 434 73.25 432.8 73.7 432.25 75.4 430.15 75.7 429.45 76.2 428.35 76.95 426.4 77.95 423.65 78.1 422.55
L 78.05 422.15
Q 77.55 421 73.95 420.4 Z"/>
</g>

<g id="Layer0_0_MEMBER_4_MEMBER_25_FILL">
<path fill="#F5A480" stroke="none" d="
M 7.55 0.25
L 6.05 0
Q 5.45 3.45 5.25 4 4.9 5.25 3.85 7.3 3.7 7.55 2.1 10.4
L 0.8 11.95 0.6 12.05 0.45 12.2 0.05 13.2 0 14.65 0.35 15.25 1.5 12
Q 2.3 11.25 2.4 11.05
L 6.5 2.15
Q 9.5 3.05 9.7 3
L 11 2.55
Q 9.2 1.25 7.55 0.25 Z"/>
</g>

<g id="Layer0_0_MEMBER_4_MEMBER_26_FILL">
<path fill="#F5A480" stroke="none" d="
M 13.85 4.25
Q 14.85 1.5 15 0.4
L 14.95 0
Q 14.95 0.25 14.45 1.55 13.9 3.1 13.75 3.55 13.55 4.3 12.8 5.95 12.15 7.45 12 7.55
L 10.8 8.6 9.35 9.15 8.15 9.8
Q 8 10 9.05 10.4
L 5.95 12.55
Q 4.15 13.75 3.95 13.75
L 3.45 13.55 3.05 14.25 1.8 14.4 0.75 13.95 0 12.7 0.25 13.3
Q 0.25 13.45 0.5 13.95 1.1 14.55 1.4 14.65 2.25 14.8 3.25 14.45 3.75 14.3 4.2 14 4.75 13.6 5.35 13.35 6.5 12.8 8.15 11.85 10.15 10.65 10.6 10.1 12.3 8 12.6 7.3 13.1 6.2 13.85 4.25 Z"/>
</g>

<g id="Layer0_0_MEMBER_4_MEMBER_27_FILL">
<path fill="#FBC7AC" stroke="none" d="
M 69.2 412.55
Q 68.2 412.55 66.1 412.2 64.15 411.85 64 411.85 63.85 411.85 63.1 411.15 62.35 410.4 62.3 410.35 62.25 410.3 61.75 410.1 61.25 409.9 61 409.85
L 59.45 409.6 58.5 410 58.25 410.7 58.55 411.45 58.45 412.35 58.8 413 58.9 413.65 59.05 413.8 59.4 414.85 62.75 415.3
Q 62.9 415.3 63.35 415.25 63.8 415.2 64.05 415.3
L 73.1 417.5
Q 73.65 417.6 74.25 417.05 75.25 416.2 75.8 414.6 76.05 413.7 75.15 412.75
L 74.15 412
Q 70.85 412.55 69.2 412.55 Z"/>
</g>

<g id="Layer0_0_MEMBER_4_MEMBER_28_FILL">
<path fill="#A5A4A9" stroke="none" d="
M 54.5 380.25
L 53.3 380.25 59.55 410.1 60.1 410.25
Q 60.45 410.25 60.75 410.1
L 54.5 380.25 Z"/>
</g>

<g id="Layer0_0_MEMBER_4_MEMBER_29_FILL">
<path fill="#F5A480" stroke="none" d="
M 14.3 6.45
Q 14.85 6.55 15.45 6
L 15.05 5.95
Q 14.55 6 10.85 5.25 7.2 4.45 7.05 4.4
L 6.15 3.65 5.55 4.1 4.55 3.5 4.15 3.9 3.15 3.9
Q 2.9 3.65 3 3.55
L 3 2.95 3.75 2.6 3.35 2.4 3 1.65
Q 3.5 1.2 3.4 1 3.3 0.5 2.2 0.1 1.6 -0.1 0.4 0.1
L 0 0.3 0.75 1.2 0.3 2.9 0.6 3.8 3.95 4.25
Q 4.1 4.25 4.55 4.2 5 4.15 5.25 4.25
L 14.3 6.45 Z"/>
</g>

<g id="Layer0_0_MEMBER_4_MEMBER_30_FILL">
<path fill="#492728" stroke="none" d="
M 61.05 411.6
L 59.8 411.15 64 432.1
Q 64.15 432.25 64.4 432.1
L 65.15 431.7 61.05 411.6 Z"/>
</g>

<g id="Layer0_0_MEMBER_4_MEMBER_31_FILL">
<path fill="#FED6C1" stroke="none" d="
M 61.3 412.95
L 61.45 412.8 61.5 412.65
Q 61.5 412.45 61.15 412.2
L 61.1 412.15
Q 60.2 412.2 59.9 412.1
L 59.25 411.65 58.55 411.45 58.45 412.35 58.8 412.95 58.75 413.4
Q 58.75 413.55 59 413.85
L 59.15 414.35
Q 59.3 414.8 59.4 414.85
L 60 414.95 61.15 414.85 61.55 414.7 61.6 414.55 61.55 414.1 61.55 414.05 61.65 413.95 61.8 413.6 61.85 413.55 61.85 413.35
Q 61.85 413.2 61.55 413.1
L 61.3 412.95 Z"/>
</g>

<g id="Layer0_0_MEMBER_4_MEMBER_32_FILL">
<path fill="#F8B190" stroke="none" d="
M 3.1 2.65
L 3.1 2.6 3.2 2.5 2.1 2.6
Q 1.2 2.5 0.9 2.2
L 0.75 1.65 2.1 1.9 3.1 1.65 2.85 1.5 3 1.35 2.85 1.4
Q 2.7 1.5 1.5 1.6 0.75 1.4 0.7 1.3
L 0.3 0.35 1.75 0.85 2.7 0.75 2.65 0.7
Q 1.75 0.75 1.45 0.65 1.15 0.55 0.8 0.2
L 0.1 0 0 0.9 0.35 1.5 0.3 1.95
Q 0.3 2.1 0.55 2.4 0.75 3.35 0.95 3.4
L 1.55 3.5 2.7 3.4 3.1 3.25
Q 2.75 3.35 1.65 3.35
L 1.1 3.1 0.8 2.45 0.9 2.55 2.1 2.85 3.1 2.65 Z"/>
</g>

<g id="Layer0_0_MEMBER_4_MEMBER_33_FILL">
<path fill="#FED6C1" stroke="none" d="
M 62.7 413.55
Q 63.25 413.6 63.6 413.3 63.95 413.05 63.9 412.8 63.85 412.6 63.55 412.1 63.25 411.65 63.15 411.55
L 62.1 410.7 60.6 410.15
Q 60.35 410.05 60 410.1
L 59.7 410.15
Q 59.65 410.15 58.35 410.4 58.2 410.45 58.45 410.85 58.65 411.25 58.8 411.25
L 60.05 411.25 60.95 411.6 61.7 412.7
Q 62.05 413.15 62.7 413.55 Z"/>
</g>

<g id="Layer0_0_MEMBER_4_MEMBER_34_FILL">
<path fill="#FD8839" stroke="none" d="
M 77.3 410.05
Q 76.05 409.4 74.45 410.05
L 73.95 410.6
Q 73.4 411.3 73.2 412.25 72.95 413.7 72.15 416.85
L 71.9 421
Q 71.8 421.25 72.45 421.7 73.35 422.35 75.1 422.7 77.8 423.2 78.45 422.8 79.65 418.65 79.65 417.3 79.75 415.55 79.7 414.5 79.6 412.55 79.05 411.75 78.15 410.5 77.3 410.05 Z"/>
</g>

<g id="Layer0_0_MEMBER_5_FILL">
<path fill="#3D8CC7" stroke="none" d="
M 61.1 372.95
Q 61.2 372.15 60.8 371.3 60.35 370.4 59.7 369.9 59 369.4 58.4 369.75
L 43.75 378.1 45.8 382.4 60.7 373.9
Q 61.1 373.5 61.1 372.95 Z"/>
</g>

<g id="Layer0_0_MEMBER_6_FILL">
<path fill="#62474B" stroke="none" d="
M 46.35 381.35
Q 46.45 380.55 46.05 379.7 45.6 378.8 44.95 378.35 44.3 377.85 43.8 378.1 43.3 378.35 43.2 379.15 43.15 379.95 43.55 380.85 43.95 381.7 44.6 382.2 45.3 382.65 45.8 382.4 46.3 382.15 46.35 381.35 Z"/>
</g>

<g id="Layer0_0_MEMBER_7_FILL">
<path fill="#A5A4A9" stroke="none" d="
M 54.2 379.65
Q 53.75 379.15 53.3 379.6 53.15 379.7 53.35 380.15 53.6 380.6 53.85 380.65 54.25 380.75 54.5 380.25 54.4 379.9 54.2 379.65 Z"/>
</g>

<g id="Layer0_0_MEMBER_8_MEMBER_0_FILL">
<path fill="#A5A4A9" stroke="none" d="
M 43.5 385
L 53.7 380.3 53.35 379.55 44.05 383.8 43.45 381.7 45.05 380.6 44.55 379.9 42.45 381.35 43.5 385 Z"/>
</g>

<g id="Layer0_0_MEMBER_9_FILL">
<path fill="#8EC23A" stroke="none" d="
M 59.3 370.35
L 58.1 369.95 44.8 377.55 45.45 377.75
Q 46.1 378.1 46.4 378.9 46.8 380.15 46.8 381.15
L 47.25 381.6 47.85 380.25 48.7 380.7 60.45 374.05
Q 60.2 372.55 60 371.9
L 59.3 370.35 Z"/>
</g>
</defs>

<g transform="matrix( 7, 0, 0, 7, 28.15,-2383.35) ">
<use xlink:href="#Layer0_0_MEMBER_0_FILL"/>
</g>

<g transform="matrix( 7, 0, 0, 7, 28.15,-2383.35) ">
<use xlink:href="#Layer0_0_MEMBER_1_FILL"/>
</g>

<g transform="matrix( 7, 0, 0, 7, 321.8,229.4) ">
<use xlink:href="#Layer0_0_MEMBER_2_FILL"/>
</g>

<g transform="matrix( 7, 0, 0, 7, 393.55,830) ">
<use xlink:href="#Layer0_0_MEMBER_3_FILL"/>
</g>

<g transform="matrix( 7, 0, 0, 7, 28.15,-2383.35) ">
<use xlink:href="#Layer0_0_MEMBER_4_MEMBER_0_FILL"/>
</g>

<g transform="matrix( 7, 0, 0, 7, 28.15,-2383.35) ">
<use xlink:href="#Layer0_0_MEMBER_4_MEMBER_1_FILL"/>
</g>

<g transform="matrix( 7, 0, 0, 7, 28.15,-2383.35) ">
<use xlink:href="#Layer0_0_MEMBER_4_MEMBER_2_FILL"/>
</g>

<g transform="matrix( 7, 0, 0, 7, 28.15,-2383.35) ">
<use xlink:href="#Layer0_0_MEMBER_4_MEMBER_3_FILL"/>
</g>

<g transform="matrix( 7, 0, 0, 7, 610.9,693.15) ">
<use xlink:href="#Layer0_0_MEMBER_4_MEMBER_4_FILL"/>
</g>

<g transform="matrix( 7, 0, 0, 7, 660.25,667.6) ">
<use xlink:href="#Layer0_0_MEMBER_4_MEMBER_5_FILL"/>
</g>

<g transform="matrix( 7, 0, 0, 7, 28.15,-2383.35) ">
<use xlink:href="#Layer0_0_MEMBER_4_MEMBER_6_FILL"/>
</g>

<g transform="matrix( 7, 0, 0, 7, 28.15,-2383.35) ">
<use xlink:href="#Layer0_0_MEMBER_4_MEMBER_7_FILL"/>
</g>

<g transform="matrix( 7, 0, 0, 7, 28.15,-2383.35) ">
<use xlink:href="#Layer0_0_MEMBER_4_MEMBER_8_FILL"/>
</g>

<g transform="matrix( 7, 0, 0, 7, 533.9,682.65) ">
<use xlink:href="#Layer0_0_MEMBER_4_MEMBER_9_FILL"/>
</g>

<g transform="matrix( 7, 0, 0, 7, 591.3,759.65) ">
<use xlink:href="#Layer0_0_MEMBER_4_MEMBER_10_FILL"/>
</g>

<g transform="matrix( 7, 0, 0, 7, 28.15,-2383.35) ">
<use xlink:href="#Layer0_0_MEMBER_4_MEMBER_11_FILL"/>
</g>

<g transform="matrix( 7, 0, 0, 7, 634.35,436.25) ">
<use xlink:href="#Layer0_0_MEMBER_4_MEMBER_12_FILL"/>
</g>

<g transform="matrix( 7, 0, 0, 7, 28.15,-2383.35) ">
<use xlink:href="#Layer0_0_MEMBER_4_MEMBER_13_FILL"/>
</g>

<g transform="matrix( 7, 0, 0, 7, 28.15,-2383.35) ">
<use xlink:href="#Layer0_0_MEMBER_4_MEMBER_14_FILL"/>
</g>

<g transform="matrix( 7, 0, 0, 7, 28.15,-2383.35) ">
<use xlink:href="#Layer0_0_MEMBER_4_MEMBER_15_FILL"/>
</g>

<g transform="matrix( 7, 0, 0, 7, 28.15,-2383.35) ">
<use xlink:href="#Layer0_0_MEMBER_4_MEMBER_16_FILL"/>
</g>

<g transform="matrix( 7, 0, 0, 7, 28.15,-2383.35) ">
<use xlink:href="#Layer0_0_MEMBER_4_MEMBER_17_FILL"/>
</g>

<g transform="matrix( 7, 0, 0, 7, 28.15,-2383.35) ">
<use xlink:href="#Layer0_0_MEMBER_4_MEMBER_18_FILL"/>
</g>

<g transform="matrix( 7, 0, 0, 7, 28.15,-2383.35) ">
<use xlink:href="#Layer0_0_MEMBER_4_MEMBER_19_FILL"/>
</g>

<g transform="matrix( 7, 0, 0, 7, 542.3,413.5) ">
<use xlink:href="#Layer0_0_MEMBER_4_MEMBER_20_FILL"/>
</g>

<g transform="matrix( 7, 0, 0, 7, 537.4,524.45) ">
<use xlink:href="#Layer0_0_MEMBER_4_MEMBER_21_FILL"/>
</g>

<g transform="matrix( 7, 0, 0, 7, 533.9,625.6) ">
<use xlink:href="#Layer0_0_MEMBER_4_MEMBER_22_FILL"/>
</g>

<g transform="matrix( 7, 0, 0, 7, 28.15,-2383.35) ">
<use xlink:href="#Layer0_0_MEMBER_4_MEMBER_23_FILL"/>
</g>

<g transform="matrix( 7, 0, 0, 7, 28.15,-2383.35) ">
<use xlink:href="#Layer0_0_MEMBER_4_MEMBER_24_FILL"/>
</g>

<g transform="matrix( 7, 0, 0, 7, 492.95,557.7) ">
<use xlink:href="#Layer0_0_MEMBER_4_MEMBER_25_FILL"/>
</g>

<g transform="matrix( 7, 0, 0, 7, 469.85,571.7) ">
<use xlink:href="#Layer0_0_MEMBER_4_MEMBER_26_FILL"/>
</g>

<g transform="matrix( 7, 0, 0, 7, 28.15,-2383.35) ">
<use xlink:href="#Layer0_0_MEMBER_4_MEMBER_27_FILL"/>
</g>

<g transform="matrix( 7, 0, 0, 7, 28.15,-2383.35) ">
<use xlink:href="#Layer0_0_MEMBER_4_MEMBER_28_FILL"/>
</g>

<g transform="matrix( 7, 0, 0, 7, 439.75,494) ">
<use xlink:href="#Layer0_0_MEMBER_4_MEMBER_29_FILL"/>
</g>

<g transform="matrix( 7, 0, 0, 7, 28.15,-2383.35) ">
<use xlink:href="#Layer0_0_MEMBER_4_MEMBER_30_FILL"/>
</g>

<g transform="matrix( 7, 0, 0, 7, 28.15,-2383.35) ">
<use xlink:href="#Layer0_0_MEMBER_4_MEMBER_31_FILL"/>
</g>

<g transform="matrix( 7, 0, 0, 7, 437.3,496.8) ">
<use xlink:href="#Layer0_0_MEMBER_4_MEMBER_32_FILL"/>
</g>

<g transform="matrix( 7, 0, 0, 7, 28.15,-2383.35) ">
<use xlink:href="#Layer0_0_MEMBER_4_MEMBER_33_FILL"/>
</g>

<g transform="matrix( 7, 0, 0, 7, 28.15,-2383.35) ">
<use xlink:href="#Layer0_0_MEMBER_4_MEMBER_34_FILL"/>
</g>

<g transform="matrix( 7, 0, 0, 7, 28.15,-2383.35) ">
<use xlink:href="#Layer0_0_MEMBER_5_FILL"/>
</g>

<g transform="matrix( 7, 0, 0, 7, 28.15,-2383.35) ">
<use xlink:href="#Layer0_0_MEMBER_6_FILL"/>
</g>

<g transform="matrix( 7, 0, 0, 7, 28.15,-2383.35) ">
<use xlink:href="#Layer0_0_MEMBER_7_FILL"/>
</g>

<g transform="matrix( 7, 0, 0, 7, 28.15,-2383.35) ">
<use xlink:href="#Layer0_0_MEMBER_8_MEMBER_0_FILL"/>
</g>

<g transform="matrix( 7, 0, 0, 7, 28.15,-2383.35) ">
<use xlink:href="#Layer0_0_MEMBER_9_FILL"/>
</g>
</svg>
