
<svg xmlns="http://www.w3.org/2000/svg" version="1.1" xmlns:xlink="http://www.w3.org/1999/xlink" preserveAspectRatio="none" x="0px" y="0px" width="1024px" height="1024px" viewBox="0 0 1024 1024">
<defs>
<g id="Layer0_0_MEMBER_0_FILL">
<path fill="#CCC0BC" stroke="none" d="
M 83.5 17.4
L 83.05 14.6 75.35 13.2 63.3 6.2 64.5 6.4 64.05 3.6 56.4 2.25 52.55 0 37.75 8.55
Q 37.05 7.65 36 7.05 32.6 4.95 26.85 5.4 21.15 5.8 16.45 8.5 11.75 11.2 10.9 14.6 10 18 13.4 20.1 14.4 20.75 15.9 21.15
L 0 30.35 22.8 43.55 26.95 41.15 38.95 43.1 38.5 40.3 30.8 38.9 71.5 15.4 83.5 17.4 Z"/>
</g>

<g id="Layer0_0_MEMBER_1_MEMBER_0_FILL">
<path fill="#FD8839" stroke="none" d="
M 293.45 380.75
Q 292.65 378 292.25 377.35 291.8 376.65 291.1 376
L 290.45 375.45 288.35 380.65 291.55 386.75
Q 293.45 386.7 294.45 386.2 295.4 385.75 295.1 385.05
L 294.3 383.4
Q 294.25 383.35 293.45 380.75 Z"/>
</g>

<g id="Layer0_0_MEMBER_1_MEMBER_1_FILL">
<path fill="#2F2720" stroke="none" d="
M 292.75 443.5
L 285.15 442.1
Q 285 443 285.05 443.05 285.15 443.15 286.75 443.8 288.5 444.55 289.15 444.65 289.6 444.7 291.45 445.55 293.25 446.35 293.75 446.35 294.8 446.45 295.1 445.85 295.35 445.3 295.15 444.5 295.05 444.2 293.9 443.8
L 292.75 443.5 Z"/>
</g>

<g id="Layer0_0_MEMBER_1_MEMBER_2_FILL">
<path fill="#D5A856" stroke="none" d="
M 286.55 439.05
L 285.85 440.3
Q 285.1 441.6 285.15 442.1 285.2 442.6 286.05 442.95 286.5 443.15 287.05 443.35 287.2 443.5 291.05 444.8 293.8 445.95 294.4 445.7 295.4 445.4 295.05 444.15 294.75 442.9 293.55 442.35
L 286.55 439.05 Z"/>
</g>

<g id="Layer0_0_MEMBER_1_MEMBER_3_FILL">
<path fill="#3761A1" stroke="none" d="
M 289.85 407.7
L 289.3 404.8
Q 287.2 405.25 285.3 405.9 283.2 406.6 282.65 407.2 282.05 407.95 281.85 411.7 281.75 413.85 281.7 418.35 281.65 423.05 282.25 424.85 282.3 425 282.6 429.3 282.95 433.8 283.25 435.25 283.45 436.2 283.85 439 284.15 441 284.5 441.55
L 285.05 442.05
Q 286.25 442.75 288 442.75 288.45 442.8 289.4 442.4 290.35 441.95 290.4 441.55 290.4 441.3 290.2 439.5 289.95 437.55 289.95 436.75 289.95 435.1 290.05 431.85 290.2 427.9 290.35 427.1 290.55 426.2 290.65 424.3 290.75 422.45 290.65 421.55 290.3 413.9 290.4 412.05 290.45 410.85 289.85 407.7 Z"/>
</g>

<g id="Layer0_0_MEMBER_1_MEMBER_4_FILL">
<path fill="#17377A" stroke="none" d="
M 2.55 12.15
L 3.1 6.2
Q 4.4 1.4 3.6 0 1.5 0.7 0.95 1.3 0.35 2.05 0.15 5.8 0.05 7.95 0 12.45 -0.05 17.15 0.55 18.95 0.6 19.1 0.9 23.4 1.25 27.9 1.55 29.35 1.75 30.3 2.15 33.1 2.45 35.1 2.8 35.65
L 3.35 36.15 3.15 35.4
Q 2.65 32.7 2.65 32.55 4 34.6 3.85 34.25
L 2.75 32 2.45 29.9 3.8 31.65 5.35 33 3.9 30.45
Q 3.6 29.05 3.75 28.55 3.85 28.25 4.15 27.95
L 4.45 27.75 3.45 27.25 3.75 25.9 5.2 25.55 3.4 24.4
Q 3 21.95 3.25 21.3 3.35 20.95 3.8 21 4.35 21.1 4.4 21.1 4.65 21 4.7 19.4
L 5.15 16.25 2.55 12.15 Z"/>
</g>

<g id="Layer0_0_MEMBER_1_MEMBER_5_FILL">
<path fill="#2F2720" stroke="none" d="
M 279.05 451.4
L 279.05 450.95 273.05 446.1 272.55 446.5 272.45 446.95
Q 272.35 447.4 272.45 447.65 272.65 448 273.6 450.8 273.85 451.25 274.65 451.75 275.5 452.2 276.35 452.35 277.15 452.55 277.9 452.4 278.55 452.3 278.8 452.05 279 451.9 279.05 451.4 Z"/>
</g>

<g id="Layer0_0_MEMBER_1_MEMBER_6_FILL">
<path fill="#D5A856" stroke="none" d="
M 276.95 445
L 272.45 443.9 272.55 445.95 273.3 448.95
Q 273.7 450.2 274.05 450.65 275.1 451.95 276.45 452.1 278.5 452.2 278.95 451.45 279.4 450.65 278.2 448.45 277.8 447.65 277.35 446.25
L 276.95 445 Z"/>
</g>

<g id="Layer0_0_MEMBER_1_MEMBER_7_FILL">
<path fill="#3761A1" stroke="none" d="
M 284.6 412.85
Q 285.45 409.8 285.6 408.05 285.7 406.45 272.7 405.6
L 271.75 405.55 271.75 405.6
Q 271.35 407.3 271.15 408.2 270.65 410.8 270.75 412.45 270.9 415.25 271.75 426.35 271.75 426.55 271.45 430.6 271.1 434.95 271.15 436.45 271.3 443.1 271.2 443.85 271.2 444.2 271.85 445 272.7 446.15 273.4 446.2 275.75 446.35 276.6 446.15 277.3 446 278.2 444.3 279.3 439.25 279.3 437.2
L 279.3 429.9
Q 279.4 426.25 279.85 424.75 280.35 423.05 281.7 419.8
L 282.95 417
Q 284.6 413.35 284.6 412.85 Z"/>
</g>

<g id="Layer0_0_MEMBER_1_MEMBER_8_FILL">
<path fill="#17377A" stroke="none" d="
M 3.3 11.7
Q 3.4 8.05 3.85 6.55 4.35 4.85 5.7 1.6
L 5.3 0 1.8 2.3 0 11.3 0.7 14.9
Q 2.3 14.2 2.25 13.9 3.25 11.75 3.3 11.7 Z"/>
</g>

<g id="Layer0_0_MEMBER_1_MEMBER_9_FILL">
<path fill="#17377A" stroke="none" d="
M 2 0
L 1 0.45
Q -0.15 4.65 0 7.3 0.15 10.1 1 21.2 1 21.4 0.7 25.45 0.35 29.8 0.4 31.3 0.55 37.95 0.45 38.7 0.45 39.05 1.1 39.85
L 1.2 33.4
Q 1.35 32 1.5 30.55 1.8 27.65 1.75 27.4 1.7 27.1 1.65 24.4 1.6 21.75 1.65 21.25 1.7 20.65 1.35 15.35
L 2.8 22.2 2.45 16.35 1.45 11.2
Q 1.35 10.9 1.4 5
L 2 0 Z"/>
</g>

<g id="Layer0_0_MEMBER_1_MEMBER_10_FILL">
<path fill="#F6562A" stroke="none" d="
M 395.1 240.95
L 386.7 238.5 347.5 231.15 327.2 244.45
Q 325.45 245.15 311.1 255.3 296.4 265.45 294.3 267.55 292.9 268.95 285.55 274.9 278.55 281.55 275.75 288.9 271.55 300.1 284.15 369.4
L 284.85 380.6
Q 285.2 390.75 284.15 393.55
L 267.7 439.4
Q 267.35 440.8 264.55 445.35 261.75 450.6 261.05 456.2 260 463.2 266.3 471.6 272.95 480 282.75 484.2
L 294.3 488.4
Q 312.5 493.65 329.3 494.7 346.1 495.4 359.05 490.85 388.8 480 396.5 456.2 397.9 451.3 397.9 440.45 398.25 426.1 400.35 409.3 402.8 391.1 407.35 370.1 411.2 350.85 411.55 348.4 416.45 312.35 417.5 302.55 419.95 267.2 410.85 253.55 404.9 244.8 395.1 240.95 Z"/>
</g>

<g id="Layer0_0_MEMBER_1_MEMBER_11_FILL">
<path fill="#C5FD4B" stroke="none" d="
M 418.2 280.85
Q 418.2 266.5 411.55 254.95 406.3 246.2 399.65 243.05 394.75 240.95 392.65 241.3 391.25 241.3 390.2 242.35 389.85 242.7 389.5 243.05
L 393 255.65
Q 396.15 269.65 393.35 275.25 391.25 279.8 387.75 286.8 384.95 291.7 385.3 294.85 385.3 296.6 382.15 361.7 379 426.1 379.7 431.35 380.4 437.65 392.65 432.75 404.2 427.85 409.45 421.55 412.6 417.7 411.2 401.6
L 410.5 384.1
Q 410.5 372.9 411.55 367.65 414 354.35 416.1 324.6 418.2 296.95 418.2 280.85 Z"/>
</g>

<g id="Layer0_0_MEMBER_1_MEMBER_12_MEMBER_0_FILL">
<path fill="#9AC2D5" stroke="none" d="
M 290.85 383.55
Q 290.95 382.55 291.3 381.65 292.3 379.1 291.8 376.9 291.05 375.65 290.1 375.2 289.4 374.9 289.1 374.95
L 288.95 375.1
Q 291.05 377.55 289.7 381 289.25 382.05 289.15 383.45
L 288.35 397.7
Q 288.35 398.8 289.15 399.2
L 289.65 399.3
Q 290.25 399.3 290.9 398.7
L 291.75 397.85 291.65 395.35
Q 290.15 397.05 290.1 397.05
L 290.85 383.55 Z"/>
</g>

<g id="Layer0_0_MEMBER_1_MEMBER_13_FILL">
<path fill="#C5FD4B" stroke="none" d="
M 331.05 243.05
Q 331.05 242.7 330 242.35 328.6 242.35 324.75 244.8
L 303.4 257.75
Q 288.35 267.2 286.25 269.3 283.45 272.45 279.6 280.85
L 288 272.8 295.7 272.1
Q 305.85 273.85 316 287.5 327.55 302.55 332.45 329.15 336.3 352.25 334.9 378.5 333.85 398.45 309.35 396.7
L 285.2 390.75 269.1 428.55
Q 268.4 432.4 289.75 443.25 313.55 455.5 330.7 452 352.05 447.8 357.3 440.1 364.3 429.95 368.15 389 375.85 305.7 372.35 302.2 370.6 298.7 369.2 296.25 366.75 291.35 360.1 287.15 332.8 269.65 327.2 260.2 323.7 254.25 327.2 247.95
L 331.05 243.05 Z"/>
</g>

<g id="Layer0_0_MEMBER_1_MEMBER_14_MEMBER_0_FILL">
<path fill="#9AC2D5" stroke="none" d="
M 353.45 290.3
Q 330.7 272.45 324.4 265.45 317.07265625 257.0759765625 317.05 253.55 317.0390625 254.25 316.35 254.25
L 315.3 250.4 303.4 257.75
Q 304.8 265.1 313.55 274.9 323 285.4 345.05 301.85
L 352.4 307.45
Q 352.4 325.65 349.25 367.65 345.75 416.65 341.9 422.95 340.5 424.35 334.2 425.05 326.85 425.75 317.4 424.35 291.15 420.15 283.45 405.8
L 280.65 401.25 273.65 417.35
Q 288 436.6 321.95 439.4
L 328.95 439.75
Q 347.15 439.75 353.1 432.05 359.75 423.65 363.95 363.1 366.75 304.3 366.75 303.6 366.4 300.45 363.25 297.65 360.8 295.2 353.45 290.3 Z"/>
</g>

<g id="Layer0_0_MEMBER_1_MEMBER_15_FILL">
<path fill="#17377A" stroke="none" d="
M 2.75 10.45
Q 6.1 7.05 6.35 6.55 6.6 6.05 5 0.9 2.6 0.75 0 0
L 2.75 10.45 Z"/>
</g>

<g id="Layer0_0_MEMBER_1_MEMBER_16_FILL">
<path fill="#E43513" stroke="none" d="
M 293.6 485.6
L 294.3 488.4
Q 312.5 493.65 329.3 494.7
L 329.6 452.2
Q 312.9642578125 455.092578125 290.15 443.45
L 293.6 485.6
M 332.45 365.2
L 333.15 352.95 321.25 331.25
Q 313.2 330.55 299.55 365.9
L 288 391.45 309.35 396.7
Q 317.884765625 397.3095703125 323.55 395.25 325.200390625 373.798046875 325.8 370.8 326.15 368.35 329.3 366.6 331.05 365.55 332.45 365.2 Z"/>

<path fill="#8F785B" stroke="none" d="
M 317.4 424.35
Q 296.73359375 421.043359375 287.55 411.45
L 289.1 430.6
Q 302.2298828125 437.7736328125 321.95 439.4
L 328.25 439.7 326.2 425.2
Q 322.05 425.0388671875 317.4 424.35 Z"/>

<path fill="#B79D20" stroke="none" d="
M 289.1 430.6
L 290.15 443.45
Q 312.9642578125 455.092578125 329.6 452.2
L 329.65 449.2 328.25 439.7 321.95 439.4
Q 302.2298828125 437.7736328125 289.1 430.6
M 288 391.45
L 286.25 395.3 287.55 411.45
Q 296.73359375 421.043359375 317.4 424.35 322.05 425.0388671875 326.2 425.2
L 323 403
Q 323.301171875 398.8833984375 323.55 395.25 317.884765625 397.3095703125 309.35 396.7
L 288 391.45 Z"/>
</g>

<g id="Layer0_0_MEMBER_1_MEMBER_17_FILL">
<path fill="#FBC7AC" stroke="none" d="
M 281.5 377.1
Q 281.65 377.4 282.75 378.2 283.85 379 284.55 379.25 285.85 379.7 286.7 379.05 287.35 378.55 287.55 376.2 286.5 375.3 285.25 374.45 282.8 372.75 282 373.1
L 281.55 374.1
Q 281.3 374.5 280.5 375.25 280.45 375.3 281.5 377.1 Z"/>
</g>

<g id="Layer0_0_MEMBER_1_MEMBER_18_FILL">
<path fill="#FD8839" stroke="none" d="
M 338.4 240.6
L 339.45 236.4 335.25 237.45 327.2 244.45 328.95 253.2
Q 331.75 262.65 338.75 268.25 349.95 276.65 364.3 282.95
L 367.45 272.8 380.4 282.95 387.05 259.85
Q 380.75 266.5 369.2 268.95 361.5 270.35 349.95 260.55 339.8 251.8 338.4 247.6 337.7 245.15 338.4 240.6 Z"/>
</g>

<g id="Layer0_0_MEMBER_1_MEMBER_19_FILL">
<path fill="#F7702A" stroke="none" d="
M 381.8 264.1
Q 376.568359375 267.3869140625 369.2 268.95 364.0576171875 269.8849609375 357.2 265.8
L 365.1 280.35 367.45 272.8 380.4 282.95 387.05 259.85
Q 384.769140625 262.2576171875 381.8 264.1 Z"/>

<path fill="#F5A480" stroke="none" d="
M 347.5 247.95
L 357.2 265.8
Q 364.0576171875 269.8849609375 369.2 268.95 376.568359375 267.3869140625 381.8 264.1
L 381.8 242.7
Q 347.5 241.6240234375 347.5 247.95 Z"/>

<path fill="#F04720" stroke="none" d="
M 389.5 243.05
Q 385.45546875 242.8478515625 381.8 242.7
L 381.8 264.1
Q 384.769140625 262.2576171875 387.05 259.85
L 380.4 282.95 367.45 272.8 365.1 280.35 365.35 280.85
Q 366.75 282.25 372 285.4 378.65 289.25 380.75 288.55 382.85 287.85 389.85 279.8 391.7796875 277.44140625 393.15 275.6 393.2681640625 275.42734375 393.35 275.25 396.15 269.65 393 255.65
L 389.5 243.05 Z"/>

<path fill="#C0D138" stroke="none" d="
M 396.85 270
Q 397.55 266.85 396.85 250.75 392.3 243.4 389.5 243.05
L 393 255.65
Q 396.15 269.65 393.35 275.25 393.2681640625 275.42734375 393.15 275.6 396.364453125 271.4568359375 396.85 270 Z"/>
</g>

<g id="Layer0_0_MEMBER_1_MEMBER_20_FILL">
<path fill="#FBC7AC" stroke="none" d="
M 282.5 368.45
Q 282.5 368.65 282.05 370.9 281.85 371.65 282 373.25 282.2 375.05 282.7 376.05 283.25 377.05 284.6 378.5 285.85 379.85 286.1 379.9 286.35 380 287.05 379.95 287.75 379.9 287.85 379.8 289.1 378.7 289.6 378.05 289.95 377.65 290.65 376.3 291.3 375.1 291.45 374.7
L 292.4 370.1
Q 292.35 367.95 288.3 366.95 284.95 366.15 283.55 366.5 283 366.6 282.5 368.45 Z"/>
</g>

<g id="Layer0_0_MEMBER_1_MEMBER_21_FILL">
<path fill="#492728" stroke="none" d="
M 282.4 365.6
Q 281.8 366.75 281.65 368.75 281.45 371.15 281.7 371.75 281.8 371.55 281.9 371.35 282.1 370.95 282.15 371 282.25 371.05 282.5 371.45 282.75 371.85 282.75 372.1 282.8 372.5 282.6 374.1
L 282.95 374.8 283.3 373.15 284.2 372.8 285.05 372
Q 285.25 371.65 285.5 371.3 286 370.65 286.3 370.6 286.4 370.6 287.05 370.9 287.75 371.2 288.65 371.3 290.3 371.45 291.45 370.85 291.6 370.75 291.7 370.65 291.95 370.45 292 370.55 292.1 370.75 291.9 372.6 292.9 370.9 292.9 368.55 292.9 365.35 291.15 364.05 290.2 363.3 288.15 363 285.9 362.7 284.5 363.45 283.05 364.2 282.4 365.6 Z"/>
</g>

<g id="Layer0_0_MEMBER_1_MEMBER_22_FILL">
<path fill="#FED6C1" stroke="none" d="
M 282.4 373.7
Q 282.6 373.7 282.65 372.95 282.7 372.1 282.7 371.95 282.75 371.7 282.3 371.15 281.85 370.6 281.7 370.6 281.35 370.6 281.25 371.2 281.1 371.8 281.65 373.3 281.85 373.7 282.4 373.7 Z"/>
</g>

<g id="Layer0_0_MEMBER_1_MEMBER_23_FILL">
<path fill="#FED6C1" stroke="none" d="
M 290.45 372.3
Q 290.65 372.05 290.05 372 289.25 372 286.85 371.4 286.3 371.25 285.85 372.35 285.4 373.45 285.8 373.75 286.3 374.15 288.25 374.4 289.2 374.3 289.45 374.05
L 290.45 372.3 Z"/>
</g>

<g id="Layer0_0_MEMBER_1_MEMBER_24_FILL">
<path fill="#C7C7CE" stroke="none" d="
M 282.9 376.4
L 283.25 373.85 284.45 371.4 283.5 371.25 282.55 373.55 282.5 375.55 282.9 376.4 Z"/>
</g>

<g id="Layer0_0_MEMBER_1_MEMBER_25_FILL">
<path fill="#FECA3A" stroke="none" d="
M 281.75 366
L 281.75 366.05
Q 281.6 366.8 281.6 366.9
L 281.7 367.6
Q 281.85 368.4 282.15 369.2 283.2 371.8 285.05 372.65 287.05 373.6 289.55 373.6 291.7 373.55 292.4 373.05 292.9 372.65 293.2 371.2 293.8 368.4 292.85 365.7
L 292.5 364.9
Q 291.4 362.65 287.75 362.35
L 286.4 362.35
Q 282.65 362.65 281.75 366 Z"/>
</g>

<g id="Layer0_0_MEMBER_1_MEMBER_26_FILL">
<path fill="#FDBD3A" stroke="none" d="
M 285.4 372.4
L 284.05 372 284.6 373.25
Q 285.5 374.6 286.95 374.95 288.55 375.3 290.5 375.1 292.15 374.95 292.75 374.6 293.4 374.3 292.8 372.45 291.55 372.8 288.85 372.8 287.05 372.8 285.4 372.4 Z"/>
</g>

<g id="Layer0_0_MEMBER_1_MEMBER_27_FILL">
<path fill="#FEDB52" stroke="none" d="
M 292.5 364.9
Q 291.8 363.4 289.8 362.75 288.55 362.35 287.2 362.35
L 286.4 362.35 285.45 362.65 284.35 363.75
Q 283.6 365.25 285.05 367.45 286.6 369.75 289.8 369.7 292.45 369.7 293.05 368.85 293.25 368.6 293.2 367.7 293.15 366.75 292.85 365.7
L 292.5 364.9 Z"/>
</g>

<g id="Layer0_0_MEMBER_1_MEMBER_28_FILL">
<path fill="#FDA529" stroke="none" d="
M 291.9 369.4
Q 292.1 365.6 291.9 364.75 291.8 364.25 290.75 363.45
L 289.7 362.7 290.25 363.55
Q 290.8 364.55 291.05 365.25 291.45 366.35 291.9 369.4 Z"/>
</g>

<g id="Layer0_0_MEMBER_1_MEMBER_29_FILL">
<path fill="#FDA529" stroke="none" d="
M 289.95 369.7
L 290.8 367.25 288.65 362.65 287.2 362.35 287.8 362.9
Q 288.5 363.7 288.95 364.65 289.65 366.25 289.95 369.7 Z"/>
</g>

<g id="Layer0_0_MEMBER_1_MEMBER_30_FILL">
<path fill="#FDA529" stroke="none" d="
M 287.25 369.25
L 287.4 365.85 285.7 362.65 284.9 362.7 285.45 363.4
Q 286 364.25 286.3 364.9 286.75 366 287.25 369.25 Z"/>
</g>

<g id="Layer0_0_MEMBER_1_MEMBER_31_FILL">
<path fill="#FDA529" stroke="none" d="
M 281.6 366.9
L 281.7 367.6
Q 281.85 368.4 282.15 369.2 282.45 367.5 283.05 365.65 283.7 363.75 285.2 362.9 286.10859375 362.3740234375 287.2 362.35
L 286.4 362.35
Q 282.15 362.8 281.6 366.9 Z"/>
</g>

<g id="Layer0_0_MEMBER_1_MEMBER_32_FILL">
<path fill="#FEE152" stroke="none" d="
M 281.8 365.8
L 282.05 367.95 282.5 369
Q 283 370.1 283.3 370.45 284.15 371.5 287.1 372.5 288.35 372.95 290.35 372.85 292.05 372.75 292.4 372.5 292.75 372.3 293.15 371.4
L 293.2 371.2
Q 291.95 372.05 290.2 372.15 286.05 372.35 283.7 369.9 283 369.15 282.35 367.3
L 281.9 365.6 281.8 365.8 Z"/>
</g>

<g id="Layer0_0_MEMBER_1_MEMBER_33_FILL">
<path fill="#FDA529" stroke="none" d="
M 282.45 368
Q 281.85 365.95 281.8 365.8 281.75 366.1 281.6 366.9
L 281.7 367.6
Q 281.85 368.4 282.15 369.2 283.2 371.8 285.05 372.65 287.05 373.6 289.55 373.6 291.7 373.55 292.4 373.05 292.9 372.65 293.15 371.4 292.75 372.2 290.15 372.3 287.1 372.45 284.6 370.95 283.3 370.2 282.45 368 Z"/>
</g>

<g id="Layer0_0_MEMBER_1_MEMBER_34_FILL">
<path fill="#FEE152" stroke="none" d="
M 286 362.4
L 284.9 362.7 285.6 363.3
Q 286.35 364.15 286.65 365.35 287.15 367.3 287.25 369.25
L 287.65 369.45
Q 288.15 369.6 288.75 369.65 288.5 366.75 288.35 365.85 288.2 364.9 287.8 364.1 287.45 363.35 286.7 362.8
L 286 362.4 Z"/>
</g>

<g id="Layer0_0_MEMBER_1_MEMBER_35_FILL">
<path fill="#FEE152" stroke="none" d="
M 290.55 364.75
Q 290 363.35 288.9 362.5 288.35 362.35 287.7 362.35
L 287.2 362.35 287.6 362.5
Q 288.15 362.85 288.75 363.7 289.8 365.05 289.95 369.7 290.5 369.7 291.25 369.55 291.25 368.4 291.05 367.05 290.85 365.55 290.55 364.75 Z"/>
</g>

<g id="Layer0_0_MEMBER_1_MEMBER_36_FILL">
<path fill="#FEE152" stroke="none" d="
M 291.9 369.4
L 292.75 369.1
Q 292.8 368.35 292.7 367.05 292.5 364.75 291.4 363.55 291 363.15 290.3 362.9
L 289.7 362.7 290.25 363.2
Q 290.9 363.95 291.25 365.1 291.85 366.95 291.9 369.4 Z"/>
</g>

<g id="Layer0_0_MEMBER_1_MEMBER_37_FILL">
<path fill="#FED6C1" stroke="none" d="
M 288.8 375.45
Q 288.7 375.65 288.6 375.95 287.9 376.6 287.65 376.7 287.45 376.8 287.85 377.2 288.05 377.4 288.3 377.6
L 288.8 377.65 288.95 375.4
Q 289 375 288.8 375.45 Z"/>
</g>

<g id="Layer0_0_MEMBER_1_MEMBER_38_FILL">
<path fill="#FED6C1" stroke="none" d="
M 286.45 376.8
Q 287.05 376.4 285.75 376.4 285.65 376.4 285 375.7 284.35 374.95 284.25 374.65
L 283.6 373.65 283.5 374.85
Q 283.45 375.35 283.9 376.15 284.25 376.85 284.7 377.3 285.25 377.8 286.45 376.8 Z"/>
</g>

<g id="Layer0_0_MEMBER_2_MEMBER_0_FILL">
<path fill="#2F2720" stroke="none" d="
M 322.6 430.8
L 322.15 431.85
Q 321.8 432.95 322.4 433.45 323.3 434.2 326.35 435.7
L 327.55 436.8
Q 328.8 437.85 329.3 437.9 329.9 437.95 330.55 437.6 331.2 437.25 331.25 436.9 331.4 435.15 330.5 434.55
L 327.15 431.65 322.6 430.8 Z"/>
</g>

<g id="Layer0_0_MEMBER_2_MEMBER_1_FILL">
<path fill="#D5A856" stroke="none" d="
M 322.65 430.4
L 322.2 431.4
Q 321.85 432.55 322.4 433 323.35 433.8 326.35 435.25
L 327.55 436.35
Q 328.85 437.45 329.3 437.5 329.9 437.55 330.6 437.2 331.25 436.85 331.3 436.45 331.35 435.9 331.2 435.25 330.95 434.45 330.5 434.15 330.05 433.85 328.6 432.5
L 327.2 431.2 322.65 430.4 Z"/>
</g>

<g id="Layer0_0_MEMBER_2_MEMBER_2_FILL">
<path fill="#3761A1" stroke="none" d="
M 317.45 403.3
L 317.65 405.2
Q 317.65 405.55 318.2 407.3 318.75 409.05 319.1 409.9 319.45 410.7 319.85 416.15 320.25 421.25 320.2 422.2 320.1 423.1 320.55 430.35
L 321.75 431.65
Q 322.35 432.35 322.85 432.55 323.4 432.9 324.55 433 325.5 433.05 325.85 432.95 327.75 432.4 327.65 431.35 327.55 430.1 327.75 417.8 328.6 404.8 328.4 401.3 328.3 399.1 327.45 396.9
L 326.6 395.15
Q 321.2 394.85 318.7 395.3 316.65 395.65 317.45 403.3 Z"/>
</g>

<g id="Layer0_0_MEMBER_2_MEMBER_3_FILL">
<path fill="#17377A" stroke="none" d="
M 3.3 11.65
Q 3 8.55 2.65 7.05 2.25 5 2 0.75 1 0.25 0 0
L 0.2 1.9
Q 0.2 2.25 0.75 4 1.3 5.75 1.65 6.6 2 7.4 2.4 12.85 2.8 17.95 2.75 18.9 2.65 19.8 3.1 27.05
L 4.3 28.35
Q 4.25 26.2 3.85 25.55 3.55 25.15 3.75 24.5
L 3.95 23.95 5.95 26.65
Q 4.95 23.85 4.65 23.35 4.45 23.1 4 21.25 3.55 19.25 3.5 19.2 3.45 18.95 3.65 18.9 3.8 18.85 3.9 18.85 3.55 17.25 3.6 15.75 3.65 14.65 3.3 11.65 Z"/>
</g>

<g id="Layer0_0_MEMBER_2_MEMBER_4_FILL">
<path fill="#2F2720" stroke="none" d="
M 313.2 434.2
Q 310.75 433.6 310.6 434.15 310.5 434.65 310.8 435.9 311.15 437.2 311.1 437.45 311.05 437.9 311.15 438.95 311.25 440 311.4 440.6 311.6 441.35 314.6 441.75 316 441.65 316.15 441.3 316.3 441 316.05 439.8 315.85 438.6 315.6 438.3 315.45 438.05 315.5 436.5
L 315.6 434.95
Q 314.4 434.55 313.2 434.2 Z"/>
</g>

<g id="Layer0_0_MEMBER_2_MEMBER_5_FILL">
<path fill="#D5A856" stroke="none" d="
M 313.25 433.7
Q 310.8 433.1 310.65 433.65 310.55 434.15 310.85 435.4 311.2 436.75 311.15 437 310.9 438 311.45 440.1 311.65 440.85 314.65 441.3 316 441.2 316.2 440.8 316.35 440.55 316.1 439.35 315.9 438.15 315.65 437.8 315.45 437.55 315.55 436
L 315.65 434.45
Q 314.45 434.05 313.25 433.7 Z"/>
</g>

<g id="Layer0_0_MEMBER_2_MEMBER_6_FILL">
<path fill="#3761A1" stroke="none" d="
M 317.05 417.1
Q 317.35 410.75 317.95 408.3 318.25 407.1 319 405.25 319.65 403.7 319.7 403
L 319.85 395.7 308.3 396.25 307.95 401.15
Q 307.7 406.55 308.25 408.9 309.05 412.65 309.55 422.95 309.55 423.2 309.4 431.35 309.3 432.6 310.7 434.7
L 311 435.15
Q 315.15 435.45 315.75 435.05 316.35 434.6 316.75 431.75
L 317.05 417.1 Z"/>
</g>

<g id="Layer0_0_MEMBER_2_MEMBER_7_FILL">
<path fill="#17377A" stroke="none" d="
M 6.7 8.75
Q 4.9 5.25 4.9 4.3
L 4.8 0 0.4 0.2
Q -0.5 9.1 0.35 12.85 1.15 16.6 1.65 26.9 1.65 27.15 1.5 35.3 1.4 36.55 2.8 38.65
L 2.2 35.7 2.2 30.3 2.9 31.3 3 28.05 4.25 29.05 4.05 25.6
Q 4.4 21.95 4.6 21.3 4.75 20.9 4.75 18.85
L 4.7 16.9 5.95 17.35 6.5 14.9 7.45 12.65
Q 7.7 11.9 6.7 8.75 Z"/>
</g>

<g id="Layer0_0_MEMBER_2_MEMBER_8_FILL">
<path fill="#345F7F" stroke="none" d="
M 330.2 367.5
Q 329.4 367.05 327 366.15 324.2 365.1 323.15 365 318.2 364.7 316.4 365.15
L 315.1 365.55 312.6 366.85
Q 310.05 368.2 309.75 368.55 309.25 369.15 311.05 377
L 311.5 379.05
Q 311.95 381.2 310.55 384.4 309.85 386 309.05 387.65 309 388.2 308.6 390.75 308.25 393.25 308.15 393.55
L 307.5 396.7 307.7 397.1
Q 308.1 397.65 309.15 398.25 310.6 399.05 312.35 399.75 315.6 401 319.4 400.6 322.25 400.3 323.6 399.55 324.8 398.9 327.8 396.2 327.85 396.1 327.6 395.25 327.4 394.5 327.3 394.25 327.1 393.85 326.85 392.3 326.55 390.4 326.75 389.35 327.3 387.55 327.6 386.4 328.15 384.35 328.05 382.4 329.2 376.9 329.75 374.85 330.25 372.95 330.5 370.6 330.75 367.8 330.2 367.5 Z"/>
</g>

<g id="Layer0_0_MEMBER_2_MEMBER_9_FILL">
<path fill="#17377A" stroke="none" d="
M 3.05 8.55
Q 2.35 10.15 1.55 11.8 1.5 12.35 1.1 14.9 0.75 17.4 0.65 17.7
L 0 20.85
Q -0.05 21.4 1.65 22.4
L 4.85 23.9 6.1 19.2 6.7 14.15
Q 7.1 8.35 7.1 7.5 7.05 6.7 4.55 0
L 3.55 1.15 4 3.2
Q 4.45 5.35 3.05 8.55 Z"/>
</g>

<g id="Layer0_0_MEMBER_2_MEMBER_10_FILL">
<path fill="#FBC7AC" stroke="none" d="
M 324.6 367.6
Q 324.65 367.1 324.6 365.95
L 324.5 364.55 325.1 359.55 322.25 360.9
Q 319.4 362.35 319.35 362.65 319.35 362.9 318.8 365.15 318.35 367.5 318.55 368.35 318.8 369.2 319.25 369.6
L 320.05 370.05
Q 320.6 370.3 322.1 370.7
L 322.95 370.6
Q 324.5 368.45 324.6 367.6 Z"/>
</g>

<g id="Layer0_0_MEMBER_2_MEMBER_11_FILL">
<path fill="#FED6C1" stroke="none" d="
M 324.6 367.6
L 324.55 365.8 321.85 370.65
Q 322.85 370.05 323.15 369.7
L 324.45 368.1 324.6 367.6 Z"/>
</g>

<g id="Layer0_0_MEMBER_2_MEMBER_12_FILL">
<path fill="#5099C5" stroke="none" d="
M 600.2 197.2
L 597.4 191.95 595.65 196.15
Q 594.25 200.7 594.6 201.75 594.95 202.45 594.95 205.25 596 208.4 601.25 211.55 609.3 216.8 617.7 221
L 623.65 212.6 631.35 221
Q 642.2 211.55 643.95 206.3 651.3 182.15 640.8 173.75
L 641.15 180.05 633.1 200.35
Q 628.9 208.4 623.65 209.8 612.45 208.05 607.2 204.55 604.05 202.45 600.2 197.2 Z"/>
</g>

<g id="Layer0_0_MEMBER_2_MEMBER_13_FILL">
<path fill="#F5A480" stroke="none" d="
M 597.2 192.45
L 597.4 191.95 600.2 197.2
Q 602.42421875 200.233203125 604.4 202.2 608.370703125 200.8974609375 613.5 198.25 623.3 192.65 625.4 189.15 627.5 184.25 632.4 163.6
L 618.05 173.4 596.2 172.95 597.2 192.45 Z"/>

<path fill="#4E7E93" stroke="none" d="
M 597.4 191.95
L 597.2 192.45 595.65 196.15
Q 594.25 200.7 594.6 201.75 594.796875 202.14375 594.85 203.2 596.0224609375 203.5 597.05 203.5 600.0025390625 203.6845703125 604.4 202.2 602.42421875 200.233203125 600.2 197.2
L 597.4 191.95 Z"/>

<path fill="#324E5F" stroke="none" d="
M 577.45 174.45
Q 580.6 187.75 583.4 193.35 585.85 197.55 589.7 200.7 592.530078125 202.58671875 594.85 203.2 594.796875 202.14375 594.6 201.75 594.25 200.7 595.65 196.15
L 597.2 192.45 596.2 172.95 584.45 172.7 577.45 174.45 Z"/>
</g>

<g id="Layer0_0_MEMBER_2_MEMBER_14_FILL">
<path fill="#FBC7AC" stroke="none" d="
M 323.7 356.7
Q 323.55 356.55 321.7 355.45 319.65 354.2 319.2 354.2 318.65 354.2 317.25 355.25 315.9 356.3 315.55 357 315.05 358 315.2 360.75 315.2 361 315.35 363.2 315.45 364.7 316.4 367.6 316.75 368.8 318 369.1 318.55 369.25 320.4 368.35 322.05 367.6 322.45 367.25 322.8 366.95 323.85 364.1 324.55 362.35 324.2 359.4 323.7 356.75 323.7 356.7 Z"/>
</g>

<g id="Layer0_0_MEMBER_2_MEMBER_15_FILL">
<path fill="#492728" stroke="none" d="
M 324.5 361.45
Q 324.9 361.1 325.2 361.55 325.35 361.75 325.45 362.05
L 326.55 357.65
Q 326.75 356.75 326.55 355.7 326.25 354.3 325.35 353.6 324.15 352.6 322.3 352.1 320.1 351.45 318.65 352.05 317.15 352.65 316.15 353.9 315.25 355 315.15 356.1 315 357.5 315.2 359
L 315.3 358.05
Q 315.3 357.85 315.55 357.6
L 315.75 357.45 316.1 357.95
Q 316.65 358.45 317.55 358.75 319.15 359.25 320.65 358.5 320.8 358.4 321.3 359.15 321.75 359.95 321.7 360.35 321.65 361 322.25 362.15
L 322.65 363.25 323.2 363.3 323.55 362.8
Q 323.9 361.95 324.5 361.45 Z"/>
</g>

<g id="Layer0_0_MEMBER_2_MEMBER_16_FILL">
<path fill="#FED6C1" stroke="none" d="
M 324 364.2
Q 324.25 364.5 324.5 364.45 324.7 364.4 325.05 363.8 325.35 363.2 325.45 363 325.65 362.65 325.65 362.05 325.7 361.3 325.25 361.3 324.85 361.35 324.35 361.7 324.1 361.9 323.95 362.1 323.85 362.2 323.85 363.05
L 323.8 363.85
Q 323.8 363.95 324 364.2 Z"/>
</g>

<g id="Layer0_0_MEMBER_2_MEMBER_17_FILL">
<path fill="#FED6C1" stroke="none" d="
M 320.8 359.8
Q 320.75 359.55 319.75 359.6 318.45 359.65 318.25 359.6 317.45 359.4 317.1 359.3 316.4 359.1 316.25 359.3 316.05 359.65 316 360.45 315.95 361.35 316.4 361.7 317.05 362.2 319.25 362.3
L 321.2 363
Q 321.3 363.95 321.05 364.15 320.85 364.35 320.1 364.6 319.3 364.9 319.05 364.9 318.75 364.9 318.85 365.25 318.9 365.6 319.3 365.9 319.8 366.35 321.55 365.45
L 322.45 363.4
Q 322 362.45 321.5 362.05 321.2 361.8 321 360.8
L 320.8 359.8 Z"/>
</g>

<g id="Layer0_0_MEMBER_2_MEMBER_18_FILL">
<path fill="#F2F0FC" stroke="none" d="
M 326.65 358.35
Q 326.8 357.7 326.7 356.55 326.6 354.95 326 353.95
L 325.75 353.55
Q 324.5 351.95 322.5 351.35
L 322.45 351.35
Q 320.95 350.9 318.9 351.05 318.4 351.15 317.75 351.45 316.4 352.05 315.65 352.95
L 315.6 353.05
Q 315 353.7 314.8 354.65 314.25 357.5 314.45 358.65
L 314.95 359.25
Q 315.85 359.9 317.8 360.15 320.85 360.55 323.8 359.8 324.55 359.6 325.6 359.05 326.55 358.6 326.6 358.45
L 326.65 358.35 Z"/>
</g>

<g id="Layer0_0_MEMBER_2_MEMBER_19_FILL">
<path fill="#F2F2F2" stroke="none" d="
M 318.25 355.25
Q 320.95 355.55 323.6 354.95 326.25 354.35 325.75 353.55 323.65 350.65 318.9 351.05 318.4 351.15 317.75 351.45 316.4 352.05 315.65 352.95
L 315.6 353.05
Q 315.25 353.55 315.55 354.1 316.05 354.95 318.25 355.25 Z"/>
</g>

<g id="Layer0_0_MEMBER_2_MEMBER_20_FILL">
<path fill="#CFCFE5" stroke="none" d="
M 320.3 352.45
Q 319.2 353.75 319.35 355.3 319.6 354.65 320 353.9 320.75 352.45 321.3 352.15 322.15 351.75 322.45 351.7 323.05 351.6 323.9 351.95 322.85 351.3 321.9 351.35 321.15 351.45 320.3 352.45 Z"/>
</g>

<g id="Layer0_0_MEMBER_2_MEMBER_21_FILL">
<path fill="#CFCFE5" stroke="none" d="
M 326.65 358.35
Q 326.8 357.7 326.7 356.55 326.6 354.95 326 353.95
L 325.75 353.55
Q 324.578125 352.05 322.75 351.4 325.0916015625 352.3041015625 325.9 355.3 326.3 356.9 326.2 358.35
L 326.65 358.35 Z"/>
</g>

<g id="Layer0_0_MEMBER_2_MEMBER_22_FILL">
<path fill="#F2F2F2" stroke="none" d="
M 326.25 358.15
L 326.9 357 326.7 356.95
Q 326.75 357.1 326.1 357.4 325.35 357.95 322.85 358.45 320.05 359 317.9 358.7 315.95 358.45 315 357.8
L 314.45 357.15 314.45 357.35 314.6 357.8 315.4 358.85 318.9 359.7 326.25 358.15 Z"/>
</g>

<g id="Layer0_0_MEMBER_2_MEMBER_23_FILL">
<path fill="#CFCFE5" stroke="none" d="
M 326.9 358.45
L 326.9 357 326.75 357.2
Q 325.8 358.1 322.95 358.6 320 359.15 317.65 358.75 315.6 358.45 314.85 357.85
L 314.45 357.35 314.4 358.35 314.7 359
Q 315.15 359.7 316 359.9 319.3 360.65 322.3 360.2 325.4 359.8 326.9 358.45 Z"/>
</g>

<g id="Layer0_0_MEMBER_2_MEMBER_24_FILL">
<path fill="#EAEAF5" stroke="none" d="
M 314.85 358.95
Q 314.55 358.65 314.4 357.9
L 313.5 358.75
Q 312.9 359.7 314.25 360.3 316.3 361.25 319.75 361.25 321.1 361.2 322.45 360.1 318.85 360.3 316.15 359.55 315.15 359.3 314.85 358.95 Z"/>
</g>

<g id="Layer0_0_MEMBER_2_MEMBER_25_FILL">
<path fill="#F5F5F5" stroke="none" d="
M 321.7 351.6
Q 322.8 351.2 323.9 351.95 323.35 351.5 322.3 351.25
L 321.35 351.1
Q 321.1 351.1 320.7 351.2 320 351.4 319.55 351.9 318.65 353 318.25 355.25
L 319.35 355.3 319.75 354.05
Q 320.55 352 321.7 351.6 Z"/>
</g>

<g id="Layer0_0_MEMBER_2_MEMBER_26_FILL">
<path fill="#CFCFE5" stroke="none" d="
M 317.3 353.35
Q 316.95 354.5 317.15 355.05 317.35 354.35 317.7 353.55 318.4 352 319.05 351.6
L 320.3 351 319.95 351
Q 319.5 351.1 319.05 351.2 318.1 351.5 317.9 351.85 317.55 352.5 317.3 353.35 Z"/>
</g>

<g id="Layer0_0_MEMBER_2_MEMBER_27_FILL">
<path fill="#F5F5F5" stroke="none" d="
M 319.95 351
Q 318.25 351 317.55 351.55 316.35 352.5 316.15 354.65 316.4 354.8 317.15 355.05 317.1 354.4 317.9 352.7 318.4 351.65 319.25 351.2
L 319.95 351 Z"/>
</g>

<g id="Layer0_0_MEMBER_2_MEMBER_28_FILL">
<path fill="#FED6C1" stroke="none" d="
M 317.25 363.35
L 316.65 364.85
Q 316.55 364.95 316.55 365.15 316.55 365.4 316.65 365.45 316.85 365.55 317.3 365.55 317.8 365.55 317.9 365.4 318 365.25 317.8 364.8
L 317.55 364.35
Q 317.5 364.05 317.45 363.8 317.35 363.25 317.25 363.35 Z"/>
</g>

<g id="Layer0_0_MEMBER_3_MEMBER_0_FILL">
<path fill="#B6631F" stroke="none" d="
M 324.9 438.15
L 332.65 399.4 330.95 400.4 323.2 439.1 324.9 438.15 Z"/>
</g>

<g id="Layer0_0_MEMBER_3_MEMBER_1_FILL">
<path fill="#894813" stroke="none" d="
M 334.5 402.45
L 330.95 400.4 338.65 448.05 342.2 450.1 334.5 402.45 Z"/>
</g>

<g id="Layer0_0_MEMBER_3_MEMBER_2_FILL">
<path fill="#B6631F" stroke="none" d="
M 336.2 401.45
L 334.5 402.45 342.2 450.1 343.95 449.1 336.2 401.45 Z"/>
</g>

<g id="Layer0_0_MEMBER_3_MEMBER_3_FILL">
<path fill="#894813" stroke="none" d="
M 319.65 437.05
L 323.2 439.1 330.95 400.4 327.35 398.35 319.65 437.05 Z"/>
</g>

<g id="Layer0_0_MEMBER_3_MEMBER_4_FILL">
<path fill="#794010" stroke="none" d="
M 322.25 418.6
L 322.25 421.35 337.85 432.15 337.8 429.4 322.25 418.6 Z"/>
</g>

<g id="Layer0_0_MEMBER_3_MEMBER_5_FILL">
<path fill="#D48036" stroke="none" d="
M 323.15 418.05
L 322.25 418.6 337.8 429.4 338.7 428.85 323.15 418.05 Z"/>
</g>

<g id="Layer0_0_MEMBER_3_MEMBER_6_FILL">
<path fill="#B6631F" stroke="none" d="
M 338.75 431.6
L 338.7 428.85 337.8 429.4 337.85 432.15 338.75 431.6 Z"/>
</g>

<g id="Layer0_0_MEMBER_4_FILL">
<path fill="#D27D32" stroke="none" d="
M 301.05 440.3
L 301.05 442.5 353.6 412.15 353.6 410 301.05 440.3 Z"/>
</g>

<g id="Layer0_0_MEMBER_5_MEMBER_0_FILL">
<path fill="#B6631F" stroke="none" d="
M 288.1 425.1
L 286.4 426.1 278.65 464.85 280.4 463.85 288.1 425.1 Z"/>
</g>

<g id="Layer0_0_MEMBER_5_MEMBER_1_FILL">
<path fill="#894813" stroke="none" d="
M 289.95 428.15
L 286.4 426.1 294.1 473.75 297.65 475.8 289.95 428.15 Z"/>
</g>

<g id="Layer0_0_MEMBER_5_MEMBER_2_FILL">
<path fill="#B6631F" stroke="none" d="
M 291.65 427.15
L 289.95 428.15 297.65 475.8 299.4 474.8 291.65 427.15 Z"/>
</g>

<g id="Layer0_0_MEMBER_5_MEMBER_3_FILL">
<path fill="#894813" stroke="none" d="
M 275.1 462.8
L 278.65 464.85 286.4 426.1 282.85 424.05 275.1 462.8 Z"/>
</g>

<g id="Layer0_0_MEMBER_5_MEMBER_4_FILL">
<path fill="#794010" stroke="none" d="
M 293.3 457.85
L 293.3 455.1 277.7 444.3 277.7 447.05 293.3 457.85 Z"/>
</g>

<g id="Layer0_0_MEMBER_5_MEMBER_5_FILL">
<path fill="#D48036" stroke="none" d="
M 278.6 443.75
L 277.7 444.3 293.3 455.1 294.2 454.6 278.6 443.75 Z"/>
</g>

<g id="Layer0_0_MEMBER_5_MEMBER_6_FILL">
<path fill="#B6631F" stroke="none" d="
M 294.2 457.35
L 294.2 454.6 293.3 455.1 293.3 457.85 294.2 457.35 Z"/>
</g>

<g id="Layer0_0_MEMBER_6_FILL">
<path fill="#F7C163" stroke="none" d="
M 270.25 422.55
L 301.05 440.3 353.6 410 322.8 392.2 270.25 422.55 Z"/>
</g>

<g id="Layer0_0_MEMBER_7_FILL">
<path fill="#3982BB" stroke="none" d="
M 605.8 412.45
L 348.2 561.2 499.05 648.35 756.65 499.6 605.8 412.45 Z"/>
</g>

<g id="Layer0_0_MEMBER_8_MEMBER_0_FILL">
<path fill="#C3D9EA" stroke="none" d="
M 310.6 418.8
L 319.5 413.7 314.55 410.95 305.65 416.05 310.6 418.8
M 306.7 416.05
L 314.55 411.5 318.45 413.7 310.6 418.25 306.7 416.05 Z"/>
</g>

<g id="Layer0_0_MEMBER_9_MEMBER_0_FILL">
<path fill="#C3D9EA" stroke="none" d="
M 303.85 422.05
L 310.55 418.2 303.85 414.35 297.15 418.2 303.85 422.05
M 298.2 418.2
L 303.85 414.95 309.5 418.2 303.85 421.5 298.2 418.2 Z"/>
</g>

<g id="Layer0_0_MEMBER_10_MEMBER_0_FILL">
<path fill="#C3D9EA" stroke="none" d="
M 316.2 422.4
L 322.9 418.5 316.2 414.65 309.5 418.5 316.2 422.4
M 310.55 418.5
L 316.2 415.25 321.9 418.5 316.2 421.8 310.55 418.5 Z"/>
</g>

<g id="Layer0_0_MEMBER_11_MEMBER_0_FILL">
<path fill="#C3D9EA" stroke="none" d="
M 318.35 408.55
L 311.65 412.4 318.35 416.3 325.05 412.4 318.35 408.55
M 312.65 412.4
L 318.35 409.15 324 412.4 318.35 415.7 312.65 412.4 Z"/>
</g>

<g id="Layer0_0_MEMBER_12_MEMBER_0_FILL">
<path fill="#C3D9EA" stroke="none" d="
M 507.1 630.15
L 508.15 630.85 726.2 504.85 597.05 430.3 378.65 556.3 507.1 630.15
M 386 556.3
L 597.05 434.5 718.85 504.85 508.15 626.65 386 556.3 Z"/>
</g>

<g id="Layer0_0_MEMBER_13_FILL">
<path fill="#9E5913" stroke="none" d="
M 301.05 442.5
L 301.05 440.3 270.25 422.55 270.25 424.7 301.05 442.5 Z"/>
</g>

<g id="Layer0_0_MEMBER_14_FILL">
<path fill="#C98F3A" stroke="none" d="
M 8.1 3.7
L 9.85 3.75 7.95 0 0 4.6 3.5 7.25 5.65 7.25 7.5 6.65 8.1 3.7 Z"/>
</g>

<g id="Layer0_0_MEMBER_15_MEMBER_0_FILL">
<path fill="#FBC7AC" stroke="none" d="
M 278.9 395.35
L 278.5 390.65 275.05 389.25
Q 274.9 389.25 273.15 390.5
L 272.6 390.95 272.7 391.45
Q 273.75 396.8 274.1 397.7 274.2 398.05 274.45 400.25 274.65 402.55 274.8 403.1 275.1 404.05 278.45 412.7 278.9 414 278.9 415.05
L 277.9 418.1 277.9 418.15 277.85 418.25 277.85 418.3 277.8 418.4 277.6 419.6
Q 277.6 419.9 277.75 420.55 277.9 421.25 278.05 421.45 278.15 421.6 278.25 421.6 278.45 421.7 278.75 421.55
L 278.75 421.85 278.8 422.3
Q 278.75 422.5 279.05 422.65 279.25 422.8 279.45 422.8
L 279.7 422.7 280 422.4 280.1 422.55
Q 280.6 422.9 280.85 422.6
L 280.95 422.3 281.05 421.05 281.5 419 281.9 417.8 282.2 420.7
Q 282.2 421.7 282.75 421.7
L 282.8 421.7
Q 283.3 421.65 283.3 420.6
L 283.45 418.15 284.05 418.9
Q 284.95 419.1 285.15 418.8
L 285.2 418.65
Q 285.2 418.45 285 418.2 284.75 417.9 284.75 417.85
L 284.5 416.25
Q 284.45 416.05 283.75 415.2 282.9 414.25 282.7 414 282.05 413.15 281.1 409.1
L 279.05 399.6
Q 278.9 398.9 278.9 395.35 Z"/>
</g>

<g id="Layer0_0_MEMBER_15_MEMBER_1_FILL">
<path fill="#F5A480" stroke="none" d="
M 0.3 1.15
Q 0.15 2.3 0.2 2.95 0.3 3.6 0 3.85 0.2 3.9 0.5 3.75
L 0.5 4.05 0.55 4 0.6 2
Q 0.65 1.95 0.6 1.3
L 0.85 0 0.3 1.15 Z"/>
</g>

<g id="Layer0_0_MEMBER_15_MEMBER_2_FILL">
<path fill="#F5A480" stroke="none" d="
M 0.6 0
L 0.3 1.5 0 4.85 0.3 4.55 0.4 4.7
Q 0.9 5.05 1.15 4.75
L 1.25 4.45
Q 1.05 4.65 0.95 4.65 0.65 4.65 0.35 4.45
L 0.6 0 Z"/>
</g>

<g id="Layer0_0_MEMBER_15_MEMBER_3_FILL">
<path fill="#F5A480" stroke="none" d="
M 1.6 4.65
L 1.25 4.15 0.75 0 0.35 0.9 0 3.25 0.7 0.75
Q 1.05 3.35 1 3.65 1 4.65 1.6 4.65 Z"/>
</g>

<g id="Layer0_0_MEMBER_15_MEMBER_4_FILL">
<path fill="#F5A480" stroke="none" d="
M 1.9 2.55
L 1.95 2.4
Q 1.25 2.4 1 2.2
L 0.4 1.55 0 0 0.15 2.5 0.2 1.9 0.8 2.65
Q 1.7 2.85 1.9 2.55 Z"/>
</g>

<g id="Layer0_0_MEMBER_15_MEMBER_5_FILL">
<path fill="#F5A480" stroke="none" d="
M 2.6 10.95
Q 2.7 9.95 2.5 9.45 1.95 8.2 1.65 5.8 1.45 4.25 0.5 0
L 0 0.6
Q 1.05 5.95 1.4 6.85 1.5 7.2 1.75 9.4 1.95 11.7 2.1 12.25 2.4 13.2 5.75 21.85 6.2 23.15 6.2 24.2
L 5.8 25.7 6.35 24.55
Q 6.65 24.2 6.85 23.7 7.05 23.05 6.75 22.85 6.25 22.35 5.15 19.35 3.85 15.65 3.25 13.95 2.55 12.05 2.6 10.95 Z"/>
</g>

<g id="Layer0_0_MEMBER_15_MEMBER_6_FILL">
<path fill="#FD8839" stroke="none" d="
M 275.65 380.45
L 274.15 379.45 273.3 380.25
Q 272.4 381.15 272.1 381.95 271.7 383.05 271.45 385.9 271.45 386.35 271.9 388.9 272.4 391.4 272.5 391.45 273.75 391.85 275.9 391.75 277.8 391.65 279.15 390.95 279.05 387.05 278 383.85 277.3 381.9 275.65 380.45 Z"/>
</g>

<g id="Layer0_0_MEMBER_16_FILL">
<path fill="#2E606B" stroke="none" d="
M 519.65 474.95
L 514.15 465.35 484.35 482.55 499.1 486.8 519.65 474.95
M 526.35 486.65
L 521.45 478.1 506.25 486.9 526.35 486.65 Z"/>

<path fill="#C98F3A" stroke="none" d="
M 514.15 465.35
L 512.35 462.15 469.65 454.1 441.3 470.2 484.35 482.55 514.15 465.35 Z"/>

<path fill="#9FA186" stroke="none" d="
M 499.1 486.8
L 499.75 487 506.25 486.9 521.45 478.1 519.65 474.95 499.1 486.8 Z"/>
</g>

<g id="Layer0_0_MEMBER_17_MEMBER_0_FILL">
<path fill="#F89C6E" stroke="none" d="
M 308.2 410
L 308.45 408.95
Q 307.9 407.95 307.9 407.5 307.9 407.2 306.3 406.25
L 304.7 405.35 304.1 405.9 305.65 408.25
Q 307.45 409.35 307.5 409.3
L 308.2 410 Z"/>
</g>

<g id="Layer0_0_MEMBER_17_MEMBER_1_FILL">
<path fill="#FBC7AC" stroke="none" d="
M 299.6 393.55
Q 299.15 392.25 298.2 390.6 297.3 389.05 296.75 388.45
L 294.95 385.85 294.45 386.2
Q 294.05 386.4 292.75 386.65
L 292.25 386.7 291.8 390.1 293.45 393.4
Q 294.75 395.85 295.7 396.95 297.2 398.7 301 403.35
L 303.2 408.95 303.9 409.9 304.4 410.05
Q 304.7 410.1 304.7 409.55
L 304.2 408.4 303.95 407.1 304.35 406.55 305.8 406.5 307 407.5 308.05 409.25 308.2 410 308.5 409.65 308.7 408.9 308.35 407.4
Q 308.35 407.35 306.85 405.15 304.5 403.75 304.35 403.5 304.15 403.3 303.55 402.3 302.9 401.25 302.75 400.95 300.25 395.4 299.6 393.55 Z"/>
</g>

<g id="Layer0_0_MEMBER_17_MEMBER_2_FILL">
<path fill="#F5A480" stroke="none" d="
M 0.55 4.55
Q 2.4 8.55 3.9 10.3 5.4 12.05 9.2 16.7
L 11.4 22.3 12.1 23.25 12.6 23.4
Q 12.9 23.45 12.9 22.9
L 12.65 22.3 11.85 22.25 11.05 20.75
Q 10.1 17.35 9.8 16.85 8.95 15.3 8.6 14.9
L 6.8 12.7
Q 4.45 9.3 4.2 8.75 3.95 8.25 2.35 5.9 1.45 4.6 1.2 3.6 1.1 3.25 0.95 0
L 0.45 0.05 0 3.45 0.55 4.55 Z"/>
</g>

<g id="Layer0_0_MEMBER_18_FILL">
<path fill="#C98F3A" stroke="none" d="
M 3.25 4.55
L 6.2 10.05 9.6 13.55 10.95 13.2 10.65 9.85 7.3 4.25 0 0 3.25 4.55 Z"/>
</g>

<g id="Layer0_0_MEMBER_19_FILL">
<path fill="#C98F3A" stroke="none" d="
M 575.35 430
L 575.35 414.9 568 397.05 540.35 414.9 545.1 447.45 575.35 430 Z"/>

<path fill="#2E606B" stroke="none" d="
M 575.35 442.8
L 575.35 430 545.1 447.45 546.3 455.5 542.95 461.5 575.35 442.8
M 575.35 484.55
L 575.35 447 539.5 467.7 539.3 468.1 538.6 478.6
Q 537.9 489.45 539.65 491.9
L 550.5 506.95 555.75 503.45
Q 557.15 499.25 560.3 494.7 566.6 485.6 575.35 484.55 Z"/>

<path fill="#9FA186" stroke="none" d="
M 575.35 447
L 575.35 442.8 542.95 461.5 539.5 467.7 575.35 447 Z"/>
</g>

<g id="Layer0_0_MEMBER_20_MEMBER_0_FILL">
<path fill="#FBC7AC" stroke="none" d="
M 333.4 377.65
Q 333.1 377 331.9 377.05
L 330.75 377.2 329.05 377.65 329 377.9
Q 328.7 379.5 328.95 379.9 329.2 380.25 330 383 330.8 385.8 330.75 386.3 330.7 387 332.35 395.4 332.55 397.1 331.7 400.65 331.7 400.75 331.3 403.55 331.35 404 331.9 404.85
L 332.05 404.65 332.65 404 332.8 402.8 333.35 402.1 333.8 402.3
Q 334.3 402.6 334.5 403 334.95 404.2 335 404.45 335.05 404.8 334.95 406.3
L 335.45 406.7 335.55 406.55 335.8 406.3
Q 335.85 406.3 335.85 406.65 335.85 407.2 336.05 407.3 336.2 407.4 336.35 407.3 336.487890625 407.2080078125 336.55 407
L 336.7 406.9
Q 336.8 406.85 336.8 406.55
L 336.85 406.2
Q 337.05 406.05 337.2 405.9 337.25 405.85 337.25 405.25 337.25 404.4 337.15 403.95
L 337 402.6
Q 335.95 399.9 335.85 399.55 335.7 399.2 335.6 398.2 335.5 397 335.55 396.2 335.65 394.8 335.8 391.2 335.95 387 335.85 385.8 335.75 384.65 334.75 381.5 333.9 378.9 333.4 377.65 Z"/>
</g>

<g id="Layer0_0_MEMBER_20_MEMBER_1_FILL">
<path fill="#F5A480" stroke="none" d="
M 1.45 3.1
Q 1.15 2.25 1.4 0.35
L 0.15 0
Q -0.15 1.6 0.1 2 0.35 2.35 1.15 5.1 1.95 7.9 1.9 8.4 1.85 9.1 3.5 17.5 3.7 19.2 2.85 22.75 2.85 22.85 2.45 25.65 2.5 26.1 3.05 26.95
L 3.2 26.75 2.95 25.95
Q 2.9 24.8 2.95 24.55 2.95 24.3 4.05 20.15 4.1 18.9 4.05 18.5 3.15 13.25 3.25 12.15 3.3 11.55 3.1 9.75 2.85 8 2.9 7.8 2.95 7.5 3.65 7.05 4 6.8 4.35 6.6
L 2.45 7
Q 1.75 3.95 1.45 3.1 Z"/>
</g>

<g id="Layer0_0_MEMBER_20_MEMBER_2_FILL">
<path fill="#323338" stroke="none" d="
M 334.85 403.85
L 334.5 403
Q 334.4 402.45 333.4 402.1
L 331.2 405.7 331.2 405.85
Q 331.35 406.05 331.9 406.15 334.3 406.55 334.4 406.5 334.55 406.4 334.95 405.6
L 335 404.45 334.85 403.85 Z"/>
</g>

<g id="Layer0_0_MEMBER_20_MEMBER_3_FILL">
<path fill="#FBC7AC" stroke="none" d="
M 313.7 381.25
Q 313.55 379.55 313.5 378.95 313.35 378 312.85 377.7 312.05 377.1 308.55 377.1
L 308.25 377.05 308.05 377.9
Q 307.85 379 308 380.1 308.05 380.45 308.65 384.4 309.1 387.5 309 387.95 308.7 390.7 308.85 392 309.05 393.5 310.65 402.45
L 309.85 404.85
Q 309.45 406.1 309.7 406.9 309.8 407.35 310.15 408.15 310.5 408.95 310.7 409.15 311.55 409.85 311.8 409.85
L 312.3 409.9 312.3 412.05 312.4 412.4
Q 312.55 412.6 313 412.5 313.45 412.4 313.5 411.8
L 313.9 407.15 314.4 406.3 314.35 407.3
Q 314.3 408.35 314.4 408.7 314.75 410.1 315.2 409.7
L 315.35 409.45
Q 315.5 409.1 315.55 408.3
L 315.8 405.8 314.25 402
Q 313.6 400.5 313.6 393.7 313.6 388 313.7 387.2 314.1 383.8 313.7 381.25 Z"/>
</g>

<g id="Layer0_0_MEMBER_20_MEMBER_4_FILL">
<path fill="#F5A480" stroke="none" d="
M 2.75 8.15
Q 2.65 7 1.65 3.85 0.8 1.25 0.3 0
L 0 0.25
Q 1.55 5 1.85 6.2 2.7 9.65 2.35 12.1 2.1 14.2 2.05 21.3 2.05 21.45 2.65 22.7 3.3 24 3.3 24.15 3.35 24.5 3.9 25.9
L 3.9 27.8 3.4 24.8 3.65 28.05 3.55 28.5 3.35 28.75 3.35 26.7 3.05 24.85 3.2 27.1
Q 3.3 29.35 3.1 29.4 2.95 29.45 2.8 29.25
L 2.95 26.95 2.55 24.65 2.8 27.05 2.45 28.9 2.7 28.65
Q 2.75 28.65 2.75 29 2.75 29.55 2.95 29.65 3.1 29.75 3.25 29.65 3.387890625 29.5580078125 3.45 29.35
L 3.6 29.25
Q 3.7 29.2 3.7 28.9
L 3.75 28.55
Q 3.95 28.4 4.1 28.25 4.15 28.2 4.15 27.6 4.15 26.75 4.05 26.3
L 3.9 24.95
Q 2.85 22.25 2.75 21.9 2.6 21.55 2.5 20.55 2.4 19.35 2.45 18.55 2.55 17.15 2.7 13.55 2.85 9.35 2.75 8.15 Z"/>
</g>

<g id="Layer0_0_MEMBER_20_MEMBER_5_FILL">
<path fill="#F5A480" stroke="none" d="
M 2.7 23.95
Q 1.2 15.5 1.2 13.25 1.3 8.8 1.25 8.65 0.45 3 0.45 1.75
L 0.6 0.05 0.3 0
Q -0.2 1.25 0.05 3.05 0.1 3.4 0.7 7.35 1.15 10.45 1.05 10.9 0.75 13.65 0.9 14.95 1.1 16.45 2.7 25.4
L 1.9 27.8
Q 1.5 29.05 1.75 29.85 1.85 30.3 2.2 31.1 2.55 31.9 2.75 32.1 3.6 32.8 3.85 32.8
L 4.35 32.85 4.3 30.45 4.15 32.4 3.65 32.1 3.45 30.2 3.25 31.7 2.85 31 2.65 29.9 2.5 30.85 1.95 29.45
Q 2.65 26.6 2.9 26.15
L 3.35 25.55 2.7 23.95 Z"/>
</g>

<g id="Layer0_0_MEMBER_20_MEMBER_6_FILL">
<path fill="#5099C5" stroke="none" d="
M 334.1 378
Q 334 377.65 333.15 374.3 332.4 371.25 331.9 370.05 331.35 368.75 330.75 368
L 330.2 367.5
Q 328.3 377.65 328.4 377.9
L 328.95 379.9 331.5 379.6
Q 332.75 379.3 334.1 378 Z"/>
</g>

<g id="Layer0_0_MEMBER_20_MEMBER_7_FILL">
<path fill="#5099C5" stroke="none" d="
M 309.75 368.55
L 308.85 369.7
Q 307.95 371.2 307.75 373.05 307.45 376 307.65 378.9
L 311.25 379.2
Q 312.65 379.4 313.65 379.1 313.25 374.8 313 373.6 312.15 370.25 311.05 368.7 310.7 368.1 310.2 368.25
L 309.75 368.55 Z"/>
</g>

<g id="Layer0_0_MEMBER_20_MEMBER_8_FILL">
<path fill="#F5A480" stroke="none" d="
M 2.4 2.8
Q 2.35 1.45 2.4 0.85 2.4 0.2 2.15 0
L 1.65 1.2 1.3 2.9 1 6.4
Q 0.65 6.95 0.35 6.9 0.2 6.9 0 6.7
L 0.1 7.05
Q 0.25 7.25 0.7 7.15 1.15 7.05 1.2 6.45
L 1.6 1.8 2.1 0.95
Q 1.95 2.75 2.1 3.35 2.45 4.75 2.9 4.35
L 3.05 4.1
Q 2.65 4.25 2.45 3.85
L 2.4 2.8 Z"/>
</g>

<g id="Layer0_0_MEMBER_21_FILL">
<path fill="#5099C5" stroke="none" d="
M 327.35 377
L 327.35 376.05 323.8 376.45 323.8 377.45 327.35 377 Z"/>
</g>

<g id="Layer0_0_MEMBER_22_FILL">
<path fill="#0D57CD" stroke="none" d="
M 325.95 376.2
L 326.65 376.15 326.65 374 325.95 374 325.95 376.2 Z"/>
</g>

<g id="Layer0_0_MEMBER_23_FILL">
<path fill="#FEE152" stroke="none" d="
M 325.55 376.25
L 325.55 375.45 324.8 375.45 324.9 376.35 325.55 376.25 Z"/>
</g>
</defs>

<g transform="matrix( 7, 0, 0, 7, 179.85,645.55) ">
<use xlink:href="#Layer0_0_MEMBER_0_FILL"/>
</g>

<g transform="matrix( 7, 0, 0, 7, -1631.05,-2383.35) ">
<use xlink:href="#Layer0_0_MEMBER_1_MEMBER_0_FILL"/>
</g>

<g transform="matrix( 7, 0, 0, 7, -1631.05,-2383.35) ">
<use xlink:href="#Layer0_0_MEMBER_1_MEMBER_1_FILL"/>
</g>

<g transform="matrix( 7, 0, 0, 7, -1631.05,-2383.35) ">
<use xlink:href="#Layer0_0_MEMBER_1_MEMBER_2_FILL"/>
</g>

<g transform="matrix( 7, 0, 0, 7, -1631.05,-2383.35) ">
<use xlink:href="#Layer0_0_MEMBER_1_MEMBER_3_FILL"/>
</g>

<g transform="matrix( 7, 0, 0, 7, 340.85,457.95) ">
<use xlink:href="#Layer0_0_MEMBER_1_MEMBER_4_FILL"/>
</g>

<g transform="matrix( 7, 0, 0, 7, -1631.05,-2383.35) ">
<use xlink:href="#Layer0_0_MEMBER_1_MEMBER_5_FILL"/>
</g>

<g transform="matrix( 7, 0, 0, 7, -1631.05,-2383.35) ">
<use xlink:href="#Layer0_0_MEMBER_1_MEMBER_6_FILL"/>
</g>

<g transform="matrix( 7, 0, 0, 7, -1631.05,-2383.35) ">
<use xlink:href="#Layer0_0_MEMBER_1_MEMBER_7_FILL"/>
</g>

<g transform="matrix( 7, 0, 0, 7, 300.95,544.05) ">
<use xlink:href="#Layer0_0_MEMBER_1_MEMBER_8_FILL"/>
</g>

<g transform="matrix( 7, 0, 0, 7, 264.2,452.7) ">
<use xlink:href="#Layer0_0_MEMBER_1_MEMBER_9_FILL"/>
</g>

<g transform="matrix( 1, 0, 0, 1, 0,0) ">
<use xlink:href="#Layer0_0_MEMBER_1_MEMBER_10_FILL"/>
</g>

<g transform="matrix( 1, 0, 0, 1, 0,0) ">
<use xlink:href="#Layer0_0_MEMBER_1_MEMBER_11_FILL"/>
</g>

<g transform="matrix( 7, 0, 0, 7, -1631.05,-2383.35) ">
<use xlink:href="#Layer0_0_MEMBER_1_MEMBER_12_MEMBER_0_FILL"/>
</g>

<g transform="matrix( 1, 0, 0, 1, 0,0) ">
<use xlink:href="#Layer0_0_MEMBER_1_MEMBER_13_FILL"/>
</g>

<g transform="matrix( 1, 0, 0, 1, 0,0) ">
<use xlink:href="#Layer0_0_MEMBER_1_MEMBER_14_MEMBER_0_FILL"/>
</g>

<g transform="matrix( 7, 0, 0, 7, 294.3,488.4) ">
<use xlink:href="#Layer0_0_MEMBER_1_MEMBER_15_FILL"/>
</g>

<g transform="matrix( 1, 0, 0, 1, 0,0) ">
<use xlink:href="#Layer0_0_MEMBER_1_MEMBER_16_FILL"/>
</g>

<g transform="matrix( 7, 0, 0, 7, -1631.05,-2383.35) ">
<use xlink:href="#Layer0_0_MEMBER_1_MEMBER_17_FILL"/>
</g>

<g transform="matrix( 1, 0, 0, 1, 0,0) ">
<use xlink:href="#Layer0_0_MEMBER_1_MEMBER_18_FILL"/>
</g>

<g transform="matrix( 1, 0, 0, 1, 0,0) ">
<use xlink:href="#Layer0_0_MEMBER_1_MEMBER_19_FILL"/>
</g>

<g transform="matrix( 7, 0, 0, 7, -1631.05,-2383.35) ">
<use xlink:href="#Layer0_0_MEMBER_1_MEMBER_20_FILL"/>
</g>

<g transform="matrix( 7, 0, 0, 7, -1631.05,-2383.35) ">
<use xlink:href="#Layer0_0_MEMBER_1_MEMBER_21_FILL"/>
</g>

<g transform="matrix( 7, 0, 0, 7, -1631.05,-2383.35) ">
<use xlink:href="#Layer0_0_MEMBER_1_MEMBER_22_FILL"/>
</g>

<g transform="matrix( 7, 0, 0, 7, -1631.05,-2383.35) ">
<use xlink:href="#Layer0_0_MEMBER_1_MEMBER_23_FILL"/>
</g>

<g transform="matrix( 7, 0, 0, 7, -1631.05,-2383.35) ">
<use xlink:href="#Layer0_0_MEMBER_1_MEMBER_24_FILL"/>
</g>

<g transform="matrix( 7, 0, 0, 7, -1631.05,-2383.35) ">
<use xlink:href="#Layer0_0_MEMBER_1_MEMBER_25_FILL"/>
</g>

<g transform="matrix( 7, 0, 0, 7, -1631.05,-2383.35) ">
<use xlink:href="#Layer0_0_MEMBER_1_MEMBER_26_FILL"/>
</g>

<g transform="matrix( 7, 0, 0, 7, -1631.05,-2383.35) ">
<use xlink:href="#Layer0_0_MEMBER_1_MEMBER_27_FILL"/>
</g>

<g transform="matrix( 7, 0, 0, 7, -1631.05,-2383.35) ">
<use xlink:href="#Layer0_0_MEMBER_1_MEMBER_28_FILL"/>
</g>

<g transform="matrix( 7, 0, 0, 7, -1631.05,-2383.35) ">
<use xlink:href="#Layer0_0_MEMBER_1_MEMBER_29_FILL"/>
</g>

<g transform="matrix( 7, 0, 0, 7, -1631.05,-2383.35) ">
<use xlink:href="#Layer0_0_MEMBER_1_MEMBER_30_FILL"/>
</g>

<g transform="matrix( 7, 0, 0, 7, -1631.05,-2383.35) ">
<use xlink:href="#Layer0_0_MEMBER_1_MEMBER_31_FILL"/>
</g>

<g transform="matrix( 7, 0, 0, 7, -1631.05,-2383.35) ">
<use xlink:href="#Layer0_0_MEMBER_1_MEMBER_32_FILL"/>
</g>

<g transform="matrix( 7, 0, 0, 7, -1631.05,-2383.35) ">
<use xlink:href="#Layer0_0_MEMBER_1_MEMBER_33_FILL"/>
</g>

<g transform="matrix( 7, 0, 0, 7, -1631.05,-2383.35) ">
<use xlink:href="#Layer0_0_MEMBER_1_MEMBER_34_FILL"/>
</g>

<g transform="matrix( 7, 0, 0, 7, -1631.05,-2383.35) ">
<use xlink:href="#Layer0_0_MEMBER_1_MEMBER_35_FILL"/>
</g>

<g transform="matrix( 7, 0, 0, 7, -1631.05,-2383.35) ">
<use xlink:href="#Layer0_0_MEMBER_1_MEMBER_36_FILL"/>
</g>

<g transform="matrix( 7, 0, 0, 7, -1631.05,-2383.35) ">
<use xlink:href="#Layer0_0_MEMBER_1_MEMBER_37_FILL"/>
</g>

<g transform="matrix( 7, 0, 0, 7, -1631.05,-2383.35) ">
<use xlink:href="#Layer0_0_MEMBER_1_MEMBER_38_FILL"/>
</g>

<g transform="matrix( 7, 0, 0, 7, -1631.05,-2383.35) ">
<use xlink:href="#Layer0_0_MEMBER_2_MEMBER_0_FILL"/>
</g>

<g transform="matrix( 7, 0, 0, 7, -1631.05,-2383.35) ">
<use xlink:href="#Layer0_0_MEMBER_2_MEMBER_1_FILL"/>
</g>

<g transform="matrix( 7, 0, 0, 7, -1631.05,-2383.35) ">
<use xlink:href="#Layer0_0_MEMBER_2_MEMBER_2_FILL"/>
</g>

<g transform="matrix( 7, 0, 0, 7, 591.1,439.75) ">
<use xlink:href="#Layer0_0_MEMBER_2_MEMBER_3_FILL"/>
</g>

<g transform="matrix( 7, 0, 0, 7, -1631.05,-2383.35) ">
<use xlink:href="#Layer0_0_MEMBER_2_MEMBER_4_FILL"/>
</g>

<g transform="matrix( 7, 0, 0, 7, -1631.05,-2383.35) ">
<use xlink:href="#Layer0_0_MEMBER_2_MEMBER_5_FILL"/>
</g>

<g transform="matrix( 7, 0, 0, 7, -1631.05,-2383.35) ">
<use xlink:href="#Layer0_0_MEMBER_2_MEMBER_6_FILL"/>
</g>

<g transform="matrix( 7, 0, 0, 7, 524.25,389) ">
<use xlink:href="#Layer0_0_MEMBER_2_MEMBER_7_FILL"/>
</g>

<g transform="matrix( 7, 0, 0, 7, -1631.05,-2383.35) ">
<use xlink:href="#Layer0_0_MEMBER_2_MEMBER_8_FILL"/>
</g>

<g transform="matrix( 7, 0, 0, 7, 521.45,247.6) ">
<use xlink:href="#Layer0_0_MEMBER_2_MEMBER_9_FILL"/>
</g>

<g transform="matrix( 7, 0, 0, 7, -1631.05,-2383.35) ">
<use xlink:href="#Layer0_0_MEMBER_2_MEMBER_10_FILL"/>
</g>

<g transform="matrix( 7, 0, 0, 7, -1631.05,-2383.35) ">
<use xlink:href="#Layer0_0_MEMBER_2_MEMBER_11_FILL"/>
</g>

<g transform="matrix( 1, 0, 0, 1, 0,0) ">
<use xlink:href="#Layer0_0_MEMBER_2_MEMBER_12_FILL"/>
</g>

<g transform="matrix( 1, 0, 0, 1, 0,0) ">
<use xlink:href="#Layer0_0_MEMBER_2_MEMBER_13_FILL"/>
</g>

<g transform="matrix( 7, 0, 0, 7, -1631.05,-2383.35) ">
<use xlink:href="#Layer0_0_MEMBER_2_MEMBER_14_FILL"/>
</g>

<g transform="matrix( 7, 0, 0, 7, -1631.05,-2383.35) ">
<use xlink:href="#Layer0_0_MEMBER_2_MEMBER_15_FILL"/>
</g>

<g transform="matrix( 7, 0, 0, 7, -1631.05,-2383.35) ">
<use xlink:href="#Layer0_0_MEMBER_2_MEMBER_16_FILL"/>
</g>

<g transform="matrix( 7, 0, 0, 7, -1631.05,-2383.35) ">
<use xlink:href="#Layer0_0_MEMBER_2_MEMBER_17_FILL"/>
</g>

<g transform="matrix( 7, 0, 0, 7, -1631.05,-2383.35) ">
<use xlink:href="#Layer0_0_MEMBER_2_MEMBER_18_FILL"/>
</g>

<g transform="matrix( 7, 0, 0, 7, -1631.05,-2383.35) ">
<use xlink:href="#Layer0_0_MEMBER_2_MEMBER_19_FILL"/>
</g>

<g transform="matrix( 7, 0, 0, 7, -1631.05,-2383.35) ">
<use xlink:href="#Layer0_0_MEMBER_2_MEMBER_20_FILL"/>
</g>

<g transform="matrix( 7, 0, 0, 7, -1631.05,-2383.35) ">
<use xlink:href="#Layer0_0_MEMBER_2_MEMBER_21_FILL"/>
</g>

<g transform="matrix( 7, 0, 0, 7, -1631.05,-2383.35) ">
<use xlink:href="#Layer0_0_MEMBER_2_MEMBER_22_FILL"/>
</g>

<g transform="matrix( 7, 0, 0, 7, -1631.05,-2383.35) ">
<use xlink:href="#Layer0_0_MEMBER_2_MEMBER_23_FILL"/>
</g>

<g transform="matrix( 7, 0, 0, 7, -1631.05,-2383.35) ">
<use xlink:href="#Layer0_0_MEMBER_2_MEMBER_24_FILL"/>
</g>

<g transform="matrix( 7, 0, 0, 7, -1631.05,-2383.35) ">
<use xlink:href="#Layer0_0_MEMBER_2_MEMBER_25_FILL"/>
</g>

<g transform="matrix( 7, 0, 0, 7, -1631.05,-2383.35) ">
<use xlink:href="#Layer0_0_MEMBER_2_MEMBER_26_FILL"/>
</g>

<g transform="matrix( 7, 0, 0, 7, -1631.05,-2383.35) ">
<use xlink:href="#Layer0_0_MEMBER_2_MEMBER_27_FILL"/>
</g>

<g transform="matrix( 7, 0, 0, 7, -1631.05,-2383.35) ">
<use xlink:href="#Layer0_0_MEMBER_2_MEMBER_28_FILL"/>
</g>

<g transform="matrix( 7, 0, 0, 7, -1631.05,-2383.35) ">
<use xlink:href="#Layer0_0_MEMBER_3_MEMBER_0_FILL"/>
</g>

<g transform="matrix( 7, 0, 0, 7, -1631.05,-2383.35) ">
<use xlink:href="#Layer0_0_MEMBER_3_MEMBER_1_FILL"/>
</g>

<g transform="matrix( 7, 0, 0, 7, -1631.05,-2383.35) ">
<use xlink:href="#Layer0_0_MEMBER_3_MEMBER_2_FILL"/>
</g>

<g transform="matrix( 7, 0, 0, 7, -1631.05,-2383.35) ">
<use xlink:href="#Layer0_0_MEMBER_3_MEMBER_3_FILL"/>
</g>

<g transform="matrix( 7, 0, 0, 7, -1631.05,-2383.35) ">
<use xlink:href="#Layer0_0_MEMBER_3_MEMBER_4_FILL"/>
</g>

<g transform="matrix( 7, 0, 0, 7, -1631.05,-2383.35) ">
<use xlink:href="#Layer0_0_MEMBER_3_MEMBER_5_FILL"/>
</g>

<g transform="matrix( 7, 0, 0, 7, -1631.05,-2383.35) ">
<use xlink:href="#Layer0_0_MEMBER_3_MEMBER_6_FILL"/>
</g>

<g transform="matrix( 7, 0, 0, 7, -1631.05,-2383.35) ">
<use xlink:href="#Layer0_0_MEMBER_4_FILL"/>
</g>

<g transform="matrix( 7, 0, 0, 7, -1631.05,-2383.35) ">
<use xlink:href="#Layer0_0_MEMBER_5_MEMBER_0_FILL"/>
</g>

<g transform="matrix( 7, 0, 0, 7, -1631.05,-2383.35) ">
<use xlink:href="#Layer0_0_MEMBER_5_MEMBER_1_FILL"/>
</g>

<g transform="matrix( 7, 0, 0, 7, -1631.05,-2383.35) ">
<use xlink:href="#Layer0_0_MEMBER_5_MEMBER_2_FILL"/>
</g>

<g transform="matrix( 7, 0, 0, 7, -1631.05,-2383.35) ">
<use xlink:href="#Layer0_0_MEMBER_5_MEMBER_3_FILL"/>
</g>

<g transform="matrix( 7, 0, 0, 7, -1631.05,-2383.35) ">
<use xlink:href="#Layer0_0_MEMBER_5_MEMBER_4_FILL"/>
</g>

<g transform="matrix( 7, 0, 0, 7, -1631.05,-2383.35) ">
<use xlink:href="#Layer0_0_MEMBER_5_MEMBER_5_FILL"/>
</g>

<g transform="matrix( 7, 0, 0, 7, -1631.05,-2383.35) ">
<use xlink:href="#Layer0_0_MEMBER_5_MEMBER_6_FILL"/>
</g>

<g transform="matrix( 7, 0, 0, 7, -1631.05,-2383.35) ">
<use xlink:href="#Layer0_0_MEMBER_6_FILL"/>
</g>

<g transform="matrix( 1, 0, 0, 1, 0,0) ">
<use xlink:href="#Layer0_0_MEMBER_7_FILL"/>
</g>

<g transform="matrix( 7, 0, 0, 7, -1631.05,-2383.35) ">
<use xlink:href="#Layer0_0_MEMBER_8_MEMBER_0_FILL"/>
</g>

<g transform="matrix( 7, 0, 0, 7, -1631.05,-2383.35) ">
<use xlink:href="#Layer0_0_MEMBER_9_MEMBER_0_FILL"/>
</g>

<g transform="matrix( 7, 0, 0, 7, -1631.05,-2383.35) ">
<use xlink:href="#Layer0_0_MEMBER_10_MEMBER_0_FILL"/>
</g>

<g transform="matrix( 7, 0, 0, 7, -1631.05,-2383.35) ">
<use xlink:href="#Layer0_0_MEMBER_11_MEMBER_0_FILL"/>
</g>

<g transform="matrix( 1, 0, 0, 1, 0,0) ">
<use xlink:href="#Layer0_0_MEMBER_12_MEMBER_0_FILL"/>
</g>

<g transform="matrix( 7, 0, 0, 7, -1631.05,-2383.35) ">
<use xlink:href="#Layer0_0_MEMBER_13_FILL"/>
</g>

<g transform="matrix( 7, 0, 0, 7, 296.05,522) ">
<use xlink:href="#Layer0_0_MEMBER_14_FILL"/>
</g>

<g transform="matrix( 7, 0, 0, 7, -1631.05,-2383.35) ">
<use xlink:href="#Layer0_0_MEMBER_15_MEMBER_0_FILL"/>
</g>

<g transform="matrix( 7, 0, 0, 7, 316.7,541.25) ">
<use xlink:href="#Layer0_0_MEMBER_15_MEMBER_1_FILL"/>
</g>

<g transform="matrix( 7, 0, 0, 7, 326.85,541.6) ">
<use xlink:href="#Layer0_0_MEMBER_15_MEMBER_2_FILL"/>
</g>

<g transform="matrix( 7, 0, 0, 7, 337.35,536) ">
<use xlink:href="#Layer0_0_MEMBER_15_MEMBER_3_FILL"/>
</g>

<g transform="matrix( 7, 0, 0, 7, 351.7,530.4) ">
<use xlink:href="#Layer0_0_MEMBER_15_MEMBER_4_FILL"/>
</g>

<g transform="matrix( 7, 0, 0, 7, 277.85,352.6) ">
<use xlink:href="#Layer0_0_MEMBER_15_MEMBER_5_FILL"/>
</g>

<g transform="matrix( 7, 0, 0, 7, -1631.05,-2383.35) ">
<use xlink:href="#Layer0_0_MEMBER_15_MEMBER_6_FILL"/>
</g>

<g transform="matrix( 1, 0, 0, 1, 0,0) ">
<use xlink:href="#Layer0_0_MEMBER_16_FILL"/>
</g>

<g transform="matrix( 7, 0, 0, 7, -1631.05,-2383.35) ">
<use xlink:href="#Layer0_0_MEMBER_17_MEMBER_0_FILL"/>
</g>

<g transform="matrix( 7, 0, 0, 7, -1631.05,-2383.35) ">
<use xlink:href="#Layer0_0_MEMBER_17_MEMBER_1_FILL"/>
</g>

<g transform="matrix( 7, 0, 0, 7, 411.55,323.2) ">
<use xlink:href="#Layer0_0_MEMBER_17_MEMBER_2_FILL"/>
</g>

<g transform="matrix( 7, 0, 0, 7, 648.15,373.25) ">
<use xlink:href="#Layer0_0_MEMBER_18_FILL"/>
</g>

<g transform="matrix( 1, 0, 0, 1, 0,0) ">
<use xlink:href="#Layer0_0_MEMBER_19_FILL"/>
</g>

<g transform="matrix( 7, 0, 0, 7, -1631.05,-2383.35) ">
<use xlink:href="#Layer0_0_MEMBER_20_MEMBER_0_FILL"/>
</g>

<g transform="matrix( 7, 0, 0, 7, 670.9,261.95) ">
<use xlink:href="#Layer0_0_MEMBER_20_MEMBER_1_FILL"/>
</g>

<g transform="matrix( 7, 0, 0, 7, -1631.05,-2383.35) ">
<use xlink:href="#Layer0_0_MEMBER_20_MEMBER_2_FILL"/>
</g>

<g transform="matrix( 7, 0, 0, 7, -1631.05,-2383.35) ">
<use xlink:href="#Layer0_0_MEMBER_20_MEMBER_3_FILL"/>
</g>

<g transform="matrix( 7, 0, 0, 7, 700.65,260.2) ">
<use xlink:href="#Layer0_0_MEMBER_20_MEMBER_4_FILL"/>
</g>

<g transform="matrix( 7, 0, 0, 7, 524.6,256) ">
<use xlink:href="#Layer0_0_MEMBER_20_MEMBER_5_FILL"/>
</g>

<g transform="matrix( 7, 0, 0, 7, -1631.05,-2383.35) ">
<use xlink:href="#Layer0_0_MEMBER_20_MEMBER_6_FILL"/>
</g>

<g transform="matrix( 7, 0, 0, 7, -1631.05,-2383.35) ">
<use xlink:href="#Layer0_0_MEMBER_20_MEMBER_7_FILL"/>
</g>

<g transform="matrix( 7, 0, 0, 7, 555.05,454.1) ">
<use xlink:href="#Layer0_0_MEMBER_20_MEMBER_8_FILL"/>
</g>

<g transform="matrix( 7, 0, 0, 7, -1631.05,-2383.35) ">
<use xlink:href="#Layer0_0_MEMBER_21_FILL"/>
</g>

<g transform="matrix( 7, 0, 0, 7, -1631.05,-2383.35) ">
<use xlink:href="#Layer0_0_MEMBER_22_FILL"/>
</g>

<g transform="matrix( 7, 0, 0, 7, -1631.05,-2383.35) ">
<use xlink:href="#Layer0_0_MEMBER_23_FILL"/>
</g>
</svg>
