
<svg xmlns="http://www.w3.org/2000/svg" version="1.1" xmlns:xlink="http://www.w3.org/1999/xlink" preserveAspectRatio="none" x="0px" y="0px" width="1024px" height="1024px" viewBox="0 0 1024 1024">
<defs>
<g id="Layer0_0_MEMBER_0_FILL">
<path fill="#CCC0BC" stroke="none" d="
M 55.25 13.1
L 65.5 14.8 65.1 12.4 58.5 11.2 58.55 11.2 48.25 5.25 49.3 5.45 48.9 3.05 42.4 1.9 39.1 0 32.15 4
Q 28.3 3.8 23.85 4.9 19.3 6.05 15.5 8.2 11.7 10.4 9.9 12.95 8.15 15.45 8.7 17.55
L 0 22.55 19.45 33.8 22.95 31.75 33.2 33.4 32.8 31.05 26.25 29.85 55.25 13.1 Z"/>
</g>

<g id="Layer0_0_MEMBER_1_MEMBER_0_FILL">
<path fill="#B6631F" stroke="none" d="
M 208.2 168.25
L 206.75 169.1 200.15 202.1 201.6 201.25 208.2 168.25 Z"/>
</g>

<g id="Layer0_0_MEMBER_1_MEMBER_1_FILL">
<path fill="#894813" stroke="none" d="
M 209.75 170.85
L 206.75 169.1 213.3 209.7 216.35 211.45 209.75 170.85 Z"/>
</g>

<g id="Layer0_0_MEMBER_1_MEMBER_2_FILL">
<path fill="#B6631F" stroke="none" d="
M 211.2 170
L 209.75 170.85 216.35 211.45 217.8 210.6 211.2 170 Z"/>
</g>

<g id="Layer0_0_MEMBER_1_MEMBER_3_FILL">
<path fill="#894813" stroke="none" d="
M 206.75 169.1
L 203.7 167.35 197.15 200.35 200.15 202.1 206.75 169.1 Z"/>
</g>

<g id="Layer0_0_MEMBER_1_MEMBER_4_FILL">
<path fill="#794010" stroke="none" d="
M 199.35 184.6
L 199.35 186.95 212.6 196.15 212.6 193.8 199.35 184.6 Z"/>
</g>

<g id="Layer0_0_MEMBER_1_MEMBER_5_FILL">
<path fill="#D48036" stroke="none" d="
M 200.1 184.15
L 199.35 184.6 212.6 193.8 213.35 193.35 200.1 184.15 Z"/>
</g>

<g id="Layer0_0_MEMBER_1_MEMBER_6_FILL">
<path fill="#B6631F" stroke="none" d="
M 213.35 195.7
L 213.35 193.35 212.6 193.8 212.6 196.15 213.35 195.7 Z"/>
</g>

<g id="Layer0_0_MEMBER_2_FILL">
<path fill="#2F2720" stroke="none" d="
M 182.3 208.35
Q 182.9 208.75 183.7 208.95 184.95 209.3 185.55 208.3 185.75 207.3 185.65 207.05 185.6 206.85 182.2 205.35
L 176.3 203.6 176.1 204.55
Q 176.25 205.1 176.7 205.35
L 179.4 206.75
Q 179.65 206.9 181.6 207.8 181.75 207.9 182.3 208.35 Z"/>
</g>

<g id="Layer0_0_MEMBER_3_FILL">
<path fill="#D5A856" stroke="none" d="
M 185.65 207.25
Q 185.85 206.1 184.8 205.15
L 180.9 203
Q 179.75 202.7 178.6 202.55 176.25 202.2 176.05 202.95 175.75 204.15 176.65 204.7
L 177.8 205.25
Q 178.45 205.55 181.6 207.35 183.85 208.7 184.35 208.6 185.4 208.3 185.65 207.25 Z"/>
</g>

<g id="Layer0_0_MEMBER_4_FILL">
<path fill="#3761A1" stroke="none" d="
M 172.15 169.6
L 172.1 169.7
Q 171.3 170.9 171.65 175.6 171.85 177.95 172.2 180.05
L 173.1 189.05
Q 173.15 189.8 173.7 192.15 174.25 194.55 174.25 195.25 174.25 196.75 174.75 200.6 174.75 200.9 175.2 203 175.2 203.3 175.85 203.7 176.5 204.15 177.35 204.4 177.95 204.55 178.65 204.55 180.75 204.55 181.5 203.45 181.75 203.1 181.75 202.25 181.75 201.45 181.75 201.3 181.2 197.4 181.2 195 181.2 194.85 181.5 188.9 181.8 183.85 181.6 180.9 181.4 178.05 181.3 173.55 181.25 169.65 181.2 169.5
L 180.65 166.4
Q 178.9 166.8 176.95 167.35 173.05 168.55 172.15 169.6 Z"/>
</g>

<g id="Layer0_0_MEMBER_5_FILL">
<path fill="#17377A" stroke="none" d="
M 3.3 22.75
Q 2.2 14.7 2.35 13.65 2.4 12.95 3.7 9 4.35 7.05 5 5.2 2.85 1.6 0.55 0 -0.25 1.2 0.1 5.9 0.3 8.25 0.65 10.35
L 1.55 19.35
Q 1.6 20.1 2.15 22.45 2.7 24.85 2.7 25.55 2.7 27.05 3.2 30.9 3.2 31.2 3.65 33.3 3.65 33.6 4.3 34 4.95 34.45 5.8 34.7
L 5.35 33.95
Q 4.8 30.85 4.55 30.2 3.95 27.9 3.9 27.8 5.45 30 5.4 29.6 5.35 29.4 4.5 27.1
L 3.3 22.75 Z"/>
</g>

<g id="Layer0_0_MEMBER_6_FILL">
<path fill="#2F2720" stroke="none" d="
M 165.65 209.85
L 165.9 210.1
Q 166.15 210.55 166.3 211.25 166.8 214.1 169.1 214.95 170.4 215.4 171.5 215.4 172.4 215.35 172.7 215.1 173.3 214.6 173.15 213.75 173.1 213.35 171.85 212.4
L 165.9 207.85 165.6 208.8
Q 165.55 209.15 165.65 209.85 Z"/>
</g>

<g id="Layer0_0_MEMBER_7_FILL">
<path fill="#D5A856" stroke="none" d="
M 171.15 207.55
L 169.8 205.25 165.8 206.15 165.75 207.35
Q 165.7 208.65 165.8 208.85
L 166.5 210.1 166.65 210.9
Q 166.9 211.85 167.25 212.4 168.2 214.15 170.05 214.6 171.05 214.85 172 214.6 173 214.35 173.15 213.85 173.25 213.45 172.6 212 171.85 210.5 171.65 210 171.4 209.45 171.25 208.45
L 171.15 207.55 Z"/>
</g>

<g id="Layer0_0_MEMBER_8_FILL">
<path fill="#3761A1" stroke="none" d="
M 176.7 172.25
L 176.5 170.45 166 167.7 166 167.65 163.8 167.1 163.35 170.25
Q 162.95 174.1 163.15 177.5 163.3 180.25 163.8 185.55 164.2 189.8 164.15 190.3 163.5 195 163.55 197.3 163.55 198.75 163.95 201.95 164.35 204.95 164.35 205.25 164.25 206.65 164.5 207.8 164.6 208.1 165.7 208.55 167.15 209.15 167.9 209.05 168.7 209 169.9 208.75 171.2 208.4 171.6 208.1 172 207.8 172 205.35 172 203.15 171.7 201.1 171.5 199.8 171.6 196.7 171.7 193.7 171.55 192.95 171.4 192 171.9 188
L 172.4 184.25 173.8 180.25
Q 175.65 178.9 176.35 176.1 176.8 174.35 176.7 172.25 Z"/>
</g>

<g id="Layer0_0_MEMBER_9_FILL">
<path fill="#17377A" stroke="none" d="
M 1.1 10.4
L 2 4.65
Q 2.45 2.95 2.9 0.6
L 2.9 0.55 0.7 0
Q -0.25 4.95 0.05 10.4 0.2 13.15 0.7 18.45 1.1 22.7 1.05 23.2 0.4 27.9 0.45 30.2 0.45 31.65 0.85 34.85 1.25 37.85 1.25 38.15 1.15 39.55 1.4 40.7 1.5 41 2.6 41.45 2 37.75 2 37.65 1.6 32.85 1.65 32.55
L 2 30 2.6 31.45
Q 1.9 27.9 1.95 27.2
L 1.1 10.4 Z"/>
</g>

<g id="Layer0_0_MEMBER_10_FILL">
<path fill="#D27D32" stroke="none" d="
M 223.1 175.65
L 223.1 173.8 184 196.4 184 198.2 223.1 175.65 Z"/>
</g>

<g id="Layer0_0_MEMBER_11_MEMBER_0_FILL">
<path fill="#B6631F" stroke="none" d="
M 175.9 186.9
L 174.45 187.75 167.85 220.75 169.35 219.9 175.9 186.9 Z"/>
</g>

<g id="Layer0_0_MEMBER_11_MEMBER_1_FILL">
<path fill="#894813" stroke="none" d="
M 177.45 189.5
L 174.45 187.75 181 228.35 184.05 230.05 177.45 189.5 Z"/>
</g>

<g id="Layer0_0_MEMBER_11_MEMBER_2_FILL">
<path fill="#B6631F" stroke="none" d="
M 178.95 188.65
L 177.45 189.5 184.05 230.05 185.5 229.25 178.95 188.65 Z"/>
</g>

<g id="Layer0_0_MEMBER_11_MEMBER_3_FILL">
<path fill="#894813" stroke="none" d="
M 174.45 187.75
L 171.4 186 164.85 219 167.85 220.75 174.45 187.75 Z"/>
</g>

<g id="Layer0_0_MEMBER_11_MEMBER_4_FILL">
<path fill="#794010" stroke="none" d="
M 167.05 205.6
L 180.35 214.8 180.3 212.45 167.05 203.25 167.05 205.6 Z"/>
</g>

<g id="Layer0_0_MEMBER_11_MEMBER_5_FILL">
<path fill="#D48036" stroke="none" d="
M 181.1 212
L 167.8 202.8 167.05 203.25 180.3 212.45 181.1 212 Z"/>
</g>

<g id="Layer0_0_MEMBER_11_MEMBER_6_FILL">
<path fill="#B6631F" stroke="none" d="
M 181.1 214.35
L 181.1 212 180.3 212.45 180.35 214.8 181.1 214.35 Z"/>
</g>

<g id="Layer0_0_MEMBER_12_FILL">
<path fill="#F7C163" stroke="none" d="
M 164.6 185.15
L 184 196.4 223.1 173.8 203.7 162.6 164.6 185.15 Z"/>
</g>

<g id="Layer0_0_MEMBER_13_FILL">
<path fill="#9B5E3A" stroke="none" d="
M 181.35 173.65
L 181.35 174.8 205.4 188.65 205.4 187.55 181.35 173.65 Z"/>
</g>

<g id="Layer0_0_MEMBER_14_FILL">
<path fill="#EED899" stroke="none" d="
M 193.3 166.8
L 181.35 173.65 205.4 187.55 217.3 180.65 193.3 166.8 Z"/>
</g>

<g id="Layer0_0_MEMBER_15_FILL">
<path fill="#BA8C53" stroke="none" d="
M 9.25 4.65
L 7.4 2.3 1.75 0 0 1 0.85 1.65 1.7 3.9 2.15 4.35 2.15 4.45 4.45 4.45 4.6 4.25 4.45 4.05 3.05 4.05 4.3 3.4 8.1 4.5 8.45 4.3 9.25 4.65 Z"/>
</g>

<g id="Layer0_0_MEMBER_16_FILL">
<path fill="#D8AE6F" stroke="none" d="
M 205.4 188.65
L 217.3 181.75 217.3 180.65 205.4 187.55 205.4 188.65 Z"/>
</g>

<g id="Layer0_0_MEMBER_17_FILL">
<path fill="#9E5913" stroke="none" d="
M 184 196.4
L 164.6 185.15 164.6 187 184 198.2 184 196.4 Z"/>
</g>

<g id="Layer0_0_MEMBER_18_FILL">
<path fill="#FBC7AC" stroke="none" d="
M 190.5 154.45
L 187.6 149.65
Q 187 149.1 185.7 149.4 184.9 149.65 184.25 150.25 183.3 151.1 183.7 152.05
L 184.1 152.95
Q 184.55 153.95 184.95 154.45 185.9 155.65 187.05 158.3 188.55 161.7 189.85 163.55 191.6 166.05 191.85 167.9 191.9 168.05 191.7 170.5 191.7 170.65 191.65 171.3 191.65 171.9 191.85 172.1 192.25 172.4 192.65 171.85
L 192.8 170.85 193.6 170.2 198.15 172.15 198.35 172.05 198.5 171.95 198.7 171.85 198.7 171.9 199.3 172.3 199.55 172.2 199.75 172.05 199.9 171.7 199.8 171.2 197.65 168.95 196.05 168
Q 194.85 167.1 194.75 166.85 192.75 160.35 192.45 159.5 191.4 155.9 190.5 154.45 Z"/>
</g>

<g id="Layer0_0_MEMBER_19_FILL">
<path fill="#F5A480" stroke="none" d="
M 0.1 2.15
Q 0.7 3.75 1.35 4.55 2.3 5.75 3.45 8.4 4.95 11.8 6.25 13.65 8 16.15 8.25 18 8.3 18.15 8.1 20.6 8.1 20.75 8.05 21.4 8.05 22 8.25 22.2 8.65 22.5 9.05 21.95
L 9.1 21.7
Q 8.85 21.95 8.65 22
L 8.4 22 8.35 20.8 8.6 18.9 8.9 17.7 8.4 17.3 4.65 9 4.95 6.5 4.8 5.75 4.2 7.65
Q 3.9 8.2 3.75 8.05 2.5 5.1 2.45 4.75 1.35 3.2 1.05 2.25 0.95 2 1.85 0.55 2.35 -0.3 0.65 0.35 -0.3 1.2 0.1 2.15 Z"/>
</g>

<g id="Layer0_0_MEMBER_20_FILL">
<path fill="#F5A480" stroke="none" d="
M 6.9 2.55
L 6.35 2 5.95 1.8
Q 5.75 1.75 5.6 1.95 5.45 2.1 4.25 1.8
L 1.25 0.15 0.25 0
Q -0.05 0.85 0 1.05
L 0.05 1.95 0.15 1.2 0.95 0.55 5.5 2.5 6.05 2.2 6.65 2.65 6.9 2.55 Z"/>
</g>

<g id="Layer0_0_MEMBER_21_FILL">
<path fill="#F5A480" stroke="none" d="
M 1.55 2.4
Q 3.35 5.45 3.5 5.9
L 7.25 17.3 7.2 17.75 8.7 18.2
Q 7.5 17.3 7.4 17.05 5.4 10.55 5.1 9.7 4.05 6.1 3.15 4.65
L 0.35 0 0 0.25
Q 0.45 0.45 1.55 2.4 Z"/>
</g>

<g id="Layer0_0_MEMBER_22_FILL">
<path fill="#F5A480" stroke="none" d="
M 3.65 2.95
L 3.55 2.4 0 0 3.45 2.55 3.5 3.05 3.65 2.95 Z"/>
</g>

<g id="Layer0_0_MEMBER_23_FILL">
<path fill="#F5A480" stroke="none" d="
M 3.6 3.15
L 3.75 3.25 3.75 2.55
Q 3.75 2.45 2.55 1.45
L 0 0 2.55 1.6 3.65 2.6 3.6 3.15 Z"/>
</g>

<g id="Layer0_0_MEMBER_24_FILL">
<path fill="#FD8839" stroke="none" d="
M 187.3 148
Q 186.45 145.65 186 144.65
L 183.95 140.9
Q 183.4 141.25 182.9 141.7 181.85 142.55 181.95 142.9 182.1 143.15 182.85 148.05 183.65 152.8 183.7 152.8 183.85 152.8 186.5 151.15 187.5 150.5 188.05 149.75 187.65 148.55 187.3 148 Z"/>
</g>

<g id="Layer0_0_MEMBER_25_FILL">
<path fill="#F6562A" stroke="none" d="
M 456.55 230
L 431.35 230.35
Q 401.6 245.75 390.75 254.15 382.7 260.1 375.35 267.45 368 274.8 367.3 277.6 366.6 279.7 361.7 338.5
L 361.7 340.95
Q 361 346.55 356.8 368.25 352.6 390.3 349.8 401.5
L 349.1 405
Q 343.15 427.75 345.25 439.3 345.6 441.05 345.95 454.7 346.3 464.5 347.7 465.2
L 352.95 467.3
Q 373.95 476.05 391.45 477.8 420.5 480.6 451.3 466.95 464.25 461 469.15 444.9
L 470.9 438.25
Q 470.55 422.15 472.65 409.9
L 487.35 349.35
Q 491.9 328.35 495.05 304.9 500.65 257.65 492.25 244.7 483.85 232.1 456.55 230 Z"/>
</g>

<g id="Layer0_0_MEMBER_26_FILL">
<path fill="#3761A1" stroke="none" d="
M 480.7 238.05
L 455.85 232.1 462.85 239.8
Q 470.55 250.3 473.7 263.25 479.3 284.6 461.1 378.75
L 473.35 384
Q 477.9 343.05 483.85 296.85 487.7 268.15 484.55 250.3
L 480.7 238.05 Z"/>
</g>

<g id="Layer0_0_MEMBER_27_FILL">
<path fill="#3761A1" stroke="none" d="
M 174.5 145.45
Q 173.7 144 171.6 143.1
L 169.65 142.5 167.95 143.95 169.85 144.4
Q 171.95 145.2 173.1 146.85 174.25 148.5 173.8 155.3 173.55 158.7 173.1 161.75
L 174.9 162.55 175.5 153.05
Q 175.75 150.4 175.55 148.9 175.35 147.15 174.5 145.45 Z"/>
</g>

<g id="Layer0_0_MEMBER_28_FILL">
<path fill="#3761A1" stroke="none" d="
M 477.55 388.2
Q 472.3 387.5 475.8 364.75
L 480.35 342.35 413.15 355.3
Q 412.45 355.65 404.05 385.4 394.25 415.15 384.45 414.45 372.2 413.75 349.8 401.5
L 349.1 405
Q 343.15 427.75 345.25 439.3 345.6 441.05 345.95 454.7 346.3 464.5 347.7 465.2
L 352.95 467.3
Q 373.95 476.05 391.45 477.8 420.5 480.6 451.3 466.95 464.25 461 469.15 444.9
L 470.9 438.25
Q 470.55 422.15 472.65 409.9
L 477.55 388.2 Z"/>
</g>

<g id="Layer0_0_MEMBER_29_FILL">
<path fill="#FD8839" stroke="none" d="
M 182 155.05
Q 182 154.8 181.8 154.7 181.6 154.6 181.35 154.65 180.75 154.85 180.85 155.4 180.95 156 181.5 155.8 182.1 155.65 182 155.05 Z"/>
</g>

<g id="Layer0_0_MEMBER_30_FILL">
<path fill="#FD8839" stroke="none" d="
M 175 156.35
Q 175 156.1 174.8 156 174.6 155.9 174.35 155.95 173.75 156.15 173.85 156.7 173.95 157.3 174.5 157.1 175.1 156.95 175 156.35 Z"/>
</g>

<g id="Layer0_0_MEMBER_31_FILL">
<path fill="#4577C6" stroke="none" d="
M 444.65 355.3
Q 421.2 359.15 420.85 363
L 419.1 376.65
Q 417.7 390.65 418.75 392.05 419.45 393.1 432.05 398 438.35 400.45 444.65 402.55
L 463.9 386.8
Q 465.3 385.75 467.4 370.7 469.15 355.3 468.45 353.55 467.75 351.45 444.65 355.3 Z"/>
</g>

<g id="Layer0_0_MEMBER_32_FILL">
<path fill="#6799E8" stroke="none" d="
M 180.95 156.5
Q 180.4 156.3 174.8 157.35 174.55 157.4 174.3 157.5 173.85 157.75 173.8 157.95 173.6 158.6 173.8 159.1 173.9 159.25 175.7 159.5 177.5 159.8 177.55 159.7 180.75 158.2 180.8 157.9 181.05 156.55 180.95 156.5 Z"/>
</g>

<g id="Layer0_0_MEMBER_33_FILL">
<path fill="#333C45" stroke="none" d="
M 418.75 392.05
Q 417.8646484375 390.86953125 418.7 380.7
L 406.15 377.85
Q 405.1890625 381.3658203125 404.05 385.4 394.25 415.15 384.45 414.45 372.252734375 413.7529296875 350 401.6 349.51171875 403.5298828125 349.1 405 343.15 427.75 345.25 439.3 345.6 441.4 345.95 454.7 346.65 464.5 347.7 465.2
L 352.95 467.3 353.65 436.85
Q 371.85 438.25 377.45 437.55 382.7 437.2 415.25 429.5 420.85 428.1 449.9 433.35
L 454.45 440.35 469.15 444.9 470.9 438.25
Q 470.55 422.15 472.65 409.9
L 475.45 396.95 463.1 387.45 444.65 402.55
Q 438.35 400.45 432.05 398 419.45 393.1 418.75 392.05 Z"/>

<path fill="#E43513" stroke="none" d="
M 361.7 338.5
L 361.7 341.3
Q 361.35 346.9 356.45 371.4 352.3732421875 392.0748046875 350 401.6 372.252734375 413.7529296875 384.45 414.45 394.25 415.15 404.05 385.4 405.1890625 381.3658203125 406.15 377.85
L 397.75 375.95 400.2 365.1
Q 401.6 356.7 402.65 330.45
L 361.7 338.5 Z"/>

<path fill="#404A56" stroke="none" d="
M 418.7 380.7
Q 417.8646484375 390.86953125 418.75 392.05 419.45 393.1 432.05 398 438.35 400.45 444.65 402.55
L 463.1 387.45 458.65 384
Q 433.1 383.3 425.4 382.25
L 418.7 380.7 Z"/>
</g>

<g id="Layer0_0_MEMBER_34_FILL">
<path fill="#FBC7AC" stroke="none" d="
M 170.05 156.35
Q 167.45 153.6 165.2 154.5 164.8 154.7 164.45 154.95
L 164.2 155.2 164.05 156.3
Q 163.95 157.45 164 157.95 164.15 158.75 163.75 162.4 163.85 163.7 164.3 164.4 164.45 164.6 164.95 164.6
L 165.15 164.55
Q 165.7 164.3 167 163.5 168.2 162.7 168.35 162.55 168.45 162.45 168.9 160.8
L 169.4 159.35
Q 169.7 158.5 169.9 157.35
L 170.05 156.35 Z"/>
</g>

<g id="Layer0_0_MEMBER_35_FILL">
<path fill="#FED738" stroke="none" d="
M 183.95 156
L 182.3 155.2 178.75 164.55 180.5 165.4 183.95 156 Z"/>
</g>

<g id="Layer0_0_MEMBER_36_FILL">
<path fill="#FD9228" stroke="none" d="
M 184.5 155.75
L 183.95 156 180.5 165.4 180.95 165.1 184.5 155.75 Z"/>
</g>

<g id="Layer0_0_MEMBER_37_FILL">
<path fill="#FBC7AC" stroke="none" d="
M 184.3 160.8
Q 184.75 160.8 184.8 160.55
L 184.55 160 183.9 159.6 183.45 159.4
Q 183.6 159.25 183.45 159.15 183.3 159.05 182.35 158.85 181.4 158.65 181.05 158.6 180.65 158.5 180.2 158.6 179.75 158.65 179.7 158.85 179.6 159.05 179.1 159.6 178.5 160.2 178.25 160.25 175.15 160.8 172.95 160.9 172.65 160.95 172.15 160.95
L 172.1 160.95 171.95 160.9
Q 170.25 160.85 169 160.55
L 168.1 160.4
Q 167.85 160.35 166.25 160.95 165 161.4 164.7 161.7 164.35 162.3 164.2 163.2 164.1 163.95 164.3 164.4 164.75 165.55 165.75 165.55 166.2 165.65 168.35 165.65 170.9 165.7 171.9 165.4 172.1 165.35 175.4 164.4 177.75 163.7 178.15 163.75 178.8 163.8 179.25 163.75 180.35 164 180.5 164 181 164 182.35 163.75 182.85 163.75 183.5 163.3 183.65 163.2 183.65 162.7
L 184.05 162.55
Q 184.15 162.45 184 161.95
L 183.9 161.8
Q 184.4 161.8 184.5 161.65
L 184.4 160.95 184.3 160.8 Z"/>
</g>

<g id="Layer0_0_MEMBER_38_FILL">
<path fill="#FBC7AC" stroke="none" d="
M 443.6 216
Q 429.6 197.8 429.95 203.4 430.3 212.5 425.4 233.5 424 239.1 415.95 242.95
L 431 263.95
Q 456.9 279.35 457.95 277.6
L 463.9 265.7
Q 469.15 245.75 462.5 239.8 461.1 238.75 443.6 216 Z"/>
</g>

<g id="Layer0_0_MEMBER_39_FILL">
<path fill="#F9D3BF" stroke="none" d="
M 480.15 237.9
Q 473.025390625 235.3076171875 465.25 234.35
L 480.15 237.9
M 457.6 233.95
L 457.55 233.95 457.9 234.35
Q 457.7634765625 234.18046875 457.6 233.95 Z"/>

<path fill="#F04720" stroke="none" d="
M 483.15 239.1
Q 481.95078125 238.592578125 480.7 238.1
L 484.55 250.3
Q 485.32578125 254.6966796875 485.65 259.75 487.47109375 256.6982421875 489.45 253.1
L 483.15 239.1
M 457.9 234.35
Q 461.86484375 239.323828125 462.5 239.8 469.15 245.75 463.9 265.7
L 459.55 274.35
Q 467.3224609375 279.2138671875 472.65 276.55 473.695703125 276.0619140625 475 274.85 474.8306640625 267.5603515625 473.7 263.25 470.55 250.3 462.85 239.8
L 457.9 234.35 Z"/>

<path fill="#F5A480" stroke="none" d="
M 457.9 234.35
L 457.55 233.95
Q 443.17578125 234.6603515625 439.4 247.15 446.05 263.6 454.45 270.6 457.1259765625 272.8578125 459.55 274.35
L 463.9 265.7
Q 469.15 245.75 462.5 239.8 461.86484375 239.323828125 457.9 234.35 Z"/>

<path fill="#355078" stroke="none" d="
M 457.6 233.95
Q 457.7634765625 234.18046875 457.9 234.35
L 462.85 239.8
Q 470.55 250.3 473.7 263.25 474.8306640625 267.5603515625 475 274.85 479.0853515625 270.9697265625 485.65 259.75 485.32578125 254.6966796875 484.55 250.3
L 480.7 238.1
Q 480.439453125 238.0294921875 480.15 237.9
L 465.25 234.35
Q 464.586328125 234.2708984375 463.9 234.2 460.5279296875 233.8451171875 457.6 233.95 Z"/>
</g>

<g id="Layer0_0_MEMBER_40_FILL">
<path fill="#F5A480" stroke="none" d="
M 20.55 6.3
Q 21 6.3 21.05 6.05
L 20.8 5.5 20.15 5.1 19.7 4.9
Q 19.85 4.75 19.7 4.65 19.55 4.55 18.6 4.35 17.65 4.15 17.3 4.1
L 19.4 4.75 20.2 5.25 20.75 5.8 20.4 6.1 19.3 5.85
Q 19.2 5.9 17.35 5.75
L 20.25 6.4
Q 20.55 6.6 20.35 7.1
L 19.8 7.2 17.15 7.15 18.1 7.45 19.6 7.45 19.9 7.65
Q 19.95 7.75 19.7 8.15
L 19.25 8.25 18.05 8.2 17 8.3
Q 18.9 8.6 18.95 8.55 19 8.5 19.2 8.6 19.3 8.65 19.4 8.7 17.85 9.05 17.5 9.05
L 15.3 8.9
Q 14.7 8.4 14.6 8
L 14.4 6.55 14.1 7.8 14.5 8.9
Q 9.95 9.15 8.15 9.85 6.95 10.35 4.6 10.4 2.7 10.45 2 10.3 1.75 10.3 1.4 10.05 0.45 9.3 0.45 8.7 0.55 4.45 0.65 3.35 0.7 2.75 1.05 1.5 1.45 0.25 1.45 0 0.8 0.3 0.45 0.7 0.15 2.65 0.25 3.45 0.4 4.25 0 7.9 0.05 8.45 0.25 9.15 0.45 9.75 0.55 9.9 1 11.05 2 11.05 6.6 11.35 8.15 10.9 8.35 10.85 11.65 9.9 14 9.2 14.4 9.25 15.05 9.3 15.5 9.25 16.6 9.5 16.75 9.5 17.25 9.5 18.6 9.25 19.1 9.25 19.75 8.8 19.9 8.7 19.9 8.2
L 20.3 8.05
Q 20.4 7.95 20.25 7.45
L 20.15 7.3
Q 20.65 7.3 20.75 7.15
L 20.65 6.45 20.55 6.3 Z"/>
</g>

<g id="Layer0_0_MEMBER_41_FILL">
<path fill="#F5A480" stroke="none" d="
M 6.2 1.6
L 6.05 1.55
Q 4.35 1.5 3.1 1.2
L 3.5 0
Q 2.95 0.35 2.7 0.6 2.45 0.9 0.65 1.35
L 0 1.85 1.9 1.25 3.75 1.6 6.2 1.6 Z"/>
</g>

<g id="Layer0_0_MEMBER_42_FILL">
<path fill="#FD8839" stroke="none" d="
M 169 146
L 166.85 145.05
Q 166.55 145.25 166.2 145.6 165.55 146.3 165.25 147.1 164.85 148.15 164.3 151.65 163.75 155.3 164.05 155.75 164.75 156.7 167.5 157.3 169.4 157.65 170.4 157 172 152.5 171.55 149.3 171.25 147.35 169 146 Z"/>
</g>

<g id="Layer0_0_MEMBER_43_FILL">
<path fill="#FBC7AC" stroke="none" d="
M 181.3 131.9
L 176.1 133.9 175.5 138.9 175.85 140.05
Q 176.25 141.2 176.6 141.5 179.65 144.55 179.9 144.6 180.8 144.7 181.55 144.45 181.65 144.4 182.8 142.6
L 183 142.65 183.45 142.4
Q 183.55 142.25 183.65 141.65
L 183.95 140.9
Q 185.3 138.35 185.5 136.95 185.65 136.05 185.55 134.8
L 185.45 133.7 181.3 131.9 Z"/>
</g>

<g id="Layer0_0_MEMBER_44_FILL">
<path fill="#492728" stroke="none" d="
M 178.75 128.4
Q 177.15 128.8 176.3 129.95 175.65 130.9 175.25 132.7 175.05 133.65 174.9 134.7 174.85 135.2 174.9 138.15
L 175.4 137.9 175.75 137.2
Q 176.2 136.6 176.55 136.95 177.2 137.6 176.9 139
L 177.25 139.35 177.8 138.45
Q 177.95 138.3 178.35 138.25 178.55 138.25 178.75 138.25 179.6 137.15 179.75 136.85 179.85 136.65 180.4 136.6 180.65 136.6 180.9 136.6
L 183.35 137.1
Q 183.9 137.15 185.45 136.8 186.4 135.65 186.3 134.15 186.25 132.7 185.3 131.05 184.1 128.95 182.35 128.5 180.4 128 178.75 128.4 Z"/>
</g>

<g id="Layer0_0_MEMBER_45_FILL">
<path fill="#FED6C1" stroke="none" d="
M 176.85 138.4
Q 176.9 137.65 176.8 137.3 176.7 136.9 176.15 136.55 175.55 136.2 175.35 136.45 175.2 136.65 175.25 137.4 175.3 138.3 175.3 138.35 175.25 138.65 175.5 139.05 175.75 139.45 176 139.55 176.35 139.65 176.65 139.25 176.8 139.15 176.85 138.4 Z"/>
</g>

<g id="Layer0_0_MEMBER_46_FILL">
<path fill="#FED6C1" stroke="none" d="
M 183.1 140.45
L 182.55 140.85 181.85 141.6 182.3 142.05
Q 183 142.2 183.05 142.05 183.15 141.85 183.1 140.45 Z"/>
</g>

<g id="Layer0_0_MEMBER_47_FILL">
<path fill="#FED6C1" stroke="none" d="
M 182.2 137.05
Q 181.25 136.8 181 136.85 180.5 136.9 180.35 136.95 180.05 137 179.95 137.3 179.85 137.6 179.1 138.15 178.25 138.7 178.05 138.8 177.85 138.95 177.85 139.5 177.8 140 177.95 140.45 178.1 140.85 178.8 141.6 179.6 142.35 180 142.3 180.65 142.2 181.15 141.25 179.55 140.7 179.2 140.35 179 140.15 179.05 139.85
L 179.15 139.55
Q 180.2 139.25 180.25 139.15 182.05 139.35 182.2 139.3 182.3 139.3 182.8 139.2 183.3 139.05 183.6 138.85 184.1 138.5 184.1 137.2
L 183.4 137.25
Q 183.15 137.3 182.2 137.05 Z"/>
</g>

<g id="Layer0_0_MEMBER_48_FILL">
<path fill="#242729" stroke="none" d="
M 181.85 153.5
L 180.15 154.3 185.4 157.3 185.95 155.85 181.85 153.5 Z"/>
</g>

<g id="Layer0_0_MEMBER_49_FILL">
<path fill="#3A3D3F" stroke="none" d="
M 185.95 155.85
L 185.4 157.3 186.25 156.85 186.85 155.3 185.95 155.85 Z"/>
</g>

<g id="Layer0_0_MEMBER_50_FILL">
<path fill="#535658" stroke="none" d="
M 181.85 153.5
L 185.95 155.85 186.85 155.3 182.7 153.05 181.85 153.5 Z"/>
</g>

<g id="Layer0_0_MEMBER_51_FILL">
<path fill="#FEC83D" stroke="none" d="
M 183.15 153.9
L 184.45 154.6 184.75 154.45 183.5 153.75 183.15 153.9 Z"/>
</g>

<g id="Layer0_0_MEMBER_52_FILL">
<path fill="#C17E36" stroke="none" d="
M 19.3 12
L 20.75 11.2 1.3 0 0 0.75 19.3 12 Z"/>
</g>

<g id="Layer0_0_MEMBER_53_FILL">
<path fill="#383838" stroke="none" d="
M 194.3 171.9
L 194.5 172.1 194.65 171.9 194.65 168.45 194.3 168.45 194.3 171.9 Z"/>
</g>

<g id="Layer0_0_MEMBER_54_FILL">
<path fill="#383838" stroke="none" d="
M 194.85 168.7
Q 195.15 168.5 194.85 168.25 194.5 168.05 194.1 168.25 193.8 168.5 194.1 168.7 194.5 168.9 194.85 168.7 Z"/>
</g>

<g id="Layer0_0_MEMBER_55_FILL">
<path fill="#777777" stroke="none" d="
M 194.85 168.6
Q 195 168.55 195 168.4 195 168.3 194.85 168.2 194.5 167.9 194.1 168.2 193.95 168.3 193.95 168.4 193.95 168.55 194.1 168.6 194.5 168.9 194.85 168.6 Z"/>
</g>

<g id="Layer0_0_MEMBER_56_FILL">
<path fill="#777777" stroke="none" d="
M 198.35 173.6
Q 198.7 173.35 198.35 173.15 197.95 173 197.6 173.15 197.25 173.35 197.6 173.6 198 173.8 198.35 173.6 Z"/>
</g>

<g id="Layer0_0_MEMBER_57_FILL">
<path fill="#777777" stroke="none" d="
M 204.25 177.05
Q 204.4 177 204.4 176.85 204.4 176.75 204.25 176.65 203.9 176.35 203.5 176.65 203.35 176.75 203.35 176.85 203.35 177 203.5 177.05 203.9 177.35 204.25 177.05 Z"/>
</g>

<g id="Layer0_0_MEMBER_58_FILL">
<path fill="#777777" stroke="none" d="
M 210.15 180.55
Q 210.35 180.5 210.3 180.35 210.3 180.25 210.15 180.15 209.85 179.9 209.45 180.1 209 180.35 209.45 180.55 209.8 180.75 210.15 180.55 Z"/>
</g>
</defs>

<g transform="matrix( 7, 0, 0, 7, 259.15,633.2) ">
<use xlink:href="#Layer0_0_MEMBER_0_FILL"/>
</g>

<g transform="matrix( 7, 0, 0, 7, -796.8,-743.35) ">
<use xlink:href="#Layer0_0_MEMBER_1_MEMBER_0_FILL"/>
</g>

<g transform="matrix( 7, 0, 0, 7, -796.8,-743.35) ">
<use xlink:href="#Layer0_0_MEMBER_1_MEMBER_1_FILL"/>
</g>

<g transform="matrix( 7, 0, 0, 7, -796.8,-743.35) ">
<use xlink:href="#Layer0_0_MEMBER_1_MEMBER_2_FILL"/>
</g>

<g transform="matrix( 7, 0, 0, 7, -796.8,-743.35) ">
<use xlink:href="#Layer0_0_MEMBER_1_MEMBER_3_FILL"/>
</g>

<g transform="matrix( 7, 0, 0, 7, -796.8,-743.35) ">
<use xlink:href="#Layer0_0_MEMBER_1_MEMBER_4_FILL"/>
</g>

<g transform="matrix( 7, 0, 0, 7, -796.8,-743.35) ">
<use xlink:href="#Layer0_0_MEMBER_1_MEMBER_5_FILL"/>
</g>

<g transform="matrix( 7, 0, 0, 7, -796.8,-743.35) ">
<use xlink:href="#Layer0_0_MEMBER_1_MEMBER_6_FILL"/>
</g>

<g transform="matrix( 7, 0, 0, 7, -796.8,-743.35) ">
<use xlink:href="#Layer0_0_MEMBER_2_FILL"/>
</g>

<g transform="matrix( 7, 0, 0, 7, -796.8,-743.35) ">
<use xlink:href="#Layer0_0_MEMBER_3_FILL"/>
</g>

<g transform="matrix( 7, 0, 0, 7, -796.8,-743.35) ">
<use xlink:href="#Layer0_0_MEMBER_4_FILL"/>
</g>

<g transform="matrix( 7, 0, 0, 7, 404.05,444.55) ">
<use xlink:href="#Layer0_0_MEMBER_5_FILL"/>
</g>

<g transform="matrix( 7, 0, 0, 7, -796.8,-743.35) ">
<use xlink:href="#Layer0_0_MEMBER_6_FILL"/>
</g>

<g transform="matrix( 7, 0, 0, 7, -796.8,-743.35) ">
<use xlink:href="#Layer0_0_MEMBER_7_FILL"/>
</g>

<g transform="matrix( 7, 0, 0, 7, -796.8,-743.35) ">
<use xlink:href="#Layer0_0_MEMBER_8_FILL"/>
</g>

<g transform="matrix( 7, 0, 0, 7, 344.9,426.35) ">
<use xlink:href="#Layer0_0_MEMBER_9_FILL"/>
</g>

<g transform="matrix( 7, 0, 0, 7, -796.8,-743.35) ">
<use xlink:href="#Layer0_0_MEMBER_10_FILL"/>
</g>

<g transform="matrix( 7, 0, 0, 7, -796.8,-743.35) ">
<use xlink:href="#Layer0_0_MEMBER_11_MEMBER_0_FILL"/>
</g>

<g transform="matrix( 7, 0, 0, 7, -796.8,-743.35) ">
<use xlink:href="#Layer0_0_MEMBER_11_MEMBER_1_FILL"/>
</g>

<g transform="matrix( 7, 0, 0, 7, -796.8,-743.35) ">
<use xlink:href="#Layer0_0_MEMBER_11_MEMBER_2_FILL"/>
</g>

<g transform="matrix( 7, 0, 0, 7, -796.8,-743.35) ">
<use xlink:href="#Layer0_0_MEMBER_11_MEMBER_3_FILL"/>
</g>

<g transform="matrix( 7, 0, 0, 7, -796.8,-743.35) ">
<use xlink:href="#Layer0_0_MEMBER_11_MEMBER_4_FILL"/>
</g>

<g transform="matrix( 7, 0, 0, 7, -796.8,-743.35) ">
<use xlink:href="#Layer0_0_MEMBER_11_MEMBER_5_FILL"/>
</g>

<g transform="matrix( 7, 0, 0, 7, -796.8,-743.35) ">
<use xlink:href="#Layer0_0_MEMBER_11_MEMBER_6_FILL"/>
</g>

<g transform="matrix( 7, 0, 0, 7, -796.8,-743.35) ">
<use xlink:href="#Layer0_0_MEMBER_12_FILL"/>
</g>

<g transform="matrix( 7, 0, 0, 7, -796.8,-743.35) ">
<use xlink:href="#Layer0_0_MEMBER_13_FILL"/>
</g>

<g transform="matrix( 7, 0, 0, 7, -796.8,-743.35) ">
<use xlink:href="#Layer0_0_MEMBER_14_FILL"/>
</g>

<g transform="matrix( 7, 0, 0, 7, 533.55,430.2) ">
<use xlink:href="#Layer0_0_MEMBER_15_FILL"/>
</g>

<g transform="matrix( 7, 0, 0, 7, -796.8,-743.35) ">
<use xlink:href="#Layer0_0_MEMBER_16_FILL"/>
</g>

<g transform="matrix( 7, 0, 0, 7, -796.8,-743.35) ">
<use xlink:href="#Layer0_0_MEMBER_17_FILL"/>
</g>

<g transform="matrix( 7, 0, 0, 7, -796.8,-743.35) ">
<use xlink:href="#Layer0_0_MEMBER_18_FILL"/>
</g>

<g transform="matrix( 7, 0, 0, 7, 488.4,305.95) ">
<use xlink:href="#Layer0_0_MEMBER_19_FILL"/>
</g>

<g transform="matrix( 7, 0, 0, 7, 551.75,444.2) ">
<use xlink:href="#Layer0_0_MEMBER_20_FILL"/>
</g>

<g transform="matrix( 7, 0, 0, 7, 514.65,305.25) ">
<use xlink:href="#Layer0_0_MEMBER_21_FILL"/>
</g>

<g transform="matrix( 7, 0, 0, 7, 567.15,439.65) ">
<use xlink:href="#Layer0_0_MEMBER_22_FILL"/>
</g>

<g transform="matrix( 7, 0, 0, 7, 568.9,437.9) ">
<use xlink:href="#Layer0_0_MEMBER_23_FILL"/>
</g>

<g transform="matrix( 7, 0, 0, 7, -796.8,-743.35) ">
<use xlink:href="#Layer0_0_MEMBER_24_FILL"/>
</g>

<g transform="matrix( 1, 0, 0, 1, 0,0) ">
<use xlink:href="#Layer0_0_MEMBER_25_FILL"/>
</g>

<g transform="matrix( 1, 0, 0, 1, 0,0) ">
<use xlink:href="#Layer0_0_MEMBER_26_FILL"/>
</g>

<g transform="matrix( 7, 0, 0, 7, -796.8,-743.35) ">
<use xlink:href="#Layer0_0_MEMBER_27_FILL"/>
</g>

<g transform="matrix( 1, 0, 0, 1, 0,0) ">
<use xlink:href="#Layer0_0_MEMBER_28_FILL"/>
</g>

<g transform="matrix( 7, 0, 0, 7, -796.8,-743.35) ">
<use xlink:href="#Layer0_0_MEMBER_29_FILL"/>
</g>

<g transform="matrix( 7, 0, 0, 7, -796.8,-743.35) ">
<use xlink:href="#Layer0_0_MEMBER_30_FILL"/>
</g>

<g transform="matrix( 1, 0, 0, 1, 0,0) ">
<use xlink:href="#Layer0_0_MEMBER_31_FILL"/>
</g>

<g transform="matrix( 7, 0, 0, 7, -796.8,-743.35) ">
<use xlink:href="#Layer0_0_MEMBER_32_FILL"/>
</g>

<g transform="matrix( 1, 0, 0, 1, 0,0) ">
<use xlink:href="#Layer0_0_MEMBER_33_FILL"/>
</g>

<g transform="matrix( 7, 0, 0, 7, -796.8,-743.35) ">
<use xlink:href="#Layer0_0_MEMBER_34_FILL"/>
</g>

<g transform="matrix( 7, 0, 0, 7, -796.8,-743.35) ">
<use xlink:href="#Layer0_0_MEMBER_35_FILL"/>
</g>

<g transform="matrix( 7, 0, 0, 7, -796.8,-743.35) ">
<use xlink:href="#Layer0_0_MEMBER_36_FILL"/>
</g>

<g transform="matrix( 7, 0, 0, 7, -796.8,-743.35) ">
<use xlink:href="#Layer0_0_MEMBER_37_FILL"/>
</g>

<g transform="matrix( 1, 0, 0, 1, 0,0) ">
<use xlink:href="#Layer0_0_MEMBER_38_FILL"/>
</g>

<g transform="matrix( 1, 0, 0, 1, 0,0) ">
<use xlink:href="#Layer0_0_MEMBER_39_FILL"/>
</g>

<g transform="matrix( 7, 0, 0, 7, 349.45,338.15) ">
<use xlink:href="#Layer0_0_MEMBER_40_FILL"/>
</g>

<g transform="matrix( 7, 0, 0, 7, 364.5,372.1) ">
<use xlink:href="#Layer0_0_MEMBER_41_FILL"/>
</g>

<g transform="matrix( 7, 0, 0, 7, -796.8,-743.35) ">
<use xlink:href="#Layer0_0_MEMBER_42_FILL"/>
</g>

<g transform="matrix( 7, 0, 0, 7, -796.8,-743.35) ">
<use xlink:href="#Layer0_0_MEMBER_43_FILL"/>
</g>

<g transform="matrix( 7, 0, 0, 7, -796.8,-743.35) ">
<use xlink:href="#Layer0_0_MEMBER_44_FILL"/>
</g>

<g transform="matrix( 7, 0, 0, 7, -796.8,-743.35) ">
<use xlink:href="#Layer0_0_MEMBER_45_FILL"/>
</g>

<g transform="matrix( 7, 0, 0, 7, -796.8,-743.35) ">
<use xlink:href="#Layer0_0_MEMBER_46_FILL"/>
</g>

<g transform="matrix( 7, 0, 0, 7, -796.8,-743.35) ">
<use xlink:href="#Layer0_0_MEMBER_47_FILL"/>
</g>

<g transform="matrix( 7, 0, 0, 7, -796.8,-743.35) ">
<use xlink:href="#Layer0_0_MEMBER_48_FILL"/>
</g>

<g transform="matrix( 7, 0, 0, 7, -796.8,-743.35) ">
<use xlink:href="#Layer0_0_MEMBER_49_FILL"/>
</g>

<g transform="matrix( 7, 0, 0, 7, -796.8,-743.35) ">
<use xlink:href="#Layer0_0_MEMBER_50_FILL"/>
</g>

<g transform="matrix( 7, 0, 0, 7, -796.8,-743.35) ">
<use xlink:href="#Layer0_0_MEMBER_51_FILL"/>
</g>

<g transform="matrix( 7, 0, 0, 7, 467.75,482.7) ">
<use xlink:href="#Layer0_0_MEMBER_52_FILL"/>
</g>

<g transform="matrix( 7, 0, 0, 7, -796.8,-743.35) ">
<use xlink:href="#Layer0_0_MEMBER_53_FILL"/>
</g>

<g transform="matrix( 7, 0, 0, 7, -796.8,-743.35) ">
<use xlink:href="#Layer0_0_MEMBER_54_FILL"/>
</g>

<g transform="matrix( 7, 0, 0, 7, -796.8,-743.35) ">
<use xlink:href="#Layer0_0_MEMBER_55_FILL"/>
</g>

<g transform="matrix( 7, 0, 0, 7, -796.8,-743.35) ">
<use xlink:href="#Layer0_0_MEMBER_56_FILL"/>
</g>

<g transform="matrix( 7, 0, 0, 7, -796.8,-743.35) ">
<use xlink:href="#Layer0_0_MEMBER_57_FILL"/>
</g>

<g transform="matrix( 7, 0, 0, 7, -796.8,-743.35) ">
<use xlink:href="#Layer0_0_MEMBER_58_FILL"/>
</g>
</svg>
