
<svg xmlns="http://www.w3.org/2000/svg" version="1.1" xmlns:xlink="http://www.w3.org/1999/xlink" preserveAspectRatio="none" x="0px" y="0px" width="1024px" height="1024px" viewBox="0 0 1024 1024">
<defs>
<g id="Layer0_0_MEMBER_0_MEMBER_0_FILL">
<path fill="#D7D3C3" stroke="none" d="
M 75.95 19.85
L 36.9 42.55 36.9 114.85 75.95 92.1 75.95 19.85 Z"/>
</g>

<g id="Layer0_0_MEMBER_0_MEMBER_1_MEMBER_0_FILL">
<path fill="#1C9D3B" stroke="none" d="
M 65.75 85.25
L 56.7 90.55 56.7 102.8 65.75 97.55 65.75 85.25 Z"/>
</g>

<g id="Layer0_0_MEMBER_0_MEMBER_1_MEMBER_1_FILL">
<path fill="#2AAA4B" stroke="none" d="
M 56.1 90.9
L 47.05 96.15 47.05 108.45 56.1 103.2 56.1 90.9 Z"/>
</g>

<g id="Layer0_0_MEMBER_0_MEMBER_1_MEMBER_2_FILL">
<path fill="#2AAA4B" stroke="none" d="
M 75.45 79.6
L 66.4 84.9 66.4 97.2 75.45 91.9 75.45 79.6 Z"/>
</g>

<g id="Layer0_0_MEMBER_0_MEMBER_1_MEMBER_3_FILL">
<path fill="#32C758" stroke="none" d="
M 37.25 101.85
L 37.25 114.15 46.3 108.9 46.3 96.6 37.25 101.85 Z"/>
</g>

<g id="Layer0_0_MEMBER_0_MEMBER_2_MEMBER_0_FILL">
<path fill="#32C758" stroke="none" d="
M 65.75 72.3
L 56.7 77.6 56.7 89.85 65.75 84.6 65.75 72.3 Z"/>
</g>

<g id="Layer0_0_MEMBER_0_MEMBER_2_MEMBER_1_FILL">
<path fill="#2AAA4B" stroke="none" d="
M 56.1 77.95
L 47.05 83.2 47.05 95.5 56.1 90.25 56.1 77.95 Z"/>
</g>

<g id="Layer0_0_MEMBER_0_MEMBER_2_MEMBER_2_FILL">
<path fill="#2AAA4B" stroke="none" d="
M 75.45 66.7
L 66.4 71.95 66.4 84.25 75.45 78.95 75.45 66.7 Z"/>
</g>

<g id="Layer0_0_MEMBER_0_MEMBER_2_MEMBER_3_FILL">
<path fill="#1C9D3B" stroke="none" d="
M 46.3 95.95
L 46.3 83.65 37.25 88.95 37.25 101.2 46.3 95.95 Z"/>
</g>

<g id="Layer0_0_MEMBER_0_MEMBER_3_MEMBER_0_FILL">
<path fill="#1C9D3B" stroke="none" d="
M 56.1 65
L 47.05 70.25 47.05 82.55 56.1 77.3 56.1 65 Z"/>
</g>

<g id="Layer0_0_MEMBER_0_MEMBER_3_MEMBER_1_FILL">
<path fill="#1C9D3B" stroke="none" d="
M 75.45 53.75
L 66.4 59 66.4 71.3 75.45 66.05 75.45 53.75 Z"/>
</g>

<g id="Layer0_0_MEMBER_0_MEMBER_3_MEMBER_2_FILL">
<path fill="#32C758" stroke="none" d="
M 37.25 76
L 37.25 88.25 46.3 83 46.3 70.7 37.25 76 Z"/>
</g>

<g id="Layer0_0_MEMBER_1_FILL">
<path fill="#CCC0BC" stroke="none" d="
M 39.5 19
L 37.7 14.55 24.45 12.15 13.05 4.55 13.05 0 0 7.6
Q 6.85 13.55 8.25 13.75 9.7 13.9 19.3 17.35
L 26.9 18.65
Q 34.85 20 36.3 20.05 38.7 20.15 39.5 19 Z"/>
</g>

<g id="Layer0_0_MEMBER_2_FILL">
<path fill="#000000" fill-opacity="0.2980392156862745" stroke="none" d="
M 0 14.1
Q 2.7 20.4 3.25 20.95
L 12.7 32.25 13.2 51.75 26.25 44.15 26.35 13.6 18.35 3.55 9.95 0 12.25 4 15.9 6.4 11.75 18.75 2.1 11.9 0 14.1 Z"/>
</g>

<g id="Layer0_0_MEMBER_3_MEMBER_0_FILL">
<path fill="#2F2720" stroke="none" d="
M 85 98.15
L 84.05 97.25
Q 81.7 97.85 80.85 98.15 80.3 98.35 79.55 99.3 79.2 99.75 78.9 100.15
L 81.3 100.65
Q 83.25 100.6 83.9 100.35 84.35 100.2 84.75 99.7 85.15 99.25 85.15 99.05
L 85 98.15 Z"/>
</g>

<g id="Layer0_0_MEMBER_3_MEMBER_1_FILL">
<path fill="#D5A856" stroke="none" d="
M 85 98.15
Q 84.95 97.8 84.4 96.8
L 83.9 95.85 78.6 96.7
Q 78.6 99.3 78.85 99.3 78.95 99.3 80.8 99.55 82.7 99.75 83.15 99.65 83.75 99.45 84.35 99 85.05 98.5 85 98.15 Z"/>
</g>

<g id="Layer0_0_MEMBER_3_MEMBER_2_FILL">
<path fill="#3761A1" stroke="none" d="
M 86.7 83.55
L 86.6 82.9
Q 86.9 80.1 82.15 79.1
L 77.3 78.6
Q 70.05 77.9 68.9 78.15 67.35 78.55 66.7 80.2 66.3 80.95 66.4 82.05 66.6 84.25 69.2 86.55
L 79.45 97.4 82.4 97.7
Q 82.7 97.7 83.5 97 84.25 96.35 84.3 96.15 84.4 95.9 83.45 93.35
L 83.2 92.65 84.85 89.85
Q 86.5 87.9 86.85 86.85 87.1 85.85 86.7 83.55 Z"/>
</g>

<g id="Layer0_0_MEMBER_3_MEMBER_3_FILL">
<path fill="#17377A" stroke="none" d="
M 10.75 6.35
Q 12.1 4.85 13 3.5 5.75 0.55 4.35 0.25 3.65 0.1 2.15 0.3 0.85 0.45 0.5 0.25 0.4 0.2 0.3 0 -0.1 0.75 0 1.85 0.2 4.05 2.8 6.35
L 6.15 9.9
Q 8.1 9.3 10.75 6.35 Z"/>
</g>

<g id="Layer0_0_MEMBER_3_MEMBER_4_FILL">
<path fill="#D5A856" stroke="none" d="
M 95.4 104.45
L 93.9 108.4 96.2 109.95
Q 96.85 110.3 97.85 112.8 98.05 113 99.35 112.9 100.1 112.9 100.35 111.85 99.6 109.15 99.15 108.7 98.9 108.4 98.8 106.55
L 98.75 104.75
Q 97.95 104.5 97.5 104.45
L 95.4 104.45 Z"/>
</g>

<g id="Layer0_0_MEMBER_3_MEMBER_5_FILL">
<path fill="#3761A1" stroke="none" d="
M 82.3 95.85
Q 82.65 94.8 83.45 93.35 83.85 92.45 84.2 92 84.55 91.6 84.85 89.85
L 85.05 88.65 84.3 85.65 70.9 88.65 71.6 98.65
Q 71.75 100.45 72.6 103.8 73.35 106.95 73.7 107.35 74.1 107.8 74.85 108.45 75.75 109.2 76.15 109.35 76.65 109.5 80.1 110.05 83.65 110.7 84.4 110.75 85.25 110.9 88.35 111.1 91.55 111.3 91.85 111.25
L 95.45 110.35
Q 95.55 110.35 95.65 108.8
L 95.7 106.6
Q 95.7 105.4 96.15 104.75 96.3 104.55 96.5 104.45
L 96.9 104.35 94.9 103.25 89.2 103.25 81 101.7 80.7 100.9 82.3 95.85 Z"/>
</g>

<g id="Layer0_0_MEMBER_3_MEMBER_6_FILL">
<path fill="#2F2720" stroke="none" d="
M 100.45 108.2
Q 99.85 106.35 99.85 105.85 99.85 105.2 99.35 104.7 98.75 104.15 98.05 105.15
L 97.75 105.7
Q 97.45 106.35 97.55 107.15 97.75 108.45 98.7 110.35 99.1 112.75 99.35 112.9 99.65 113.1 100.8 111.95 100.95 111.8 101.15 111.05 101.35 110.35 101.35 110.15 100.5 108.25 100.45 108.2 Z"/>
</g>

<g id="Layer0_0_MEMBER_3_MEMBER_7_FILL">
<path fill="#17377A" stroke="none" d="
M 24.55 21.7
Q 24.65 21.7 24.75 20.15
L 15.15 21.35 5.4 19.45 3.75 18.25 3.75 14.85
Q 3.65 13.65 3.5 12.4 3.2 9.9 3 9.8 2.7 9.65 1.75 7.05
L 1.45 0.4 0 0 0.7 10
Q 0.85 11.8 1.7 15.15 2.45 18.3 2.8 18.7 3.2 19.15 3.95 19.8 4.85 20.55 5.25 20.7 5.75 20.85 9.2 21.4 12.75 22.05 13.5 22.1 14.35 22.25 17.45 22.45 20.65 22.65 20.95 22.6
L 24.55 21.7 Z"/>
</g>

<g id="Layer0_0_MEMBER_3_MEMBER_8_FILL">
<path fill="#17377A" stroke="none" d="
M 8.1 0.1
Q 6.25 -0.1 5.35 0.3 4.1 0.8 4 2.55 4 3.6 4.1 4.25 5.45 6.4 4.95 7.5 4.45 8.55 2.7 10.5
L 2.7 11.4 2.2 12.45 1.55 13.4 1.8 14.05 2 15
Q 2 18.35 1.35 18.95 0.7 19.5 0 20.45
L 2.55 19.3
Q 3.15 19 5.3 19.35 6.45 19.5 8.15 20.2 9.8 20.85 10.5 20.95 10.85 21 13.8 21 16.45 20.95 17.55 21.3 17.7 21.1 17.9 21
L 18.3 20.9 16.3 19.8 10.6 19.8 2.4 18.25 2.1 17.45 3.15 14.2 3.8 14.25
Q 4.1 14.25 4.9 13.55 5.65 12.9 5.7 12.7 5.8 12.45 4.85 9.9 5.25 9 5.6 8.55 5.95 8.15 6.25 6.4 7.9 4.45 8.25 3.4 8.5 2.4 8.1 0.1 Z"/>
</g>

<g id="Layer0_0_MEMBER_3_MEMBER_9_MEMBER_0_FILL">
<path fill="#32C758" stroke="none" d="
M 61.2 50.7
L 49.2 50.55 48.55 63.2 60.55 63.35 61.2 50.7 Z"/>
</g>

<g id="Layer0_0_MEMBER_3_MEMBER_10_FILL">
<path fill="#FBC7AC" stroke="none" d="
M 56.5 49.05
L 56.45 49.45 56.6 49.75 57.25 49.95 57.3 50.1
Q 57.45 50.3 58 50.45 58.85 50.75 61.25 51.85 61.3 51.9 61.25 52.45
L 60.75 52.7 59.45 52.65 58.65 52.85 58.4 53.45 59.3 53.65
Q 59.65 53.6 60.4 53.75
L 61 53.95
Q 61.7 54.2 62.15 54.15 62.6 54.15 62.9 54.05 63.2 53.9 63.3 53.9 63.5 53.95 64.4 55.35 64.9 56.15 66 57.95 67.1 59.6 69.25 62.1 69.45 62.3 72.05 62.8 74.85 63.35 76.1 63.35 77.8 63.35 77.1 61.05 76.4 58.7 73 57.95
L 71.45 57.55
Q 68 55.45 66.15 53.05 65.2 52.2 64.1 51.4
L 63.15 50.75 61.15 49.65 58.15 49.05 56.7 48.95 56.5 49.05 Z"/>
</g>

<g id="Layer0_0_MEMBER_3_MEMBER_11_FILL">
<path fill="#F5A480" stroke="none" d="
M 4.45 1.2
L 4.85 1.15 0.05 0 0 0.1 4.45 1.2 Z"/>
</g>

<g id="Layer0_0_MEMBER_3_MEMBER_12_FILL">
<path fill="#F5A480" stroke="none" d="
M 1.4 0.2
L 4.75 1.05 1.4 0.05 0 0 0.65 0.2 1.4 0.2 Z"/>
</g>

<g id="Layer0_0_MEMBER_3_MEMBER_13_FILL">
<path fill="#F5A480" stroke="none" d="
M 3.8 2.2
L 3.35 2.4 3.6 2.45 4.65 1.8 2.95 0.9 0 0 0.55 0.2
Q 1.4 0.5 3.8 1.6 3.85 1.65 3.8 2.2 Z"/>
</g>

<g id="Layer0_0_MEMBER_3_MEMBER_14_FILL">
<path fill="#F5A480" stroke="none" d="
M 14.6 6.15
L 13.05 5.75
Q 9.6 3.65 7.75 1.25 7.4 0.9 6.25 0
L 7.6 1.6 8.2 3.25 9.25 4.25 9.3 5.55 10.1 7.95
Q 11.3 8.85 11.4 9 11.55 9.15 11.25 9.75
L 10.5 9.1
Q 9.2 7.85 8.6 7.1 6.45 3.7 6.35 3.5 6.15 2.65 6.3 2.4 6.5 2.15 6.15 1.8
L 5 1.65 3.45 2 2 1.65
Q 1.85 1.55 1.35 1.65 0.75 1.7 0.5 1.65 0.1 1.5 0.1 1.4
L 0 1.65
Q 0.5 1.9 0.9 1.85 1.25 1.8 2 1.95 3.05 2.4 3.75 2.35 4.5 2.35 4.9 2.1 5.1 2.15 6 3.55 6.5 4.35 7.6 6.15 8.7 7.8 10.85 10.3 11.05 10.5 13.65 11 16.45 11.55 17.7 11.55 19.4 11.55 18.7 9.25 18 6.9 14.6 6.15 Z"/>
</g>

<g id="Layer0_0_MEMBER_3_MEMBER_15_FILL">
<path fill="#FBC7AC" stroke="none" d="
M 72.25 70.6
L 64.65 70.1 62.2 72.7
Q 62.05 72.95 61.45 73.5 58.1 70.9 56.75 69.6
L 56.25 69.1 55.5 68.15 55.45 68.15 55.45 68.1 54.25 66.6 53.45 64.3
Q 53.2 63.45 52.9 63.35
L 50.8 62.3 48.5 59.8 48.05 59.75 47.75 59.8 47.6 60.15 47.55 60.2
Q 47.45 60.05 47.3 59.95 47 59.7 46.95 59.75
L 46.7 60.25 46.65 60.3 46.75 60.9 46.45 61.05 46.45 61.1
Q 46.45 61.25 46.75 62
L 46.65 62.6 47.1 63.8
Q 48.5 65.7 48.65 65.75
L 51.3 68.05 53.5 71.15
Q 55.9 74.45 56.85 75.4 57.65 76.15 59.2 77.65 60.6 78.85 61.4 79 62.85 79.15 66.4 76.65 67.3 76.05 69.75 74
L 72.25 70.6 Z"/>
</g>

<g id="Layer0_0_MEMBER_3_MEMBER_16_FILL">
<path fill="#F6562A" stroke="none" d="
M 83.65 60.15
Q 83.05 57.4 82.2 56.35 81.5 55.45 80.1 55.05 79.15 54.75 78.3 54.75 77.95 54.75 77.4 55.05 76.6 55.5 75.4 56.35 74.85 56.75 73.6 58.1
L 69.4 63.2 68.9 73.5 69.95 83.4 71.1 89.85 71.5 90.55
Q 72.15 91.35 73.45 91.75
L 74.1 91.9
Q 76.4 92.3 79.4 91.15 82.05 90.15 83.15 88.95 84.8 87.3 86 85.9 86.65 85.25 87.15 84.45 87.6 83.7 87.45 81.55 87.3 79.45 87.3 79.25 87.3 79.2 85.2 74.85
L 84.4 73.15
Q 84.05 72.15 84.1 70.55 84.2 68.15 84.2 66.05 84.25 63 83.65 60.15 Z"/>
</g>

<g id="Layer0_0_MEMBER_3_MEMBER_17_FILL">
<path fill="#3761A1" stroke="none" d="
M 572.75 425.55
L 579.75 427.3
Q 586.4 431.15 586.4 440.6 586.4 456 579.75 532.65
L 575.55 596.35 586.4 587.25
Q 587.45 521.45 589.55 511.65 590.95 504.65 593.4 472.1 596.2 440.25 595.85 438.85 593.05 428.35 587.8 425.55 583.6 423.45 578.7 423.45 573.1 423.45 572.75 425.55 Z"/>
</g>

<g id="Layer0_0_MEMBER_3_MEMBER_18_FILL">
<path fill="#3761A1" stroke="none" d="
M 624.55 564.5
L 617.2 564.5
Q 615.1 563.45 610.9 563.8 602.15 565.2 590.6 574.65 579.4 583.75 574.5 597.75 572.05 605.1 568.9 614.55 565.4 620.5 551.75 624.7 536.35 629.6 524.1 626.45 520.95 625.75 518.15 626.8
L 525.85 669.5 528.65 674.4
Q 533.2 680 542.3 682.8
L 546.85 683.85
Q 562.95 686.65 583.95 678.6 602.5 671.6 610.2 663.2 621.75 651.65 630.15 641.85 634.7 637.3 638.2 631.7 641.35 626.45 640.3 611.4 639.25 596.7 639.25 595.3 639.25 594.95 624.55 564.5 Z"/>
</g>

<g id="Layer0_0_MEMBER_3_MEMBER_19_FILL">
<path fill="#333C45" stroke="none" d="
M 624.35 564.5
L 617.2 564.5
Q 615.1 563.45 610.9 563.8
L 610.9 587.6
Q 610.55 600.9 607.4 606.15
L 607.4 606.85 615.45 595.3 618.95 579.55 624.2 581.3
Q 629.1 583.4 629.45 584.45
L 633.3 605.45 629.45 611.75
Q 625.6 618.4 626.65 620.85 628.75 624.7 631.9 636.6
L 630.15 641.85
Q 634.7 637.3 638.2 631.7 641.35 626.45 640.3 611.4 638.9 596.7 639.25 595.3 639.25 595.0224609375 630 575.8 629.8875 575.55 629.75 575.25 626.633203125 569.1330078125 624.35 564.5
M 582.35 429.25
Q 584.598046875 429.8435546875 587.1 430.45 591.2890625 431.790625 593.8 432.9 591.5251953125 427.8240234375 588.25 425.8 582.0994140625 423.8 576.25 423.8 575.217578125 423.8 573.9 424.15 572.8947265625 424.68203125 572.75 425.55
L 579.75 427.3
Q 581.2267578125 428.1548828125 582.35 429.25 Z"/>

<path fill="#E43513" stroke="none" d="
M 588.25 425.8
Q 591.5251953125 427.8240234375 593.8 432.9 596.5203125 434.087890625 597.25 435 599.7 437.8 603.9 451.45 607.75 463.7 607.75 466.85 607.75 470 611.95 504.65
L 612.65 521.8 607.4 526 598.65 504.65 600.05 520.4
Q 602.15 537.9 604.25 545.6 607.4 558.2 610.9 563.45
L 610.9 563.8
Q 615.1 563.45 617.2 564.5
L 624.35 564.5
Q 620.230078125 556.0138671875 618.95 552.6 616.5 545.6 616.85 534.4 617.55 517.6 617.55 502.9 617.9 481.55 613.7 461.6 609.5 442.35 603.55 435 598.65 428.7 588.5 425.9 588.3935546875 425.864453125 588.25 425.8
M 582.35 429.25
Q 581.2267578125 428.1548828125 579.75 427.3
L 572.75 425.55
Q 572.8947265625 424.68203125 573.9 424.15 572.1775390625 424.6849609375 569.95 425.9 574.3369140625 427.2708984375 582.35 429.25
M 630.85 577.45
Q 630.4265625 576.618359375 630 575.8 639.25 595.0224609375 639.25 595.3 639.6 593.9 630.85 577.45 Z"/>
</g>

<g id="Layer0_0_MEMBER_3_MEMBER_20_FILL">
<path fill="#FBC7AC" stroke="none" d="
M 77.9 51.7
L 78 50.35
Q 76.9 49.35 75.5 49.55 74.6 49.65 72.25 52.5
L 70.1 55.3 71.65 56.85
Q 72.35 57.5 72.25 59.2
L 72.9 58.85
Q 74.9 57.7 76.4 57.25 77.9 56.8 78.55 55.7 78.25 55.3 77.95 54 77.8 53.2 77.9 51.7 Z"/>
</g>

<g id="Layer0_0_MEMBER_3_MEMBER_21_FILL">
<path fill="#F5A480" stroke="none" d="
M 0.8 0.9
Q 1.5 1.55 1.4 3.25
L 2.05 2.9 1.6 1.3
Q 1.55 1.15 1.5 0.6 1.45 0.1 1.5 0 1.55 -0.05 0.65 0.15
L 0 0.1 0.8 0.9 Z"/>
</g>

<g id="Layer0_0_MEMBER_3_MEMBER_22_FILL">
<path fill="#FBC7AC" stroke="none" d="
M 75.3 48.65
Q 74.85 46 72.85 45.3 70.85 44.65 69.25 44.95
L 68.05 45.4 67.55 47.8 67.4 50.45 67.1 51.6
Q 67.1 51.9 67.85 52.1
L 67.95 52.1 67.95 52.7 68.75 54.95
Q 69.25 56.15 69.5 56.15
L 71.25 56.45 71.65 56.45
Q 71.8 56.45 72.35 55.75 72.95 54.95 73.1 54.55 73.2 54.2 74.3 52.65 74.85 51.9 75.35 51.2 75.55 50 75.3 48.65 Z"/>
</g>

<g id="Layer0_0_MEMBER_3_MEMBER_23_FILL">
<path fill="#333C45" stroke="none" d="
M 524.1 626.45
Q 520.995703125 625.76015625 518.2 626.75
L 525.85 669.5 528.65 674.4
Q 533.2 680 542.3 682.8
L 538.45 661.1
Q 536.107421875 636.796484375 534.5 627.65 529.0435546875 627.72109375 524.1 626.45 Z"/>

<path fill="#E43513" stroke="none" d="
M 525.5 583.75
Q 520.6 571.85 520.6 571.5 520.6 570.45 529.35 560.3 539.15 548.4 540.2 547 543 542.45 548.25 523.55 527.95 514.8 512.55 515.85
L 510.45 555.05 517.8 624.35 518.2 626.75
Q 520.995703125 625.76015625 524.1 626.45 529.0435546875 627.72109375 534.5 627.65 534.1859375 625.9009765625 533.9 624.7 531.8 618.05 531.1 600.2 530.75 596 525.5 583.75 Z"/>
</g>

<g id="Layer0_0_MEMBER_3_MEMBER_24_FILL">
<path fill="#492728" stroke="none" d="
M 68.55 43.85
Q 68.2 44.1 67.6 45.05
L 67.1 45.9 67.9 46.2 68.45 46.8 68.2 49.35 69.15 50.5 69.85 52.5 70.55 52.5 70.65 51.85 71 51.5
Q 71.5 51.15 72.2 51.2 73.3 51.25 74.25 52.9
L 75.9 54.2 76.85 53.95
Q 77 53.8 77.9 53.35
L 78.05 52.35
Q 78.65 50.15 78.75 49.35 78.85 48.5 78.75 46.8 78.65 44.75 78.25 44.25 77.75 43.65 76.1 42.95 74.35 42.2 73.05 42.15 71.05 42.05 68.55 43.85 Z"/>
</g>

<g id="Layer0_0_MEMBER_3_MEMBER_25_FILL">
<path fill="#FED6C1" stroke="none" d="
M 72.8 52.85
Q 72.7 51.8 72.15 51.45 71.75 51.2 71.4 51.35 71.2 51.4 71.35 51.9 71.4 52.15 71.5 52.4
L 71.8 54.2 72 54.3
Q 72.25 54.4 72.4 54.2 72.6 53.95 72.8 52.85 Z"/>
</g>

<g id="Layer0_0_MEMBER_3_MEMBER_26_FILL">
<path fill="#F5A480" stroke="none" d="
M 0 0.6
L 0.8 2.85
Q 1.3 4.05 1.55 4.05
L 3.3 4.35 2.9 3.95 1.7 3.8 1.05 2.95
Q 0.35 1.1 0.3 0.7
L 0.3 0.25 0 0 0 0.6 Z"/>
</g>

<g id="Layer0_0_MEMBER_3_MEMBER_27_FILL">
<path fill="#F5A480" stroke="none" d="
M 0 0.05
L 0.1 0.65 1.6 2.6 2.35 3.4 2.1 2.75 0.85 1.15
Q 0.2 0.5 0.05 0
L 0 0.05 Z"/>
</g>

<g id="Layer0_0_MEMBER_3_MEMBER_28_FILL">
<path fill="#F5A480" stroke="none" d="
M 0 0.4
L 1.45 2.3 2.25 3.1 2.3 3 0.9 1.25
Q 0.45 0.65 0.4 0.45
L 0.45 0 0.15 0.05 0 0.4 Z"/>
</g>

<g id="Layer0_0_MEMBER_3_MEMBER_29_FILL">
<path fill="#F5A480" stroke="none" d="
M 24.95 10.8
Q 24.25 10.5 23.25 10.35
L 22.45 10.25 21.2 13.25
Q 20.85 14.25 20.5 14.6 20.2 14.85 18 16.1 15.85 17.35 15.65 17.4 15.45 17.45 14.8 17.35 14.15 17.3 14.1 17.25 14 17.15 9.65 12.75
L 4.9 6.5 3.05 5.05 0.75 2.55 0.35 1.65 0.4 1.55 1.05 2 2.2 3.6 1.7 2.65 0.7 1.3 0.15 0.35 0 0 0 0.05 0.3 0.95 0.2 1.55 0.65 2.75
Q 2.05 4.65 2.2 4.7
L 4.85 7 7.05 10.1
Q 9.45 13.4 10.4 14.35 11.2 15.1 12.75 16.6 14.15 17.8 14.95 17.95 16.4 18.1 19.95 15.6 20.85 15 23.3 12.95
L 24.95 10.8 Z"/>
</g>

<g id="Layer0_0_MEMBER_3_MEMBER_30_FILL">
<path fill="#F5A480" stroke="none" d="
M 4.2 5.1
L 6.8 1.7 5.45 3.1
Q 5.3 3.35 4.7 3.9 1.35 1.3 0 0
L 1.1 1.2
Q 1.7 1.85 4.35 3.9
L 4.2 5.1 Z"/>
</g>

<g id="Layer0_0_MEMBER_3_MEMBER_31_FILL">
<path fill="#FD8839" stroke="none" d="
M 74.4 63.9
Q 73.8 63.15 71.15 62.6 69.45 62.9 68.65 63.75 67.9 64.6 65.45 68.45
L 63.85 70.6
Q 63.85 70.8 64.3 71.5 64.9 72.45 65.75 73.1 68 74.75 69.35 74.85 70 74.9 73.8 70.3 75.2 67.25 74.9 65.75 74.55 64.1 74.4 63.9 Z"/>
</g>

<g id="Layer0_0_MEMBER_4_FILL">
<path fill="#3761A1" stroke="none" d="
M 83.25 76.4
L 84.3 75.55
Q 78.9 63.7 77.6 62.3 76.65 61.3 75.2 60.65 73.9 60 73.25 60.1 72.8 60.2 72.25 60.15
L 71.8 60.1 70.85 61.35 71.9 61.2
Q 73.3 61.25 75.15 62.2 76.95 63.2 80.3 69.9 81.95 73.25 83.25 76.4 Z"/>
</g>
</defs>

<g transform="matrix( 7, 0, 0, 7, 28.15,40.55) ">
<use xlink:href="#Layer0_0_MEMBER_0_MEMBER_0_FILL"/>
</g>

<g transform="matrix( 7, 0, 0, 7, 28.15,40.55) ">
<use xlink:href="#Layer0_0_MEMBER_0_MEMBER_1_MEMBER_0_FILL"/>
</g>

<g transform="matrix( 7, 0, 0, 7, 28.15,40.55) ">
<use xlink:href="#Layer0_0_MEMBER_0_MEMBER_1_MEMBER_1_FILL"/>
</g>

<g transform="matrix( 7, 0, 0, 7, 28.15,40.55) ">
<use xlink:href="#Layer0_0_MEMBER_0_MEMBER_1_MEMBER_2_FILL"/>
</g>

<g transform="matrix( 7, 0, 0, 7, 28.15,40.55) ">
<use xlink:href="#Layer0_0_MEMBER_0_MEMBER_1_MEMBER_3_FILL"/>
</g>

<g transform="matrix( 7, 0, 0, 7, 28.15,40.55) ">
<use xlink:href="#Layer0_0_MEMBER_0_MEMBER_2_MEMBER_0_FILL"/>
</g>

<g transform="matrix( 7, 0, 0, 7, 28.15,40.55) ">
<use xlink:href="#Layer0_0_MEMBER_0_MEMBER_2_MEMBER_1_FILL"/>
</g>

<g transform="matrix( 7, 0, 0, 7, 28.15,40.55) ">
<use xlink:href="#Layer0_0_MEMBER_0_MEMBER_2_MEMBER_2_FILL"/>
</g>

<g transform="matrix( 7, 0, 0, 7, 28.15,40.55) ">
<use xlink:href="#Layer0_0_MEMBER_0_MEMBER_2_MEMBER_3_FILL"/>
</g>

<g transform="matrix( 7, 0, 0, 7, 28.15,40.55) ">
<use xlink:href="#Layer0_0_MEMBER_0_MEMBER_3_MEMBER_0_FILL"/>
</g>

<g transform="matrix( 7, 0, 0, 7, 28.15,40.55) ">
<use xlink:href="#Layer0_0_MEMBER_0_MEMBER_3_MEMBER_1_FILL"/>
</g>

<g transform="matrix( 7, 0, 0, 7, 28.15,40.55) ">
<use xlink:href="#Layer0_0_MEMBER_0_MEMBER_3_MEMBER_2_FILL"/>
</g>

<g transform="matrix( 7, 0, 0, 7, 447.1,697.85) ">
<use xlink:href="#Layer0_0_MEMBER_1_FILL"/>
</g>

<g transform="matrix( 7, 0, 0, 7, 354.7,388.8) ">
<use xlink:href="#Layer0_0_MEMBER_2_FILL"/>
</g>

<g transform="matrix( 7, 0, 0, 7, 28.15,40.55) ">
<use xlink:href="#Layer0_0_MEMBER_3_MEMBER_0_FILL"/>
</g>

<g transform="matrix( 7, 0, 0, 7, 28.15,40.55) ">
<use xlink:href="#Layer0_0_MEMBER_3_MEMBER_1_FILL"/>
</g>

<g transform="matrix( 7, 0, 0, 7, 28.15,40.55) ">
<use xlink:href="#Layer0_0_MEMBER_3_MEMBER_2_FILL"/>
</g>

<g transform="matrix( 7, 0, 0, 7, 492.95,601.95) ">
<use xlink:href="#Layer0_0_MEMBER_3_MEMBER_3_FILL"/>
</g>

<g transform="matrix( 7, 0, 0, 7, 28.15,40.55) ">
<use xlink:href="#Layer0_0_MEMBER_3_MEMBER_4_FILL"/>
</g>

<g transform="matrix( 7, 0, 0, 7, 28.15,40.55) ">
<use xlink:href="#Layer0_0_MEMBER_3_MEMBER_5_FILL"/>
</g>

<g transform="matrix( 7, 0, 0, 7, 28.15,40.55) ">
<use xlink:href="#Layer0_0_MEMBER_3_MEMBER_6_FILL"/>
</g>

<g transform="matrix( 7, 0, 0, 7, 524.45,661.1) ">
<use xlink:href="#Layer0_0_MEMBER_3_MEMBER_7_FILL"/>
</g>

<g transform="matrix( 7, 0, 0, 7, 578.35,624.7) ">
<use xlink:href="#Layer0_0_MEMBER_3_MEMBER_8_FILL"/>
</g>

<g transform="matrix( 7, 0, 0, 7, 28.15,40.55) ">
<use xlink:href="#Layer0_0_MEMBER_3_MEMBER_9_MEMBER_0_FILL"/>
</g>

<g transform="matrix( 7, 0, 0, 7, 28.15,40.55) ">
<use xlink:href="#Layer0_0_MEMBER_3_MEMBER_10_FILL"/>
</g>

<g transform="matrix( 7, 0, 0, 7, 423.3,383.9) ">
<use xlink:href="#Layer0_0_MEMBER_3_MEMBER_11_FILL"/>
</g>

<g transform="matrix( 7, 0, 0, 7, 424.35,388.8) ">
<use xlink:href="#Layer0_0_MEMBER_3_MEMBER_12_FILL"/>
</g>

<g transform="matrix( 7, 0, 0, 7, 430.3,392.3) ">
<use xlink:href="#Layer0_0_MEMBER_3_MEMBER_13_FILL"/>
</g>

<g transform="matrix( 7, 0, 0, 7, 436.95,403.15) ">
<use xlink:href="#Layer0_0_MEMBER_3_MEMBER_14_FILL"/>
</g>

<g transform="matrix( 7, 0, 0, 7, 28.15,40.55) ">
<use xlink:href="#Layer0_0_MEMBER_3_MEMBER_15_FILL"/>
</g>

<g transform="matrix( 7, 0, 0, 7, 28.15,40.55) ">
<use xlink:href="#Layer0_0_MEMBER_3_MEMBER_16_FILL"/>
</g>

<g transform="matrix( 1, 0, 0, 1, 0,0) ">
<use xlink:href="#Layer0_0_MEMBER_3_MEMBER_17_FILL"/>
</g>

<g transform="matrix( 1, 0, 0, 1, 0,0) ">
<use xlink:href="#Layer0_0_MEMBER_3_MEMBER_18_FILL"/>
</g>

<g transform="matrix( 1, 0, 0, 1, 0,0) ">
<use xlink:href="#Layer0_0_MEMBER_3_MEMBER_19_FILL"/>
</g>

<g transform="matrix( 7, 0, 0, 7, 28.15,40.55) ">
<use xlink:href="#Layer0_0_MEMBER_3_MEMBER_20_FILL"/>
</g>

<g transform="matrix( 7, 0, 0, 7, 524.1,432.2) ">
<use xlink:href="#Layer0_0_MEMBER_3_MEMBER_21_FILL"/>
</g>

<g transform="matrix( 7, 0, 0, 7, 28.15,40.55) ">
<use xlink:href="#Layer0_0_MEMBER_3_MEMBER_22_FILL"/>
</g>

<g transform="matrix( 1, 0, 0, 1, 0,0) ">
<use xlink:href="#Layer0_0_MEMBER_3_MEMBER_23_FILL"/>
</g>

<g transform="matrix( 7, 0, 0, 7, 28.15,40.55) ">
<use xlink:href="#Layer0_0_MEMBER_3_MEMBER_24_FILL"/>
</g>

<g transform="matrix( 7, 0, 0, 7, 28.15,40.55) ">
<use xlink:href="#Layer0_0_MEMBER_3_MEMBER_25_FILL"/>
</g>

<g transform="matrix( 7, 0, 0, 7, 503.8,405.25) ">
<use xlink:href="#Layer0_0_MEMBER_3_MEMBER_26_FILL"/>
</g>

<g transform="matrix( 7, 0, 0, 7, 354.7,462.3) ">
<use xlink:href="#Layer0_0_MEMBER_3_MEMBER_27_FILL"/>
</g>

<g transform="matrix( 7, 0, 0, 7, 361.35,458.8) ">
<use xlink:href="#Layer0_0_MEMBER_3_MEMBER_28_FILL"/>
</g>

<g transform="matrix( 7, 0, 0, 7, 353.3,467.9) ">
<use xlink:href="#Layer0_0_MEMBER_3_MEMBER_29_FILL"/>
</g>

<g transform="matrix( 7, 0, 0, 7, 425.4,527.75) ">
<use xlink:href="#Layer0_0_MEMBER_3_MEMBER_30_FILL"/>
</g>

<g transform="matrix( 7, 0, 0, 7, 28.15,40.55) ">
<use xlink:href="#Layer0_0_MEMBER_3_MEMBER_31_FILL"/>
</g>

<g transform="matrix( 7, 0, 0, 7, 28.15,40.55) ">
<use xlink:href="#Layer0_0_MEMBER_4_FILL"/>
</g>
</svg>
