
<svg xmlns="http://www.w3.org/2000/svg" version="1.1" xmlns:xlink="http://www.w3.org/1999/xlink" preserveAspectRatio="none" x="0px" y="0px" width="1024px" height="1024px" viewBox="0 0 1024 1024">
<defs>
<g id="Layer0_0_MEMBER_0_MEMBER_0_FILL">
<path fill="#CCC0BC" stroke="none" d="
M 54.2 15.85
L 51.45 14.25 15.45 0 0 10.35 7.3 14.55 2.9 19.9 10.45 19.1 14.65 22.25 12.15 29.1 19.2 28.85 23.55 25.8 37.05 26.2 54.2 15.85 Z"/>
</g>

<g id="Layer0_0_MEMBER_0_MEMBER_1_MEMBER_0_FILL">
<path fill="#B15B16" stroke="none" d="
M 239.7 109.65
L 237.6 111.6 255.35 101.35 257.45 99.4 239.7 109.65 Z"/>
</g>

<g id="Layer0_0_MEMBER_0_MEMBER_1_MEMBER_1_FILL">
<path fill="#79B455" stroke="none" d="
M 208.2 91.1
L 210.05 92.2 227.8 81.95 225.9 80.85 208.2 91.1 Z"/>
</g>

<g id="Layer0_0_MEMBER_0_MEMBER_1_MEMBER_2_FILL">
<path fill="#BD672A" stroke="none" d="
M 227.8 81.95
L 230.55 87.05 255.35 101.35 257.45 99.4 255.35 93.45 230.55 79.15 227.8 81.95 Z"/>
</g>

<g id="Layer0_0_MEMBER_0_MEMBER_1_MEMBER_3_FILL">
<path fill="#FEDE8C" stroke="none" d="
M 230.55 79.15
L 212.85 89.4 237.6 103.7 255.35 93.45 230.55 79.15 Z"/>
</g>

<g id="Layer0_0_MEMBER_0_MEMBER_1_MEMBER_4_FILL">
<path fill="#79B455" stroke="none" d="
M 237.1 82.9
L 219.35 93.15 229.4 98.95 247.1 88.7 237.1 82.9 Z"/>
</g>

<g id="Layer0_0_MEMBER_0_MEMBER_1_MEMBER_5_FILL">
<path fill="#789E39" stroke="none" d="
M 239.7 109.65
L 241.6 110.7 259.35 100.5 257.45 99.4 239.7 109.65 Z"/>
</g>

<g id="Layer0_0_MEMBER_0_MEMBER_1_MEMBER_6_FILL">
<path fill="#E99D49" stroke="none" d="
M 237.6 103.7
L 239.7 109.65 257.45 99.4 255.35 93.45 237.6 103.7 Z"/>
</g>

<g id="Layer0_0_MEMBER_0_MEMBER_1_MEMBER_7_FILL">
<path fill="#BD672A" stroke="none" d="
M 210.05 92.2
L 212.85 97.25 237.6 111.6 239.7 109.65 237.6 103.7 212.85 89.4 210.05 92.2 Z"/>
</g>

<g id="Layer0_0_MEMBER_0_MEMBER_1_MEMBER_8_FILL">
<path fill="#3B580B" stroke="none" d="
M 809 669.85
L 738.65 629.25 734.8 682.45 805.15 722.7 809 669.85 Z"/>
</g>

<g id="Layer0_0_MEMBER_0_MEMBER_1_MEMBER_9_FILL">
<path fill="#924918" stroke="none" d="
M 805.15 722.7
L 800.35 720 866.4 758.4 881.1 744.75 806.7 700.95 805.15 722.7
M 734.8 682.1
L 736.45 659.6 673.55 622.6 693.15 657.95 734.8 682.1 Z"/>

<path fill="#2C3E05" stroke="none" d="
M 736.45 659.6
L 734.8 682.1 800.35 720 805.15 722.7 806.7 700.95 736.45 659.6 Z"/>
</g>

<g id="Layer0_0_MEMBER_0_MEMBER_2_MEMBER_0_FILL">
<path fill="#B15B16" stroke="none" d="
M 255.35 93
L 257.45 91.05 239.7 101.3 237.6 103.25 255.35 93 Z"/>
</g>

<g id="Layer0_0_MEMBER_0_MEMBER_2_MEMBER_1_FILL">
<path fill="#79B455" stroke="none" d="
M 208.2 82.75
L 210.05 83.85 227.8 73.6 225.9 72.55 208.2 82.75 Z"/>
</g>

<g id="Layer0_0_MEMBER_0_MEMBER_2_MEMBER_2_FILL">
<path fill="#BD672A" stroke="none" d="
M 257.45 91.05
L 255.35 85.15 230.55 70.8 227.8 73.6 230.55 78.7 255.35 93 257.45 91.05 Z"/>
</g>

<g id="Layer0_0_MEMBER_0_MEMBER_2_MEMBER_3_FILL">
<path fill="#FEDE8C" stroke="none" d="
M 212.85 81.05
L 237.6 95.4 255.35 85.15 230.55 70.8 212.85 81.05 Z"/>
</g>

<g id="Layer0_0_MEMBER_0_MEMBER_2_MEMBER_4_FILL">
<path fill="#79B455" stroke="none" d="
M 237.1 74.6
L 219.35 84.85 229.4 90.6 247.1 80.4 237.1 74.6 Z"/>
</g>

<g id="Layer0_0_MEMBER_0_MEMBER_2_MEMBER_5_FILL">
<path fill="#789E39" stroke="none" d="
M 259.35 92.15
L 257.45 91.05 239.7 101.3 241.6 102.4 259.35 92.15 Z"/>
</g>

<g id="Layer0_0_MEMBER_0_MEMBER_2_MEMBER_6_FILL">
<path fill="#E99D49" stroke="none" d="
M 257.45 91.05
L 255.35 85.15 237.6 95.4 239.7 101.3 257.45 91.05 Z"/>
</g>

<g id="Layer0_0_MEMBER_0_MEMBER_2_MEMBER_7_FILL">
<path fill="#BD672A" stroke="none" d="
M 210.05 83.85
L 212.85 88.95 237.6 103.25 239.7 101.3 237.6 95.4 212.85 81.05 210.05 83.85 Z"/>
</g>

<g id="Layer0_0_MEMBER_0_MEMBER_2_MEMBER_8_FILL">
<path fill="#3B580B" stroke="none" d="
M 805.15 664.6
L 809 611.4 738.65 571.15 734.8 624 805.15 664.6 Z"/>
</g>

<g id="Layer0_0_MEMBER_0_MEMBER_2_MEMBER_9_FILL">
<path fill="#924918" stroke="none" d="
M 806.75 642.55
L 805.15 664.55 866.4 699.95 881.1 686.3 806.75 642.55
M 734.8 623.9
L 736.45 601.15 673.55 564.15 693.15 599.85 734.8 623.9 Z"/>

<path fill="#2C3E05" stroke="none" d="
M 736.45 601.15
L 734.8 623.9 805.15 664.55 806.75 642.55 736.45 601.15 Z"/>
</g>

<g id="Layer0_0_MEMBER_0_MEMBER_3_MEMBER_0_FILL">
<path fill="#2F2720" stroke="none" d="
M 215.15 102.35
L 204.3 105.55 204.25 106.25
Q 204.3 107 204.75 107.45 205.5 108.15 207.3 107.35
L 216 104 216.15 103.3 215.15 102.35 Z"/>
</g>

<g id="Layer0_0_MEMBER_0_MEMBER_3_MEMBER_1_FILL">
<path fill="#D5A856" stroke="none" d="
M 215.9 103.4
Q 216.05 103.15 215.4 101.05
L 209.15 101.85 205.2 104 204.3 105.55 204.5 106.1
Q 204.7 106.55 205.15 106.8 205.55 107 206.05 106.9
L 208.7 106.2
Q 209.75 106 212.5 104.75 215.75 103.65 215.9 103.4 Z"/>
</g>

<g id="Layer0_0_MEMBER_0_MEMBER_3_MEMBER_2_FILL">
<path fill="#863A2F" stroke="none" d="
M 228.75 73.3
L 226.45 72.95
Q 224 74.45 223 74.9 215.8 78 210.15 80.75 207.15 82.25 206.9 84
L 206.85 84.25 206.85 84.45
Q 207 86 209.1 88.1
L 209.55 88.45
Q 210.8 89.25 213.5 89.45 214.65 89.5 215.15 89.4
L 227.5 83.15
Q 231.2 82.45 232.55 80.5 233.6 79 233.15 76.95 232.75 75.05 231.8 74.25 231.2 73.8 228.75 73.3 Z"/>
</g>

<g id="Layer0_0_MEMBER_0_MEMBER_3_MEMBER_3_FILL">
<path fill="#863A2F" stroke="none" d="
M 207.05 84.25
L 206.85 84.25 206.85 84.45
Q 206.85 87.35 207 89.2 207.15 90.45 208.25 96 209.35 101.7 209.6 102.1 210.15 102.75 211.65 102.95 212.5 103.05 213.1 103 213.8 102.95 214.9 102.65 216.5 102.05 216.65 101.5 216.75 101.15 216.45 99.7 216.15 98.35 216.05 98.25 215.5 95.85 215.5 94.25
L 215.15 89.4 214.6 88 214.25 87.6 211.2 84.7 207.05 84.25 Z"/>
</g>

<g id="Layer0_0_MEMBER_0_MEMBER_3_MEMBER_4_FILL">
<path fill="#510F06" stroke="none" d="
M 831.05 540.7
Q 838.4 530.2 835.25 515.85 818.1 514.8 792.55 533 783.45 538.95 776.45 549.1 770.5 558.2 770.5 562.75 770.5 567.65 743.55 574.3
L 719.75 585.5 694.9 592.85 698.75 608.95 694.9 626.45
Q 700.5 663.55 701.9 664.95 702.95 666.35 707.5 695.75 718.7 691.55 719.75 687.7 720.45 685.25 718.35 675.1 716.25 665.65 715.55 664.95 711.7 648.15 711.7 636.95
L 709.25 603 795.7 559.25
Q 821.6 554.35 831.05 540.7 Z"/>
</g>

<g id="Layer0_0_MEMBER_0_MEMBER_3_MEMBER_5_FILL">
<path fill="#6E2B21" stroke="none" d="
M 0.05 0
L 0 0.25 0 0.45
Q 0 3.35 0.15 5.2 0.3 6.45 1.4 12 2.5 17.7 2.75 18.1 3.3 18.75 4.8 18.95 2.8 13 2.55 10.75 2.35 8.65 2.35 6.95 2.4 5.45 2.55 5.2 2.6 5.15 2.7 4.45
L 2.6 1.9 0.6 0.75 0.2 0.25 0.05 0 Z"/>
</g>

<g id="Layer0_0_MEMBER_0_MEMBER_3_MEMBER_6_FILL">
<path fill="#2F2720" stroke="none" d="
M 224.4 113
L 226.25 111.3
Q 227.05 110.55 225.9 109.15
L 219.5 110.45
Q 217.7 112.75 217.05 113.35 216.05 114.35 215.5 115 214.45 116.25 214.65 116.7 214.9 117.25 215.8 117.65 216.75 118.1 217.65 118.1 219.95 118.1 221.85 116.7 223.15 115.7 224.4 113 Z"/>
</g>

<g id="Layer0_0_MEMBER_0_MEMBER_3_MEMBER_7_FILL">
<path fill="#D5A856" stroke="none" d="
M 224.4 112.45
L 226.25 110.75
Q 227.05 109.95 225.9 108.55
L 219.5 109.9
Q 217.7 112.15 217.05 112.8 214.35 115.5 214.65 116.1 214.9 116.65 215.8 117.1 216.75 117.55 217.65 117.55 219.95 117.55 221.85 116.1 223.15 115.15 224.4 112.45 Z"/>
</g>

<g id="Layer0_0_MEMBER_0_MEMBER_3_MEMBER_8_FILL">
<path fill="#863A2F" stroke="none" d="
M 218 90.7
Q 217.5 92.5 217.5 93.9 217.5 94.25 218.35 95.15 219.4 96.2 220.55 96.5
L 221.3 96.6
Q 222.9 96.6 224.8 95.55 225.85 95.05 226.6 94.55
L 230.8 92.35
Q 235.15 90.1 235.95 89.9 236.85 89.7 238.2 88.65 239.5 87.65 240.2 86.75 241.5 85.2 241.8 83.2 241.85 82.6 241.4 81.1
L 240.95 79.75 240.8 79.65
Q 239.2 78.5 237 77.9 233.25 76.9 229.75 78.25 228.95 78.9 228.1 79.6 226.4 81 226.25 81.35 226.15 81.75 226.35 82.75 226.45 83.25 226.6 83.65 224.95 84.6 223.2 85.75 219.6 88 218.85 88.95 218.4 89.5 218 90.7 Z"/>
</g>

<g id="Layer0_0_MEMBER_0_MEMBER_3_MEMBER_9_FILL">
<path fill="#863A2F" stroke="none" d="
M 217.5 93.9
L 217.3 98.7
Q 217.3 99.8 217.95 105.9
L 218.95 110.6 220.05 111.05
Q 221.25 111.55 222.5 111.65 223.5 111.65 225.2 110.75
L 226.15 110.15 226.15 107.3
Q 226.35 103.9 226.4 101.5
L 226.6 92.2 225.95 92.05
Q 222.75 91.35 221.85 91.35 221.5 91.35 220.2 92.1
L 217.5 93.9 Z"/>
</g>

<g id="Layer0_0_MEMBER_0_MEMBER_3_MEMBER_10_FILL">
<path fill="#571711" stroke="none" d="
M 17.05 0
Q 17.25 3.55 16.25 5 14.85 7.2 12.55 8.1 5.2 11.45 3.15 12.05 2.45 12.25 2.2 12.4 0.65 13.1 1.05 14.8 1.15 15.1 1.05 15.9 1 17.45 0.5 21.7 0 25.75 0 26.2 0 27.25 1.45 31.1
L 2.4 30.5 2.4 27.65
Q 2.6 24.25 2.65 21.85
L 2.85 14.9
Q 4.85 13.8 7.05 12.7 11.4 10.45 12.2 10.25 13.1 10.05 14.45 9 15.75 8 16.45 7.1 17.75 5.55 18.05 3.55 18.15 2.55 17.2 0.1
L 17.05 0 Z"/>
</g>

<g id="Layer0_0_MEMBER_0_MEMBER_3_MEMBER_11_FILL">
<path fill="#6E2B21" stroke="none" d="
M 3.05 6.75
L 4.05 1.4
Q 3.55 1.5 2.9 1.4 1.25 1.2 0.7 0 0.2 1.8 0.2 3.2
L 0 8
Q 0 9.1 0.65 15.2 0.65 15.75 1.65 19.9
L 2.75 20.35 3.05 6.75 Z"/>
</g>

<g id="Layer0_0_MEMBER_0_MEMBER_3_MEMBER_12_FILL">
<path fill="#FBC7AC" stroke="none" d="
M 226.45 58.1
L 226.7 56.2 226.65 55.1
Q 226.55 54.95 225.4 54.25
L 223.8 53.55
Q 219.65 55.1 219.15 55.1 218.95 55.1 218.2 56
L 217.4 57.1
Q 216.5 58.5 216.35 58.85
L 216.25 59.15
Q 216.4 59.75 217.9 60.1 219.45 60.45 221.95 59.65 223.85 59.1 226.45 58.1 Z"/>
</g>

<g id="Layer0_0_MEMBER_0_MEMBER_3_MEMBER_13_FILL">
<path fill="#F5A480" stroke="none" d="
M 10.2 2.25
L 10.45 0.35 10 0.5
Q 9.2 1.75 7.9 2.4 7 2.85 5.65 3.35 4.35 3.8 4.1 3.75 3.1 3.75 2.75 3.4 2.65 3.2 2.4 2.3 2.1 1.3 2.15 1.05 2.25 0.5 2.25 0.25 2.25 -0.2 1.95 0.15
L 1.85 0.3
Q 1.2 1.2 0.4 3.2
L 0.1 3 0 3.3
Q 0.15 3.9 1.65 4.25 3.2 4.6 5.7 3.8 7.6 3.25 10.2 2.25 Z"/>
</g>

<g id="Layer0_0_MEMBER_0_MEMBER_3_MEMBER_14_FILL">
<path fill="#FD8839" stroke="none" d="
M 786.95 386.7
L 804.8 379 818.1 323.35
Q 799.55 331.05 795 334.55
L 766.65 351.7 775.75 371.3
Q 778.2 375.5 786.95 386.7 Z"/>
</g>

<g id="Layer0_0_MEMBER_0_MEMBER_3_MEMBER_15_FILL">
<path fill="#F7702A" stroke="none" d="
M 771.4 361.95
L 774.7 359.05 781 356.95 769.8 352.05
Q 768.5017578125 352.5349609375 767.25 353
L 771.4 361.95 Z"/>

<path fill="#F5A480" stroke="none" d="
M 767.25 353
Q 740.5935546875 362.9 737.25 362.9 735.85 362.9 730.6 369.2
L 725 376.9 751.6 384.6 762.45 369.9 771.4 361.95 767.25 353 Z"/>
</g>

<g id="Layer0_0_MEMBER_0_MEMBER_3_MEMBER_16_FILL">
<path fill="#F6562A" stroke="none" d="
M 805.85 331.75
Q 797.1 341.55 796.05 355.55 794.3 376.2 788 431.15
L 786.6 468.6
Q 785.55 507.1 786.95 510.95
L 795.7 523.55
Q 806.2 537.55 814.25 539.3 820.2 540.7 837.7 545.6 853.8 549.8 859.75 549.8
L 867.1 550.5
Q 874.45 551.9 887.75 555.4
L 890.55 555.75
Q 895.45 556.1 900.7 551.55 900.35 547 900.35 541.4 900.7 529.85 903.15 523.55 907 513.75 910.15 451.45
L 923.45 386 907.7 362.55
Q 891.25 340.85 887.05 337 884.6 334.55 868.15 329.3 850.65 323.7 841.9 323.7 835.6 323.7 829.65 322.65 825.1 321.95 820.9 322.65 813.2 323.7 805.85 331.75 Z"/>
</g>

<g id="Layer0_0_MEMBER_0_MEMBER_3_MEMBER_17_FILL">
<path fill="#C5FD4B" stroke="none" d="
M 234.3 49.3
L 229.9 49.15
Q 229.9 49.2 229.15 50.85 228.45 52.65 228.45 53.55 228.45 54.9 226.65 61.2
L 226.15 65.55
Q 226.2 65.75 226 69.2
L 225.9 71.45 225.95 71.6
Q 226.7 72.9 227.45 73.4 228.4 74.05 229.25 74.25 231.25 61 232.3 57.3 232.45 56.65 232.3 55.95 231.95 54.35 232.3 53.05 232.7 51.45 233.95 51.15 234.25 51.05 234.4 50.2 234.5 49.4 234.3 49.3 Z"/>
</g>

<g id="Layer0_0_MEMBER_0_MEMBER_3_MEMBER_18_MEMBER_0_FILL">
<path fill="#9AC2D5" stroke="none" d="
M 233.4 49.2
L 232.1 49.15
Q 229.55 50.75 229.55 53.3 229.55 55.1 229.75 56.9
L 227.3 70.4 226 69.2 225.9 71.45 225.95 71.6 228.6 73.45 228.8 72.1
Q 231.6 57 231.55 56.8
L 231.55 56.6
Q 231.35 55.6 231.35 53.3 231.35 52 232.6 51.05 233.2 50.55 233.8 50.3
L 233.4 49.2 Z"/>
</g>

<g id="Layer0_0_MEMBER_0_MEMBER_3_MEMBER_19_FILL">
<path fill="#C5FD4B" stroke="none" d="
M 880.05 366.4
Q 866.05 373.75 852.75 375.15 834.55 377.25 832.45 389.15 832.1 391.95 824.05 443.05 816.35 494.15 818.1 501.15
L 823.35 506.4
Q 832.45 512 851 515.5 880.4 521.45 905.95 516.9
L 908.05 465.8
Q 902.8 466.85 896.5 466.5 883.9 465.45 879.7 458.1 875.15 449 875.15 428.7 875.15 408.75 879.7 397.55 884.25 388.1 900 382.15 913.65 377.25 918.9 379 921.7 380.05 908.05 360.45
L 899.3 347.85 898.25 347.15 889.5 339.45
Q 894.4 344.35 894.4 352.05 894.4 358.35 880.05 366.4 Z"/>
</g>

<g id="Layer0_0_MEMBER_0_MEMBER_3_MEMBER_20_MEMBER_0_FILL">
<path fill="#9AC2D5" stroke="none" d="
M 853.8 395.1
Q 859.4 391.95 872 388.1 900.35 379.7 908.05 360.45
L 899.3 347.85 898.25 347.15
Q 898.25 367.45 868.5 376.2 849.6 381.8 842.95 386.7 837.35 391.25 837.35 398.6
L 837.35 400.7
Q 836.3 405.6 831.05 448.3 825.8 491.7 826.15 495.9 826.5 500.1 832.8 504.3 849.6 515.15 875.85 515.15 890.9 515.15 905.95 510.6
L 902.1 498.35
Q 881.8 505 861.15 501.15 846.1 498.7 839.1 493.45 839.45 483.65 844 445.85 848.55 408.05 849.6 403.85
L 849.95 397.55
Q 851.35 396.15 853.8 395.1 Z"/>
</g>

<g id="Layer0_0_MEMBER_0_MEMBER_3_MEMBER_21_FILL">
<path fill="#FBC7AC" stroke="none" d="
M 225.7 48.1
Q 224.95 48.1 224.45 48.35 224.05 48.55 223.3 49.55 222.45 50.7 221.9 51.15 220.75 52.05 220.05 52.65 218.75 53.65 217.7 54.7 216.65 55.75 216.2 56.95 216 57.55 215.95 57.9
L 215.9 58.6
Q 215.95 59.3 216.4 59.4 218.45 60.15 219.45 59.85
L 219.65 59.8
Q 220.6 59.4 221.25 58.15
L 222.5 55.2
Q 222.8 54.65 223.7 53.4 224.6 52.2 224.85 52.05 225.05 51.95 225.8 51.9 226.45 51.8 226.6 51.85 226.75 51.9 227.95 51.55
L 229.25 51.9 229.9 51.8
Q 230.35 51.7 230.45 51.55 230.55 51.45 230.35 51.15 230.2 50.85 229.95 50.7
L 228.9 50.25 228.5 49.9
Q 228.1 49.5 227.65 49.05 226.75 48.2 226.6 48.15 226.35 48.05 225.7 48.1 Z"/>
</g>

<g id="Layer0_0_MEMBER_0_MEMBER_3_MEMBER_22_FILL">
<path fill="#F5A480" stroke="none" d="
M 5.35 0.1
L 5.25 0.25
Q 4.6 0.4 4.4 0.35
L 3.2 0 3.35 0.5 4.05 0.85 3.7 1.6 2.35 3.3 0.25 8.15 0 8.4
Q 0.95 8 1.6 6.75
L 2.85 3.8
Q 3.15 3.25 4.05 2 4.95 0.8 5.2 0.65 5.4 0.55 6.15 0.5 6.8 0.4 6.95 0.45 7.1 0.5 8.3 0.15
L 9.6 0.5 10.25 0.4
Q 10.1 0.15 9.55 0.1
L 8.55 0 7.15 0.25 5.75 0
Q 5.5 -0.05 5.35 0.1 Z"/>
</g>

<g id="Layer0_0_MEMBER_0_MEMBER_3_MEMBER_23_FILL">
<path fill="#492728" stroke="none" d="
M 784.85 316
L 784.5 321.25
Q 784.5 327.9 788 332.8 793.6 340.85 799.55 338.4
L 826.15 320.55
Q 830.35 309.7 827.9 305.85 826.5 303.4 821.25 300.25
L 816.35 297.45 784.85 316 Z"/>
</g>

<g id="Layer0_0_MEMBER_0_MEMBER_3_MEMBER_24_FILL">
<path fill="#FBC7AC" stroke="none" d="
M 225.1 47.65
L 224.45 48.2 223.3 49.6 223.2 49.8
Q 223.15 50.1 223.2 50.5 223.25 50.9 223.7 51.05 224.05 51.15 224.3 51.1 224.55 51.05 225.15 50.3 225.2 50.25 225.45 49.45 225.7 48.8 225.9 48.8 226.2 48.8 227.15 49.15 227.55 49.2 227.55 48.95
L 227.9 49.3 227.95 49.3 228.6 49.1
Q 228.95 48.9 228.6 48.55
L 229.2 48.85
Q 229.55 48.7 229.55 48.45
L 229.2 47.3 229.6 47.4
Q 229.85 47.4 230.1 47.05
L 230.2 46.95 229.7 46.2 228.7 45.9 228.25 46.2
Q 227.95 46.1 227.65 46.1
L 226.8 46.7
Q 226.25 46.8 226.05 46.95
L 225.35 47.55 225.1 47.65 Z"/>
</g>

<g id="Layer0_0_MEMBER_0_MEMBER_3_MEMBER_25_FILL">
<path fill="#47201D" stroke="none" d="
M 784.65 318.8
L 784.5 321.25
Q 784.5 324.6255859375 785.4 327.55
L 788 327.55 798.85 324.05 787.65 319.5 784.65 318.8 Z"/>

<path fill="#F5A480" stroke="none" d="
M 784.5 321.25
L 784.65 318.8 784.5 318.8
Q 779.25 317.75 779.25 319.85 779.25 321.95 778.2 325.8
L 776.1 332.8 781 327.55 785.4 327.55
Q 784.5 324.6255859375 784.5 321.25 Z"/>
</g>

<g id="Layer0_0_MEMBER_0_MEMBER_3_MEMBER_26_FILL">
<path fill="#FBC7AC" stroke="none" d="
M 235.35 47.8
L 235.05 48.25
Q 233.95 49.7 234.2 50.95 234.55 52.4 233.95 53.55
L 234.3 55.4
Q 234.55 55.65 235.55 55.7 236.95 55.8 238.6 55.25 240.55 54.6 241.05 53.4 241.15 53.2 241.15 52.95 240.95 52.2 240.95 51.15 240.95 50.45 241.65 48.4
L 242.3 46.45 238.25 45.1 235.35 47.8 Z"/>
</g>

<g id="Layer0_0_MEMBER_0_MEMBER_3_MEMBER_27_FILL">
<path fill="#F5A480" stroke="none" d="
M 8.35 0.2
L 7.8 0
Q 7.25 -0.05 5.3 0.05 3.85 0.1 2.9 0.75 1.2 1.95 1.1 2 0 3.45 0.25 4.7 0.6 6.15 0 7.3 0.2 9 0.35 9.15 0.3 8.7 0.75 7.35
L 1.2 6.15
Q 2.15 6 2.65 5.75 3 5.6 3.7 5.15 4.35 4.65 4.4 4.55
L 6.6 2.95 6.35 3.8 6.4 6.1 7.1 7.15
Q 7.2 6.95 7.2 6.7 7 5.95 7 4.9 7 3.8 8.35 0.2 Z"/>
</g>

<g id="Layer0_0_MEMBER_0_MEMBER_3_MEMBER_28_FILL">
<path fill="#E43513" stroke="none" d="
M 836.35 506.4
L 812.15 509.55 795.65 523.5 795.7 523.55
Q 797.641015625 526.1380859375 799.5 528.3 807.6880859375 537.8734375 814.25 539.3 818.596484375 540.32265625 829.1 543.2 832.983984375 544.2794921875 837.7 545.6 853.8 549.8 859.75 549.8
L 867.1 550.5
Q 867.6904296875 550.6125 868.3 550.75
L 875.85 550.15 883.9 545.6 887.75 555.4 890.55 555.75
Q 895.45 556.1 900.7 551.55 900.6927734375 551.456640625 900.65 551.35 900.35 546.885546875 900.35 541.4 901.75 532.475 903.15 523.55 903.959375 521.4896484375 904.7 517.1 905.2244140625 514.35234375 905.7 510.65 890.773828125 515.15 875.85 515.15 852.3033203125 515.15 836.35 506.4
M 896.5 466.5
Q 902.8 466.85 908.05 465.8
L 906.45 503.95
Q 908.4240234375 485.5849609375 910.15 451.45
L 911.9 442
Q 902.1 423.8 884.6 423.8
L 881 460
Q 885.634375 465.59453125 896.5 466.5 Z"/>

<path fill="#8F785B" stroke="none" d="
M 861.15 501.15
Q 861.00390625 501.126171875 860.85 501.1
L 852.75 504.3 836.35 506.4
Q 852.3033203125 515.15 875.85 515.15 890.773828125 515.15 905.7 510.65 905.73671875 510.378515625 905.75 510.05
L 902.1 498.35
Q 881.8 505 861.15 501.15 Z"/>

<path fill="#B79D20" stroke="none" d="
M 908.05 465.8
Q 902.8 466.85 896.5 466.5 885.634375 465.59453125 881 460
L 877.6 494.5 860.85 501.1
Q 861.00390625 501.126171875 861.15 501.15 881.8 505 902.1 498.35
L 905.75 510.05
Q 906.13203125 507.2748046875 906.45 503.95
L 908.05 465.8 Z"/>

<path fill="#7D2315" stroke="none" d="
M 792.55 533
Q 796.10546875 530.4673828125 799.5 528.3 797.641015625 526.1380859375 795.7 523.55
L 795.65 523.5 782.4 534.75
Q 776.8 544.55 775.4 545.6 773.998828125 546.7208984375 774.85 551.65 775.582421875 550.4267578125 776.45 549.1 783.45 538.95 792.55 533
M 867.1 550.5
L 859.75 549.8
Q 853.8 549.8 837.7 545.6 832.983984375 544.2794921875 829.1 543.2 819.140625 554.815234375 795.7 559.25
L 789.1 562.55 789.4 562.75 831.05 553.65 868.3 550.75
Q 867.6904296875 550.6125 867.1 550.5 Z"/>

<path fill="#510F06" stroke="none" d="
M 829.1 543.2
Q 818.596484375 540.32265625 814.25 539.3 807.6880859375 537.8734375 799.5 528.3 796.10546875 530.4673828125 792.55 533 783.45 538.95 776.45 549.1 775.582421875 550.4267578125 774.85 551.65 775.051171875 552.88515625 775.4 554.35
L 789.1 562.55 795.7 559.25
Q 819.140625 554.815234375 829.1 543.2 Z"/>
</g>

<g id="Layer0_0_MEMBER_0_MEMBER_3_MEMBER_29_FILL">
<path fill="#F5A480" stroke="none" d="
M 2 1.05
L 2.4 1.15
Q 2.65 1.15 2.9 0.8
L 2.35 0.8 1.4 0 1.75 0.7 2.1 1.85 2 2.05
Q 1.9 2.1 1.25 1.55
L 0 0.55 1.2 2.35 1.25 2.9 1.4 2.85
Q 1.75 2.65 1.4 2.3
L 2 2.6
Q 2.35 2.45 2.35 2.2 2.35 1.9 2 1.05 Z"/>
</g>

<g id="Layer0_0_MEMBER_0_MEMBER_3_MEMBER_30_FILL">
<path fill="#F5A480" stroke="none" d="
M 0 0.05
L 1.6 0.35 2.5 0.95 2.5 1.4 3 1.25 2.5 0.8 1.35 0 0 0.05 Z"/>
</g>

<g id="Layer0_0_MEMBER_0_MEMBER_3_MEMBER_31_FILL">
<path fill="#FBC7AC" stroke="none" d="
M 246.6 67.5
Q 246.55 67.15 246 67 245.1 66.7 242.85 66.9 240.75 67.15 240.65 67.15
L 240.65 67.75
Q 240.65 68.65 240.8 70.5 240.8 70.65 241.25 73.5
L 241.25 74.2
Q 238.2 75.45 236.1 75.85 232.9 76.35 232.4 76.4
L 231.8 76.4 231.65 76.35
Q 231.25 76.2 230 75.3 228.75 74.45 228.7 74.45 228.55 74.4 226.35 74.45
L 225.2 75.9 224.95 75.7 224.85 75.7
Q 224.35 75.7 224.3 75.9 224.25 76.1 224.3 76.35
L 224.3 76.7 224.15 77.3
Q 224.15 77.6 224.35 78
L 224.25 78.5 224.5 79
Q 224.4 79.05 224.35 79.1 224.2 79.3 224.3 79.5 224.5 79.9 225.05 80.6
L 226.35 80.75
Q 227.3 80.75 228.55 80.5 228.75 80.45 229.4 80.05 229.9 79.75 230.2 79.75 230.75 79.8 234.05 79.75 237.65 79.65 239.35 79.5 241.2 79.35 242.95 78.6 244.7 77.85 245.35 76.95 245.9 76.2 246.05 74.6 246.15 72.75 246.2 71.85 246.45 70.2 246.5 69.5 246.65 68.3 246.6 67.5 Z"/>
</g>

<g id="Layer0_0_MEMBER_0_MEMBER_3_MEMBER_32_FILL">
<path fill="#492728" stroke="none" d="
M 225.25 72.55
L 224.95 72.7 224.95 75.7 225.05 75.9
Q 225.2 76.05 225.3 76.05
L 227.9 76 227.95 73.3
Q 227.75 72.55 226.5 72.5 225.7 72.45 225.25 72.55 Z"/>
</g>

<g id="Layer0_0_MEMBER_0_MEMBER_3_MEMBER_33_FILL">
<path fill="#F5A480" stroke="none" d="
M 9.1 5.75
L 8.25 0
Q 8.25 0.9 8.4 2.75 8.4 2.9 8.85 5.75
L 8.85 6.45
Q 5.8 7.7 3.7 8.1 0.5 8.6 0 8.65
L 1.25 8.75
Q 1.7 8.75 3.95 8.25 5.95 7.8 6.6 7.6 7.3 7.45 9.5 6.4
L 10.55 6.3 9.1 5.75 Z"/>
</g>

<g id="Layer0_0_MEMBER_0_MEMBER_3_MEMBER_34_FILL">
<path fill="#F5A480" stroke="none" d="
M 21.6 4.6
Q 21.45 5.85 20.85 9.25 20.85 9.55 19.6 10.35 18.25 11.2 17.35 11.4 13.9 12.25 10.5 12.15 8.5 12.15 6.1 12.5
L 4.2 13.1
Q 3.9 13.4 3.15 13.45 2.4 13.5 1.15 13.45
L 0.45 12.55 0.45 12.35 1.05 13 3.05 12.9 1.05 12.45 0.45 11.9 0.45 11.4 1 11.7 2.95 11.9 1.15 11.4 0.55 10.95 0.7 10.35 1.65 10.5 3.2 10.5 1.3 10.15 0.45 9.65
Q -0.1 9.4 0.45 9
L 0.8 8.7 0.7 8.7
Q 0.2 8.7 0.15 8.9 0.1 9.1 0.15 9.35
L 0.15 9.7 0 10.3
Q 0 10.6 0.2 11
L 0.1 11.5 0.35 12 0.2 12.1
Q 0.05 12.3 0.15 12.5 0.35 12.9 0.9 13.6
L 2.2 13.75
Q 3.15 13.75 4.4 13.5 4.6 13.45 5.25 13.05 5.75 12.75 6.05 12.75 6.6 12.8 9.9 12.75 13.5 12.65 15.2 12.5 17.05 12.35 18.8 11.6 20.55 10.85 21.2 9.95 21.75 9.2 21.9 7.6 22 5.75 22.05 4.85 22.3 3.2 22.35 2.5 22.5 1.3 22.45 0.5 22.4 0.15 21.85 0
L 21.25 1.05
Q 21.75 3.4 21.6 4.6 Z"/>
</g>

<g id="Layer0_0_MEMBER_0_MEMBER_3_MEMBER_35_FILL">
<path fill="#FD8839" stroke="none" d="
M 247.2 60.7
Q 246.6 59.05 245.75 58.4 243.45 58.65 242.25 59.55 241.05 60.45 240.5 62.2 239.8 64.5 240.25 67.85
L 240.9 68.5
Q 241.85 69.15 243.35 69.2 245.75 69.2 246.9 68.4
L 247.55 62.75
Q 247.65 62.05 247.2 60.7 Z"/>
</g>

<g id="Layer0_0_MEMBER_0_MEMBER_3_MEMBER_36_FILL">
<path fill="#FBC7AC" stroke="none" d="
M 242.6 42
Q 241.9 39.05 240.95 38.95 239.8 38.85 238.1 39.1 236.35 39.3 235.75 39.65 235.25 39.95 234.45 41.3 233.9 42.2 233.65 42.8 233.2 44.75 232.95 45.3 232.4 46.7 232.3 47.95
L 232.2 50.85 232.9 51.15
Q 233.65 51.45 234.05 51.5 235.35 51.6 237.55 50.9 238.65 50.6 239.4 50.1 239.85 49.8 240.65 49.15 241.6 48.5 242.8 45.65
L 243.05 44.9
Q 242.9 43.45 242.6 42 Z"/>
</g>

<g id="Layer0_0_MEMBER_0_MEMBER_3_MEMBER_37_FILL">
<path fill="#492728" stroke="none" d="
M 245.1 42.55
Q 245.15 41.25 243.8 39.8 242.4 38.3 240.65 37.95 239.1 37.65 237.45 38.3 236.05 39.1 235.95 39.1 235.45 39.3 234.9 40.55 235.15 40.25 235.7 40.4 236.9 40.7 237.95 41.55 239.5 42.55 239.5 43 239.5 43.45 239.15 45.55 239.25 45.95 239.5 46.4
L 239.15 47.65 239.7 47.95 240.15 47.35
Q 240.7 46.75 241.05 47.05 241.65 47.5 240.55 49.2
L 241.05 50.4 243.15 47.65
Q 243.8 46.8 244.4 45.35 245.05 43.75 245.1 42.55 Z"/>
</g>

<g id="Layer0_0_MEMBER_0_MEMBER_3_MEMBER_38_FILL">
<path fill="#FED6C1" stroke="none" d="
M 239.6 48.7
L 239.5 49.15 239.65 49.35
Q 239.9 49.5 240.1 49.55 240.3 49.6 241 49.05 241.65 48.6 241.85 48.35 241.95 48.25 242.15 47.85 242.35 47.5 242.25 47.2 242.2 46.85 241.75 46.7 241.4 46.6 241.2 46.7 240.85 46.8 240.05 47.85
L 239.6 48.7 Z"/>
</g>

<g id="Layer0_0_MEMBER_0_MEMBER_3_MEMBER_39_FILL">
<path fill="#FED6C1" stroke="none" d="
M 235 41.7
Q 234.4 42.6 234.5 43.2
L 236.9 44.55
Q 237.45 44.85 237.8 45.5
L 237.3 47.1 235.5 47.15
Q 235.35 47.35 235.15 47.55 234.85 48 234.9 48.1 235.45 48.65 236.5 48.5 237.75 48.4 239.1 47.2
L 239.15 45.55 239 44.25
Q 239.35 42.95 238.7 42.4 238.25 42.05 237.1 41.45 236.1 40.95 235.8 40.9 235.55 40.85 235 41.7 Z"/>
</g>

<g id="Layer0_0_MEMBER_0_MEMBER_3_MEMBER_40_FILL">
<path fill="#FED6C1" stroke="none" d="
M 234.2 44.75
L 233.15 46.05 233.25 46.4 234.15 46.8 234.1 45.9
Q 234.4 45.15 234.35 45.1 234.3 44.65 234.2 44.75 Z"/>
</g>

<g id="Layer0_0_MEMBER_1_MEMBER_0_FILL">
<path fill="#CCC0BC" stroke="none" d="
M 16.55 20.15
L 32.85 20.15 16.45 0 0 9.6 16.55 20.15 Z"/>
</g>

<g id="Layer0_0_MEMBER_1_MEMBER_1_MEMBER_0_FILL">
<path fill="#D8AE6F" stroke="none" d="
M 204.7 86.05
L 204.7 84.15 147.45 117.2 147.45 119.1 204.7 86.05 Z"/>
</g>

<g id="Layer0_0_MEMBER_1_MEMBER_1_MEMBER_1_FILL">
<path fill="#AF724E" stroke="none" d="
M 204.7 84.15
L 184.65 72.6 127.4 105.6 147.45 117.2 204.7 84.15 Z"/>
</g>

<g id="Layer0_0_MEMBER_1_MEMBER_1_MEMBER_2_FILL">
<path fill="#9B5E3A" stroke="none" d="
M 127.4 107.55
L 147.45 119.1 147.45 117.2 127.4 105.6 127.4 107.55 Z"/>
</g>

<g id="Layer0_0_MEMBER_1_MEMBER_2_MEMBER_0_FILL">
<path fill="#D8AE6F" stroke="none" d="
M 204.7 83.55
L 204.7 81.65 147.45 114.7 147.45 116.6 204.7 83.55 Z"/>
</g>

<g id="Layer0_0_MEMBER_1_MEMBER_2_MEMBER_1_FILL">
<path fill="#AF724E" stroke="none" d="
M 204.7 81.65
L 184.65 70.05 127.4 103.1 147.45 114.7 204.7 81.65 Z"/>
</g>

<g id="Layer0_0_MEMBER_1_MEMBER_2_MEMBER_2_FILL">
<path fill="#9B5E3A" stroke="none" d="
M 127.4 105
L 147.45 116.6 147.45 114.7 127.4 103.1 127.4 105 Z"/>
</g>

<g id="Layer0_0_MEMBER_1_MEMBER_3_MEMBER_0_FILL">
<path fill="#D8AE6F" stroke="none" d="
M 204.7 81
L 204.7 79.1 147.45 112.15 147.45 114.05 204.7 81 Z"/>
</g>

<g id="Layer0_0_MEMBER_1_MEMBER_3_MEMBER_1_FILL">
<path fill="#AF724E" stroke="none" d="
M 204.7 79.1
L 184.65 67.55 127.4 100.6 147.45 112.15 204.7 79.1 Z"/>
</g>

<g id="Layer0_0_MEMBER_1_MEMBER_3_MEMBER_2_FILL">
<path fill="#9B5E3A" stroke="none" d="
M 127.4 102.5
L 147.45 114.05 147.45 112.15 127.4 100.6 127.4 102.5 Z"/>
</g>

<g id="Layer0_0_MEMBER_1_MEMBER_4_MEMBER_0_FILL">
<path fill="#D8AE6F" stroke="none" d="
M 204.7 78.5
L 204.7 76.6 147.45 109.65 147.45 111.55 204.7 78.5 Z"/>
</g>

<g id="Layer0_0_MEMBER_1_MEMBER_4_MEMBER_1_FILL">
<path fill="#AF724E" stroke="none" d="
M 204.7 76.6
L 184.65 65 127.4 98.05 147.45 109.65 204.7 76.6 Z"/>
</g>

<g id="Layer0_0_MEMBER_1_MEMBER_4_MEMBER_2_FILL">
<path fill="#9B5E3A" stroke="none" d="
M 127.4 99.95
L 147.45 111.55 147.45 109.65 127.4 98.05 127.4 99.95 Z"/>
</g>

<g id="Layer0_0_MEMBER_1_MEMBER_5_MEMBER_0_FILL">
<path fill="#D8AE6F" stroke="none" d="
M 204.7 76
L 204.7 74.1 147.45 107.1 147.45 109 204.7 76 Z"/>
</g>

<g id="Layer0_0_MEMBER_1_MEMBER_5_MEMBER_1_FILL">
<path fill="#AF724E" stroke="none" d="
M 204.7 74.1
L 184.65 62.5 127.4 95.55 147.45 107.1 204.7 74.1 Z"/>
</g>

<g id="Layer0_0_MEMBER_1_MEMBER_5_MEMBER_2_FILL">
<path fill="#9B5E3A" stroke="none" d="
M 127.4 95.55
L 127.4 97.45 147.45 109 147.45 107.1 127.4 95.55 Z"/>
</g>

<g id="Layer0_0_MEMBER_1_MEMBER_6_MEMBER_0_FILL">
<path fill="#D8AE6F" stroke="none" d="
M 204.7 73.45
L 204.7 71.55 147.45 104.6 147.45 106.5 204.7 73.45 Z"/>
</g>

<g id="Layer0_0_MEMBER_1_MEMBER_6_MEMBER_1_FILL">
<path fill="#AF724E" stroke="none" d="
M 204.7 71.55
L 184.65 60 127.4 93 147.45 104.6 204.7 71.55 Z"/>
</g>

<g id="Layer0_0_MEMBER_1_MEMBER_6_MEMBER_2_FILL">
<path fill="#9B5E3A" stroke="none" d="
M 127.4 93
L 127.4 94.9 147.45 106.5 147.45 104.6 127.4 93 Z"/>
</g>

<g id="Layer0_0_MEMBER_1_MEMBER_7_MEMBER_0_FILL">
<path fill="#D8AE6F" stroke="none" d="
M 204.7 70.95
L 204.7 69.05 147.45 102.1 147.45 104 204.7 70.95 Z"/>
</g>

<g id="Layer0_0_MEMBER_1_MEMBER_7_MEMBER_1_FILL">
<path fill="#EED899" stroke="none" d="
M 204.7 69.05
L 184.65 57.45 127.4 90.5 147.45 102.1 204.7 69.05 Z"/>
</g>

<g id="Layer0_0_MEMBER_1_MEMBER_7_MEMBER_2_FILL">
<path fill="#9B5E3A" stroke="none" d="
M 127.4 90.5
L 127.4 92.4 147.45 104 147.45 102.1 127.4 90.5 Z"/>
</g>

<g id="Layer0_0_MEMBER_1_MEMBER_7_MEMBER_3_MEMBER_0_FILL">
<path fill="#F6F6F6" stroke="none" d="
M 133.65 86.9
L 153.7 98.5 157.1 96.5 137.05 84.9 133.65 86.9 Z"/>
</g>

<g id="Layer0_0_MEMBER_1_MEMBER_7_MEMBER_3_MEMBER_1_FILL">
<path fill="#C2C2C2" stroke="none" d="
M 157.1 96.5
L 153.7 98.5 153.95 115.4 157.35 113.4 157.1 96.5 Z"/>
</g>

<g id="Layer0_0_MEMBER_1_MEMBER_7_MEMBER_4_MEMBER_0_FILL">
<path fill="#F6F6F6" stroke="none" d="
M 174.65 63.2
L 194.8 74.85 198.25 72.85 178.05 61.25 174.65 63.2 Z"/>
</g>

<g id="Layer0_0_MEMBER_1_MEMBER_7_MEMBER_4_MEMBER_1_FILL">
<path fill="#C2C2C2" stroke="none" d="
M 194.8 74.85
L 195.05 91.7 198.5 89.75 198.25 72.85 194.8 74.85 Z"/>
</g>

<g id="Layer0_0_MEMBER_1_MEMBER_8_FILL">
<path fill="#5C1600" fill-opacity="0.4980392156862745" stroke="none" d="
M 36.15 22.55
L 36.15 9.15 19.55 0
Q 8.45 0.15 6.05 0.9 3.6 1.65 0 5.15 8.75 10.35 9 10.65 9.15 10.85 14.15 13.1 16.65 14.25 19.15 15.35
L 20.5 19.6 20.5 31.6 36.15 22.55 Z"/>
</g>

<g id="Layer0_0_MEMBER_1_MEMBER_9_FILL">
<path fill="#CCC0BC" stroke="none" d="
M 4.4 13.05
Q 5.3 13.95 10.55 17.1
L 11.6 17 11 6.5 18.1 7.4
Q 21.1 7.65 23.35 8.1
L 14.4 3.55 15.65 0 0 9.05 4.4 13.05 Z"/>
</g>

<g id="Layer0_0_MEMBER_1_MEMBER_10_MEMBER_0_FILL">
<path fill="#FBC7AC" stroke="none" d="
M 176.3 54.5
Q 173.55 54.5 173.1 55.1 172.6 55.7 172.8 56.55 173 57.25 173.35 57.4 173.8 57.65 177.5 60.85 179 62 179.65 61.85 179.95 61.75 180.05 61.5 180.5 60.5 178.8 57.45
L 177 54.55 176.3 54.5 Z"/>
</g>

<g id="Layer0_0_MEMBER_1_MEMBER_10_MEMBER_1_FILL">
<path fill="#F5A480" stroke="none" d="
M 7.05 3.4
Q 6.85 3.1 6 2.2 5.3 1.4 5.1 1
L 4.5 0 4.7 0.75 9.05 6.5 9.45 8.85 9.05 10.7
Q 8.5 11.05 8.15 11.05 8 11.1 7.25 11.1
L 6.05 11.05 5.05 10.4
Q 3.15 8.45 2.65 8.05
L 0.85 6.1
Q 0.3 6.1 0 6.15 0.2 6.85 0.55 7 1 7.25 4.7 10.45 6.2 11.6 6.85 11.45 8.85 11.8 9.35 11.3 9.75 10.85 9.95 9.55 9.55 6.9 9.3 6.55
L 7.05 3.4 Z"/>
</g>

<g id="Layer0_0_MEMBER_1_MEMBER_10_MEMBER_2_FILL">
<path fill="#FD8839" stroke="none" d="
M 414.2 318.1
Q 411.05 320.2 407.9 322.65 401.6 327.9 401.95 330
L 417 382.15 423.65 377.6 435.9 366.4
Q 442.9 360.1 442.2 359.05
L 442.55 354.15 414.2 318.1 Z"/>
</g>

<g id="Layer0_0_MEMBER_1_MEMBER_10_MEMBER_3_FILL">
<path fill="#2F2720" stroke="none" d="
M 194.25 104.6
L 194.25 103.55 189.05 101.6 183.55 100.35 183.25 101.15
Q 182.95 102.05 183.05 102.35 183.15 102.7 184.05 102.95 184.75 103.15 185.35 103.15 185.8 103.15 187.55 103.65 189.2 104.1 190.15 104.45 192.6 105.25 193.35 105.15 194 105.05 194.25 104.6 Z"/>
</g>

<g id="Layer0_0_MEMBER_1_MEMBER_10_MEMBER_4_FILL">
<path fill="#D5A856" stroke="none" d="
M 186.75 98.9
Q 185.9 98.9 185.05 98.9 183.3 98.9 183.15 99.05 182.95 99.3 182.95 100.5 182.95 101.8 183.25 102.05 183.7 102.45 185.5 102.6
L 186.45 102.8
Q 187.55 103.05 188.3 103.4 189.1 103.8 190.9 104.15 192.5 104.45 192.75 104.4 194.3 104.4 194.25 103.55 194.2 102.9 193.8 102.15 193.35 101.45 192.9 101.2
L 186.75 98.9 Z"/>
</g>

<g id="Layer0_0_MEMBER_1_MEMBER_10_MEMBER_5_FILL">
<path fill="#3761A1" stroke="none" d="
M 179.5 73.55
L 173.6 71.1
Q 171.95 71.45 170.35 72.1 167.2 73.35 167.6 74.7 167.85 75.5 167.8 78.05 168.05 80.5 170 81.55 171.95 82.6 175.75 82.55
L 178.85 83.4
Q 182.2 84.35 183.35 84.85
L 186.05 85.9
Q 187.95 86.5 188.7 86.3 191.95 85.55 192.3 83.35
L 192.4 82.55
Q 192.35 80.7 191.7 79.7 191.55 79.45 190.7 78.7 190.45 78.45 185.2 76.15 179.8 73.75 179.5 73.55 Z"/>
</g>

<g id="Layer0_0_MEMBER_1_MEMBER_10_MEMBER_6_FILL">
<path fill="#3761A1" stroke="none" d="
M 192.35 82.95
L 187.65 80.2 184.5 84.15 184.2 85.2
Q 183.8 86.6 183.8 87.8
L 183.65 94.4 183.35 96.65
Q 183.1 98.9 183.15 99.15 183.45 100.2 185 100.9 185.45 101.15 186.05 101.2 188 101.6 189.5 100.2
L 191.7 88.6 192.35 82.95 Z"/>
</g>

<g id="Layer0_0_MEMBER_1_MEMBER_10_MEMBER_7_FILL">
<path fill="#17377A" stroke="none" d="
M 16.05 7.35
L 16.2 6.6 14.5 5.6
Q 7.1 2.95 5.65 2.25 4.15 1.5 3.7 0
L 0 3
Q 1.95 4.05 5.75 4 7.2 4.4 8.85 4.85 12.2 5.8 13.35 6.3
L 14.2 6.65
Q 13.8 8.05 13.8 9.25
L 13.65 15.85 13.35 18.1
Q 13.1 20.35 13.15 20.6 13.45 21.65 15 22.35
L 14.95 22.1
Q 14.9 21.65 15.05 19.8 15.25 17.8 15.25 17.65 15.25 14.65 15.4 11.5 15.45 9.55 16.05 7.35 Z"/>
</g>

<g id="Layer0_0_MEMBER_1_MEMBER_10_MEMBER_8_FILL">
<path fill="#2F2720" stroke="none" d="
M 185 114.35
Q 186.15 114.1 185.45 112.35
L 179.5 110.35 176.6 107.25 176.45 107.7
Q 176.25 108.2 176.3 108.45 176.35 108.6 176.9 109.35 177.5 110.05 177.6 110.45 177.9 111.3 178.6 112.3 179.55 113.75 180.55 114.15 182.55 114.95 185 114.35 Z"/>
</g>

<g id="Layer0_0_MEMBER_1_MEMBER_10_MEMBER_9_FILL">
<path fill="#D5A856" stroke="none" d="
M 184.5 110.75
Q 182.85 109.1 182.65 108.65
L 182.05 105.85
Q 180.65 105.95 179.2 106.05 176.35 106.35 176.2 106.65
L 176.2 107.2
Q 176.2 107.8 176.35 108.1 176.45 108.3 177.25 109.15 178.05 110.15 178.4 111.1 179.5 113.9 182.6 114.25 184.3 114.45 184.95 114.15 185.5 113.9 185.6 113.1 185.65 112.5 185.05 111.55
L 184.5 110.75 Z"/>
</g>

<g id="Layer0_0_MEMBER_1_MEMBER_10_MEMBER_10_FILL">
<path fill="#3761A1" stroke="none" d="
M 171.85 73.55
L 170.55 72.3 159.5 78.6 159.3 80.45
Q 159.35 82.6 160.65 84.2 161.75 85.55 166.55 87.75 167.9 88.4 173.5 90.7
L 175.35 91.5
Q 176.5 91.85 177.7 91.85 179.3 91.8 180.15 90.95 181.85 89.3 181.8 88.4
L 181.75 88.1
Q 181.6 87.35 181.05 86.35 180.4 85.1 179.6 84.35 178.85 83.65 176.05 81.8
L 173.4 80.05
Q 174.05 77.9 173.55 76.1 173.2 75 171.85 73.55 Z"/>
</g>

<g id="Layer0_0_MEMBER_1_MEMBER_10_MEMBER_11_FILL">
<path fill="#3761A1" stroke="none" d="
M 181.8 88.4
L 181.75 88.1
Q 176.5 87.6 175.25 88.45 174.55 88.95 174 89.8
L 173.5 90.7 173.6 93.5
Q 173.85 96.65 174.3 98.5 174.7 100.15 174.95 103.8 175.2 107.05 175.35 107.35 175.55 107.75 177.05 108.05 178.65 108.35 179.9 108.35 180.9 108.25 182.8 107.25 183.5 102.75 183.15 99.15 183.05 97.6 181.8 88.4 Z"/>
</g>

<g id="Layer0_0_MEMBER_1_MEMBER_10_MEMBER_12_FILL">
<path fill="#17377A" stroke="none" d="
M 15.2 11.9
Q 14.95 11.65 14.7 11.55 12.85 10.3 9.65 9.15 8.2 8.7 5.45 7.2 2.5 5.55 2 4.8 1.15 3.6 0.8 0
L 0.2 0.35
Q -0.05 1.1 0 2.2 0.05 4.35 1.35 5.95 2.45 7.3 7.25 9.5 8.6 10.15 14.2 12.45
L 14.3 15.25
Q 14.55 18.4 15 20.25 15.4 21.9 15.65 25.55 15.9 28.8 16.05 29.1 16.25 29.5 17.75 29.8
L 17.9 26.2
Q 17.95 24.5 16.2 18.05 16 17.35 16 15.2
L 16.05 13.25
Q 15.75 12.45 15.2 11.9 Z"/>
</g>

<g id="Layer0_0_MEMBER_1_MEMBER_10_MEMBER_13_FILL">
<path fill="#F6562A" stroke="none" d="
M 349.8 306.55
Q 345.6 307.95 332.3 316.7
L 319.7 324.75 297.3 346.8 305 407
Q 309.2 435.7 309.9 439.2 313.05 454.6 309.9 479.45
L 314.8 535.1 323.55 535.1 339.65 526.35 356.45 523.55
Q 376.4 520.05 393.2 515.15 410.35 510.6 417 501.5 418.75 499.05 422.25 488.9 424.35 480.85 418.75 429.75 417.7 419.6 418.05 393.35
L 418.75 369.2
Q 422.95 344 416.65 324.4 411.4 308.3 405.45 307.95
L 369.05 310.4
Q 356.45 304.45 349.8 306.55 Z"/>
</g>

<g id="Layer0_0_MEMBER_1_MEMBER_10_MEMBER_14_FILL">
<path fill="#C5FD4B" stroke="none" d="
M 329.15 335.6
L 327.75 335.25 320.4 332.1
Q 318.65 330.7 317.95 328.6
L 317.25 326.85 314.1 329.3 304.3 338.75 301.5 342.6 310.6 343.65
Q 320.75 347.15 326.7 358.7 333.35 371.3 331.6 390.55 329.85 407.35 324.6 413.3 320.75 417.85 313.75 424.5
L 307.1 430.1 308.15 445.15
Q 309.2 462.65 308.5 473.85 307.45 480.85 307.45 481.55
L 307.45 486.45
Q 307.8 494.15 315.85 495.9 320.4 496.6 336.85 495.55 379.2 492.4 385.15 474.9 387.95 466.5 384.45 441.65 380.6 415.4 380.95 414.35 381.65 410.15 377.8 386.7 373.95 362.9 371.85 358.7 370.1 355.2 358.9 347.85 348.75 341.55 346.3 341.2 343.15 341.2 329.15 335.6 Z"/>
</g>

<g id="Layer0_0_MEMBER_1_MEMBER_10_MEMBER_15_FILL">
<path fill="#C5FD4B" stroke="none" d="
M 403.35 308.3
L 398.8 307.95 383.4 308.65 380.95 309.35
Q 379.55 310.05 379.9 312.5 380.25 313.9 380.6 314.95 385.5 344.35 385.15 344 384.8 343.65 388.3 384.95 391.8 425.9 392.85 435.35 393.9 443.05 397.4 453.9 399.15 459.5 401.95 468.25 403.7 473.15 412.1 468.95 420.85 464.75 422.6 457.75 423.3 456.7 422.6 454.6 422.6 450.05 420.85 440.6 417.7 416.1 418.05 411.55
L 419.45 363.6
Q 420.85 336.3 418.05 328.25 415.95 323 409.65 315.3 404.4 309 403.35 308.3 Z"/>
</g>

<g id="Layer0_0_MEMBER_1_MEMBER_10_MEMBER_16_MEMBER_0_FILL">
<path fill="#9AC2D5" stroke="none" d="
M 329.15 335.6
L 327.75 335.25 314.1 329.3 304.3 338.75
Q 311.65 342.95 323.2 347.15
L 327.4 348.55
Q 353.3 359.4 356.45 368.5 359.25 376.55 364.5 416.8 369.75 457.05 369.05 465.8 363.1 470.7 341.4 475.25 326.35 478.4 308.5 473.85 307.45 480.85 307.45 481.55
L 307.45 486.45
Q 319.7 488.9 329.85 488.9 337.9 488.9 343.85 487.5 373.25 481.9 379.9 472.45 386.2 463.7 368.35 363.95 363.45 349.95 332.3 337
L 329.15 335.6
M 383.4 308.65
Q 388.65 313.9 389.7 319.15 392.5 334.2 391.1 348.2 390.4 354.5 390.75 359.05 390.75 359.4 393.55 404.9 397.05 451.8 402.3 459.15
L 405.45 463.35 410.35 461.25 422.6 454.6
Q 422.6 450.05 420.85 440.6 415.95 444.45 411.05 446.55 408.6 434.65 406.15 404.2 404.05 377.25 403.35 358.35 403 355.55 403.7 349.25 405.1 334.2 402.3 317.05 401.95 313.55 398.8 307.95
L 383.4 308.65 Z"/>
</g>

<g id="Layer0_0_MEMBER_1_MEMBER_10_MEMBER_17_FILL">
<path fill="#FBC7AC" stroke="none" d="
M 166.7 46.1
L 166.4 42.55
Q 165.15 41.75 163.75 41.05 161 39.65 160.35 40.1 159.7 40.55 159.55 42.05 159.45 42.8 159.5 43.45
L 159.85 45.1
Q 160.2 46.95 160.2 47.8 160.2 49.2 159.75 50.05
L 160.05 50.3
Q 160.55 50.65 161.45 51 162.9 51.6 164.85 51.6 166.05 51.55 166.65 51.05 167.25 50.6 167.1 50.1 167 49.7 166.7 46.1 Z"/>
</g>

<g id="Layer0_0_MEMBER_1_MEMBER_10_MEMBER_18_FILL">
<path fill="#E43513" stroke="none" d="
M 336.85 495.55
Q 336.538671875 495.569921875 336.2 495.6 343.2240234375 498.4349609375 348.05 496.95 354.5951171875 495.253125 359.6 492.2 349.992578125 494.5724609375 336.85 495.55
M 321.4 496.15
Q 317.680078125 496.181640625 315.85 495.9 313.0509765625 495.2916015625 311.15 493.95
L 314.8 535.1 323.55 535.1 326.7 533.35 321.4 496.15 Z"/>

<path fill="#B79D20" stroke="none" d="
M 359.6 492.2
Q 361.8634765625 490.8638671875 363.8 489.25 364.7123046875 485.3837890625 365.5 481.75 356.941796875 485.00625 343.85 487.5 337.9 488.9 329.85 488.9 327.1470703125 488.9 324.3 488.7 330.8966796875 493.4181640625 336.2 495.6 336.538671875 495.569921875 336.85 495.55 349.992578125 494.5724609375 359.6 492.2
M 310.55 487.05
L 311.15 493.95
Q 313.0509765625 495.2916015625 315.85 495.9 317.680078125 496.181640625 321.4 496.15
L 320.75 491.35 321.7 488.5
Q 316.377734375 488.0728515625 310.55 487.05
M 313.75 424.5
L 308.25 429.1
Q 309.54375 437.418359375 309.9 439.2 312.7193359375 452.9830078125 310.5 474.3 327.1935546875 478.2234375 341.4 475.25 362.563671875 470.8125 368.75 466.05 368.9451171875 464.9896484375 369.1 463.95 371.46953125 450.7515625 371.85 442 372.9 426.25 367.65 389.5
L 346.65 404.9 333 395.8 330.65 397.35
Q 328.706640625 408.645703125 324.6 413.3 320.75 417.85 313.75 424.5 Z"/>

<path fill="#EE9F6E" stroke="none" d="
M 308.25 429.1
L 313.75 424.5
Q 320.75 417.85 324.6 413.3 328.706640625 408.645703125 330.65 397.35
L 319.35 404.9
Q 313.4 404.55 305 407 307.0619140625 421.090234375 308.25 429.1 Z"/>

<path fill="#8F785B" stroke="none" d="
M 310.5 474.3
Q 310.2306640625 476.8408203125 309.9 479.45
L 310.55 487.05
Q 316.377734375 488.0728515625 321.7 488.5
L 322.15 487.15
Q 323.2416015625 487.9685546875 324.3 488.7 327.1470703125 488.9 329.85 488.9 337.9 488.9 343.85 487.5 356.941796875 485.00625 365.5 481.75 367.41484375 473.2640625 368.75 466.05 362.563671875 470.8125 341.4 475.25 327.1935546875 478.2234375 310.5 474.3 Z"/>
</g>

<g id="Layer0_0_MEMBER_1_MEMBER_10_MEMBER_19_FILL">
<path fill="#F5A480" stroke="none" d="
M 435.9 366.4
L 433.05 369 449.9 380.75 439.25 363.2
Q 437.9044921875 364.59609375 435.9 366.4 Z"/>

<path fill="#EC5417" stroke="none" d="
M 421.9 334.55
L 419.15 333.15
Q 420.380078125 341.8318359375 419.6 359.6
L 433.05 369 435.9 366.4
Q 437.9044921875 364.59609375 439.25 363.2
L 421.9 334.55 Z"/>

<path fill="#B79D20" stroke="none" d="
M 390.65 325.15
L 376.05 336.65 376.05 355.9 390.7 352.55
Q 390.845703125 350.487890625 391.1 348.2 392.21796875 337.02109375 390.65 325.15
M 403.55 326.75
Q 404.09140625 332.314453125 404.15 337.65 404.226171875 343.5943359375 403.7 349.25 403.575 350.37578125 403.45 351.4
L 412.8 354.85 419.6 359.6
Q 420.380078125 341.8318359375 419.15 333.15
L 403.4 325.15
Q 403.4853515625 325.9673828125 403.55 326.75 Z"/>

<path fill="#8F785B" stroke="none" d="
M 404.15 337.65
Q 404.09140625 332.314453125 403.55 326.75 403.4853515625 325.9673828125 403.4 325.15
L 395.65 321.25 390.65 325.15
Q 392.21796875 337.02109375 391.1 348.2 390.845703125 350.487890625 390.7 352.55
L 400.55 350.3 403.45 351.4
Q 403.575 350.37578125 403.7 349.25 404.226171875 343.5943359375 404.15 337.65 Z"/>
</g>

<g id="Layer0_0_MEMBER_1_MEMBER_10_MEMBER_20_FILL">
<path fill="#F5A480" stroke="none" d="
M 0 1.1
Q 2.1 3.35 3.1 3.7 3.85 3.95 4.95 4.05 6 4.15 6.45 4.05 6.9 3.95 7.3 3.35 7.7 2.75 7.65 2.4 7.65 1.95 5.85 0.25 4.7 -0.05 4.4 0 0.4 0.5 0 1.1 Z"/>
</g>

<g id="Layer0_0_MEMBER_1_MEMBER_10_MEMBER_21_FILL">
<path fill="#FBC7AC" stroke="none" d="
M 168.75 46.55
Q 168.9 45.65 168.8 44.5
L 168.65 43.5 168.65 42.25
Q 168.15 38.3 166.85 37.6 165.55 36.95 163.35 36.95 160.8 36.95 160.05 38.15 159.35 39.3 159.75 41.4 159.95 42.5 160.35 43.55 160.4 43.7 160.95 45.55 161.55 47.45 161.85 47.9 162.35 48.6 164.35 49.6
L 166.05 50.25 166.9 50.25
Q 167.85 50.2 168.05 50 168.3 49.75 168.75 46.55 Z"/>
</g>

<g id="Layer0_0_MEMBER_1_MEMBER_10_MEMBER_22_FILL">
<path fill="#492728" stroke="none" d="
M 162.75 42.95
L 163.05 41.15 166.3 40.35 167.9 39.75 168.2 40.15 168.05 39
Q 167.95 38.1 166.6 36.75 165 35.05 163.2 35.1 161.35 35.15 159.75 36.15 158.55 36.85 158.05 37.65 157.65 38.35 157.6 39.45 157.5 40.8 158.05 42.25 158.85 44.4 159.6 45.5
L 160.1 45.95
Q 159.85 45.5 159.7 45 159.45 44.05 159.9 44 160.7 44 161.45 45.2
L 161.85 45.25 161.85 44.7 162.75 42.95 Z"/>
</g>

<g id="Layer0_0_MEMBER_1_MEMBER_10_MEMBER_23_FILL">
<path fill="#FED6C1" stroke="none" d="
M 161.2 46.2
L 160.8 44.65
Q 159.9 43.8 159.45 43.95 159.15 44.1 159.2 44.6 159.25 45.05 159.4 45.3 159.5 45.45 159.8 46.1 160.15 46.7 160.6 46.8 161.35 46.95 161.2 46.2 Z"/>
</g>

<g id="Layer0_0_MEMBER_1_MEMBER_10_MEMBER_24_FILL">
<path fill="#FED6C1" stroke="none" d="
M 167.3 43.7
L 166.95 43.5 167.35 45.3
Q 167.35 45.35 167.15 45.5 166.95 45.6 166.95 45.85 166.95 46.25 168.05 46.05 168.35 46 168.25 45.65
L 167.3 43.7 Z"/>
</g>

<g id="Layer0_0_MEMBER_1_MEMBER_10_MEMBER_25_FILL">
<path fill="#FBC7AC" stroke="none" d="
M 163 66.25
L 163.8 63.7
Q 162.2 61.8 161.85 61.7 161.45 61.6 159.65 61.8 157.7 62.05 157.45 62.4 157.2 62.75 157.2 63.7 157.2 64.2 157.25 64.6
L 158.3 66.8
Q 159.5 69.1 160.05 69.55 160.9 70.3 163 66.25 Z"/>
</g>

<g id="Layer0_0_MEMBER_1_MEMBER_10_MEMBER_26_FILL">
<path fill="#FD8839" stroke="none" d="
M 162 62.85
Q 164.35 63.15 164.55 62.6 164.25 61.95 164.2 61.7
L 162.3 59.25
Q 160.4 56.75 160.05 55.35 159.7 53.9 158.2 53
L 156.75 52.4
Q 156.05 53.05 155.7 53.5 155.45 53.8 154.9 55 154.65 55.6 154.4 56.15
L 154.45 56.9
Q 154.6 57.9 154.95 59.1 155.45 61 156.9 64.35
L 157.65 65.45 158.55 64.1
Q 158.85 63.7 160.45 63.25 161.25 63 162 62.85 Z"/>
</g>

<g id="Layer0_0_MEMBER_1_MEMBER_10_MEMBER_27_FILL">
<path fill="#FBC7AC" stroke="none" d="
M 176.7 49.4
L 174.95 48.4
Q 174.25 47.9 173.6 47.7 172.35 47.3 172.3 48.6
L 172.55 49.25
Q 172.8 49.95 172.75 50.2
L 172.75 50.4
Q 172.75 50.45 173 50.8 173.1 51.05 174.1 52
L 175.3 52.55 176.9 55.65
Q 177.1 56.05 177.65 59.6 178.1 60.7 178.85 61.45
L 179.1 61.7 179.65 61.85
Q 181.65 62.2 182.15 61.7 182.55 61.25 182.75 59.95 182.35 57.3 182.1 56.95
L 179.85 53.8
Q 179.65 53.5 178.8 52.6 178.1 51.8 177.9 51.4
L 176.7 49.4 Z"/>
</g>

<g id="Layer0_0_MEMBER_1_MEMBER_10_MEMBER_28_FILL">
<path fill="#F5A480" stroke="none" d="
M 0.1 0.3
L 0 1.1 0.85 1.65 1.5 1.35 3.15 2.15 2.8 0.95 2.25 0.1
Q 0.15 -0.15 0.1 0.3 Z"/>
</g>

<g id="Layer0_0_MEMBER_1_MEMBER_10_MEMBER_29_FILL">
<path fill="#ED9E37" stroke="none" d="
M 174.1 48.2
L 171.8 46.8 165.85 49.65 166.35 51.3 167.7 51.9 169.8 50.25 174.1 48.2 Z"/>
</g>

<g id="Layer0_0_MEMBER_1_MEMBER_10_MEMBER_30_FILL">
<path fill="#F5A480" stroke="none" d="
M 4.4 1.8
L 3.7 2 2.85 1.6 2.5 1.8 1.8 1.5 0 0
Q 0 0.05 0.25 0.4 0.35 0.65 1.35 1.6
L 2.55 2.15 4.15 5.25
Q 4.35 5.65 4.9 9.2 5.35 10.3 6.1 11.05
L 6.35 11.3 6.9 11.45
Q 8.9 11.8 9.4 11.3 9.1 11.25 8.5 11.3 7.6 11.3 5.8 9.8 5.45 9.5 5.2 7.9 4.9 6.05 4.75 5.3 4.5 3.85 2.95 2.45
L 3.5 2.45 4.4 1.8 Z"/>
</g>

<g id="Layer0_0_MEMBER_1_MEMBER_10_MEMBER_31_FILL">
<path fill="#FBC7AC" stroke="none" d="
M 170.8 47.3
L 170.8 47.4 170.9 47.75
Q 171.05 47.95 171.2 47.9
L 171.25 48.25 171.8 48.45 172.55 48.45 173.15 48.75 174 48.6 175 48.95 175.35 49.8 176.2 51 177.5 51.6 177.7 51 176.95 49.5
Q 176.9 49.3 176.05 48.25 175.25 47.75 175.2 47.6
L 174.35 46.8 172.2 46.55 170.8 47.3 Z"/>
</g>

<g id="Layer0_0_MEMBER_1_MEMBER_10_MEMBER_32_FILL">
<path fill="#F5A480" stroke="none" d="
M 0.4 0.9
L 1.9 0 0.25 0.55 0 0.4 0.1 0.75
Q 0.25 0.95 0.4 0.9 Z"/>
</g>

<g id="Layer0_0_MEMBER_1_MEMBER_10_MEMBER_33_FILL">
<path fill="#F5A480" stroke="none" d="
M 3.8 1.65
L 4.15 2.5 4.55 3.1 4.75 2.7 4.05 1.6 2.9 1.2 1.95 1.2
Q 1.9 1.25 1.65 1.05
L 1.95 0.75 3.2 0.65 4.3 1.1 3.2 0.45 1.75 0.6 1.15 0.95 0.8 0.95 1.2 0.35 1.9 0 0.7 0.45 0.45 0.7 0 0.6 0.05 0.95 0.6 1.15 1.35 1.15 1.95 1.45 2.8 1.3 3.8 1.65 Z"/>
</g>

<g id="Layer0_0_MEMBER_1_MEMBER_10_MEMBER_34_FILL">
<path fill="#FBC7AC" stroke="none" d="
M 170.1 48.85
L 170 48.55 169.75 48.35 168 48.45 167.55 48.25
Q 167.15 48.35 166.75 48.45 165.9 48.65 165.75 48.8 165.55 49 165.1 49.95 164.6 50.95 164.6 51.3 164.6 52.2 165.05 54 165.2 54.7 165.05 55.5 164.9 56.15 164.25 58.4 163.05 62.55 161.1 65.5 160.45 66.4 160.2 68.05 160.05 68.9 160.05 69.55
L 161 70.65
Q 162.05 71.8 162.65 71.9 164.75 72.1 165 71.9 165.2 71.65 165.95 69.6 166.75 67.45 166.95 66.4 167.3 64.95 167.75 56.8
L 168.5 55.05
Q 168.75 54.5 168.55 51.9
L 169.1 50.75 170.2 50.05
Q 170.8 49.7 169.9 49.5 170.25 49.35 170.35 49.15 170.45 48.9 170.1 48.85 Z"/>
</g>

<g id="Layer0_0_MEMBER_1_MEMBER_11_MEMBER_0_FILL">
<path fill="#FECA3A" stroke="none" d="
M 168.2 40.5
Q 169.1 40.15 168.9 38.8 168.85 38.4 168.4 37.25 168.05 36.35 167 35.3 165.25 33.65 163 33.7 160.45 33.75 158.75 35.2 157.8 36.05 157.35 37 157 38 156.9 38.95 156.8 40.6 157.8 41.15
L 158.45 41.3
Q 161.15 41.85 163.1 41.65 166.15 41.35 168.2 40.5 Z"/>
</g>

<g id="Layer0_0_MEMBER_1_MEMBER_11_MEMBER_1_FILL">
<path fill="#FDA529" stroke="none" d="
M 158.45 35.55
Q 158.5021484375 35.4455078125 158.55 35.35 157.7591796875 36.1361328125 157.35 37 157 38 156.9 38.95 156.8 40.6 157.8 41.15
L 158.45 41.3 158.05 40.25
Q 157.65 39.65 157.65 38.2 157.65 37.6 158.05 36.5
L 158.45 35.55 Z"/>
</g>

<g id="Layer0_0_MEMBER_1_MEMBER_11_MEMBER_2_FILL">
<path fill="#FEDB52" stroke="none" d="
M 163.35 37
Q 164.6 36.55 165.15 35.85 165.65 35.1 165.1 34.55 164.6 33.95 163.3 33.85 162.05 33.75 160.8 34.15 159.55 34.6 159.05 35.3 158.55 36.05 159.05 36.6 159.6 37.2 160.85 37.3 162.1 37.4 163.35 37 Z"/>
</g>

<g id="Layer0_0_MEMBER_1_MEMBER_11_MEMBER_3_FILL">
<path fill="#FEE152" stroke="none" d="
M 167.75 38.9
Q 165.8 39.95 164.5 40.25 163.4 40.6 160.4 40.3 157.2 39.95 156.9 39.4
L 156.85 39.8
Q 156.85 39.95 158.15 40.3 159.45 40.65 160.5 40.75 162.9 41 164.1 40.6 164.8 40.4 165.8 39.9
L 168 39.05
Q 168.15 38.95 168.65 38.45
L 168.8 38.05 168.55 37.55
Q 168.8 38.35 167.75 38.9 Z"/>
</g>

<g id="Layer0_0_MEMBER_1_MEMBER_11_MEMBER_4_FILL">
<path fill="#FDA529" stroke="none" d="
M 162.9 36.8
L 163.5 37.05
Q 162.9 35.65 161.85 35.2 160.4 34.6 159.35 34.9 159.1 35 158.75 35.2 158.4 35.45 158.45 35.55
L 159.5 35.35
Q 160.7 35.25 161.65 35.9 163.134765625 36.88984375 162.9 36.8 Z"/>
</g>

<g id="Layer0_0_MEMBER_1_MEMBER_11_MEMBER_5_FILL">
<path fill="#FDA529" stroke="none" d="
M 163.4 34.4
Q 162.7 34 162.15 33.9
L 161.7 33.9
Q 160.85 33.9 160.4 34.25
L 161.5 34.3
Q 162.75 34.5 163.45 35.2
L 164.5 36.3 164.9 36.5
Q 164.45 35.05 163.4 34.4 Z"/>
</g>

<g id="Layer0_0_MEMBER_1_MEMBER_11_MEMBER_6_FILL">
<path fill="#FD8E25" stroke="none" d="
M 167.7 42.1
Q 169 41.5 169.5 40.7 169.85 40.15 169.65 39.85
L 168.85 39.15
Q 169 38.95 168.65 38.2 168.6 38.45 168.35 38.7 168.15 38.95 166.4 39.75 164.5 40.6 163.35 40.75 161.2 41.05 156.8 40.05
L 156.9 40.65
Q 157.1 41.25 157.55 41.4 158.1 41.6 160.1 41.8 160.65 41.9 163.25 42.75 165.05 43.35 167.7 42.1 Z"/>
</g>

<g id="Layer0_0_MEMBER_1_MEMBER_11_MEMBER_7_FILL">
<path fill="#FDBD3A" stroke="none" d="
M 168.7 38
Q 168.65 38.2 168.4 38.5 168.2 38.75 166.45 39.5 164.55 40.35 163.4 40.5 162.2 40.7 160.7 40.55 159.45 40.4 156.85 39.8
L 156.95 40.45
Q 157.15 41.05 157.65 41.2 157.7 41.2 160.15 41.6 160.7 41.7 163.3 42.55 164.2 42.85 165.65 42.55 166.8 42.35 167.75 41.9 169.05 41.3 169.55 40.5 169.9 39.95 169.7 39.65
L 168.9 38.95
Q 169.05 38.7 168.7 38 Z"/>
</g>

<g id="Layer0_0_MEMBER_1_MEMBER_11_MEMBER_8_FILL">
<path fill="#FDA529" stroke="none" d="
M 168.9 38.95
Q 169.05 38.7 168.8 37.95
L 168.4 38.5
Q 168.2 38.75 166.45 39.5 164.55 40.35 163.4 40.5 162.2 40.7 160.7 40.55 159.45 40.4 156.85 39.8
L 156.95 40.45
Q 157 40.5 158.15 40.9 159.7 41.35 161.9 41.35 164.15 41.4 166.5 40.3 167.2 40 168.9 38.95 Z"/>
</g>

<g id="Layer0_0_MEMBER_1_MEMBER_11_MEMBER_9_FILL">
<path fill="#FEE152" stroke="none" d="
M 164.35 36.75
Q 163.15 35.35 162.1 34.9 160.55 34.3 159.6 34.6 159.35 34.7 159 34.9 158.65 35.15 158.7 35.25
L 159.7 35.05
Q 160.95 34.95 161.9 35.6 163.4 36.65 163.5 37.05
L 164.35 36.75 Z"/>
</g>

<g id="Layer0_0_MEMBER_1_MEMBER_11_MEMBER_10_FILL">
<path fill="#FEE152" stroke="none" d="
M 162.45 33.8
L 162 33.8
Q 161.15 33.8 160.7 34.1
L 161.8 34.15
Q 163.05 34.35 163.75 35.05 164.8 36.2 164.9 36.5
L 165.7 36.2
Q 164.75 34.9 163.7 34.25 163 33.85 162.45 33.8 Z"/>
</g>
</defs>

<g transform="matrix( 7, 0, 0, 7, 621.75,592.15) ">
<use xlink:href="#Layer0_0_MEMBER_0_MEMBER_0_FILL"/>
</g>

<g transform="matrix( 7, 0, 0, 7, -796.8,-22.8) ">
<use xlink:href="#Layer0_0_MEMBER_0_MEMBER_1_MEMBER_0_FILL"/>
</g>

<g transform="matrix( 7, 0, 0, 7, -796.8,-22.8) ">
<use xlink:href="#Layer0_0_MEMBER_0_MEMBER_1_MEMBER_1_FILL"/>
</g>

<g transform="matrix( 7, 0, 0, 7, -796.8,-22.8) ">
<use xlink:href="#Layer0_0_MEMBER_0_MEMBER_1_MEMBER_2_FILL"/>
</g>

<g transform="matrix( 7, 0, 0, 7, -796.8,-22.8) ">
<use xlink:href="#Layer0_0_MEMBER_0_MEMBER_1_MEMBER_3_FILL"/>
</g>

<g transform="matrix( 7, 0, 0, 7, -796.8,-22.8) ">
<use xlink:href="#Layer0_0_MEMBER_0_MEMBER_1_MEMBER_4_FILL"/>
</g>

<g transform="matrix( 7, 0, 0, 7, -796.8,-22.8) ">
<use xlink:href="#Layer0_0_MEMBER_0_MEMBER_1_MEMBER_5_FILL"/>
</g>

<g transform="matrix( 7, 0, 0, 7, -796.8,-22.8) ">
<use xlink:href="#Layer0_0_MEMBER_0_MEMBER_1_MEMBER_6_FILL"/>
</g>

<g transform="matrix( 7, 0, 0, 7, -796.8,-22.8) ">
<use xlink:href="#Layer0_0_MEMBER_0_MEMBER_1_MEMBER_7_FILL"/>
</g>

<g transform="matrix( 1, 0, 0, 1, 0,0) ">
<use xlink:href="#Layer0_0_MEMBER_0_MEMBER_1_MEMBER_8_FILL"/>
</g>

<g transform="matrix( 1, 0, 0, 1, 0,0) ">
<use xlink:href="#Layer0_0_MEMBER_0_MEMBER_1_MEMBER_9_FILL"/>
</g>

<g transform="matrix( 7, 0, 0, 7, -796.8,-22.8) ">
<use xlink:href="#Layer0_0_MEMBER_0_MEMBER_2_MEMBER_0_FILL"/>
</g>

<g transform="matrix( 7, 0, 0, 7, -796.8,-22.8) ">
<use xlink:href="#Layer0_0_MEMBER_0_MEMBER_2_MEMBER_1_FILL"/>
</g>

<g transform="matrix( 7, 0, 0, 7, -796.8,-22.8) ">
<use xlink:href="#Layer0_0_MEMBER_0_MEMBER_2_MEMBER_2_FILL"/>
</g>

<g transform="matrix( 7, 0, 0, 7, -796.8,-22.8) ">
<use xlink:href="#Layer0_0_MEMBER_0_MEMBER_2_MEMBER_3_FILL"/>
</g>

<g transform="matrix( 7, 0, 0, 7, -796.8,-22.8) ">
<use xlink:href="#Layer0_0_MEMBER_0_MEMBER_2_MEMBER_4_FILL"/>
</g>

<g transform="matrix( 7, 0, 0, 7, -796.8,-22.8) ">
<use xlink:href="#Layer0_0_MEMBER_0_MEMBER_2_MEMBER_5_FILL"/>
</g>

<g transform="matrix( 7, 0, 0, 7, -796.8,-22.8) ">
<use xlink:href="#Layer0_0_MEMBER_0_MEMBER_2_MEMBER_6_FILL"/>
</g>

<g transform="matrix( 7, 0, 0, 7, -796.8,-22.8) ">
<use xlink:href="#Layer0_0_MEMBER_0_MEMBER_2_MEMBER_7_FILL"/>
</g>

<g transform="matrix( 1, 0, 0, 1, 0,0) ">
<use xlink:href="#Layer0_0_MEMBER_0_MEMBER_2_MEMBER_8_FILL"/>
</g>

<g transform="matrix( 1, 0, 0, 1, 0,0) ">
<use xlink:href="#Layer0_0_MEMBER_0_MEMBER_2_MEMBER_9_FILL"/>
</g>

<g transform="matrix( 7, 0, 0, 7, -796.8,-22.8) ">
<use xlink:href="#Layer0_0_MEMBER_0_MEMBER_3_MEMBER_0_FILL"/>
</g>

<g transform="matrix( 7, 0, 0, 7, -796.8,-22.8) ">
<use xlink:href="#Layer0_0_MEMBER_0_MEMBER_3_MEMBER_1_FILL"/>
</g>

<g transform="matrix( 7, 0, 0, 7, -796.8,-22.8) ">
<use xlink:href="#Layer0_0_MEMBER_0_MEMBER_3_MEMBER_2_FILL"/>
</g>

<g transform="matrix( 7, 0, 0, 7, -796.8,-22.8) ">
<use xlink:href="#Layer0_0_MEMBER_0_MEMBER_3_MEMBER_3_FILL"/>
</g>

<g transform="matrix( 1, 0, 0, 1, 0,0) ">
<use xlink:href="#Layer0_0_MEMBER_0_MEMBER_3_MEMBER_4_FILL"/>
</g>

<g transform="matrix( 7, 0, 0, 7, 651.15,565.2) ">
<use xlink:href="#Layer0_0_MEMBER_0_MEMBER_3_MEMBER_5_FILL"/>
</g>

<g transform="matrix( 7, 0, 0, 7, -796.8,-22.8) ">
<use xlink:href="#Layer0_0_MEMBER_0_MEMBER_3_MEMBER_6_FILL"/>
</g>

<g transform="matrix( 7, 0, 0, 7, -796.8,-22.8) ">
<use xlink:href="#Layer0_0_MEMBER_0_MEMBER_3_MEMBER_7_FILL"/>
</g>

<g transform="matrix( 7, 0, 0, 7, -796.8,-22.8) ">
<use xlink:href="#Layer0_0_MEMBER_0_MEMBER_3_MEMBER_8_FILL"/>
</g>

<g transform="matrix( 7, 0, 0, 7, -796.8,-22.8) ">
<use xlink:href="#Layer0_0_MEMBER_0_MEMBER_3_MEMBER_9_FILL"/>
</g>

<g transform="matrix( 7, 0, 0, 7, 769.45,534.75) ">
<use xlink:href="#Layer0_0_MEMBER_0_MEMBER_3_MEMBER_10_FILL"/>
</g>

<g transform="matrix( 7, 0, 0, 7, 724.3,612.1) ">
<use xlink:href="#Layer0_0_MEMBER_0_MEMBER_3_MEMBER_11_FILL"/>
</g>

<g transform="matrix( 7, 0, 0, 7, -796.8,-22.8) ">
<use xlink:href="#Layer0_0_MEMBER_0_MEMBER_3_MEMBER_12_FILL"/>
</g>

<g transform="matrix( 7, 0, 0, 7, 716.95,368.15) ">
<use xlink:href="#Layer0_0_MEMBER_0_MEMBER_3_MEMBER_13_FILL"/>
</g>

<g transform="matrix( 1, 0, 0, 1, 0,0) ">
<use xlink:href="#Layer0_0_MEMBER_0_MEMBER_3_MEMBER_14_FILL"/>
</g>

<g transform="matrix( 1, 0, 0, 1, 0,0) ">
<use xlink:href="#Layer0_0_MEMBER_0_MEMBER_3_MEMBER_15_FILL"/>
</g>

<g transform="matrix( 1, 0, 0, 1, 0,0) ">
<use xlink:href="#Layer0_0_MEMBER_0_MEMBER_3_MEMBER_16_FILL"/>
</g>

<g transform="matrix( 7, 0, 0, 7, -796.8,-22.8) ">
<use xlink:href="#Layer0_0_MEMBER_0_MEMBER_3_MEMBER_17_FILL"/>
</g>

<g transform="matrix( 7, 0, 0, 7, -796.8,-22.8) ">
<use xlink:href="#Layer0_0_MEMBER_0_MEMBER_3_MEMBER_18_MEMBER_0_FILL"/>
</g>

<g transform="matrix( 1, 0, 0, 1, 0,0) ">
<use xlink:href="#Layer0_0_MEMBER_0_MEMBER_3_MEMBER_19_FILL"/>
</g>

<g transform="matrix( 1, 0, 0, 1, 0,0) ">
<use xlink:href="#Layer0_0_MEMBER_0_MEMBER_3_MEMBER_20_MEMBER_0_FILL"/>
</g>

<g transform="matrix( 7, 0, 0, 7, -796.8,-22.8) ">
<use xlink:href="#Layer0_0_MEMBER_0_MEMBER_3_MEMBER_21_FILL"/>
</g>

<g transform="matrix( 7, 0, 0, 7, 740.75,337) ">
<use xlink:href="#Layer0_0_MEMBER_0_MEMBER_3_MEMBER_22_FILL"/>
</g>

<g transform="matrix( 1, 0, 0, 1, 0,0) ">
<use xlink:href="#Layer0_0_MEMBER_0_MEMBER_3_MEMBER_23_FILL"/>
</g>

<g transform="matrix( 7, 0, 0, 7, -796.8,-22.8) ">
<use xlink:href="#Layer0_0_MEMBER_0_MEMBER_3_MEMBER_24_FILL"/>
</g>

<g transform="matrix( 1, 0, 0, 1, 0,0) ">
<use xlink:href="#Layer0_0_MEMBER_0_MEMBER_3_MEMBER_25_FILL"/>
</g>

<g transform="matrix( 7, 0, 0, 7, -796.8,-22.8) ">
<use xlink:href="#Layer0_0_MEMBER_0_MEMBER_3_MEMBER_26_FILL"/>
</g>

<g transform="matrix( 7, 0, 0, 7, 840.85,300.95) ">
<use xlink:href="#Layer0_0_MEMBER_0_MEMBER_3_MEMBER_27_FILL"/>
</g>

<g transform="matrix( 1, 0, 0, 1, 0,0) ">
<use xlink:href="#Layer0_0_MEMBER_0_MEMBER_3_MEMBER_28_FILL"/>
</g>

<g transform="matrix( 7, 0, 0, 7, 793.6,300.95) ">
<use xlink:href="#Layer0_0_MEMBER_0_MEMBER_3_MEMBER_29_FILL"/>
</g>

<g transform="matrix( 7, 0, 0, 7, 781.35,312.5) ">
<use xlink:href="#Layer0_0_MEMBER_0_MEMBER_3_MEMBER_30_FILL"/>
</g>

<g transform="matrix( 7, 0, 0, 7, -796.8,-22.8) ">
<use xlink:href="#Layer0_0_MEMBER_0_MEMBER_3_MEMBER_31_FILL"/>
</g>

<g transform="matrix( 7, 0, 0, 7, -796.8,-22.8) ">
<use xlink:href="#Layer0_0_MEMBER_0_MEMBER_3_MEMBER_32_FILL"/>
</g>

<g transform="matrix( 7, 0, 0, 7, 830,451.45) ">
<use xlink:href="#Layer0_0_MEMBER_0_MEMBER_3_MEMBER_33_FILL"/>
</g>

<g transform="matrix( 7, 0, 0, 7, 772.25,446.2) ">
<use xlink:href="#Layer0_0_MEMBER_0_MEMBER_3_MEMBER_34_FILL"/>
</g>

<g transform="matrix( 7, 0, 0, 7, -796.8,-22.8) ">
<use xlink:href="#Layer0_0_MEMBER_0_MEMBER_3_MEMBER_35_FILL"/>
</g>

<g transform="matrix( 7, 0, 0, 7, -796.8,-22.8) ">
<use xlink:href="#Layer0_0_MEMBER_0_MEMBER_3_MEMBER_36_FILL"/>
</g>

<g transform="matrix( 7, 0, 0, 7, -796.8,-22.8) ">
<use xlink:href="#Layer0_0_MEMBER_0_MEMBER_3_MEMBER_37_FILL"/>
</g>

<g transform="matrix( 7, 0, 0, 7, -796.8,-22.8) ">
<use xlink:href="#Layer0_0_MEMBER_0_MEMBER_3_MEMBER_38_FILL"/>
</g>

<g transform="matrix( 7, 0, 0, 7, -796.8,-22.8) ">
<use xlink:href="#Layer0_0_MEMBER_0_MEMBER_3_MEMBER_39_FILL"/>
</g>

<g transform="matrix( 7, 0, 0, 7, -796.8,-22.8) ">
<use xlink:href="#Layer0_0_MEMBER_0_MEMBER_3_MEMBER_40_FILL"/>
</g>

<g transform="matrix( 7, 0, 0, 7, 5.4,669.85) ">
<use xlink:href="#Layer0_0_MEMBER_1_MEMBER_0_FILL"/>
</g>

<g transform="matrix( 7, 0, 0, 7, -796.8,-22.8) ">
<use xlink:href="#Layer0_0_MEMBER_1_MEMBER_1_MEMBER_0_FILL"/>
</g>

<g transform="matrix( 7, 0, 0, 7, -796.8,-22.8) ">
<use xlink:href="#Layer0_0_MEMBER_1_MEMBER_1_MEMBER_1_FILL"/>
</g>

<g transform="matrix( 7, 0, 0, 7, -796.8,-22.8) ">
<use xlink:href="#Layer0_0_MEMBER_1_MEMBER_1_MEMBER_2_FILL"/>
</g>

<g transform="matrix( 7, 0, 0, 7, -796.8,-22.8) ">
<use xlink:href="#Layer0_0_MEMBER_1_MEMBER_2_MEMBER_0_FILL"/>
</g>

<g transform="matrix( 7, 0, 0, 7, -796.8,-22.8) ">
<use xlink:href="#Layer0_0_MEMBER_1_MEMBER_2_MEMBER_1_FILL"/>
</g>

<g transform="matrix( 7, 0, 0, 7, -796.8,-22.8) ">
<use xlink:href="#Layer0_0_MEMBER_1_MEMBER_2_MEMBER_2_FILL"/>
</g>

<g transform="matrix( 7, 0, 0, 7, -796.8,-22.8) ">
<use xlink:href="#Layer0_0_MEMBER_1_MEMBER_3_MEMBER_0_FILL"/>
</g>

<g transform="matrix( 7, 0, 0, 7, -796.8,-22.8) ">
<use xlink:href="#Layer0_0_MEMBER_1_MEMBER_3_MEMBER_1_FILL"/>
</g>

<g transform="matrix( 7, 0, 0, 7, -796.8,-22.8) ">
<use xlink:href="#Layer0_0_MEMBER_1_MEMBER_3_MEMBER_2_FILL"/>
</g>

<g transform="matrix( 7, 0, 0, 7, -796.8,-22.8) ">
<use xlink:href="#Layer0_0_MEMBER_1_MEMBER_4_MEMBER_0_FILL"/>
</g>

<g transform="matrix( 7, 0, 0, 7, -796.8,-22.8) ">
<use xlink:href="#Layer0_0_MEMBER_1_MEMBER_4_MEMBER_1_FILL"/>
</g>

<g transform="matrix( 7, 0, 0, 7, -796.8,-22.8) ">
<use xlink:href="#Layer0_0_MEMBER_1_MEMBER_4_MEMBER_2_FILL"/>
</g>

<g transform="matrix( 7, 0, 0, 7, -796.8,-22.8) ">
<use xlink:href="#Layer0_0_MEMBER_1_MEMBER_5_MEMBER_0_FILL"/>
</g>

<g transform="matrix( 7, 0, 0, 7, -796.8,-22.8) ">
<use xlink:href="#Layer0_0_MEMBER_1_MEMBER_5_MEMBER_1_FILL"/>
</g>

<g transform="matrix( 7, 0, 0, 7, -796.8,-22.8) ">
<use xlink:href="#Layer0_0_MEMBER_1_MEMBER_5_MEMBER_2_FILL"/>
</g>

<g transform="matrix( 7, 0, 0, 7, -796.8,-22.8) ">
<use xlink:href="#Layer0_0_MEMBER_1_MEMBER_6_MEMBER_0_FILL"/>
</g>

<g transform="matrix( 7, 0, 0, 7, -796.8,-22.8) ">
<use xlink:href="#Layer0_0_MEMBER_1_MEMBER_6_MEMBER_1_FILL"/>
</g>

<g transform="matrix( 7, 0, 0, 7, -796.8,-22.8) ">
<use xlink:href="#Layer0_0_MEMBER_1_MEMBER_6_MEMBER_2_FILL"/>
</g>

<g transform="matrix( 7, 0, 0, 7, -796.8,-22.8) ">
<use xlink:href="#Layer0_0_MEMBER_1_MEMBER_7_MEMBER_0_FILL"/>
</g>

<g transform="matrix( 7, 0, 0, 7, -796.8,-22.8) ">
<use xlink:href="#Layer0_0_MEMBER_1_MEMBER_7_MEMBER_1_FILL"/>
</g>

<g transform="matrix( 7, 0, 0, 7, -796.8,-22.8) ">
<use xlink:href="#Layer0_0_MEMBER_1_MEMBER_7_MEMBER_2_FILL"/>
</g>

<g transform="matrix( 7, 0, 0, 7, -796.8,-22.8) ">
<use xlink:href="#Layer0_0_MEMBER_1_MEMBER_7_MEMBER_3_MEMBER_0_FILL"/>
</g>

<g transform="matrix( 7, 0, 0, 7, -796.8,-22.8) ">
<use xlink:href="#Layer0_0_MEMBER_1_MEMBER_7_MEMBER_3_MEMBER_1_FILL"/>
</g>

<g transform="matrix( 7, 0, 0, 7, -796.8,-22.8) ">
<use xlink:href="#Layer0_0_MEMBER_1_MEMBER_7_MEMBER_4_MEMBER_0_FILL"/>
</g>

<g transform="matrix( 7, 0, 0, 7, -796.8,-22.8) ">
<use xlink:href="#Layer0_0_MEMBER_1_MEMBER_7_MEMBER_4_MEMBER_1_FILL"/>
</g>

<g transform="matrix( 7, 0, 0, 7, 249.7,498.7) ">
<use xlink:href="#Layer0_0_MEMBER_1_MEMBER_8_FILL"/>
</g>

<g transform="matrix( 7, 0, 0, 7, 393.2,656.55) ">
<use xlink:href="#Layer0_0_MEMBER_1_MEMBER_9_FILL"/>
</g>

<g transform="matrix( 7, 0, 0, 7, -796.8,-22.8) ">
<use xlink:href="#Layer0_0_MEMBER_1_MEMBER_10_MEMBER_0_FILL"/>
</g>

<g transform="matrix( 7, 0, 0, 7, 412.8,330) ">
<use xlink:href="#Layer0_0_MEMBER_1_MEMBER_10_MEMBER_1_FILL"/>
</g>

<g transform="matrix( 1, 0, 0, 1, 0,0) ">
<use xlink:href="#Layer0_0_MEMBER_1_MEMBER_10_MEMBER_2_FILL"/>
</g>

<g transform="matrix( 7, 0, 0, 7, -796.8,-22.8) ">
<use xlink:href="#Layer0_0_MEMBER_1_MEMBER_10_MEMBER_3_FILL"/>
</g>

<g transform="matrix( 7, 0, 0, 7, -796.8,-22.8) ">
<use xlink:href="#Layer0_0_MEMBER_1_MEMBER_10_MEMBER_4_FILL"/>
</g>

<g transform="matrix( 7, 0, 0, 7, -796.8,-22.8) ">
<use xlink:href="#Layer0_0_MEMBER_1_MEMBER_10_MEMBER_5_FILL"/>
</g>

<g transform="matrix( 7, 0, 0, 7, -796.8,-22.8) ">
<use xlink:href="#Layer0_0_MEMBER_1_MEMBER_10_MEMBER_6_FILL"/>
</g>

<g transform="matrix( 7, 0, 0, 7, 393.2,527.05) ">
<use xlink:href="#Layer0_0_MEMBER_1_MEMBER_10_MEMBER_7_FILL"/>
</g>

<g transform="matrix( 7, 0, 0, 7, -796.8,-22.8) ">
<use xlink:href="#Layer0_0_MEMBER_1_MEMBER_10_MEMBER_8_FILL"/>
</g>

<g transform="matrix( 7, 0, 0, 7, -796.8,-22.8) ">
<use xlink:href="#Layer0_0_MEMBER_1_MEMBER_10_MEMBER_9_FILL"/>
</g>

<g transform="matrix( 7, 0, 0, 7, -796.8,-22.8) ">
<use xlink:href="#Layer0_0_MEMBER_1_MEMBER_10_MEMBER_10_FILL"/>
</g>

<g transform="matrix( 7, 0, 0, 7, -796.8,-22.8) ">
<use xlink:href="#Layer0_0_MEMBER_1_MEMBER_10_MEMBER_11_FILL"/>
</g>

<g transform="matrix( 7, 0, 0, 7, 318.3,524.95) ">
<use xlink:href="#Layer0_0_MEMBER_1_MEMBER_10_MEMBER_12_FILL"/>
</g>

<g transform="matrix( 1, 0, 0, 1, 0,0) ">
<use xlink:href="#Layer0_0_MEMBER_1_MEMBER_10_MEMBER_13_FILL"/>
</g>

<g transform="matrix( 1, 0, 0, 1, 0,0) ">
<use xlink:href="#Layer0_0_MEMBER_1_MEMBER_10_MEMBER_14_FILL"/>
</g>

<g transform="matrix( 1, 0, 0, 1, 0,0) ">
<use xlink:href="#Layer0_0_MEMBER_1_MEMBER_10_MEMBER_15_FILL"/>
</g>

<g transform="matrix( 1, 0, 0, 1, 0,0) ">
<use xlink:href="#Layer0_0_MEMBER_1_MEMBER_10_MEMBER_16_MEMBER_0_FILL"/>
</g>

<g transform="matrix( 7, 0, 0, 7, -796.8,-22.8) ">
<use xlink:href="#Layer0_0_MEMBER_1_MEMBER_10_MEMBER_17_FILL"/>
</g>

<g transform="matrix( 1, 0, 0, 1, 0,0) ">
<use xlink:href="#Layer0_0_MEMBER_1_MEMBER_10_MEMBER_18_FILL"/>
</g>

<g transform="matrix( 1, 0, 0, 1, 0,0) ">
<use xlink:href="#Layer0_0_MEMBER_1_MEMBER_10_MEMBER_19_FILL"/>
</g>

<g transform="matrix( 7, 0, 0, 7, 342.45,310.05) ">
<use xlink:href="#Layer0_0_MEMBER_1_MEMBER_10_MEMBER_20_FILL"/>
</g>

<g transform="matrix( 7, 0, 0, 7, -796.8,-22.8) ">
<use xlink:href="#Layer0_0_MEMBER_1_MEMBER_10_MEMBER_21_FILL"/>
</g>

<g transform="matrix( 7, 0, 0, 7, -796.8,-22.8) ">
<use xlink:href="#Layer0_0_MEMBER_1_MEMBER_10_MEMBER_22_FILL"/>
</g>

<g transform="matrix( 7, 0, 0, 7, -796.8,-22.8) ">
<use xlink:href="#Layer0_0_MEMBER_1_MEMBER_10_MEMBER_23_FILL"/>
</g>

<g transform="matrix( 7, 0, 0, 7, -796.8,-22.8) ">
<use xlink:href="#Layer0_0_MEMBER_1_MEMBER_10_MEMBER_24_FILL"/>
</g>

<g transform="matrix( 7, 0, 0, 7, -796.8,-22.8) ">
<use xlink:href="#Layer0_0_MEMBER_1_MEMBER_10_MEMBER_25_FILL"/>
</g>

<g transform="matrix( 7, 0, 0, 7, -796.8,-22.8) ">
<use xlink:href="#Layer0_0_MEMBER_1_MEMBER_10_MEMBER_26_FILL"/>
</g>

<g transform="matrix( 7, 0, 0, 7, -796.8,-22.8) ">
<use xlink:href="#Layer0_0_MEMBER_1_MEMBER_10_MEMBER_27_FILL"/>
</g>

<g transform="matrix( 7, 0, 0, 7, 411.4,314.95) ">
<use xlink:href="#Layer0_0_MEMBER_1_MEMBER_10_MEMBER_28_FILL"/>
</g>

<g transform="matrix( 7, 0, 0, 7, -796.8,-22.8) ">
<use xlink:href="#Layer0_0_MEMBER_1_MEMBER_10_MEMBER_29_FILL"/>
</g>

<g transform="matrix( 7, 0, 0, 7, 412.45,330) ">
<use xlink:href="#Layer0_0_MEMBER_1_MEMBER_10_MEMBER_30_FILL"/>
</g>

<g transform="matrix( 7, 0, 0, 7, -796.8,-22.8) ">
<use xlink:href="#Layer0_0_MEMBER_1_MEMBER_10_MEMBER_31_FILL"/>
</g>

<g transform="matrix( 7, 0, 0, 7, 398.8,306.2) ">
<use xlink:href="#Layer0_0_MEMBER_1_MEMBER_10_MEMBER_32_FILL"/>
</g>

<g transform="matrix( 7, 0, 0, 7, 401.6,308.3) ">
<use xlink:href="#Layer0_0_MEMBER_1_MEMBER_10_MEMBER_33_FILL"/>
</g>

<g transform="matrix( 7, 0, 0, 7, -796.8,-22.8) ">
<use xlink:href="#Layer0_0_MEMBER_1_MEMBER_10_MEMBER_34_FILL"/>
</g>

<g transform="matrix( 7, 0, 0, 7, -796.8,-22.8) ">
<use xlink:href="#Layer0_0_MEMBER_1_MEMBER_11_MEMBER_0_FILL"/>
</g>

<g transform="matrix( 7, 0, 0, 7, -796.8,-22.8) ">
<use xlink:href="#Layer0_0_MEMBER_1_MEMBER_11_MEMBER_1_FILL"/>
</g>

<g transform="matrix( 7, 0, 0, 7, -796.8,-22.8) ">
<use xlink:href="#Layer0_0_MEMBER_1_MEMBER_11_MEMBER_2_FILL"/>
</g>

<g transform="matrix( 7, 0, 0, 7, -796.8,-22.8) ">
<use xlink:href="#Layer0_0_MEMBER_1_MEMBER_11_MEMBER_3_FILL"/>
</g>

<g transform="matrix( 7, 0, 0, 7, -796.8,-22.8) ">
<use xlink:href="#Layer0_0_MEMBER_1_MEMBER_11_MEMBER_4_FILL"/>
</g>

<g transform="matrix( 7, 0, 0, 7, -796.8,-22.8) ">
<use xlink:href="#Layer0_0_MEMBER_1_MEMBER_11_MEMBER_5_FILL"/>
</g>

<g transform="matrix( 7, 0, 0, 7, -796.8,-22.8) ">
<use xlink:href="#Layer0_0_MEMBER_1_MEMBER_11_MEMBER_6_FILL"/>
</g>

<g transform="matrix( 7, 0, 0, 7, -796.8,-22.8) ">
<use xlink:href="#Layer0_0_MEMBER_1_MEMBER_11_MEMBER_7_FILL"/>
</g>

<g transform="matrix( 7, 0, 0, 7, -796.8,-22.8) ">
<use xlink:href="#Layer0_0_MEMBER_1_MEMBER_11_MEMBER_8_FILL"/>
</g>

<g transform="matrix( 7, 0, 0, 7, -796.8,-22.8) ">
<use xlink:href="#Layer0_0_MEMBER_1_MEMBER_11_MEMBER_9_FILL"/>
</g>

<g transform="matrix( 7, 0, 0, 7, -796.8,-22.8) ">
<use xlink:href="#Layer0_0_MEMBER_1_MEMBER_11_MEMBER_10_FILL"/>
</g>
</svg>
