
<svg xmlns="http://www.w3.org/2000/svg" version="1.1" xmlns:xlink="http://www.w3.org/1999/xlink" preserveAspectRatio="none" x="0px" y="0px" width="1024px" height="1024px" viewBox="0 0 1024 1024">
<defs>
<linearGradient id="Gradient_1" gradientUnits="userSpaceOnUse" x1="61.8875" y1="214.0875" x2="60.3125" y2="214.01250000000002" spreadMethod="pad">
<stop  offset="9.019607843137255%" stop-color="#9F9F9F"/>

<stop  offset="48.627450980392155%" stop-color="#C9C9C9"/>

<stop  offset="70.58823529411765%" stop-color="#E8E8E8"/>

<stop  offset="84.31372549019608%" stop-color="#EDEDED"/>

<stop  offset="93.72549019607843%" stop-color="#EBEBEB"/>

<stop  offset="97.25490196078431%" stop-color="#E4E4E4"/>

<stop  offset="98.43137254901961%" stop-color="#E0E0E0"/>

<stop  offset="99.2156862745098%" stop-color="#EAEAEA"/>
</linearGradient>

<linearGradient id="Gradient_2" gradientUnits="userSpaceOnUse" x1="63.400000000000006" y1="207.85" x2="59.5" y2="207.65" spreadMethod="pad">
<stop  offset="9.019607843137255%" stop-color="#9F9F9F"/>

<stop  offset="48.627450980392155%" stop-color="#C9C9C9"/>

<stop  offset="70.58823529411765%" stop-color="#E8E8E8"/>

<stop  offset="84.31372549019608%" stop-color="#EDEDED"/>

<stop  offset="93.72549019607843%" stop-color="#EBEBEB"/>

<stop  offset="97.25490196078431%" stop-color="#E4E4E4"/>

<stop  offset="98.43137254901961%" stop-color="#E0E0E0"/>

<stop  offset="99.2156862745098%" stop-color="#EAEAEA"/>
</linearGradient>

<linearGradient id="Gradient_3" gradientUnits="userSpaceOnUse" x1="64.4125" y1="195.925" x2="59.7875" y2="195.675" spreadMethod="pad">
<stop  offset="9.019607843137255%" stop-color="#9F9F9F"/>

<stop  offset="48.627450980392155%" stop-color="#C9C9C9"/>

<stop  offset="70.58823529411765%" stop-color="#E8E8E8"/>

<stop  offset="84.31372549019608%" stop-color="#EDEDED"/>

<stop  offset="93.72549019607843%" stop-color="#EBEBEB"/>

<stop  offset="97.25490196078431%" stop-color="#E4E4E4"/>

<stop  offset="98.43137254901961%" stop-color="#E0E0E0"/>

<stop  offset="99.2156862745098%" stop-color="#EAEAEA"/>
</linearGradient>

<g id="Layer0_0_MEMBER_0_MEMBER_0_FILL">
<path fill="#CCC0BC" stroke="none" d="
M 49.9 9.35
Q 47.15 7.25 41.9 5.15 37.45 3.3 28.15 0.8 25.25 0 23.75 0 20.85 -0.05 16.55 2.15 15.2 2.85 13.4 3.25 11.3 3.65 10.1 3.85 6.7 4.45 4.85 5.6 2.55 7 1.1 9.85 -0.55 13 0.25 15.5 1.1 18.2 4.65 18.7 5.6 18.8 6.5 18.7 7.75 18.55 9.4 18 10.35 17.7 12.25 16.95 17.2 15.25 19.8 16.85 20 16.95 20.75 17.5 21.3 17.95 21.7 18.1 22.85 18.65 25.7 18.8 28.2 18.9 29.65 19.95 31.5 21.25 33.55 21 34.75 20.9 37.55 20.25 44.2 19.55 47.25 18.7 50.25 17.95 51.55 16.6 54.8 13.15 49.9 9.35 Z"/>
</g>

<g id="Layer0_0_MEMBER_0_MEMBER_1_FILL">
<path fill="#2F2720" stroke="none" d="
M 61.6 216.65
Q 62.65 217.15 65.75 216.75 67.25 216.5 71.15 216.15 72.25 216 73.05 215.6 73.75 215.3 73.75 215.2 73.75 214.3 73.65 214.1
L 73.4 213.35 61.2 213.25
Q 60.8 213.3 60.55 213.65 60.45 213.85 60.4 214
L 60.4 215.35 60.65 215.85
Q 61 216.35 61.6 216.65 Z"/>
</g>

<g id="Layer0_0_MEMBER_0_MEMBER_2_FILL">
<path fill="#D5A856" stroke="none" d="
M 61.9 215.55
Q 62.65 215.8 64.4 215.8 67.05 215.85 70.65 215.3 72.15 215.1 72.95 214.65 73.55 214.3 73.55 214
L 73.55 212.45
Q 73.55 212.3 67.45 211.25
L 65.4 212.1
Q 61.9 212.85 61.75 212.9 60.65 213.45 60.9 214.45 61.1 215.25 61.9 215.55 Z"/>
</g>

<g id="Layer0_0_MEMBER_0_MEMBER_3_MEMBER_0_MEMBER_0_FILL">
<path fill="url(#Gradient_1)" stroke="none" d="
M 60.1 217.45
Q 60.1 217.65 60.35 217.8 60.95 218.1 61.5 217.85 61.65 217.75 61.75 217.5
L 62.15 210.25 60.55 210.15 60.1 217.45 Z"/>
</g>

<g id="Layer0_0_MEMBER_0_MEMBER_3_MEMBER_0_MEMBER_1_FILL">
<path fill="#949093" stroke="none" d="
M 60.55 210.15
Q 60.5 210.35 60.75 210.5 61.25 210.85 61.9 210.55 62.15 210.45 62.15 210.25 62.15 210.05 61.9 209.9 61.3 209.5 60.8 209.85 60.55 209.95 60.55 210.15 Z"/>
</g>

<g id="Layer0_0_MEMBER_0_MEMBER_3_MEMBER_0_MEMBER_2_FILL">
<path fill="#212228" stroke="none" d="
M 64.35 220.95
L 60.85 217.85 59.05 216.55
Q 58.4 215.8 57.45 215.3 56.9 215 55.2 215.1
L 50.75 215.6 42.25 219.45 38.4 220.75 37.15 220.8 34.8 223.3 35.5 224.6 36.95 225.75
Q 38.55 226.9 39.45 227 40.95 227.25 41.45 227.7
L 42.3 228.2
Q 43.2 228.8 43.5 229.4 44.05 230.4 49.9 230.2
L 58.95 229 65.6 227 67.7 225.65
Q 68.75 224.45 68.45 223.95 68.25 223.65 67.3 223
L 64.35 220.95 Z"/>
</g>

<g id="Layer0_0_MEMBER_0_MEMBER_3_MEMBER_0_MEMBER_3_FILL">
<path fill="#323338" stroke="none" d="
M 42.1 222.25
Q 42.9 222.2 45.25 222.4 43.85 222.95 42.95 224.05
L 44.1 224.6
Q 43.65 225.35 42.9 226.2
L 44.2 226.35
Q 44.6 226.35 44.95 226.55 45.35 226.75 45.35 227.15 45.35 227.65 44.6 227.95
L 45.55 228.85
Q 45.3 228.95 45.2 229.25
L 49.3 229.35 49.2 228.85 51.1 228.55
Q 52.15 228.45 52.6 227.9 52.85 227.65 52.95 226.6 54.3 226.45 55.55 226 56.4 225.65 56.2 225.15 56.15 225 55.85 224.8
L 54.5 223.9
Q 55.6 223 56.35 222 54.15 222.6 54.4 221.65 54.5 221.35 55.05 221.15 55.55 220.9 55.5 220.55
L 55.4 220.35
Q 55.65 219.85 55.45 219.7 54.7 219.85 53.8 220.25 53.85 220.15 53.7 219.95 53.55 219.7 53.6 219.6
L 53.75 219.5 54.2 219.35
Q 54.45 219.25 54.5 219.05
L 54.5 218.6
Q 54.5 218.3 54.75 218.3
L 54.1 218.25 55.55 218
Q 55.95 217.9 56 217.8 56.25 217.55 56.15 217
L 56.05 217 54.9 217.2 55.4 217.2
Q 54.05 217.3 53.55 216.8 53.35 216.5 53.4 216.3 53.65 216.1 53.75 216
L 54.15 215.85
Q 53.15 215.65 51.75 215.65 51.5 215.65 49.85 216.15 49 216.45 48.95 216.85 48.9 217 48.85 217.25 48.8 217.4 48.5 217.5
L 45.9 218.65
Q 45.45 218.8 45.7 219.05 44.2 219.25 43.55 219.6
L 42.95 219.85
Q 42.8 219.9 41.95 219.9 40.5 219.8 39.6 220.55 39.15 220.9 38.35 221.75
L 38.65 222.05
Q 38.2 222.25 37.5 222.65
L 37.25 222.85
Q 37.1 223.25 37.6 223.45 37.85 223.5 38.35 223.3 40.9 222.35 42.1 222.25 Z"/>
</g>

<g id="Layer0_0_MEMBER_0_MEMBER_3_MEMBER_1_FILL">
<path fill="url(#Gradient_2)" stroke="none" d="
M 59.4 209.5
Q 59.35 209.95 59.9 210.35 60.45 210.7 61.3 210.75 62.1 210.8 62.7 210.5 63.3 210.15 63.35 209.7
L 63.6 204.85 59.65 204.65 59.4 209.5 Z"/>
</g>

<g id="Layer0_0_MEMBER_0_MEMBER_3_MEMBER_2_FILL">
<path fill="#949093" stroke="none" d="
M 59.65 204.65
Q 59.65 205.1 60.2 205.45 60.75 205.8 61.6 205.85 62.4 205.9 62.95 205.6 63.55 205.3 63.6 204.85 63.6 204.4 63.05 204 62.5 203.65 61.7 203.6 60.9 203.55 60.3 203.85 59.7 204.15 59.65 204.65 Z"/>
</g>

<g id="Layer0_0_MEMBER_0_MEMBER_4_FILL">
<path fill="#2F2720" stroke="none" d="
M 86.7 222.05
L 86.5 221.9 79.55 226.2 78.7 227.55 78.85 229.2
Q 79.05 229.6 80.65 230.25 81.45 230.55 82.95 230.35 84.4 230.15 85.05 229.7 85.65 229.3 86.1 227.85 86.5 226.65 86.5 225.85 86.5 225.35 86.8 224.4
L 87.05 223.55
Q 87.05 222.85 86.95 222.5 86.9 222.25 86.7 222.05 Z"/>
</g>

<g id="Layer0_0_MEMBER_0_MEMBER_5_FILL">
<path fill="#D5A856" stroke="none" d="
M 86.65 220.9
Q 86.65 220.75 84.05 220.95
L 81.4 221.15 80.6 223.4
Q 80.6 223.55 79.8 225.55 79.05 227.4 79.1 227.7 79.25 229 81.75 229.1 83.3 229.15 84.35 228.75 85.35 228.35 85.6 227.75 86.1 226.55 86.35 224.3 86.8 223.05 86.8 222.7
L 86.65 220.9 Z"/>
</g>

<g id="Layer0_0_MEMBER_0_MEMBER_6_FILL">
<path fill="#2C5494" stroke="none" d="
M 67.4 183.3
Q 66.75 185.6 66.55 187.3 65.65 194.25 65.6 195.85 65.5 197.3 66.85 212.15 67 212.55 68.05 213.1 69.3 213.75 70.45 213.8 71.25 213.85 72.25 213.5 73.1 213.25 73.7 212.85
L 73.85 206.65
Q 73.9 204.7 73.7 202.75 73.55 201.25 73.55 201.1 73.8 199.05 73.95 197.35
L 74.2 191.35
Q 74.8 189.55 75.2 187.6 75.95 183.65 74.75 182.75 72.5 180.95 71.35 180.2 69.3 178.8 68.75 179.7 68.15 180.65 67.4 183.3 Z"/>
</g>

<g id="Layer0_0_MEMBER_0_MEMBER_7_FILL">
<path fill="#123070" stroke="none" d="
M 0 3.1
L 1.6 4.25
Q 1.95 9.2 1.8 10.95 1.75 11.95 2.3 17 2.35 18 2.35 20.25 2.4 22.35 2.75 23.6 3.6 23.35 4.2 22.95
L 4.35 16.75
Q 4.4 13.55 4.05 11.2 4.3 9.15 4.45 7.45
L 4.7 1.95 2.8 0 1.65 2.35 0 3.1 Z"/>
</g>

<g id="Layer0_0_MEMBER_0_MEMBER_8_FILL">
<path fill="#3761A1" stroke="none" d="
M 544.4 499.1
Q 536.35 506.45 533.2 513.1 530.75 518 531.45 534.45 531.8 543.2 533.2 557.2 533.55 563.15 538.45 574.35 541.25 580.65 545.8 591.15 548.95 600.25 564.7 618.1 566.1 619.85 569.95 642.95 573.1 663.6 574.5 675.5 575.9 689.15 594.8 784.35 595.85 786.1 600.75 788.55 607.75 792.4 616.5 791.7 621.4 791.35 626.65 789.25 631.2 787.5 634 784.7 636.45 782.25 636.1 780.85 637.15 718.9 637.5 693.35 637.5 679 635.4 655.2 632.95 631.75 632.95 627.2 632.95 620.9 638.9 589.4 645.55 556.15 645.9 547.4 646.25 536.2 644.85 522.9
L 643.1 511.7 626.3 506.45
Q 572.05 489.65 561.9 490 553.85 490.35 544.4 499.1 Z"/>
</g>

<g id="Layer0_0_MEMBER_0_MEMBER_9_FILL">
<path fill="#17377A" stroke="none" d="
M 643.1 511.7
L 626.3 506.45 631.2 527.1
Q 635.75 555.1 633.3 564.2 631.2 571.2 627.7 590.8 624.2 610.05 623.5 619.15 623.15 625.1 625.95 650.65 629.1 678.3 629.1 687.75 629.1 692.65 628.05 730.8 626.65 768.95 626.65 789.25 631.2 787.5 634 784.7 636.45 782.25 636.1 780.85 637.15 718.9 637.5 693.35 637.5 679 635.4 655.2 632.95 631.75 632.95 627.2 632.95 620.9 638.9 589.4 645.55 556.15 645.9 547.4 646.6 529.55 643.1 511.7 Z"/>
</g>

<g id="Layer0_0_MEMBER_0_MEMBER_10_FILL">
<path fill="#FBC7AC" stroke="none" d="
M 64.75 160.35
L 63.95 159.8 60.95 165.25
Q 60.75 165.85 61.15 166.9 61.65 168.1 62.6 168.7 63.4 169.1 63.7 169.1 64 169.15 64.25 169 64.55 168.8 64.65 168.7
L 64.85 168.5
Q 65.2 168.05 67.95 163.5 68.4 162.7 64.75 160.35 Z"/>
</g>

<g id="Layer0_0_MEMBER_0_MEMBER_11_MEMBER_0_FILL">
<path fill="url(#Gradient_3)" stroke="none" d="
M 65 185.75
L 60.35 185.5 59.3 204.55
Q 59.3 205.1 59.95 205.55 60.6 205.95 61.55 206 62.55 206.05 63.2 205.7 63.95 205.4 63.95 204.8
L 65 185.75 Z"/>
</g>

<g id="Layer0_0_MEMBER_0_MEMBER_12_MEMBER_0_FILL">
<path fill="#B4B5A5" stroke="none" d="
M 57.95 183.4
L 58 183.6
Q 59.6 187.15 63.25 187.55
L 63.9 187.6
Q 66.6 187.6 67.95 185.45 69.1 183.65 68.05 182.05 67.05 180.4 61.6 177.95 58.75 176.35 57.45 177.55 56.55 178.35 56.85 180.05 57.05 181.25 57.95 183.4
M 60 182.5
Q 59.05 180.2 59.05 179.35 59.55 179.45 60.55 179.95
L 60.65 180
Q 65.4 182.1 66.15 183.25 66.4 183.65 66.05 184.25 65.25 185.45 63.5 185.3 61 185 60.15 182.75
L 60 182.5 Z"/>
</g>

<g id="Layer0_0_MEMBER_0_MEMBER_13_FILL">
<path fill="#FBC7AC" stroke="none" d="
M 64.85 168.5
Q 64.85 168.35 64.25 167.75 63.6 167.05 63.4 166.65
L 62.6 165.6
Q 62.25 165.1 61.5 165.1
L 60.95 165.25
Q 60.4 165.8 59.75 168.9 59.55 170.1 59.3 173.15 59.1 175.95 59 176.2 58.85 176.75 57.9 177.25 57.75 177.5 57.65 178.3 57.55 179 57.55 179.25
L 57.95 180.95
Q 57.95 181.2 58.3 181.2
L 58.5 181.55
Q 58.7 181.8 58.9 181.7
L 59.85 182.3
Q 60.4 182.45 60.35 182
L 60.5 182 60.7 181.95
Q 60.95 181.9 60.85 181.25 61.1 180.7 61.15 180.25 61.2 179.95 61.65 179.2
L 62.1 178.5 62.15 178.45
Q 62.25 178.4 62.45 178.5 62.7 178.65 63.3 179.45 63.85 179.15 63.8 178.95
L 63.3 177.9 63.15 177.75 63 177.55 62.7 177.25 62.65 176.95 62.55 175.55
Q 62.6 175.05 63.85 171.65 65 169 64.85 168.5 Z"/>
</g>

<g id="Layer0_0_MEMBER_0_MEMBER_14_FILL">
<path fill="#F5A480" stroke="none" d="
M 3.65 2.85
L 4.45 3.5 2.5 6.85 1.2 5.95
Q 1.25 6.05 1.95 8.05 2 8.1 1.75 8.75 1.55 9.35 0.85 10.9 0.3 12.35 0.25 12.95 -0.1 15.3 0 15.75
L 0.7 16.6 0.6 15.2
Q 0.65 14.7 1.9 11.3 3.05 8.65 2.9 8.15 3.25 7.7 6 3.15 6.45 2.35 2.8 0
L 1.85 0.55
Q 3.1 2.4 3.65 2.85 Z"/>
</g>

<g id="Layer0_0_MEMBER_0_MEMBER_15_FILL">
<path fill="#FD8839" stroke="none" d="
M 66.1 154.45
Q 65.4 155.7 63.05 159.8 63.1 159.9 64.1 161.4 64.6 162.15 65.85 162.85 66.5 163.25 68.05 163.7 70.65 156.1 70.85 154.35 71.15 152.45 71 151.15 70.85 149.3 69.9 149.85 68.9 150.4 67.7 151.95 66.7 153.25 66.1 154.45 Z"/>
</g>

<g id="Layer0_0_MEMBER_0_MEMBER_16_FILL">
<path fill="#F6562A" stroke="none" d="
M 596.2 274.05
L 590.6 272.3
Q 551.05 278.95 546.85 278.25 542.65 277.9 533.9 278.95 523.05 280.35 517.45 282.8 512.55 288.05 506.6 303.1 501 317.45 498.55 329.35 496.45 339.85 497.15 357.35 497.85 373.8 499.6 378.35 502.05 384.3 503.45 411.25
L 508 474.6
Q 508.7 481.25 502.05 498.4 501.7 499.45 504.85 504.35 508 509.6 509.4 510.3
L 514.65 515.55
Q 527.95 528.85 529.35 529.55 532.15 531.3 537.4 532.7 562.95 541.8 594.45 536.55 615.8 533.4 630.5 527.1
L 631.2 527.1
Q 643.1 522.2 642.05 517.3
L 641 496.3
Q 641 493.5 642.4 490
L 642.75 474.6 642.4 472.15
Q 642.4 469.35 636.8 457.45 635.05 453.6 635.75 444.15 636.8 433.65 636.8 429.45
L 640.3 393.4 640.65 392.35 642.4 374.5
Q 645.9 343 646.25 337.4 648.35 317.45 638.9 306.6 634.7 302.05 611.25 283.15 603.55 276.85 596.2 274.05 Z"/>
</g>

<g id="Layer0_0_MEMBER_0_MEMBER_17_MEMBER_0_FILL">
<path fill="#3761A1" stroke="none" d="
M 510.45 389.55
L 507.3 394.8
Q 505.9 397.95 506.95 407.75 506.95 410.9 505.55 411.25
L 503.45 411.25 502.05 411.6 501.35 413 500.3 419.3 500.3 446.25 503.45 469
Q 503.9724609375 471.8080078125 504.3 474.35 505.6623046875 485.551953125 503.1 492.1 501 496.3 500.65 498.75 500.65 502.95 504.5 508.55
L 512.2 518.7 517.45 523.6
Q 523.75 529.2 534.95 534.1
L 540.2 536.55
Q 547.9 540.05 551.75 540.75 557 541.8 567.15 541.8 569.95 541.8 580.1 541.8 588.15 542.15 593.05 541.45 601.8 540.05 612.3 536.55
L 636.45 527.8
Q 640.3 526.4 641.7 524.3 642.05 522.9 643.8 517.3 644.85 512.4 643.45 502.6
L 642.75 474.6
Q 642.75 467.95 641.7 461.65 641.2779296875 458.864453125 640.9 456.25 638.284375 437.1572265625 638.9 427 639.25 425.95 637.15 425.95
L 634 426.65 610.55 428.75
Q 602.15 429.8 595.5 429.1
L 588.5 427.7
Q 585.35 426.3 583.95 424.2 582.2 416.15 580.1 411.25 576.25 401.8 562.6 401.8 557.08125 401.8 548.85 399.7 548.209765625 399.5275390625 547.55 399.35 538.98203125 396.8421875 535.25 395.8 532.78203125 395.15 532.5 395.15
L 520.6 392
Q 513.95 389.55 511.5 389.55
L 510.45 389.55 Z"/>
</g>

<g id="Layer0_0_MEMBER_0_MEMBER_17_MEMBER_1_FILL">
<path fill="#4577C6" stroke="none" d="
M 77.25 169.7
Q 77.3 169.1 73.95 168.35 70.6 167.6 70.45 167.9 70.35 168.2 70.5 170.4 70.65 172.6 70.85 172.75
L 73.45 175.2
Q 77.15 174.1 77.3 173.9 77.6 173.55 77.25 169.7 Z"/>
</g>

<g id="Layer0_0_MEMBER_0_MEMBER_17_MEMBER_2_FILL">
<path fill="#6799E8" stroke="none" d="
M 76.45 168.9
Q 70.6 167.5 70.25 167.7 70.15 167.75 70.35 169.1 70.35 169.45 73.5 171.15 77.2 170.95 77.35 170.75 77.55 170.4 77.45 169.55 77.4 169.35 76.95 169.1
L 76.45 168.9 Z"/>
</g>

<g id="Layer0_0_MEMBER_0_MEMBER_17_MEMBER_3_FILL">
<path fill="#4577C6" stroke="none" d="
M 560.15 264.25
L 545.8 271.25
Q 529.35 281.4 519.2 298.55 509.05 315.7 510.1 359.45 510.8 381.15 513.6 399.7
L 526.9 402.15
Q 524.8 381.85 524.45 359.1 523.75 313.25 533.2 299.6 541.25 288.4 556.65 278.95
L 570.65 271.95 560.15 264.25 Z"/>
</g>

<g id="Layer0_0_MEMBER_0_MEMBER_17_MEMBER_4_FILL">
<path fill="#FD8839" stroke="none" d="
M 70.1 164.95
Q 69.5 164.85 69.5 165.45 69.6 166 70.15 166.1 70.4 166.15 70.6 166 70.75 165.85 70.7 165.6 70.7 165.05 70.1 164.95 Z"/>
</g>

<g id="Layer0_0_MEMBER_0_MEMBER_17_MEMBER_5_FILL">
<path fill="#C5FD4B" stroke="none" d="
M 523.05 279.3
Q 519.9 282.45 519.2 283.5 514.65 289.1 510.8 297.85 504.15 313.25 497.5 358.4
L 496.8 394.1
Q 496.45 433.65 497.85 453.25
L 499.25 466.55 500.3 469.35
Q 504.5 478.1 520.6 480.55 536.7 483 536.7 477.4 537.05 471.1 533.9 334.6 531.1 329.35 529 324.1 525.15 314.65 528.3 301.7 531.45 288.75 539.5 282.1
L 546.85 278.25 543.7 272.3 523.05 279.3 Z"/>
</g>

<g id="Layer0_0_MEMBER_0_MEMBER_17_MEMBER_6_MEMBER_0_FILL">
<path fill="#9AC2D5" stroke="none" d="
M 541.25 274.05
L 540.9 273.35 523.05 279.3
Q 515.35 291.2 513.6 307.3
L 513.25 311.85
Q 512.55 325.5 515 333.2 515.35 335.65 517.45 339.15
L 518.85 341.25
Q 519.55 342.65 519.55 346.5
L 520.6 462.7
Q 507.3 460.25 497.85 453.25
L 499.25 466.55
Q 512.9 473.55 524.1 474.25
L 524.8 474.25
Q 527.95 474.25 529.7 471.8
L 530.4 470.4 530.05 341.95
Q 530.05 339.15 528.3 336 525.5 331.8 525.15 330.75 523.05 325.15 523.75 312.55
L 524.1 308.7
Q 525.85 293.65 533.2 282.8 537.4 276.5 541.25 274.05 Z"/>
</g>

<g id="Layer0_0_MEMBER_0_MEMBER_17_MEMBER_7_FILL">
<path fill="#4577C6" stroke="none" d="
M 76.05 168.25
L 78 168.55
Q 77.9 165.95 78 163 78.3 157.05 79.65 155.1 81 153.25 83.4 151.9 84 151.6 84.8 151.55 85.2 151.55 85.45 151.6
L 84.7 150.85 84.15 150.45
Q 83.85 150.4 83.5 150.35 82.7 150.35 82.25 150.55 79.3 152.15 77.65 154.95 76.2 157.4 75.95 163.05 75.85 165.9 76.05 168.25 Z"/>
</g>

<g id="Layer0_0_MEMBER_0_MEMBER_17_MEMBER_8_FILL">
<path fill="#FD8839" stroke="none" d="
M 76.85 166.5
Q 76.2 166.5 76.3 167 76.3 167.25 76.5 167.45 76.65 167.65 76.9 167.65 77.5 167.75 77.5 167.15 77.4 166.6 76.85 166.5 Z"/>
</g>

<g id="Layer0_0_MEMBER_0_MEMBER_17_MEMBER_9_FILL">
<path fill="#C5FD4B" stroke="none" d="
M 600.75 278.95
L 603.2 282.45
Q 604.95 287.35 600.75 292.25 597.6 296.8 585.35 303.1 571.35 310.45 566.45 315 556.65 323.75 553.5 329.7 548.25 338.45 547.9 352.45 547.2 367.85 549.3 408.8 551.4 449.4 553.5 463.05 555.25 475.3 570.3 476.7 582.2 478.1 600.75 472.5 611.25 469.35 628.4 465.5 640.3 462 641 455.7
L 636.45 385
Q 635.75 382.2 644.5 308.35
L 600.4 274.05
Q 589.2 266.7 593.75 271.95 596.2 274.75 600.75 278.95 Z"/>
</g>

<g id="Layer0_0_MEMBER_0_MEMBER_17_MEMBER_10_MEMBER_0_FILL">
<path fill="#9AC2D5" stroke="none" d="
M 618.25 287
L 609.85 280.7 608.45 280.7
Q 608.45 295.75 592.35 303.45 575.55 311.15 565.75 323.75 555.95 336.7 554.55 352.1 552.8 371.35 561.2 454.3
L 561.55 459.2 566.8 458.85
Q 606 456.05 640.3 436.1
L 639.6 424.2
Q 611.25 442.05 571 448 563.65 369.25 565.05 353.15 566.1 340.55 574.5 330.05 582.55 319.55 596.55 312.9 614.05 304.85 618.25 287 Z"/>
</g>

<g id="Layer0_0_MEMBER_0_MEMBER_18_FILL">
<path fill="#549039" stroke="none" d="
M 524.45 474.95
L 521.25 480.65
Q 536.7 482.8798828125 536.7 477.4 536.77578125 476.0341796875 536.7 468.55 531.2017578125 471.336328125 524.45 474.95
M 570.3 476.7
Q 582.2 478.1 600.75 472.5 611.25 469.35 628.4 465.5 639.7783203125 462.153515625 640.9 456.25 639.3701171875 445.0068359375 638.95 436.85 605.2326171875 456.1048828125 566.8 458.85
L 561.55 459.2 561.45 457.65
Q 559.1318359375 458.9408203125 557 459.55 555.4431640625 459.974609375 553.15 460.85 553.34296875 462.0287109375 553.5 463.05 555.25 475.3 570.3 476.7
M 636.45 385
Q 636.1685546875 383.8744140625 637.4 371.25 613.6453125 357.4484375 596.2 378.7
L 593.75 408.45 583.95 405.3 588.85 429.8 589.2 438.9 573.8 447.3
Q 573.651953125 447.458984375 573.5 447.6 610.4462890625 441.7603515625 637.15 425.7
L 638.3 413.95 636.45 385 Z"/>

<path fill="#17377A" stroke="none" d="
M 600.75 472.5
Q 582.2 478.1 570.3 476.7 555.25 475.3 553.5 463.05 553.34296875 462.0287109375 553.15 460.85 547.3134765625 463.1533203125 536.7 468.55 536.77578125 476.0341796875 536.7 477.4 536.7 482.8798828125 521.25 480.65
L 517.45 487.55 516.05 497.35 524.1 504 512.25 518.75 517.45 523.6
Q 523.75 529.2 534.95 534.1
L 535 534.1 554.2 522.9 630.85 495.6
Q 631.55 503.3 628.75 507.15 627 509.6 627.7 513.8 628.4 515.9 629.8 520.1 630.5 522.55 630.5 527.1
L 631.2 529.9 636.45 527.8
Q 640.3 526.4 641.7 524.3 642.05 522.9 643.8 517.3 644.85 512.4 643.45 502.6
L 642.75 474.6
Q 642.75 467.95 641.7 461.65 641.2779296875 458.864453125 640.9 456.25 639.7783203125 462.153515625 628.4 465.5 611.25 469.35 600.75 472.5 Z"/>

<path fill="#123070" stroke="none" d="
M 531.45 536.2
L 535 534.1 534.95 534.1
Q 523.75 529.2 517.45 523.6
L 512.25 518.75 501.35 532.35 531.45 536.2 Z"/>

<path fill="#416FA2" stroke="none" d="
M 637.15 425.95
L 637.15 425.7
Q 610.4462890625 441.7603515625 573.5 447.6 566.96484375 454.578125 561.45 457.65
L 561.55 459.2 566.8 458.85
Q 605.2326171875 456.1048828125 638.95 436.85 638.646875 431.1759765625 638.9 427 639.25 425.95 637.15 425.95 Z"/>

<path fill="#6D92C2" stroke="none" d="
M 642.4 374.5
Q 639.8734375 372.6953125 637.4 371.25 636.1685546875 383.8744140625 636.45 385
L 638.3 413.95 640.3 393.4 640.65 392.35 642.4 374.5 Z"/>
</g>

<g id="Layer0_0_MEMBER_0_MEMBER_19_FILL">
<path fill="#FBC7AC" stroke="none" d="
M 84.05 164.85
L 83.8 164.85
Q 83.5 164.85 82.45 166.45 81.9 167.25 81.4 168.05
L 81.4 168.25
Q 81.4 169.6 81.55 170.8
L 81.8 172.05
Q 82.5 175.1 83.3 175.6 83.8 175.95 84.8 176.05 85.85 176.25 86.05 176.05 86.2 175.9 86.6 174.8 87.05 173.55 87.3 172.35 88.1 168.25 88 167.2 88 166.65 87 166 85.6 165.1 84.05 164.85 Z"/>
</g>

<g id="Layer0_0_MEMBER_0_MEMBER_20_FILL">
<path fill="#FBC7AC" stroke="none" d="
M 73.45 180.75
Q 76.65 180.15 78.7 179.55 81.65 178.7 83.8 177.65 85.8 176.7 86.05 176.05 86.3 175.5 86.05 174.95 85.85 174.2 85.15 173.45 84.65 172.9 83.4 172.4
L 82.25 172 81.95 172 81.8 172.05 78.5 174.15
Q 77.4 174.85 73.1 176.8 68.9 178.7 68.5 178.75 67.35 178.5 66.75 178.4 65.1 178.15 64.35 178.45 63.55 178.75 62.45 179.65 62.25 179.8 62 180.35 61.8 180.85 61.8 181
L 62 182.35 62.05 182.5
Q 62.1 182.75 62.45 182.95
L 63.15 183.6
Q 63.35 183.75 63.6 183.8
L 64.15 184.15
Q 64.45 184.3 64.45 183.95
L 64.75 184.15 65 184.2 65.35 184.1
Q 65.5 184.05 65.5 183.45
L 66.4 182.2 67.15 182
Q 67.3 182 67.8 182.15 68.4 182.35 68.75 182.35 69.75 182.35 70.85 181.45 71.15 181.2 73.45 180.75 Z"/>
</g>

<g id="Layer0_0_MEMBER_0_MEMBER_21_FILL">
<path fill="#F5A480" stroke="none" d="
M 0.75 0.5
L 0.35 2.35
Q 0.5 3.2 0.45 3.2 0.35 3.25 0 2.9
L 0.1 3.3
Q 0.1 3.55 0.45 3.55
L 0.65 3.9
Q 0.85 4.15 1.05 4.05
L 2 4.65
Q 2.55 4.8 2.5 4.35
L 2.65 4.35 2.05 3.2 2.65 0 1.9 2.75 2 3.95 1.75 4.25 1.4 3.95 1.1 2.3 1.35 0.55 0.9 2.45 1.15 3.7
Q 0.7 3.8 0.65 3.3
L 0.55 2.1 0.75 0.5 Z"/>
</g>

<g id="Layer0_0_MEMBER_0_MEMBER_22_FILL">
<path fill="#F5A480" stroke="none" d="
M 20.85 3.65
Q 20.95 3.7 21 4.3 21.05 4.85 20.95 5.1 20.35 9 19.9 10.3
L 19.7 10.75 18.65 11.4
Q 16.2 12.75 13.7 13.55 9.95 14.8 4.35 16.3 3.45 17.3 3.15 17.35 2.7 17.5 1.65 17.25 0.15 16.75 0 17.9
L 0.25 17.55 1 17.35
Q 1.15 17.35 1.65 17.5 2.25 17.7 2.6 17.7 3.6 17.7 4.7 16.8 5 16.55 7.3 16.1 10.5 15.5 12.55 14.9 15.5 14.05 17.65 13 19.65 12.05 19.9 11.4 20.05 11.25 20.45 10.15 20.9 8.9 21.15 7.7 21.95 3.6 21.85 2.55 21.85 2 20.85 1.35
L 17.4 0
Q 16.6 0 15.9 0.4 14.55 1.3 15.25 3.6
L 15.4 4
Q 20.65 3.55 20.85 3.65 Z"/>
</g>

<g id="Layer0_0_MEMBER_0_MEMBER_23_FILL">
<path fill="#F5A480" stroke="none" d="
M 0.4 2.95
Q 0.3 3 0 2.8
L 0.05 2.95
Q 0.1 3.2 0.45 3.4
L 1.15 4.05
Q 1.35 4.2 1.6 4.25
L 2.15 4.6
Q 2.45 4.75 2.45 4.4
L 2.55 3.35 3.35 1.95 2.35 3.2 2.25 4.2
Q 1.8 4.2 1.75 4.1
L 1.5 3.85 1.6 2.15 3 0.65 1.5 1.95 1.2 3.6
Q 0.9 3.55 0.8 3.2 0.7 3 0.75 1.95 0.8 1.45 0.85 1
L 2.35 0 0.6 0.95
Q 0.55 2.95 0.4 2.95 Z"/>
</g>

<g id="Layer0_0_MEMBER_0_MEMBER_24_FILL">
<path fill="#FD8839" stroke="none" d="
M 83.95 152.65
Q 82.75 153.25 82.3 153.7 81 155 81.05 157.2
L 81.2 164.05
Q 81.35 165 81.3 168.75
L 82.85 168.2
Q 84.5 167.65 85.2 167.65 86.3 167.65 88.1 167.95
L 89.15 168.1 88.9 161.7
Q 88.85 158.55 88.75 157.4 88.6 155.6 87.8 154.35 86.95 153.05 85.6 152.7 84.5 152.35 83.95 152.65 Z"/>
</g>

<g id="Layer0_0_MEMBER_0_MEMBER_25_FILL">
<path fill="#FBC7AC" stroke="none" d="
M 589.2 222.95
Q 578 214.55 569.25 206.15 563.65 201.25 554.2 206.15
L 546.15 212.1 546.85 278.25 544.75 287.35
Q 543.35 297.15 544.75 300.3 550.7 312.9 573.8 305.2 587.1 301 597.6 292.25 606.35 284.9 605.3 282.8 602.5 280.35 599.7 277.9 594.1 272.65 591.65 267.05 589.2 261.45 589.2 257.95 589.55 253.75 589.2 250.25
L 588.85 245 589.2 222.95 Z"/>
</g>

<g id="Layer0_0_MEMBER_0_MEMBER_26_FILL">
<path fill="#F04720" stroke="none" d="
M 533.2 299.6
Q 531.78046875 301.6505859375 530.6 304.4 532.5125 308.35 537.05 308.35 539.85 308.35 545.8 307.3 547.9013671875 307.2125 550.25 306.25 546.6470703125 304.3173828125 544.75 300.3 543.355078125 297.1615234375 544.75 287.4 537.7802734375 293.2275390625 533.2 299.6 Z"/>

<path fill="#F9D3BF" stroke="none" d="
M 546.85 278.25
L 546.85 277.25
Q 546.6203125 277.320703125 546.4 277.4
L 546.85 278.25 Z"/>

<path fill="#17377A" stroke="none" d="
M 544.75 287.4
Q 544.744921875 287.3857421875 544.75 287.35
L 546.85 278.25 539.5 282.1
Q 532.158203125 288.1650390625 528.9 299.45 529.35 301.3111328125 530.05 303.1 530.2875 303.8125 530.6 304.4 531.78046875 301.6505859375 533.2 299.6 537.7802734375 293.2275390625 544.75 287.4 Z"/>

<path fill="#416FA2" stroke="none" d="
M 528.65 285.95
Q 527.9943359375 289.359765625 528 292.6 529.862890625 288.004296875 532.45 283.95
L 528.65 285.95 Z"/>

<path fill="#549039" stroke="none" d="
M 546.4 277.4
Q 543.925 278.296875 541.25 279.3
L 532.45 283.95
Q 529.862890625 288.004296875 528 292.6 528.0650390625 296.1337890625 528.9 299.45 532.158203125 288.1650390625 539.5 282.1
L 546.85 278.25 546.4 277.4 Z"/>

<path fill="#F5A480" stroke="none" d="
M 577.65 272.65
Q 577.65 269.2357421875 569 270.7 561.3208984375 272.0630859375 546.85 277.25
L 546.85 278.25 544.75 287.35
Q 544.744921875 287.3857421875 544.75 287.4 543.355078125 297.1615234375 544.75 300.3 546.6470703125 304.3173828125 550.25 306.25 557.439453125 303.4478515625 567.15 292.95 572.75 287 577.65 272.65 Z"/>
</g>

<g id="Layer0_0_MEMBER_0_MEMBER_27_FILL">
<path fill="#FBC7AC" stroke="none" d="
M 69.4 140.2
Q 69.15 141.15 69.25 142.3 69.45 144.65 69.8 145.55 70.05 146.1 71.1 149 71.35 149.45 72.5 151.6 73 152.1 74.25 152 75 151.95 76.45 150.7 77.6 149.7 78.25 148.8 79.1 147.65 78.85 146.75 78.85 146.65 79.45 145.55 80.05 144.45 80 143.85 79.9 142.1 79.3 140.4 78.35 137.7 76.55 137.55 74.8 137.4 72.05 138.45
L 69.65 139.5 69.4 140.2 Z"/>
</g>

<g id="Layer0_0_MEMBER_0_MEMBER_28_FILL">
<path fill="#F5A480" stroke="none" d="
M 0 1.3
Q 0.55 3.1 1 3.9 1.45 4.75 3.1 5.4 2.7 5.05 2.3 4.7 1.5 3.95 1.15 3.15 0.8 2.35 0.8 1.85 0.85 1.25 0.8 0.75
L 0.75 0
Q 0 0.15 0 1.3 Z"/>
</g>

<g id="Layer0_0_MEMBER_0_MEMBER_29_FILL">
<path fill="#492728" stroke="none" d="
M 76.65 134.85
Q 75.35 134.55 73.4 135.2 71.55 135.8 70.65 136.75 69.9 137.6 69.4 139.05 69 140.15 68.95 140.85 68.9 141.5 69.3 142.8 69.4 142.65 69.45 142.5 69.65 142.25 69.75 142.3 69.85 142.35 70.45 142.65 71.2 143 72.15 143 72.95 143 74.2 142.6 75.25 142.3 75.45 142.4
L 76.25 143.55 76.45 144.3 77.35 144.6
Q 77.85 145.1 77.85 145.35
L 77.9 146.2 78.5 145.5
Q 78.35 144.95 78.35 144.45 78.35 143.35 79.1 143.35 80.35 143.4 79.6 145.2
L 80.15 145.35
Q 80.75 144.8 80.75 142.45 80.75 140.15 80.7 139.5 80.6 138.25 80.2 137.35 79.45 135.5 76.65 134.85 Z"/>
</g>

<g id="Layer0_0_MEMBER_0_MEMBER_30_FILL">
<path fill="#FED6C1" stroke="none" d="
M 78.9 143.65
Q 78.75 143.95 78.65 144.2 78.5 144.55 78.8 145.8 78.8 146.3 79.45 146.2 79.75 146.15 80.15 145.35 80.55 144.5 80.65 143.85 80.8 142.55 79.7 142.95 79.25 143.1 78.9 143.65 Z"/>
</g>

<g id="Layer0_0_MEMBER_0_MEMBER_31_FILL">
<path fill="#FED6C1" stroke="none" d="
M 75.7 143.2
L 75 142.65
Q 73.7 143.05 73 143.1
L 71.1 143.2 71.25 144.85
Q 71.25 145.55 71.35 146
L 73.55 145.8
Q 75.35 145.8 75.4 145.85
L 75.85 146.5
Q 74.75 147.9 74.3 148
L 73.7 148.05 74.1 148.65
Q 74.6 149.2 75.1 149.15 75.65 149.1 76.3 148.45 76.95 147.8 77.2 147.25 77.4 146.8 77.35 146.2 77.3 145.65 77.3 145.55 76.25 144.45 76.15 144.35
L 75.7 143.2 Z"/>
</g>

<g id="Layer0_0_MEMBER_0_MEMBER_32_FILL">
<path fill="#FED6C1" stroke="none" d="
M 72 147.7
L 71.85 145.5 71.6 145.7
Q 71.3 145.9 71.35 146
L 71.4 148.95
Q 71.4 149.2 72 149 72.25 148.95 72.5 148.7 72.75 148.45 72.75 148.35 72.75 148.25 72 147.7 Z"/>
</g>
</defs>

<g transform="matrix( 7, 0, 0, 7, 382.35,697.55) ">
<use xlink:href="#Layer0_0_MEMBER_0_MEMBER_0_FILL"/>
</g>

<g transform="matrix( 7, 0, 0, 7, 28.15,-766.15) ">
<use xlink:href="#Layer0_0_MEMBER_0_MEMBER_1_FILL"/>
</g>

<g transform="matrix( 7, 0, 0, 7, 28.15,-766.15) ">
<use xlink:href="#Layer0_0_MEMBER_0_MEMBER_2_FILL"/>
</g>

<g transform="matrix( 7, 0, 0, 7, 28.15,-766.15) ">
<use xlink:href="#Layer0_0_MEMBER_0_MEMBER_3_MEMBER_0_MEMBER_0_FILL"/>
</g>

<g transform="matrix( 7, 0, 0, 7, 28.15,-766.15) ">
<use xlink:href="#Layer0_0_MEMBER_0_MEMBER_3_MEMBER_0_MEMBER_1_FILL"/>
</g>

<g transform="matrix( 7, 0, 0, 7, 28.15,-766.15) ">
<use xlink:href="#Layer0_0_MEMBER_0_MEMBER_3_MEMBER_0_MEMBER_2_FILL"/>
</g>

<g transform="matrix( 7, 0, 0, 7, 28.15,-766.15) ">
<use xlink:href="#Layer0_0_MEMBER_0_MEMBER_3_MEMBER_0_MEMBER_3_FILL"/>
</g>

<g transform="matrix( 7, 0, 0, 7, 28.15,-766.15) ">
<use xlink:href="#Layer0_0_MEMBER_0_MEMBER_3_MEMBER_1_FILL"/>
</g>

<g transform="matrix( 7, 0, 0, 7, 28.15,-766.15) ">
<use xlink:href="#Layer0_0_MEMBER_0_MEMBER_3_MEMBER_2_FILL"/>
</g>

<g transform="matrix( 7, 0, 0, 7, 28.15,-766.15) ">
<use xlink:href="#Layer0_0_MEMBER_0_MEMBER_4_FILL"/>
</g>

<g transform="matrix( 7, 0, 0, 7, 28.15,-766.15) ">
<use xlink:href="#Layer0_0_MEMBER_0_MEMBER_5_FILL"/>
</g>

<g transform="matrix( 7, 0, 0, 7, 28.15,-766.15) ">
<use xlink:href="#Layer0_0_MEMBER_0_MEMBER_6_FILL"/>
</g>

<g transform="matrix( 7, 0, 0, 7, 514.65,563.15) ">
<use xlink:href="#Layer0_0_MEMBER_0_MEMBER_7_FILL"/>
</g>

<g transform="matrix( 1, 0, 0, 1, 0,0) ">
<use xlink:href="#Layer0_0_MEMBER_0_MEMBER_8_FILL"/>
</g>

<g transform="matrix( 1, 0, 0, 1, 0,0) ">
<use xlink:href="#Layer0_0_MEMBER_0_MEMBER_9_FILL"/>
</g>

<g transform="matrix( 7, 0, 0, 7, 28.15,-766.15) ">
<use xlink:href="#Layer0_0_MEMBER_0_MEMBER_10_FILL"/>
</g>

<g transform="matrix( 7, 0, 0, 7, 28.15,-766.15) ">
<use xlink:href="#Layer0_0_MEMBER_0_MEMBER_11_MEMBER_0_FILL"/>
</g>

<g transform="matrix( 7, 0, 0, 7, 28.15,-766.15) ">
<use xlink:href="#Layer0_0_MEMBER_0_MEMBER_12_MEMBER_0_FILL"/>
</g>

<g transform="matrix( 7, 0, 0, 7, 28.15,-766.15) ">
<use xlink:href="#Layer0_0_MEMBER_0_MEMBER_13_FILL"/>
</g>

<g transform="matrix( 7, 0, 0, 7, 461.8,356.3) ">
<use xlink:href="#Layer0_0_MEMBER_0_MEMBER_14_FILL"/>
</g>

<g transform="matrix( 7, 0, 0, 7, 28.15,-766.15) ">
<use xlink:href="#Layer0_0_MEMBER_0_MEMBER_15_FILL"/>
</g>

<g transform="matrix( 1, 0, 0, 1, 0,0) ">
<use xlink:href="#Layer0_0_MEMBER_0_MEMBER_16_FILL"/>
</g>

<g transform="matrix( 1, 0, 0, 1, 0,0) ">
<use xlink:href="#Layer0_0_MEMBER_0_MEMBER_17_MEMBER_0_FILL"/>
</g>

<g transform="matrix( 7, 0, 0, 7, 28.15,-766.15) ">
<use xlink:href="#Layer0_0_MEMBER_0_MEMBER_17_MEMBER_1_FILL"/>
</g>

<g transform="matrix( 7, 0, 0, 7, 28.15,-766.15) ">
<use xlink:href="#Layer0_0_MEMBER_0_MEMBER_17_MEMBER_2_FILL"/>
</g>

<g transform="matrix( 1, 0, 0, 1, 0,0) ">
<use xlink:href="#Layer0_0_MEMBER_0_MEMBER_17_MEMBER_3_FILL"/>
</g>

<g transform="matrix( 7, 0, 0, 7, 28.15,-766.15) ">
<use xlink:href="#Layer0_0_MEMBER_0_MEMBER_17_MEMBER_4_FILL"/>
</g>

<g transform="matrix( 1, 0, 0, 1, 0,0) ">
<use xlink:href="#Layer0_0_MEMBER_0_MEMBER_17_MEMBER_5_FILL"/>
</g>

<g transform="matrix( 1, 0, 0, 1, 0,0) ">
<use xlink:href="#Layer0_0_MEMBER_0_MEMBER_17_MEMBER_6_MEMBER_0_FILL"/>
</g>

<g transform="matrix( 7, 0, 0, 7, 28.15,-766.15) ">
<use xlink:href="#Layer0_0_MEMBER_0_MEMBER_17_MEMBER_7_FILL"/>
</g>

<g transform="matrix( 7, 0, 0, 7, 28.15,-766.15) ">
<use xlink:href="#Layer0_0_MEMBER_0_MEMBER_17_MEMBER_8_FILL"/>
</g>

<g transform="matrix( 1, 0, 0, 1, 0,0) ">
<use xlink:href="#Layer0_0_MEMBER_0_MEMBER_17_MEMBER_9_FILL"/>
</g>

<g transform="matrix( 1, 0, 0, 1, 0,0) ">
<use xlink:href="#Layer0_0_MEMBER_0_MEMBER_17_MEMBER_10_MEMBER_0_FILL"/>
</g>

<g transform="matrix( 1, 0, 0, 1, 0,0) ">
<use xlink:href="#Layer0_0_MEMBER_0_MEMBER_18_FILL"/>
</g>

<g transform="matrix( 7, 0, 0, 7, 28.15,-766.15) ">
<use xlink:href="#Layer0_0_MEMBER_0_MEMBER_19_FILL"/>
</g>

<g transform="matrix( 7, 0, 0, 7, 28.15,-766.15) ">
<use xlink:href="#Layer0_0_MEMBER_0_MEMBER_20_FILL"/>
</g>

<g transform="matrix( 7, 0, 0, 7, 433.1,477.4) ">
<use xlink:href="#Layer0_0_MEMBER_0_MEMBER_21_FILL"/>
</g>

<g transform="matrix( 7, 0, 0, 7, 491.2,386.4) ">
<use xlink:href="#Layer0_0_MEMBER_0_MEMBER_22_FILL"/>
</g>

<g transform="matrix( 7, 0, 0, 7, 462.15,490.7) ">
<use xlink:href="#Layer0_0_MEMBER_0_MEMBER_23_FILL"/>
</g>

<g transform="matrix( 7, 0, 0, 7, 28.15,-766.15) ">
<use xlink:href="#Layer0_0_MEMBER_0_MEMBER_24_FILL"/>
</g>

<g transform="matrix( 1, 0, 0, 1, 0,0) ">
<use xlink:href="#Layer0_0_MEMBER_0_MEMBER_25_FILL"/>
</g>

<g transform="matrix( 1, 0, 0, 1, 0,0) ">
<use xlink:href="#Layer0_0_MEMBER_0_MEMBER_26_FILL"/>
</g>

<g transform="matrix( 7, 0, 0, 7, 28.15,-766.15) ">
<use xlink:href="#Layer0_0_MEMBER_0_MEMBER_27_FILL"/>
</g>

<g transform="matrix( 7, 0, 0, 7, 583.6,245) ">
<use xlink:href="#Layer0_0_MEMBER_0_MEMBER_28_FILL"/>
</g>

<g transform="matrix( 7, 0, 0, 7, 28.15,-766.15) ">
<use xlink:href="#Layer0_0_MEMBER_0_MEMBER_29_FILL"/>
</g>

<g transform="matrix( 7, 0, 0, 7, 28.15,-766.15) ">
<use xlink:href="#Layer0_0_MEMBER_0_MEMBER_30_FILL"/>
</g>

<g transform="matrix( 7, 0, 0, 7, 28.15,-766.15) ">
<use xlink:href="#Layer0_0_MEMBER_0_MEMBER_31_FILL"/>
</g>

<g transform="matrix( 7, 0, 0, 7, 28.15,-766.15) ">
<use xlink:href="#Layer0_0_MEMBER_0_MEMBER_32_FILL"/>
</g>
</svg>
