
<svg xmlns="http://www.w3.org/2000/svg" version="1.1" xmlns:xlink="http://www.w3.org/1999/xlink" preserveAspectRatio="none" x="0px" y="0px" width="1024px" height="1024px" viewBox="0 0 1024 1024">
<defs>
<g id="Layer0_0_MEMBER_0_FILL">
<path fill="#CCC0BC" stroke="none" d="
M 42.7 11.5
L 44.85 3.1 7.05 0
Q 5.5 -0.1 3.3 0.95 1.05 2.05 0.4 3.35 -0.4 4.9 0.45 6.4 1.25 7.95 3 8.1
L 42.7 11.5 Z"/>
</g>

<g id="Layer0_0_MEMBER_1_FILL">
<path fill="#898989" stroke="none" d="
M 98.15 334.75
Q 100.6 336.2 104.05 336.3 107.5 336.35 109.95 335 112.4 333.65 112.4 331.7 112.4 329.75 110 328.3 107.55 326.85 104.1 326.8 100.65 326.7 98.2 328.05 95.75 329.4 95.75 331.35 95.75 333.3 98.15 334.75 Z"/>
</g>

<g id="Layer0_0_MEMBER_2_MEMBER_0_FILL">
<path fill="#CCC0BC" stroke="none" d="
M 43.2 15.1
Q 45.95 15.1 47.7 14.5 42.85 8.2 40.35 7.15 38.45 6.35 26 3.3 13.45 0.2 11.25 0 9.3 -0.15 5.7 1.8 3.2 3.2 0.7 5.05 -0.75 6.15 0.7 6.85 2 7.5 2.95 7.25 3.15 7.2 7.85 10 12.8 12.95 14.85 13.1
L 23.6 13.75 23.9 12.45
Q 35.9 13.45 36.65 13.4 36.85 13.35 39.15 14.2 41.6 15.1 43.2 15.1 Z"/>
</g>

<g id="Layer0_0_MEMBER_2_MEMBER_1_MEMBER_0_FILL">
<path fill="#2F2720" stroke="none" d="
M 79.65 321.1
L 80.35 321.45
Q 81.2 321.85 82.05 321.95 82.9 322.05 84.5 322.95 85.3 323.4 86.5 324.15 88.05 325 89.5 324.8 90.5 324.65 90.55 323.75 90.8 322.8 90.25 322.15 89.9 321.8 86.3 320.85
L 80.05 319.35 79.85 319.65
Q 79.65 320 79.65 320.3 79.6 320.7 79.65 321.1 Z"/>
</g>

<g id="Layer0_0_MEMBER_2_MEMBER_1_MEMBER_1_FILL">
<path fill="#D5A856" stroke="none" d="
M 80.4 317.55
L 80.15 317.9
Q 79.85 318.3 79.7 318.85 79.55 319.4 79.75 320.1 79.95 320.7 80.15 320.75 80.45 320.85 84.3 322.1 87.3 323.9 88.65 324.1 90.45 324.35 90.3 322.6 90.25 321.5 88.95 320.55
L 86 318.85 80.4 317.55 Z"/>
</g>

<g id="Layer0_0_MEMBER_2_MEMBER_1_MEMBER_2_FILL">
<path fill="#3761A1" stroke="none" d="
M 80.8 296
Q 76.75 294.2 75.5 293.5 74.75 293.1 74.3 292.7 72.45 291.2 72.2 291.15 72 291.1 70.85 291.95 69.5 292.95 68.6 294.2 65.8 297.95 68.85 301.35
L 68.9 301.55 69.7 303.35
Q 70.45 304.35 71.25 304.35 72.8 304.45 76.05 304.8 79.65 305.2 80.45 305.45
L 81.15 306.5 81.15 307.75
Q 81.15 308.2 80.95 309.15
L 80.8 312.4
Q 80.7 312.65 80.05 315.1 79.9 315.35 79.65 316.05 79.4 316.8 79.4 317.1 79.45 317.5 79.4 319.45
L 79.7 319.75
Q 80.2 320.1 80.9 320.3 81.8 320.55 83.1 320.5
L 84.4 320.45
Q 86.25 320.2 86.65 319.45 87.8 313.65 88.55 311.2 89.1 309.5 89.45 306.2 89.75 303.2 89.6 302.1 89.55 301.65 89.25 300.95 88.45 299.5 86.4 298.55
L 80.8 296 Z"/>
</g>

<g id="Layer0_0_MEMBER_2_MEMBER_1_MEMBER_3_FILL">
<path fill="#17377A" stroke="none" d="
M 14.2 3.85
Q 14.45 3.7 13.9 2.7 12.75 1.95 12.4 1.85
L 8.7 0.9
Q 5.7 1.1 4.65 1.1 3.75 1.1 0 0 0.7 1.55 1.85 1.6 3.4 1.7 6.65 2.05 10.25 2.45 11.05 2.7
L 11.75 3.75 11.75 5
Q 11.75 5.45 11.55 6.4
L 11.4 9.65
Q 11.3 9.9 10.65 12.35 10.5 12.6 10.25 13.3 10 14.05 10 14.35 10.05 14.75 10 16.7
L 10.3 17
Q 10.8 17.35 11.5 17.55 11.9 14.85 12.05 14.65
L 12.95 13.25 12.3 12.4
Q 12.3 10.7 12.45 9.8 12.55 9.35 12.8 8.75 13 8.3 12.95 8.1
L 12.95 4.75
Q 13 4.3 14.2 3.85 Z"/>
</g>

<g id="Layer0_0_MEMBER_2_MEMBER_1_MEMBER_4_FILL">
<path fill="#17377A" stroke="none" d="
M 2.55 5.6
L 2.2 8.05 0.9 13.35
Q 0.65 14.05 0 19.5 1.85 19.25 2.25 18.5 3.4 12.7 4.15 10.25 4.7 8.55 5.05 5.25 5.35 2.25 5.2 1.15 5.15 0.7 4.85 0 4.75 1.05 4.45 1.35 3.75 2.05 2.3 2.05 1.8 4.25 1.85 4.35
L 2.55 5.6 Z"/>
</g>

<g id="Layer0_0_MEMBER_2_MEMBER_1_MEMBER_5_FILL">
<path fill="#17377A" stroke="none" d="
M 14.3 9.4
Q 14.3 9.15 14.75 8.45 15.25 7.75 14.75 7.4 14.15 7 13.55 6.55 12.35 5.6 12.3 5.35 12.3 5.25 12.95 3.3 8.9 1.5 7.65 0.8 6.9 0.4 6.45 0
L 4.75 1 4.45 2.2 9.8 4.7 7.35 5.85 3.1 6.6 0 9.95 2.15 10.75 4.5 10.85 5.35 11.4 12.95 12.55
Q 13.3 12.25 13.3 12 13.3 11.7 14.3 10.9 14.5 10.65 14.3 9.4 Z"/>
</g>

<g id="Layer0_0_MEMBER_2_MEMBER_1_MEMBER_6_FILL">
<path fill="#2F2720" stroke="none" d="
M 51.45 308.85
L 51.15 308.1
Q 50.85 308.05 50.55 308.05 50 308 49.9 308.1 49.05 308.95 49.05 309.25 49.05 309.55 49.4 311.3
L 50.4 314.95
Q 50.4 315.75 50.45 315.9 50.6 316.55 51.25 316.9 52.25 317.45 52.45 315.95
L 51.45 308.85 Z"/>
</g>

<g id="Layer0_0_MEMBER_2_MEMBER_1_MEMBER_7_FILL">
<path fill="#D5A856" stroke="none" d="
M 51.45 308.55
Q 51.4 308.5 50.9 308.5 50.4 308.5 50.05 308.7 49.4 309.15 49.4 310.5 49.4 311 50.05 313.1 50.05 313.15 50.55 314.65 51.1 316.2 51.05 316.45 51 316.8 51.55 317.2 52.15 317.6 52.65 317.35 53.2 317.1 53.8 316.2 54.35 315.45 54.35 315.2 54.4 314.95 53.25 311.85
L 52.65 309.6 51.7 308.7 51.45 308.55 Z"/>
</g>

<g id="Layer0_0_MEMBER_2_MEMBER_1_MEMBER_8_FILL">
<path fill="#3761A1" stroke="none" d="
M 72.05 307.65
Q 72.45 305.35 72.55 304.75
L 72.75 303
Q 72.9 301.05 71.95 299.8
L 70.95 298.95
Q 66.15 297.55 62.8 298.95 60.25 300.1 58.9 302.7 57.85 304.8 58.15 306.2 58.7 308.9 60.9 313.8
L 61 314.05
Q 61.6 315.3 62.2 318.3 62.55 319.95 63 322.15
L 63.15 322.5
Q 63.65 323.3 64.8 323.7 65.65 324 66.9 323.85 68.25 323.7 69.2 323.1 69.9 322.7 70.05 322.3 70.15 321.95 70.75 317.65 71.4 312.95 71.6 310.85 71.75 309.35 72.05 307.65 Z"/>
</g>

<g id="Layer0_0_MEMBER_2_MEMBER_1_MEMBER_9_FILL">
<path fill="#3761A1" stroke="none" d="
M 52.65 309.15
Q 52.5 309.15 52.3 309.25 51.85 309.35 51.45 309.6 50.55 310.25 50.4 311.5 50.3 313 50.9 314.85
L 51.25 315.55 53.25 316.95
Q 55.45 318.4 56.3 318.85 57.05 319.2 59.1 320.75 61.25 322.4 61.85 322.7 63.1 323.45 64.8 323.7
L 67.3 322.25 65.15 315.6 59 313 54.95 309.6 52.65 309.15 Z"/>
</g>

<g id="Layer0_0_MEMBER_2_MEMBER_1_MEMBER_10_FILL">
<path fill="#17377A" stroke="none" d="
M 7.45 0
Q 6.4 2.1 6.7 3.5 7.25 6.2 9.45 11.1
L 7.55 10.3 3.5 6.9 1.2 6.45
Q 0.6 6.5 0 6.9
L 2.45 8 7.55 11.15 9.5 13.2 11.3 16.65 12.15 19.15 13.05 18.8 12.7 16.65 10.35 8.8
Q 9.3 5 8.65 1.2
L 7.45 0 Z"/>
</g>

<g id="Layer0_0_MEMBER_2_MEMBER_1_MEMBER_11_FILL">
<path fill="#17377A" stroke="none" d="
M 21.65 0
L 21.05 1.5
Q 20.25 6.6 19.95 7.75 19.6 8.95 18.65 13.6 18.55 13.95 17.9 15.8 17.3 17.5 16.85 17.85 16.6 18.05 15.45 18.05
L 13.8 17.85
Q 12.9 17.55 12.1 17.4
L 11.6 17.35
Q 11.15 17.3 10.05 16 8.7 14.4 8.55 14.25 8.1 13.85 6.45 12.95
L 4.9 12.1
Q 2.8 11.45 2.4 11.25
L 0 10.1 0.35 10.8
Q 4 13.4 5.4 14.1 6.15 14.45 8.2 16 10.35 17.65 10.95 17.95 12.2 18.7 13.9 18.95 14.75 19.25 16 19.1 17.35 18.95 18.3 18.35 19 17.95 19.15 17.55 19.25 17.2 19.85 12.9 20.5 8.2 20.7 6.1 20.95 3.55 21.65 0 Z"/>
</g>

<g id="Layer0_0_MEMBER_2_MEMBER_1_MEMBER_12_FILL">
<path fill="#181818" stroke="none" d="
M 75.05 277.1
L 77.35 269.2 76.5 268.5 75.45 268.7 73.6 275.2 75.05 277.1 Z"/>
</g>

<g id="Layer0_0_MEMBER_2_MEMBER_1_MEMBER_13_FILL">
<path fill="#FBC7AC" stroke="none" d="
M 79.15 284.05
Q 78.85 283.4 78.2 282.5
L 76.95 280.8
Q 75.95 280.9 74.95 281.05 72.9 281.3 72.75 281.45 72.6 281.5 73.2 282.75 74.05 284.55 74.05 284.6 74.05 284.9 74.8 286.4 75.5 287.7 75.8 288.15 76.1 288.65 76.4 288.95 76.65 289.2 76.8 289.25 77.05 289.4 77.4 289.35 78.3 289.2 80.5 287.8
L 80.65 287.65
Q 80.65 287.55 80.1 286.25 79.5 284.8 79.15 284.05 Z"/>
</g>

<g id="Layer0_0_MEMBER_2_MEMBER_1_MEMBER_14_FILL">
<path fill="#FBC7AC" stroke="none" d="
M 76.7 288.15
Q 76.4 288.55 76.4 288.95 76.4 289.45 76.5 292.8
L 76.7 296.55
Q 79.75 295.9 80.05 295.15 80.7 293.6 80.75 292 80.9 288.55 80.65 287.65 80.55 287.45 80.4 287.35 79.6 286.65 77.6 287.5
L 77.3 287.65
Q 76.9 287.85 76.7 288.15 Z"/>
</g>

<g id="Layer0_0_MEMBER_2_MEMBER_1_MEMBER_15_FILL">
<path fill="#F5A480" stroke="none" d="
M 7.45 5.3
Q 7.45 5.2 6.9 3.9 6.3 2.45 5.95 1.7 5.65 1.05 5 0.15 5.9 1.8 6.9 4.25 7.1 4.4 7.2 5
L 7.3 5.45
Q 7.45 6.35 7.3 7.25
L 6.85 12.4 4 13.15
Q 3.6 9.5 3.7 8.85 3.7 8.7 3.6 6.9
L 3.5 5.8
Q 2.8 4.7 2 3.15 1.2 1.55 1.4 0 0.95 -0.05 0 0.4 0.85 2.2 0.85 2.25 0.85 2.55 1.6 4.05 2.3 5.35 2.6 5.8 2.9 6.3 3.2 6.6 3.2 7.1 3.3 10.45
L 3.5 14.2
Q 6.55 13.55 6.85 12.8 7.5 11.25 7.55 9.65 7.7 6.2 7.45 5.3 Z"/>
</g>

<g id="Layer0_0_MEMBER_2_MEMBER_1_MEMBER_16_FILL">
<path fill="#492728" stroke="none" d="
M 83.7 291.4
Q 83.3 290.5 82.15 290 81.45 289.7 80.75 290
L 80.2 290.35 76.5 300.25 76.8 300.8
Q 77.25 301.35 77.7 301.5 79.15 302.05 79.9 301.25
L 83.7 291.4 Z"/>
</g>

<g id="Layer0_0_MEMBER_2_MEMBER_1_MEMBER_17_FILL">
<path fill="#FD8839" stroke="none" d="
M 77.5 280.9
Q 75.65 277.8 74.75 275.7 74.15 274.4 73.65 273.95
L 73.25 273.8 71.7 277.6 73.5 284.3
Q 75.15 283.9 76.1 282.9 76.7 282.3 77.15 281.55
L 77.5 280.9 Z"/>
</g>

<g id="Layer0_0_MEMBER_2_MEMBER_1_MEMBER_18_FILL">
<path fill="#F6562A" stroke="none" d="
M 58 293.8
Q 57.9 294.35 57.4 295.75
L 56.85 297.6
Q 56.7 298.05 56.65 301.25 56.65 302.85 56.65 304.35
L 57.4 305.7 57.95 306.1
Q 61.5 308.1 64.9 307.3 67.95 306.5 70.25 303.1
L 71.15 301.5
Q 71.15 299.8 71.45 298.1
L 73.2 291.15
Q 73.9 288.35 74.55 284.4 75.2 280.05 74.3 276.5
L 73.25 273.8
Q 71.3 273.35 69.3 272.9 65.3 272.05 64.9 272.25 64.35 272.5 62.6 274.05 60.6 275.75 59.8 276.75 58.85 277.9 57.9 279.55 56.85 281.25 56.85 281.75 56.85 281.9 57.2 285.35 58.15 293.45 58 293.8 Z"/>
</g>

<g id="Layer0_0_MEMBER_2_MEMBER_1_MEMBER_19_FILL">
<path fill="#3761A1" stroke="none" d="
M 57.8 279.65
L 59.9 279.7
Q 62.4 280.05 64.2 281.6 65.9 283.1 67.05 288.5 67.65 291.15 67.85 293.55
L 69.8 295.2
Q 69.8 292.55 69.3 289.35 68.3 283 65.9 280.4 64.6 279 61.6 278.35
L 58.8 278 57.8 279.65 Z"/>
</g>

<g id="Layer0_0_MEMBER_2_MEMBER_1_MEMBER_20_FILL">
<path fill="#3761A1" stroke="none" d="
M 467.35 332.75
Q 475.4 336.95 478.55 346.4 479.25 348.85 481.7 363.2 483.8 373.7 477.15 459.8
L 483.8 456.3
Q 492.2 405.2 491.85 369.85 491.5 348.15 482.75 330.65
L 474.35 317.7 465.95 322.6
Q 459.3 328.55 467.35 332.75 Z"/>
</g>

<g id="Layer0_0_MEMBER_2_MEMBER_1_MEMBER_21_FILL">
<path fill="#3761A1" stroke="none" d="
M 489.05 437.05
Q 490.1 424.1 491.5 423.4 464.2 434.6 452.3 443 441.1 450.7 438.65 454.2 436.55 457.35 435.5 462.95 434.8 466.45 433.4 472.4 432.7 475.2 430.95 481.5 429.55 487.1 427.8 489.9 424.65 495.5 418 499.7 411.35 504.25 405.4 504.95 392.45 506.35 378.1 492
L 374.25 483.95 370.4 496.9
Q 369.35 500.05 369 522.45 369 533.65 369 544.15
L 374.25 553.6 378.1 556.4
Q 402.95 570.4 426.75 564.8 448.1 559.2 464.2 535.4
L 470.5 524.2
Q 470.5 512.3 472.6 500.4
L 478.9 476.6
Q 482.05 463.65 482.4 462.25 485.9 456.3 486.6 452.45
L 489.05 437.05 Z"/>
</g>

<g id="Layer0_0_MEMBER_2_MEMBER_1_MEMBER_22_FILL">
<path fill="#FD8839" stroke="none" d="
M 73.8 287.5
Q 73.7 286.9 73.1 287.05 72.45 287.3 72.55 287.9 72.6 288.15 72.8 288.25 73.05 288.4 73.25 288.3 73.9 288.1 73.8 287.5 Z"/>
</g>

<g id="Layer0_0_MEMBER_2_MEMBER_1_MEMBER_23_FILL">
<path fill="#FD8839" stroke="none" d="
M 69 289.85
Q 69 289.65 68.8 289.5 68.55 289.4 68.3 289.45 68.1 289.55 67.9 289.8 67.75 290.05 67.8 290.25 67.8 290.5 68 290.65 68.25 290.8 68.5 290.7 69.1 290.4 69 289.85 Z"/>
</g>

<g id="Layer0_0_MEMBER_2_MEMBER_1_MEMBER_24_FILL">
<path fill="#333C45" stroke="none" d="
M 430.95 481.5
Q 429.55 487.1 427.8 489.9 424.65 495.5 418 499.7 411.35 504.25 405.4 504.95 392.45 506.35 378.1 492
L 374.3 484.05 370.4 496.9
Q 369.126953125 500.4646484375 368.95 523.85
L 369 544.15 374.25 553.95 378.1 556.4
Q 376.7 549.05 376.35 534.7 376.35 521.4 376.35 521.05
L 391.05 530.5 409.25 532.25
Q 411 532.25 453.7 533.65 456.5 533.65 464.2 535.4 468.4 529.1 470.5 524.55 470.5 524.375 470.5 524.2 470.530078125 512.130078125 472.6 500.4
L 478.9 476.6 453.35 480.1 432.75 474.95
Q 432.0533203125 477.5279296875 430.95 481.5 Z"/>

<path fill="#E43513" stroke="none" d="
M 427.8 489.9
Q 429.55 487.1 430.95 481.5 432.0533203125 477.5279296875 432.75 474.95
L 421.15 472.05 419.05 442.65
Q 385.45 420.25 372.85 411.15 379.5 467.85 378.45 470.3
L 374.3 484.05 378.1 492
Q 392.45 506.35 405.4 504.95 411.35 504.25 418 499.7 424.65 495.5 427.8 489.9 Z"/>
</g>

<g id="Layer0_0_MEMBER_2_MEMBER_1_MEMBER_25_FILL">
<path fill="#FBC7AC" stroke="none" d="
M 466.3 330.65
L 453 308.6 426.75 308.6
Q 423.95 325.05 422.9 327.15 422.2 328.2 419.05 330.65 416.25 333.1 415.9 334.15 414.15 345.35 429.2 353.4 439.7 358.65 444.6 360.4 448.45 361.45 452.65 361.1 457.9 360.4 466.3 330.65 Z"/>
</g>

<g id="Layer0_0_MEMBER_2_MEMBER_1_MEMBER_26_FILL">
<path fill="#FBC7AC" stroke="none" d="
M 62.05 295.7
L 63.35 294.75 63.35 291.05
Q 63.4 290.55 62.4 290.3 62.85 290.9 62.95 291.35 63.05 292.25 62.95 294.55
L 61.45 296.1
Q 61.65 296.1 62.05 295.7 Z"/>
</g>

<g id="Layer0_0_MEMBER_2_MEMBER_1_MEMBER_27_FILL">
<path fill="#F04720" stroke="none" d="
M 478.55 346.4
Q 475.4 336.95 467.35 332.75 466.5755859375 332.34609375 465.95 331.9 457.786328125 360.415234375 452.65 361.1 450.0150390625 361.31953125 447.5 361 451.0388671875 364.0619140625 460.35 369.85 464.2 372.65 470.5 370.55 476.0837890625 368.579296875 480.75 357.65 479.1021484375 348.3326171875 478.55 346.4 Z"/>

<path fill="#F7702A" stroke="none" d="
M 484.15 332.75
Q 483.919140625 332.6681640625 483.7 332.6 486.7677734375 339.169140625 488.65 346.3
L 489.4 345.35
Q 492.2 335.55 484.15 332.75 Z"/>

<path fill="#355078" stroke="none" d="
M 483.7 332.6
Q 475.241796875 329.6826171875 465.75 329.7
L 466.3 330.65
Q 466.11796875 331.29453125 465.95 331.9 466.5755859375 332.34609375 467.35 332.75 475.4 336.95 478.55 346.4 479.1021484375 348.3326171875 480.75 357.65 481.0484375 356.95390625 481.35 356.2
L 488.65 346.3
Q 486.7677734375 339.169140625 483.7 332.6 Z"/>

<path fill="#F5A480" stroke="none" d="
M 463.6 329.75
Q 462.1744140625 329.8271484375 460.7 329.95 442.5 331.7 438.3 345.35
L 445.65 359
Q 446.141796875 359.78671875 447.5 361 450.0150390625 361.31953125 452.65 361.1 457.786328125 360.415234375 465.95 331.9 466.11796875 331.29453125 466.3 330.65
L 465.75 329.7
Q 464.69453125 329.730078125 463.6 329.75 Z"/>
</g>

<g id="Layer0_0_MEMBER_2_MEMBER_1_MEMBER_28_FILL">
<path fill="#FBC7AC" stroke="none" d="
M 74.55 267.3
Q 72.75 267.3 70.75 267.3 66.85 267.3 66.15 267.45 65.1 267.7 64.85 271.75 64.8 273.35 65.7 274.25
L 66.25 275.4
Q 66.85 276.6 67.4 277 68 277.5 69.05 278 69.95 278.5 70.15 278.5 71.5 278.4 71.65 278.2
L 72.65 276.7 72.85 276.7
Q 73.5 276.5 73.6 276.35
L 73.6 275.3 73.85 274.45
Q 74.2 273.85 74.45 273.25 75 272.15 75.1 270.95 75.15 269.75 74.85 268.4
L 74.55 267.3 Z"/>
</g>

<g id="Layer0_0_MEMBER_2_MEMBER_1_MEMBER_29_FILL">
<path fill="#492728" stroke="none" d="
M 65.8 271.55
Q 66.3 271.9 66.55 272.2 66.95 272.65 66.95 273.65
L 67.4 274.15 68 273.2
Q 68.1 273.1 68.35 273.15 68.75 273.2 68.85 273.2 69.15 273.2 70 271.4 70.05 271.35 71.55 271.45 72.45 271.5 74.5 270.75
L 75.1 270.1
Q 75.45 269.85 75.35 268.25 75.3 266.8 74.4 265.3 73.35 263.55 71.8 263.1 70.15 262.65 68.2 263.05 66.35 263.45 65.6 264.35 64.95 265.2 64.5 266.9 64.1 268.5 64.2 269.45
L 64.6 272.35 65.25 271.35
Q 65.35 271.25 65.8 271.55 Z"/>
</g>

<g id="Layer0_0_MEMBER_2_MEMBER_1_MEMBER_30_FILL">
<path fill="#181818" stroke="none" d="
M 69.1 263.15
Q 67.95 263.1 66.95 263.45 66.35 263.65 65.9 264 65.7 264.2 65.6 264.35
L 67.75 264
Q 70.15 263.85 71.3 264.85 72.5 265.85 73.35 268.55 73.75 269.9 73.95 271.05
L 74.75 271.75
Q 75.5 272.15 75.1 270.7 74.35 267.75 74.1 267.05 73.35 265.05 72.05 264.15 70.75 263.25 69.1 263.15 Z"/>
</g>

<g id="Layer0_0_MEMBER_2_MEMBER_1_MEMBER_31_FILL">
<path fill="#292929" stroke="none" d="
M 68.2 272.95
L 68.2 272.4 66.45 271.95 64.4 271.05 64.5 271.7 65.25 272.1
Q 66.1 272.5 66.45 272.55
L 68.2 272.95 Z"/>
</g>

<g id="Layer0_0_MEMBER_2_MEMBER_1_MEMBER_32_FILL">
<path fill="#FED6C1" stroke="none" d="
M 66.45 273.85
L 66.45 272.6
Q 66.5 271.95 65.55 271.3 65.25 271.1 64.9 271.3 64.6 271.5 64.6 271.7 64.65 271.8 64.9 272.9 65.2 273.95 65.5 274 66 274.05 66.45 273.85 Z"/>
</g>

<g id="Layer0_0_MEMBER_2_MEMBER_1_MEMBER_33_FILL">
<path fill="#FED6C1" stroke="none" d="
M 74.15 272
Q 74.2 271.4 74.15 271.35 73.85 271.5 72.9 271.6 72.35 271.7 71.45 271.65 70.5 271.6 70.4 271.6 70.15 271.65 69.8 272.25 69.6 272.55 69.35 273.1 69.2 273.35 68.55 273.35 68.25 273.3 67.9 273.65 67.8 273.85 67.8 274.4 67.8 275 68.05 275.4 68.65 276.45 70 276.45 70.8 276.4 71.15 275.9 71.2 275.8 71.05 275.6
L 70.85 275.45
Q 69.55 275.2 69.35 274.8
L 69.05 273.8 69.8 273.7 70.3 273.8
Q 70.95 273.9 71.6 273.75 72.7 273.55 73.85 272.9 74.1 272.6 74.15 272 Z"/>
</g>

<g id="Layer0_0_MEMBER_2_MEMBER_1_MEMBER_34_FILL">
<path fill="#FED6C1" stroke="none" d="
M 73.25 274.05
L 72.85 274.95
Q 72.85 275.15 72.1 275.8 72.1 276 72.65 276.25 73.6 276.35 73.55 276.15
L 73.25 274.05 Z"/>
</g>

<g id="Layer0_0_MEMBER_2_MEMBER_1_MEMBER_35_FILL">
<path fill="#FED7C3" stroke="none" d="
M 63.35 296.3
Q 63.45 295.75 63.35 294.75
L 63.35 291.05
Q 63.4 290.55 62.4 290.3 60.95 289.95 57.75 290.2
L 56.8 290.3 57.45 292.45
Q 58.15 294.85 58.3 296 58.45 297.3 59.05 298.35 59.6 299.3 60.2 299.65 60.45 299.8 61.1 299.4 61.9 298.85 62.6 297.9 63.35 296.9 63.35 296.3 Z"/>
</g>

<g id="Layer0_0_MEMBER_2_MEMBER_1_MEMBER_36_FILL">
<path fill="#FED7C3" stroke="none" d="
M 82.1 296.55
L 82.1 296.05 81.05 295.75 81 295.75 80.55 295.5
Q 80.05 295.25 79.4 294.6
L 78.85 294 79.35 293.5 80.4 293.4
Q 79.4 292.7 79.15 292.6 78.9 292.4 78.75 292.35 78.5 292.25 78.2 292.35
L 75.5 293.5
Q 73 293.9 72 294.15 68.45 294.85 66.55 294.9 65.75 294.95 64.55 294.85 63.5 294.75 63.35 294.75 63 294.75 62.35 295.15 61.5 295.7 60.9 296.55 60.15 297.5 59.95 297.9 59.7 298.45 59.85 298.95 59.9 299.15 60.2 299.65 60.65 300.4 63.9 300.05 66.5 299.8 67.65 299.4
L 73.7 297.45
Q 74.1 297.35 74.8 297.55 75.2 297.6 75.7 297.9 76.1 298.2 76.25 298.35 77.1 299.2 77.85 299.2 78.3 299.2 79.45 298.75 80.6 298.3 80.65 298.15
L 81 297.3 81.5 296.95
Q 82.05 296.7 82.1 296.55 Z"/>
</g>

<g id="Layer0_0_MEMBER_2_MEMBER_1_MEMBER_37_FILL">
<path fill="#F8B192" stroke="none" d="
M 25.3 5.85
L 24.25 5.55 24.85 6.35 24.45 6.6 21.8 5.8 23.7 6.85 24 7.15
Q 24 7.5 23.5 7.55 23.15 7.55 22.45 7.3
L 21.8 7 21.35 7.05 22.25 8.5 21.4 8.7
Q 20.4 8.2 19.9 7.75 19.7 7.55 18.65 7.05 17.65 6.6 17.5 6.35 17.4 6.2 16.6 6.55 15.1 7.2 13.5 7.7 10.25 8.65 6.1 9.15 4.9 9.25 4.3 9.2 3.3 9 3.05 8.75 2.35 8.05 1.6 4.7 1.2 2.9 1 0.35
L 0.95 0 0 0.1
Q 1.25 3.95 1.5 5.8 1.65 7.1 2.25 8.15 2.8 9.1 3.4 9.45 3.85 10.2 7.1 9.85 9.7 9.6 10.85 9.2
L 16.9 7.25
Q 17.3 7.15 18 7.35 18.4 7.4 18.9 7.7 19.3 8 19.45 8.15 20.3 9 21.05 9 21.5 9 22.65 8.55 23.8 8.1 23.85 7.95
L 24.2 7.1 24.7 6.75
Q 25.25 6.5 25.3 6.35
L 25.3 5.85 Z"/>
</g>

<g id="Layer0_0_MEMBER_2_MEMBER_1_MEMBER_38_FILL">
<path fill="#FD8839" stroke="none" d="
M 56.65 291.15
Q 57.25 292.35 60.55 292.35 62.45 292.35 63.3 291.75
L 63.75 291.15
Q 64.1 285.85 62.8 283.45 61.95 281.85 59.75 281.1 57.8 280.45 57.1 280.95 56.55 281.35 56.25 282.3 55.9 283.25 55.95 284.3 56.4 290.7 56.65 291.15 Z"/>
</g>

<g id="Layer0_0_MEMBER_2_MEMBER_1_MEMBER_39_FILL">
<path fill="#FBC7AC" stroke="none" d="
M 82.35 296.7
L 82.1 296.05 81.7 296.65 81.5 296.8 81.35 297 81.15 297.4 81.3 297.85 80.65 297.95 80.6 297.95 78.85 297.4
Q 78.8 297.35 78.7 297.3 78.5 297.25 78.45 297.35 78.3 297.55 78.35 297.6
L 77.65 297.4 77.45 297.8 77 297.95 76.8 298.15 76.8 298.4 76.5 298.45 76.45 298.5
Q 76.45 298.65 76.9 299.4 77 299.6 77.2 299.75 77.45 300 77.6 299.95
L 78 299.85 79 300.1
Q 79.45 300.1 79.65 299.75 80.2 299.85 80.6 299.65 81.05 299.45 81 299.1
L 81.5 298.5
Q 82 298.35 82.15 298.05
L 82.25 297.7 82.3 297.6 82.35 296.7 Z"/>
</g>

<g id="Layer0_0_MEMBER_2_MEMBER_1_MEMBER_40_FILL">
<path fill="#F5A480" stroke="none" d="
M 5.8 0.75
L 5.55 1.05
Q 5.25 1.1 5.1 0.9
L 4.9 0.05 4.4 0.05 4.2 1 4.7 1.3 4.6 1.65 4.15 1.95 3.05 1.5 1.9 0.65 2.95 1.8 3.95 2.1 3.95 2.4 3.3 2.5 1 0.85 1.8 1.9 2.75 2.6
Q 2.6 2.8 2.35 2.8
L 1.7 2.7 0.35 1.2 0.35 1.45 1.15 2.6
Q 0.8 2.7 0.7 2.5
L 0.05 1.5 0 1.55
Q 0 1.7 0.45 2.45 0.55 2.65 0.75 2.8 1 3.05 1.15 3
L 1.55 2.9 2.55 3.15
Q 3 3.15 3.2 2.8 3.75 2.9 4.15 2.7 4.6 2.5 4.55 2.15
L 5.05 1.55
Q 5.55 1.4 5.7 1.1
L 5.8 0.75 Z"/>
</g>

<g id="Layer0_0_MEMBER_2_MEMBER_2_FILL">
<path fill="#292929" stroke="none" d="
M 75.05 277.1
L 77.35 269.2 71.2 272.5 71.2 279.55 75.05 277.1 Z"/>
</g>

<g id="Layer0_0_MEMBER_2_MEMBER_3_FILL">
<path fill="#181818" stroke="none" d="
M 76.35 271.55
L 76.1 271.65 72.25 273.75 72.2 274.75 72.25 275 75.85 273.05 76.35 271.55 Z"/>
</g>

<g id="Layer0_0_MEMBER_2_MEMBER_4_FILL">
<path fill="#6C542B" stroke="none" d="
M 76.1 271.65
L 72.1 273.75 72.2 274.75 75.65 272.9 76.1 271.65 Z"/>
</g>

<g id="Layer0_0_MEMBER_2_MEMBER_5_FILL">
<path fill="#181818" stroke="none" d="
M 71.2 279.55
L 71.2 272.5 68.05 271.85 67.45 272.7 67.95 276.45 69.3 278.6 71.2 279.55 Z"/>
</g>

<g id="Layer0_0_MEMBER_2_MEMBER_6_FILL">
<path fill="#4A3E3B" stroke="none" d="
M 83.7 291.4
Q 84 290.55 82.4 289.95 80.75 289.35 80.2 290.35
L 80.15 290.75
Q 80.2 291.25 80.85 291.6 81.7 292.05 82.5 292 83.3 291.95 83.7 291.4 Z"/>
</g>

<g id="Layer0_0_MEMBER_2_MEMBER_7_FILL">
<path fill="#716866" stroke="none" d="
M 81.5 290.55
L 81.9 291.15 82.55 290.7 83.25 288.4 88.2 289.95 88.75 289.4 88.5 288.5 82.55 287.25 81.5 290.55 Z"/>
</g>

<g id="Layer0_0_MEMBER_2_MEMBER_8_FILL">
<path fill="#4A3E3B" stroke="none" d="
M 88.9 289.4
L 88.5 288.5 87.8 289.25 88.2 289.95 88.9 289.4 Z"/>
</g>

<g id="Layer0_0_MEMBER_2_MEMBER_9_FILL">
<path fill="#147AE4" stroke="none" d="
M 88.35 288.7
L 87.8 289.25 88.1 289.75 90.35 291.05 92.65 292 94.85 292.3 95.65 292.1 94.7 291.6 96.45 291.8 95.5 291.15 94.4 289.95 90.95 288.7 88.35 288.7 Z"/>
</g>

<g id="Layer0_0_MEMBER_2_MEMBER_10_FILL">
<path fill="#58D7FD" stroke="none" d="
M 88.55 288.95
L 88.25 289.15 89.7 290.05 91.15 290.25 91.45 290.65 92 290.85 94 290.85 92.7 290.5 93.1 290.3 92.25 290.15
Q 91.3 289.45 90.75 289.25 90.4 289.1 89.45 289
L 88.55 288.95 Z"/>
</g>

<g id="Layer0_0_MEMBER_3_FILL">
<path fill="#515050" stroke="none" d="
M 110.95 305.6
L 105.9 305.15 97.2 305.45 97.2 331.4 97.25 331.4
Q 97.35 332.9 99.2 333.95 101.25 335.15 104.05 335.2 106.9 335.25 108.9 334.15 111.05 333.05 110.9 331.25
L 110.95 331.25 110.95 305.6 Z"/>
</g>

<g id="Layer0_0_MEMBER_4_FILL">
<path fill="#F5EDE2" stroke="none" d="
M 99.2 308.3
Q 101.25 309.45 104.05 309.55 106.9 309.6 108.9 308.5 110.9 307.4 110.95 305.75 110.95 304.15 108.95 302.95 106.95 301.75 104.1 301.7 101.25 301.65 99.25 302.75 97.25 303.85 97.2 305.45 97.2 307.1 99.2 308.3 Z"/>
</g>

<g id="Layer0_0_MEMBER_5_FILL">
<path fill="#6C6B6B" stroke="none" d="
M 95.75 306.6
Q 96 308.4 98.15 309.75 100.6 311.15 104.05 311.25 107.5 311.3 109.95 310 112.5 308.6 112.4 306.5
L 112.4 305.65 106.3 305.1 95.75 305.45 95.75 306.6 Z"/>
</g>

<g id="Layer0_0_MEMBER_6_FILL">
<path fill="#898989" stroke="none" d="
M 98.15 308.9
Q 100.6 310.3 104.05 310.4 107.5 310.45 109.95 309.15 112.4 307.8 112.4 305.85 112.4 303.9 110 302.45 107.55 301 104.1 300.9 100.65 300.85 98.2 302.2 95.75 303.5 95.75 305.5 95.75 307.45 98.15 308.9 Z"/>
</g>

<g id="Layer0_0_MEMBER_7_FILL">
<path fill="#515050" stroke="none" d="
M 105.9 278
L 97.2 278.3 97.2 305.3 97.25 305.3
Q 97.35 306.8 99.2 307.85 101.25 309.05 104.05 309.1 106.9 309.15 108.9 308.05 111.05 306.95 110.9 305.15
L 110.95 305.15 110.95 278.5 105.9 278 Z"/>
</g>

<g id="Layer0_0_MEMBER_8_FILL">
<path fill="#898989" stroke="none" d="
M 99.2 281.15
Q 101.25 282.35 104.05 282.4 106.9 282.45 108.9 281.35 110.9 280.25 110.95 278.65 110.95 277 108.95 275.85 106.9 274.65 104.1 274.6 101.25 274.55 99.25 275.65 97.25 276.75 97.2 278.35 97.2 280 99.2 281.15 Z"/>
</g>

<g id="Layer0_0_MEMBER_9_FILL">
<path fill="#373636" stroke="none" d="
M 100.35 280.55
Q 101.9 281.45 104.1 281.5 106.25 281.55 107.8 280.7 109.35 279.85 109.35 278.6 109.35 277.35 107.8 276.45 106.25 275.55 104.1 275.5 101.9 275.45 100.35 276.3 98.8 277.15 98.8 278.4 98.8 279.65 100.35 280.55 Z"/>
</g>
</defs>

<g transform="matrix( 7, 0, 0, 7, 405.85,687.3) ">
<use xlink:href="#Layer0_0_MEMBER_0_FILL"/>
</g>

<g transform="matrix( 7, 0, 0, 7, -27.55,-1586.3) ">
<use xlink:href="#Layer0_0_MEMBER_1_FILL"/>
</g>

<g transform="matrix( 7, 0, 0, 7, 265.05,585.8) ">
<use xlink:href="#Layer0_0_MEMBER_2_MEMBER_0_FILL"/>
</g>

<g transform="matrix( 7, 0, 0, 7, -27.55,-1586.3) ">
<use xlink:href="#Layer0_0_MEMBER_2_MEMBER_1_MEMBER_0_FILL"/>
</g>

<g transform="matrix( 7, 0, 0, 7, -27.55,-1586.3) ">
<use xlink:href="#Layer0_0_MEMBER_2_MEMBER_1_MEMBER_1_FILL"/>
</g>

<g transform="matrix( 7, 0, 0, 7, -27.55,-1586.3) ">
<use xlink:href="#Layer0_0_MEMBER_2_MEMBER_1_MEMBER_2_FILL"/>
</g>

<g transform="matrix( 7, 0, 0, 7, 458.25,532.95) ">
<use xlink:href="#Layer0_0_MEMBER_2_MEMBER_1_MEMBER_3_FILL"/>
</g>

<g transform="matrix( 7, 0, 0, 7, 563.25,520.35) ">
<use xlink:href="#Layer0_0_MEMBER_2_MEMBER_1_MEMBER_4_FILL"/>
</g>

<g transform="matrix( 7, 0, 0, 7, 447.4,462.6) ">
<use xlink:href="#Layer0_0_MEMBER_2_MEMBER_1_MEMBER_5_FILL"/>
</g>

<g transform="matrix( 7, 0, 0, 7, -27.55,-1586.3) ">
<use xlink:href="#Layer0_0_MEMBER_2_MEMBER_1_MEMBER_6_FILL"/>
</g>

<g transform="matrix( 7, 0, 0, 7, -27.55,-1586.3) ">
<use xlink:href="#Layer0_0_MEMBER_2_MEMBER_1_MEMBER_7_FILL"/>
</g>

<g transform="matrix( 7, 0, 0, 7, -27.55,-1586.3) ">
<use xlink:href="#Layer0_0_MEMBER_2_MEMBER_1_MEMBER_8_FILL"/>
</g>

<g transform="matrix( 7, 0, 0, 7, -27.55,-1586.3) ">
<use xlink:href="#Layer0_0_MEMBER_2_MEMBER_1_MEMBER_9_FILL"/>
</g>

<g transform="matrix( 7, 0, 0, 7, 332.6,532.6) ">
<use xlink:href="#Layer0_0_MEMBER_2_MEMBER_1_MEMBER_10_FILL"/>
</g>

<g transform="matrix( 7, 0, 0, 7, 328.75,546.95) ">
<use xlink:href="#Layer0_0_MEMBER_2_MEMBER_1_MEMBER_11_FILL"/>
</g>

<g transform="matrix( 7, 0, 0, 7, -27.55,-1586.3) ">
<use xlink:href="#Layer0_0_MEMBER_2_MEMBER_1_MEMBER_12_FILL"/>
</g>

<g transform="matrix( 7, 0, 0, 7, -27.55,-1586.3) ">
<use xlink:href="#Layer0_0_MEMBER_2_MEMBER_1_MEMBER_13_FILL"/>
</g>

<g transform="matrix( 7, 0, 0, 7, -27.55,-1586.3) ">
<use xlink:href="#Layer0_0_MEMBER_2_MEMBER_1_MEMBER_14_FILL"/>
</g>

<g transform="matrix( 7, 0, 0, 7, 484.85,390.15) ">
<use xlink:href="#Layer0_0_MEMBER_2_MEMBER_1_MEMBER_15_FILL"/>
</g>

<g transform="matrix( 7, 0, 0, 7, -27.55,-1586.3) ">
<use xlink:href="#Layer0_0_MEMBER_2_MEMBER_1_MEMBER_16_FILL"/>
</g>

<g transform="matrix( 7, 0, 0, 7, -27.55,-1586.3) ">
<use xlink:href="#Layer0_0_MEMBER_2_MEMBER_1_MEMBER_17_FILL"/>
</g>

<g transform="matrix( 7, 0, 0, 7, -27.55,-1586.3) ">
<use xlink:href="#Layer0_0_MEMBER_2_MEMBER_1_MEMBER_18_FILL"/>
</g>

<g transform="matrix( 7, 0, 0, 7, -27.55,-1586.3) ">
<use xlink:href="#Layer0_0_MEMBER_2_MEMBER_1_MEMBER_19_FILL"/>
</g>

<g transform="matrix( 1, 0, 0, 1, 0,0) ">
<use xlink:href="#Layer0_0_MEMBER_2_MEMBER_1_MEMBER_20_FILL"/>
</g>

<g transform="matrix( 1, 0, 0, 1, 0,0) ">
<use xlink:href="#Layer0_0_MEMBER_2_MEMBER_1_MEMBER_21_FILL"/>
</g>

<g transform="matrix( 7, 0, 0, 7, -27.55,-1586.3) ">
<use xlink:href="#Layer0_0_MEMBER_2_MEMBER_1_MEMBER_22_FILL"/>
</g>

<g transform="matrix( 7, 0, 0, 7, -27.55,-1586.3) ">
<use xlink:href="#Layer0_0_MEMBER_2_MEMBER_1_MEMBER_23_FILL"/>
</g>

<g transform="matrix( 1, 0, 0, 1, 0,0) ">
<use xlink:href="#Layer0_0_MEMBER_2_MEMBER_1_MEMBER_24_FILL"/>
</g>

<g transform="matrix( 1, 0, 0, 1, 0,0) ">
<use xlink:href="#Layer0_0_MEMBER_2_MEMBER_1_MEMBER_25_FILL"/>
</g>

<g transform="matrix( 7, 0, 0, 7, -27.55,-1586.3) ">
<use xlink:href="#Layer0_0_MEMBER_2_MEMBER_1_MEMBER_26_FILL"/>
</g>

<g transform="matrix( 1, 0, 0, 1, 0,0) ">
<use xlink:href="#Layer0_0_MEMBER_2_MEMBER_1_MEMBER_27_FILL"/>
</g>

<g transform="matrix( 7, 0, 0, 7, -27.55,-1586.3) ">
<use xlink:href="#Layer0_0_MEMBER_2_MEMBER_1_MEMBER_28_FILL"/>
</g>

<g transform="matrix( 7, 0, 0, 7, -27.55,-1586.3) ">
<use xlink:href="#Layer0_0_MEMBER_2_MEMBER_1_MEMBER_29_FILL"/>
</g>

<g transform="matrix( 7, 0, 0, 7, -27.55,-1586.3) ">
<use xlink:href="#Layer0_0_MEMBER_2_MEMBER_1_MEMBER_30_FILL"/>
</g>

<g transform="matrix( 7, 0, 0, 7, -27.55,-1586.3) ">
<use xlink:href="#Layer0_0_MEMBER_2_MEMBER_1_MEMBER_31_FILL"/>
</g>

<g transform="matrix( 7, 0, 0, 7, -27.55,-1586.3) ">
<use xlink:href="#Layer0_0_MEMBER_2_MEMBER_1_MEMBER_32_FILL"/>
</g>

<g transform="matrix( 7, 0, 0, 7, -27.55,-1586.3) ">
<use xlink:href="#Layer0_0_MEMBER_2_MEMBER_1_MEMBER_33_FILL"/>
</g>

<g transform="matrix( 7, 0, 0, 7, -27.55,-1586.3) ">
<use xlink:href="#Layer0_0_MEMBER_2_MEMBER_1_MEMBER_34_FILL"/>
</g>

<g transform="matrix( 7, 0, 0, 7, -27.55,-1586.3) ">
<use xlink:href="#Layer0_0_MEMBER_2_MEMBER_1_MEMBER_35_FILL"/>
</g>

<g transform="matrix( 7, 0, 0, 7, -27.55,-1586.3) ">
<use xlink:href="#Layer0_0_MEMBER_2_MEMBER_1_MEMBER_36_FILL"/>
</g>

<g transform="matrix( 7, 0, 0, 7, 370.05,445.1) ">
<use xlink:href="#Layer0_0_MEMBER_2_MEMBER_1_MEMBER_37_FILL"/>
</g>

<g transform="matrix( 7, 0, 0, 7, -27.55,-1586.3) ">
<use xlink:href="#Layer0_0_MEMBER_2_MEMBER_1_MEMBER_38_FILL"/>
</g>

<g transform="matrix( 7, 0, 0, 7, -27.55,-1586.3) ">
<use xlink:href="#Layer0_0_MEMBER_2_MEMBER_1_MEMBER_39_FILL"/>
</g>

<g transform="matrix( 7, 0, 0, 7, 507.6,492.35) ">
<use xlink:href="#Layer0_0_MEMBER_2_MEMBER_1_MEMBER_40_FILL"/>
</g>

<g transform="matrix( 7, 0, 0, 7, -27.55,-1586.3) ">
<use xlink:href="#Layer0_0_MEMBER_2_MEMBER_2_FILL"/>
</g>

<g transform="matrix( 7, 0, 0, 7, -27.55,-1586.3) ">
<use xlink:href="#Layer0_0_MEMBER_2_MEMBER_3_FILL"/>
</g>

<g transform="matrix( 7, 0, 0, 7, -27.55,-1586.3) ">
<use xlink:href="#Layer0_0_MEMBER_2_MEMBER_4_FILL"/>
</g>

<g transform="matrix( 7, 0, 0, 7, -27.55,-1586.3) ">
<use xlink:href="#Layer0_0_MEMBER_2_MEMBER_5_FILL"/>
</g>

<g transform="matrix( 7, 0, 0, 7, -27.55,-1586.3) ">
<use xlink:href="#Layer0_0_MEMBER_2_MEMBER_6_FILL"/>
</g>

<g transform="matrix( 7, 0, 0, 7, -27.55,-1586.3) ">
<use xlink:href="#Layer0_0_MEMBER_2_MEMBER_7_FILL"/>
</g>

<g transform="matrix( 7, 0, 0, 7, -27.55,-1586.3) ">
<use xlink:href="#Layer0_0_MEMBER_2_MEMBER_8_FILL"/>
</g>

<g transform="matrix( 7, 0, 0, 7, -27.55,-1586.3) ">
<use xlink:href="#Layer0_0_MEMBER_2_MEMBER_9_FILL"/>
</g>

<g transform="matrix( 7, 0, 0, 7, -27.55,-1586.3) ">
<use xlink:href="#Layer0_0_MEMBER_2_MEMBER_10_FILL"/>
</g>

<g transform="matrix( 7, 0, 0, 7, -27.55,-1586.3) ">
<use xlink:href="#Layer0_0_MEMBER_3_FILL"/>
</g>

<g transform="matrix( 7, 0, 0, 7, -27.55,-1586.3) ">
<use xlink:href="#Layer0_0_MEMBER_4_FILL"/>
</g>

<g transform="matrix( 7, 0, 0, 7, -27.55,-1586.3) ">
<use xlink:href="#Layer0_0_MEMBER_5_FILL"/>
</g>

<g transform="matrix( 7, 0, 0, 7, -27.55,-1586.3) ">
<use xlink:href="#Layer0_0_MEMBER_6_FILL"/>
</g>

<g transform="matrix( 7, 0, 0, 7, -27.55,-1586.3) ">
<use xlink:href="#Layer0_0_MEMBER_7_FILL"/>
</g>

<g transform="matrix( 7, 0, 0, 7, -27.55,-1586.3) ">
<use xlink:href="#Layer0_0_MEMBER_8_FILL"/>
</g>

<g transform="matrix( 7, 0, 0, 7, -27.55,-1586.3) ">
<use xlink:href="#Layer0_0_MEMBER_9_FILL"/>
</g>
</svg>
