
<svg xmlns="http://www.w3.org/2000/svg" version="1.1" xmlns:xlink="http://www.w3.org/1999/xlink" preserveAspectRatio="none" x="0px" y="0px" width="1024px" height="1024px" viewBox="0 0 1024 1024">
<defs>
<g id="Layer0_0_MEMBER_0_MEMBER_0_FILL">
<path fill="#CCC0BC" stroke="none" d="
M 27.8 26.1
Q 32.25 22.8 35.85 20.7 41.95 17.15 41.95 12.15 41.95 7.15 35.75 3.6 29.6 0.05 20.9 0 12.2 0 6.1 3.55 -0.05 7.1 0 12.1 0 17.1 6.2 20.65 10.4 23.1 15.85 23.85 18.1 24.2 27.8 26.1 Z"/>
</g>

<g id="Layer0_0_MEMBER_0_MEMBER_1_FILL">
<path fill="#362E27" stroke="none" d="
M 415.95 210.75
Q 415.3 210.45 414.8 210.4
L 404.2 210 403.8 210.35
Q 403.75 210.45 403.75 210.9 403.7 211.35 403.75 211.5 403.75 211.75 404.15 212.1 404.65 212.6 405.45 212.85 406.6 213.2 408.75 213.55 409.35 213.7 410.6 214 411.9 214.3 413.5 214.4 414.7 214.45 415.75 213.85 416.6 213.35 416.6 213 416.7 211.55 416.6 211.25 416.5 211.05 415.95 210.75 Z"/>
</g>

<g id="Layer0_0_MEMBER_0_MEMBER_2_FILL">
<path fill="#362E27" stroke="none" d="
M 393.8 217.9
Q 394 218.4 394.5 218.75 394.7 218.9 395.8 220.6 396.85 222.15 397.85 222.6 399.05 223.15 400.85 222.9 402.3 222.7 403.25 222.2 404.25 221.7 404.35 221.25
L 404.3 220 403.65 219.45 394.2 215.7
Q 394.1 215.7 393.95 215.75 393.75 215.9 393.7 216.35
L 393.65 217.5 393.8 217.9 Z"/>
</g>

<g id="Layer0_0_MEMBER_0_MEMBER_3_FILL">
<path fill="#524B45" stroke="none" d="
M 409.7 208.35
Q 408.35 208.05 406.15 208.25 404.25 208.45 404.1 208.6
L 403.9 210.1 403.9 210.55
Q 404 211.1 404.5 211.4 405.85 212.3 407.65 212.45 408.2 212.5 409.9 212.9 411.5 213.3 412.25 213.35 415 213.55 415.8 212.55 416.7 211.55 415.75 210.6 415.4 210.25 413.5 209.75
L 411.7 209.35
Q 411.25 209.1 411.1 208.75 411 208.55 410.35 208.4
L 409.7 208.35 Z"/>
</g>

<g id="Layer0_0_MEMBER_0_MEMBER_4_FILL">
<path fill="#524B45" stroke="none" d="
M 393.85 216.5
Q 393.85 216.8 394.1 217.1 395.65 219.05 395.85 219.4 396.15 220.05 396.9 220.65 398.1 221.65 399.55 221.75 401.15 221.85 402.45 221.4 403.55 221 403.8 220.45 404 220.05 403.6 219.45 403.3 218.95 403 218.7 402.8 218.55 401.85 217.6 400.85 216.6 400.8 216.45 400.7 215.15 400.5 215.05 400.1 214.85 397.35 214.5 394.25 214.1 394.05 214.6
L 393.85 216
Q 393.85 216.2 393.85 216.5 Z"/>
</g>

<g id="Layer0_0_MEMBER_0_MEMBER_5_FILL">
<path fill="#3761A1" stroke="none" d="
M 402.65 179.9
Q 402.35 182.5 402.4 186.5
L 402.4 186.85
Q 402.35 188.4 402.5 191 402.65 193.1 402.75 193.8 402.85 194.45 402.65 199.6 402.6 202 402.95 205.55 403.2 208.65 403.35 209.05 403.6 209.7 405.05 210.2 405.95 210.6 407.25 210.5 408.75 210.4 409.6 209.5 410.25 208.85 410.2 208.35
L 410.35 197.95 411.45 184.75
Q 411.6 182.65 411.15 178.9
L 410.7 175.6
Q 410.5 175.4 409.75 175.2 408.3 174.8 405.8 174.9 403.3 175.05 402.65 179.9 Z"/>
</g>

<g id="Layer0_0_MEMBER_0_MEMBER_6_FILL">
<path fill="#294676" stroke="none" d="
M 2.35 8.1
Q 2.4 7.35 3.1 6 3.9 4.55 3.95 4.05
L 4.55 0
Q 3.1 0 0 3 -0.05 4.55 0.1 7.15 0.25 9.25 0.35 9.95 0.3 12.15 0.25 15.75 0.2 18.15 0.55 21.7 0.8 24.8 0.95 25.2 1.2 25.85 2.65 26.35 1.85 16.8 1.95 15.5
L 2.35 8.1 Z"/>
</g>

<g id="Layer0_0_MEMBER_0_MEMBER_7_FILL">
<path fill="#3761A1" stroke="none" d="
M 403.85 176.65
L 391.85 179 391.6 182.9
Q 391.6 184.6 392.45 189.4 392.45 189.6 392.95 191.55 393.4 193.3 393.35 193.65
L 393 201.3
Q 392.9 202.05 393.45 211.6 393.4 212.6 393.6 215.15 393.55 215.3 393.95 215.7 394.4 216.25 395.15 216.45 395.6 216.65 396.4 216.65 397.8 216.65 399.25 216.2 400.5 215.85 400.65 215.55 400.7 215.45 400.75 211.7 400.8 207.75 400.95 207 401.1 206.3 401.4 202.8 401.65 199.45 401.7 199.3 401.9 198.95 402.15 195.85 402.15 195.4 402.6 193.15 403.05 191 403.35 190 403.55 189.45 404.7 188.55 405.85 187.7 406.1 186.7 406.7 184.75 407 183.55 407.45 181.35 407.25 179.6 407.05 177.8 405.45 177.05
L 403.85 176.65 Z"/>
</g>

<g id="Layer0_0_MEMBER_0_MEMBER_8_FILL">
<path fill="#254471" stroke="none" d="
M 0.2 4.3
L 4 6.65 5.2 10.7
Q 5.35 11.6 8.4 13.4 9.05 8.3 8.6 5.6 8.3 3.9 5.2 1.8 3.65 0.75 2.15 0 1.4 0.55 0.8 1.4 -0.4 3 0.2 4.3 Z"/>
</g>

<g id="Layer0_0_MEMBER_0_MEMBER_9_FILL">
<path fill="#294676" stroke="none" d="
M 7.35 0.75
Q 6.9 1.15 6.15 1.3
L 2.7 1.55
Q 2.55 1.65 2.4 1.55
L 2.15 1.35
Q 0.9 0.3 0.2 0 0 0.35 0 2.15 0 3.85 0.85 8.65 0.85 8.85 1.35 10.8 1.8 12.55 1.75 12.9
L 1.4 20.55
Q 1.3 21.3 1.85 30.85 1.8 31.85 2 34.4 1.95 34.55 2.35 34.95 2.8 35.5 3.55 35.7 3.5 33.45 2.75 28.65 2 23.55 1.95 22.7 1.85 21.05 2.2 18.3 2.75 14.15 2.8 13.75 2.9 12.65 2.6 10.55 2.45 9.15 1.95 6.35
L 1.3 3
Q 0.9 1.75 0.9 1.15 1.15 1.25 1.55 1.75 2 2.15 2.85 2.3
L 5.55 2.3
Q 6 2.25 6.7 1.85 8 1.1 8.1 0.4 7.9 0.35 7.45 0.7
L 7.35 0.75 Z"/>
</g>

<g id="Layer0_0_MEMBER_1_MEMBER_0_FILL">
<path fill="#B6AE90" stroke="none" d="
M 438.7 178
L 415.15 191.7 415.15 230.45 438.7 216.75 438.7 178 Z"/>
</g>

<g id="Layer0_0_MEMBER_1_MEMBER_1_FILL">
<path fill="#875E4C" stroke="none" d="
M 415.15 191.7
L 406.65 186.75 406.65 225.5 415.15 230.45 415.15 191.7 Z"/>
</g>

<g id="Layer0_0_MEMBER_1_MEMBER_2_FILL">
<path fill="#F1D9BF" stroke="none" d="
M 438.7 178
L 430.2 173.05 406.65 186.75 415.15 191.7 438.7 178 Z"/>
</g>

<g id="Layer0_0_MEMBER_1_MEMBER_3_FILL">
<path fill="#D25E30" stroke="none" d="
M 412.3 183.45
L 416.25 185.75 424.9 180.7 420.95 178.4 412.3 183.45 Z"/>
</g>

<g id="Layer0_0_MEMBER_1_MEMBER_4_FILL">
<path fill="#F27B5F" stroke="none" d="
M 415.65 186.1
L 411.7 183.8 406.65 186.75 410.6 189.05 415.65 186.1 Z"/>
</g>

<g id="Layer0_0_MEMBER_2_MEMBER_0_FILL">
<path fill="#D2492F" stroke="none" d="
M 434.35 172.5
L 425.7 177.5 425.7 180.45 434.35 175.4 434.35 172.5 Z"/>
</g>

<g id="Layer0_0_MEMBER_2_MEMBER_1_FILL">
<path fill="#D2492F" stroke="none" d="
M 438.7 178
L 430.05 183 430.05 185.95 438.7 180.9 438.7 178 Z"/>
</g>

<g id="Layer0_0_MEMBER_2_MEMBER_2_FILL">
<path fill="#D2492F" stroke="none" d="
M 429.45 183.35
L 420.8 188.4 420.8 191.3 429.45 186.3 429.45 183.35 Z"/>
</g>

<g id="Layer0_0_MEMBER_2_MEMBER_3_FILL">
<path fill="#D2492F" stroke="none" d="
M 420.2 188.75
L 415.15 191.7 415.15 194.6 420.2 191.65 420.2 188.75 Z"/>
</g>

<g id="Layer0_0_MEMBER_2_MEMBER_4_FILL">
<path fill="#D2492F" stroke="none" d="
M 438.7 181.5
L 433.7 184.4 433.7 187.35 438.7 184.45 438.7 181.5 Z"/>
</g>

<g id="Layer0_0_MEMBER_2_MEMBER_5_FILL">
<path fill="#D2492F" stroke="none" d="
M 433.1 184.75
L 424.5 189.8 424.5 192.7 433.1 187.7 433.1 184.75 Z"/>
</g>

<g id="Layer0_0_MEMBER_2_MEMBER_6_FILL">
<path fill="#D2492F" stroke="none" d="
M 423.8 190.2
L 415.15 195.25 415.15 198.15 423.8 193.15 423.8 190.2 Z"/>
</g>

<g id="Layer0_0_MEMBER_2_MEMBER_7_FILL">
<path fill="#D2492F" stroke="none" d="
M 438.7 185.1
L 430.05 190.1 430.05 193.05 438.7 188 438.7 185.1 Z"/>
</g>

<g id="Layer0_0_MEMBER_2_MEMBER_8_FILL">
<path fill="#D2492F" stroke="none" d="
M 429.45 190.45
L 420.8 195.5 420.8 198.4 429.45 193.4 429.45 190.45 Z"/>
</g>

<g id="Layer0_0_MEMBER_2_MEMBER_9_FILL">
<path fill="#D2492F" stroke="none" d="
M 415.15 198.8
L 415.15 201.7 420.2 198.75 420.2 195.85 415.15 198.8 Z"/>
</g>

<g id="Layer0_0_MEMBER_2_MEMBER_10_FILL">
<path fill="#D2492F" stroke="none" d="
M 438.7 188.6
L 433.7 191.5 433.7 194.45 438.7 191.55 438.7 188.6 Z"/>
</g>

<g id="Layer0_0_MEMBER_2_MEMBER_11_FILL">
<path fill="#D2492F" stroke="none" d="
M 433.1 191.85
L 424.5 196.9 424.5 199.8 433.1 194.8 433.1 191.85 Z"/>
</g>

<g id="Layer0_0_MEMBER_2_MEMBER_12_FILL">
<path fill="#D2492F" stroke="none" d="
M 415.15 202.35
L 415.15 205.25 423.8 200.25 423.8 197.3 415.15 202.35 Z"/>
</g>

<g id="Layer0_0_MEMBER_2_MEMBER_13_FILL">
<path fill="#D2492F" stroke="none" d="
M 438.7 192.2
L 430.05 197.2 430.05 200.15 438.7 195.1 438.7 192.2 Z"/>
</g>

<g id="Layer0_0_MEMBER_2_MEMBER_14_FILL">
<path fill="#D2492F" stroke="none" d="
M 420.8 202.6
L 420.8 205.55 429.45 200.5 429.45 197.55 420.8 202.6 Z"/>
</g>

<g id="Layer0_0_MEMBER_2_MEMBER_15_FILL">
<path fill="#D2492F" stroke="none" d="
M 420.2 202.95
L 415.15 205.9 415.15 208.85 420.2 205.85 420.2 202.95 Z"/>
</g>

<g id="Layer0_0_MEMBER_2_MEMBER_16_FILL">
<path fill="#D2492F" stroke="none" d="
M 433.7 198.6
L 433.7 201.55 438.7 198.65 438.7 195.7 433.7 198.6 Z"/>
</g>

<g id="Layer0_0_MEMBER_2_MEMBER_17_FILL">
<path fill="#D2492F" stroke="none" d="
M 433.1 198.95
L 424.5 204 424.5 206.9 433.1 201.9 433.1 198.95 Z"/>
</g>

<g id="Layer0_0_MEMBER_2_MEMBER_18_FILL">
<path fill="#D2492F" stroke="none" d="
M 423.8 204.4
L 415.15 209.45 415.15 212.4 423.8 207.35 423.8 204.4 Z"/>
</g>

<g id="Layer0_0_MEMBER_2_MEMBER_19_FILL">
<path fill="#D2492F" stroke="none" d="
M 438.7 199.3
L 430.05 204.3 430.05 207.25 438.7 202.2 438.7 199.3 Z"/>
</g>

<g id="Layer0_0_MEMBER_2_MEMBER_20_FILL">
<path fill="#D2492F" stroke="none" d="
M 429.45 204.65
L 420.8 209.7 420.8 212.65 429.45 207.6 429.45 204.65 Z"/>
</g>

<g id="Layer0_0_MEMBER_2_MEMBER_21_FILL">
<path fill="#D2492F" stroke="none" d="
M 420.2 210.05
L 415.15 213 415.15 215.95 420.2 213 420.2 210.05 Z"/>
</g>

<g id="Layer0_0_MEMBER_2_MEMBER_22_FILL">
<path fill="#D2492F" stroke="none" d="
M 438.7 202.8
L 433.7 205.7 433.7 208.65 438.7 205.75 438.7 202.8 Z"/>
</g>

<g id="Layer0_0_MEMBER_2_MEMBER_23_FILL">
<path fill="#D2492F" stroke="none" d="
M 433.1 206.05
L 424.5 211.1 424.5 214.05 433.1 209 433.1 206.05 Z"/>
</g>

<g id="Layer0_0_MEMBER_2_MEMBER_24_FILL">
<path fill="#D2492F" stroke="none" d="
M 423.8 211.5
L 415.15 216.55 415.15 219.5 423.8 214.45 423.8 211.5 Z"/>
</g>

<g id="Layer0_0_MEMBER_2_MEMBER_25_FILL">
<path fill="#D2492F" stroke="none" d="
M 438.7 206.4
L 430.05 211.4 430.05 214.35 438.7 209.3 438.7 206.4 Z"/>
</g>

<g id="Layer0_0_MEMBER_2_MEMBER_26_FILL">
<path fill="#D2492F" stroke="none" d="
M 429.45 211.75
L 420.8 216.8 420.8 219.75 429.45 214.7 429.45 211.75 Z"/>
</g>

<g id="Layer0_0_MEMBER_2_MEMBER_27_FILL">
<path fill="#D2492F" stroke="none" d="
M 420.2 217.15
L 415.15 220.1 415.15 223.05 420.2 220.1 420.2 217.15 Z"/>
</g>

<g id="Layer0_0_MEMBER_2_MEMBER_28_FILL">
<path fill="#D2492F" stroke="none" d="
M 438.7 209.9
L 433.7 212.8 433.7 215.75 438.7 212.85 438.7 209.9 Z"/>
</g>

<g id="Layer0_0_MEMBER_2_MEMBER_29_FILL">
<path fill="#D2492F" stroke="none" d="
M 433.1 213.15
L 424.5 218.2 424.5 221.15 433.1 216.1 433.1 213.15 Z"/>
</g>

<g id="Layer0_0_MEMBER_2_MEMBER_30_FILL">
<path fill="#D2492F" stroke="none" d="
M 423.8 218.6
L 415.15 223.65 415.15 226.6 423.8 221.55 423.8 218.6 Z"/>
</g>

<g id="Layer0_0_MEMBER_2_MEMBER_31_FILL">
<path fill="#D2492F" stroke="none" d="
M 438.7 213.5
L 430.05 218.55 430.05 221.45 438.7 216.45 438.7 213.5 Z"/>
</g>

<g id="Layer0_0_MEMBER_2_MEMBER_32_FILL">
<path fill="#D2492F" stroke="none" d="
M 429.45 218.85
L 420.8 223.9 420.8 226.85 429.45 221.8 429.45 218.85 Z"/>
</g>

<g id="Layer0_0_MEMBER_2_MEMBER_33_FILL">
<path fill="#D2492F" stroke="none" d="
M 420.2 224.25
L 415.15 227.2 415.15 230.15 420.2 227.2 420.2 224.25 Z"/>
</g>

<g id="Layer0_0_MEMBER_2_MEMBER_34_FILL">
<path fill="#A21D0E" stroke="none" d="
M 425.7 177.5
L 421.75 175.2 421.75 178.15 425.7 180.45 425.7 177.5 Z"/>
</g>

<g id="Layer0_0_MEMBER_2_MEMBER_35_MEMBER_0_FILL">
<path fill="#A21D0E" stroke="none" d="
M 415.15 191.7
L 411.2 189.4 411.2 192.3 415.15 194.6 415.15 191.7 Z"/>
</g>

<g id="Layer0_0_MEMBER_2_MEMBER_35_MEMBER_1_FILL">
<path fill="#A21D0E" stroke="none" d="
M 411.2 199.45
L 415.15 201.7 415.15 198.8 411.2 196.5 411.2 199.45 Z"/>
</g>

<g id="Layer0_0_MEMBER_2_MEMBER_35_MEMBER_2_FILL">
<path fill="#A21D0E" stroke="none" d="
M 415.15 202.35
L 411.2 200.05 411.2 203 415.15 205.25 415.15 202.35 Z"/>
</g>

<g id="Layer0_0_MEMBER_2_MEMBER_35_MEMBER_3_FILL">
<path fill="#A21D0E" stroke="none" d="
M 415.15 205.9
L 411.2 203.6 411.2 206.55 415.15 208.85 415.15 205.9 Z"/>
</g>

<g id="Layer0_0_MEMBER_2_MEMBER_35_MEMBER_4_FILL">
<path fill="#A21D0E" stroke="none" d="
M 415.15 209.45
L 411.2 207.15 411.2 210.1 415.15 212.4 415.15 209.45 Z"/>
</g>

<g id="Layer0_0_MEMBER_2_MEMBER_35_MEMBER_5_FILL">
<path fill="#A21D0E" stroke="none" d="
M 415.15 213
L 411.2 210.7 411.2 213.65 415.15 215.95 415.15 213 Z"/>
</g>

<g id="Layer0_0_MEMBER_2_MEMBER_35_MEMBER_6_FILL">
<path fill="#A21D0E" stroke="none" d="
M 415.15 216.55
L 411.2 214.25 411.2 217.2 415.15 219.5 415.15 216.55 Z"/>
</g>

<g id="Layer0_0_MEMBER_2_MEMBER_35_MEMBER_7_FILL">
<path fill="#A21D0E" stroke="none" d="
M 415.15 220.1
L 411.2 217.8 411.2 220.75 415.15 223.05 415.15 220.1 Z"/>
</g>

<g id="Layer0_0_MEMBER_2_MEMBER_35_MEMBER_8_FILL">
<path fill="#A21D0E" stroke="none" d="
M 415.15 223.65
L 411.2 221.35 411.2 224.3 415.15 226.6 415.15 223.65 Z"/>
</g>

<g id="Layer0_0_MEMBER_2_MEMBER_35_MEMBER_9_FILL">
<path fill="#A21D0E" stroke="none" d="
M 415.15 227.2
L 411.2 224.9 411.2 227.85 415.15 230.15 415.15 227.2 Z"/>
</g>

<g id="Layer0_0_MEMBER_2_MEMBER_35_MEMBER_10_FILL">
<path fill="#A21D0E" stroke="none" d="
M 415.15 195.25
L 411.2 192.95 411.2 195.85 415.15 198.15 415.15 195.25 Z"/>
</g>

<g id="Layer0_0_MEMBER_2_MEMBER_36_MEMBER_0_FILL">
<path fill="#A21D0E" stroke="none" d="
M 410.6 189.05
L 406.65 186.75 406.65 189.7 410.6 192 410.6 189.05 Z"/>
</g>

<g id="Layer0_0_MEMBER_2_MEMBER_36_MEMBER_1_FILL">
<path fill="#A21D0E" stroke="none" d="
M 410.6 196.15
L 406.65 193.85 406.65 196.8 410.6 199.1 410.6 196.15 Z"/>
</g>

<g id="Layer0_0_MEMBER_2_MEMBER_36_MEMBER_2_FILL">
<path fill="#A21D0E" stroke="none" d="
M 406.65 200.35
L 410.6 202.65 410.6 199.7 406.65 197.4 406.65 200.35 Z"/>
</g>

<g id="Layer0_0_MEMBER_2_MEMBER_36_MEMBER_3_FILL">
<path fill="#A21D0E" stroke="none" d="
M 410.6 203.25
L 406.65 200.95 406.65 203.9 410.6 206.2 410.6 203.25 Z"/>
</g>

<g id="Layer0_0_MEMBER_2_MEMBER_36_MEMBER_4_FILL">
<path fill="#A21D0E" stroke="none" d="
M 410.6 206.8
L 406.65 204.5 406.65 207.45 410.6 209.75 410.6 206.8 Z"/>
</g>

<g id="Layer0_0_MEMBER_2_MEMBER_36_MEMBER_5_FILL">
<path fill="#A21D0E" stroke="none" d="
M 410.6 210.35
L 406.65 208.05 406.65 211 410.6 213.3 410.6 210.35 Z"/>
</g>

<g id="Layer0_0_MEMBER_2_MEMBER_36_MEMBER_6_FILL">
<path fill="#A21D0E" stroke="none" d="
M 410.6 213.9
L 406.65 211.6 406.65 214.55 410.6 216.85 410.6 213.9 Z"/>
</g>

<g id="Layer0_0_MEMBER_2_MEMBER_36_MEMBER_7_FILL">
<path fill="#A21D0E" stroke="none" d="
M 410.6 217.45
L 406.65 215.15 406.65 218.1 410.6 220.4 410.6 217.45 Z"/>
</g>

<g id="Layer0_0_MEMBER_2_MEMBER_36_MEMBER_8_FILL">
<path fill="#A21D0E" stroke="none" d="
M 410.6 221
L 406.65 218.7 406.65 221.65 410.6 223.95 410.6 221 Z"/>
</g>

<g id="Layer0_0_MEMBER_2_MEMBER_36_MEMBER_9_FILL">
<path fill="#A21D0E" stroke="none" d="
M 410.6 224.55
L 406.65 222.25 406.65 225.2 410.6 227.5 410.6 224.55 Z"/>
</g>

<g id="Layer0_0_MEMBER_2_MEMBER_36_MEMBER_10_FILL">
<path fill="#A21D0E" stroke="none" d="
M 410.6 192.6
L 406.65 190.3 406.65 193.25 410.6 195.55 410.6 192.6 Z"/>
</g>

<g id="Layer0_0_MEMBER_2_MEMBER_37_FILL">
<path fill="#F27B5F" stroke="none" d="
M 421.75 175.2
L 425.7 177.5 434.35 172.5 430.4 170.2 421.75 175.2 Z"/>
</g>

<g id="Layer0_0_MEMBER_2_MEMBER_38_FILL">
<path fill="#F27B5F" stroke="none" d="
M 426.1 180.7
L 430.05 183 438.7 178 434.75 175.7 426.1 180.7 Z"/>
</g>

<g id="Layer0_0_MEMBER_2_MEMBER_39_FILL">
<path fill="#F27B5F" stroke="none" d="
M 416.85 186.1
L 420.8 188.4 429.45 183.35 425.5 181.05 416.85 186.1 Z"/>
</g>

<g id="Layer0_0_MEMBER_2_MEMBER_40_FILL">
<path fill="#F27B5F" stroke="none" d="
M 420.2 188.75
L 416.25 186.45 411.2 189.4 415.15 191.7 420.2 188.75 Z"/>
</g>

<g id="Layer0_0_MEMBER_3_FILL">
<path fill="#95A1AC" stroke="none" d="
M 575.9 494
Q 573.45 489.8 573.1 489.45
L 504.5 529
Q 501.35 531.45 501.35 532.85 502.05 536 506.25 536
L 506.25 537.75
Q 505.9 539.85 508.35 540.55
L 511.85 541.25 513.95 542.65 515 544.05 516.75 544.4
Q 518.85 544.75 522 544.05 525.5 543.35 527.25 543.35 528.65 543.7 533.9 543.7 537.75 544.05 540.2 544.75 546.5 546.5 548.6 545.8
L 561.9 543
Q 562.95 542.65 564.7 541.95 565.4 541.6 569.95 542.3 573.8 542.65 575.2 541.25
L 575.9 540.2 592 540.2 594.1 539.85 596.2 538.8 600.4 533.55
Q 601.45 531.45 602.85 530.4 604.25 529.35 607.75 528.65 611.25 527.95 612.3 526.55 613 525.15 612.65 522.7 612.65 519.55 613 518.5 612.65 517.8 609.5 517.1 607.05 516.4 607.4 514.65 607.4 513.6 608.8 512.9
L 611.95 511.5
Q 613.7 510.8 614.4 509.05 598.65 507.65 591.3 504.5
L 588.5 503.1
Q 583.6 498.9 581.15 497.5 576.95 495.75 575.9 494 Z"/>
</g>

<g id="Layer0_0_MEMBER_4_FILL">
<path fill="#C7C7CE" stroke="none" d="
M 576.6 492.95
Q 575.55 489.8 574.15 488.4
L 512.2 524.45
Q 511.5 525.15 509.05 529.7
L 513.95 529 513.95 532.85
Q 513.95 534.95 516.05 535.65
L 517.45 536
Q 522.35 536 524.45 535.65
L 524.8 536.7 536.35 536.7
Q 537.75 539.15 540.9 540.2
L 542.3 540.2 549.65 538.1
Q 550.35 538.1 557 535.65 561.55 533.9 564.7 533.9 564.35 534.6 565.4 535.65
L 567.5 536.35
Q 572.05 537.05 573.8 536
L 575.9 534.95
Q 577.3 534.25 583.95 534.25 587.8 534.95 591.3 534.25
L 594.1 532.85
Q 594.45 532.5 594.45 529 595.15 524.1 601.45 523.4 604.6 523.05 610.9 523.4
L 610.9 519.9 606.35 518.15 605.65 518.15 605.3 517.1
Q 605.3 511.85 610.55 509.4
L 605.3 508
Q 601.45 508 599.35 507.65 597.6 507.3 588.5 501.35
L 587.8 501
Q 582.55 496.45 581.5 496.1 576.95 493.3 576.6 492.95 Z"/>
</g>

<g id="Layer0_0_MEMBER_5_MEMBER_0_FILL">
<path fill="#FEE2A3" stroke="none" d="
M 423.15 167.8
L 421.3 167.55 416.95 170.4 416.85 172.25 419.1 173.65 423.95 170.35 423.15 167.8 Z"/>
</g>

<g id="Layer0_0_MEMBER_5_MEMBER_1_MEMBER_0_FILL">
<path fill="#D2492F" stroke="none" d="
M 427.05 168.5
L 418.7 174.05 418.85 176.95 427.2 171.45 427.05 168.5 Z"/>
</g>

<g id="Layer0_0_MEMBER_5_MEMBER_1_MEMBER_1_FILL">
<path fill="#A21D0E" stroke="none" d="
M 418.7 174.05
L 414.6 171.95 414.8 174.9 418.85 176.95 418.7 174.05 Z"/>
</g>

<g id="Layer0_0_MEMBER_5_MEMBER_1_MEMBER_2_FILL">
<path fill="#F27B5F" stroke="none" d="
M 414.6 171.95
L 418.7 174.05 427.05 168.55 422.95 166.45 414.6 171.95 Z"/>
</g>

<g id="Layer0_0_MEMBER_5_MEMBER_2_FILL">
<path fill="#FBC7AC" stroke="none" d="
M 411.15 153
Q 410.5 153 409.85 153.25 408.5 153.75 408.3 155.15
L 408.25 155.55
Q 408.15 156.85 408.95 157.9 409.4 158.5 410.55 159.6
L 413.2 162.6
Q 413.4 162.85 414.4 163.7 415.45 164.6 416.2 165.05 416.25 165.05 417.6 165.8 418.25 166.2 418.4 166.4
L 418.85 166.8
Q 419.4 167.25 420.15 167.7
L 420.6 168.15
Q 421.15 168.65 421.35 169.1
L 421.8 170 421.95 171.2
Q 422.1 171.4 422.35 171.4
L 422.2 171.9 422.25 172.05 422.4 172.05 422.8 171.95 423.1 171.6 423.1 171.55 423.5 171.25 423.7 171 424.05 170.65 424.4 169.2
Q 424.45 169.05 424.15 168.1 423.8 167.15 423.7 167.05 423.6 166.8 422.8 166.5
L 422.05 166.2 420.05 163.6
Q 415.7 158 415.25 157.6
L 411.15 153 Z"/>
</g>

<g id="Layer0_0_MEMBER_5_MEMBER_3_FILL">
<path fill="#F5A480" stroke="none" d="
M 10.6 11.55
L 10.2 10.5
Q 7.35 8.75 6.7 8.45 6.25 8.25 5.35 7.2
L 4.55 6.15 4.15 4.75 3 4.15 1.8 1.3 0.4 0 0 0.3
Q -0.1 1.6 0.7 2.65 1.15 3.25 2.3 4.35
L 4.95 7.35
Q 5.15 7.6 6.15 8.45 7.2 9.35 7.95 9.8 8 9.8 9.35 10.55 10 10.95 10.15 11.15
L 10.6 11.55 Z"/>
</g>

<g id="Layer0_0_MEMBER_5_MEMBER_4_FILL">
<path fill="#FED6C1" stroke="none" d="
M 420.2 167.25
Q 420.65 166 419.7 165.7 419.5 165.65 419.2 165.85
L 418.9 166.05 418.8 166.3 418.3 168.35 418.25 169.55 420.15 168.3 420.2 167.25 Z"/>
</g>

<g id="Layer0_0_MEMBER_5_MEMBER_5_FILL">
<path fill="#FD8839" stroke="none" d="
M 404.75 145.45
Q 404.3 145.75 404 146.3 403.7 146.85 406.2 152.5 408.65 158.1 409.1 157.9 409.5 157.75 410.2 157.25 411.5 156.3 411.7 156.15 412.9 155.25 412.65 154 411.4 152.7 410.85 151.7 410.15 150.3 409.6 149.35 408.6 147.55 407.9 146.75 406.55 145.3 405.5 145.15 405.2 145.1 404.75 145.45 Z"/>
</g>

<g id="Layer0_0_MEMBER_5_MEMBER_6_FILL">
<path fill="#8D8E96" stroke="none" d="
M 419.3 180.35
Q 418.45 180.1 417.9 182.05 417.35 184 418 184.05 425.4 183.25 425.2 182.55 425 181.85 419.3 180.35 Z"/>
</g>

<g id="Layer0_0_MEMBER_5_MEMBER_7_FILL">
<path fill="#A5A6AC" stroke="none" d="
M 417.55 182.4
L 417.55 182.5 417.65 182.5
Q 419.25 182.65 420.9 182.35 421.3 182.25 421.3 182.05
L 418.25 181.65 418.35 180
Q 418.35 179.9 417.6 179.85 417.45 180.05 417.55 180.35 417.5 181.4 417.55 182.4 Z"/>
</g>

<g id="Layer0_0_MEMBER_5_MEMBER_8_FILL">
<path fill="#4A4C58" stroke="none" d="
M 418.1 180
Q 418.15 179.35 416.85 179.35
L 414.15 179.3 414.95 180.65
Q 415.2 180.85 416.3 180.8 417.95 180.95 418.1 180 Z"/>
</g>

<g id="Layer0_0_MEMBER_5_MEMBER_9_FILL">
<path fill="#FED6C1" stroke="none" d="
M 413.8 177.05
L 412.85 176.85 413.6 178.35
Q 413.95 178.7 414.8 179.6 415 179.7 415.2 179.65 415.45 179.6 415.45 179.5 415.4 178.4 415.25 178.35
L 413.8 177.05 Z"/>
</g>

<g id="Layer0_0_MEMBER_5_MEMBER_10_FILL">
<path fill="#F6562A" stroke="none" d="
M 478.95 289.95
Q 472.3 266.85 462.5 260.2 451.3 253.2 431.35 251.8 412.1 250.75 401.25 255.3 391.45 259.15 378.85 268.6 367.3 277 361.7 284 352.25 295.9 346.65 312.7 345.6 314.8 351.55 355.4
L 353.65 369.4 354.35 372.2 354.7 376.75 359.95 410.7 360.65 413.5 360.65 414.9 362.05 425.4
Q 362.4 430.65 363.1 437.65 363.8 442.9 361.7 446.4 359.95 449.9 361 466.35 361.7 474.4 362.4 483.15
L 361 505.2 361.7 506.6
Q 363.1 508 370.8 511.85
L 373.95 512.9
Q 384.45 517.8 392.15 517.8 401.95 517.8 440.8 505.2
L 441.5 504.85 449.2 502.4
Q 452.7 500.65 486.65 488.4
L 494.35 484.9
Q 497.85 483.5 498.55 482.1 500.65 476.5 497.85 471.25 489.1 436.25 489.1 427.5
L 489.1 361
Q 489.8 344.55 486.3 325.65 481.05 296.95 478.95 289.95 Z"/>
</g>

<g id="Layer0_0_MEMBER_5_MEMBER_11_FILL">
<path fill="#3761A1" stroke="none" d="
M 402.65 162.8
Q 400.8 163.15 400.5 164.55 400.3 165.3 400.25 166.45 399.85 167.15 398.8 167.5 397.95 167.75 396.65 167.8
L 391.55 168.25 391.3 168.3 391.3 172.1
Q 391.25 172.85 391.5 179.3
L 391.6 181.9 392.55 182.15
Q 396.15 182.85 403.5 180.65 404.85 180.15 405.35 180.1 406.85 179.8 410.65 177.7
L 410.7 177.65
Q 411.35 177 411.4 176.45 411.45 175.9 410 169.7
L 409.65 161.35
Q 409.65 160.8 409.45 160.45
L 409.2 160.2
Q 405.75 162.2 402.65 162.8 Z"/>
</g>

<g id="Layer0_0_MEMBER_5_MEMBER_12_FILL">
<path fill="#4577C6" stroke="none" d="
M 407.9 257.05
L 422.95 261.25
Q 439.75 267.55 449.55 277.35 461.45 288.9 469.15 335.45 473 358.55 474.4 379.55
L 487 374.65
Q 486.3 355.4 483.15 333 476.5 288.55 463.2 273.5 450.25 258.8 432.05 251.8
L 416.65 247.6 407.9 257.05 Z"/>
</g>

<g id="Layer0_0_MEMBER_5_MEMBER_13_FILL">
<path fill="#FD8839" stroke="none" d="
M 409.1 160.55
Q 409 159.95 408.45 160.15 407.85 160.35 407.95 160.9 408.05 161.5 408.6 161.3 409.2 161.1 409.1 160.55 Z"/>
</g>

<g id="Layer0_0_MEMBER_5_MEMBER_14_FILL">
<path fill="#294676" stroke="none" d="
M 19.35 10.2
L 19.4 10.15 18.2 8.3 7.65 0.8 7.5 0
Q 6.65 0.25 5.35 0.3
L 0.25 0.75 0 0.8
Q 0.05 3.3 0 4.6 -0.05 5.35 0.2 11.8
L 0.15 12.75 0.25 12.95 0.3 14.4 1.25 14.65
Q 1.35 14.15 1.5 13.8
L 1.65 13.5 1.7 13.25
Q 1.8 12.5 1.75 12.1 1.6 10.35 1.45 10.3
L 3.05 10.65 1.75 8.55 4 9.35 1.3 7.15 1.35 6.1 2.55 7.25 10 11.45 12.2 13.15
Q 13.55 12.65 14.05 12.6 15.55 12.3 19.35 10.2 Z"/>
</g>

<g id="Layer0_0_MEMBER_5_MEMBER_15_FILL">
<path fill="#FBC7AC" stroke="none" d="
M 441.15 240.95
Q 436.95 213.3 428.55 208.75 419.1 203.85 408.95 207.35 399.5 210.85 400.2 216.1 400.9 221 399.5 235 397.75 249.7 395.65 254.6 393.9 258.8 389 263.7 384.1 267.9 384.1 268.25 383.4 272.45 394.25 279.1 404.4 285.4 405.8 285.75 412.8 289.6 420.15 291 427.85 292.4 433.8 291 439.05 289.95 440.1 287.15 441.5 284.35 443.25 267.9 442.9 254.95 441.15 240.95 Z"/>
</g>

<g id="Layer0_0_MEMBER_5_MEMBER_16_FILL">
<path fill="#F04720" stroke="none" d="
M 458.3 268.4
Q 458.4583984375 265.3837890625 457.95 263.35 457.140625 260.4359375 447.4 259.7 453.2109375 263.530078125 458.3 268.4
M 437.5 289.8
Q 440.3810546875 291.05625 443.6 291.7 448.5 292.75 450.95 291 452.35 289.6 454.1 286.1 454.4607421875 285.378515625 454.8 284.5 452.2896484375 280.0091796875 449.55 277.35 446.5265625 274.3265625 442.8 271.6 441.3326171875 284.6845703125 440.1 287.15 439.4947265625 288.7640625 437.5 289.8 Z"/>

<path fill="#F5A480" stroke="none" d="
M 442.8 271.6
Q 443.0408203125 269.865625 443.25 267.9 443.1376953125 263.7419921875 442.85 259.45 433.923046875 259.259375 419.65 260.3 416.37578125 260.5828125 412.8 260.9 415.25 270.35 418.05 274.2 420.5 277.7 428.55 283.65 432.532421875 287.632421875 437.5 289.8 439.4947265625 288.7640625 440.1 287.15 441.3326171875 284.6845703125 442.8 271.6 Z"/>

<path fill="#3761A1" stroke="none" d="
M 443.25 267.9
Q 443.0408203125 269.865625 442.8 271.6 446.5265625 274.3265625 449.55 277.35 452.2896484375 280.0091796875 454.8 284.5 456.138671875 281.229296875 457.25 275.95 458.1525390625 271.617578125 458.3 268.4 453.2109375 263.530078125 447.4 259.7 445.347265625 259.534765625 442.85 259.45 443.1376953125 263.7419921875 443.25 267.9 Z"/>
</g>

<g id="Layer0_0_MEMBER_5_MEMBER_17_FILL">
<path fill="#FBC7AC" stroke="none" d="
M 392.2 157
Q 391 156.9 390.45 158.55 390 159.8 390.05 161.7 390.15 162.95 390.3 163.55 390.65 164.65 392.25 168 393.9 171.45 394.35 171.9 394.8 172.4 396.6 173.55 398.4 174.65 399.9 175.35 401.3 176 403.8 177.05 406.15 178 406.75 178.15 407.55 178.3 408.65 179.2 408.95 179.4 409.55 181.25 409.8 181.8 410.2 182.05
L 411 181.95
Q 411.25 181.9 411.35 181.8
L 411.7 181.95 412.3 182 412.8 181.65 413.3 181.65
Q 413.6 181.65 413.85 181.4
L 414.2 181.7
Q 414.9 181.7 414.95 181.6
L 415.25 180.9 415.25 180.75
Q 415.15 180.2 414.85 179.9
L 414 178.5
Q 413.45 177 413.15 176.9
L 411.4 176.65
Q 411.2 176.65 408.65 175.35 405.9 174 404.85 173.25 398.55 168.9 398.25 168.7 398.05 168.6 397.95 167.5
L 397.65 164
Q 397.35 161.6 395.7 159.4 393.95 157.15 392.2 157 Z"/>
</g>

<g id="Layer0_0_MEMBER_5_MEMBER_18_FILL">
<path fill="#F5A480" stroke="none" d="
M 25.2 19.2
L 25.2 19.05 24.6 19.45
Q 24.4 19.6 24.15 19.35
L 23.95 19.1
Q 23.8 19.1 23.6 19.1 23.3 19.1 23.25 19.2
L 23.25 19.55 22.15 19.5 21.9 19.7 20.45 20.1 19.85 19.45
Q 19.05 17.5 18.65 17.2 18.35 16.95 14.35 15 10.2 12.95 8.25 12.1 4.95 10.6 3.95 8.05
L 2.05 3.45 5.3 2.7
Q 6 2.7 7.15 1.8 3.7 0.55 0 0 0.1 1.25 0.25 1.85 0.6 2.95 2.2 6.3 3.85 9.75 4.3 10.2 4.75 10.7 6.55 11.85 8.35 12.95 9.85 13.65 11.25 14.3 13.75 15.35 16.1 16.3 16.7 16.45 17.5 16.6 18.6 17.5 18.9 17.7 19.5 19.55 19.75 20.1 20.15 20.35 20.7 20.35 20.95 20.25 21.2 20.2 21.3 20.1
L 21.65 20.25 22.25 20.3 22.75 19.95 23.25 19.95
Q 23.55 19.95 23.8 19.7
L 24.15 20
Q 24.85 20 24.9 19.9
L 25.2 19.2 Z"/>
</g>

<g id="Layer0_0_MEMBER_5_MEMBER_19_FILL">
<path fill="#F5A480" stroke="none" d="
M 0.7 2.35
L 0 0 0.55 2.5 0 4.1 0.05 4.25 0.2 4.25
Q 0.3 3.55 0.7 2.35 Z"/>
</g>

<g id="Layer0_0_MEMBER_5_MEMBER_20_FILL">
<path fill="#F5A480" stroke="none" d="
M 0.6 1.75
L 0.05 0 0.35 2.15 0 3.75 0.4 3.45 0.6 1.75 Z"/>
</g>

<g id="Layer0_0_MEMBER_5_MEMBER_21_FILL">
<path fill="#F5A480" stroke="none" d="
M 0.25 2.95
L 0.45 2.25 0.4 1.6 0 0 0.2 1.5 0.1 3.1 0.25 2.95 Z"/>
</g>

<g id="Layer0_0_MEMBER_5_MEMBER_22_FILL">
<path fill="#FD8839" stroke="none" d="
M 393.95 152.1
Q 392.95 151.5 390.9 151.45 389.7 151.4 389.1 153.5 388.6 155.25 388.85 156.85 388.9 157.35 389.2 161.35 389.45 164.6 389.55 164.6 389.65 164.6 395.15 164.3 396.95 164.15 398 163.95 397.6 160.85 396.5 156.2 395.8 153.1 393.95 152.1 Z"/>
</g>

<g id="Layer0_0_MEMBER_5_MEMBER_23_FILL">
<path fill="#FBC7AC" stroke="none" d="
M 399.95 135.65
Q 399.3 136.4 398.6 137.2 397.25 138.9 397.2 139.35 397.15 140.1 397.6 141.7
L 398.4 144.3
Q 398.95 146.15 400 146.95 401.35 147.95 403.2 148.65 404.25 149 405 148.45 405.3 148.2 405.5 147.4
L 405.65 146.6 405.9 146.35 406.25 145.75
Q 406.8 145.65 406.6 144.85 406.65 143.4 406.75 142.9 406.85 142.5 407.4 141.65 407.55 141.45 407.55 138.7 407.55 137.45 407.2 136.7
L 406.85 136.15 399.95 135.65 Z"/>
</g>

<g id="Layer0_0_MEMBER_5_MEMBER_24_FILL">
<path fill="#492728" stroke="none" d="
M 404.55 132.75
L 403.9 132.55 404.7 132.2
Q 401.55 131.95 400.35 132 399.15 132 398.15 132.5 396.8 133.1 396.35 134.4 395.85 135.65 395.8 136.7 395.75 137.3 395.9 138.6 396.15 140.15 396.55 141.4 396.6 141.5 396.95 141.6
L 397.1 141.2
Q 397.4 140.8 398.15 140.65 399.35 140.45 399.15 142.7
L 399.8 142.95 400.2 141.8
Q 400.3 141.65 401.4 141.1 401.55 140.95 402.15 139.75 402.15 139.7 403.05 139.8 404.2 139.95 404.85 139.9 406.05 139.8 406.9 139.1
L 407.55 138.5 407.9 139.35 408 137.7 407.8 136.45
Q 407.9 136.55 407.75 135.9 407.25 134.2 405.9 133.4 405.3 133 404.55 132.75 Z"/>
</g>

<g id="Layer0_0_MEMBER_5_MEMBER_25_FILL">
<path fill="#FED6C1" stroke="none" d="
M 398.7 143.55
L 398.9 141.65
Q 398.4 140.6 397.6 140.45 396.8 140.3 396.65 141.3 396.6 141.7 397.4 143.15 397.55 143.55 398.1 143.75 398.5 143.9 398.7 143.55 Z"/>
</g>

<g id="Layer0_0_MEMBER_5_MEMBER_26_FILL">
<path fill="#FED6C1" stroke="none" d="
M 404.05 140.3
Q 403 140.3 402.5 140.15 402.35 140.1 401.8 140.8 401.2 141.55 401.1 141.6 400.85 141.7 400.55 142.15 400.25 142.55 400.2 142.8 400.15 143.15 401.5 145.1 401.6 145.4 402.15 145.6 402.65 145.8 403.05 145.8 403.6 145.85 404.3 144.75
L 403.25 144.6
Q 403 144.55 402.45 144.05 401.85 143.55 401.85 143.35 401.9 143 401.9 142.85 402 142.6 402.25 142.6 402.7 142.65 405.85 142.1 406.05 141.85 406.15 141.35
L 406.1 139.75
Q 405.5 140.3 404.05 140.3 Z"/>
</g>

<g id="Layer0_0_MEMBER_5_MEMBER_27_FILL">
<path fill="#FED6C1" stroke="none" d="
M 405.8 141.4
L 405.6 141.5 405.7 143.05
Q 405.4 144.45 405.3 144.55
L 405.1 145.2
Q 406.25 145.75 406.35 145.3 406.4 145.05 406.2 143.7 406 142.3 406 141.9 406 141.4 405.8 141.4 Z"/>
</g>

<g id="Layer0_0_MEMBER_6_FILL">
<path fill="#4577C6" stroke="none" d="
M 392.65 147.95
L 392 148.15 391.55 148.6 390.9 149.5 391.6 149.35
Q 392.4 149.25 393 149.45 395.7 150.3 397.25 151.85 398.95 153.5 400.3 159.3 401 162.2 401.35 164.75
L 403.2 164.1
Q 402.95 161.75 402.35 159 401.1 153.5 399.2 151.35 397 148.85 393.9 147.9 393.4 147.75 392.65 147.95 Z"/>
</g>

<g id="Layer0_0_MEMBER_7_FILL">
<path fill="#FD8839" stroke="none" d="
M 402.75 162.95
Q 402.65 162.35 402.1 162.55 401.5 162.75 401.6 163.3 401.7 163.9 402.25 163.7 402.85 163.5 402.75 162.95 Z"/>
</g>

<g id="Layer0_0_MEMBER_8_FILL">
<path fill="#4577C6" stroke="none" d="
M 402.85 169.75
Q 403 169.85 404.95 170.2 405.9 170.35 406.85 170.5
L 409.1 167.7
Q 409.25 167.55 409.15 165.3 409 163.1 408.85 162.85 408.65 162.55 405.45 163.75 402.25 165 402.35 165.55
L 402.45 167.5
Q 402.65 169.55 402.85 169.75 Z"/>
</g>

<g id="Layer0_0_MEMBER_9_FILL">
<path fill="#6799E8" stroke="none" d="
M 402.4 166.6
Q 402.5 166.75 404.35 166.65 406.15 166.6 406.25 166.5 409.15 164.35 409.1 164.05 409.1 162.65 409 162.6 408.2 162.6 403 164.7 402.8 164.8 402.6 164.95 402.15 165.25 402.15 165.45 402.15 166.25 402.4 166.6 Z"/>
</g>
</defs>

<g transform="matrix( 7, 0, 0, 7, 332.3,673.9) ">
<use xlink:href="#Layer0_0_MEMBER_0_MEMBER_0_FILL"/>
</g>

<g transform="matrix( 7, 0, 0, 7, -2379.15,-756.55) ">
<use xlink:href="#Layer0_0_MEMBER_0_MEMBER_1_FILL"/>
</g>

<g transform="matrix( 7, 0, 0, 7, -2379.15,-756.55) ">
<use xlink:href="#Layer0_0_MEMBER_0_MEMBER_2_FILL"/>
</g>

<g transform="matrix( 7, 0, 0, 7, -2379.15,-756.55) ">
<use xlink:href="#Layer0_0_MEMBER_0_MEMBER_3_FILL"/>
</g>

<g transform="matrix( 7, 0, 0, 7, -2379.15,-756.55) ">
<use xlink:href="#Layer0_0_MEMBER_0_MEMBER_4_FILL"/>
</g>

<g transform="matrix( 7, 0, 0, 7, -2379.15,-756.55) ">
<use xlink:href="#Layer0_0_MEMBER_0_MEMBER_5_FILL"/>
</g>

<g transform="matrix( 7, 0, 0, 7, 437.65,530.4) ">
<use xlink:href="#Layer0_0_MEMBER_0_MEMBER_6_FILL"/>
</g>

<g transform="matrix( 7, 0, 0, 7, -2379.15,-756.55) ">
<use xlink:href="#Layer0_0_MEMBER_0_MEMBER_7_FILL"/>
</g>

<g transform="matrix( 7, 0, 0, 7, 439.4,475.1) ">
<use xlink:href="#Layer0_0_MEMBER_0_MEMBER_8_FILL"/>
</g>

<g transform="matrix( 7, 0, 0, 7, 362.05,508.7) ">
<use xlink:href="#Layer0_0_MEMBER_0_MEMBER_9_FILL"/>
</g>

<g transform="matrix( 7, 0, 0, 7, -2379.15,-756.55) ">
<use xlink:href="#Layer0_0_MEMBER_1_MEMBER_0_FILL"/>
</g>

<g transform="matrix( 7, 0, 0, 7, -2379.15,-756.55) ">
<use xlink:href="#Layer0_0_MEMBER_1_MEMBER_1_FILL"/>
</g>

<g transform="matrix( 7, 0, 0, 7, -2379.15,-756.55) ">
<use xlink:href="#Layer0_0_MEMBER_1_MEMBER_2_FILL"/>
</g>

<g transform="matrix( 7, 0, 0, 7, -2379.15,-756.55) ">
<use xlink:href="#Layer0_0_MEMBER_1_MEMBER_3_FILL"/>
</g>

<g transform="matrix( 7, 0, 0, 7, -2379.15,-756.55) ">
<use xlink:href="#Layer0_0_MEMBER_1_MEMBER_4_FILL"/>
</g>

<g transform="matrix( 7, 0, 0, 7, -2379.15,-756.55) ">
<use xlink:href="#Layer0_0_MEMBER_2_MEMBER_0_FILL"/>
</g>

<g transform="matrix( 7, 0, 0, 7, -2379.15,-756.55) ">
<use xlink:href="#Layer0_0_MEMBER_2_MEMBER_1_FILL"/>
</g>

<g transform="matrix( 7, 0, 0, 7, -2379.15,-756.55) ">
<use xlink:href="#Layer0_0_MEMBER_2_MEMBER_2_FILL"/>
</g>

<g transform="matrix( 7, 0, 0, 7, -2379.15,-756.55) ">
<use xlink:href="#Layer0_0_MEMBER_2_MEMBER_3_FILL"/>
</g>

<g transform="matrix( 7, 0, 0, 7, -2379.15,-756.55) ">
<use xlink:href="#Layer0_0_MEMBER_2_MEMBER_4_FILL"/>
</g>

<g transform="matrix( 7, 0, 0, 7, -2379.15,-756.55) ">
<use xlink:href="#Layer0_0_MEMBER_2_MEMBER_5_FILL"/>
</g>

<g transform="matrix( 7, 0, 0, 7, -2379.15,-756.55) ">
<use xlink:href="#Layer0_0_MEMBER_2_MEMBER_6_FILL"/>
</g>

<g transform="matrix( 7, 0, 0, 7, -2379.15,-756.55) ">
<use xlink:href="#Layer0_0_MEMBER_2_MEMBER_7_FILL"/>
</g>

<g transform="matrix( 7, 0, 0, 7, -2379.15,-756.55) ">
<use xlink:href="#Layer0_0_MEMBER_2_MEMBER_8_FILL"/>
</g>

<g transform="matrix( 7, 0, 0, 7, -2379.15,-756.55) ">
<use xlink:href="#Layer0_0_MEMBER_2_MEMBER_9_FILL"/>
</g>

<g transform="matrix( 7, 0, 0, 7, -2379.15,-756.55) ">
<use xlink:href="#Layer0_0_MEMBER_2_MEMBER_10_FILL"/>
</g>

<g transform="matrix( 7, 0, 0, 7, -2379.15,-756.55) ">
<use xlink:href="#Layer0_0_MEMBER_2_MEMBER_11_FILL"/>
</g>

<g transform="matrix( 7, 0, 0, 7, -2379.15,-756.55) ">
<use xlink:href="#Layer0_0_MEMBER_2_MEMBER_12_FILL"/>
</g>

<g transform="matrix( 7, 0, 0, 7, -2379.15,-756.55) ">
<use xlink:href="#Layer0_0_MEMBER_2_MEMBER_13_FILL"/>
</g>

<g transform="matrix( 7, 0, 0, 7, -2379.15,-756.55) ">
<use xlink:href="#Layer0_0_MEMBER_2_MEMBER_14_FILL"/>
</g>

<g transform="matrix( 7, 0, 0, 7, -2379.15,-756.55) ">
<use xlink:href="#Layer0_0_MEMBER_2_MEMBER_15_FILL"/>
</g>

<g transform="matrix( 7, 0, 0, 7, -2379.15,-756.55) ">
<use xlink:href="#Layer0_0_MEMBER_2_MEMBER_16_FILL"/>
</g>

<g transform="matrix( 7, 0, 0, 7, -2379.15,-756.55) ">
<use xlink:href="#Layer0_0_MEMBER_2_MEMBER_17_FILL"/>
</g>

<g transform="matrix( 7, 0, 0, 7, -2379.15,-756.55) ">
<use xlink:href="#Layer0_0_MEMBER_2_MEMBER_18_FILL"/>
</g>

<g transform="matrix( 7, 0, 0, 7, -2379.15,-756.55) ">
<use xlink:href="#Layer0_0_MEMBER_2_MEMBER_19_FILL"/>
</g>

<g transform="matrix( 7, 0, 0, 7, -2379.15,-756.55) ">
<use xlink:href="#Layer0_0_MEMBER_2_MEMBER_20_FILL"/>
</g>

<g transform="matrix( 7, 0, 0, 7, -2379.15,-756.55) ">
<use xlink:href="#Layer0_0_MEMBER_2_MEMBER_21_FILL"/>
</g>

<g transform="matrix( 7, 0, 0, 7, -2379.15,-756.55) ">
<use xlink:href="#Layer0_0_MEMBER_2_MEMBER_22_FILL"/>
</g>

<g transform="matrix( 7, 0, 0, 7, -2379.15,-756.55) ">
<use xlink:href="#Layer0_0_MEMBER_2_MEMBER_23_FILL"/>
</g>

<g transform="matrix( 7, 0, 0, 7, -2379.15,-756.55) ">
<use xlink:href="#Layer0_0_MEMBER_2_MEMBER_24_FILL"/>
</g>

<g transform="matrix( 7, 0, 0, 7, -2379.15,-756.55) ">
<use xlink:href="#Layer0_0_MEMBER_2_MEMBER_25_FILL"/>
</g>

<g transform="matrix( 7, 0, 0, 7, -2379.15,-756.55) ">
<use xlink:href="#Layer0_0_MEMBER_2_MEMBER_26_FILL"/>
</g>

<g transform="matrix( 7, 0, 0, 7, -2379.15,-756.55) ">
<use xlink:href="#Layer0_0_MEMBER_2_MEMBER_27_FILL"/>
</g>

<g transform="matrix( 7, 0, 0, 7, -2379.15,-756.55) ">
<use xlink:href="#Layer0_0_MEMBER_2_MEMBER_28_FILL"/>
</g>

<g transform="matrix( 7, 0, 0, 7, -2379.15,-756.55) ">
<use xlink:href="#Layer0_0_MEMBER_2_MEMBER_29_FILL"/>
</g>

<g transform="matrix( 7, 0, 0, 7, -2379.15,-756.55) ">
<use xlink:href="#Layer0_0_MEMBER_2_MEMBER_30_FILL"/>
</g>

<g transform="matrix( 7, 0, 0, 7, -2379.15,-756.55) ">
<use xlink:href="#Layer0_0_MEMBER_2_MEMBER_31_FILL"/>
</g>

<g transform="matrix( 7, 0, 0, 7, -2379.15,-756.55) ">
<use xlink:href="#Layer0_0_MEMBER_2_MEMBER_32_FILL"/>
</g>

<g transform="matrix( 7, 0, 0, 7, -2379.15,-756.55) ">
<use xlink:href="#Layer0_0_MEMBER_2_MEMBER_33_FILL"/>
</g>

<g transform="matrix( 7, 0, 0, 7, -2379.15,-756.55) ">
<use xlink:href="#Layer0_0_MEMBER_2_MEMBER_34_FILL"/>
</g>

<g transform="matrix( 7, 0, 0, 7, -2379.15,-756.55) ">
<use xlink:href="#Layer0_0_MEMBER_2_MEMBER_35_MEMBER_0_FILL"/>
</g>

<g transform="matrix( 7, 0, 0, 7, -2379.15,-756.55) ">
<use xlink:href="#Layer0_0_MEMBER_2_MEMBER_35_MEMBER_1_FILL"/>
</g>

<g transform="matrix( 7, 0, 0, 7, -2379.15,-756.55) ">
<use xlink:href="#Layer0_0_MEMBER_2_MEMBER_35_MEMBER_2_FILL"/>
</g>

<g transform="matrix( 7, 0, 0, 7, -2379.15,-756.55) ">
<use xlink:href="#Layer0_0_MEMBER_2_MEMBER_35_MEMBER_3_FILL"/>
</g>

<g transform="matrix( 7, 0, 0, 7, -2379.15,-756.55) ">
<use xlink:href="#Layer0_0_MEMBER_2_MEMBER_35_MEMBER_4_FILL"/>
</g>

<g transform="matrix( 7, 0, 0, 7, -2379.15,-756.55) ">
<use xlink:href="#Layer0_0_MEMBER_2_MEMBER_35_MEMBER_5_FILL"/>
</g>

<g transform="matrix( 7, 0, 0, 7, -2379.15,-756.55) ">
<use xlink:href="#Layer0_0_MEMBER_2_MEMBER_35_MEMBER_6_FILL"/>
</g>

<g transform="matrix( 7, 0, 0, 7, -2379.15,-756.55) ">
<use xlink:href="#Layer0_0_MEMBER_2_MEMBER_35_MEMBER_7_FILL"/>
</g>

<g transform="matrix( 7, 0, 0, 7, -2379.15,-756.55) ">
<use xlink:href="#Layer0_0_MEMBER_2_MEMBER_35_MEMBER_8_FILL"/>
</g>

<g transform="matrix( 7, 0, 0, 7, -2379.15,-756.55) ">
<use xlink:href="#Layer0_0_MEMBER_2_MEMBER_35_MEMBER_9_FILL"/>
</g>

<g transform="matrix( 7, 0, 0, 7, -2379.15,-756.55) ">
<use xlink:href="#Layer0_0_MEMBER_2_MEMBER_35_MEMBER_10_FILL"/>
</g>

<g transform="matrix( 7, 0, 0, 7, -2379.15,-756.55) ">
<use xlink:href="#Layer0_0_MEMBER_2_MEMBER_36_MEMBER_0_FILL"/>
</g>

<g transform="matrix( 7, 0, 0, 7, -2379.15,-756.55) ">
<use xlink:href="#Layer0_0_MEMBER_2_MEMBER_36_MEMBER_1_FILL"/>
</g>

<g transform="matrix( 7, 0, 0, 7, -2379.15,-756.55) ">
<use xlink:href="#Layer0_0_MEMBER_2_MEMBER_36_MEMBER_2_FILL"/>
</g>

<g transform="matrix( 7, 0, 0, 7, -2379.15,-756.55) ">
<use xlink:href="#Layer0_0_MEMBER_2_MEMBER_36_MEMBER_3_FILL"/>
</g>

<g transform="matrix( 7, 0, 0, 7, -2379.15,-756.55) ">
<use xlink:href="#Layer0_0_MEMBER_2_MEMBER_36_MEMBER_4_FILL"/>
</g>

<g transform="matrix( 7, 0, 0, 7, -2379.15,-756.55) ">
<use xlink:href="#Layer0_0_MEMBER_2_MEMBER_36_MEMBER_5_FILL"/>
</g>

<g transform="matrix( 7, 0, 0, 7, -2379.15,-756.55) ">
<use xlink:href="#Layer0_0_MEMBER_2_MEMBER_36_MEMBER_6_FILL"/>
</g>

<g transform="matrix( 7, 0, 0, 7, -2379.15,-756.55) ">
<use xlink:href="#Layer0_0_MEMBER_2_MEMBER_36_MEMBER_7_FILL"/>
</g>

<g transform="matrix( 7, 0, 0, 7, -2379.15,-756.55) ">
<use xlink:href="#Layer0_0_MEMBER_2_MEMBER_36_MEMBER_8_FILL"/>
</g>

<g transform="matrix( 7, 0, 0, 7, -2379.15,-756.55) ">
<use xlink:href="#Layer0_0_MEMBER_2_MEMBER_36_MEMBER_9_FILL"/>
</g>

<g transform="matrix( 7, 0, 0, 7, -2379.15,-756.55) ">
<use xlink:href="#Layer0_0_MEMBER_2_MEMBER_36_MEMBER_10_FILL"/>
</g>

<g transform="matrix( 7, 0, 0, 7, -2379.15,-756.55) ">
<use xlink:href="#Layer0_0_MEMBER_2_MEMBER_37_FILL"/>
</g>

<g transform="matrix( 7, 0, 0, 7, -2379.15,-756.55) ">
<use xlink:href="#Layer0_0_MEMBER_2_MEMBER_38_FILL"/>
</g>

<g transform="matrix( 7, 0, 0, 7, -2379.15,-756.55) ">
<use xlink:href="#Layer0_0_MEMBER_2_MEMBER_39_FILL"/>
</g>

<g transform="matrix( 7, 0, 0, 7, -2379.15,-756.55) ">
<use xlink:href="#Layer0_0_MEMBER_2_MEMBER_40_FILL"/>
</g>

<g transform="matrix( 1, 0, 0, 1, 0,0) ">
<use xlink:href="#Layer0_0_MEMBER_3_FILL"/>
</g>

<g transform="matrix( 1, 0, 0, 1, 0,0) ">
<use xlink:href="#Layer0_0_MEMBER_4_FILL"/>
</g>

<g transform="matrix( 7, 0, 0, 7, -2379.15,-756.55) ">
<use xlink:href="#Layer0_0_MEMBER_5_MEMBER_0_FILL"/>
</g>

<g transform="matrix( 7, 0, 0, 7, -2379.15,-756.55) ">
<use xlink:href="#Layer0_0_MEMBER_5_MEMBER_1_MEMBER_0_FILL"/>
</g>

<g transform="matrix( 7, 0, 0, 7, -2379.15,-756.55) ">
<use xlink:href="#Layer0_0_MEMBER_5_MEMBER_1_MEMBER_1_FILL"/>
</g>

<g transform="matrix( 7, 0, 0, 7, -2379.15,-756.55) ">
<use xlink:href="#Layer0_0_MEMBER_5_MEMBER_1_MEMBER_2_FILL"/>
</g>

<g transform="matrix( 7, 0, 0, 7, -2379.15,-756.55) ">
<use xlink:href="#Layer0_0_MEMBER_5_MEMBER_2_FILL"/>
</g>

<g transform="matrix( 7, 0, 0, 7, 478.6,330.2) ">
<use xlink:href="#Layer0_0_MEMBER_5_MEMBER_3_FILL"/>
</g>

<g transform="matrix( 7, 0, 0, 7, -2379.15,-756.55) ">
<use xlink:href="#Layer0_0_MEMBER_5_MEMBER_4_FILL"/>
</g>

<g transform="matrix( 7, 0, 0, 7, -2379.15,-756.55) ">
<use xlink:href="#Layer0_0_MEMBER_5_MEMBER_5_FILL"/>
</g>

<g transform="matrix( 7, 0, 0, 7, -2379.15,-756.55) ">
<use xlink:href="#Layer0_0_MEMBER_5_MEMBER_6_FILL"/>
</g>

<g transform="matrix( 7, 0, 0, 7, -2379.15,-756.55) ">
<use xlink:href="#Layer0_0_MEMBER_5_MEMBER_7_FILL"/>
</g>

<g transform="matrix( 7, 0, 0, 7, -2379.15,-756.55) ">
<use xlink:href="#Layer0_0_MEMBER_5_MEMBER_8_FILL"/>
</g>

<g transform="matrix( 7, 0, 0, 7, -2379.15,-756.55) ">
<use xlink:href="#Layer0_0_MEMBER_5_MEMBER_9_FILL"/>
</g>

<g transform="matrix( 1, 0, 0, 1, 0,0) ">
<use xlink:href="#Layer0_0_MEMBER_5_MEMBER_10_FILL"/>
</g>

<g transform="matrix( 7, 0, 0, 7, -2379.15,-756.55) ">
<use xlink:href="#Layer0_0_MEMBER_5_MEMBER_11_FILL"/>
</g>

<g transform="matrix( 1, 0, 0, 1, 0,0) ">
<use xlink:href="#Layer0_0_MEMBER_5_MEMBER_12_FILL"/>
</g>

<g transform="matrix( 7, 0, 0, 7, -2379.15,-756.55) ">
<use xlink:href="#Layer0_0_MEMBER_5_MEMBER_13_FILL"/>
</g>

<g transform="matrix( 7, 0, 0, 7, 359.95,415.95) ">
<use xlink:href="#Layer0_0_MEMBER_5_MEMBER_14_FILL"/>
</g>

<g transform="matrix( 1, 0, 0, 1, 0,0) ">
<use xlink:href="#Layer0_0_MEMBER_5_MEMBER_15_FILL"/>
</g>

<g transform="matrix( 1, 0, 0, 1, 0,0) ">
<use xlink:href="#Layer0_0_MEMBER_5_MEMBER_16_FILL"/>
</g>

<g transform="matrix( 7, 0, 0, 7, -2379.15,-756.55) ">
<use xlink:href="#Layer0_0_MEMBER_5_MEMBER_17_FILL"/>
</g>

<g transform="matrix( 7, 0, 0, 7, 351.2,375.35) ">
<use xlink:href="#Layer0_0_MEMBER_5_MEMBER_18_FILL"/>
</g>

<g transform="matrix( 7, 0, 0, 7, 576.25,418.05) ">
<use xlink:href="#Layer0_0_MEMBER_5_MEMBER_19_FILL"/>
</g>

<g transform="matrix( 7, 0, 0, 7, 582.55,418.05) ">
<use xlink:href="#Layer0_0_MEMBER_5_MEMBER_20_FILL"/>
</g>

<g transform="matrix( 7, 0, 0, 7, 587.45,417.35) ">
<use xlink:href="#Layer0_0_MEMBER_5_MEMBER_21_FILL"/>
</g>

<g transform="matrix( 7, 0, 0, 7, -2379.15,-756.55) ">
<use xlink:href="#Layer0_0_MEMBER_5_MEMBER_22_FILL"/>
</g>

<g transform="matrix( 7, 0, 0, 7, -2379.15,-756.55) ">
<use xlink:href="#Layer0_0_MEMBER_5_MEMBER_23_FILL"/>
</g>

<g transform="matrix( 7, 0, 0, 7, -2379.15,-756.55) ">
<use xlink:href="#Layer0_0_MEMBER_5_MEMBER_24_FILL"/>
</g>

<g transform="matrix( 7, 0, 0, 7, -2379.15,-756.55) ">
<use xlink:href="#Layer0_0_MEMBER_5_MEMBER_25_FILL"/>
</g>

<g transform="matrix( 7, 0, 0, 7, -2379.15,-756.55) ">
<use xlink:href="#Layer0_0_MEMBER_5_MEMBER_26_FILL"/>
</g>

<g transform="matrix( 7, 0, 0, 7, -2379.15,-756.55) ">
<use xlink:href="#Layer0_0_MEMBER_5_MEMBER_27_FILL"/>
</g>

<g transform="matrix( 7, 0, 0, 7, -2379.15,-756.55) ">
<use xlink:href="#Layer0_0_MEMBER_6_FILL"/>
</g>

<g transform="matrix( 7, 0, 0, 7, -2379.15,-756.55) ">
<use xlink:href="#Layer0_0_MEMBER_7_FILL"/>
</g>

<g transform="matrix( 7, 0, 0, 7, -2379.15,-756.55) ">
<use xlink:href="#Layer0_0_MEMBER_8_FILL"/>
</g>

<g transform="matrix( 7, 0, 0, 7, -2379.15,-756.55) ">
<use xlink:href="#Layer0_0_MEMBER_9_FILL"/>
</g>
</svg>
