
<svg xmlns="http://www.w3.org/2000/svg" version="1.1" xmlns:xlink="http://www.w3.org/1999/xlink" preserveAspectRatio="none" x="0px" y="0px" width="1024px" height="1024px" viewBox="0 0 1024 1024">
<defs>
<g id="Layer0_0_MEMBER_0_FILL">
<path fill="#CCC0BC" stroke="none" d="
M 80.2 4
Q 77.3 1.2 71.85 0.3 66.4 -0.6 61.55 0.95 56.2 2.7 55.05 6.15
L 43.75 2.5 2.3 26 5.4 27.6 7.9 28.3
Q 3.2 30.25 1.15 33.5 -0.95 36.85 0.6 40.05 2.4 43.7 7.8 45.15 13.2 46.6 19.05 45 24.9 43.45 27.8 39.75 30.65 36.05 28.9 32.4 27.8 30.25 25.25 28.75
L 56.35 11.1 56.7 11.5
Q 59.6 14.3 65.05 15.2 70.5 16.1 75.4 14.55 80.3 13 81.7 9.9 83.1 6.8 80.2 4 Z"/>
</g>

<g id="Layer0_0_MEMBER_1_MEMBER_0_FILL">
<path fill="#FD8839" stroke="none" d="
M 201.85 375.85
Q 200.6 375.5 199.3 375.25 196.65 374.75 196.4 375.35 196.1 375.95 195.9 378.45
L 195.75 381.4
Q 195.75 382.05 197.05 382.7 198.3 383.25 199.45 383.35 200.9 383.4 202.95 383.3 205.4 383.15 205.85 382.9
L 210.5 380.05 209.75 371.9 209.35 372.1
Q 208.7 372.4 208.25 372.95
L 208.2 373
Q 207.65 373.6 206.7 374.25 205.55 375.05 204.8 375.15
L 201.85 375.85 Z"/>
</g>

<g id="Layer0_0_MEMBER_1_MEMBER_1_FILL">
<path fill="#FBC7AC" stroke="none" d="
M 201.3 361.8
Q 201.05 362.25 201.8 366.5 202.5 370.75 202.85 370.7 203.15 370.65 203.7 369.85 204.15 369.2 204.25 368.85 204.35 368.65 204.55 367.6 204.75 366.5 204.7 366.3
L 204.55 365.6 204.4 362.55 203.6 358.9 202.55 360.15
Q 201.5 361.45 201.3 361.8 Z"/>
</g>

<g id="Layer0_0_MEMBER_1_MEMBER_2_FILL">
<path fill="#EC5417" stroke="none" d="
M 11.65 0
L 11.65 1.9
Q 11.75 2 10.05 4.15 6.25 4.35 5.8 4.25
L 2.5 3.6 0.15 0.85 0 3.8
Q 0 4.45 1.3 5.1 2.55 5.65 3.7 5.75 5.15 5.8 7.2 5.7 9.65 5.55 10.1 5.3
L 14.75 2.45 14.55 0.65 12.9 1.45 11.65 0 Z"/>
</g>

<g id="Layer0_0_MEMBER_1_MEMBER_3_FILL">
<path fill="#2F2720" stroke="none" d="
M 162.15 473.85
Q 163.45 473.6 163.9 473.4 164.5 473.15 164.7 472.9 164.95 472.65 165.35 471.8 165.7 471.1 165.55 470.4
L 165.35 469.9 162.2 469.55 155.7 469.55 154.7 473.3
Q 154.6 474.4 155.5 474.65 155.8 474.75 156.85 474.6 157.85 474.5 158.1 474.35 158.2 474.3 159.05 474.25 160 474.2 160.4 474.1 160.8 474.05 162.15 473.85 Z"/>
</g>

<g id="Layer0_0_MEMBER_1_MEMBER_4_FILL">
<path fill="#2F2720" stroke="none" d="
M 165.6 462
Q 166.05 461.7 166 461.05 165.9 460.4 165.25 460.2 164.65 460 163.9 460
L 163.25 460 160.15 460.4 158.8 464.75 161.8 463.4
Q 165 462.4 165.6 462 Z"/>
</g>

<g id="Layer0_0_MEMBER_1_MEMBER_5_FILL">
<path fill="#3761A1" stroke="none" d="
M 151 434.2
Q 150.95 436.05 151.75 437.65 152.4 438.9 154.25 441.05 155.8 442.85 155.9 443.55 156 444.45 158.05 444.85 159.1 445.05 160.1 445.1 159.8 442.15 159.45 439.15 158.8 433.25 158.6 433.2
L 151.15 432.7 151 434.2 Z"/>
</g>

<g id="Layer0_0_MEMBER_1_MEMBER_6_FILL">
<path fill="#3761A1" stroke="none" d="
M 165.85 444.75
Q 167.1 437 166.45 434.55 166.1 433.05 159.5 432.95
L 153 433.1 152.95 433.2
Q 152.1 435.95 153 437.9
L 153.5 438.9 154.85 440.95
Q 155.7 442.25 155.65 442.7 155.55 443.5 155.9 445.45
L 155.9 454.5
Q 155.9 455.55 155.45 457.25 154.9 459.25 154.7 461.9 154.45 464.7 154.7 470.15
L 155.95 470.75
Q 157.35 471.15 158.6 470.65
L 160.75 469.8
Q 162 458.55 161.9 457.2 161.8 456.4 163.8 450.5
L 165.85 444.75 Z"/>
</g>

<g id="Layer0_0_MEMBER_1_MEMBER_7_FILL">
<path fill="#17377A" stroke="none" d="
M 0.25 0
Q 1.1 1.3 1.05 1.75 0.95 2.55 1.3 4.5 1.35 11.2 1.3 13.55 1.3 14.6 0.85 16.3 0.3 18.3 0.1 20.95 -0.15 23.75 0.1 29.2 0.6 29.55 1.35 29.8 1.45 28.3 1.25 25.15 0.95 21.5 0.95 20.7 0.95 18.95 1.35 17.05 1.85 15.3 1.9 14.7 2.05 14 2.05 10.75
L 2 7.65
Q 2.4 4.45 2 2.9 1.85 2.3 0.25 0 Z"/>
</g>

<g id="Layer0_0_MEMBER_1_MEMBER_8_FILL">
<path fill="#FD8839" stroke="none" d="
M 168.3 401.85
L 167.1 402.5 159.6 402.05
Q 159.25 402.05 157.4 403.4 156.5 404.05 155.65 404.7
L 160.75 410.15 163.7 409.75
Q 168.15 409.1 168.65 408.85 169 408.65 170.5 406.65
L 175.05 399.65
Q 175.45 398.95 170.4 395.9
L 168.3 401.85 Z"/>
</g>

<g id="Layer0_0_MEMBER_1_MEMBER_9_FILL">
<path fill="#EC5417" stroke="none" d="
M 0 3.1
Q 4.45 2.45 4.95 2.2 5.3 2 6.8 0
L 4.9 1.7
Q 4.7 1.9 1.9 2.45
L 0 3.1 Z"/>
</g>

<g id="Layer0_0_MEMBER_1_MEMBER_10_FILL">
<path fill="#EC5417" stroke="none" d="
M 17.05 7.5
L 19.4 3.75
Q 19.8 3.05 14.75 0
L 12.65 5.95 11.45 6.6 3.95 6.15
Q 3.6 6.15 1.75 7.5 0.85 8.15 0 8.8
L 3.25 12.25
Q 5.05 12.45 6.45 11.95 8.9 11.3 9.3 11.1 9.75 10.85 12.45 10.8
L 17.1 6.95 17.05 7.5 Z"/>
</g>

<g id="Layer0_0_MEMBER_1_MEMBER_11_FILL">
<path fill="#F6562A" stroke="none" d="
M 166.65 436.65
L 167.25 432.2
Q 167.3 426.95 166.8 422.25
L 165.7 411.3
Q 165.65 410.75 164.05 408.75
L 162.45 406.85
Q 160.35 403.55 158.45 402.5 157.25 401.85 154.65 401.7
L 152.35 401.7 151.75 402.5 151.75 402.55
Q 149.75 405.15 149.55 406.05 149.3 407.45 149.35 409.8 149.4 413.6 150.25 417.5 151.1 421.4 151.05 422.9 151 423.85 150.65 425.9 150.4 428.9 150.95 433.2
L 151.1 433.8
Q 151.45 434.6 152.65 435.45 154.6 436.8 157.95 437.5 162.3 438.4 164.9 437.6 166.2 437.25 166.65 436.65 Z"/>
</g>

<g id="Layer0_0_MEMBER_1_MEMBER_12_FILL">
<path fill="#D8AE6F" stroke="none" d="
M 203.8 383.9
L 203.8 351.6 170.1 370.7 170.1 403.05 203.8 383.9 Z"/>
</g>

<g id="Layer0_0_MEMBER_1_MEMBER_13_FILL">
<path fill="#EED899" stroke="none" d="
M 201.35 356.45
L 172.5 372.8 172.5 398.8 201.35 382.45 201.35 356.45 Z"/>
</g>

<g id="Layer0_0_MEMBER_1_MEMBER_14_FILL">
<path fill="#9B5E3A" stroke="none" d="
M 201.35 382.45
L 201.35 356.45 200.25 357.05 200.25 381.9 201.35 382.45 Z"/>
</g>

<g id="Layer0_0_MEMBER_1_MEMBER_15_FILL">
<path fill="#C18D59" stroke="none" d="
M 200.25 357.05
L 172.5 372.8 172.5 397.65 200.25 381.9 200.25 357.05 Z"/>
</g>

<g id="Layer0_0_MEMBER_1_MEMBER_16_FILL">
<path fill="#D6D6D6" stroke="none" d="
M 173.75 391.8
L 173.75 395.95 178.65 393.1 178.65 388.95 173.75 391.8 Z"/>
</g>

<g id="Layer0_0_MEMBER_1_MEMBER_17_FILL">
<path fill="#6F6F6F" stroke="none" d="
M 174 392.1
L 174 392.4 178.4 389.85 178.4 389.6 174 392.1 Z"/>
</g>

<g id="Layer0_0_MEMBER_1_MEMBER_18_FILL">
<path fill="#8E8E8E" stroke="none" d="
M 175.85 392.25
L 175.85 392.5 178.4 391 178.4 390.75 175.85 392.25 Z"/>
</g>

<g id="Layer0_0_MEMBER_1_MEMBER_19_FILL">
<path fill="#8E8E8E" stroke="none" d="
M 174.05 393.05
L 174.05 395.25 175.35 394.5 175.35 392.25 174.05 393.05 Z"/>
</g>

<g id="Layer0_0_MEMBER_1_MEMBER_20_FILL">
<path fill="#8E8E8E" stroke="none" d="
M 175.85 392.8
L 175.85 393.05 178.4 391.6 178.4 391.3 175.85 392.8 Z"/>
</g>

<g id="Layer0_0_MEMBER_1_MEMBER_21_FILL">
<path fill="#8E8E8E" stroke="none" d="
M 175.85 393.35
L 175.85 393.6 178.4 392.15 178.4 391.9 175.85 393.35 Z"/>
</g>

<g id="Layer0_0_MEMBER_1_MEMBER_22_FILL">
<path fill="#8E8E8E" stroke="none" d="
M 175.85 393.95
L 175.85 394.2 178.4 392.7 178.4 392.45 175.85 393.95 Z"/>
</g>

<g id="Layer0_0_MEMBER_1_MEMBER_23_MEMBER_0_MEMBER_0_FILL">
<path fill="#525252" stroke="none" d="
M 195.2 361.2
L 195.2 367.15 199.25 364.8 199.25 358.9 195.2 361.2
M 198.85 359.55
L 198.85 364.6 195.6 366.5 195.6 361.45 198.85 359.55 Z"/>
</g>

<g id="Layer0_0_MEMBER_1_MEMBER_23_MEMBER_1_MEMBER_0_FILL">
<path fill="#525252" stroke="none" d="
M 198 364.25
L 198 362.6 196.65 363.4 196.65 365.05 198 364.25 Z"/>
</g>

<g id="Layer0_0_MEMBER_1_MEMBER_23_MEMBER_1_MEMBER_1_FILL">
<path fill="#525252" stroke="none" d="
M 198.65 362.25
L 197.3 361 195.95 363.8 198.65 362.25 Z"/>
</g>

<g id="Layer0_0_MEMBER_1_MEMBER_24_FILL">
<path fill="#9B5E3A" stroke="none" d="
M 170.1 370.7
L 166.2 368.45 166.2 400.8 170.1 403.05 170.1 370.7 Z"/>
</g>

<g id="Layer0_0_MEMBER_1_MEMBER_25_FILL">
<path fill="#EED899" stroke="none" d="
M 166.2 368.45
L 170.1 370.7 203.8 351.6 199.9 349.35 166.2 368.45 Z"/>
</g>

<g id="Layer0_0_MEMBER_1_MEMBER_26_FILL">
<path fill="#FBC7AC" stroke="none" d="
M 161.1 394.25
Q 161.1 393.55 159.9 391.75
L 159.85 391.6 158.75 390 157.7 391.45
Q 156.55 392.95 156.05 393.4 155.45 393.9 154.45 397 153.45 399.95 153.3 401.45
L 153.2 402.5
Q 153.2 403.5 153.5 403.65 153.6 403.7 154.65 404.1 155.95 404.55 157.05 404.75 158.9 405.15 159.6 405
L 160.2 401.25
Q 160.2 400.95 160.9 400.5 161.2 400.3 161.3 400.15 161.6 399.85 162.05 398.8 162.15 398.6 161.65 396.8 161.1 394.85 161.1 394.25 Z"/>
</g>

<g id="Layer0_0_MEMBER_1_MEMBER_27_FILL">
<path fill="#F5A480" stroke="none" d="
M 0.25 0.3
L 0 3.25 1.4 6.85 1.7 8.85
Q 2 8.55 2.45 7.5 2.55 7.3 2.05 5.5 1.5 3.55 1.5 2.95 1.5 2.25 0.3 0.45
L 0.25 0 0.25 0.3 Z"/>
</g>

<g id="Layer0_0_MEMBER_1_MEMBER_28_FILL">
<path fill="#FBC7AC" stroke="none" d="
M 165.05 393.85
Q 164.8 393.95 164.75 394.3 164.6 394.85 166.1 397.85
L 166.1 399.2 167.25 400.25
Q 168.45 401.25 168.55 401.55 170.2 405.7 170.6 406.55
L 170.8 406.95
Q 170.95 407.2 174.3 405.45
L 172.35 400.25
Q 172.55 398.5 172.2 397.95
L 171.95 397.2
Q 172.35 393.4 172.05 393.1 171.8 392.8 171.4 393.1
L 171.25 393.4 170.65 396.7 170.55 393.4
Q 170.55 392.6 170 392.45 169.8 392.4 169.6 392.75 169.4 393.35 169.5 394.5 169.2 396.75 169.15 396.75 169.1 396.8 168.85 396.75
L 167.25 393.5
Q 167.15 393.45 167 393.4 166.75 393.3 166.65 393.35 166.45 393.45 166.3 393.75
L 166.2 394.25
Q 166.2 394.5 166.9 396.2 167.2 397 167.55 397.8
L 167.45 397.85 166.3 395.75 166.3 395.7 165.35 393.95
Q 165.25 393.8 165.05 393.85 Z"/>
</g>

<g id="Layer0_0_MEMBER_1_MEMBER_29_FILL">
<path fill="#E43513" stroke="none" d="
M 8.2 7.15
L 9.4 7.35 8.75 0.7 6.15 0 0 2.85
Q 2.35 5.65 3.1 6.2 3.8 6.75 8.2 7.15 Z"/>
</g>

<g id="Layer0_0_MEMBER_1_MEMBER_30_FILL">
<path fill="#E43513" stroke="none" d="
M 3.25 18.05
Q 3.35 17.1 2.4 13.25 1.4 9.45 1.35 9.15
L 0.8 4
Q 1.65 1.05 2.4 0 0.4 2.6 0.2 3.5 -0.05 4.9 0 7.25 0.05 11.05 0.9 14.95 1.75 18.85 1.7 20.35 1.65 21.3 1.3 23.35 1.05 26.35 1.6 30.65
L 1.75 31.25
Q 2.1 32.05 3.3 32.9
L 3.45 31.2
Q 3.55 30.9 3.45 30 3.4 29.25 3.25 28.8 3.15 28.5 4.05 26.45
L 5 24.5 2.4 25.6 3.25 18.05 Z"/>
</g>

<g id="Layer0_0_MEMBER_1_MEMBER_31_FILL">
<path fill="#3761A1" stroke="none" d="
M 153.45 402.25
Q 154.1 402 154.65 402.05
L 155.1 401.25
Q 154 401.45 152.6 401.9 150.7 402.6 150.25 407.55 150 410 150.4 414.3 150.8 418.45 151.4 420.6 152.2 423.35 154.35 429.55 154.65 430.35 154.35 431.1
L 156.05 431.75 155.95 430.4
Q 155.9 429.75 154.45 426.1 152.75 421.85 152.2 419.95 151.45 417.35 151.4 411.65 151.4 406.45 151.85 404.3 152.2 402.75 153.45 402.25 Z"/>
</g>

<g id="Layer0_0_MEMBER_1_MEMBER_32_FILL">
<path fill="#492728" stroke="none" d="
M 151.7 389.45
Q 150.6 390.1 150.15 390.7 149.9 391.05 149.5 392.2 149 393.65 148.7 394.3 147.9 396 149.4 398.5 150.15 399.7 153.2 402.5
L 153.25 402.5 155.35 402.05
Q 155.9 401.85 156.5 401.05 156.8 400.7 157.25 399.45 157.7 398.2 157.65 397.95 157.6 397.75 158 397.25 158.35 396.75 158.65 396.55 158.85 396.45 159.4 396.75 159.65 396.9 159.85 397.05
L 160.2 396.65 159.75 395.45 159.85 395.15 160.2 393.65 159.85 391.3 159.85 390.9
Q 159.8 390.4 159.1 389.4
L 158.4 388.45 154.6 388.65
Q 153.1 388.7 151.7 389.45 Z"/>
</g>

<g id="Layer0_0_MEMBER_1_MEMBER_33_FILL">
<path fill="#FED6C1" stroke="none" d="
M 159.25 398.05
L 159.3 397.25
Q 159.05 396.95 158.9 396.95 158.8 396.9 158.6 397.15 158.5 397.25 158.4 397.35
L 158.25 397.9
Q 158.15 398.6 158.5 399.15 159.1 400 159.55 399.5 159.7 399.4 159.5 398.8 159.3 398.2 159.25 398.05 Z"/>
</g>

<g id="Layer0_0_MEMBER_1_MEMBER_34_FILL">
<path fill="#F5A480" stroke="none" d="
M 0 0.5
Q 0 0.75 0.7 2.45 1 3.25 1.35 4.05
L 1.25 4.1 0.1 2 0.8 3.75 1.75 5.35 1.5 4 0.55 1.5
Q 0.25 0.55 0.1 0
L 0 0.5 Z"/>
</g>

<g id="Layer0_0_MEMBER_1_MEMBER_35_FILL">
<path fill="#F5A480" stroke="none" d="
M 0.3 4
Q 0.25 4.05 0 4 0.55 4.9 0.65 4.7 0.8 4.5 0.65 2.85
L 0.75 0
Q 0.55 0.6 0.65 1.75 0.35 4 0.3 4 Z"/>
</g>

<g id="Layer0_0_MEMBER_1_MEMBER_36_FILL">
<path fill="#F5A480" stroke="none" d="
M 1.4 4.9
L 2.55 5.95
Q 3.75 6.95 3.85 7.25 5.5 11.4 5.9 12.25
L 6.2 11.75 4.8 8.1
Q 4.7 7.75 4.85 7.4
L 5.05 7.1 3.25 5.85 1.8 4.4
Q 0.15 0.65 0.05 0 -0.1 0.55 1.4 3.55
L 1.4 4.9 Z"/>
</g>

<g id="Layer0_0_MEMBER_1_MEMBER_37_FILL">
<path fill="#F5A480" stroke="none" d="
M 0.6 2.15
Q 0.6 1.05 0.75 0
L 0.6 0.3 0 3.6 0.05 4.1
Q 0.6 2.5 0.6 2.15 Z"/>
</g>

<g id="Layer0_0_MEMBER_1_MEMBER_38_FILL">
<path fill="#FD8839" stroke="none" d="
M 169.8 405.35
Q 169.6 405.35 169.9 406.9 170.3 408.85 170.3 409.55 170.3 411 170.75 412.4 165.95 410.15 162.65 409.4 159.95 408.75 158.55 409.45 156.9 410.25 156.4 413.2 156.05 415.25 156.7 416.7 157.1 417.6 157.85 418.15 158.35 418.5 158.6 418.5 158.75 418.5 162.75 419.2 167.1 419.9 169.05 419.8 171.2 419.7 173.85 418.95 176.15 418.35 176.95 417.8 177.55 417.4 177.6 416.7 177.6 416.2 177.35 415.2
L 176.75 412.45 176.75 412.4 175.15 404.3 169.8 405.35 Z"/>
</g>

<g id="Layer0_0_MEMBER_1_MEMBER_39_FILL">
<path fill="#EC5417" stroke="none" d="
M 20.25 3.7
Q 20.85 3.3 20.9 2.6 20.9 2.1 20.65 1.1
L 20.4 0
Q 20.8 2.05 20.75 2.6 20.7 3.45 17.05 4.45 16 4.85 12.55 5 11.7 5.05 10.2 5 8.85 4.95 8 4.8 4.6 4.2 3.5 3.95 1.75 3.5 0 2.6 0.4 3.5 1.15 4.05 1.65 4.4 1.9 4.4 9.2 5.85 12.35 5.7 14.5 5.6 17.15 4.85 19.45 4.25 20.25 3.7 Z"/>
</g>

<g id="Layer0_0_MEMBER_1_MEMBER_40_FILL">
<path fill="#EC5417" stroke="none" d="
M 0.2 1.65
Q 0.6 3.6 0.6 4.3 0.6 5.75 1.05 7.15
L 1.55 9.05
Q 1.7 9.35 2.25 9.8 2.75 10.2 2.85 10.2 2.1 8.9 2.05 8.3
L 1.2 1.95 0.75 0 0.1 0.1
Q -0.1 0.1 0.2 1.65 Z"/>
</g>

<g id="Layer0_0_MEMBER_1_MEMBER_41_FILL">
<path fill="#EED899" stroke="none" d="
M 172.5 384.1
L 201.35 367.75 200.25 367.2 172.5 382.95 172.5 384.1 Z"/>
</g>

<g id="Layer0_0_MEMBER_1_MEMBER_42_FILL">
<path fill="#D8AE6F" stroke="none" d="
M 172.5 387.5
L 201.35 371.15 201.35 367.75 172.5 384.1 172.5 387.5 Z"/>
</g>

<g id="Layer0_0_MEMBER_1_MEMBER_43_FILL">
<path fill="#3761A1" stroke="none" d="
M 163.6 408.2
L 162.2 406.5
Q 161.55 406 160.9 405.85 159 405.55 157.3 405.85 154.05 406.4 153.1 409.1 152.1 412 151.85 414.5 151.65 416.2 151.75 419.4 151.85 423.05 150.45 427.7
L 151.35 429.45
Q 153.05 423.5 152.95 420.15 152.9 417.75 153.35 414.65 153.75 411.75 154.2 410.5 154.7 409.15 155.9 408.2 157.3 407.05 159.35 407 161.2 406.95 162.6 407.55 163.3 407.9 163.6 408.2 Z"/>
</g>

<g id="Layer0_0_MEMBER_2_FILL">
<path fill="#2F2720" stroke="none" d="
M 211.25 438.65
Q 211.4 438.35 211.4 435.95 211.35 435.7 210.9 435.65 210.4 435.7 210.3 435.65
L 207.3 436.15 203.75 438.65 203.1 439.25
Q 202.45 439.9 202.3 440.25 202.2 440.55 201.95 441.1 201.8 441.55 202.15 442.05 202.5 442.55 203.35 442.7 204.15 442.8 204.75 442.55 205.95 442.05 207.75 440.65 211.05 439.05 211.25 438.65 Z"/>
</g>

<g id="Layer0_0_MEMBER_3_FILL">
<path fill="#3761A1" stroke="none" d="
M 214.4 414.7
Q 214.4 414.2 214.6 413 214.8 411.85 214.8 411
L 214.85 403.7 206.3 402.4 206.25 403.15
Q 205.8 408.65 205.9 411.65 205.95 413.15 206.35 416.6 206.7 419.6 206.65 420.55 206.5 422.3 206.65 436 206.75 436.4 207.75 436.75 208.9 437.15 209.75 437
L 210.4 436.75
Q 211.35 436.3 211.85 435.2 213.45 425.45 213.6 423.7 214.3 418.5 214.4 414.7 Z"/>
</g>

<g id="Layer0_0_MEMBER_4_FILL">
<path fill="#17377A" stroke="none" d="
M 4.2 2.7
Q 4.4 1.55 4.4 0.7 3.2 0.2 2.25 0
L 2 4.45
Q 2 5.2 2.15 8.6 2.25 11.3 2.1 12 1.95 12.7 1.95 13.8 1.95 15 1.9 15.4 1.85 16.05 1.2 19.3 0.6 22.25 0.4 23 0.25 23.55 0 26.45 0.95 26 1.45 24.9 3.05 15.15 3.2 13.4 3.9 8.2 4 4.4 4 3.9 4.2 2.7 Z"/>
</g>

<g id="Layer0_0_MEMBER_5_FILL">
<path fill="#17377A" stroke="none" d="
M 0.4 0.4
Q -0.05 5.9 0.05 8.9 0.1 10.4 0.5 13.85 0.85 16.85 0.8 17.8 0.65 19.55 0.8 33.25 0.9 33.65 1.9 34 2.1 32.4 2.1 30.75 1.65 20.75 1.7 20.3 1.7 17.8 2.35 17.85 3.05 17.9 4.7 17.6 3.05 17.5 2.8 17.2 2.05 16.25 2.25 15.3 2.45 14.6 2.35 12.55 2.25 10.65 2 9.05 1.65 7.05 1.7 3.6
L 1.05 0 0.4 0.4 Z"/>
</g>

<g id="Layer0_0_MEMBER_6_FILL">
<path fill="#2F2720" stroke="none" d="
M 220.25 434.85
L 218.3 435.8 217.7 437.95
Q 217.7 438.2 217.15 439.55 216.55 440.95 216.5 441.4 216.45 441.85 216.35 442.5 216.35 442.95 216.65 443.2 217.05 443.6 218.05 443.75 219.25 443.95 220.2 443.55 221.6 442.95 222 441.1 222.3 438.5 222.45 438.05 222.85 436.75 222.85 436.35 222.95 435.65 223 435.1 223 434.15 222.65 434 222.25 433.9 220.25 434.85 Z"/>
</g>

<g id="Layer0_0_MEMBER_7_FILL">
<path fill="#3761A1" stroke="none" d="
M 223.8 412
Q 224.55 408.4 224.7 406.5 224.9 404.2 224.45 402.9 224 401.75 220.15 401.2
L 216.4 400.9 211.3 404.7 211.25 406.55
Q 211.25 408.6 211.35 409.7
L 211.5 410.5
Q 211.9 411.75 213.5 413.15
L 214.8 417.7
Q 216.2 422.5 216.6 423.55 217.25 425.3 218.05 435.7 218.05 436.1 219.1 436.4 219.95 436.6 220.55 436.55 221.55 436.5 222.25 436.05 223 435.6 223.05 435 224.15 426.65 223.7 423.95 223.3 421.55 223.25 418.6 223.2 415 223.8 412 Z"/>
</g>

<g id="Layer0_0_MEMBER_8_FILL">
<path fill="#F6562A" stroke="none" d="
M 218.65 371.75
Q 216.9 372 216.75 371.9
L 216.05 371.8
Q 213.65 371.65 212.65 371.65 210.5 371.65 209.75 371.9
L 209.35 372.1
Q 208.85 372.55 208.55 373.3 207.8 375 207.8 378 207.85 378.6 207.3 382.05
L 207.1 383.15
Q 206.8 384.9 206.6 388.05 206.4 391.4 206.2 392.55
L 206.2 392.65
Q 205.95 394.4 205.95 395.05
L 206.15 404.85
Q 206.15 405.2 206.85 405.7
L 207.6 405.95
Q 209.1 406.4 211.7 406.85 214.55 407.35 216.2 407.35 219.2 407.35 221.8 406.05 223.1 405.4 223.8 404.75 224.45 404.4 224.7 404.05 224.85 403.85 224.75 402.3 224.65 400.6 224.65 400.2
L 224.4 392.85
Q 224.3 391.6 225.1 388.45 226.45 383.25 226.5 382.9 227.05 380.15 226.3 378.2 225.55 376.1 222.95 373.8 220.8 371.9 218.65 371.75 Z"/>
</g>

<g id="Layer0_0_MEMBER_9_FILL">
<path fill="#3761A1" stroke="none" d="
M 699.95 220.45
Q 706.184375 218.153125 711.8 218
L 690.5 218
Q 688.4 217.65 685.6 218.7 679.65 221.15 674.75 229.55 669.85 237.95 659.35 296.4 654.45 325.45 650.25 353.1
L 662.15 357.65
Q 677.55 255.1 682.8 236.9 685.95 225.35 699.95 220.45 Z"/>
</g>

<g id="Layer0_0_MEMBER_10_FILL">
<path fill="#3761A1" stroke="none" d="
M 217.75 393.8
L 216.85 392
Q 213.7 391.85 210.8 391.35 207.85 390.85 206.6 390
L 206 398.45 206 398.5
Q 206 398.8 205.9 401.95 205.9 405.05 206.2 405.65 206.45 406.05 207.55 406.35 209.2 406.9 214.9 407.6 217.1 407.85 218.75 407.5 221.4 406.9 224.75 404.75 224.95 403.2 224.75 400.55
L 224.55 396.9
Q 224.5 397.15 223.2 397.7 221.65 398.35 219.65 398.8 218.8 396.1 217.75 393.8 Z"/>
</g>

<g id="Layer0_0_MEMBER_11_FILL">
<path fill="#17377A" stroke="none" d="
M 0 0
Q 1.85 2.6 2.65 2.85 3.45 3.15 4.3 3.05
L 2.85 1.4 0 0 Z"/>
</g>

<g id="Layer0_0_MEMBER_12_FILL">
<path fill="#3761A1" stroke="none" d="
M 768.2 236.55
Q 764.35 232.35 762.95 232.35 757.35 232 750 233.4 734.6 236.55 724.1 246.7 713.95 256.85 709.75 314.25 707.65 342.95 707.65 369.55
L 718.85 371.3
Q 718.85 319.15 723.75 287.65 727.95 262.45 730.4 257.2 733.55 250.2 744.75 244.6 754.9 239.7 764.35 239.7 769.25 239.7 771.7 240.75 769.95 238.65 768.2 236.55 Z"/>
</g>

<g id="Layer0_0_MEMBER_13_FILL">
<path fill="#FD8839" stroke="none" d="
M 207.1 390
Q 206.95 390.15 207 390.35 207 390.95 207.6 390.95 208.2 391.05 208.1 390.5 208.1 390 207.5 389.9 207.25 389.85 207.1 390 Z"/>
</g>

<g id="Layer0_0_MEMBER_14_FILL">
<path fill="#6799E8" stroke="none" d="
M 214.15 392.5
Q 208.1 391.35 207.45 391.55 207.35 391.6 207.35 392.25 207.35 392.55 207.4 393.1 207.35 393.45 210.65 395.15 214.75 394.7 214.95 394.45 215.25 393.95 215.15 393.2 215.15 392.95 214.65 392.7
L 214.15 392.5 Z"/>
</g>

<g id="Layer0_0_MEMBER_15_FILL">
<path fill="#17377A" stroke="none" d="
M 4.6 6.65
Q 3.7 2.55 2.8 1.95 2 1.65 1.55 1.4 0.7 1 0 0
L 0.15 0.8
Q 0.55 2.05 2.15 3.45 2.75 5.65 3.45 8 4.85 12.8 5.25 13.85 5.9 15.6 6.7 26 6.7 26.4 7.75 26.7 8.2 23.7 7.95 22 7.75 20.6 7.6 18.05
L 7.5 15.75 8.3 15.05 6.65 14.8 4.6 6.65 Z"/>
</g>

<g id="Layer0_0_MEMBER_16_FILL">
<path fill="#E43513" stroke="none" d="
M 678.6 300.6
Q 674.6146484375 301.28046875 670.85 301.4 667.3162109375 323.3884765625 662.95 352.4 669.6537109375 354.38359375 678.6 355.9
L 679.3 354.5
Q 695.3966796875 350.72734375 708 347.5 708.505859375 331.2521484375 709.75 314.25 710.927734375 298.1544921875 712.55 285.75
L 690.85 297.45
Q 685.95 299.55 678.6 300.6
M 785 290.45
L 739.5 262.1 725.9 275.45
Q 724.886328125 280.832421875 723.75 287.65 720.17578125 310.6275390625 719.2 344.6 748.7275390625 336.64609375 752.8 332.8 759.1 326.85 785 290.45
M 658.65 300.35
Q 655.6046875 299.644140625 652.7 298.5 650.6 310.75 649.2 332.8 647.8 356.25 646.4 364.3
L 648.15 363.6 649.2 346.45
Q 650.082421875 347.05 651.05 347.6 654.6421875 324.4720703125 658.65 300.35 Z"/>

<path fill="#333C45" stroke="none" d="
M 718.85 282.4
L 712.55 285.75
Q 710.927734375 298.1544921875 709.75 314.25 708.505859375 331.2521484375 708 347.5 714.0005859375 345.9951171875 719.2 344.6 720.17578125 310.6275390625 723.75 287.65 724.886328125 280.832421875 725.9 275.45
L 718.85 282.4
M 670.85 301.4
Q 664.4513671875 301.660546875 658.65 300.35 654.6421875 324.4720703125 651.05 347.6 655.71640625 350.2822265625 662.95 352.4 667.3162109375 323.3884765625 670.85 301.4 Z"/>
</g>

<g id="Layer0_0_MEMBER_17_FILL">
<path fill="#17377A" stroke="none" d="
M 648.15 363.6
L 650.95 362.55 646.4 365
Q 644.65 377.25 644.65 381.8
L 645 405.95
Q 645 408.05 644.3 430.1 644.3 451.8 646.4 456 648.15 458.8 655.85 460.9
L 661.8 404.9 678.6 355.9
Q 657.95 352.4 649.2 346.45
L 648.15 363.6 Z"/>
</g>

<g id="Layer0_0_MEMBER_18_FILL">
<path fill="#3761A1" stroke="none" d="
M 677.2 359.9
Q 657.4361328125 356.88671875 656.2 359.05 655.15 360.8 655.15 377.95 654.8 394.75 655.85 395.8
L 662.7 402.25 677.2 359.9 Z"/>

<path fill="#4577C6" stroke="none" d="
M 682.8 360.8
Q 679.85 360.3083984375 677.2 359.9
L 662.7 402.25 674.4 413.3
Q 703.8 403.5 704.85 401.75 707.65 398.95 707.65 369.55 708 365.35 682.8 360.8 Z"/>
</g>

<g id="Layer0_0_MEMBER_19_FILL">
<path fill="#E43513" stroke="none" d="
M 690.5 218
L 702 218
Q 680.248828125 216.750390625 671.25 219.75
L 668.45 221.15
Q 663.9 223.25 660.75 227.1
L 662.85 229.55
Q 666 232 668.45 232
L 672.3 233.05
Q 672.706640625 233.1439453125 673.1 233.25 674.0060546875 230.825390625 674.75 229.55 679.65 221.15 685.6 218.7 688.4 217.65 690.5 218
M 707.7 218.35
Q 703.9533203125 218.975 699.95 220.45 686.01328125 225.3279296875 682.8 236.8 683.3330078125 237.0173828125 683.85 237.25 689.8 239.7 690.85 240.75 692.6 241.8 705.2 240.75 718.5 237.6 715.35 219.05 711.3677734375 218.6646484375 707.7 218.35 Z"/>

<path fill="#333C45" stroke="none" d="
M 699.95 220.45
Q 703.9533203125 218.975 707.7 218.35 704.7482421875 218.1580078125 702 218
L 690.5 218
Q 688.4 217.65 685.6 218.7 679.65 221.15 674.75 229.55 674.0060546875 230.825390625 673.1 233.25 677.1228515625 234.28984375 682.8 236.8 686.01328125 225.3279296875 699.95 220.45 Z"/>
</g>

<g id="Layer0_0_MEMBER_20_FILL">
<path fill="#FBC7AC" stroke="none" d="
M 199.8 388.25
Q 199.1 388.1 198.95 387.9 198.2 387.05 197.35 386.6 197.15 386.5 196.4 385.45 195.65 384.4 195.6 384.25 195.5 383.95 195.4 383.75 195.25 383.45 194.95 383.6 194.35 383.9 194.55 384.8 194.6 385.15 195.3 386 195.7 386.6 196 387.5
L 192.75 390.15
Q 193.45 390.6 193.55 390.6
L 197.65 390.85 202.7 392.3
Q 203.5 391.8 203.75 390.9 203.9 390.3 203.5 389.4
L 203.05 388.65
Q 200.05 388.35 199.8 388.25 Z"/>
</g>

<g id="Layer0_0_MEMBER_21_FILL">
<path fill="#FD8839" stroke="none" d="
M 200.6 388.25
L 200.6 388.85
Q 200.55 389.6 200.35 390.15 200.05 391 199.45 391.7
L 199.25 392.05 200.95 392.95
Q 202.85 393.9 203.8 394 204.55 394.1 209.15 394.9 213.6 395.5 214.95 395.05 217 394.3 218.6 393.35 220.9 391.95 223.25 389.55 225.4 387.25 226.4 383.55
L 226.95 380.25 226.9 379.9
Q 226.4 377.7 226.1 377.15 225.1 375.3 223.15 375.7 220.8 376.2 219.7 377.7 219.4 378.15 218.75 379.85 218.55 380.55 217.9 381.85 217.3 383.15 217.05 383.55 216.75 384.05 213.3 387.5 213.15 387.7 212.55 388.1 207.95 388.5 207.05 388.5
L 200.6 388.25 Z"/>
</g>

<g id="Layer0_0_MEMBER_22_FILL">
<path fill="#EC5417" stroke="none" d="
M 27.65 0
Q 27.05 4 24.75 7.7 23.35 9.9 19.4 12.65 16.25 14.85 13.7 14.55 6.25 13.6 4.3 13.15 3.65 13.05 0.2 11.8
L 0 12.15
Q 3 13.9 4.55 14.1 5.3 14.2 9.9 15 14.35 15.6 15.7 15.15 20.25 13.55 24 9.65 26.15 7.35 27.15 3.65 27.65 1.75 27.7 0.35
L 27.65 0 Z"/>
</g>

<g id="Layer0_0_MEMBER_23_FILL">
<path fill="#FED6C1" stroke="none" d="
M 204 365.05
Q 203.85 364.7 203.7 364.35 203.35 363.65 203.2 363.7 202.6 363.85 202.7 364.35 202.75 364.75 203.25 365.8
L 203.55 366.8 203.8 369.65
Q 203.9 369.2 204.25 368.85 204.5 368.65 204.65 367.55 204.75 366.55 204.7 366.2
L 204 365.05 Z"/>
</g>

<g id="Layer0_0_MEMBER_24_FILL">
<path fill="#FBC7AC" stroke="none" d="
M 222.5 365.75
Q 222.65 364.9 221.25 364.35 219.7 363.75 217.4 364.15 215.6 364.4 214.6 367.2 214 369 213.85 371.25
L 213.8 374.6 214.6 374.9
Q 215.8 375.15 217.05 374.85 218.45 374.6 219.7 373.5 220.7 372.65 220.75 372.3 220.7 370.7 220.85 370.05 220.9 369.75 221.65 368.05 222.4 366.35 222.5 365.75 Z"/>
</g>

<g id="Layer0_0_MEMBER_25_FILL">
<path fill="#F5A480" stroke="none" d="
M 2.9 3
Q 4.05 2.55 5.5 1.15 2.4 -0.2 2 0 1.1 0.55 0.05 1.75
L 0 5.1
Q 0.25 5.25 0.8 5.4 1 3.75 1.15 3.5 1.25 3.3 1.65 3.25 2.4 3.2 2.9 3 Z"/>
</g>

<g id="Layer0_0_MEMBER_26_FILL">
<path fill="#FBC7AC" stroke="none" d="
M 212.4 366.65
Q 211.95 368.85 212.1 371 212.15 371.5 212.55 371.85 213 372.15 213.55 372.2 214.2 372.2 216.1 371.9 218.1 371.55 218.6 371.3 219.35 370.95 220.2 369
L 222.5 366.45
Q 222.6 364.95 222.5 363.3 222.3 360 221.15 359.4 219.95 358.8 217.9 358.9 216.4 359 215.1 359.4 214.4 359.6 213.75 360.9 213.45 361.55 213.25 362.15
L 212.4 366.65 Z"/>
</g>

<g id="Layer0_0_MEMBER_27_FILL">
<path fill="#492728" stroke="none" d="
M 222.75 367.45
L 224.1 365
Q 224.5 364.25 224.7 363.3 224.9 362.35 224.7 361.75 224.35 360.25 222.95 358.9 222.3 358.2 221.25 357.75
L 220.3 357.45
Q 218.5 357.1 216.4 357.8 214.15 358.55 213.55 360.1
L 213.15 362.75
Q 213.2 362.55 213.3 362.3 213.45 361.85 213.55 361.75 213.6 361.7 213.95 361.1 214.25 360.5 214.6 360.25 215.35 359.7 217.3 360.25 218.1 360.45 220 361.4
L 220 364.8
Q 220.1 365.7 220 366.75
L 220.45 367.35 220.95 366.75
Q 221.3 366.3 221.45 366.4 221.6 366.45 221.75 367.05 221.9 367.8 220.85 370.05
L 222.75 367.45 Z"/>
</g>

<g id="Layer0_0_MEMBER_28_FILL">
<path fill="#FED6C1" stroke="none" d="
M 220.9 367.1
L 220.8 367.65
Q 220.65 368.3 220.45 368.75 220.1 369.4 220.7 369.5 221.1 369.6 222.5 367.85 222.9 367.25 223 366.8 223.1 366.15 222.35 366.2 221.7 366.2 221.25 366.65 221 366.9 220.9 367.1 Z"/>
</g>

<g id="Layer0_0_MEMBER_29_FILL">
<path fill="#FED6C1" stroke="none" d="
M 215.25 364.6
L 214.65 365.1 213.5 366.45
Q 213.45 366.7 214.45 366.95 215.1 367.3 215.15 367.05
L 215 366 215.25 364.6 Z"/>
</g>

<g id="Layer0_0_MEMBER_30_FILL">
<path fill="#FED6C1" stroke="none" d="
M 217.8 364.1
Q 218.75 364.5 218.7 364.95
L 218.75 365.5
Q 218.8 366.15 218.5 366.55 218.15 367.05 217.65 367.3 217.2 367.5 216.8 367.4 216.55 367.35 216.1 366.9 215.75 366.55 215.65 366.7 215.5 366.9 215.75 367.75 216.05 368.6 216.45 368.9 217 369.3 217.75 369.35 218.7 369.45 219.05 368.8 219.8 367.4 219.9 366.85 219.7 364.7 219.7 364.65
L 219.7 362.15
Q 219.7 361.35 218.85 361.2 216.65 360.5 216.05 360.5 215 360.5 214.7 361.35 214.2 362.8 214.6 363.4 214.95 363.9 216.85 363.8
L 217.8 364.1 Z"/>
</g>

<g id="Layer0_0_MEMBER_31_FILL">
<path fill="#3761A1" stroke="none" d="
M 166.65 436.75
Q 167.4 434.5 167.2 431.25
L 167.15 426.9 165.6 427.9
Q 164.7 428.5 163.05 428.8 161.25 429.1 159.8 428.75 158.5 428.45 157.3 426.5 156.25 424.45 156.05 424.15 155.85 423.8 153.55 422.8 151.75 422.05 151.05 421.8 150.85 421.75 150.6 424.15 150.5 425.35 150.45 426.6 150.45 426.65 150.5 429.9 150.65 433.35 151 434.45 151.35 435.65 155.1 436.9 158.4 438 160.5 438.1 162.8 438.25 166.1 437.45
L 166.65 436.75 Z"/>
</g>

<g id="Layer0_0_MEMBER_32_FILL">
<path fill="#17377A" stroke="none" d="
M 0.4 4.7
L 0.9 5.7
Q 0.45 4.45 0.85 1.05
L 0.35 0
Q -0.3 3.2 0.4 4.7 Z"/>
</g>

<g id="Layer0_0_MEMBER_33_FILL">
<path fill="#FD8839" stroke="none" d="
M 212.5 395.05
Q 211.9 394.95 212 395.5 212 396 212.55 396.1 213.1 396.2 213.1 395.65 213.1 395.45 212.9 395.25 212.75 395.05 212.5 395.05 Z"/>
</g>
</defs>

<g transform="matrix( 7, 0, 0, 7, 224.65,641.15) ">
<use xlink:href="#Layer0_0_MEMBER_0_FILL"/>
</g>

<g transform="matrix( 7, 0, 0, 7, -797,-2383.55) ">
<use xlink:href="#Layer0_0_MEMBER_1_MEMBER_0_FILL"/>
</g>

<g transform="matrix( 7, 0, 0, 7, -797,-2383.55) ">
<use xlink:href="#Layer0_0_MEMBER_1_MEMBER_1_FILL"/>
</g>

<g transform="matrix( 7, 0, 0, 7, 573.25,259.65) ">
<use xlink:href="#Layer0_0_MEMBER_1_MEMBER_2_FILL"/>
</g>

<g transform="matrix( 7, 0, 0, 7, -797,-2383.55) ">
<use xlink:href="#Layer0_0_MEMBER_1_MEMBER_3_FILL"/>
</g>

<g transform="matrix( 7, 0, 0, 7, -797,-2383.55) ">
<use xlink:href="#Layer0_0_MEMBER_1_MEMBER_4_FILL"/>
</g>

<g transform="matrix( 7, 0, 0, 7, -797,-2383.55) ">
<use xlink:href="#Layer0_0_MEMBER_1_MEMBER_5_FILL"/>
</g>

<g transform="matrix( 7, 0, 0, 7, -797,-2383.55) ">
<use xlink:href="#Layer0_0_MEMBER_1_MEMBER_6_FILL"/>
</g>

<g transform="matrix( 7, 0, 0, 7, 285.2,703.1) ">
<use xlink:href="#Layer0_0_MEMBER_1_MEMBER_7_FILL"/>
</g>

<g transform="matrix( 7, 0, 0, 7, -797,-2383.55) ">
<use xlink:href="#Layer0_0_MEMBER_1_MEMBER_8_FILL"/>
</g>

<g transform="matrix( 7, 0, 0, 7, 348.9,463) ">
<use xlink:href="#Layer0_0_MEMBER_1_MEMBER_9_FILL"/>
</g>

<g transform="matrix( 7, 0, 0, 7, 292.55,387.75) ">
<use xlink:href="#Layer0_0_MEMBER_1_MEMBER_10_FILL"/>
</g>

<g transform="matrix( 7, 0, 0, 7, -797,-2383.55) ">
<use xlink:href="#Layer0_0_MEMBER_1_MEMBER_11_FILL"/>
</g>

<g transform="matrix( 7, 0, 0, 7, -797,-2383.55) ">
<use xlink:href="#Layer0_0_MEMBER_1_MEMBER_12_FILL"/>
</g>

<g transform="matrix( 7, 0, 0, 7, -797,-2383.55) ">
<use xlink:href="#Layer0_0_MEMBER_1_MEMBER_13_FILL"/>
</g>

<g transform="matrix( 7, 0, 0, 7, -797,-2383.55) ">
<use xlink:href="#Layer0_0_MEMBER_1_MEMBER_14_FILL"/>
</g>

<g transform="matrix( 7, 0, 0, 7, -797,-2383.55) ">
<use xlink:href="#Layer0_0_MEMBER_1_MEMBER_15_FILL"/>
</g>

<g transform="matrix( 7, 0, 0, 7, -797,-2383.55) ">
<use xlink:href="#Layer0_0_MEMBER_1_MEMBER_16_FILL"/>
</g>

<g transform="matrix( 7, 0, 0, 7, -797,-2383.55) ">
<use xlink:href="#Layer0_0_MEMBER_1_MEMBER_17_FILL"/>
</g>

<g transform="matrix( 7, 0, 0, 7, -797,-2383.55) ">
<use xlink:href="#Layer0_0_MEMBER_1_MEMBER_18_FILL"/>
</g>

<g transform="matrix( 7, 0, 0, 7, -797,-2383.55) ">
<use xlink:href="#Layer0_0_MEMBER_1_MEMBER_19_FILL"/>
</g>

<g transform="matrix( 7, 0, 0, 7, -797,-2383.55) ">
<use xlink:href="#Layer0_0_MEMBER_1_MEMBER_20_FILL"/>
</g>

<g transform="matrix( 7, 0, 0, 7, -797,-2383.55) ">
<use xlink:href="#Layer0_0_MEMBER_1_MEMBER_21_FILL"/>
</g>

<g transform="matrix( 7, 0, 0, 7, -797,-2383.55) ">
<use xlink:href="#Layer0_0_MEMBER_1_MEMBER_22_FILL"/>
</g>

<g transform="matrix( 7, 0, 0, 7, -797,-2383.55) ">
<use xlink:href="#Layer0_0_MEMBER_1_MEMBER_23_MEMBER_0_MEMBER_0_FILL"/>
</g>

<g transform="matrix( 7, 0, 0, 7, -797,-2383.55) ">
<use xlink:href="#Layer0_0_MEMBER_1_MEMBER_23_MEMBER_1_MEMBER_0_FILL"/>
</g>

<g transform="matrix( 7, 0, 0, 7, -797,-2383.55) ">
<use xlink:href="#Layer0_0_MEMBER_1_MEMBER_23_MEMBER_1_MEMBER_1_FILL"/>
</g>

<g transform="matrix( 7, 0, 0, 7, -797,-2383.55) ">
<use xlink:href="#Layer0_0_MEMBER_1_MEMBER_24_FILL"/>
</g>

<g transform="matrix( 7, 0, 0, 7, -797,-2383.55) ">
<use xlink:href="#Layer0_0_MEMBER_1_MEMBER_25_FILL"/>
</g>

<g transform="matrix( 7, 0, 0, 7, -797,-2383.55) ">
<use xlink:href="#Layer0_0_MEMBER_1_MEMBER_26_FILL"/>
</g>

<g transform="matrix( 7, 0, 0, 7, 320.2,355.55) ">
<use xlink:href="#Layer0_0_MEMBER_1_MEMBER_27_FILL"/>
</g>

<g transform="matrix( 7, 0, 0, 7, -797,-2383.55) ">
<use xlink:href="#Layer0_0_MEMBER_1_MEMBER_28_FILL"/>
</g>

<g transform="matrix( 7, 0, 0, 7, 304.8,520.75) ">
<use xlink:href="#Layer0_0_MEMBER_1_MEMBER_29_FILL"/>
</g>

<g transform="matrix( 7, 0, 0, 7, 248.45,434.3) ">
<use xlink:href="#Layer0_0_MEMBER_1_MEMBER_30_FILL"/>
</g>

<g transform="matrix( 7, 0, 0, 7, -797,-2383.55) ">
<use xlink:href="#Layer0_0_MEMBER_1_MEMBER_31_FILL"/>
</g>

<g transform="matrix( 7, 0, 0, 7, -797,-2383.55) ">
<use xlink:href="#Layer0_0_MEMBER_1_MEMBER_32_FILL"/>
</g>

<g transform="matrix( 7, 0, 0, 7, -797,-2383.55) ">
<use xlink:href="#Layer0_0_MEMBER_1_MEMBER_33_FILL"/>
</g>

<g transform="matrix( 7, 0, 0, 7, 366.4,372.7) ">
<use xlink:href="#Layer0_0_MEMBER_1_MEMBER_34_FILL"/>
</g>

<g transform="matrix( 7, 0, 0, 7, 384.95,365.7) ">
<use xlink:href="#Layer0_0_MEMBER_1_MEMBER_35_FILL"/>
</g>

<g transform="matrix( 7, 0, 0, 7, 355.9,376.55) ">
<use xlink:href="#Layer0_0_MEMBER_1_MEMBER_36_FILL"/>
</g>

<g transform="matrix( 7, 0, 0, 7, 397.55,368.15) ">
<use xlink:href="#Layer0_0_MEMBER_1_MEMBER_37_FILL"/>
</g>

<g transform="matrix( 7, 0, 0, 7, -797,-2383.55) ">
<use xlink:href="#Layer0_0_MEMBER_1_MEMBER_38_FILL"/>
</g>

<g transform="matrix( 7, 0, 0, 7, 299.9,515.15) ">
<use xlink:href="#Layer0_0_MEMBER_1_MEMBER_39_FILL"/>
</g>

<g transform="matrix( 7, 0, 0, 7, 390.9,453.2) ">
<use xlink:href="#Layer0_0_MEMBER_1_MEMBER_40_FILL"/>
</g>

<g transform="matrix( 7, 0, 0, 7, -797,-2383.55) ">
<use xlink:href="#Layer0_0_MEMBER_1_MEMBER_41_FILL"/>
</g>

<g transform="matrix( 7, 0, 0, 7, -797,-2383.55) ">
<use xlink:href="#Layer0_0_MEMBER_1_MEMBER_42_FILL"/>
</g>

<g transform="matrix( 7, 0, 0, 7, -797,-2383.55) ">
<use xlink:href="#Layer0_0_MEMBER_1_MEMBER_43_FILL"/>
</g>

<g transform="matrix( 7, 0, 0, 7, -797,-2383.55) ">
<use xlink:href="#Layer0_0_MEMBER_2_FILL"/>
</g>

<g transform="matrix( 7, 0, 0, 7, -797,-2383.55) ">
<use xlink:href="#Layer0_0_MEMBER_3_FILL"/>
</g>

<g transform="matrix( 7, 0, 0, 7, 675.8,488.55) ">
<use xlink:href="#Layer0_0_MEMBER_4_FILL"/>
</g>

<g transform="matrix( 7, 0, 0, 7, 643.95,435.7) ">
<use xlink:href="#Layer0_0_MEMBER_5_FILL"/>
</g>

<g transform="matrix( 7, 0, 0, 7, -797,-2383.55) ">
<use xlink:href="#Layer0_0_MEMBER_6_FILL"/>
</g>

<g transform="matrix( 7, 0, 0, 7, -797,-2383.55) ">
<use xlink:href="#Layer0_0_MEMBER_7_FILL"/>
</g>

<g transform="matrix( 7, 0, 0, 7, -797,-2383.55) ">
<use xlink:href="#Layer0_0_MEMBER_8_FILL"/>
</g>

<g transform="matrix( 1, 0, 0, 1, 0,0) ">
<use xlink:href="#Layer0_0_MEMBER_9_FILL"/>
</g>

<g transform="matrix( 7, 0, 0, 7, -797,-2383.55) ">
<use xlink:href="#Layer0_0_MEMBER_10_FILL"/>
</g>

<g transform="matrix( 7, 0, 0, 7, 724.45,443.75) ">
<use xlink:href="#Layer0_0_MEMBER_11_FILL"/>
</g>

<g transform="matrix( 1, 0, 0, 1, 0,0) ">
<use xlink:href="#Layer0_0_MEMBER_12_FILL"/>
</g>

<g transform="matrix( 7, 0, 0, 7, -797,-2383.55) ">
<use xlink:href="#Layer0_0_MEMBER_13_FILL"/>
</g>

<g transform="matrix( 7, 0, 0, 7, -797,-2383.55) ">
<use xlink:href="#Layer0_0_MEMBER_14_FILL"/>
</g>

<g transform="matrix( 7, 0, 0, 7, 682.45,484.35) ">
<use xlink:href="#Layer0_0_MEMBER_15_FILL"/>
</g>

<g transform="matrix( 1, 0, 0, 1, 0,0) ">
<use xlink:href="#Layer0_0_MEMBER_16_FILL"/>
</g>

<g transform="matrix( 1, 0, 0, 1, 0,0) ">
<use xlink:href="#Layer0_0_MEMBER_17_FILL"/>
</g>

<g transform="matrix( 1, 0, 0, 1, 0,0) ">
<use xlink:href="#Layer0_0_MEMBER_18_FILL"/>
</g>

<g transform="matrix( 1, 0, 0, 1, 0,0) ">
<use xlink:href="#Layer0_0_MEMBER_19_FILL"/>
</g>

<g transform="matrix( 7, 0, 0, 7, -797,-2383.55) ">
<use xlink:href="#Layer0_0_MEMBER_20_FILL"/>
</g>

<g transform="matrix( 7, 0, 0, 7, -797,-2383.55) ">
<use xlink:href="#Layer0_0_MEMBER_21_FILL"/>
</g>

<g transform="matrix( 7, 0, 0, 7, 597.75,275.75) ">
<use xlink:href="#Layer0_0_MEMBER_22_FILL"/>
</g>

<g transform="matrix( 7, 0, 0, 7, -797,-2383.55) ">
<use xlink:href="#Layer0_0_MEMBER_23_FILL"/>
</g>

<g transform="matrix( 7, 0, 0, 7, -797,-2383.55) ">
<use xlink:href="#Layer0_0_MEMBER_24_FILL"/>
</g>

<g transform="matrix( 7, 0, 0, 7, 699.6,202.95) ">
<use xlink:href="#Layer0_0_MEMBER_25_FILL"/>
</g>

<g transform="matrix( 7, 0, 0, 7, -797,-2383.55) ">
<use xlink:href="#Layer0_0_MEMBER_26_FILL"/>
</g>

<g transform="matrix( 7, 0, 0, 7, -797,-2383.55) ">
<use xlink:href="#Layer0_0_MEMBER_27_FILL"/>
</g>

<g transform="matrix( 7, 0, 0, 7, -797,-2383.55) ">
<use xlink:href="#Layer0_0_MEMBER_28_FILL"/>
</g>

<g transform="matrix( 7, 0, 0, 7, -797,-2383.55) ">
<use xlink:href="#Layer0_0_MEMBER_29_FILL"/>
</g>

<g transform="matrix( 7, 0, 0, 7, -797,-2383.55) ">
<use xlink:href="#Layer0_0_MEMBER_30_FILL"/>
</g>

<g transform="matrix( 7, 0, 0, 7, -797,-2383.55) ">
<use xlink:href="#Layer0_0_MEMBER_31_FILL"/>
</g>

<g transform="matrix( 7, 0, 0, 7, 278.2,659) ">
<use xlink:href="#Layer0_0_MEMBER_32_FILL"/>
</g>

<g transform="matrix( 7, 0, 0, 7, -797,-2383.55) ">
<use xlink:href="#Layer0_0_MEMBER_33_FILL"/>
</g>
</svg>
