
<svg xmlns="http://www.w3.org/2000/svg" version="1.1" xmlns:xlink="http://www.w3.org/1999/xlink" preserveAspectRatio="none" x="0px" y="0px" width="1024px" height="1024px" viewBox="0 0 1024 1024">
<defs>
<g id="Layer0_0_MEMBER_0_MEMBER_0_MEMBER_0_FILL">
<path fill="#CCC0BC" stroke="none" d="
M 294.5 662.35
Q 284.35 684.4 305 704.7 325.3 725 364.5 731.3 403.7 737.95 438.7 726.75 460.75 733.4 485.25 733.75 510.8 733.75 532.85 726.75 561.55 717.65 573.8 700.15 586.05 683.35 577.65 665.15
L 608.1 676 592 690.35
Q 589.2 693.15 591.3 696.3 593.75 699.8 599 700.85
L 624.9 706.8
Q 652.55 712.75 662.35 713.45 681.25 714.85 694.55 712.4 702.25 710.65 709.25 707.5 715.55 703.3 713.1 695.25 710.65 687.2 701.9 679.5 692.8 671.8 668.65 661.3
L 645.9 652.55
Q 638.9 648.7 634 652.55
L 633.3 652.9 618.95 665.85 593.75 656.4 592.7 656.4 560.15 644.85
Q 537.75 628.05 501.7 623.5 465.65 618.95 433.45 628.75 411.75 622.1 386.9 622.1 361.7 622.1 339.65 629.1 304.65 640.3 294.5 662.35 Z"/>
</g>

<g id="Layer0_0_MEMBER_0_MEMBER_0_MEMBER_1_FILL">
<path fill="#F9C5AA" stroke="none" d="
M 309.8 65.45
L 309.25 64.1 308.2 63.85 306.35 63.85 306.1 66.35
Q 306.1 66.65 308 67.95 309.9 69.25 309.85 69.05 309.7 67.85 309.75 66.5
L 309.8 65.45 Z"/>
</g>

<g id="Layer0_0_MEMBER_0_MEMBER_0_MEMBER_2_FILL">
<path fill="#FD8638" stroke="none" d="
M 311.05 36.6
Q 310.35 35.3 309.05 34.75
L 307.9 34.4 307.1 35.9 306.75 38.65
Q 306.35 41.85 305.9 44.15 305.5 46.25 305.25 47.05 304.25 50.3 304.4 54.9 304.4 56.2 305.65 64.45
L 306.75 64.55
Q 307.05 64.5 307.8 64.5
L 309 64.35
Q 309.5 64.2 309.6 64.05 309.9 55.95 310.05 54.35 310.15 53.65 310 50.95 309.8 48.2 309.95 46.8 310 45.95 310.75 42.6 311.45 39.55 311.4 38.15 311.3 37.15 311.05 36.6 Z"/>
</g>

<g id="Layer0_0_MEMBER_0_MEMBER_0_MEMBER_3_FILL">
<path fill="#B54113" stroke="none" d="
M 1.55 2.75
Q 1.15 4.85 0.9 5.65 -0.1 8.9 0.05 13.5 0.05 14.8 1.3 23.05 1.6 23.15 2.4 23.15 1.85 18.6 1.55 17.25 0.35 11.8 1 9.25 1.5 7.25 2.2 5.5 5.1 1.75 5.45 0.4 5.7 -0.4 4.45 0.3 3.15 1.05 1.55 2.75 Z"/>
</g>

<g id="Layer0_0_MEMBER_0_MEMBER_0_MEMBER_4_FILL">
<path fill="#B54113" stroke="none" d="
M 1.55 8.65
Q 1.6 7.8 2.35 4.45 3.05 1.4 3 0 1.1 7.75 1.1 8.15 1.1 8.35 0.75 10.05 0.45 11.75 0.55 12.5 0.7 13.65 0 13.4
L 1 14.45
Q 0.5 22.65 0.4 23.35
L 0.6 26.2
Q 1.1 26.05 1.2 25.9 1.5 17.8 1.65 16.2 1.75 15.5 1.6 12.8 1.4 10.05 1.55 8.65 Z"/>
</g>

<g id="Layer0_0_MEMBER_0_MEMBER_0_MEMBER_5_FILL">
<path fill="#3E362F" stroke="none" d="
M 301 88.1
Q 300.85 88.15 300.65 88.3 300.3 88.55 300.25 89 300.2 89.35 300.2 90.65 300.2 91.45 302.35 91.45 303.25 91.45 304.1 91.25 304.65 91.1 305.2 91.25 305.65 91.35 306.25 91.85 306.85 92.35 307.45 92.55 308.4 92.8 309.9 92.85 311.4 92.9 312 92.65 313 92.15 312.9 91.2 312.95 90.65 312.85 90.35 312.7 89.8 311.9 89.6
L 301 88.1 Z"/>
</g>

<g id="Layer0_0_MEMBER_0_MEMBER_0_MEMBER_6_FILL">
<path fill="#524B45" stroke="none" d="
M 300.65 86.05
L 300.45 88.6
Q 300.4 89.3 300.45 89.55 300.55 89.9 301 90.15 301.25 90.3 303.15 90.35 305.05 90.45 305.7 90.8 307.6 91.9 310.4 92.15 311.65 92.3 312.35 91.6 312.9 91.05 312.85 90.4 312.85 89.75 311.15 88.9 310.35 88.45 307.1 87.65 306.5 87.5 305.6 86.85
L 304.8 86.2 300.65 86.05 Z"/>
</g>

<g id="Layer0_0_MEMBER_0_MEMBER_0_MEMBER_7_FILL">
<path fill="#2C5492" stroke="none" d="
M 306.15 69.2
L 306.1 68.7
Q 306.1 68.05 305.9 67.45 305.6 66.75 305.05 66.7 304.4 66.85 304.1 66.85 303.45 66.9 301.7 67.6 299.65 68.4 298.95 69.2 298.55 69.7 298.55 70.15 298.55 75 299 78.4 299.55 82.55 299.7 86.5
L 300.3 86.9 301.4 87.35
Q 301.9 87.5 302.9 87.65 304.1 87.8 304.55 87.75
L 305.2 87.65
Q 306.3 87.4 306.35 86.8 306.3 72.5 306.15 69.2 Z"/>
</g>

<g id="Layer0_0_MEMBER_0_MEMBER_0_MEMBER_8_FILL">
<path fill="#2C5492" stroke="none" d="
M 305.8 68.7
Q 306.05 68.25 305.9 67.45 305.75 66.8 303.25 61.65 300.75 56.4 300.15 55.5 299.05 53.85 298.5 53.35 297.2 52.2 295.3 52.25 293.45 52.3 290.75 54.8 288.35 57.05 288.4 57.6
L 288.45 57.75
Q 289 58.65 292.85 63.4
L 298.55 70.15
Q 298.95 70.55 299.7 70.7 300.8 71.05 303.4 70.6 304.75 70.4 305.8 68.7 Z"/>
</g>

<g id="Layer0_0_MEMBER_0_MEMBER_0_MEMBER_9_FILL">
<path fill="#122F6D" stroke="none" d="
M 0 1.1
Q 0.5 2 4.4 6.75
L 10.1 13.5
Q 10.1 18.35 10.55 21.75 11.1 25.9 11.25 29.85
L 11.85 30.25
Q 11.8 29.4 11.8 26.55 11.8 24.2 11.65 23.15 11.25 20.85 11.15 18.65 11.1 16.9 11.2 16.4 11.3 16.1 11.45 13.35 11.35 13.2 9.75 11.6 7.45 8.95 5.55 2.65 3.9 0.15 2.1 0 0.6 -0.15 0 1.1 Z"/>
</g>

<g id="Layer0_0_MEMBER_0_MEMBER_0_MEMBER_10_FILL">
<path fill="#204381" stroke="none" d="
M 0.9 18.95
Q 2 18.65 2.05 18.1 2 3.8 1.85 0.5
L 1.8 0
Q 1.45 0.55 0.9 0.8
L 0.05 1.25
Q 0.25 3.35 0.4 4.75 1.15 15.45 1 16.25 0.8 17.1 0.9 18.95 Z"/>
</g>

<g id="Layer0_0_MEMBER_0_MEMBER_0_MEMBER_11_FILL">
<path fill="#3E362F" stroke="none" d="
M 281.9 92.15
Q 282.25 92.35 283 93.15 283.65 93.85 283.7 94 283.95 94.45 284.6 94.95 285.8 95.85 287.55 95.95 289.3 96.05 290.25 95.45 290.7 95.15 290.8 94.85 290.95 93.85 290.55 93.5 290.1 93.15 284.9 91.25
L 281.4 89.25
Q 281.3 89.3 281.15 89.4 280.95 89.55 280.9 89.85 280.8 90.95 280.8 91 280.8 91.1 281.15 91.5 281.6 92 281.9 92.15 Z"/>
</g>

<g id="Layer0_0_MEMBER_0_MEMBER_0_MEMBER_12_FILL">
<path fill="#524B45" stroke="none" d="
M 282 87.25
L 281.45 88.55
Q 281.4 88.7 281.2 89.15 281 89.5 281.05 89.7 281.1 90.25 281.3 90.45 281.4 90.6 282 91.15 283.75 93.25 284.25 93.75 285.65 95.15 287.9 95.35 289 95.5 289.75 95.05 290.35 94.65 290.5 94.15 290.85 92.95 288.8 91.1 287.75 90.1 286.85 88.75
L 286.2 87.6 282 87.25 Z"/>
</g>

<g id="Layer0_0_MEMBER_0_MEMBER_0_MEMBER_13_FILL">
<path fill="#37619F" stroke="none" d="
M 282.75 53.1
Q 281.95 54.6 281.8 56.7 281.6 60.1 281.95 71.85 281.95 72.2 281.3 73.8 280.7 75.85 280.65 78.35 280.6 82.5 280.8 87 280.75 87.9 281.45 88.3 282.25 88.85 284.05 89.1 285.2 89.25 285.9 89.1 286.4 89.05 286.7 88.25 286.85 87.9 287.55 81.9 288.35 75.45 289.25 72.1 290.25 68.55 291.2 64.8
L 291.9 61.8 292.1 61.7
Q 292.35 61.75 293 62 293.65 62.1 294.15 61.45 294.95 60.4 294.95 55.25 294.95 54.8 284.45 52.25
L 283.55 52.05
Q 283.2 52.4 282.75 53.1 Z"/>
</g>

<g id="Layer0_0_MEMBER_0_MEMBER_0_MEMBER_14_FILL">
<path fill="#122F6D" stroke="none" d="
M 6.05 0
Q 5.3 0.45 3.45 8.6 3.35 9.05 2.75 11.25 2.2 13.25 1.9 14.95 1.8 15.6 0.5 20.95 0.45 21.95 0.35 24.25 0.25 26.35 0 27.5 0.5 27.45 0.8 26.65 0.95 26.3 1.65 20.3 2.45 13.85 3.35 10.5 4.95 4.8 6.05 0 Z"/>
</g>

<g id="Layer0_0_MEMBER_0_MEMBER_0_MEMBER_15_FILL">
<path fill="#173677" stroke="none" d="
M 1.9 20.05
Q 2.3 17.2 1.9 12.35 1.4 6 1.75 4.05 1.9 3.15 3.8 0.2
L 2.9 0
Q 2.55 0.35 2.1 1.05 1.3 2.55 1.15 4.65 0.95 8.05 1.3 19.8 1.3 20.15 0.65 21.75 0.05 23.8 0 26.3 -0.05 30.45 0.15 34.95 0.1 35.85 0.8 36.25 0.9 35.45 0.75 30.3 0.6 24.7 1.9 20.05 Z"/>
</g>

<g id="Layer0_0_MEMBER_0_MEMBER_0_MEMBER_16_FILL">
<path fill="#F4562A" stroke="none" d="
M 426.8 267.2
Q 419.45 271.4 414.2 279.45 410.7 285.05 396.7 319 382.35 352.25 377.8 359.6 372.55 367.65 359.95 383.4 347.7 398.8 347.35 399.5 345.6 401.95 343.5 408.25 341.4 414.2 341.4 416.3 340.35 427.5 340.35 428.2 341.75 439.05 353.3 447.45 368 458.3 382.7 462.5 399.5 467.4 427.85 467.4 450.6 465.3 463.2 446.4 473.35 432.4 473.7 432.75 473 428.2 472.65 422.6 472.3 411.75 474.4 407.9 476.5 404.05 480.35 400.9 484.9 397.4 485.25 396.7 486.3 395.3 490.5 390.05 494.7 384.45 495.75 378.15 510.8 363.8 533.2 334.4 548.6 313.4 543.7 288.2 538.45 263 514.3 253.2
L 490.85 248.65
Q 471.25 250.4 449.9 258.1 430.65 265.45 426.8 267.2 Z"/>
</g>

<g id="Layer0_0_MEMBER_0_MEMBER_0_MEMBER_17_FILL">
<path fill="#37619F" stroke="none" d="
M 431.7 265.1
L 443.6 270.7
Q 455.15 279.45 455.5 295.55 455.85 314.1 448.15 336.85 441.15 357.85 431.7 369.4 424.35 378.5 409.65 375
L 396.35 369.4 388.65 345.25 347 393.2
Q 344.9 397.4 342.8 404.4 338.6 416.3 338.25 425.75 337.9 437.3 343.5 454.1
L 343.85 454.8 369.75 462.15
Q 401.25 469.15 427.85 467.4 454.45 465.65 467.4 447.1 474.05 438 475.1 428.9 475.45 423.3 475.8 417.7 477.2 406.15 479.3 405.1 481.4 404.4 489.45 392.15 498.55 378.5 499.6 377.45 503.1 374.65 497.85 359.95 532.5 310.6 538.1 299.4 541.6 292.4 533.55 279.45
L 524.8 267.9 511.85 274.2 516.05 280.5
Q 519.9 288.55 518.85 297.3 517.45 310.95 482.45 357.85
L 448.85 368.35
Q 454.45 358.2 460.05 344.55 471.25 316.9 470.55 298.7 469.85 280.5 459.7 267.55
L 449.9 258.1 431.7 265.1 Z"/>
</g>

<g id="Layer0_0_MEMBER_0_MEMBER_0_MEMBER_18_FILL">
<path fill="#173677" stroke="none" d="
M 7.15 2.7
L 7.3 0.3 7.2 0 1.25 6.85
Q 0.1 9.35 0 11.5 -0.05 13.15 0.75 15.55
L 1 15.75
Q 0.75 13.2 1 11 1.15 9.65 1.95 7.95 2.5 6.8 2.9 6.35
L 7.15 2.7 Z"/>
</g>

<g id="Layer0_0_MEMBER_0_MEMBER_0_MEMBER_19_FILL">
<path fill="#122F6D" stroke="none" d="
M 2.35 2.3
Q 3.7 2.2 5.85 0
L 2.9 1 0 2.65
Q 1 2.35 2.35 2.3 Z"/>
</g>

<g id="Layer0_0_MEMBER_0_MEMBER_0_MEMBER_20_FILL">
<path fill="#4577C6" stroke="none" d="
M 464.95 373.95
Q 441.85 379.9 440.8 383.4
L 435.9 396.35
Q 431.35 409.65 432.05 411.05
L 454.1 418.05 476.15 401.25
Q 477.55 400.2 482.8 385.85 488.4 371.5 488.05 369.75 488.05 368 464.95 373.95 Z"/>
</g>

<g id="Layer0_0_MEMBER_0_MEMBER_0_MEMBER_21_FILL">
<path fill="#6799E8" stroke="none" d="
M 302.95 47.7
Q 302.5 47.55 296.9 49.1 296.65 49.2 296.4 49.3 295.9 49.55 295.85 49.75 295.5 50.55 295.6 50.85 298.9 51.15 299 51.05 302.35 49.3 302.45 49 303.05 47.75 302.95 47.7 Z"/>
</g>

<g id="Layer0_0_MEMBER_0_MEMBER_0_MEMBER_22_FILL">
<path fill="#313844" stroke="none" d="
M 432.05 411.05
L 441.2 413.95
Q 438.2119140625 408.771484375 435.2 403.35 434.66640625 402.4548828125 434.15 401.6 431.503125 409.9564453125 432.05 411.05 Z"/>

<path fill="#272E37" stroke="none" d="
M 396.35 369.4
L 396.35 369.35
Q 394.8875 371.7921875 393.55 374.3
L 407.55 427.15
Q 446.75 461.45 450.95 459 455.15 456.2 463.2 446.4
L 469.85 437.3 455.85 433.45 445.7 421.55
Q 443.4619140625 417.819921875 441.2 413.95
L 432.05 411.05
Q 431.503125 409.9564453125 434.15 401.6 424.3671875 385.0810546875 424.7 383.75 427.2580078125 376.527734375 428.7 372.35 421.6197265625 377.85 409.65 375
L 396.35 369.4 Z"/>

<path fill="#AF290F" stroke="none" d="
M 396.35 369.35
L 396.35 369.4 409.65 375
Q 421.6197265625 377.85 428.7 372.35 430.65 366.799609375 430.65 366.6
L 434.5 345.6
Q 422.6 337.2 406.85 355.05 400.9890625 361.71015625 396.35 369.35 Z"/>
</g>

<g id="Layer0_0_MEMBER_0_MEMBER_0_MEMBER_23_FILL">
<path fill="#5E341B" stroke="none" d="
M 327.25 87.65
L 324.9 82.25 286.25 47.9
Q 285.75 47.5 285.25 47.55
L 285.05 47.55
Q 284.5 47.55 284.2 47.95 283.9 48.35 283.95 48.9 284.05 49.5 284.45 49.85
L 327.25 87.65 Z"/>
</g>

<g id="Layer0_0_MEMBER_0_MEMBER_0_MEMBER_24_FILL">
<path fill="#8D4A25" stroke="none" d="
M 325.6 85.3
L 324.2 82 300.65 61.05
Q 300.3 60.8 300 60.85
L 299.9 60.85
Q 299.6 60.85 299.4 61.1 299.2 61.3 299.25 61.65 299.25 61.95 299.55 62.25
L 325.6 85.3 Z"/>
</g>

<g id="Layer0_0_MEMBER_0_MEMBER_0_MEMBER_25_FILL">
<path fill="#F9C5AA" stroke="none" d="
M 310.05 65.8
L 309.8 65.45 308.75 67.35 310.25 69.65 310.2 70.6
Q 310.15 70.65 310.45 71 310.75 71.35 310.95 71.15 311.25 70.85 311.25 70.05 311.25 69.4 310.65 67.9 310.4 67.25 310.35 66.6 310.3 66.25 310.05 65.8 Z"/>
</g>

<g id="Layer0_0_MEMBER_0_MEMBER_0_MEMBER_26_FILL">
<path fill="#F9C5AA" stroke="none" d="
M 303.05 61.6
L 302.75 61.35 301.05 60.95
Q 298.7 60.8 298.4 60.65
L 297.65 60.05 294.95 61.25 296.5 63.75
Q 296.65 64.05 297.7 65.25
L 297.85 65.5
Q 298.05 65.85 298.55 65.95
L 298.75 66.2
Q 299.05 66.45 299.55 66.5 300.4 66.55 300.3 66.3
L 300.75 67.1 301.1 67.3
Q 301.5 67.5 301.7 67.45
L 302.05 67.4 302.35 67.25 302.05 66.95 301.45 65.15
Q 301.2 64.7 301 64.2 300.6 63.2 300.8 62.8 301 62.45 301.7 62.45 302.1 62.45 302.4 62.5
L 303 62.4
Q 303.2 62.3 303.25 62.2 303.4 61.95 303.05 61.6 Z"/>
</g>

<g id="Layer0_0_MEMBER_0_MEMBER_0_MEMBER_27_FILL">
<path fill="#F9C5AA" stroke="none" d="
M 306.65 69.4
L 306.45 69.05
Q 306.55 68.7 306.35 68.4 306.2 68.15 306 68.15 305.75 68.2 305.6 68.5 305.3 68.95 305.3 69 305.2 69.2 305.4 69.35 305.65 69.55 306.35 69.65
L 306.3 69.85
Q 306.25 70.1 306.5 70.3 306.95 70.7 307.4 70.65
L 307.5 70.95
Q 307.65 71.3 307.95 71.5 308.45 71.75 308.9 71.1 309 70.65 308.65 70.55
L 307.75 70.35
Q 307.8 69.65 307.5 69.5 307.3 69.4 306.95 69.4
L 306.65 69.4 Z"/>
</g>

<g id="Layer0_0_MEMBER_0_MEMBER_0_MEMBER_28_FILL">
<path fill="#F9C5AA" stroke="none" d="
M 309.9 72.35
L 309.75 71.2
Q 309.25 70.8 309.05 71 308.95 71.15 308.9 71.4 308.9 71.55 308.9 71.65
L 309.05 72
Q 309.25 72.35 309.35 72.35
L 309.9 72.35 Z"/>
</g>

<g id="Layer0_0_MEMBER_0_MEMBER_0_MEMBER_29_FILL">
<path fill="#F9C5AA" stroke="none" d="
M 467.4 258.45
Q 465.3 264.05 472.65 276.3 480.7 288.9 491.2 294.5 501 299.4 507.3 294.85 510.1 292.4 515.7 282.95 520.25 274.2 523.05 256 524.8 240.6 522.35 229.4 517.8 207.7 496.45 230.1 492.95 240.95 487.35 247.25 484.55 250.05 476.15 252.5 468.8 254.6 467.4 258.45 Z"/>
</g>

<g id="Layer0_0_MEMBER_0_MEMBER_0_MEMBER_30_FILL">
<path fill="#ED461F" stroke="none" d="
M 516.45 281.4
Q 516.0869140625 282.205859375 515.7 282.95 510.1 292.4 507.3 294.85 504.404296875 296.9412109375 500.75 297 510.59609375 301.5 513.95 301.5 515.2578125 301.71796875 517.65 302.2 518.6375 299.3708984375 518.85 297.3 519.8419921875 289.033984375 516.45 281.4 Z"/>

<path fill="#354F75" stroke="none" d="
M 518.75 275.4
Q 517.6732421875 278.7578125 516.45 281.4 519.8419921875 289.033984375 518.85 297.3 518.6375 299.3708984375 517.65 302.2 519.1015625 302.50390625 520.95 302.9 525.85 302.9 531.1 299.05 539.85 292.75 537.05 286.45
L 518.75 275.4 Z"/>

<path fill="#F7D1BD" stroke="none" d="
M 518.75 275.4
L 518.5 275.25 512.15 274.65 516.05 280.5
Q 516.262890625 280.9453125 516.45 281.4 517.6732421875 278.7578125 518.75 275.4 Z"/>

<path fill="#F1A17E" stroke="none" d="
M 502.4 284
Q 502.4 286.1 495.4 294.5 498.290625 295.9099609375 500.75 297 504.404296875 296.9412109375 507.3 294.85 510.1 292.4 515.7 282.95 516.0869140625 282.205859375 516.45 281.4 516.262890625 280.9453125 516.05 280.5
L 512.15 274.65 507.3 274.2
Q 502.4 281.9 502.4 284 Z"/>
</g>

<g id="Layer0_0_MEMBER_0_MEMBER_0_MEMBER_31_FILL">
<path fill="#F9C5AA" stroke="none" d="
M 314.35 30.2
Q 315.15 28.75 315 27.6 313.15 23.7 309.65 25 306.9 26 306.25 27.6 306.05 28 306.65 29.35 307.2 30.65 307 31 306.35 32.05 306 32.7 305.3 33.9 305.5 34.35 305.7 34.9 307.05 35.95 308.35 37 308.85 36.95 309.5 36.85 310.65 35.6
L 311.4 34.5
Q 312.6 34.8 312.6 34.65
L 312.75 32.3
Q 313.6 31.45 314.35 30.2 Z"/>
</g>

<g id="Layer0_0_MEMBER_0_MEMBER_0_MEMBER_32_FILL">
<path fill="#F9C5AA" stroke="none" d="
M 299.8 66.4
L 299.15 66.05 298.7 65.5 298.2 65.4 298.05 65.4 297.7 65.25 297.85 65.5
Q 298.05 65.85 298.55 65.95
L 298.75 66.2
Q 299.05 66.45 299.55 66.5 300.4 66.55 300.3 66.3
L 300.75 67.1 300.05 65.45 299.5 65.05 300.1 66.25 299.8 66.4 Z"/>
</g>

<g id="Layer0_0_MEMBER_0_MEMBER_0_MEMBER_33_FILL">
<path fill="#F9C5AA" stroke="none" d="
M 301.7 62.45
Q 302.1 62.45 302.4 62.5
L 303 62.4 301.55 62.25 300.2 62.75 300.35 63.85 301.65 66.3 301.8 66.85
Q 301.95 67.45 302.05 67.4
L 302.35 67.25 302.05 66.95 301.45 65.15
Q 301.2 64.7 301 64.2 300.6 63.2 300.8 62.8 301 62.45 301.7 62.45 Z"/>
</g>

<g id="Layer0_0_MEMBER_0_MEMBER_0_MEMBER_34_FILL">
<path fill="#F9C5AA" stroke="none" d="
M 303.25 62.2
Q 303.4 61.95 303.05 61.6
L 303 62.4
Q 303.2 62.3 303.25 62.2 Z"/>
</g>

<g id="Layer0_0_MEMBER_0_MEMBER_0_MEMBER_35_FILL">
<path fill="#492728" stroke="none" d="
M 313.65 23.3
Q 312.4 21.7 309.6 21.6 306.95 21.55 305.6 22.75 304.55 23.75 303.75 26.65 303.05 29.2 303.2 29.5 303.65 30.05 304.55 30.2 305 30.25 305.45 30 305.85 29.8 306.65 29.95 307.6 30.15 307.5 30.65 307.45 30.85 307.2 31.05
L 307.6 31.45 308.2 31.15
Q 308.35 31.05 308.95 31 309.55 31 309.8 30.85 310.15 30.65 311.45 28.55 311.7 28.2 312.8 28.55 313.35 28.7 313.85 28.95 315 28.65 315.35 29.25 315.6 29.65 315.65 29.55 315.95 29 315.45 27.05 314.85 24.8 313.65 23.3 Z"/>
</g>

<g id="Layer0_0_MEMBER_0_MEMBER_0_MEMBER_36_FILL">
<path fill="#FD8638" stroke="none" d="
M 294.05 46.35
Q 296.45 42.3 296.65 37.75 296.75 35.65 295.55 34.5 294.6 33.55 293.45 33.6 292.6 33.6 291.35 35.35 290.2 37 289.4 39.05 288.75 40.8 287.5 45.75 286.3 50.35 286.25 50.9 286.2 51.45 287.4 53.25 288.85 55.5 291.05 57.7 293 59.65 294.75 61.7 296.05 63.25 296.1 63.25
L 296.3 63.25
Q 297.9 63.1 298.45 61.6 298.85 60.7 298.65 60.15
L 298.4 59.75
Q 292.45 51.65 291.85 50.4
L 294.05 46.35 Z"/>
</g>

<g id="Layer0_0_MEMBER_0_MEMBER_0_MEMBER_37_FILL">
<path fill="#B54113" stroke="none" d="
M 0.65 17.8
Q 0.2 16.65 2.45 9.25 3 7.25 4.3 4.35 6 0.6 7.2 0 6.35 0 5.1 1.75 3.95 3.4 3.15 5.45 2.5 7.2 1.25 12.15 0.05 16.75 0 17.3 -0.05 17.85 1.15 19.65 2.6 21.9 4.8 24.1 6.75 26.05 8.5 28.1 9.8 29.65 9.85 29.65
L 10.05 29.65 6.9 26
Q 1.15 19.15 0.65 17.8 Z"/>
</g>

<g id="Layer0_0_MEMBER_0_MEMBER_0_MEMBER_38_FILL">
<path fill="#FED4BF" stroke="none" d="
M 306.7 31.1
L 306.7 30.55
Q 307.1 29.45 306.3 29.45 305.5 29.5 305.25 30.85 305.25 32.3 305.95 32.15 306.65 32 306.7 31.1 Z"/>
</g>

<g id="Layer0_0_MEMBER_0_MEMBER_0_MEMBER_39_FILL">
<path fill="#FED4BF" stroke="none" d="
M 312.65 29.25
Q 312.25 28.95 312.2 28.95 311.9 28.95 311.3 29.7 310.65 30.7 310.2 31.05 310 31.25 309.25 31.25 308.5 31.25 308.25 31.4 307.85 31.6 307.65 32.35 307.4 33.15 307.6 33.75 307.8 34.3 308.9 34.3 310 34.3 310.4 33.9 310.7 33.6 310.55 33.45 310.5 33.35 310 33.15 308.95 32.7 309.45 32.25 309.85 31.95 310.8 31.7 311.7 31.5 312.15 31.6 312.95 31.65 313.25 31.5 313.45 31.3 314.45 29.45 313 29.45 312.65 29.25 Z"/>
</g>

<g id="Layer0_0_MEMBER_0_MEMBER_0_MEMBER_40_FILL">
<path fill="#FED4BF" stroke="none" d="
M 312.5 32.7
Q 312.6 32.4 312.5 32.45
L 311.9 33.2
Q 311.15 34 311.15 34.1 311.2 34.35 312.3 34.25 312.4 34.1 312.5 32.7 Z"/>
</g>

<g id="Layer0_0_MEMBER_0_MEMBER_0_MEMBER_41_FILL">
<path fill="#89979F" stroke="none" d="
M 333.9 85.3
L 331.5 82.95
Q 330.8 82.1 329.9 82.55
L 329.8 82.6 322.05 87.65
Q 321.5 88 321.55 88.7 321.65 89.35 322.25 89.75
L 325.3 91.65
Q 328.6 93.7 329.85 94.15 332.3 95.1 334.15 95.1 335.2 95.1 336.4 94.7 337.45 94.25 337.65 92.7 337.85 91.25 337.2 89.6 336.5 87.95 333.9 85.3 Z"/>
</g>

<g id="Layer0_0_MEMBER_0_MEMBER_0_MEMBER_42_FILL">
<path fill="#C2C9CD" stroke="none" d="
M 330.75 87.7
L 324.1 81.5
Q 323.65 81.25 322.8 82 322.25 82.45 322.4 83.1 322.45 83.4 322.6 83.6
L 328.6 88.85 331.1 89.15 330.75 87.7 Z"/>
</g>

<g id="Layer0_0_MEMBER_0_MEMBER_0_MEMBER_43_FILL">
<path fill="#D3D8DB" stroke="none" d="
M 330.4 87.9
L 324 81.6
Q 323.7 81.7 323.4 81.85 322.75 82.15 322.7 82.45 322.65 82.7 326 85.6 327.7 87.05 329.4 88.45
L 330.55 88.75 330.4 87.9 Z"/>
</g>

<g id="Layer0_0_MEMBER_0_MEMBER_1_FILL">
<path fill="#FD8839" stroke="none" d="
M 304.05 46.15
Q 303.95 45.55 303.35 45.7 302.8 45.95 302.8 46.55 302.85 46.8 303.05 46.9 303.3 47.05 303.5 46.95 304.15 46.75 304.05 46.15 Z"/>
</g>

<g id="Layer0_0_MEMBER_0_MEMBER_2_FILL">
<path fill="#FD8839" stroke="none" d="
M 296.65 47.5
Q 296.6 47.3 296.4 47.15 296.2 47.05 295.95 47.1 295.3 47.3 295.4 47.9 295.5 48.55 296.1 48.35 296.75 48.1 296.65 47.5 Z"/>
</g>

<g id="Layer0_0_MEMBER_0_MEMBER_3_FILL">
<path fill="#C2C9CD" stroke="none" d="
M 333.9 85.3
L 331.5 82.95
Q 330.8 82.1 329.9 82.55
L 332.65 85.5
Q 335.4 88.8 335.45 90.75 335.5 94.2 329.65 92.05 328.35 91.55 325.05 89.55
L 322.05 87.65
Q 321.5 88 321.55 88.7 321.65 89.35 322.25 89.75
L 325.3 91.65
Q 328.6 93.7 329.85 94.15 332.3 95.1 334.15 95.1 335.2 95.1 336.4 94.7 337.45 94.25 337.65 92.7 337.85 91.25 337.2 89.6 336.5 87.95 333.9 85.3 Z"/>
</g>

<g id="Layer0_0_MEMBER_0_MEMBER_4_FILL">
<path fill="#000000" fill-opacity="0.2980392156862745" stroke="none" d="
M 7.9 0
L 5.35 0.7 3.85 2.3 1.1 3.4 0.05 4.55
Q -0.1 4.7 0.35 5.5
L 1 6.2
Q 2.8 6.55 5.75 3.5 7.25 1.95 8.35 0.35
L 7.9 0 Z"/>
</g>

<g id="Layer0_0_MEMBER_0_MEMBER_5_FILL">
<path fill="#492F21" stroke="none" d="
M 330.55 93.85
Q 330.75 94 331.65 94.35
L 335.1 94.55 335.4 94.6
Q 335.8 94.6 336.35 94.2 337.193359375 93.50546875 337.2 93.8
L 337.2 88.95 336.45 87.8 334.9 86.25
Q 334.8 86.55 334.2 86.9 334.15 86.95 333.55 87 333.1 87.05 332.9 87.3
L 331.9 88.8 330.3 89.6 328.7 90 327.55 91.15 327.7 92.85
Q 327.85 93.05 330.55 93.85 Z"/>
</g>

<g id="Layer0_0_MEMBER_0_MEMBER_6_FILL">
<path fill="#593C2E" stroke="none" d="
M 333 87.8
L 331.95 89.25 330.9 89.85 329.5 90.2 332.75 90.35 331.7 91.2
Q 331.6 91.25 331.5 91.3 331.3 91.45 331.4 91.65 331.65 91.95 333.5 92.05
L 331.25 92.6 328.65 91.6 328.7 92.45
Q 331.6 93.15 331.75 93.3 331.85 93.4 331.45 93.6 331.35 93.8 332.5 93.75 334.45 93.7 334.3 93.75
L 336 92.95 336.3 92
Q 337.5 91.25 336.7 91.25
L 335.25 91.25 335.4 90.45 334.9 89.6
Q 334.5 89.45 334.25 89.3 333.75 89 334.6 88.95 335.3 88.95 335.75 88.8 335.9 88.8 335.95 88.9
L 336.8 90.15 336.95 88.9 335.8 87.65 334.8 86.8 333 87.8 Z"/>
</g>

<g id="Layer0_0_MEMBER_1_MEMBER_0_FILL">
<path fill="#CCC0BC" stroke="none" d="
M 24 14.75
L 27.8 2.05 18.6 0 3.7 2.05 2.55 3.15 0 6.65 1.2 9.95 8 12.3 11.45 14.3 14.7 14.75 24 14.75 Z"/>
</g>

<g id="Layer0_0_MEMBER_1_MEMBER_1_FILL">
<path fill="#492F21" stroke="none" d="
M 330 104.9
Q 329.25 104.25 329.15 104.1 328.8 103.55 327.4 101.05 327.1 100.55 326.95 100.4
L 326.3 100.05
Q 326.15 100 323.1 99.1 321.2 98.55 320.35 97.6 319.3 96 318.6 95.35 318.3 95 317.2 94.35 315.5 93.4 314.65 93.2 314.1 93.1 313 93.1
L 312 93.15 311.75 93.25
Q 311.65 93.35 311.65 93.75 311.65 94.5 310.35 95.05 309.05 95.6 309 96.3 309 96.7 309.15 97.4 309.1 97.8 308.5 98.25 307.85 98.75 307.6 98.95 306.45 100.2 306 100.4 305.95 100.45 305.3 100.7 304.5 101.1 304.05 101.85 303.55 102.65 303.55 103.55 303.55 104 303.5 104.05
L 303.15 104.35
Q 301.55 105.25 300.1 106.35 299.7 106.65 299.35 107.4 299 108.15 298.65 108.45 298.35 108.65 298.3 108.8 298.15 109.15 298.65 109.45
L 299.4 109.7
Q 299.85 109.85 300.35 110.25 300.6 110.45 301.15 110.95 302.6 112.15 305.05 112.4 306.15 112.55 309.25 112.45 310.7 112.45 311.4 112.7 312.4 112.95 314.3 113.75 315.35 114.1 317.65 114.05 318.1 114.1 318.95 114.15 319.75 114.2 320.25 114.15 321.9 113.85 322.2 112.65 322.25 111.85 322.4 111.5 322.7 110.75 323.95 110.55 325.35 110.3 325.75 110.1 326.2 109.85 326.75 109.1 327.4 108.3 327.75 108.05 328.25 107.7 329.45 107.3 330.55 106.7 330.55 105.9 330.55 105.4 330 104.9 Z"/>
</g>

<g id="Layer0_0_MEMBER_1_MEMBER_2_FILL">
<path fill="#593C2E" stroke="none" d="
M 325.9 102.35
Q 325.5 101.65 325.35 101.45 324.55 100.45 323.25 100.55 322.55 100.55 322.4 100.5
L 321.85 100.1
Q 321.3 99.6 320 99.3 320.2 99 319.8 98.75
L 317.55 97.1
Q 317.3 97 317.25 96.75 317.2 96.4 317.15 96.2 317.1 95.55 316.4 95.2 315.85 94.85 315.55 94.7 315.05 94.45 314.7 94.45 313.75 94.45 312.6 94.7
L 312.95 95
Q 313.15 95.1 313.25 95.35 313.35 95.8 313.1 96.1 312.7806640625 96.698828125 311.95 96.7 311.4 96.6 310.95 96.4
L 310.85 96.35
Q 310.85 97.35 311 97.55 311.1 97.7 311.4 97.8
L 312.65 98.2 312.1 98.3
Q 312.3 98.2755859375 312.3 98.7
L 312.3 99.35
Q 312.35 99.6 312.6 99.75 312.75 99.8 313 99.95
L 313.1 100.1
Q 313.15 100.25 313 100.6 312.85 100.9 312.9 101.05 312.25 100.45 311.45 100.3 311.3 100.5 311.5 101.15
L 311.45 101.5
Q 311.4 101.9 311.85 102.35 312.3 102.7 312.4 103.05 312.5 103.85 311.7 103.8 311.25 103.75 310.7 103.5 311.35 105.05 312.3 106.3
L 311.1 107.55 310.85 108.05
Q 310.65 108.75 311.4 109.25 312.6 109.95 313.65 110.1 313.75 111.65 313.95 112 314.3 112.65 315.3 112.95 315.5 112.95 315.55 112.85
L 317.65 112.75
Q 317.4 113.05 316.9 113.4 317.3 113.6 317.9 113.65 318.25 113.7 318.9 113.7 319.35 113.7 320.15 113.35 320.25 113.3 320.75 113.3 321.1 113.25 321.3 113.05
L 321.4 112.9 321.4 112.75 321.5 112.65
Q 321.7 112.45 321.6 112.2
L 321.5 112.05 321.35 112
Q 321 112.1 320.85 112
L 320.7 111.75
Q 320.6 111.55 320.1 111.2 319.3 110.5 319.3 109.65 319.3 109.15 319.65 108.8 319.85 108.65 320.3 108.55 320.5 108.5 321.4 109.05 322.25 109.6 322.45 109.55 321.85 108.5 321.4 107.3 321.7 107 322.4 106.5 321.65 104.85 320.4 104.15 322.2 103.75 323.1 103.9 324.2 104.05 326.4 105.4 326.9 105.7 327.05 105.6 327.55 105.4 327.35 104.75
L 327.15 104.45 326.15 103.6 326.45 103.2
Q 326.2 102.95 325.9 102.35 Z"/>
</g>

<g id="Layer0_0_MEMBER_1_MEMBER_3_FILL">
<path fill="#492F21" stroke="none" d="
M 310.25 113.1
Q 309.1 113.2 308.65 113.2 308.45 113.2 308.35 113.35 308.3 113.45 308.45 113.6 309.05 114.2 310.1 114.45
L 313.05 114.6
Q 313 114.35 312.5 113.8 312.05 113.35 311.8 113.2 311.3 113 310.25 113.1 Z"/>
</g>

<g id="Layer0_0_MEMBER_1_MEMBER_4_FILL">
<path fill="#593C2E" stroke="none" d="
M 331.35 107.25
L 331.15 107.2 330.45 107.5
Q 330.05 107.65 329.85 107.75 329.45 107.95 329.5 108.2 329.55 108.45 329.95 108.45
L 330.85 108.45
Q 331.25 108.45 331.6 107.9 331.95 107.3 331.35 107.25 Z"/>
</g>

<g id="Layer0_0_MEMBER_1_MEMBER_5_FILL">
<path fill="#492F21" stroke="none" d="
M 336 108.95
Q 336.1 108.5 335.95 108.25 335.8 107.95 335.15 107.95 334.55 107.95 334.25 108.15 333.85 108.4 333.85 108.75 333.9 109.1 334.35 109.15 334.9 109.2 335.9 109.1
L 335.95 109.05 336 108.95 Z"/>
</g>

<g id="Layer0_0_MEMBER_1_MEMBER_6_FILL">
<path fill="#492F21" stroke="none" d="
M 324.65 114.65
L 324.75 114.4
Q 324.95 113.3 323.8 113.55 323.5 113.6 322.1 114.2
L 321.9 114.35
Q 321.75 114.6 322 114.75 322.15 114.85 322.45 114.85 323.1 114.85 324.4 114.75
L 324.65 114.65 Z"/>
</g>
</defs>

<g transform="matrix( 1, 0, 0, 1, 0,0) ">
<use xlink:href="#Layer0_0_MEMBER_0_MEMBER_0_MEMBER_0_FILL"/>
</g>

<g transform="matrix( 7, 0, 0, 7, -1630.85,34.45) ">
<use xlink:href="#Layer0_0_MEMBER_0_MEMBER_0_MEMBER_1_FILL"/>
</g>

<g transform="matrix( 7, 0, 0, 7, -1630.85,34.45) ">
<use xlink:href="#Layer0_0_MEMBER_0_MEMBER_0_MEMBER_2_FILL"/>
</g>

<g transform="matrix( 7, 0, 0, 7, 499.6,324.25) ">
<use xlink:href="#Layer0_0_MEMBER_0_MEMBER_0_MEMBER_3_FILL"/>
</g>

<g transform="matrix( 7, 0, 0, 7, 527.95,301.5) ">
<use xlink:href="#Layer0_0_MEMBER_0_MEMBER_0_MEMBER_4_FILL"/>
</g>

<g transform="matrix( 7, 0, 0, 7, -1630.85,34.45) ">
<use xlink:href="#Layer0_0_MEMBER_0_MEMBER_0_MEMBER_5_FILL"/>
</g>

<g transform="matrix( 7, 0, 0, 7, -1630.85,34.45) ">
<use xlink:href="#Layer0_0_MEMBER_0_MEMBER_0_MEMBER_6_FILL"/>
</g>

<g transform="matrix( 7, 0, 0, 7, -1630.85,34.45) ">
<use xlink:href="#Layer0_0_MEMBER_0_MEMBER_0_MEMBER_7_FILL"/>
</g>

<g transform="matrix( 7, 0, 0, 7, -1630.85,34.45) ">
<use xlink:href="#Layer0_0_MEMBER_0_MEMBER_0_MEMBER_8_FILL"/>
</g>

<g transform="matrix( 7, 0, 0, 7, 388.3,431) ">
<use xlink:href="#Layer0_0_MEMBER_0_MEMBER_0_MEMBER_9_FILL"/>
</g>

<g transform="matrix( 7, 0, 0, 7, 499.25,515.35) ">
<use xlink:href="#Layer0_0_MEMBER_0_MEMBER_0_MEMBER_10_FILL"/>
</g>

<g transform="matrix( 7, 0, 0, 7, -1630.85,34.45) ">
<use xlink:href="#Layer0_0_MEMBER_0_MEMBER_0_MEMBER_11_FILL"/>
</g>

<g transform="matrix( 7, 0, 0, 7, -1630.85,34.45) ">
<use xlink:href="#Layer0_0_MEMBER_0_MEMBER_0_MEMBER_12_FILL"/>
</g>

<g transform="matrix( 7, 0, 0, 7, -1630.85,34.45) ">
<use xlink:href="#Layer0_0_MEMBER_0_MEMBER_0_MEMBER_13_FILL"/>
</g>

<g transform="matrix( 7, 0, 0, 7, 370.45,465.65) ">
<use xlink:href="#Layer0_0_MEMBER_0_MEMBER_0_MEMBER_14_FILL"/>
</g>

<g transform="matrix( 7, 0, 0, 7, 333.7,398.8) ">
<use xlink:href="#Layer0_0_MEMBER_0_MEMBER_0_MEMBER_15_FILL"/>
</g>

<g transform="matrix( 1, 0, 0, 1, 0,0) ">
<use xlink:href="#Layer0_0_MEMBER_0_MEMBER_0_MEMBER_16_FILL"/>
</g>

<g transform="matrix( 1, 0, 0, 1, 0,0) ">
<use xlink:href="#Layer0_0_MEMBER_0_MEMBER_0_MEMBER_17_FILL"/>
</g>

<g transform="matrix( 7, 0, 0, 7, 338.25,345.25) ">
<use xlink:href="#Layer0_0_MEMBER_0_MEMBER_0_MEMBER_18_FILL"/>
</g>

<g transform="matrix( 7, 0, 0, 7, 347,423.65) ">
<use xlink:href="#Layer0_0_MEMBER_0_MEMBER_0_MEMBER_19_FILL"/>
</g>

<g transform="matrix( 1, 0, 0, 1, 0,0) ">
<use xlink:href="#Layer0_0_MEMBER_0_MEMBER_0_MEMBER_20_FILL"/>
</g>

<g transform="matrix( 7, 0, 0, 7, -1630.85,34.45) ">
<use xlink:href="#Layer0_0_MEMBER_0_MEMBER_0_MEMBER_21_FILL"/>
</g>

<g transform="matrix( 1, 0, 0, 1, 0,0) ">
<use xlink:href="#Layer0_0_MEMBER_0_MEMBER_0_MEMBER_22_FILL"/>
</g>

<g transform="matrix( 7, 0, 0, 7, -1630.85,34.45) ">
<use xlink:href="#Layer0_0_MEMBER_0_MEMBER_0_MEMBER_23_FILL"/>
</g>

<g transform="matrix( 7, 0, 0, 7, -1630.85,34.45) ">
<use xlink:href="#Layer0_0_MEMBER_0_MEMBER_0_MEMBER_24_FILL"/>
</g>

<g transform="matrix( 7, 0, 0, 7, -1630.85,34.45) ">
<use xlink:href="#Layer0_0_MEMBER_0_MEMBER_0_MEMBER_25_FILL"/>
</g>

<g transform="matrix( 7, 0, 0, 7, -1630.85,34.45) ">
<use xlink:href="#Layer0_0_MEMBER_0_MEMBER_0_MEMBER_26_FILL"/>
</g>

<g transform="matrix( 7, 0, 0, 7, -1630.85,34.45) ">
<use xlink:href="#Layer0_0_MEMBER_0_MEMBER_0_MEMBER_27_FILL"/>
</g>

<g transform="matrix( 7, 0, 0, 7, -1630.85,34.45) ">
<use xlink:href="#Layer0_0_MEMBER_0_MEMBER_0_MEMBER_28_FILL"/>
</g>

<g transform="matrix( 1, 0, 0, 1, 0,0) ">
<use xlink:href="#Layer0_0_MEMBER_0_MEMBER_0_MEMBER_29_FILL"/>
</g>

<g transform="matrix( 1, 0, 0, 1, 0,0) ">
<use xlink:href="#Layer0_0_MEMBER_0_MEMBER_0_MEMBER_30_FILL"/>
</g>

<g transform="matrix( 7, 0, 0, 7, -1630.85,34.45) ">
<use xlink:href="#Layer0_0_MEMBER_0_MEMBER_0_MEMBER_31_FILL"/>
</g>

<g transform="matrix( 7, 0, 0, 7, -1630.85,34.45) ">
<use xlink:href="#Layer0_0_MEMBER_0_MEMBER_0_MEMBER_32_FILL"/>
</g>

<g transform="matrix( 7, 0, 0, 7, -1630.85,34.45) ">
<use xlink:href="#Layer0_0_MEMBER_0_MEMBER_0_MEMBER_33_FILL"/>
</g>

<g transform="matrix( 7, 0, 0, 7, -1630.85,34.45) ">
<use xlink:href="#Layer0_0_MEMBER_0_MEMBER_0_MEMBER_34_FILL"/>
</g>

<g transform="matrix( 7, 0, 0, 7, -1630.85,34.45) ">
<use xlink:href="#Layer0_0_MEMBER_0_MEMBER_0_MEMBER_35_FILL"/>
</g>

<g transform="matrix( 7, 0, 0, 7, -1630.85,34.45) ">
<use xlink:href="#Layer0_0_MEMBER_0_MEMBER_0_MEMBER_36_FILL"/>
</g>

<g transform="matrix( 7, 0, 0, 7, 372.9,269.65) ">
<use xlink:href="#Layer0_0_MEMBER_0_MEMBER_0_MEMBER_37_FILL"/>
</g>

<g transform="matrix( 7, 0, 0, 7, -1630.85,34.45) ">
<use xlink:href="#Layer0_0_MEMBER_0_MEMBER_0_MEMBER_38_FILL"/>
</g>

<g transform="matrix( 7, 0, 0, 7, -1630.85,34.45) ">
<use xlink:href="#Layer0_0_MEMBER_0_MEMBER_0_MEMBER_39_FILL"/>
</g>

<g transform="matrix( 7, 0, 0, 7, -1630.85,34.45) ">
<use xlink:href="#Layer0_0_MEMBER_0_MEMBER_0_MEMBER_40_FILL"/>
</g>

<g transform="matrix( 7, 0, 0, 7, -1630.85,34.45) ">
<use xlink:href="#Layer0_0_MEMBER_0_MEMBER_0_MEMBER_41_FILL"/>
</g>

<g transform="matrix( 7, 0, 0, 7, -1630.85,34.45) ">
<use xlink:href="#Layer0_0_MEMBER_0_MEMBER_0_MEMBER_42_FILL"/>
</g>

<g transform="matrix( 7, 0, 0, 7, -1630.85,34.45) ">
<use xlink:href="#Layer0_0_MEMBER_0_MEMBER_0_MEMBER_43_FILL"/>
</g>

<g transform="matrix( 7, 0, 0, 7, -1630.85,34.45) ">
<use xlink:href="#Layer0_0_MEMBER_0_MEMBER_1_FILL"/>
</g>

<g transform="matrix( 7, 0, 0, 7, -1630.85,34.45) ">
<use xlink:href="#Layer0_0_MEMBER_0_MEMBER_2_FILL"/>
</g>

<g transform="matrix( 7, 0, 0, 7, -1630.85,34.45) ">
<use xlink:href="#Layer0_0_MEMBER_0_MEMBER_3_FILL"/>
</g>

<g transform="matrix( 7, 0, 0, 7, 656.05,641) ">
<use xlink:href="#Layer0_0_MEMBER_0_MEMBER_4_FILL"/>
</g>

<g transform="matrix( 7, 0, 0, 7, -1630.85,34.45) ">
<use xlink:href="#Layer0_0_MEMBER_0_MEMBER_5_FILL"/>
</g>

<g transform="matrix( 7, 0, 0, 7, -1630.85,34.45) ">
<use xlink:href="#Layer0_0_MEMBER_0_MEMBER_6_FILL"/>
</g>

<g transform="matrix( 7, 0, 0, 7, 407.9,728.85) ">
<use xlink:href="#Layer0_0_MEMBER_1_MEMBER_0_FILL"/>
</g>

<g transform="matrix( 7, 0, 0, 7, -1630.85,34.45) ">
<use xlink:href="#Layer0_0_MEMBER_1_MEMBER_1_FILL"/>
</g>

<g transform="matrix( 7, 0, 0, 7, -1630.85,34.45) ">
<use xlink:href="#Layer0_0_MEMBER_1_MEMBER_2_FILL"/>
</g>

<g transform="matrix( 7, 0, 0, 7, -1630.85,34.45) ">
<use xlink:href="#Layer0_0_MEMBER_1_MEMBER_3_FILL"/>
</g>

<g transform="matrix( 7, 0, 0, 7, -1630.85,34.45) ">
<use xlink:href="#Layer0_0_MEMBER_1_MEMBER_4_FILL"/>
</g>

<g transform="matrix( 7, 0, 0, 7, -1630.85,34.45) ">
<use xlink:href="#Layer0_0_MEMBER_1_MEMBER_5_FILL"/>
</g>

<g transform="matrix( 7, 0, 0, 7, -1630.85,34.45) ">
<use xlink:href="#Layer0_0_MEMBER_1_MEMBER_6_FILL"/>
</g>
</svg>
