
<svg xmlns="http://www.w3.org/2000/svg" version="1.1" xmlns:xlink="http://www.w3.org/1999/xlink" preserveAspectRatio="none" x="0px" y="0px" width="1024px" height="1024px" viewBox="0 0 1024 1024">
<defs>
<g id="Layer0_0_MEMBER_0_FILL">
<path fill="#CCC0BC" stroke="none" d="
M 44.95 15.8
L 44.95 15.75
Q 44.85 11.8 40.05 9 34.9 6 27.45 6.25 27.7 3.5 24.85 1.7 21.5 -0.35 15.9 0.05 10.25 0.5 5.65 3.15 1.1 5.8 0.2 9.15 -0.7 12.5 2.65 14.55 6.1 16.65 11.9 16.15 12.2 19.85 16.75 22.5 21.6 25.3 28.45 25.3 35.35 25.3 40.15 22.5 44.95 19.75 44.95 15.8 Z"/>
</g>

<g id="Layer0_0_MEMBER_1_FILL">
<path fill="#2F2720" stroke="none" d="
M 414.4 96.15
Q 414.4 95.4 410.45 94.15
L 404.5 92.2 404.35 92.95 404.6 93.75 407.4 95.1
Q 407.6 95.15 408.55 95.85 409.6 96.6 410.1 96.8 410.4 96.9 411.7 97.55 412.65 98 412.9 98.05 413.35 98.05 414.1 97.1 414.45 96.9 414.4 96.15 Z"/>
</g>

<g id="Layer0_0_MEMBER_2_FILL">
<path fill="#D5A856" stroke="none" d="
M 408 94.9
Q 408.1 94.95 409.3 95.8 410.55 96.65 411.1 96.85 413.25 97.45 413.55 97.3 414.6 96.6 414.4 95.5 414.3 94.9 412.75 93.7 411.55 92.8 411 92.5 409.25 90.95 409.1 90.95
L 404 91.45 404.65 93
Q 404.85 93.35 408 94.9 Z"/>
</g>

<g id="Layer0_0_MEMBER_3_FILL">
<path fill="#3761A1" stroke="none" d="
M 409.2 56.2
Q 407.4 56 405.5 55.8 401.7 55.4 401.25 55.55 400.7 55.7 399.75 57.6 398.8 59.45 398.65 60.45 398.55 61.25 399.15 65.5 399.5 67.65 399.8 69.6
L 399.95 72.75
Q 400.15 76.1 400.5 77.15 401.1 78.9 402.4 86.35 402.45 86.45 402.5 88.65 402.6 91 402.95 91.5 403.5 92.35 405 92.95
L 406.1 92.95
Q 407.35 92.95 407.8 92.75 409.75 91.8 409.85 90.85 409.9 90.35 409.6 87.9 409.3 85.5 409.15 85.05 408.9 84.3 408.9 78.55 408.9 78.25 409.3 76.55 409.65 74.9 409.65 74.2 409 64.3 409.1 63.35
L 409.2 56.2 Z"/>
</g>

<g id="Layer0_0_MEMBER_4_FILL">
<path fill="#17377A" stroke="none" d="
M 3.4 10.6
L 5.1 9.2 5.55 6.8
Q 4.05 3.1 1.85 0 1.3 0.8 0.7 2.15 0.1 3.45 0 4.15 -0.15 5.45 1.15 13.3
L 1.3 16.45
Q 1.5 19.8 1.85 20.85 2.45 22.6 3.75 30.05 3.8 30.15 3.85 32.35 3.95 34.7 4.3 35.2 4.7 35.75 5.85 36.4
L 4.65 32.55 6.45 34.4 5 30.25 8.2 32.7
Q 5.1 29.65 4.8 29.2 4.6 28.85 4.3 27.15 4.05 25.55 4.05 24.85 4.05 24.65 3.3 21.15
L 2.6 18.85
Q 2.8 17.75 3.1 17.1 3.3 16.7 3.15 15.7
L 2.9 14.8 3.1 12.2 4.55 13.9 3.15 11.85 3.4 10.6 Z"/>
</g>

<g id="Layer0_0_MEMBER_5_FILL">
<path fill="#2F2720" stroke="none" d="
M 399.15 98.85
L 394.75 95.35
Q 394.6 95.4 394.5 95.5 394.2 95.7 394.2 95.85 394.15 96.05 394.25 96.65
L 394.65 97.35
Q 395.05 98.2 395.2 99 395.4 100.05 396.15 100.95 396.95 101.9 397.95 102.2 399.35 102.65 401.5 102.45 402.25 102.35 402.1 100.85 401.15 100.35 399.15 98.85 Z"/>
</g>

<g id="Layer0_0_MEMBER_6_FILL">
<path fill="#D5A856" stroke="none" d="
M 399.45 94.75
Q 398.15 94.5 396.85 94.25 394.3 93.75 394.25 93.85
L 394.35 95.95 394.95 96.65 395.3 98
Q 395.7 99.45 396.05 100.05 396.85 101.4 398.3 101.9 399.85 102.45 401.35 102 401.95 101.8 402.1 100.85 402.15 100.65 400.2 97.25
L 399.45 94.75 Z"/>
</g>

<g id="Layer0_0_MEMBER_7_FILL">
<path fill="#3761A1" stroke="none" d="
M 391.05 57.25
Q 390.8 59.3 390.85 60 390.9 60.55 391 64.1 391.2 67.75 391.6 69.4 392.25 72 391.9 80.7
L 392.2 85.2
Q 392.55 89.9 392.75 90.95 392.9 91.85 393.05 93.5 393.15 94.8 393.2 94.9
L 394.95 96.1 396.6 96.4 399.8 95
Q 400.45 93.95 400.5 93.5 400.55 93.25 400.5 91.8 400.4 90.55 400.35 90.15 400.45 82.65 400.4 81.95 400.15 78.15 400.5 77.15 400.75 76.35 401.05 66.8 401.1 66.6 401.7 66.15 402 65.9 402.3 65.7 403.9 64 404.2 63.1
L 405.4 58.5
Q 402 54.65 398.05 53.75 395.25 53.15 392.7 54.1 391.35 54.65 391.35 54.95 391.25 55.6 391.05 57.25 Z"/>
</g>

<g id="Layer0_0_MEMBER_8_FILL">
<path fill="#17377A" stroke="none" d="
M 2.65 20.7
L 1.95 15.45
Q 1.2 9.75 1.2 8.95 0.95 4.95 1.05 4.6 1.65 1.45 1.85 0 0.5 0.55 0.5 0.85 0.4 1.5 0.2 3.15 -0.05 5.2 0 5.9 0.05 6.45 0.15 10 0.35 13.65 0.75 15.3 1.4 17.9 1.05 26.6
L 1.35 31.1
Q 1.7 35.8 1.9 36.85 2.05 37.75 2.2 39.4 2.3 40.7 2.35 40.8
L 3.1 41.35 2.55 34.55
Q 2.5 34.35 2.55 32.55 2.6 30.7 2.65 30.35 2.7 29.9 2.65 20.7 Z"/>
</g>

<g id="Layer0_0_MEMBER_9_FILL">
<path fill="#17377A" stroke="none" d="
M 0 11.45
L 1.25 11.15 0.65 14.3
Q 1.3 14.5 1.35 14.35 1.4 14.25 1.85 14.45 2.05 14.55 2.25 14.65
L 2.15 14.15
Q 1.9 13.4 1.9 7.65 1.9 7.35 2.3 5.65 2.65 4 2.65 3.3
L 2.5 0 1.7 3.35 2 5.15 2 6.65 0 11.45 Z"/>
</g>

<g id="Layer0_0_MEMBER_10_FILL">
<path fill="#FBC7AC" stroke="none" d="
M 422.6 42.1
Q 424.4 43.4 424.85 43.45 425.35 43.5 427.2 42.5 429 41.55 429.05 41.3 429.05 41.1 426.85 39
L 422.1 34.9 419.1 34.7 418.95 34.95
Q 417.5 37.8 418 38.2
L 420.8 40.75
Q 420.9 40.8 422.6 42.1 Z"/>
</g>

<g id="Layer0_0_MEMBER_11_FILL">
<path fill="#F5A480" stroke="none" d="
M 11.9 5.7
L 12.85 3.9 12 1.35 10.7 1.9
Q 10.55 1.95 10.15 2.55 9.7 3.25 9.5 3.95 9.4 4.2 9.5 4.5 9.55 4.65 9.8 4.9 10.05 5.25 9.75 6.1
L 9.4 6.9
Q 9.05 7.65 8.45 7.85 7.75 7.8 7.35 7.85 6.75 7.95 6.65 7.9
L 5.15 7 2.65 4.85
Q 1.55 3.75 1.6 3.3
L 2.05 1.5
Q 1.35 0.35 1.05 0 -0.4 2.85 0.1 3.25
L 2.9 5.8
Q 3 5.85 4.7 7.15 6.5 8.45 6.95 8.5 7.55 8.8 8.45 8.65 9.35 8.5 10.05 8.05 10.95 7.5 11.9 5.7 Z"/>
</g>

<g id="Layer0_0_MEMBER_12_FILL">
<path fill="#FD8839" stroke="none" d="
M 422.7 34.9
L 421.65 33.65
Q 420.2 32 419.7 31.15 419.4 30.6 418.6 29.75
L 417.85 29 415.2 28.85 417.2 37.4 417.95 38.45 419.15 37.95
Q 420.45 37.4 421 36.95 421.9 36.25 422.7 34.9 Z"/>
</g>

<g id="Layer0_0_MEMBER_13_FILL">
<path fill="#F6562A" stroke="none" d="
M 479.3 235.65
Q 467.75 237.75 457.25 241.95 433.8 250.35 417.7 262.6 403.7 273.8 402.3 279.75 389 364.8 387.25 365.15 385.85 365.5 383.05 371.1 381.65 374.25 380.6 377.05 373.6 384.05 365.9 397.7 361 406.1 358.2 419.4 356.8 425.7 356.1 430.6
L 361.35 443.55
Q 369.75 457.9 385.15 465.6 401.6 474 431.35 474 457.25 474 466 469.45 471.95 466.3 477.9 460 482.8 454.4 483.85 451.6 485.25 448.8 505.2 400.15 508.35 394.2 531.45 337.15 539.85 318.6 543.7 307.05 546.15 298.65 548.95 282.9 551.75 267.5 551.4 264 550.35 257.35 545.45 252.45 506.95 236 498.2 234.6 491.9 233.2 479.3 235.65 Z"/>
</g>

<g id="Layer0_0_MEMBER_14_FILL">
<path fill="#C5FD4B" stroke="none" d="
M 427.5 262.95
Q 438.7 265.75 445.35 278.35 452 290.6 445 320 441.85 334.35 436.95 346.6
L 435.55 355
Q 432.4 363.4 422.95 364.45 413.5 365.5 401.25 359.9
L 390.75 353.95
Q 382.7 369 379.9 373.2
L 362.4 400.15 361.35 402.25
Q 361.35 402.95 362.4 416.6 368 431.65 390.05 441.45 413.85 451.95 431.7 451.95 446.05 451.95 450.6 445.65 456.9 436.9 469.5 402.95 484.9 361.65 487 335.4 490.15 306 490.15 300.4 490.5 294.8 483.85 287.1 459.7 258.05 459.35 249.65 459 241.6 470.2 239.5 495.05 236.35 499.95 238.45 504.5 240.2 511.85 257 519.55 274.5 517.45 281.5 516.75 284.3 515 289.9 513.95 292.35 513.25 298.3 512.55 307.4 504.15 344.15 495.75 383 491.2 395.6 478.95 433.4 479.65 437.25 480.35 441.1 487.35 435.85 494.35 430.6 497.5 424.65
L 505.9 406.1
Q 526.55 360.25 530.75 346.25 544.05 309.15 545.8 302.15 547.9 294.45 549.3 280.8 550.7 264.35 548.25 258.75 545.45 252.45 532.5 243.35 520.6 234.25 514.65 233.2 507.3 231.8 491.9 233.55 470.2 235.65 450.6 243.35
L 439.05 248.95
Q 428.55 253.85 417.7 262.6
L 427.5 262.95 Z"/>
</g>

<g id="Layer0_0_MEMBER_15_MEMBER_0_FILL">
<path fill="#9AC2D5" stroke="none" d="
M 483.5 292.35
L 477.2 285.7
Q 458.3 266.8 450.6 243.35
L 439.05 248.95
Q 444.3 264.7 453.4 277.65 458.3 284.3 468.1 294.45
L 473.35 300.05
Q 475.45 304.6 469.5 331.9
L 466.7 348.7
Q 464.6 362.35 452.35 391.4 440.8 419.4 435.55 425.7 420.15 428.85 397.05 417.65 378.85 408.9 370.8 387.2
L 362.4 400.15
Q 373.25 420.45 391.45 429.2 412.45 439 429.6 439 433.1 439 439.4 437.95 447.8 436.55 463.2 398.05 476.85 364.45 479.3 350.45
L 482.1 334
Q 485.6 315.1 486.3 307.4 487 296.9 483.5 292.35 Z"/>
</g>

<g id="Layer0_0_MEMBER_16_MEMBER_0_FILL">
<path fill="#9AC2D5" stroke="none" d="
M 538.45 260.85
L 525.85 261.9
Q 526.2 269.25 512.55 332.6
L 507.65 356.05
Q 506.95 359.9 494.7 398.05 489.1 414.85 489.1 415.9
L 492.25 421.5
Q 494 422.55 495.75 422.55
L 498.55 422.2 505.9 406.1 505.2 406.45 506.6 402.25
Q 518.5 367.95 520.25 358.15
L 524.8 335.4
Q 539.15 267.15 538.45 260.85 Z"/>
</g>

<g id="Layer0_0_MEMBER_17_FILL">
<path fill="#FBC7AC" stroke="none" d="
M 423.9 42.45
Q 424.15 43.1 424.85 43.45 425.45 43.75 426.35 43.6 427.25 43.45 427.95 43 428.85 42.45 429.8 40.65
L 430.75 38.85
Q 431.95 36.45 431.35 35.7 431 35.25 430.45 34.95
L 429.95 34.7 425.2 38.5
Q 424.3 39.4 424.15 39.85 424 40.2 423.9 41.05 423.8 41.85 423.85 42.15
L 423.9 42.45 Z"/>
</g>

<g id="Layer0_0_MEMBER_18_FILL">
<path fill="#F6562A" stroke="none" d="
M 429.25 39.35
L 430.05 35.5 425.65 36.75 424.95 40.8 429.25 39.35 Z"/>
</g>

<g id="Layer0_0_MEMBER_19_MEMBER_0_MEMBER_0_FILL">
<path fill="#29241F" stroke="none" d="
M 420.9 47.65
L 418.8 47.65 409 99.1 409.9 99.4 410.9 98.7 420.9 47.95 420.9 47.65 Z"/>
</g>

<g id="Layer0_0_MEMBER_19_MEMBER_0_MEMBER_1_FILL">
<path fill="#888682" stroke="none" d="
M 420.9 47.95
L 419.7 47.95 409.9 99.4 410.9 98.7 420.9 47.95 Z"/>
</g>

<g id="Layer0_0_MEMBER_19_MEMBER_0_MEMBER_2_FILL">
<path fill="#423A32" stroke="none" d="
M 420.45 50.05
L 419.3 50 416.85 62.9 417.9 63.1 420.45 50.05 Z"/>
</g>

<g id="Layer0_0_MEMBER_19_MEMBER_0_MEMBER_3_MEMBER_0_FILL">
<path fill="#29241F" stroke="none" d="
M 420.9 48.25
L 418.8 48.25 415.8 114.15 416.7 114.5 417.7 113.75 420.9 48.25 Z"/>
</g>

<g id="Layer0_0_MEMBER_19_MEMBER_0_MEMBER_3_MEMBER_1_FILL">
<path fill="#888682" stroke="none" d="
M 420.9 48.55
L 419.7 48.55 416.7 114.5 417.7 113.75 420.85 48.85 420.9 48.55 Z"/>
</g>

<g id="Layer0_0_MEMBER_19_MEMBER_0_MEMBER_4_MEMBER_0_FILL">
<path fill="#29241F" stroke="none" d="
M 421.05 48.55
L 418.95 48.55 431.8 101.7 432.7 102 433.7 101.3 421.05 48.85 421.05 48.55 Z"/>
</g>

<g id="Layer0_0_MEMBER_19_MEMBER_0_MEMBER_4_MEMBER_1_FILL">
<path fill="#888682" stroke="none" d="
M 421.05 48.85
L 419.85 48.85 432.7 102 433.7 101.3 421.05 48.85 Z"/>
</g>

<g id="Layer0_0_MEMBER_19_MEMBER_0_MEMBER_5_FILL">
<path fill="#423A32" stroke="none" d="
M 420.75 50.9
L 419.6 50.85 419 64.15 420.1 64.15 420.75 50.9 Z"/>
</g>

<g id="Layer0_0_MEMBER_19_MEMBER_0_MEMBER_6_FILL">
<path fill="#423A32" stroke="none" d="
M 421.05 48.85
L 419.85 48.85 422.9 61.45 424 61.1 421.05 48.85 Z"/>
</g>

<g id="Layer0_0_MEMBER_20_FILL">
<path fill="#FD9C2A" stroke="none" d="
M 636.1 385.1
L 636.1 309.85 547.2 361.65 547.2 436.9 636.1 385.1 Z"/>
</g>

<g id="Layer0_0_MEMBER_21_FILL">
<path fill="#D46B1C" stroke="none" d="
M 600.05 363.05
L 576.6 364.8 571 378.8
Q 565.4 393.5 566.1 398.75 567.15 405.05 573.8 407.15 580.45 408.9 587.45 405.75 601.45 399.1 604.95 389.65 607.75 383 600.05 363.05 Z"/>
</g>

<g id="Layer0_0_MEMBER_22_FILL">
<path fill="#D46B1C" stroke="none" d="
M 418.05 44.55
L 413.8 42.1 413.8 52.85 418.05 55.3 418.05 44.55 Z"/>
</g>

<g id="Layer0_0_MEMBER_23_FILL">
<path fill="#FED736" stroke="none" d="
M 413.8 42.1
L 418.05 44.55 430.75 37.15 426.55 34.7 413.8 42.1 Z"/>
</g>

<g id="Layer0_0_MEMBER_24_FILL">
<path fill="#E43513" stroke="none" d="
M 362.4 416.6
Q 361.9123046875 410.2607421875 361.65 406.7 357.548046875 417.3267578125 356.1 430.6
L 357.15 434.1
Q 358.55 438.65 361 442.85
L 361.7 437.95 365.15 422.15
Q 363.469921875 419.475390625 362.4 416.6
M 491.2 395.6
Q 491.583203125 394.5388671875 492 393.3 481.5298828125 393.7853515625 472.7 394.1 471.1845703125 398.4322265625 469.5 402.95 464.694921875 415.897265625 460.8 425.15 463.7453125 424.294140625 467.4 423.25 479.982421875 419.6205078125 484 418.5 486.7697265625 409.2703125 491.2 395.6 Z"/>

<path fill="#B79D20" stroke="none" d="
M 378.15 420.8
L 396 436.9
Q 402.573828125 436.2697265625 408.3 435.65 400.2267578125 433.295703125 391.45 429.2 384.2390625 425.733203125 378.15 420.45
L 378.15 420.8
M 365.15 422.15
L 367.95 409.15
Q 365.6318359375 405.8931640625 363.55 402.25 362.538671875 404.4201171875 361.65 406.7 361.9123046875 410.2607421875 362.4 416.6 363.469921875 419.475390625 365.15 422.15
M 496.3 393.1
Q 494.111328125 393.1986328125 492 393.3 491.583203125 394.5388671875 491.2 395.6 486.7697265625 409.2703125 484 418.5 485.8419921875 418 485.95 418 486.76171875 417.5130859375 489.6 416.8
L 489.1 415.9
Q 489.1 414.85 494.7 398.05 495.5208984375 395.493359375 496.3 393.1
M 472.7 394.1
Q 468.51875 394.2423828125 464.7 394.35 463.9640625 396.16953125 463.2 398.05 454.2955078125 420.311328125 447.7 430.15 448.64140625 429.8419921875 448.85 429.55 449.9515625 428.4484375 460.8 425.15 464.694921875 415.897265625 469.5 402.95 471.1845703125 398.4322265625 472.7 394.1
M 401.25 359.9
L 390.75 353.95
Q 389.920703125 355.500390625 389.15 356.9 387.5451171875 365.15 387.25 365.15 385.85 365.5 383.05 371.1 381.65 374.25 380.6 377.05 376.130078125 381.519921875 371.35 388.7 373.7673828125 394.751171875 376.95 399.75
L 380.25 397.7 379.7 403.6
Q 386.7572265625 412.7015625 397.05 417.65 420.15 428.85 435.55 425.7 440.4912109375 419.7705078125 451 394.6 435.3099609375 394.758984375 429.25 393.85 419.1 392.45 412.45 390 406.5 387.55 406.15 386.15 405.958984375 385.3861328125 406.7 362.1 404.051171875 361.18046875 401.25 359.9 Z"/>

<path fill="#8F785B" stroke="none" d="
M 374.65 401.2
L 376.95 399.75
Q 373.7673828125 394.751171875 371.35 388.7 368.683203125 392.7662109375 365.9 397.7 364.6572265625 399.9029296875 363.55 402.25 365.6318359375 405.8931640625 367.95 409.15
L 368.7 405.75
Q 369.05 404.7 374.65 401.2
M 464.7 394.35
Q 457.1259765625 394.563671875 451 394.6 440.4912109375 419.7705078125 435.55 425.7 420.15 428.85 397.05 417.65 386.7572265625 412.7015625 379.7 403.6
L 378.15 420.45
Q 384.2390625 425.733203125 391.45 429.2 400.2267578125 433.295703125 408.3 435.65 441.9896484375 432.2322265625 447.7 430.15 454.2955078125 420.311328125 463.2 398.05 463.9640625 396.16953125 464.7 394.35
M 508.7 392.45
Q 502.24296875 392.7953125 496.3 393.1 495.5208984375 395.493359375 494.7 398.05 489.1 414.85 489.1 415.9
L 489.6 416.8
Q 492.8947265625 415.9759765625 498.9 414.85
L 508.7 392.45 Z"/>

<path fill="#EE9F6E" stroke="none" d="
M 390.75 353.95
L 401.25 359.9
Q 404.051171875 361.18046875 406.7 362.1 407.3279296875 342.7345703125 408.6 307.75
L 396 318.95
Q 391.34453125 345.6685546875 389.15 356.9 389.920703125 355.500390625 390.75 353.95 Z"/>
</g>

<g id="Layer0_0_MEMBER_25_FILL">
<path fill="#FBC7AC" stroke="none" d="
M 411.05 23.95
Q 410.65 24.2 410.25 24.45 409.5 25 409.45 25.2 409.4 25.45 409 26.05 408.55 26.7 408.35 26.75
L 406.4 27.55 406.4 28.25
Q 406.55 29.15 407.45 30.25 408.6 31.7 409.35 32.15 409.95 32.55 410.4 32.6
L 411.75 32.85 411.9 33.9 412.95 32.5 414.5 31.4 414.8 31.15
Q 415.9 28.6 415.35 28.05
L 411.05 23.95 Z"/>
</g>

<g id="Layer0_0_MEMBER_26_FILL">
<path fill="#F5A480" stroke="none" d="
M 2.55 4.05
L 3.6 2.65 5.15 1.55
Q 4.3 1 1.3 0
L 1.65 1.35
Q 1.65 1.95 1.6 2 1.5 2.1 0.45 2.25
L 0 2.3
Q 0.6 2.7 1.05 2.75
L 2.4 3 2.55 4.05 Z"/>
</g>

<g id="Layer0_0_MEMBER_27_FILL">
<path fill="#FBC7AC" stroke="none" d="
M 420.85 22.9
L 419.95 21.8
Q 414.75 19.4 412.65 20 411.35 20.4 410.3 22.9 409.75 24.15 409.45 25.3
L 409.75 27 410.65 29.85 411.05 30.6
Q 411.5 31.4 411.95 31.9 412.55 32.55 413.45 33.35 414.45 34.25 414.75 34.3 415.05 34.35 415.65 34.25 416.15 34.15 416.4 34 416.65 33.75 417.85 32.05
L 418.15 32.1 418.75 31.8
Q 418.8 31.7 418.75 30.7
L 418.9 30.05
Q 419.65 28.8 419.7 28.75 420.5 27.45 420.65 26.4 420.8 25.8 420.85 24.3
L 420.85 22.9 Z"/>
</g>

<g id="Layer0_0_MEMBER_28_FILL">
<path fill="#FBC7AC" stroke="none" d="
M 389.7 344.15
L 384.8 383.7
Q 384.1 386.5 385.85 396.3 387.95 408.2 391.45 412.05 395.3 416.25 414.9 419.05 432.4 421.5 439.05 420.45 441.85 420.1 465.65 414.15 487.35 408.55 488.75 408.9 496.1 411 500.65 410.3 503.1 409.95 509.75 406.1
L 518.85 404.7 523.4 405.05 528.3 399.8 526.9 396.65 530.75 395.95 531.8 395.6 532.85 390 527.6 386.5 522.7 385.8 539.5 387.2 540.55 386.5
Q 542.65 384.4 542.3 383.7
L 539.5 379.5 533.55 377.75 521.65 375.65
Q 520.95 376.35 514.65 375.3
L 522 370.75
Q 523.75 370.05 534.95 371.45
L 537.05 371.45 537.75 370.05
Q 538.45 365.5 537.05 365.5
L 524.1 362.35 524.45 362.35
Q 525.5 360.6 526.2 359.2 527.95 356.4 526.9 355.7
L 523.4 353.95 517.45 358.85 508 362.35 496.1 376
Q 491.2 381.95 489.8 382.65 455.85 385.8 452 386.5 449.2 386.85 438.7 385.1 429.6 383.35 425.4 382.3 430.65 358.15 431 356.75 431.35 355.7 423.65 348.35
L 389.7 344.15 Z"/>
</g>

<g id="Layer0_0_MEMBER_29_FILL">
<path fill="#492728" stroke="none" d="
M 421 21.25
Q 420.6 19.95 419.25 18.8 417.95 17.65 416.45 17.3 414.85 17 412.85 17.65 410.75 18.35 410.3 19.45 409.9 20.55 409.55 22.25 409.2 23.85 409.2 24.4 409.2 26.35 409.25 26.4 409.3 26.6 409.75 27
L 410.25 26.35
Q 410.35 26.25 410.45 25.95 410.7 25.7 411.35 26 412.35 26.45 412 28.35
L 412.5 28.55 412.95 27.7 414.5 27.55
Q 415.1 26.75 415.35 26.2 415.6 25.75 415.85 25.65 416.2 25.5 417.1 25.65 418.3 25.85 419.25 25.85
L 420.65 25.75 421 25.25
Q 421.6 22.95 421 21.25 Z"/>
</g>

<g id="Layer0_0_MEMBER_30_FILL">
<path fill="#FED6C1" stroke="none" d="
M 411.55 28.05
Q 411.6 27.55 411.55 27.1 411.45 26.35 410.7 25.9 410.4 25.8 410.15 25.95 409.8 26.15 409.75 26.6 409.7 27.05 409.8 27.75 409.9 28.45 410 28.55 410.45 29.2 410.95 29.1 411.25 29.05 411.55 28.05 Z"/>
</g>

<g id="Layer0_0_MEMBER_31_FILL">
<path fill="#FED6C1" stroke="none" d="
M 419.55 26.2
L 417.7 26.3
Q 417.4 26.3 417.05 26.3 416.4 26.3 416.25 26.5 416.15 26.65 415.65 26.85 415.15 27.1 415 27.2 414.85 27.35 414.15 27.6 413.45 27.85 413.3 27.95 413.05 28.1 412.8 28.55 412.55 29 412.55 29.25 412.55 29.65 412.75 30.25 413.05 31.1 413.5 31.55 414.15 32.25 415.3 31.35
L 416.05 30.55 414.7 30.1
Q 413.85 29.8 413.95 29.35 414.05 28.75 414.4 28.55 414.65 28.45 415.35 28.45 416.1 28.45 416.5 28.5 416.95 28.6 417.7 28.6 418.4 28.6 418.6 28.45
L 419.7 27.7
Q 420.2 26.25 419.55 26.2 Z"/>
</g>

<g id="Layer0_0_MEMBER_32_FILL">
<path fill="#FED6C1" stroke="none" d="
M 418.4 29.1
L 418.2 29.35 417.8 30.2 417.15 31 417.65 31.55
Q 418.45 31.9 418.55 31.75 418.6 31.6 418.5 30.1
L 418.4 29.1 Z"/>
</g>

<g id="Layer0_0_MEMBER_33_FILL">
<path fill="#F5A480" stroke="none" d="
M 429.75 362.25
Q 430.84765625 357.3591796875 431 356.75 431.2359375 356.0419921875 427.8 352.45
L 425.4 358.5 425.05 368.65 421.9 378.1
Q 410 378.45 405.8 380.55 401.6 382.3 400.55 383.35
L 411.75 380.9 425.4 382.3
Q 428.3658203125 368.657421875 429.75 362.25 Z"/>

<path fill="#C0D138" stroke="none" d="
M 435.55 355
Q 433.7216796875 359.875390625 429.75 362.25 428.3658203125 368.657421875 425.4 382.3 437.65 377.75 441.85 373.55 445.7 369.7 447.8 358.5 450.6 346.25 446.05 342.4 443.132421875 339.7255859375 439.2 340.6 438.126171875 343.659375 436.95 346.6
L 435.55 355 Z"/>

<path fill="#F04720" stroke="none" d="
M 439.2 340.6
Q 437.4736328125 340.98125 435.55 342.05
L 430.3 346.25 427.8 352.45
Q 431.2359375 356.0419921875 431 356.75 430.84765625 357.3591796875 429.75 362.25 433.7216796875 359.875390625 435.55 355
L 436.95 346.6
Q 438.126171875 343.659375 439.2 340.6 Z"/>
</g>

<g id="Layer0_0_MEMBER_34_FILL">
<path fill="#F5A480" stroke="none" d="
M 0 1.45
L 1.15 0.95 1.9 0.95
Q 2.05 0.7 2.15 0.5 2.4 0.1 2.25 0
L 2.05 0.2
Q 1.9 0.4 1.15 0.55
L 0 1.45 Z"/>
</g>

<g id="Layer0_0_MEMBER_35_FILL">
<path fill="#F5A480" stroke="none" d="
M 11.55 10
Q 14.65 9.2 14.85 9.25 15.9 9.55 16.55 9.45 16.9 9.4 17.85 8.85
L 19.15 8.65 19.8 8.7 19.95 8.55 19.15 8.5 17.7 8.65 16.3 9.15 15.25 8.85
Q 15.3 8.95 15.25 9.05 15.2 9.1 13.85 9.1 11.65 9.45 11 9.55 10.4 9.7 9.05 9.9 7.5 10.1 7.15 10.05
L 3.05 9.85
Q 1.4 9.5 1.1 9.15 0.75 8.75 0.45 6.95 1.05 3.8 1.1 3.35 1.55 0.75 1.65 0.1
L 0.7 0 0 5.65
Q -0.1 6.05 0.15 7.45 0.45 9.15 0.95 9.7 1.5 10.3 4.3 10.7 6.8 11.05 7.75 10.9 8.15 10.85 11.55 10 Z"/>

<path fill="#F9D3BF" stroke="none" d="
M 20.3 7.5
L 20.3 7.95 19.95 8.55 20.5 7.95 20.3 7.5 Z"/>
</g>

<g id="Layer0_0_MEMBER_36_FILL">
<path fill="#F5A480" stroke="none" d="
M 1.7 0.35
L 2.25 0.25 1.2 0 0 0.35 1.7 0.35 Z"/>
</g>

<g id="Layer0_0_MEMBER_37_FILL">
<path fill="#F5A480" stroke="none" d="
M 3.7 0.5
L 1.55 0 0.55 0.55 0 1.1 0.5 1.05 1.55 0.4
Q 1.8 0.3 3.4 0.5
L 3.7 0.5 Z"/>
</g>

<g id="Layer0_0_MEMBER_38_FILL">
<path fill="#F5A480" stroke="none" d="
M 4 0.6
L 4.15 0.5 3.75 0.25 2.15 0 1.05 0.05 0 0.45 2.3 0.5 1.6 0.4 4 0.6 Z"/>
</g>

<g id="Layer0_0_MEMBER_39_FILL">
<path fill="#FD8839" stroke="none" d="
M 403.5 34.1
Q 403.35 32.15 401.1 31.35
L 398.85 30.95 397.25 32.05 396.8 33.35 395.6 39.15 395.35 42.35 396.45 42.95
Q 397.75 43.6 398.65 43.75 400.1 44 401.75 43.85
L 402.2 41.3
Q 403.7 37.2 403.5 34.1 Z"/>
</g>

<g id="Layer0_0_MEMBER_40_FILL">
<path fill="#FBC7AC" stroke="none" d="
M 429.5 36.2
L 429.15 36.85 429.65 37.35
Q 429.45 37.55 429.2 37.75 428.75 38.15 428.7 38.35 428.65 38.65 428.9 38.95
L 428.6 39.65 429.1 40.2 429.5 40 429.65 40.25
Q 429.75 40.35 429.9 40.3 430.15 40.25 430.95 39.95 431.8 39.65 431.9 39.55 432.05 39.45 432.5 38.45 432.55 37.5 432.45 37.3
L 432.25 36.7 432.1 35.9 431.7 35.6 431.65 35.5 431.3 34.95
Q 430.95 34.6 430.55 34.55 430.2 34.5 429.45 35
L 427.9 36.2 429.1 36.15 430.3 35.35 429.5 36.2 Z"/>
</g>

<g id="Layer0_0_MEMBER_41_FILL">
<path fill="#F5A480" stroke="none" d="
M 2.8 1.85
L 3.25 1.3 0.75 3.05
Q 0.6 3.2 0.5 2.85 0.3 2.35 0.9 1.85
L 2.2 1.05 2.8 0 1.95 0.85 1.1 1.4 0.9 1.4 1.05 1.55
Q 0.85 1.75 0.6 1.95 0.15 2.35 0.1 2.55 0.05 2.85 0.3 3.15
L 0 3.85
Q -0.05 3.95 0.5 4.4
L 2.75 3.2 3.4 2.45 2.75 3 0.75 4.15 0.35 3.95 0.35 3.6 2.8 1.85 Z"/>
</g>

<g id="Layer0_0_MEMBER_42_FILL">
<path fill="#F5A480" stroke="none" d="
M 2.55 2
L 2.55 2.8 2.2 3.6 1.85 4 0 4.75
Q 0.1 4.85 0.25 4.8 0.5 4.75 1.3 4.45 2.15 4.15 2.25 4.05 2.4 3.95 2.85 2.95 2.9 2 2.8 1.8
L 2.6 1.2 2.45 0.4 2.05 0.1 2 0 2.55 2 Z"/>
</g>

<g id="Layer0_0_MEMBER_43_MEMBER_0_FILL">
<path fill="#37010A" stroke="none" d="
M 422.55 44.4
Q 421.8 45.7 421.8 46.9 421.8 47.95 422.35 48.4 422.8 48.85 424.3 49.7
L 427.85 43.45
Q 426.6 42.7 426.25 42.4 425.5 41.75 424.3 42.5 423.3 43.1 422.55 44.4 Z"/>
</g>

<g id="Layer0_0_MEMBER_43_MEMBER_1_FILL">
<path fill="#4E1F27" stroke="none" d="
M 424.3 45.55
Q 423.55 46.85 423.55 48.05 423.55 49.3 424.3 49.7 425.05 50.15 426.05 49.5 427.1 48.9 427.85 47.6 428.55 46.3 428.55 45.1 428.55 43.85 427.85 43.45 427.1 43 426.05 43.6 425 44.25 424.3 45.55 Z"/>
</g>

<g id="Layer0_0_MEMBER_43_MEMBER_2_FILL">
<path fill="#5C6579" stroke="none" d="
M 424.8 45.8
Q 424.25 46.75 424.25 47.65 424.25 48.55 424.8 48.9 425.3 49.2 426.1 48.75 426.85 48.3 427.4 47.35 427.9 46.35 427.9 45.5 427.9 44.6 427.4 44.3 426.85 43.95 426.1 44.4 425.3 44.85 424.8 45.8 Z"/>
</g>

<g id="Layer0_0_MEMBER_43_MEMBER_3_FILL">
<path fill="#363E55" stroke="none" d="
M 427.9 45.5
Q 427.9 44.3 427.05 44.15 427.35 44.55 427.35 45.15 427.35 46.05 426.8 47 426.3 47.95 425.5 48.4 424.95 48.7 424.5 48.65 425.05 49.3 426.1 48.75 426.85 48.3 427.4 47.35 427.9 46.35 427.9 45.5 Z"/>
</g>
</defs>

<g transform="matrix( 7, 0, 0, 7, 354.7,676.65) ">
<use xlink:href="#Layer0_0_MEMBER_0_FILL"/>
</g>

<g transform="matrix( 7, 0, 0, 7, -2379.15,49.8) ">
<use xlink:href="#Layer0_0_MEMBER_1_FILL"/>
</g>

<g transform="matrix( 7, 0, 0, 7, -2379.15,49.8) ">
<use xlink:href="#Layer0_0_MEMBER_2_FILL"/>
</g>

<g transform="matrix( 7, 0, 0, 7, -2379.15,49.8) ">
<use xlink:href="#Layer0_0_MEMBER_3_FILL"/>
</g>

<g transform="matrix( 7, 0, 0, 7, 411.4,443.9) ">
<use xlink:href="#Layer0_0_MEMBER_4_FILL"/>
</g>

<g transform="matrix( 7, 0, 0, 7, -2379.15,49.8) ">
<use xlink:href="#Layer0_0_MEMBER_5_FILL"/>
</g>

<g transform="matrix( 7, 0, 0, 7, -2379.15,49.8) ">
<use xlink:href="#Layer0_0_MEMBER_6_FILL"/>
</g>

<g transform="matrix( 7, 0, 0, 7, -2379.15,49.8) ">
<use xlink:href="#Layer0_0_MEMBER_7_FILL"/>
</g>

<g transform="matrix( 7, 0, 0, 7, 356.8,428.5) ">
<use xlink:href="#Layer0_0_MEMBER_8_FILL"/>
</g>

<g transform="matrix( 7, 0, 0, 7, 469.85,546.1) ">
<use xlink:href="#Layer0_0_MEMBER_9_FILL"/>
</g>

<g transform="matrix( 7, 0, 0, 7, -2379.15,49.8) ">
<use xlink:href="#Layer0_0_MEMBER_10_FILL"/>
</g>

<g transform="matrix( 7, 0, 0, 7, 546.15,294.45) ">
<use xlink:href="#Layer0_0_MEMBER_11_FILL"/>
</g>

<g transform="matrix( 7, 0, 0, 7, -2379.15,49.8) ">
<use xlink:href="#Layer0_0_MEMBER_12_FILL"/>
</g>

<g transform="matrix( 1, 0, 0, 1, 0,0) ">
<use xlink:href="#Layer0_0_MEMBER_13_FILL"/>
</g>

<g transform="matrix( 1, 0, 0, 1, 0,0) ">
<use xlink:href="#Layer0_0_MEMBER_14_FILL"/>
</g>

<g transform="matrix( 1, 0, 0, 1, 0,0) ">
<use xlink:href="#Layer0_0_MEMBER_15_MEMBER_0_FILL"/>
</g>

<g transform="matrix( 1, 0, 0, 1, 0,0) ">
<use xlink:href="#Layer0_0_MEMBER_16_MEMBER_0_FILL"/>
</g>

<g transform="matrix( 7, 0, 0, 7, -2379.15,49.8) ">
<use xlink:href="#Layer0_0_MEMBER_17_FILL"/>
</g>

<g transform="matrix( 7, 0, 0, 7, -2379.15,49.8) ">
<use xlink:href="#Layer0_0_MEMBER_18_FILL"/>
</g>

<g transform="matrix( 7, 0, 0, 7, -2379.15,49.8) ">
<use xlink:href="#Layer0_0_MEMBER_19_MEMBER_0_MEMBER_0_FILL"/>
</g>

<g transform="matrix( 7, 0, 0, 7, -2379.15,49.8) ">
<use xlink:href="#Layer0_0_MEMBER_19_MEMBER_0_MEMBER_1_FILL"/>
</g>

<g transform="matrix( 7, 0, 0, 7, -2379.15,49.8) ">
<use xlink:href="#Layer0_0_MEMBER_19_MEMBER_0_MEMBER_2_FILL"/>
</g>

<g transform="matrix( 7, 0, 0, 7, -2379.15,49.8) ">
<use xlink:href="#Layer0_0_MEMBER_19_MEMBER_0_MEMBER_3_MEMBER_0_FILL"/>
</g>

<g transform="matrix( 7, 0, 0, 7, -2379.15,49.8) ">
<use xlink:href="#Layer0_0_MEMBER_19_MEMBER_0_MEMBER_3_MEMBER_1_FILL"/>
</g>

<g transform="matrix( 7, 0, 0, 7, -2379.15,49.8) ">
<use xlink:href="#Layer0_0_MEMBER_19_MEMBER_0_MEMBER_4_MEMBER_0_FILL"/>
</g>

<g transform="matrix( 7, 0, 0, 7, -2379.15,49.8) ">
<use xlink:href="#Layer0_0_MEMBER_19_MEMBER_0_MEMBER_4_MEMBER_1_FILL"/>
</g>

<g transform="matrix( 7, 0, 0, 7, -2379.15,49.8) ">
<use xlink:href="#Layer0_0_MEMBER_19_MEMBER_0_MEMBER_5_FILL"/>
</g>

<g transform="matrix( 7, 0, 0, 7, -2379.15,49.8) ">
<use xlink:href="#Layer0_0_MEMBER_19_MEMBER_0_MEMBER_6_FILL"/>
</g>

<g transform="matrix( 1, 0, 0, 1, 0,0) ">
<use xlink:href="#Layer0_0_MEMBER_20_FILL"/>
</g>

<g transform="matrix( 1, 0, 0, 1, 0,0) ">
<use xlink:href="#Layer0_0_MEMBER_21_FILL"/>
</g>

<g transform="matrix( 7, 0, 0, 7, -2379.15,49.8) ">
<use xlink:href="#Layer0_0_MEMBER_22_FILL"/>
</g>

<g transform="matrix( 7, 0, 0, 7, -2379.15,49.8) ">
<use xlink:href="#Layer0_0_MEMBER_23_FILL"/>
</g>

<g transform="matrix( 1, 0, 0, 1, 0,0) ">
<use xlink:href="#Layer0_0_MEMBER_24_FILL"/>
</g>

<g transform="matrix( 7, 0, 0, 7, -2379.15,49.8) ">
<use xlink:href="#Layer0_0_MEMBER_25_FILL"/>
</g>

<g transform="matrix( 7, 0, 0, 7, 486.3,258.75) ">
<use xlink:href="#Layer0_0_MEMBER_26_FILL"/>
</g>

<g transform="matrix( 7, 0, 0, 7, -2379.15,49.8) ">
<use xlink:href="#Layer0_0_MEMBER_27_FILL"/>
</g>

<g transform="matrix( 1, 0, 0, 1, 0,0) ">
<use xlink:href="#Layer0_0_MEMBER_28_FILL"/>
</g>

<g transform="matrix( 7, 0, 0, 7, -2379.15,49.8) ">
<use xlink:href="#Layer0_0_MEMBER_29_FILL"/>
</g>

<g transform="matrix( 7, 0, 0, 7, -2379.15,49.8) ">
<use xlink:href="#Layer0_0_MEMBER_30_FILL"/>
</g>

<g transform="matrix( 7, 0, 0, 7, -2379.15,49.8) ">
<use xlink:href="#Layer0_0_MEMBER_31_FILL"/>
</g>

<g transform="matrix( 7, 0, 0, 7, -2379.15,49.8) ">
<use xlink:href="#Layer0_0_MEMBER_32_FILL"/>
</g>

<g transform="matrix( 1, 0, 0, 1, 0,0) ">
<use xlink:href="#Layer0_0_MEMBER_33_FILL"/>
</g>

<g transform="matrix( 7, 0, 0, 7, 511.15,355.7) ">
<use xlink:href="#Layer0_0_MEMBER_34_FILL"/>
</g>

<g transform="matrix( 7, 0, 0, 7, 384.8,344.15) ">
<use xlink:href="#Layer0_0_MEMBER_35_FILL"/>
</g>

<g transform="matrix( 7, 0, 0, 7, 515,394.2) ">
<use xlink:href="#Layer0_0_MEMBER_36_FILL"/>
</g>

<g transform="matrix( 7, 0, 0, 7, 511.15,367.95) ">
<use xlink:href="#Layer0_0_MEMBER_37_FILL"/>
</g>

<g transform="matrix( 7, 0, 0, 7, 511.5,383) ">
<use xlink:href="#Layer0_0_MEMBER_38_FILL"/>
</g>

<g transform="matrix( 7, 0, 0, 7, -2379.15,49.8) ">
<use xlink:href="#Layer0_0_MEMBER_39_FILL"/>
</g>

<g transform="matrix( 7, 0, 0, 7, -2379.15,49.8) ">
<use xlink:href="#Layer0_0_MEMBER_40_FILL"/>
</g>

<g transform="matrix( 7, 0, 0, 7, 621.05,300.4) ">
<use xlink:href="#Layer0_0_MEMBER_41_FILL"/>
</g>

<g transform="matrix( 7, 0, 0, 7, 628.4,298.3) ">
<use xlink:href="#Layer0_0_MEMBER_42_FILL"/>
</g>

<g transform="matrix( 7, 0, 0, 7, -2379.15,49.8) ">
<use xlink:href="#Layer0_0_MEMBER_43_MEMBER_0_FILL"/>
</g>

<g transform="matrix( 7, 0, 0, 7, -2379.15,49.8) ">
<use xlink:href="#Layer0_0_MEMBER_43_MEMBER_1_FILL"/>
</g>

<g transform="matrix( 7, 0, 0, 7, -2379.15,49.8) ">
<use xlink:href="#Layer0_0_MEMBER_43_MEMBER_2_FILL"/>
</g>

<g transform="matrix( 7, 0, 0, 7, -2379.15,49.8) ">
<use xlink:href="#Layer0_0_MEMBER_43_MEMBER_3_FILL"/>
</g>
</svg>
